<?xml version="1.0" encoding="utf-8" standalone="no"?>
<!DOCTYPE svg PUBLIC "-//W3C//DTD SVG 1.1//EN"
  "http://www.w3.org/Graphics/SVG/1.1/DTD/svg11.dtd">
<!-- Created with matplotlib (https://matplotlib.org/) -->
<svg height="345.6pt" version="1.1" viewBox="0 0 460.8 345.6" width="460.8pt" xmlns="http://www.w3.org/2000/svg" xmlns:xlink="http://www.w3.org/1999/xlink">
 <defs>
  <style type="text/css">
*{stroke-linecap:butt;stroke-linejoin:round;white-space:pre;}
  </style>
 </defs>
 <g id="figure_1">
  <g id="patch_1">
   <path d="M 0 345.6 
L 460.8 345.6 
L 460.8 0 
L 0 0 
z
" style="fill:#ffffff;"/>
  </g>
  <g id="axes_1">
   <g id="patch_2">
    <path d="M 57.6 307.584 
L 414.72 307.584 
L 414.72 41.472 
L 57.6 41.472 
z
" style="fill:#ffffff;"/>
   </g>
   <g id="matplotlib.axis_1">
    <g id="xtick_1">
     <g id="line2d_1">
      <path clip-path="url(#pfc09c0e672)" d="M 73.832727 307.584 
L 73.832727 41.472 
" style="fill:none;stroke:#b0b0b0;stroke-linecap:square;stroke-width:0.8;"/>
     </g>
     <g id="line2d_2">
      <defs>
       <path d="M 0 0 
L 0 3.5 
" id="mc2626ba685" style="stroke:#000000;stroke-width:0.8;"/>
      </defs>
      <g>
       <use style="stroke:#000000;stroke-width:0.8;" x="73.832727" xlink:href="#mc2626ba685" y="307.584"/>
      </g>
     </g>
     <g id="text_1">
      <!-- 0 -->
      <defs>
       <path d="M 31.78125 66.40625 
Q 24.171875 66.40625 20.328125 58.90625 
Q 16.5 51.421875 16.5 36.375 
Q 16.5 21.390625 20.328125 13.890625 
Q 24.171875 6.390625 31.78125 6.390625 
Q 39.453125 6.390625 43.28125 13.890625 
Q 47.125 21.390625 47.125 36.375 
Q 47.125 51.421875 43.28125 58.90625 
Q 39.453125 66.40625 31.78125 66.40625 
z
M 31.78125 74.21875 
Q 44.046875 74.21875 50.515625 64.515625 
Q 56.984375 54.828125 56.984375 36.375 
Q 56.984375 17.96875 50.515625 8.265625 
Q 44.046875 -1.421875 31.78125 -1.421875 
Q 19.53125 -1.421875 13.0625 8.265625 
Q 6.59375 17.96875 6.59375 36.375 
Q 6.59375 54.828125 13.0625 64.515625 
Q 19.53125 74.21875 31.78125 74.21875 
z
" id="DejaVuSans-48"/>
      </defs>
      <g transform="translate(70.651477 322.182437)scale(0.1 -0.1)">
       <use xlink:href="#DejaVuSans-48"/>
      </g>
     </g>
    </g>
    <g id="xtick_2">
     <g id="line2d_3">
      <path clip-path="url(#pfc09c0e672)" d="M 124.961038 307.584 
L 124.961038 41.472 
" style="fill:none;stroke:#b0b0b0;stroke-linecap:square;stroke-width:0.8;"/>
     </g>
     <g id="line2d_4">
      <g>
       <use style="stroke:#000000;stroke-width:0.8;" x="124.961038" xlink:href="#mc2626ba685" y="307.584"/>
      </g>
     </g>
     <g id="text_2">
      <!-- 5000 -->
      <defs>
       <path d="M 10.796875 72.90625 
L 49.515625 72.90625 
L 49.515625 64.59375 
L 19.828125 64.59375 
L 19.828125 46.734375 
Q 21.96875 47.46875 24.109375 47.828125 
Q 26.265625 48.1875 28.421875 48.1875 
Q 40.625 48.1875 47.75 41.5 
Q 54.890625 34.8125 54.890625 23.390625 
Q 54.890625 11.625 47.5625 5.09375 
Q 40.234375 -1.421875 26.90625 -1.421875 
Q 22.3125 -1.421875 17.546875 -0.640625 
Q 12.796875 0.140625 7.71875 1.703125 
L 7.71875 11.625 
Q 12.109375 9.234375 16.796875 8.0625 
Q 21.484375 6.890625 26.703125 6.890625 
Q 35.15625 6.890625 40.078125 11.328125 
Q 45.015625 15.765625 45.015625 23.390625 
Q 45.015625 31 40.078125 35.4375 
Q 35.15625 39.890625 26.703125 39.890625 
Q 22.75 39.890625 18.8125 39.015625 
Q 14.890625 38.140625 10.796875 36.28125 
z
" id="DejaVuSans-53"/>
      </defs>
      <g transform="translate(112.236038 322.182437)scale(0.1 -0.1)">
       <use xlink:href="#DejaVuSans-53"/>
       <use x="63.623047" xlink:href="#DejaVuSans-48"/>
       <use x="127.246094" xlink:href="#DejaVuSans-48"/>
       <use x="190.869141" xlink:href="#DejaVuSans-48"/>
      </g>
     </g>
    </g>
    <g id="xtick_3">
     <g id="line2d_5">
      <path clip-path="url(#pfc09c0e672)" d="M 176.089348 307.584 
L 176.089348 41.472 
" style="fill:none;stroke:#b0b0b0;stroke-linecap:square;stroke-width:0.8;"/>
     </g>
     <g id="line2d_6">
      <g>
       <use style="stroke:#000000;stroke-width:0.8;" x="176.089348" xlink:href="#mc2626ba685" y="307.584"/>
      </g>
     </g>
     <g id="text_3">
      <!-- 10000 -->
      <defs>
       <path d="M 12.40625 8.296875 
L 28.515625 8.296875 
L 28.515625 63.921875 
L 10.984375 60.40625 
L 10.984375 69.390625 
L 28.421875 72.90625 
L 38.28125 72.90625 
L 38.28125 8.296875 
L 54.390625 8.296875 
L 54.390625 0 
L 12.40625 0 
z
" id="DejaVuSans-49"/>
      </defs>
      <g transform="translate(160.183098 322.182437)scale(0.1 -0.1)">
       <use xlink:href="#DejaVuSans-49"/>
       <use x="63.623047" xlink:href="#DejaVuSans-48"/>
       <use x="127.246094" xlink:href="#DejaVuSans-48"/>
       <use x="190.869141" xlink:href="#DejaVuSans-48"/>
       <use x="254.492188" xlink:href="#DejaVuSans-48"/>
      </g>
     </g>
    </g>
    <g id="xtick_4">
     <g id="line2d_7">
      <path clip-path="url(#pfc09c0e672)" d="M 227.217659 307.584 
L 227.217659 41.472 
" style="fill:none;stroke:#b0b0b0;stroke-linecap:square;stroke-width:0.8;"/>
     </g>
     <g id="line2d_8">
      <g>
       <use style="stroke:#000000;stroke-width:0.8;" x="227.217659" xlink:href="#mc2626ba685" y="307.584"/>
      </g>
     </g>
     <g id="text_4">
      <!-- 15000 -->
      <g transform="translate(211.311409 322.182437)scale(0.1 -0.1)">
       <use xlink:href="#DejaVuSans-49"/>
       <use x="63.623047" xlink:href="#DejaVuSans-53"/>
       <use x="127.246094" xlink:href="#DejaVuSans-48"/>
       <use x="190.869141" xlink:href="#DejaVuSans-48"/>
       <use x="254.492188" xlink:href="#DejaVuSans-48"/>
      </g>
     </g>
    </g>
    <g id="xtick_5">
     <g id="line2d_9">
      <path clip-path="url(#pfc09c0e672)" d="M 278.345969 307.584 
L 278.345969 41.472 
" style="fill:none;stroke:#b0b0b0;stroke-linecap:square;stroke-width:0.8;"/>
     </g>
     <g id="line2d_10">
      <g>
       <use style="stroke:#000000;stroke-width:0.8;" x="278.345969" xlink:href="#mc2626ba685" y="307.584"/>
      </g>
     </g>
     <g id="text_5">
      <!-- 20000 -->
      <defs>
       <path d="M 19.1875 8.296875 
L 53.609375 8.296875 
L 53.609375 0 
L 7.328125 0 
L 7.328125 8.296875 
Q 12.9375 14.109375 22.625 23.890625 
Q 32.328125 33.6875 34.8125 36.53125 
Q 39.546875 41.84375 41.421875 45.53125 
Q 43.3125 49.21875 43.3125 52.78125 
Q 43.3125 58.59375 39.234375 62.25 
Q 35.15625 65.921875 28.609375 65.921875 
Q 23.96875 65.921875 18.8125 64.3125 
Q 13.671875 62.703125 7.8125 59.421875 
L 7.8125 69.390625 
Q 13.765625 71.78125 18.9375 73 
Q 24.125 74.21875 28.421875 74.21875 
Q 39.75 74.21875 46.484375 68.546875 
Q 53.21875 62.890625 53.21875 53.421875 
Q 53.21875 48.921875 51.53125 44.890625 
Q 49.859375 40.875 45.40625 35.40625 
Q 44.1875 33.984375 37.640625 27.21875 
Q 31.109375 20.453125 19.1875 8.296875 
z
" id="DejaVuSans-50"/>
      </defs>
      <g transform="translate(262.439719 322.182437)scale(0.1 -0.1)">
       <use xlink:href="#DejaVuSans-50"/>
       <use x="63.623047" xlink:href="#DejaVuSans-48"/>
       <use x="127.246094" xlink:href="#DejaVuSans-48"/>
       <use x="190.869141" xlink:href="#DejaVuSans-48"/>
       <use x="254.492188" xlink:href="#DejaVuSans-48"/>
      </g>
     </g>
    </g>
    <g id="xtick_6">
     <g id="line2d_11">
      <path clip-path="url(#pfc09c0e672)" d="M 329.474279 307.584 
L 329.474279 41.472 
" style="fill:none;stroke:#b0b0b0;stroke-linecap:square;stroke-width:0.8;"/>
     </g>
     <g id="line2d_12">
      <g>
       <use style="stroke:#000000;stroke-width:0.8;" x="329.474279" xlink:href="#mc2626ba685" y="307.584"/>
      </g>
     </g>
     <g id="text_6">
      <!-- 25000 -->
      <g transform="translate(313.568029 322.182437)scale(0.1 -0.1)">
       <use xlink:href="#DejaVuSans-50"/>
       <use x="63.623047" xlink:href="#DejaVuSans-53"/>
       <use x="127.246094" xlink:href="#DejaVuSans-48"/>
       <use x="190.869141" xlink:href="#DejaVuSans-48"/>
       <use x="254.492188" xlink:href="#DejaVuSans-48"/>
      </g>
     </g>
    </g>
    <g id="xtick_7">
     <g id="line2d_13">
      <path clip-path="url(#pfc09c0e672)" d="M 380.60259 307.584 
L 380.60259 41.472 
" style="fill:none;stroke:#b0b0b0;stroke-linecap:square;stroke-width:0.8;"/>
     </g>
     <g id="line2d_14">
      <g>
       <use style="stroke:#000000;stroke-width:0.8;" x="380.60259" xlink:href="#mc2626ba685" y="307.584"/>
      </g>
     </g>
     <g id="text_7">
      <!-- 30000 -->
      <defs>
       <path d="M 40.578125 39.3125 
Q 47.65625 37.796875 51.625 33 
Q 55.609375 28.21875 55.609375 21.1875 
Q 55.609375 10.40625 48.1875 4.484375 
Q 40.765625 -1.421875 27.09375 -1.421875 
Q 22.515625 -1.421875 17.65625 -0.515625 
Q 12.796875 0.390625 7.625 2.203125 
L 7.625 11.71875 
Q 11.71875 9.328125 16.59375 8.109375 
Q 21.484375 6.890625 26.8125 6.890625 
Q 36.078125 6.890625 40.9375 10.546875 
Q 45.796875 14.203125 45.796875 21.1875 
Q 45.796875 27.640625 41.28125 31.265625 
Q 36.765625 34.90625 28.71875 34.90625 
L 20.21875 34.90625 
L 20.21875 43.015625 
L 29.109375 43.015625 
Q 36.375 43.015625 40.234375 45.921875 
Q 44.09375 48.828125 44.09375 54.296875 
Q 44.09375 59.90625 40.109375 62.90625 
Q 36.140625 65.921875 28.71875 65.921875 
Q 24.65625 65.921875 20.015625 65.03125 
Q 15.375 64.15625 9.8125 62.3125 
L 9.8125 71.09375 
Q 15.4375 72.65625 20.34375 73.4375 
Q 25.25 74.21875 29.59375 74.21875 
Q 40.828125 74.21875 47.359375 69.109375 
Q 53.90625 64.015625 53.90625 55.328125 
Q 53.90625 49.265625 50.4375 45.09375 
Q 46.96875 40.921875 40.578125 39.3125 
z
" id="DejaVuSans-51"/>
      </defs>
      <g transform="translate(364.69634 322.182437)scale(0.1 -0.1)">
       <use xlink:href="#DejaVuSans-51"/>
       <use x="63.623047" xlink:href="#DejaVuSans-48"/>
       <use x="127.246094" xlink:href="#DejaVuSans-48"/>
       <use x="190.869141" xlink:href="#DejaVuSans-48"/>
       <use x="254.492188" xlink:href="#DejaVuSans-48"/>
      </g>
     </g>
    </g>
    <g id="text_8">
     <!-- Steps -->
     <defs>
      <path d="M 53.515625 70.515625 
L 53.515625 60.890625 
Q 47.90625 63.578125 42.921875 64.890625 
Q 37.9375 66.21875 33.296875 66.21875 
Q 25.25 66.21875 20.875 63.09375 
Q 16.5 59.96875 16.5 54.203125 
Q 16.5 49.359375 19.40625 46.890625 
Q 22.3125 44.4375 30.421875 42.921875 
L 36.375 41.703125 
Q 47.40625 39.59375 52.65625 34.296875 
Q 57.90625 29 57.90625 20.125 
Q 57.90625 9.515625 50.796875 4.046875 
Q 43.703125 -1.421875 29.984375 -1.421875 
Q 24.8125 -1.421875 18.96875 -0.25 
Q 13.140625 0.921875 6.890625 3.21875 
L 6.890625 13.375 
Q 12.890625 10.015625 18.65625 8.296875 
Q 24.421875 6.59375 29.984375 6.59375 
Q 38.421875 6.59375 43.015625 9.90625 
Q 47.609375 13.234375 47.609375 19.390625 
Q 47.609375 24.75 44.3125 27.78125 
Q 41.015625 30.8125 33.5 32.328125 
L 27.484375 33.5 
Q 16.453125 35.6875 11.515625 40.375 
Q 6.59375 45.0625 6.59375 53.421875 
Q 6.59375 63.09375 13.40625 68.65625 
Q 20.21875 74.21875 32.171875 74.21875 
Q 37.3125 74.21875 42.625 73.28125 
Q 47.953125 72.359375 53.515625 70.515625 
z
" id="DejaVuSans-83"/>
      <path d="M 18.3125 70.21875 
L 18.3125 54.6875 
L 36.8125 54.6875 
L 36.8125 47.703125 
L 18.3125 47.703125 
L 18.3125 18.015625 
Q 18.3125 11.328125 20.140625 9.421875 
Q 21.96875 7.515625 27.59375 7.515625 
L 36.8125 7.515625 
L 36.8125 0 
L 27.59375 0 
Q 17.1875 0 13.234375 3.875 
Q 9.28125 7.765625 9.28125 18.015625 
L 9.28125 47.703125 
L 2.6875 47.703125 
L 2.6875 54.6875 
L 9.28125 54.6875 
L 9.28125 70.21875 
z
" id="DejaVuSans-116"/>
      <path d="M 56.203125 29.59375 
L 56.203125 25.203125 
L 14.890625 25.203125 
Q 15.484375 15.921875 20.484375 11.0625 
Q 25.484375 6.203125 34.421875 6.203125 
Q 39.59375 6.203125 44.453125 7.46875 
Q 49.3125 8.734375 54.109375 11.28125 
L 54.109375 2.78125 
Q 49.265625 0.734375 44.1875 -0.34375 
Q 39.109375 -1.421875 33.890625 -1.421875 
Q 20.796875 -1.421875 13.15625 6.1875 
Q 5.515625 13.8125 5.515625 26.8125 
Q 5.515625 40.234375 12.765625 48.109375 
Q 20.015625 56 32.328125 56 
Q 43.359375 56 49.78125 48.890625 
Q 56.203125 41.796875 56.203125 29.59375 
z
M 47.21875 32.234375 
Q 47.125 39.59375 43.09375 43.984375 
Q 39.0625 48.390625 32.421875 48.390625 
Q 24.90625 48.390625 20.390625 44.140625 
Q 15.875 39.890625 15.1875 32.171875 
z
" id="DejaVuSans-101"/>
      <path d="M 18.109375 8.203125 
L 18.109375 -20.796875 
L 9.078125 -20.796875 
L 9.078125 54.6875 
L 18.109375 54.6875 
L 18.109375 46.390625 
Q 20.953125 51.265625 25.265625 53.625 
Q 29.59375 56 35.59375 56 
Q 45.5625 56 51.78125 48.09375 
Q 58.015625 40.1875 58.015625 27.296875 
Q 58.015625 14.40625 51.78125 6.484375 
Q 45.5625 -1.421875 35.59375 -1.421875 
Q 29.59375 -1.421875 25.265625 0.953125 
Q 20.953125 3.328125 18.109375 8.203125 
z
M 48.6875 27.296875 
Q 48.6875 37.203125 44.609375 42.84375 
Q 40.53125 48.484375 33.40625 48.484375 
Q 26.265625 48.484375 22.1875 42.84375 
Q 18.109375 37.203125 18.109375 27.296875 
Q 18.109375 17.390625 22.1875 11.75 
Q 26.265625 6.109375 33.40625 6.109375 
Q 40.53125 6.109375 44.609375 11.75 
Q 48.6875 17.390625 48.6875 27.296875 
z
" id="DejaVuSans-112"/>
      <path d="M 44.28125 53.078125 
L 44.28125 44.578125 
Q 40.484375 46.53125 36.375 47.5 
Q 32.28125 48.484375 27.875 48.484375 
Q 21.1875 48.484375 17.84375 46.4375 
Q 14.5 44.390625 14.5 40.28125 
Q 14.5 37.15625 16.890625 35.375 
Q 19.28125 33.59375 26.515625 31.984375 
L 29.59375 31.296875 
Q 39.15625 29.25 43.1875 25.515625 
Q 47.21875 21.78125 47.21875 15.09375 
Q 47.21875 7.46875 41.1875 3.015625 
Q 35.15625 -1.421875 24.609375 -1.421875 
Q 20.21875 -1.421875 15.453125 -0.5625 
Q 10.6875 0.296875 5.421875 2 
L 5.421875 11.28125 
Q 10.40625 8.6875 15.234375 7.390625 
Q 20.0625 6.109375 24.8125 6.109375 
Q 31.15625 6.109375 34.5625 8.28125 
Q 37.984375 10.453125 37.984375 14.40625 
Q 37.984375 18.0625 35.515625 20.015625 
Q 33.0625 21.96875 24.703125 23.78125 
L 21.578125 24.515625 
Q 13.234375 26.265625 9.515625 29.90625 
Q 5.8125 33.546875 5.8125 39.890625 
Q 5.8125 47.609375 11.28125 51.796875 
Q 16.75 56 26.8125 56 
Q 31.78125 56 36.171875 55.265625 
Q 40.578125 54.546875 44.28125 53.078125 
z
" id="DejaVuSans-115"/>
     </defs>
     <g transform="translate(222.170156 335.860562)scale(0.1 -0.1)">
      <use xlink:href="#DejaVuSans-83"/>
      <use x="63.476562" xlink:href="#DejaVuSans-116"/>
      <use x="102.685547" xlink:href="#DejaVuSans-101"/>
      <use x="164.208984" xlink:href="#DejaVuSans-112"/>
      <use x="227.685547" xlink:href="#DejaVuSans-115"/>
     </g>
    </g>
   </g>
   <g id="matplotlib.axis_2">
    <g id="ytick_1">
     <g id="line2d_15">
      <path clip-path="url(#pfc09c0e672)" d="M 57.6 291.820405 
L 414.72 291.820405 
" style="fill:none;stroke:#b0b0b0;stroke-linecap:square;stroke-width:0.8;"/>
     </g>
     <g id="line2d_16">
      <defs>
       <path d="M 0 0 
L -3.5 0 
" id="m4ea21b296d" style="stroke:#000000;stroke-width:0.8;"/>
      </defs>
      <g>
       <use style="stroke:#000000;stroke-width:0.8;" x="57.6" xlink:href="#m4ea21b296d" y="291.820405"/>
      </g>
     </g>
     <g id="text_9">
      <!-- $\mathdefault{10^{0}}$ -->
      <g transform="translate(33 295.619624)scale(0.1 -0.1)">
       <use transform="translate(0 0.765625)" xlink:href="#DejaVuSans-49"/>
       <use transform="translate(63.623047 0.765625)" xlink:href="#DejaVuSans-48"/>
       <use transform="translate(128.203125 39.046875)scale(0.7)" xlink:href="#DejaVuSans-48"/>
      </g>
     </g>
    </g>
    <g id="ytick_2">
     <g id="line2d_17">
      <path clip-path="url(#pfc09c0e672)" d="M 57.6 147.821877 
L 414.72 147.821877 
" style="fill:none;stroke:#b0b0b0;stroke-linecap:square;stroke-width:0.8;"/>
     </g>
     <g id="line2d_18">
      <g>
       <use style="stroke:#000000;stroke-width:0.8;" x="57.6" xlink:href="#m4ea21b296d" y="147.821877"/>
      </g>
     </g>
     <g id="text_10">
      <!-- $\mathdefault{10^{1}}$ -->
      <g transform="translate(33 151.621096)scale(0.1 -0.1)">
       <use transform="translate(0 0.684375)" xlink:href="#DejaVuSans-49"/>
       <use transform="translate(63.623047 0.684375)" xlink:href="#DejaVuSans-48"/>
       <use transform="translate(128.203125 38.965625)scale(0.7)" xlink:href="#DejaVuSans-49"/>
      </g>
     </g>
    </g>
    <g id="ytick_3">
     <g id="line2d_19">
      <defs>
       <path d="M 0 0 
L -2 0 
" id="m410a8b6dd1" style="stroke:#000000;stroke-width:0.6;"/>
      </defs>
      <g>
       <use style="stroke:#000000;stroke-width:0.6;" x="57.6" xlink:href="#m410a8b6dd1" y="305.775304"/>
      </g>
     </g>
    </g>
    <g id="ytick_4">
     <g id="line2d_20">
      <g>
       <use style="stroke:#000000;stroke-width:0.6;" x="57.6" xlink:href="#m410a8b6dd1" y="298.409416"/>
      </g>
     </g>
    </g>
    <g id="ytick_5">
     <g id="line2d_21">
      <g>
       <use style="stroke:#000000;stroke-width:0.6;" x="57.6" xlink:href="#m410a8b6dd1" y="248.472529"/>
      </g>
     </g>
    </g>
    <g id="ytick_6">
     <g id="line2d_22">
      <g>
       <use style="stroke:#000000;stroke-width:0.6;" x="57.6" xlink:href="#m410a8b6dd1" y="223.115647"/>
      </g>
     </g>
    </g>
    <g id="ytick_7">
     <g id="line2d_23">
      <g>
       <use style="stroke:#000000;stroke-width:0.6;" x="57.6" xlink:href="#m410a8b6dd1" y="205.124652"/>
      </g>
     </g>
    </g>
    <g id="ytick_8">
     <g id="line2d_24">
      <g>
       <use style="stroke:#000000;stroke-width:0.6;" x="57.6" xlink:href="#m410a8b6dd1" y="191.169753"/>
      </g>
     </g>
    </g>
    <g id="ytick_9">
     <g id="line2d_25">
      <g>
       <use style="stroke:#000000;stroke-width:0.6;" x="57.6" xlink:href="#m410a8b6dd1" y="179.76777"/>
      </g>
     </g>
    </g>
    <g id="ytick_10">
     <g id="line2d_26">
      <g>
       <use style="stroke:#000000;stroke-width:0.6;" x="57.6" xlink:href="#m410a8b6dd1" y="170.127531"/>
      </g>
     </g>
    </g>
    <g id="ytick_11">
     <g id="line2d_27">
      <g>
       <use style="stroke:#000000;stroke-width:0.6;" x="57.6" xlink:href="#m410a8b6dd1" y="161.776776"/>
      </g>
     </g>
    </g>
    <g id="ytick_12">
     <g id="line2d_28">
      <g>
       <use style="stroke:#000000;stroke-width:0.6;" x="57.6" xlink:href="#m410a8b6dd1" y="154.410888"/>
      </g>
     </g>
    </g>
    <g id="ytick_13">
     <g id="line2d_29">
      <g>
       <use style="stroke:#000000;stroke-width:0.6;" x="57.6" xlink:href="#m410a8b6dd1" y="104.474"/>
      </g>
     </g>
    </g>
    <g id="ytick_14">
     <g id="line2d_30">
      <g>
       <use style="stroke:#000000;stroke-width:0.6;" x="57.6" xlink:href="#m410a8b6dd1" y="79.117118"/>
      </g>
     </g>
    </g>
    <g id="ytick_15">
     <g id="line2d_31">
      <g>
       <use style="stroke:#000000;stroke-width:0.6;" x="57.6" xlink:href="#m410a8b6dd1" y="61.126124"/>
      </g>
     </g>
    </g>
    <g id="ytick_16">
     <g id="line2d_32">
      <g>
       <use style="stroke:#000000;stroke-width:0.6;" x="57.6" xlink:href="#m410a8b6dd1" y="47.171225"/>
      </g>
     </g>
    </g>
    <g id="text_11">
     <!-- $\beta$ -->
     <defs>
      <path d="M 13.625 3.375 
L 8.9375 -20.796875 
L -0.09375 -20.796875 
L 14.5 54.34375 
Q 18.84375 76.609375 39.65625 76.609375 
Q 60.75 76.609375 57.171875 57.8125 
Q 54.734375 44.4375 45.21875 39.546875 
Q 58.015625 35.15625 55.515625 22.125 
Q 51.125 -1.078125 27.484375 -1.03125 
Q 17.140625 -0.984375 13.625 3.375 
z
M 15.921875 15.09375 
Q 19.671875 6.59375 29.296875 6.640625 
Q 43.359375 6.640625 46.34375 21.96875 
Q 49.03125 35.75 26.171875 34.671875 
L 27.78125 42.96875 
Q 45.453125 42.671875 48.53125 58.59375 
Q 50.640625 69.34375 39.203125 69.28125 
Q 26.421875 69.28125 23.484375 54.046875 
z
" id="DejaVuSans-Oblique-946"/>
     </defs>
     <g transform="translate(26.9 177.728)rotate(-90)scale(0.1 -0.1)">
      <use transform="translate(0 0.390625)" xlink:href="#DejaVuSans-Oblique-946"/>
     </g>
    </g>
   </g>
   <g id="line2d_33">
    <path clip-path="url(#pfc09c0e672)" d="M 73.832727 291.841758 
L 73.87363 291.678545 
L 73.934984 291.874476 
L 74.211077 293.45007 
L 74.558749 294.906116 
L 74.732586 295.488 
L 74.783714 295.289352 
L 75.305223 291.8956 
L 76.000568 273.969385 
L 76.41982 271.096976 
L 76.767492 266.290773 
L 78.147957 254.154992 
L 78.291116 253.008272 
L 78.986461 246.389103 
L 79.722709 241.276319 
L 79.835191 240.748907 
L 80.315797 238.819278 
L 81.450846 233.225669 
L 81.767841 231.826586 
L 82.227996 230.12892 
L 82.493863 229.499082 
L 85.766075 221.344221 
L 85.991039 220.939502 
L 86.655708 219.150386 
L 86.860221 218.768365 
L 87.954367 216.72643 
L 88.557681 215.269438 
L 89.00761 214.3622 
L 89.253026 213.773332 
L 90.224464 211.362342 
L 90.357397 211.043958 
L 90.745972 210.04045 
L 96.400763 200.106926 
L 97.249493 199.060899 
L 98.364091 197.784081 
L 98.701537 197.42996 
L 99.038984 196.963708 
L 99.499139 196.315507 
L 100.102453 195.642105 
L 100.327418 195.33186 
L 107.383125 185.888931 
L 107.608089 185.5483 
L 107.996664 184.987964 
L 111.115491 180.183392 
L 113.354911 177.198758 
L 114.377477 175.640808 
L 114.950115 174.813644 
L 115.33869 174.30163 
L 118.28368 170.874976 
L 122.210335 167.020514 
L 122.926131 166.402085 
L 125.00194 164.814688 
L 125.533675 164.369488 
L 125.973378 164.001898 
L 126.944816 163.241431 
L 127.8549 162.518363 
L 128.427537 162.096359 
L 130.02274 160.864557 
L 131.198692 160.002124 
L 132.149678 159.268437 
L 132.957505 158.683618 
L 134.695868 157.480926 
L 136.321748 156.362632 
L 139.28719 154.481132 
L 140.279079 153.881006 
L 144.819273 151.018955 
L 145.381685 150.719984 
L 146.353123 150.131148 
L 147.856295 149.240546 
L 163.194788 140.015213 
L 163.828779 139.618873 
L 164.401416 139.267325 
L 169.31996 136.071239 
L 172.786459 133.759863 
L 173.328419 133.409138 
L 179.279755 129.84987 
L 180.179613 129.319904 
L 182.234971 128.234776 
L 183.349568 127.660897 
L 184.351683 127.158443 
L 189.035036 124.786346 
L 191.755062 123.344831 
L 207.461679 115.239125 
L 209.742002 114.125098 
L 212.95286 112.542151 
L 213.781139 112.144385 
L 215.621758 111.266448 
L 220.478947 109.015034 
L 221.828735 108.400001 
L 223.219425 107.755089 
L 228.639026 105.281796 
L 230.510322 104.411642 
L 238.588595 100.579117 
L 239.75432 100.020632 
L 241.717647 99.031243 
L 255.235973 92.2495 
L 256.524406 91.635203 
L 258.866083 90.530575 
L 261.575883 89.334235 
L 265.788856 87.536879 
L 266.504652 87.242595 
L 276.290611 83.384426 
L 279.358309 82.208567 
L 281.168252 81.546973 
L 285.350547 80.01376 
L 288.949981 78.774361 
L 292.907312 77.416802 
L 295.913656 76.45705 
L 311.79411 71.425554 
L 323.891068 67.970718 
L 341.734848 63.415071 
L 353.89316 61.022589 
L 357.011987 60.363838 
L 376.205555 56.872762 
L 383.700965 55.725852 
L 398.487273 53.568 
L 398.487273 53.568 
" style="fill:none;stroke:#1f77b4;stroke-linecap:square;stroke-width:1.5;"/>
   </g>
   <g id="line2d_34">
    <path clip-path="url(#pfc09c0e672)" d="M 73.832727 291.83684 
L 73.883856 291.651183 
L 73.94521 291.791879 
L 74.824616 294.683143 
L 74.855293 294.506041 
L 75.008678 291.74475 
L 75.182515 289.586216 
L 75.233643 289.591507 
L 75.26432 289.643562 
L 75.438156 290.083917 
L 75.509736 289.883741 
L 75.867634 286.925955 
L 76.021019 286.621028 
L 76.235758 283.784791 
L 76.460722 281.529027 
L 76.501625 281.382316 
L 76.72659 279.259624 
L 77.145842 274.649504 
L 77.299227 273.4921 
L 77.728705 268.550792 
L 77.871864 267.62992 
L 78.239988 265.833824 
L 79.150072 263.419593 
L 80.540762 260.316408 
L 80.714598 260.188864 
L 80.908885 259.968244 
L 81.154301 259.8562 
L 81.818969 260.098244 
L 82.279124 260.376478 
L 82.401832 260.458091 
L 83.60846 261.682138 
L 85.203664 263.253644 
L 85.254792 263.120787 
L 85.336597 263.04922 
L 85.387725 263.091647 
L 85.561562 263.201167 
L 85.776301 263.31874 
L 85.929686 263.377453 
L 86.123973 263.452563 
L 86.246681 263.275793 
L 86.277358 263.232682 
L 86.359163 263.282133 
L 86.410292 263.197183 
L 86.625031 262.7699 
L 86.778415 262.707211 
L 87.228345 262.898411 
L 87.259022 262.816054 
L 87.463535 262.625535 
L 87.647597 262.557407 
L 88.117977 262.456538 
L 88.404296 262.612439 
L 88.70084 262.618379 
L 89.835888 262.501991 
L 89.979048 262.098169 
L 89.989273 262.103324 
L 90.071079 262.01247 
L 90.735747 260.52549 
L 90.745972 260.529904 
L 90.899357 260.444183 
L 91.073194 260.10688 
L 91.257255 259.82696 
L 91.48222 259.717041 
L 91.615154 259.5929 
L 91.921923 259.163581 
L 91.983277 259.213286 
L 92.136662 259.182992 
L 92.310499 258.902624 
L 92.392304 258.699182 
L 92.443432 258.709226 
L 92.739976 258.591819 
L 93.036521 257.845173 
L 93.465998 257.06648 
L 93.670512 256.437143 
L 93.987507 256.178717 
L 94.447662 255.294979 
L 94.601047 255.03986 
L 95.050976 254.317676 
L 95.449777 254.016989 
L 96.390538 251.09549 
L 97.034755 248.854384 
L 97.239268 248.486977 
L 97.474458 247.594144 
L 98.231157 245.151353 
L 98.568604 243.973781 
L 99.529816 240.271702 
L 99.744555 239.867169 
L 100.061551 239.124539 
L 100.450126 238.218607 
L 101.196599 236.621837 
L 101.390887 236.269415 
L 101.615851 235.670887 
L 102.362324 234.451914 
L 103.016767 233.152219 
L 103.343988 232.688072 
L 103.824594 231.111677 
L 104.202944 230.103183 
L 104.499488 229.688921 
L 104.959643 228.841206 
L 105.317541 228.065632 
L 106.442364 226.569737 
L 106.698005 226.198502 
L 107.168386 225.808182 
L 107.424027 225.602485 
L 107.914859 225.053562 
L 108.354562 224.549662 
L 108.692009 224.26332 
L 109.070359 223.938607 
L 109.653222 223.328706 
L 110.297438 222.891735 
L 111.125717 222.287939 
L 112.403925 221.67531 
L 112.966336 221.188252 
L 115.277336 219.436371 
L 115.696588 219.163147 
L 117.751946 217.907219 
L 117.966685 217.784232 
L 118.212101 217.435284 
L 119.081282 216.193936 
L 120.564003 215.049778 
L 121.024158 214.836765 
L 121.279799 214.717776 
L 121.719503 214.392441 
L 122.782972 213.295403 
L 123.488542 213.111305 
L 124.306595 212.337198 
L 125.339387 212.05054 
L 125.717737 212.049427 
L 127.24136 211.4886 
L 127.517453 211.298166 
L 129.122882 210.623959 
L 129.409201 210.518239 
L 131.495236 209.877567 
L 131.802006 209.613471 
L 132.119001 209.407853 
L 132.517802 209.176479 
L 133.162019 209.109657 
L 135.1867 208.553597 
L 135.677532 208.438756 
L 136.618292 208.144157 
L 137.180704 208.108577 
L 137.507925 207.965922 
L 137.784018 207.92001 
L 138.101013 207.925515 
L 138.479363 207.896771 
L 139.041774 207.748298 
L 139.297416 207.617467 
L 139.512155 207.46942 
L 139.839376 207.294748 
L 140.51427 207.202835 
L 140.872168 207.265491 
L 141.414128 207.221333 
L 143.357004 206.997219 
L 144.788596 206.601487 
L 146.588313 206.311667 
L 146.966662 206.245723 
L 147.334786 206.208308 
L 149.052698 206.299905 
L 149.604883 206.431515 
L 149.94233 206.489371 
L 150.2491 206.53905 
L 150.729706 206.567969 
L 150.995573 206.535423 
L 152.41694 206.583772 
L 158.337599 207.566133 
L 158.97159 207.81433 
L 162.990275 208.91162 
L 163.30727 208.98652 
L 164.186677 209.29428 
L 164.329837 209.333143 
L 166.057974 210.011999 
L 166.344292 210.11543 
L 166.794221 210.309033 
L 167.683854 210.695853 
L 169.677858 211.376489 
L 170.086884 211.490466 
L 170.209592 211.546942 
L 170.598168 211.678558 
L 171.01742 211.758053 
L 171.140128 211.773265 
L 176.007543 214.045435 
L 176.252959 214.080583 
L 176.610857 214.284232 
L 177.459587 214.746088 
L 177.623197 214.782518 
L 178.032224 214.89947 
L 178.144706 214.929612 
L 178.461702 215.02612 
L 178.880954 215.181485 
L 179.463817 215.444791 
L 179.739909 215.50649 
L 179.985325 215.54441 
L 180.363675 215.591836 
L 185.476506 217.790549 
L 186.07982 218.130942 
L 186.325236 218.264388 
L 187.194417 218.643917 
L 187.480736 218.605847 
L 187.828408 218.57613 
L 188.288563 218.743335 
L 188.718041 218.975028 
L 189.433837 219.272044 
L 190.681368 219.830851 
L 191.080169 220.085118 
L 191.223328 220.153561 
L 191.785739 220.458397 
L 191.928899 220.451965 
L 192.501536 220.518962 
L 192.685598 220.586733 
L 194.65915 221.490489 
L 195.242013 221.520839 
L 196.285031 221.490947 
L 196.673606 221.432442 
L 198.279035 222.192289 
L 198.636933 222.347556 
L 198.872123 222.260047 
L 199.025508 222.174205 
L 199.82311 221.997733 
L 200.283265 222.146221 
L 200.405973 222.205444 
L 200.733194 222.382825 
L 200.90703 222.399295 
L 201.121769 222.415393 
L 201.786437 222.252633 
L 202.543136 222.390409 
L 202.737423 222.369985 
L 203.023742 222.336257 
L 203.14645 222.349084 
L 203.729313 222.304615 
L 203.872472 222.236133 
L 204.06676 222.196967 
L 204.925715 222.012609 
L 205.31429 222.060231 
L 205.805122 222.080314 
L 205.978958 222.043845 
L 206.173246 221.983822 
L 206.868591 221.618774 
L 207.042427 221.501383 
L 207.226489 221.420829 
L 207.635516 221.360324 
L 207.799126 221.308311 
L 208.177476 221.266274 
L 208.903498 221.088749 
L 209.036431 221.048582 
L 209.547714 221.161597 
L 211.142918 221.32069 
L 211.316754 221.283506 
L 211.480365 221.230825 
L 211.613298 221.194897 
L 211.899617 221.145712 
L 212.03255 221.100849 
L 212.431351 220.952601 
L 212.625639 220.857003 
L 213.249404 220.767215 
L 213.525497 220.766042 
L 213.80159 220.7116 
L 214.139037 220.468303 
L 215.161603 219.594834 
L 215.366116 219.450494 
L 217.278315 218.159836 
L 218.014563 217.717272 
L 218.362235 217.601541 
L 218.556523 217.516757 
L 218.658779 217.429957 
L 218.82239 217.316477 
L 219.149611 217.09748 
L 219.302996 216.979181 
L 220.847071 216.396865 
L 221.082261 216.164539 
L 223.567097 214.969424 
L 224.466955 214.316152 
L 224.589663 214.255164 
L 224.783951 214.155429 
L 226.174641 213.386328 
L 227.186982 212.406714 
L 227.626685 212.117372 
L 227.882327 211.987981 
L 228.833313 211.468357 
L 229.293468 211.366506 
L 229.94791 210.769821 
L 230.387614 210.156379 
L 230.857994 209.732191 
L 231.972591 208.750594 
L 232.166879 208.54946 
L 234.385848 206.161571 
L 234.621038 205.97311 
L 234.835777 205.785276 
L 235.183449 205.570173 
L 235.449316 205.420865 
L 235.766312 205.261754 
L 236.604816 204.248365 
L 238.026183 202.379635 
L 238.179568 202.215101 
L 238.557918 201.924519 
L 239.191909 201.516536 
L 239.580484 201.141431 
L 240.071316 200.519618 
L 240.490568 199.998232 
L 241.21659 199.405202 
L 242.586829 198.183516 
L 242.91405 197.808846 
L 243.363979 197.437176 
L 244.642187 196.56312 
L 245.674979 195.206715 
L 246.094231 194.818001 
L 246.810027 194.196863 
L 247.771239 193.59102 
L 248.773354 192.366704 
L 249.161929 191.914203 
L 252.34211 189.50427 
L 252.710234 189.322331 
L 254.192955 188.278745 
L 255.113265 187.604847 
L 256.759596 187.085896 
L 257.12772 186.916353 
L 257.546972 186.556293 
L 257.925322 186.174351 
L 258.988791 185.421365 
L 259.857972 184.638438 
L 260.645348 184.311334 
L 260.941892 184.174647 
L 261.197534 184.011192 
L 261.596334 183.722907 
L 262.056489 183.363058 
L 264.469745 181.916908 
L 264.878772 181.731896 
L 265.134414 181.580591 
L 266.095626 181.318703 
L 267.833988 180.095462 
L 268.355497 179.996301 
L 268.641816 179.895406 
L 268.958811 179.752455 
L 269.572351 179.332794 
L 269.971152 179.00209 
L 272.793434 177.563117 
L 273.427425 177.310706 
L 273.938709 177.073141 
L 274.398863 176.8229 
L 275.002177 176.36528 
L 276.208806 175.889921 
L 279.031088 175.593852 
L 279.75711 175.129526 
L 280.779676 174.784316 
L 281.1478 174.572907 
L 281.618181 174.381416 
L 283.898503 173.495033 
L 285.739123 173.019326 
L 286.127698 172.941515 
L 286.444693 172.883503 
L 287.027556 172.805113 
L 287.518388 172.698247 
L 288.418246 172.451541 
L 288.980657 172.279128 
L 289.246525 172.217744 
L 289.737356 172.095029 
L 290.463378 171.95998 
L 290.821277 171.916452 
L 291.588201 171.712043 
L 292.396029 171.506198 
L 292.702798 171.433455 
L 293.991232 171.36163 
L 294.430935 171.330912 
L 296.384037 171.104048 
L 296.864643 170.923535 
L 299.727828 169.919807 
L 300.167532 169.786747 
L 302.243341 169.21025 
L 314.176689 167.674527 
L 314.555038 167.642198 
L 315.311737 167.596131 
L 316.681976 167.561058 
L 317.59206 167.622163 
L 319.228166 167.387814 
L 319.412228 167.351754 
L 321.52894 167.101489 
L 321.743679 167.074133 
L 322.99121 167.057024 
L 325.026116 166.928052 
L 325.291984 166.916737 
L 325.813492 166.895041 
L 326.744028 166.837249 
L 327.071249 166.788997 
L 330.65023 166.861921 
L 331.018354 166.805622 
L 338.534216 166.977414 
L 338.728504 166.956688 
L 339.413623 167.004857 
L 339.98626 167.039509 
L 341.356499 167.157725 
L 341.806428 167.191724 
L 342.593804 167.308003 
L 342.808543 167.332926 
L 343.360728 167.403681 
L 343.953817 167.484884 
L 344.219684 167.523731 
L 345.058188 167.646809 
L 345.937595 167.698983 
L 346.407976 167.674244 
L 347.164675 167.734386 
L 347.982728 167.819379 
L 348.136113 167.826379 
L 348.862135 167.872437 
L 349.035971 167.879107 
L 349.802896 167.979056 
L 355.069112 168.20901 
L 355.232722 168.213879 
L 356.521156 168.455657 
L 356.735894 168.470707 
L 357.369885 168.531233 
L 358.504934 168.574823 
L 358.668545 168.554795 
L 360.192168 168.676837 
L 361.092026 168.751015 
L 361.623761 168.822559 
L 363.30077 169.065138 
L 363.484831 169.06277 
L 364.742588 169.199617 
L 365.785605 169.423617 
L 366.603658 169.540742 
L 366.818397 169.543359 
L 367.370583 169.529184 
L 367.861415 169.606619 
L 368.618114 169.79755 
L 368.802176 169.812338 
L 369.385038 169.840511 
L 371.133627 170.045971 
L 371.379043 170.103202 
L 371.900551 170.200986 
L 372.391383 170.193769 
L 372.687927 170.207852 
L 373.250339 170.266399 
L 373.434401 170.272108 
L 374.886445 170.387721 
L 375.152312 170.382646 
L 375.469307 170.382546 
L 375.796529 170.396805 
L 376.338489 170.489341 
L 378.168882 170.704036 
L 378.312041 170.706334 
L 379.099417 170.686085 
L 379.324382 170.681942 
L 381.236581 170.686774 
L 381.461545 170.678581 
L 382.034182 170.701109 
L 382.780656 170.671059 
L 382.944266 170.627946 
L 383.465775 170.584996 
L 383.803222 170.562271 
L 384.202023 170.546523 
L 384.365633 170.563144 
L 384.907593 170.609734 
L 385.112107 170.596909 
L 385.643841 170.617834 
L 385.940385 170.589527 
L 387.924164 170.511153 
L 389.069438 170.489842 
L 389.355756 170.452698 
L 390.33742 170.390516 
L 390.777124 170.383926 
L 391.748561 170.47367 
L 398.487273 170.700569 
L 398.487273 170.700569 
" style="fill:none;stroke:#ff7f0e;stroke-linecap:square;stroke-width:1.5;"/>
   </g>
   <g id="line2d_35">
    <path clip-path="url(#pfc09c0e672)" d="M 73.832727 291.854147 
L 73.883856 291.62115 
L 73.94521 291.704977 
L 74.190625 292.637803 
L 74.272431 292.831056 
L 74.303108 292.6996 
L 74.548524 291.847357 
L 75.407479 287.328762 
L 75.724475 282.695655 
L 75.908537 279.878911 
L 75.990342 279.276859 
L 76.245984 276.798665 
L 76.399368 275.538044 
L 76.736815 273.390605 
L 76.849298 272.227337 
L 77.401483 265.944777 
L 78.332019 259.704973 
L 78.904656 257.006109 
L 79.262554 255.551125 
L 79.497744 254.960774 
L 79.835191 254.308123 
L 79.845417 254.314112 
L 79.947673 254.252345 
L 80.203315 254.111229 
L 80.653244 253.804415 
L 80.816854 253.766946 
L 80.960014 253.701097 
L 81.236107 253.547461 
L 82.033708 253.895881 
L 82.299575 254.022162 
L 82.371155 253.905563 
L 82.688151 253.407339 
L 82.964244 252.846718 
L 83.230111 252.227289 
L 83.792522 251.886712 
L 84.099292 251.831745 
L 84.538995 251.521771 
L 84.866217 251.277277 
L 85.091181 250.99608 
L 85.571787 250.577572 
L 85.878557 250.480482 
L 86.38984 249.733547 
L 86.737513 248.972699 
L 87.269247 248.160865 
L 88.578132 244.427907 
L 88.792871 244.151621 
L 89.140543 242.902986 
L 89.600698 241.344294 
L 91.206127 237.847854 
L 91.574251 236.865669 
L 91.921923 235.713058 
L 93.056972 232.841947 
L 93.629609 231.784662 
L 94.560144 229.028323 
L 95.030525 227.843679 
L 95.255489 227.427254 
L 95.65429 226.525612 
L 95.971286 226.020582 
L 98.640183 220.611503 
L 98.824245 220.356544 
L 99.141241 220.002876 
L 99.325303 219.741812 
L 100.000197 218.760474 
L 100.174033 218.28305 
L 100.51148 217.574136 
L 101.084117 216.73514 
L 101.390887 216.439178 
L 102.740674 215.174499 
L 102.955413 215.121935 
L 103.773466 214.947762 
L 104.110913 214.881617 
L 104.427908 214.7841 
L 104.724452 214.706912 
L 105.603859 214.389039 
L 105.982209 214.200525 
L 106.227625 214.126019 
L 107.39335 213.849586 
L 107.669443 213.777162 
L 107.914859 213.607575 
L 108.119372 213.507062 
L 109.816832 213.102749 
L 110.287213 212.972888 
L 112.669792 212.224343 
L 113.181075 212.203966 
L 115.952229 211.417582 
L 116.637349 211.098828 
L 117.066827 211.022684 
L 119.428954 211.345392 
L 120.35949 211.382235 
L 120.625357 211.368463 
L 121.105963 211.220197 
L 121.504764 211.106268 
L 121.75018 210.979444 
L 122.148981 210.987776 
L 123.764635 211.252287 
L 124.214564 211.138915 
L 125.206454 210.996807 
L 125.5439 210.976859 
L 125.942701 210.886432 
L 127.589033 210.696653 
L 128.693404 210.751351 
L 129.797776 210.784102 
L 130.104546 210.797404 
L 131.546364 210.727065 
L 131.832683 210.704451 
L 132.446222 210.754261 
L 136.894385 210.99965 
L 137.262509 210.971699 
L 137.712438 210.974464 
L 137.906726 210.980182 
L 138.642974 210.987984 
L 138.939518 210.975596 
L 139.66554 211.262936 
L 140.923296 211.342475 
L 141.363 211.420709 
L 142.37534 211.623971 
L 142.98888 211.656556 
L 143.172942 211.687985 
L 143.939867 211.795544 
L 144.215959 211.723556 
L 144.553406 211.696012 
L 145.218074 211.649473 
L 145.453264 211.596748 
L 147.222304 211.637728 
L 147.805167 211.76222 
L 148.48006 211.786698 
L 148.725476 211.76269 
L 152.222653 212.048616 
L 152.396489 212.051203 
L 154.431396 212.4413 
L 154.768843 212.483146 
L 155.433511 212.617729 
L 155.801635 212.6694 
L 156.006148 212.690548 
L 156.865103 212.770046 
L 157.018488 212.794512 
L 158.12286 213.023223 
L 158.306922 213.014362 
L 158.828431 213.126311 
L 161.272364 213.707304 
L 162.22335 213.980255 
L 162.427864 213.973556 
L 164.697961 214.289338 
L 165.45466 214.571413 
L 166.242036 214.828598 
L 169.115447 215.242951 
L 170.281172 215.280417 
L 170.669747 215.355013 
L 171.242384 215.317847 
L 171.498026 215.28989 
L 172.203597 215.311289 
L 172.684203 215.373504 
L 174.371437 215.337115 
L 174.708884 215.28027 
L 176.34499 215.280438 
L 177.183494 215.46192 
L 177.42891 215.456899 
L 177.776582 215.427336 
L 183.564307 216.355729 
L 184.474391 216.634839 
L 185.098156 216.770255 
L 185.527634 216.904224 
L 185.70147 216.955371 
L 189.771284 217.878355 
L 190.374598 217.925144 
L 190.752948 218.026128 
L 190.916558 218.036228 
L 191.611903 218.240196 
L 191.857319 218.288606 
L 192.583341 218.506459 
L 193.513876 218.639239 
L 194.679602 219.024838 
L 194.80231 219.011042 
L 195.804425 219.395829 
L 195.988487 219.422974 
L 197.195115 219.780881 
L 197.51211 219.941789 
L 197.921137 220.134196 
L 199.414083 220.843462 
L 199.536791 220.878343 
L 200.140105 221.185397 
L 200.252588 221.239001 
L 201.070641 221.513129 
L 203.289609 222.298277 
L 203.442994 222.351843 
L 205.62106 222.904859 
L 205.989184 223.063701 
L 206.009635 223.05391 
L 206.081215 223.103532 
L 206.551595 223.331937 
L 206.623175 223.318581 
L 206.664078 223.350191 
L 207.144684 223.597855 
L 207.24694 223.605767 
L 207.257166 223.611776 
L 207.768449 223.859325 
L 209.660197 224.109665 
L 209.762453 224.031502 
L 209.79313 224.042246 
L 210.222608 224.225766 
L 210.33509 224.252427 
L 211.449688 224.682923 
L 211.459913 224.659158 
L 211.572396 224.642318 
L 211.582621 224.647183 
L 212.10413 224.963007 
L 212.237064 225.009498 
L 212.594962 225.197927 
L 212.973311 225.30032 
L 213.014214 225.299 
L 213.075568 225.343838 
L 213.18805 225.390829 
L 213.515271 225.407209 
L 213.627754 225.410648 
L 213.760687 225.400759 
L 213.893621 225.373421 
L 217.12493 225.410237 
L 217.748695 225.626025 
L 217.779372 225.594 
L 217.850952 225.648413 
L 217.963434 225.623523 
L 218.065691 225.627484 
L 218.075917 225.634128 
L 218.311107 225.696757 
L 218.761036 225.706232 
L 219.047355 225.76162 
L 219.180288 225.754805 
L 219.497284 225.796023 
L 219.507509 225.769844 
L 219.844956 225.697667 
L 220.039244 225.703757 
L 220.172177 225.710897 
L 220.540301 225.75091 
L 220.724363 225.664124 
L 220.99023 225.644909 
L 222.564982 225.771828 
L 222.800172 225.828751 
L 223.025137 225.741703 
L 223.188748 225.728807 
L 223.311456 225.720402 
L 223.464841 225.673151 
L 223.597774 225.642427 
L 223.996575 225.607423 
L 224.190863 225.60105 
L 224.651017 225.571063 
L 224.753274 225.535383 
L 224.773725 225.541567 
L 225.008915 225.526807 
L 225.100946 225.511956 
L 225.121398 225.523726 
L 227.186982 225.900811 
L 227.227884 225.882812 
L 227.289238 225.920914 
L 227.524428 225.974123 
L 227.54488 225.927774 
L 227.636911 225.978417 
L 227.698265 225.977475 
L 227.728942 225.924681 
L 227.841424 225.957768 
L 228.414061 226.174931 
L 228.526543 226.173426 
L 228.536769 226.180536 
L 229.129857 226.30878 
L 229.324145 226.190269 
L 229.999039 226.206327 
L 230.111521 226.229824 
L 230.735286 226.373406 
L 230.86822 226.253433 
L 230.878446 226.259562 
L 231.134087 226.295931 
L 231.461308 226.185151 
L 231.64537 226.194226 
L 231.768078 226.201693 
L 231.95214 226.226416 
L 232.054397 226.100337 
L 232.085074 226.112711 
L 232.289587 226.085299 
L 232.442972 225.962478 
L 232.780419 225.992019 
L 233.076963 225.905818 
L 233.281476 225.860431 
L 233.41441 225.773973 
L 234.038175 225.651307 
L 234.150657 225.637519 
L 234.334719 225.623164 
L 234.467653 225.553756 
L 234.631264 225.509564 
L 234.764197 225.433664 
L 234.876679 225.367953 
L 235.019839 225.322377 
L 235.132321 225.297281 
L 235.142547 225.251036 
L 235.27548 225.183529 
L 235.623153 225.054584 
L 235.756086 224.977479 
L 235.88902 224.924372 
L 236.042405 224.773056 
L 236.052631 224.777689 
L 236.338949 224.611587 
L 236.533237 224.599029 
L 236.655945 224.623538 
L 236.942263 224.605872 
L 237.075197 224.530175 
L 237.392192 224.520666 
L 237.535352 224.531869 
L 237.719413 224.528463 
L 237.985281 224.445535 
L 238.302276 224.41565 
L 238.43521 224.25518 
L 238.455661 224.26417 
L 238.844236 224.300262 
L 238.97717 224.30711 
L 239.161232 224.275513 
L 239.335068 224.14289 
L 239.723643 224.170814 
L 239.917931 224.067247 
L 240.214475 224.068061 
L 240.378086 224.057731 
L 240.551922 224.004232 
L 240.715532 223.82771 
L 240.848466 223.762854 
L 241.073431 223.592299 
L 241.257493 223.459278 
L 241.390426 223.370082 
L 241.574488 223.235469 
L 241.666519 223.15727 
L 241.819904 223.031466 
L 241.942612 222.961797 
L 242.147125 222.763199 
L 242.750439 222.417721 
L 242.883373 222.357224 
L 243.128789 222.294647 
L 243.241271 222.219907 
L 243.394656 222.061761 
L 243.537815 222.0119 
L 243.6912 222.003574 
L 243.895713 221.979926 
L 244.151355 221.92633 
L 244.274063 221.904958 
L 244.284289 221.911012 
L 244.437673 221.862049 
L 244.529704 221.812844 
L 244.560381 221.827884 
L 244.631961 221.731567 
L 244.77512 221.597378 
L 244.897828 221.534939 
L 244.948957 221.485796 
L 245.010311 221.512039 
L 245.347757 221.53281 
L 245.521594 221.527237 
L 245.552271 221.543039 
L 245.572722 221.443644 
L 245.582948 221.44887 
L 245.674979 221.386992 
L 245.705656 221.400336 
L 245.899943 221.345166 
L 246.012425 221.371266 
L 246.513483 221.40441 
L 246.748673 221.301899 
L 246.912284 221.196068 
L 247.127023 221.13216 
L 247.270182 221.095885 
L 247.403115 220.966583 
L 247.832593 220.9576 
L 247.873496 220.902687 
L 247.945076 220.928341 
L 248.190491 220.911259 
L 248.313199 220.740339 
L 248.343876 220.756662 
L 249.673212 220.51119 
L 249.79592 220.498652 
L 250.112916 220.379024 
L 250.24585 220.296741 
L 250.501491 220.222947 
L 250.64465 220.103262 
L 250.706004 220.019919 
L 250.838938 219.926938 
L 250.849164 219.930354 
L 250.971872 219.936711 
L 250.982097 219.890894 
L 251.094579 219.814908 
L 251.104805 219.817255 
L 251.217287 219.728846 
L 251.339995 219.602985 
L 251.350221 219.605423 
L 251.656991 219.459598 
L 251.789924 219.279539 
L 251.861504 219.137172 
L 251.984212 219.062134 
L 252.290982 218.95332 
L 252.444367 218.799 
L 252.64888 218.519651 
L 252.832942 218.18199 
L 253.129486 217.987169 
L 253.282871 217.815918 
L 253.681672 217.515616 
L 254.58153 216.622436 
L 254.72469 216.487193 
L 254.949654 216.254009 
L 255.399583 215.776458 
L 255.552968 215.553725 
L 255.80861 215.203831 
L 256.156282 214.650872 
L 256.299441 214.463444 
L 256.780048 213.838837 
L 258.119609 212.724788 
L 258.395702 212.617627 
L 258.722923 212.441793 
L 259.418268 212.082582 
L 259.551202 211.993362 
L 259.765941 211.867678 
L 260.185193 211.483474 
L 260.328352 211.339549 
L 260.75783 210.955313 
L 262.547321 209.664933 
L 262.976799 209.468117 
L 263.109732 209.427579 
L 263.457405 209.27514 
L 263.61079 209.156192 
L 264.500422 208.834851 
L 264.633356 208.778945 
L 266.167205 208.258328 
L 266.330816 208.170748 
L 266.46375 208.077664 
L 266.606909 207.997399 
L 266.801196 207.847084 
L 267.557895 207.238977 
L 267.772634 207.12529 
L 268.140758 206.73371 
L 270.206342 205.550768 
L 270.441532 205.396085 
L 270.727851 205.175025 
L 272.660501 203.613219 
L 272.844563 203.410914 
L 273.161558 202.954587 
L 274.081868 201.533242 
L 274.388638 201.028858 
L 274.981726 200.275282 
L 276.556478 198.963302 
L 276.81212 198.722695 
L 277.04731 198.4961 
L 278.67319 196.31616 
L 279.041314 195.802255 
L 279.716208 194.940859 
L 281.025092 193.450777 
L 281.260283 193.215071 
L 282.088561 192.446881 
L 284.6143 189.816365 
L 284.77791 189.649623 
L 284.992649 189.484857 
L 286.24018 188.54012 
L 286.557176 188.308554 
L 287.01733 187.965635 
L 288.960206 186.445438 
L 289.174945 186.242845 
L 289.39991 186.028043 
L 289.716905 185.606507 
L 290.085029 185.254905 
L 293.459497 181.989242 
L 294.083263 181.603923 
L 294.522966 181.258066 
L 296.598776 179.460486 
L 296.793063 179.286615 
L 297.50886 178.701166 
L 298.193979 178.191782 
L 298.480298 177.97551 
L 299.881213 177.2025 
L 300.208434 177.020128 
L 300.729943 176.644176 
L 300.965133 176.468353 
L 301.271903 176.273011 
L 302.15131 175.602884 
L 302.560337 175.339656 
L 302.938686 175.073826 
L 304.308925 174.213756 
L 304.707726 173.960697 
L 305.382619 173.623752 
L 305.873451 173.366025 
L 306.681279 172.938631 
L 307.499332 172.456262 
L 311.661176 170.426907 
L 312.059977 170.20478 
L 312.26449 170.089125 
L 313.11322 169.522931 
L 313.777888 169.249489 
L 313.992627 169.177758 
L 314.483459 169.00992 
L 315.526476 168.576538 
L 315.771892 168.478024 
L 316.81491 167.988714 
L 318.543047 167.434883 
L 318.829365 167.313545 
L 319.964414 166.87961 
L 320.342763 166.711299 
L 320.802918 166.545529 
L 321.130139 166.387785 
L 321.559617 166.156775 
L 321.825484 166.010707 
L 323.471816 165.214209 
L 323.778586 165.057714 
L 324.433028 164.794633 
L 325.690784 164.384041 
L 326.62132 163.985151 
L 327.285988 163.7138 
L 330.057142 162.821696 
L 331.059257 162.648048 
L 331.304673 162.60309 
L 332.204531 162.438488 
L 333.380482 162.205615 
L 335.865318 161.817829 
L 336.887884 161.662269 
L 338.401282 161.423828 
L 338.769406 161.336529 
L 341.622366 161.152926 
L 341.796202 161.133741 
L 346.745423 160.935092 
L 347.287383 160.889688 
L 348.115661 160.794218 
L 348.350852 160.754774 
L 350.794785 160.61707 
L 351.878705 160.666271 
L 352.635404 160.622659 
L 354.977081 160.525595 
L 355.232722 160.520217 
L 355.89739 160.468487 
L 356.551833 160.455241 
L 357.400562 160.397459 
L 358.157261 160.362439 
L 361.644212 160.154332 
L 362.288429 160.153808 
L 362.809938 160.173002 
L 364.92665 160.1931 
L 365.182291 160.185382 
L 366.48095 160.237855 
L 372.299352 160.130469 
L 373.986586 160.338236 
L 374.763737 160.407841 
L 374.937573 160.425627 
L 375.735175 160.515675 
L 376.675936 160.625526 
L 377.064511 160.657619 
L 377.637148 160.681108 
L 378.935807 160.740705 
L 379.334608 160.748954 
L 379.91747 160.764628 
L 380.070855 160.757954 
L 381.553576 160.895873 
L 381.727413 160.913437 
L 385.449554 161.362223 
L 385.592713 161.356137 
L 388.261611 161.605542 
L 388.40477 161.587234 
L 388.824022 161.621242 
L 391.574725 161.647442 
L 391.769013 161.633077 
L 393.435796 161.556449 
L 393.691437 161.525832 
L 398.272534 161.264174 
L 398.487273 161.226052 
L 398.487273 161.226052 
" style="fill:none;stroke:#2ca02c;stroke-linecap:square;stroke-width:1.5;"/>
   </g>
   <g id="line2d_36">
    <path clip-path="url(#pfc09c0e672)" d="M 73.832727 291.882667 
L 73.996338 292.581093 
L 74.037241 292.497501 
L 74.149723 291.788938 
L 74.364462 289.31935 
L 74.48717 287.088395 
L 74.72236 277.20139 
L 75.274546 256.719143 
L 75.560864 250.269028 
L 75.847183 240.836171 
L 76.399368 231.998074 
L 77.565094 205.211852 
L 78.035474 200.839037 
L 78.229762 198.952779 
L 78.843302 191.108716 
L 79.395487 187.360664 
L 79.998802 184.298836 
L 80.377151 182.382957 
L 81.021368 179.373628 
L 82.606345 173.877237 
L 83.894779 172.129478 
L 84.651478 171.320944 
L 87.504437 168.692193 
L 87.872561 168.413485 
L 90.132433 166.070501 
L 90.602813 165.784013 
L 92.300273 163.890012 
L 92.94449 163.078227 
L 94.631724 161.343076 
L 95.480454 160.717254 
L 96.134896 160.170979 
L 96.697308 159.680787 
L 97.443781 158.869315 
L 98.118675 158.298432 
L 98.394768 157.92482 
L 98.926502 157.308098 
L 99.816135 156.465339 
L 100.838701 155.441482 
L 101.779462 154.214254 
L 103.037218 152.733774 
L 103.824594 151.81587 
L 104.61197 151.045527 
L 105.941306 149.510614 
L 106.350333 149.125242 
L 106.871841 148.598555 
L 108.722686 146.623755 
L 109.326 146.105952 
L 110.767819 144.823466 
L 112.710695 142.952727 
L 116.136291 139.613668 
L 118.181424 138.00262 
L 118.958574 137.424536 
L 120.379941 136.828523 
L 121.218445 136.381626 
L 122.373945 135.738893 
L 124.367949 134.644846 
L 130.881696 131.666234 
L 138.683876 128.29838 
L 140.524495 127.58977 
L 141.52661 127.258466 
L 142.181053 126.973084 
L 150.954671 123.659601 
L 152.785064 123.073344 
L 153.64402 122.840567 
L 155.382382 122.484387 
L 156.844652 121.97492 
L 159.002267 121.139688 
L 160.515665 120.490348 
L 162.080191 119.880529 
L 165.648947 118.749619 
L 167.172571 118.277736 
L 169.289283 117.547144 
L 173.614738 116.365545 
L 176.600631 115.703114 
L 184.903869 113.577998 
L 186.192302 113.379619 
L 189.065713 112.893748 
L 189.863315 112.773767 
L 190.415501 112.70946 
L 194.127416 112.61573 
L 195.006823 112.613527 
L 196.765637 112.711489 
L 198.207455 112.789629 
L 198.411968 112.809582 
L 200.160557 112.801618 
L 200.917256 112.780322 
L 201.806888 112.792335 
L 202.021627 112.815989 
L 202.7681 112.835513 
L 203.207804 112.752037 
L 203.504348 112.684998 
L 203.667959 112.692574 
L 204.455335 112.692103 
L 205.38587 112.702108 
L 205.99941 112.602176 
L 206.265277 112.585628 
L 207.707095 112.504363 
L 207.942285 112.492214 
L 208.811467 112.538134 
L 209.056883 112.49226 
L 210.140803 112.513719 
L 210.40667 112.472268 
L 211.72578 112.494012 
L 212.022325 112.519854 
L 213.003988 112.538078 
L 213.505046 112.563685 
L 214.047006 112.529213 
L 214.302647 112.527062 
L 215.182054 112.520891 
L 220.673235 112.367306 
L 220.847071 112.336492 
L 223.577323 112.034155 
L 223.812513 112.030722 
L 224.068155 111.926798 
L 224.22154 111.915233 
L 225.683809 111.871947 
L 226.174641 111.802957 
L 226.777955 111.750058 
L 228.475415 111.538864 
L 229.027601 111.27375 
L 229.590012 111.154633 
L 230.121747 111.010814 
L 230.48987 110.801766 
L 231.164764 110.60433 
L 231.727175 110.427357 
L 232.974706 110.292882 
L 233.373507 110.226174 
L 233.997272 110.122772 
L 234.314268 110.064901 
L 236.778653 109.868999 
L 237.157002 109.813705 
L 237.801219 109.707444 
L 238.026183 109.645181 
L 239.406648 109.498914 
L 240.521245 109.370739 
L 241.605165 109.190207 
L 242.985629 108.894448 
L 244.46835 108.549075 
L 244.77512 108.420427 
L 246.830478 108.129586 
L 247.607629 107.951984 
L 249.427797 107.728131 
L 250.798035 107.530148 
L 252.362562 107.257032 
L 252.689783 107.197634 
L 254.080473 107.059106 
L 254.397468 106.993974 
L 255.563194 106.845475 
L 258.917211 106.036596 
L 259.500074 105.867892 
L 259.694361 105.813767 
L 260.952118 105.647875 
L 261.770171 105.529166 
L 263.30402 105.337431 
L 263.61079 105.302452 
L 267.148869 104.423595 
L 267.721506 104.26566 
L 269.776864 103.794415 
L 272.404859 103.040714 
L 273.979611 102.853997 
L 274.797664 102.672048 
L 277.967619 101.606525 
L 278.611836 101.41721 
L 279.071991 101.195639 
L 279.511694 100.984993 
L 279.961624 100.748795 
L 281.004641 100.312761 
L 284.256402 99.196822 
L 286.85372 98.112561 
L 287.774029 97.698167 
L 289.56352 96.985465 
L 292.590316 95.820495 
L 294.707028 94.96177 
L 295.985236 94.49492 
L 297.549762 93.907092 
L 299.308576 93.323226 
L 299.656249 93.201747 
L 301.159421 92.681608 
L 301.691155 92.462939 
L 306.15977 90.951726 
L 308.501446 90.336238 
L 309.350176 90.08064 
L 312.581486 89.018267 
L 313.5836 88.667939 
L 316.416109 87.930201 
L 317.806799 87.55699 
L 323.799037 86.23353 
L 325.220404 85.948872 
L 327.347342 85.363703 
L 328.55397 84.982936 
L 330.118496 84.592664 
L 330.732036 84.376817 
L 331.826182 84.054279 
L 333.308903 83.523766 
L 335.967575 82.818846 
L 336.570889 82.603849 
L 337.235557 82.368673 
L 339.740844 81.649993 
L 347.379414 79.437907 
L 348.923489 78.98714 
L 356.827925 76.488849 
L 372.595896 72.755623 
L 374.303582 72.357883 
L 375.612467 72.006757 
L 376.195329 71.86754 
L 377.105413 71.59756 
L 377.473537 71.490401 
L 378.516555 71.176608 
L 380.070855 70.703978 
L 384.222474 69.583222 
L 385.071204 69.335842 
L 386.420991 68.987975 
L 389.233049 68.256656 
L 394.673101 66.917109 
L 395.818375 66.600517 
L 398.487273 65.825629 
L 398.487273 65.825629 
" style="fill:none;stroke:#d62728;stroke-linecap:square;stroke-width:1.5;"/>
   </g>
   <g id="patch_3">
    <path d="M 57.6 307.584 
L 57.6 41.472 
" style="fill:none;stroke:#000000;stroke-linecap:square;stroke-linejoin:miter;stroke-width:0.8;"/>
   </g>
   <g id="patch_4">
    <path d="M 414.72 307.584 
L 414.72 41.472 
" style="fill:none;stroke:#000000;stroke-linecap:square;stroke-linejoin:miter;stroke-width:0.8;"/>
   </g>
   <g id="patch_5">
    <path d="M 57.6 307.584 
L 414.72 307.584 
" style="fill:none;stroke:#000000;stroke-linecap:square;stroke-linejoin:miter;stroke-width:0.8;"/>
   </g>
   <g id="patch_6">
    <path d="M 57.6 41.472 
L 414.72 41.472 
" style="fill:none;stroke:#000000;stroke-linecap:square;stroke-linejoin:miter;stroke-width:0.8;"/>
   </g>
   <g id="text_12">
    <!-- Trend of $\beta$ -->
    <defs>
     <path d="M -0.296875 72.90625 
L 61.375 72.90625 
L 61.375 64.59375 
L 35.5 64.59375 
L 35.5 0 
L 25.59375 0 
L 25.59375 64.59375 
L -0.296875 64.59375 
z
" id="DejaVuSans-84"/>
     <path d="M 41.109375 46.296875 
Q 39.59375 47.171875 37.8125 47.578125 
Q 36.03125 48 33.890625 48 
Q 26.265625 48 22.1875 43.046875 
Q 18.109375 38.09375 18.109375 28.8125 
L 18.109375 0 
L 9.078125 0 
L 9.078125 54.6875 
L 18.109375 54.6875 
L 18.109375 46.1875 
Q 20.953125 51.171875 25.484375 53.578125 
Q 30.03125 56 36.53125 56 
Q 37.453125 56 38.578125 55.875 
Q 39.703125 55.765625 41.0625 55.515625 
z
" id="DejaVuSans-114"/>
     <path d="M 54.890625 33.015625 
L 54.890625 0 
L 45.90625 0 
L 45.90625 32.71875 
Q 45.90625 40.484375 42.875 44.328125 
Q 39.84375 48.1875 33.796875 48.1875 
Q 26.515625 48.1875 22.3125 43.546875 
Q 18.109375 38.921875 18.109375 30.90625 
L 18.109375 0 
L 9.078125 0 
L 9.078125 54.6875 
L 18.109375 54.6875 
L 18.109375 46.1875 
Q 21.34375 51.125 25.703125 53.5625 
Q 30.078125 56 35.796875 56 
Q 45.21875 56 50.046875 50.171875 
Q 54.890625 44.34375 54.890625 33.015625 
z
" id="DejaVuSans-110"/>
     <path d="M 45.40625 46.390625 
L 45.40625 75.984375 
L 54.390625 75.984375 
L 54.390625 0 
L 45.40625 0 
L 45.40625 8.203125 
Q 42.578125 3.328125 38.25 0.953125 
Q 33.9375 -1.421875 27.875 -1.421875 
Q 17.96875 -1.421875 11.734375 6.484375 
Q 5.515625 14.40625 5.515625 27.296875 
Q 5.515625 40.1875 11.734375 48.09375 
Q 17.96875 56 27.875 56 
Q 33.9375 56 38.25 53.625 
Q 42.578125 51.265625 45.40625 46.390625 
z
M 14.796875 27.296875 
Q 14.796875 17.390625 18.875 11.75 
Q 22.953125 6.109375 30.078125 6.109375 
Q 37.203125 6.109375 41.296875 11.75 
Q 45.40625 17.390625 45.40625 27.296875 
Q 45.40625 37.203125 41.296875 42.84375 
Q 37.203125 48.484375 30.078125 48.484375 
Q 22.953125 48.484375 18.875 42.84375 
Q 14.796875 37.203125 14.796875 27.296875 
z
" id="DejaVuSans-100"/>
     <path id="DejaVuSans-32"/>
     <path d="M 30.609375 48.390625 
Q 23.390625 48.390625 19.1875 42.75 
Q 14.984375 37.109375 14.984375 27.296875 
Q 14.984375 17.484375 19.15625 11.84375 
Q 23.34375 6.203125 30.609375 6.203125 
Q 37.796875 6.203125 41.984375 11.859375 
Q 46.1875 17.53125 46.1875 27.296875 
Q 46.1875 37.015625 41.984375 42.703125 
Q 37.796875 48.390625 30.609375 48.390625 
z
M 30.609375 56 
Q 42.328125 56 49.015625 48.375 
Q 55.71875 40.765625 55.71875 27.296875 
Q 55.71875 13.875 49.015625 6.21875 
Q 42.328125 -1.421875 30.609375 -1.421875 
Q 18.84375 -1.421875 12.171875 6.21875 
Q 5.515625 13.875 5.515625 27.296875 
Q 5.515625 40.765625 12.171875 48.375 
Q 18.84375 56 30.609375 56 
z
" id="DejaVuSans-111"/>
     <path d="M 37.109375 75.984375 
L 37.109375 68.5 
L 28.515625 68.5 
Q 23.6875 68.5 21.796875 66.546875 
Q 19.921875 64.59375 19.921875 59.515625 
L 19.921875 54.6875 
L 34.71875 54.6875 
L 34.71875 47.703125 
L 19.921875 47.703125 
L 19.921875 0 
L 10.890625 0 
L 10.890625 47.703125 
L 2.296875 47.703125 
L 2.296875 54.6875 
L 10.890625 54.6875 
L 10.890625 58.5 
Q 10.890625 67.625 15.140625 71.796875 
Q 19.390625 75.984375 28.609375 75.984375 
z
" id="DejaVuSans-102"/>
    </defs>
    <g transform="translate(205.26 35.472)scale(0.12 -0.12)">
     <use transform="translate(0 0.390625)" xlink:href="#DejaVuSans-84"/>
     <use transform="translate(61.083984 0.390625)" xlink:href="#DejaVuSans-114"/>
     <use transform="translate(102.197266 0.390625)" xlink:href="#DejaVuSans-101"/>
     <use transform="translate(163.720703 0.390625)" xlink:href="#DejaVuSans-110"/>
     <use transform="translate(227.099609 0.390625)" xlink:href="#DejaVuSans-100"/>
     <use transform="translate(290.576172 0.390625)" xlink:href="#DejaVuSans-32"/>
     <use transform="translate(322.363281 0.390625)" xlink:href="#DejaVuSans-111"/>
     <use transform="translate(383.544922 0.390625)" xlink:href="#DejaVuSans-102"/>
     <use transform="translate(418.75 0.390625)" xlink:href="#DejaVuSans-32"/>
     <use transform="translate(450.537109 0.390625)" xlink:href="#DejaVuSans-Oblique-946"/>
    </g>
   </g>
   <g id="legend_1">
    <g id="patch_7">
     <path d="M 64.6 108.1845 
L 219.507812 108.1845 
Q 221.507812 108.1845 221.507812 106.1845 
L 221.507812 48.472 
Q 221.507812 46.472 219.507812 46.472 
L 64.6 46.472 
Q 62.6 46.472 62.6 48.472 
L 62.6 106.1845 
Q 62.6 108.1845 64.6 108.1845 
z
" style="fill:#ffffff;opacity:0.8;stroke:#cccccc;stroke-linejoin:miter;"/>
    </g>
    <g id="line2d_37">
     <path d="M 66.6 54.570438 
L 86.6 54.570438 
" style="fill:none;stroke:#1f77b4;stroke-linecap:square;stroke-width:1.5;"/>
    </g>
    <g id="line2d_38"/>
    <g id="text_13">
     <!-- Single Point KLD -->
     <defs>
      <path d="M 9.421875 54.6875 
L 18.40625 54.6875 
L 18.40625 0 
L 9.421875 0 
z
M 9.421875 75.984375 
L 18.40625 75.984375 
L 18.40625 64.59375 
L 9.421875 64.59375 
z
" id="DejaVuSans-105"/>
      <path d="M 45.40625 27.984375 
Q 45.40625 37.75 41.375 43.109375 
Q 37.359375 48.484375 30.078125 48.484375 
Q 22.859375 48.484375 18.828125 43.109375 
Q 14.796875 37.75 14.796875 27.984375 
Q 14.796875 18.265625 18.828125 12.890625 
Q 22.859375 7.515625 30.078125 7.515625 
Q 37.359375 7.515625 41.375 12.890625 
Q 45.40625 18.265625 45.40625 27.984375 
z
M 54.390625 6.78125 
Q 54.390625 -7.171875 48.1875 -13.984375 
Q 42 -20.796875 29.203125 -20.796875 
Q 24.46875 -20.796875 20.265625 -20.09375 
Q 16.0625 -19.390625 12.109375 -17.921875 
L 12.109375 -9.1875 
Q 16.0625 -11.328125 19.921875 -12.34375 
Q 23.78125 -13.375 27.78125 -13.375 
Q 36.625 -13.375 41.015625 -8.765625 
Q 45.40625 -4.15625 45.40625 5.171875 
L 45.40625 9.625 
Q 42.625 4.78125 38.28125 2.390625 
Q 33.9375 0 27.875 0 
Q 17.828125 0 11.671875 7.65625 
Q 5.515625 15.328125 5.515625 27.984375 
Q 5.515625 40.671875 11.671875 48.328125 
Q 17.828125 56 27.875 56 
Q 33.9375 56 38.28125 53.609375 
Q 42.625 51.21875 45.40625 46.390625 
L 45.40625 54.6875 
L 54.390625 54.6875 
z
" id="DejaVuSans-103"/>
      <path d="M 9.421875 75.984375 
L 18.40625 75.984375 
L 18.40625 0 
L 9.421875 0 
z
" id="DejaVuSans-108"/>
      <path d="M 19.671875 64.796875 
L 19.671875 37.40625 
L 32.078125 37.40625 
Q 38.96875 37.40625 42.71875 40.96875 
Q 46.484375 44.53125 46.484375 51.125 
Q 46.484375 57.671875 42.71875 61.234375 
Q 38.96875 64.796875 32.078125 64.796875 
z
M 9.8125 72.90625 
L 32.078125 72.90625 
Q 44.34375 72.90625 50.609375 67.359375 
Q 56.890625 61.8125 56.890625 51.125 
Q 56.890625 40.328125 50.609375 34.8125 
Q 44.34375 29.296875 32.078125 29.296875 
L 19.671875 29.296875 
L 19.671875 0 
L 9.8125 0 
z
" id="DejaVuSans-80"/>
      <path d="M 9.8125 72.90625 
L 19.671875 72.90625 
L 19.671875 42.09375 
L 52.390625 72.90625 
L 65.09375 72.90625 
L 28.90625 38.921875 
L 67.671875 0 
L 54.6875 0 
L 19.671875 35.109375 
L 19.671875 0 
L 9.8125 0 
z
" id="DejaVuSans-75"/>
      <path d="M 9.8125 72.90625 
L 19.671875 72.90625 
L 19.671875 8.296875 
L 55.171875 8.296875 
L 55.171875 0 
L 9.8125 0 
z
" id="DejaVuSans-76"/>
      <path d="M 19.671875 64.796875 
L 19.671875 8.109375 
L 31.59375 8.109375 
Q 46.6875 8.109375 53.6875 14.9375 
Q 60.6875 21.78125 60.6875 36.53125 
Q 60.6875 51.171875 53.6875 57.984375 
Q 46.6875 64.796875 31.59375 64.796875 
z
M 9.8125 72.90625 
L 30.078125 72.90625 
Q 51.265625 72.90625 61.171875 64.09375 
Q 71.09375 55.28125 71.09375 36.53125 
Q 71.09375 17.671875 61.125 8.828125 
Q 51.171875 0 30.078125 0 
L 9.8125 0 
z
" id="DejaVuSans-68"/>
     </defs>
     <g transform="translate(94.6 58.070438)scale(0.1 -0.1)">
      <use xlink:href="#DejaVuSans-83"/>
      <use x="63.476562" xlink:href="#DejaVuSans-105"/>
      <use x="91.259766" xlink:href="#DejaVuSans-110"/>
      <use x="154.638672" xlink:href="#DejaVuSans-103"/>
      <use x="218.115234" xlink:href="#DejaVuSans-108"/>
      <use x="245.898438" xlink:href="#DejaVuSans-101"/>
      <use x="307.421875" xlink:href="#DejaVuSans-32"/>
      <use x="339.208984" xlink:href="#DejaVuSans-80"/>
      <use x="399.464844" xlink:href="#DejaVuSans-111"/>
      <use x="460.646484" xlink:href="#DejaVuSans-105"/>
      <use x="488.429688" xlink:href="#DejaVuSans-110"/>
      <use x="551.808594" xlink:href="#DejaVuSans-116"/>
      <use x="591.017578" xlink:href="#DejaVuSans-32"/>
      <use x="622.804688" xlink:href="#DejaVuSans-75"/>
      <use x="688.380859" xlink:href="#DejaVuSans-76"/>
      <use x="744.09375" xlink:href="#DejaVuSans-68"/>
     </g>
    </g>
    <g id="line2d_39">
     <path d="M 66.6 69.248563 
L 86.6 69.248563 
" style="fill:none;stroke:#ff7f0e;stroke-linecap:square;stroke-width:1.5;"/>
    </g>
    <g id="line2d_40"/>
    <g id="text_14">
     <!-- Batch: Momentum = 0.0 -->
     <defs>
      <path d="M 19.671875 34.8125 
L 19.671875 8.109375 
L 35.5 8.109375 
Q 43.453125 8.109375 47.28125 11.40625 
Q 51.125 14.703125 51.125 21.484375 
Q 51.125 28.328125 47.28125 31.5625 
Q 43.453125 34.8125 35.5 34.8125 
z
M 19.671875 64.796875 
L 19.671875 42.828125 
L 34.28125 42.828125 
Q 41.5 42.828125 45.03125 45.53125 
Q 48.578125 48.25 48.578125 53.8125 
Q 48.578125 59.328125 45.03125 62.0625 
Q 41.5 64.796875 34.28125 64.796875 
z
M 9.8125 72.90625 
L 35.015625 72.90625 
Q 46.296875 72.90625 52.390625 68.21875 
Q 58.5 63.53125 58.5 54.890625 
Q 58.5 48.1875 55.375 44.234375 
Q 52.25 40.28125 46.1875 39.3125 
Q 53.46875 37.75 57.5 32.78125 
Q 61.53125 27.828125 61.53125 20.40625 
Q 61.53125 10.640625 54.890625 5.3125 
Q 48.25 0 35.984375 0 
L 9.8125 0 
z
" id="DejaVuSans-66"/>
      <path d="M 34.28125 27.484375 
Q 23.390625 27.484375 19.1875 25 
Q 14.984375 22.515625 14.984375 16.5 
Q 14.984375 11.71875 18.140625 8.90625 
Q 21.296875 6.109375 26.703125 6.109375 
Q 34.1875 6.109375 38.703125 11.40625 
Q 43.21875 16.703125 43.21875 25.484375 
L 43.21875 27.484375 
z
M 52.203125 31.203125 
L 52.203125 0 
L 43.21875 0 
L 43.21875 8.296875 
Q 40.140625 3.328125 35.546875 0.953125 
Q 30.953125 -1.421875 24.3125 -1.421875 
Q 15.921875 -1.421875 10.953125 3.296875 
Q 6 8.015625 6 15.921875 
Q 6 25.140625 12.171875 29.828125 
Q 18.359375 34.515625 30.609375 34.515625 
L 43.21875 34.515625 
L 43.21875 35.40625 
Q 43.21875 41.609375 39.140625 45 
Q 35.0625 48.390625 27.6875 48.390625 
Q 23 48.390625 18.546875 47.265625 
Q 14.109375 46.140625 10.015625 43.890625 
L 10.015625 52.203125 
Q 14.9375 54.109375 19.578125 55.046875 
Q 24.21875 56 28.609375 56 
Q 40.484375 56 46.34375 49.84375 
Q 52.203125 43.703125 52.203125 31.203125 
z
" id="DejaVuSans-97"/>
      <path d="M 48.78125 52.59375 
L 48.78125 44.1875 
Q 44.96875 46.296875 41.140625 47.34375 
Q 37.3125 48.390625 33.40625 48.390625 
Q 24.65625 48.390625 19.8125 42.84375 
Q 14.984375 37.3125 14.984375 27.296875 
Q 14.984375 17.28125 19.8125 11.734375 
Q 24.65625 6.203125 33.40625 6.203125 
Q 37.3125 6.203125 41.140625 7.25 
Q 44.96875 8.296875 48.78125 10.40625 
L 48.78125 2.09375 
Q 45.015625 0.34375 40.984375 -0.53125 
Q 36.96875 -1.421875 32.421875 -1.421875 
Q 20.0625 -1.421875 12.78125 6.34375 
Q 5.515625 14.109375 5.515625 27.296875 
Q 5.515625 40.671875 12.859375 48.328125 
Q 20.21875 56 33.015625 56 
Q 37.15625 56 41.109375 55.140625 
Q 45.0625 54.296875 48.78125 52.59375 
z
" id="DejaVuSans-99"/>
      <path d="M 54.890625 33.015625 
L 54.890625 0 
L 45.90625 0 
L 45.90625 32.71875 
Q 45.90625 40.484375 42.875 44.328125 
Q 39.84375 48.1875 33.796875 48.1875 
Q 26.515625 48.1875 22.3125 43.546875 
Q 18.109375 38.921875 18.109375 30.90625 
L 18.109375 0 
L 9.078125 0 
L 9.078125 75.984375 
L 18.109375 75.984375 
L 18.109375 46.1875 
Q 21.34375 51.125 25.703125 53.5625 
Q 30.078125 56 35.796875 56 
Q 45.21875 56 50.046875 50.171875 
Q 54.890625 44.34375 54.890625 33.015625 
z
" id="DejaVuSans-104"/>
      <path d="M 11.71875 12.40625 
L 22.015625 12.40625 
L 22.015625 0 
L 11.71875 0 
z
M 11.71875 51.703125 
L 22.015625 51.703125 
L 22.015625 39.3125 
L 11.71875 39.3125 
z
" id="DejaVuSans-58"/>
      <path d="M 9.8125 72.90625 
L 24.515625 72.90625 
L 43.109375 23.296875 
L 61.8125 72.90625 
L 76.515625 72.90625 
L 76.515625 0 
L 66.890625 0 
L 66.890625 64.015625 
L 48.09375 14.015625 
L 38.1875 14.015625 
L 19.390625 64.015625 
L 19.390625 0 
L 9.8125 0 
z
" id="DejaVuSans-77"/>
      <path d="M 52 44.1875 
Q 55.375 50.25 60.0625 53.125 
Q 64.75 56 71.09375 56 
Q 79.640625 56 84.28125 50.015625 
Q 88.921875 44.046875 88.921875 33.015625 
L 88.921875 0 
L 79.890625 0 
L 79.890625 32.71875 
Q 79.890625 40.578125 77.09375 44.375 
Q 74.3125 48.1875 68.609375 48.1875 
Q 61.625 48.1875 57.5625 43.546875 
Q 53.515625 38.921875 53.515625 30.90625 
L 53.515625 0 
L 44.484375 0 
L 44.484375 32.71875 
Q 44.484375 40.625 41.703125 44.40625 
Q 38.921875 48.1875 33.109375 48.1875 
Q 26.21875 48.1875 22.15625 43.53125 
Q 18.109375 38.875 18.109375 30.90625 
L 18.109375 0 
L 9.078125 0 
L 9.078125 54.6875 
L 18.109375 54.6875 
L 18.109375 46.1875 
Q 21.1875 51.21875 25.484375 53.609375 
Q 29.78125 56 35.6875 56 
Q 41.65625 56 45.828125 52.96875 
Q 50 49.953125 52 44.1875 
z
" id="DejaVuSans-109"/>
      <path d="M 8.5 21.578125 
L 8.5 54.6875 
L 17.484375 54.6875 
L 17.484375 21.921875 
Q 17.484375 14.15625 20.5 10.265625 
Q 23.53125 6.390625 29.59375 6.390625 
Q 36.859375 6.390625 41.078125 11.03125 
Q 45.3125 15.671875 45.3125 23.6875 
L 45.3125 54.6875 
L 54.296875 54.6875 
L 54.296875 0 
L 45.3125 0 
L 45.3125 8.40625 
Q 42.046875 3.421875 37.71875 1 
Q 33.40625 -1.421875 27.6875 -1.421875 
Q 18.265625 -1.421875 13.375 4.4375 
Q 8.5 10.296875 8.5 21.578125 
z
M 31.109375 56 
z
" id="DejaVuSans-117"/>
      <path d="M 10.59375 45.40625 
L 73.1875 45.40625 
L 73.1875 37.203125 
L 10.59375 37.203125 
z
M 10.59375 25.484375 
L 73.1875 25.484375 
L 73.1875 17.1875 
L 10.59375 17.1875 
z
" id="DejaVuSans-61"/>
      <path d="M 10.6875 12.40625 
L 21 12.40625 
L 21 0 
L 10.6875 0 
z
" id="DejaVuSans-46"/>
     </defs>
     <g transform="translate(94.6 72.748563)scale(0.1 -0.1)">
      <use xlink:href="#DejaVuSans-66"/>
      <use x="68.603516" xlink:href="#DejaVuSans-97"/>
      <use x="129.882812" xlink:href="#DejaVuSans-116"/>
      <use x="169.091797" xlink:href="#DejaVuSans-99"/>
      <use x="224.072266" xlink:href="#DejaVuSans-104"/>
      <use x="287.451172" xlink:href="#DejaVuSans-58"/>
      <use x="321.142578" xlink:href="#DejaVuSans-32"/>
      <use x="352.929688" xlink:href="#DejaVuSans-77"/>
      <use x="439.208984" xlink:href="#DejaVuSans-111"/>
      <use x="500.390625" xlink:href="#DejaVuSans-109"/>
      <use x="597.802734" xlink:href="#DejaVuSans-101"/>
      <use x="659.326172" xlink:href="#DejaVuSans-110"/>
      <use x="722.705078" xlink:href="#DejaVuSans-116"/>
      <use x="761.914062" xlink:href="#DejaVuSans-117"/>
      <use x="825.292969" xlink:href="#DejaVuSans-109"/>
      <use x="922.705078" xlink:href="#DejaVuSans-32"/>
      <use x="954.492188" xlink:href="#DejaVuSans-61"/>
      <use x="1038.28125" xlink:href="#DejaVuSans-32"/>
      <use x="1070.068359" xlink:href="#DejaVuSans-48"/>
      <use x="1133.691406" xlink:href="#DejaVuSans-46"/>
      <use x="1165.478516" xlink:href="#DejaVuSans-48"/>
     </g>
    </g>
    <g id="line2d_41">
     <path d="M 66.6 83.926688 
L 86.6 83.926688 
" style="fill:none;stroke:#2ca02c;stroke-linecap:square;stroke-width:1.5;"/>
    </g>
    <g id="line2d_42"/>
    <g id="text_15">
     <!-- Batch: Momentum = 0.1 -->
     <g transform="translate(94.6 87.426688)scale(0.1 -0.1)">
      <use xlink:href="#DejaVuSans-66"/>
      <use x="68.603516" xlink:href="#DejaVuSans-97"/>
      <use x="129.882812" xlink:href="#DejaVuSans-116"/>
      <use x="169.091797" xlink:href="#DejaVuSans-99"/>
      <use x="224.072266" xlink:href="#DejaVuSans-104"/>
      <use x="287.451172" xlink:href="#DejaVuSans-58"/>
      <use x="321.142578" xlink:href="#DejaVuSans-32"/>
      <use x="352.929688" xlink:href="#DejaVuSans-77"/>
      <use x="439.208984" xlink:href="#DejaVuSans-111"/>
      <use x="500.390625" xlink:href="#DejaVuSans-109"/>
      <use x="597.802734" xlink:href="#DejaVuSans-101"/>
      <use x="659.326172" xlink:href="#DejaVuSans-110"/>
      <use x="722.705078" xlink:href="#DejaVuSans-116"/>
      <use x="761.914062" xlink:href="#DejaVuSans-117"/>
      <use x="825.292969" xlink:href="#DejaVuSans-109"/>
      <use x="922.705078" xlink:href="#DejaVuSans-32"/>
      <use x="954.492188" xlink:href="#DejaVuSans-61"/>
      <use x="1038.28125" xlink:href="#DejaVuSans-32"/>
      <use x="1070.068359" xlink:href="#DejaVuSans-48"/>
      <use x="1133.691406" xlink:href="#DejaVuSans-46"/>
      <use x="1165.478516" xlink:href="#DejaVuSans-49"/>
     </g>
    </g>
    <g id="line2d_43">
     <path d="M 66.6 98.604813 
L 86.6 98.604813 
" style="fill:none;stroke:#d62728;stroke-linecap:square;stroke-width:1.5;"/>
    </g>
    <g id="line2d_44"/>
    <g id="text_16">
     <!-- Batch: Momentum = 0.9 -->
     <defs>
      <path d="M 10.984375 1.515625 
L 10.984375 10.5 
Q 14.703125 8.734375 18.5 7.8125 
Q 22.3125 6.890625 25.984375 6.890625 
Q 35.75 6.890625 40.890625 13.453125 
Q 46.046875 20.015625 46.78125 33.40625 
Q 43.953125 29.203125 39.59375 26.953125 
Q 35.25 24.703125 29.984375 24.703125 
Q 19.046875 24.703125 12.671875 31.3125 
Q 6.296875 37.9375 6.296875 49.421875 
Q 6.296875 60.640625 12.9375 67.421875 
Q 19.578125 74.21875 30.609375 74.21875 
Q 43.265625 74.21875 49.921875 64.515625 
Q 56.59375 54.828125 56.59375 36.375 
Q 56.59375 19.140625 48.40625 8.859375 
Q 40.234375 -1.421875 26.421875 -1.421875 
Q 22.703125 -1.421875 18.890625 -0.6875 
Q 15.09375 0.046875 10.984375 1.515625 
z
M 30.609375 32.421875 
Q 37.25 32.421875 41.125 36.953125 
Q 45.015625 41.5 45.015625 49.421875 
Q 45.015625 57.28125 41.125 61.84375 
Q 37.25 66.40625 30.609375 66.40625 
Q 23.96875 66.40625 20.09375 61.84375 
Q 16.21875 57.28125 16.21875 49.421875 
Q 16.21875 41.5 20.09375 36.953125 
Q 23.96875 32.421875 30.609375 32.421875 
z
" id="DejaVuSans-57"/>
     </defs>
     <g transform="translate(94.6 102.104813)scale(0.1 -0.1)">
      <use xlink:href="#DejaVuSans-66"/>
      <use x="68.603516" xlink:href="#DejaVuSans-97"/>
      <use x="129.882812" xlink:href="#DejaVuSans-116"/>
      <use x="169.091797" xlink:href="#DejaVuSans-99"/>
      <use x="224.072266" xlink:href="#DejaVuSans-104"/>
      <use x="287.451172" xlink:href="#DejaVuSans-58"/>
      <use x="321.142578" xlink:href="#DejaVuSans-32"/>
      <use x="352.929688" xlink:href="#DejaVuSans-77"/>
      <use x="439.208984" xlink:href="#DejaVuSans-111"/>
      <use x="500.390625" xlink:href="#DejaVuSans-109"/>
      <use x="597.802734" xlink:href="#DejaVuSans-101"/>
      <use x="659.326172" xlink:href="#DejaVuSans-110"/>
      <use x="722.705078" xlink:href="#DejaVuSans-116"/>
      <use x="761.914062" xlink:href="#DejaVuSans-117"/>
      <use x="825.292969" xlink:href="#DejaVuSans-109"/>
      <use x="922.705078" xlink:href="#DejaVuSans-32"/>
      <use x="954.492188" xlink:href="#DejaVuSans-61"/>
      <use x="1038.28125" xlink:href="#DejaVuSans-32"/>
      <use x="1070.068359" xlink:href="#DejaVuSans-48"/>
      <use x="1133.691406" xlink:href="#DejaVuSans-46"/>
      <use x="1165.478516" xlink:href="#DejaVuSans-57"/>
     </g>
    </g>
   </g>
  </g>
 </g>
 <defs>
  <clipPath id="pfc09c0e672">
   <rect height="266.112" width="357.12" x="57.6" y="41.472"/>
  </clipPath>
 </defs>
</svg>
