<?xml version="1.0" encoding="utf-8" standalone="no"?>
<!DOCTYPE svg PUBLIC "-//W3C//DTD SVG 1.1//EN"
  "http://www.w3.org/Graphics/SVG/1.1/DTD/svg11.dtd">
<!-- Created with matplotlib (https://matplotlib.org/) -->
<svg height="345.6pt" version="1.1" viewBox="0 0 460.8 345.6" width="460.8pt" xmlns="http://www.w3.org/2000/svg" xmlns:xlink="http://www.w3.org/1999/xlink">
 <defs>
  <style type="text/css">
*{stroke-linecap:butt;stroke-linejoin:round;white-space:pre;}
  </style>
 </defs>
 <g id="figure_1">
  <g id="patch_1">
   <path d="M 0 345.6 
L 460.8 345.6 
L 460.8 0 
L 0 0 
z
" style="fill:#ffffff;"/>
  </g>
  <g id="axes_1">
   <g id="patch_2">
    <path d="M 57.6 307.584 
L 414.72 307.584 
L 414.72 41.472 
L 57.6 41.472 
z
" style="fill:#ffffff;"/>
   </g>
   <g id="PolyCollection_1">
    <defs>
     <path d="M 77.106954 -184.95252 
L 77.106954 12.352275 
L 83.665736 -132.841247 
L 90.224518 -133.450497 
L 96.7833 -150.885098 
L 103.342082 -157.094782 
L 109.900864 -167.942206 
L 116.459646 -174.480588 
L 123.018428 -174.054726 
L 129.57721 -177.7723 
L 136.135992 -179.52092 
L 142.694774 -182.356122 
L 149.253556 -184.065795 
L 155.812338 -186.231248 
L 162.37112 -189.098286 
L 168.929902 -193.275279 
L 175.488684 -193.288 
L 182.047466 -194.628039 
L 188.606248 -195.639626 
L 195.16503 -196.201976 
L 201.723812 -197.595418 
L 208.282594 -200.075124 
L 214.841376 -200.537029 
L 221.400158 -200.626506 
L 227.95894 -201.014903 
L 234.517722 -205.347369 
L 241.076504 -206.672843 
L 247.635286 -209.352412 
L 254.194068 -210.130444 
L 260.75285 -210.484084 
L 267.311632 -209.62369 
L 273.870414 -210.641363 
L 280.429196 -212.812316 
L 286.987978 -212.092427 
L 293.54676 -213.332558 
L 300.105542 -214.449985 
L 306.664324 -215.946377 
L 313.223107 -215.725235 
L 319.781889 -214.815772 
L 326.340671 -215.072756 
L 332.899453 -215.313651 
L 339.458235 -218.082915 
L 346.017017 -218.148438 
L 352.575799 -217.727711 
L 359.134581 -219.30104 
L 365.693363 -217.414793 
L 372.252145 -216.95354 
L 378.810927 -216.322189 
L 385.369709 -216.38938 
L 391.928491 -216.98579 
L 398.487273 -216.006008 
L 398.487273 -229.030682 
L 398.487273 -229.030682 
L 391.928491 -228.671775 
L 385.369709 -228.774494 
L 378.810927 -229.403332 
L 372.252145 -228.032601 
L 365.693363 -229.838897 
L 359.134581 -229.403315 
L 352.575799 -229.928718 
L 346.017017 -244.671525 
L 339.458235 -228.326221 
L 332.899453 -227.825859 
L 326.340671 -227.572631 
L 319.781889 -227.727484 
L 313.223107 -226.298883 
L 306.664324 -227.907482 
L 300.105542 -225.172888 
L 293.54676 -224.505696 
L 286.987978 -225.14942 
L 280.429196 -224.187603 
L 273.870414 -221.899986 
L 267.311632 -222.127896 
L 260.75285 -220.680223 
L 254.194068 -220.803232 
L 247.635286 -219.952417 
L 241.076504 -218.77577 
L 234.517722 -217.46676 
L 227.95894 -214.858843 
L 221.400158 -212.292385 
L 214.841376 -210.125261 
L 208.282594 -210.542206 
L 201.723812 -208.981863 
L 195.16503 -206.67626 
L 188.606248 -205.768639 
L 182.047466 -204.037472 
L 175.488684 -204.37738 
L 168.929902 -203.513573 
L 162.37112 -200.492375 
L 155.812338 -197.481071 
L 149.253556 -194.972807 
L 142.694774 -191.51466 
L 136.135992 -189.281938 
L 129.57721 -191.836926 
L 123.018428 -187.471288 
L 116.459646 -188.443239 
L 109.900864 -186.755153 
L 103.342082 -177.310098 
L 96.7833 -171.02496 
L 90.224518 -165.391077 
L 83.665736 -173.22518 
L 77.106954 -184.95252 
z
" id="mb93bb19e91" style="stroke:#aec7e8;stroke-opacity:0.25;"/>
    </defs>
    <g clip-path="url(#pc99fe25c9f)">
     <use style="fill:#aec7e8;fill-opacity:0.25;stroke:#aec7e8;stroke-opacity:0.25;" x="0" xlink:href="#mb93bb19e91" y="345.6"/>
    </g>
   </g>
   <g id="PolyCollection_2">
    <defs>
     <path d="M 77.106954 -195.495951 
L 77.106954 -6.188574 
L 83.665736 -107.060991 
L 90.224518 -112.050036 
L 96.7833 -137.300766 
L 103.342082 -160.56579 
L 109.900864 -166.999898 
L 116.459646 -164.737019 
L 123.018428 -163.991819 
L 129.57721 -165.172427 
L 136.135992 -164.563019 
L 142.694774 -168.230727 
L 149.253556 -166.461959 
L 155.812338 -171.712295 
L 162.37112 -174.777114 
L 168.929902 -179.358967 
L 175.488684 -181.553436 
L 182.047466 -182.1196 
L 188.606248 -183.294543 
L 195.16503 -181.910612 
L 201.723812 -183.724311 
L 208.282594 -186.95755 
L 214.841376 -186.014645 
L 221.400158 -188.401206 
L 227.95894 -188.00235 
L 234.517722 -188.171772 
L 241.076504 -189.593204 
L 247.635286 -186.810988 
L 254.194068 -188.413814 
L 260.75285 -187.425462 
L 267.311632 -187.806992 
L 273.870414 -188.895141 
L 280.429196 -187.614715 
L 286.987978 -187.573519 
L 293.54676 -187.698029 
L 300.105542 -188.332854 
L 306.664324 -189.54783 
L 313.223107 -187.469391 
L 319.781889 -186.175238 
L 326.340671 -188.280094 
L 332.899453 -188.726902 
L 339.458235 -187.781703 
L 346.017017 -188.741758 
L 352.575799 -189.009943 
L 359.134581 -187.938166 
L 365.693363 -189.551263 
L 372.252145 -189.427781 
L 378.810927 -190.374979 
L 385.369709 -191.00457 
L 391.928491 -189.685373 
L 398.487273 -191.860899 
L 398.487273 -203.547282 
L 398.487273 -203.547282 
L 391.928491 -204.50422 
L 385.369709 -204.396534 
L 378.810927 -203.706016 
L 372.252145 -202.421063 
L 365.693363 -203.780097 
L 359.134581 -202.413418 
L 352.575799 -201.121156 
L 346.017017 -201.262835 
L 339.458235 -201.910572 
L 332.899453 -200.620271 
L 326.340671 -200.527554 
L 319.781889 -199.602919 
L 313.223107 -201.67307 
L 306.664324 -201.828346 
L 300.105542 -201.051303 
L 293.54676 -202.176021 
L 286.987978 -200.6299 
L 280.429196 -200.42535 
L 273.870414 -202.535617 
L 267.311632 -201.521634 
L 260.75285 -200.887379 
L 254.194068 -202.104982 
L 247.635286 -201.866135 
L 241.076504 -202.281534 
L 234.517722 -201.597141 
L 227.95894 -201.50157 
L 221.400158 -201.52405 
L 214.841376 -199.413757 
L 208.282594 -198.001891 
L 201.723812 -198.549119 
L 195.16503 -195.74271 
L 188.606248 -195.044575 
L 182.047466 -194.262976 
L 175.488684 -193.189532 
L 168.929902 -190.985544 
L 162.37112 -190.114541 
L 155.812338 -184.241819 
L 149.253556 -181.708885 
L 142.694774 -179.675467 
L 136.135992 -177.243108 
L 129.57721 -176.946686 
L 123.018428 -174.5382 
L 116.459646 -178.772984 
L 109.900864 -182.156482 
L 103.342082 -187.518806 
L 96.7833 -175.874015 
L 90.224518 -157.46136 
L 83.665736 -152.890567 
L 77.106954 -195.495951 
z
" id="m6d1f70cca1" style="stroke:#ffbb78;stroke-opacity:0.25;"/>
    </defs>
    <g clip-path="url(#pc99fe25c9f)">
     <use style="fill:#ffbb78;fill-opacity:0.25;stroke:#ffbb78;stroke-opacity:0.25;" x="0" xlink:href="#m6d1f70cca1" y="345.6"/>
    </g>
   </g>
   <g id="PolyCollection_3">
    <defs>
     <path d="M 77.106954 -210.672281 
L 77.106954 26.629292 
L 83.665736 -125.813543 
L 90.224518 -136.280719 
L 96.7833 -148.091165 
L 103.342082 -165.033353 
L 109.900864 -162.852856 
L 116.459646 -162.640478 
L 123.018428 -160.8469 
L 129.57721 -160.282857 
L 136.135992 -161.338043 
L 142.694774 -164.132904 
L 149.253556 -165.213859 
L 155.812338 -168.852387 
L 162.37112 -171.645373 
L 168.929902 -174.71349 
L 175.488684 -179.065442 
L 182.047466 -181.064281 
L 188.606248 -182.124745 
L 195.16503 -184.543996 
L 201.723812 -183.997692 
L 208.282594 -185.45591 
L 214.841376 -185.782897 
L 221.400158 -187.740534 
L 227.95894 -189.685845 
L 234.517722 -191.282534 
L 241.076504 -193.055003 
L 247.635286 -195.283114 
L 254.194068 -196.04522 
L 260.75285 -195.337495 
L 267.311632 -195.4206 
L 273.870414 -195.012667 
L 280.429196 -195.825679 
L 286.987978 -195.960026 
L 293.54676 -194.029954 
L 300.105542 -193.833254 
L 306.664324 -192.821156 
L 313.223107 -192.211443 
L 319.781889 -192.371137 
L 326.340671 -191.042434 
L 332.899453 -192.194724 
L 339.458235 -192.654027 
L 346.017017 -193.037444 
L 352.575799 -193.045744 
L 359.134581 -192.867638 
L 365.693363 -193.282811 
L 372.252145 -192.435723 
L 378.810927 -191.516749 
L 385.369709 -192.98072 
L 391.928491 -193.631399 
L 398.487273 -192.191387 
L 398.487273 -206.836169 
L 398.487273 -206.836169 
L 391.928491 -206.133259 
L 385.369709 -205.039128 
L 378.810927 -205.191281 
L 372.252145 -204.929871 
L 365.693363 -205.178596 
L 359.134581 -204.647934 
L 352.575799 -204.815578 
L 346.017017 -205.001833 
L 339.458235 -205.156431 
L 332.899453 -203.818279 
L 326.340671 -205.574535 
L 319.781889 -204.489011 
L 313.223107 -204.2065 
L 306.664324 -204.407184 
L 300.105542 -206.521888 
L 293.54676 -206.105596 
L 286.987978 -206.798196 
L 280.429196 -207.065148 
L 273.870414 -207.760743 
L 267.311632 -208.756069 
L 260.75285 -207.259006 
L 254.194068 -206.180782 
L 247.635286 -205.678518 
L 241.076504 -203.616355 
L 234.517722 -203.150861 
L 227.95894 -202.319824 
L 221.400158 -199.971742 
L 214.841376 -198.964928 
L 208.282594 -198.094845 
L 201.723812 -195.577145 
L 195.16503 -195.067536 
L 188.606248 -194.200951 
L 182.047466 -192.28101 
L 175.488684 -190.354171 
L 168.929902 -189.843502 
L 162.37112 -185.214572 
L 155.812338 -179.693385 
L 149.253556 -175.52744 
L 142.694774 -174.790021 
L 136.135992 -173.675459 
L 129.57721 -172.530755 
L 123.018428 -172.462366 
L 116.459646 -174.30213 
L 109.900864 -174.413658 
L 103.342082 -182.663742 
L 96.7833 -176.99606 
L 90.224518 -161.545137 
L 83.665736 -164.518139 
L 77.106954 -210.672281 
z
" id="mf3209c3c13" style="stroke:#98df8a;stroke-opacity:0.25;"/>
    </defs>
    <g clip-path="url(#pc99fe25c9f)">
     <use style="fill:#98df8a;fill-opacity:0.25;stroke:#98df8a;stroke-opacity:0.25;" x="0" xlink:href="#mf3209c3c13" y="345.6"/>
    </g>
   </g>
   <g id="PolyCollection_4">
    <defs>
     <path d="M 77.106954 -201.180576 
L 77.106954 24.350403 
L 83.665736 -127.157019 
L 90.224518 -128.210442 
L 96.7833 -139.337546 
L 103.342082 -150.506769 
L 109.900864 -161.909175 
L 116.459646 -167.937096 
L 123.018428 -169.835882 
L 129.57721 -172.053192 
L 136.135992 -174.515132 
L 142.694774 -178.604477 
L 149.253556 -183.117233 
L 155.812338 -182.330726 
L 162.37112 -181.576896 
L 168.929902 -180.951377 
L 175.488684 -184.167898 
L 182.047466 -184.684778 
L 188.606248 -187.37348 
L 195.16503 -190.338574 
L 201.723812 -188.412916 
L 208.282594 -192.518442 
L 214.841376 -192.830697 
L 221.400158 -194.576773 
L 227.95894 -194.636232 
L 234.517722 -194.292944 
L 241.076504 -195.222372 
L 247.635286 -196.568249 
L 254.194068 -196.998258 
L 260.75285 -198.484357 
L 267.311632 -199.971318 
L 273.870414 -197.930868 
L 280.429196 -199.375406 
L 286.987978 -200.297178 
L 293.54676 -199.884375 
L 300.105542 -200.908231 
L 306.664324 -198.702346 
L 313.223107 -198.93368 
L 319.781889 -199.394814 
L 326.340671 -198.712446 
L 332.899453 -197.859904 
L 339.458235 -197.6952 
L 346.017017 -199.773542 
L 352.575799 -199.016688 
L 359.134581 -200.511869 
L 365.693363 -199.252212 
L 372.252145 -198.515859 
L 378.810927 -199.195997 
L 385.369709 -199.530246 
L 391.928491 -200.862763 
L 398.487273 -199.76478 
L 398.487273 -212.973284 
L 398.487273 -212.973284 
L 391.928491 -212.106901 
L 385.369709 -211.87747 
L 378.810927 -211.368477 
L 372.252145 -210.347276 
L 365.693363 -211.143033 
L 359.134581 -211.241204 
L 352.575799 -209.728618 
L 346.017017 -211.309501 
L 339.458235 -210.307115 
L 332.899453 -211.54031 
L 326.340671 -210.276436 
L 319.781889 -209.398681 
L 313.223107 -210.353033 
L 306.664324 -211.185377 
L 300.105542 -211.083418 
L 293.54676 -211.517319 
L 286.987978 -211.378582 
L 280.429196 -212.040332 
L 273.870414 -211.932418 
L 267.311632 -213.248858 
L 260.75285 -210.08872 
L 254.194068 -208.750897 
L 247.635286 -208.046558 
L 241.076504 -205.736651 
L 234.517722 -205.371099 
L 227.95894 -206.248488 
L 221.400158 -205.258062 
L 214.841376 -205.649091 
L 208.282594 -203.690179 
L 201.723812 -203.515678 
L 195.16503 -201.81763 
L 188.606248 -201.762509 
L 182.047466 -198.916501 
L 175.488684 -197.089798 
L 168.929902 -197.119892 
L 162.37112 -194.115644 
L 155.812338 -195.124074 
L 149.253556 -195.130461 
L 142.694774 -190.663551 
L 136.135992 -188.037255 
L 129.57721 -183.952335 
L 123.018428 -181.432307 
L 116.459646 -180.175801 
L 109.900864 -178.621837 
L 103.342082 -175.18899 
L 96.7833 -175.216631 
L 90.224518 -176.006476 
L 83.665736 -179.671528 
L 77.106954 -201.180576 
z
" id="m5a05d0f7a2" style="stroke:#ff9896;stroke-opacity:0.25;"/>
    </defs>
    <g clip-path="url(#pc99fe25c9f)">
     <use style="fill:#ff9896;fill-opacity:0.25;stroke:#ff9896;stroke-opacity:0.25;" x="0" xlink:href="#m5a05d0f7a2" y="345.6"/>
    </g>
   </g>
   <g id="matplotlib.axis_1">
    <g id="xtick_1">
     <g id="line2d_1">
      <path clip-path="url(#pc99fe25c9f)" d="M 73.832727 307.584 
L 73.832727 41.472 
" style="fill:none;stroke:#b0b0b0;stroke-linecap:square;stroke-width:0.8;"/>
     </g>
     <g id="line2d_2">
      <defs>
       <path d="M 0 0 
L 0 3.5 
" id="m9e96a92528" style="stroke:#000000;stroke-width:0.8;"/>
      </defs>
      <g>
       <use style="stroke:#000000;stroke-width:0.8;" x="73.832727" xlink:href="#m9e96a92528" y="307.584"/>
      </g>
     </g>
     <g id="text_1">
      <!-- 0 -->
      <defs>
       <path d="M 31.78125 66.40625 
Q 24.171875 66.40625 20.328125 58.90625 
Q 16.5 51.421875 16.5 36.375 
Q 16.5 21.390625 20.328125 13.890625 
Q 24.171875 6.390625 31.78125 6.390625 
Q 39.453125 6.390625 43.28125 13.890625 
Q 47.125 21.390625 47.125 36.375 
Q 47.125 51.421875 43.28125 58.90625 
Q 39.453125 66.40625 31.78125 66.40625 
z
M 31.78125 74.21875 
Q 44.046875 74.21875 50.515625 64.515625 
Q 56.984375 54.828125 56.984375 36.375 
Q 56.984375 17.96875 50.515625 8.265625 
Q 44.046875 -1.421875 31.78125 -1.421875 
Q 19.53125 -1.421875 13.0625 8.265625 
Q 6.59375 17.96875 6.59375 36.375 
Q 6.59375 54.828125 13.0625 64.515625 
Q 19.53125 74.21875 31.78125 74.21875 
z
" id="DejaVuSans-48"/>
      </defs>
      <g transform="translate(70.651477 322.182437)scale(0.1 -0.1)">
       <use xlink:href="#DejaVuSans-48"/>
      </g>
     </g>
    </g>
    <g id="xtick_2">
     <g id="line2d_3">
      <path clip-path="url(#pc99fe25c9f)" d="M 125.47668 307.584 
L 125.47668 41.472 
" style="fill:none;stroke:#b0b0b0;stroke-linecap:square;stroke-width:0.8;"/>
     </g>
     <g id="line2d_4">
      <g>
       <use style="stroke:#000000;stroke-width:0.8;" x="125.47668" xlink:href="#m9e96a92528" y="307.584"/>
      </g>
     </g>
     <g id="text_2">
      <!-- 5000 -->
      <defs>
       <path d="M 10.796875 72.90625 
L 49.515625 72.90625 
L 49.515625 64.59375 
L 19.828125 64.59375 
L 19.828125 46.734375 
Q 21.96875 47.46875 24.109375 47.828125 
Q 26.265625 48.1875 28.421875 48.1875 
Q 40.625 48.1875 47.75 41.5 
Q 54.890625 34.8125 54.890625 23.390625 
Q 54.890625 11.625 47.5625 5.09375 
Q 40.234375 -1.421875 26.90625 -1.421875 
Q 22.3125 -1.421875 17.546875 -0.640625 
Q 12.796875 0.140625 7.71875 1.703125 
L 7.71875 11.625 
Q 12.109375 9.234375 16.796875 8.0625 
Q 21.484375 6.890625 26.703125 6.890625 
Q 35.15625 6.890625 40.078125 11.328125 
Q 45.015625 15.765625 45.015625 23.390625 
Q 45.015625 31 40.078125 35.4375 
Q 35.15625 39.890625 26.703125 39.890625 
Q 22.75 39.890625 18.8125 39.015625 
Q 14.890625 38.140625 10.796875 36.28125 
z
" id="DejaVuSans-53"/>
      </defs>
      <g transform="translate(112.75168 322.182437)scale(0.1 -0.1)">
       <use xlink:href="#DejaVuSans-53"/>
       <use x="63.623047" xlink:href="#DejaVuSans-48"/>
       <use x="127.246094" xlink:href="#DejaVuSans-48"/>
       <use x="190.869141" xlink:href="#DejaVuSans-48"/>
      </g>
     </g>
    </g>
    <g id="xtick_3">
     <g id="line2d_5">
      <path clip-path="url(#pc99fe25c9f)" d="M 177.120633 307.584 
L 177.120633 41.472 
" style="fill:none;stroke:#b0b0b0;stroke-linecap:square;stroke-width:0.8;"/>
     </g>
     <g id="line2d_6">
      <g>
       <use style="stroke:#000000;stroke-width:0.8;" x="177.120633" xlink:href="#m9e96a92528" y="307.584"/>
      </g>
     </g>
     <g id="text_3">
      <!-- 10000 -->
      <defs>
       <path d="M 12.40625 8.296875 
L 28.515625 8.296875 
L 28.515625 63.921875 
L 10.984375 60.40625 
L 10.984375 69.390625 
L 28.421875 72.90625 
L 38.28125 72.90625 
L 38.28125 8.296875 
L 54.390625 8.296875 
L 54.390625 0 
L 12.40625 0 
z
" id="DejaVuSans-49"/>
      </defs>
      <g transform="translate(161.214383 322.182437)scale(0.1 -0.1)">
       <use xlink:href="#DejaVuSans-49"/>
       <use x="63.623047" xlink:href="#DejaVuSans-48"/>
       <use x="127.246094" xlink:href="#DejaVuSans-48"/>
       <use x="190.869141" xlink:href="#DejaVuSans-48"/>
       <use x="254.492188" xlink:href="#DejaVuSans-48"/>
      </g>
     </g>
    </g>
    <g id="xtick_4">
     <g id="line2d_7">
      <path clip-path="url(#pc99fe25c9f)" d="M 228.764586 307.584 
L 228.764586 41.472 
" style="fill:none;stroke:#b0b0b0;stroke-linecap:square;stroke-width:0.8;"/>
     </g>
     <g id="line2d_8">
      <g>
       <use style="stroke:#000000;stroke-width:0.8;" x="228.764586" xlink:href="#m9e96a92528" y="307.584"/>
      </g>
     </g>
     <g id="text_4">
      <!-- 15000 -->
      <g transform="translate(212.858336 322.182437)scale(0.1 -0.1)">
       <use xlink:href="#DejaVuSans-49"/>
       <use x="63.623047" xlink:href="#DejaVuSans-53"/>
       <use x="127.246094" xlink:href="#DejaVuSans-48"/>
       <use x="190.869141" xlink:href="#DejaVuSans-48"/>
       <use x="254.492188" xlink:href="#DejaVuSans-48"/>
      </g>
     </g>
    </g>
    <g id="xtick_5">
     <g id="line2d_9">
      <path clip-path="url(#pc99fe25c9f)" d="M 280.408539 307.584 
L 280.408539 41.472 
" style="fill:none;stroke:#b0b0b0;stroke-linecap:square;stroke-width:0.8;"/>
     </g>
     <g id="line2d_10">
      <g>
       <use style="stroke:#000000;stroke-width:0.8;" x="280.408539" xlink:href="#m9e96a92528" y="307.584"/>
      </g>
     </g>
     <g id="text_5">
      <!-- 20000 -->
      <defs>
       <path d="M 19.1875 8.296875 
L 53.609375 8.296875 
L 53.609375 0 
L 7.328125 0 
L 7.328125 8.296875 
Q 12.9375 14.109375 22.625 23.890625 
Q 32.328125 33.6875 34.8125 36.53125 
Q 39.546875 41.84375 41.421875 45.53125 
Q 43.3125 49.21875 43.3125 52.78125 
Q 43.3125 58.59375 39.234375 62.25 
Q 35.15625 65.921875 28.609375 65.921875 
Q 23.96875 65.921875 18.8125 64.3125 
Q 13.671875 62.703125 7.8125 59.421875 
L 7.8125 69.390625 
Q 13.765625 71.78125 18.9375 73 
Q 24.125 74.21875 28.421875 74.21875 
Q 39.75 74.21875 46.484375 68.546875 
Q 53.21875 62.890625 53.21875 53.421875 
Q 53.21875 48.921875 51.53125 44.890625 
Q 49.859375 40.875 45.40625 35.40625 
Q 44.1875 33.984375 37.640625 27.21875 
Q 31.109375 20.453125 19.1875 8.296875 
z
" id="DejaVuSans-50"/>
      </defs>
      <g transform="translate(264.502289 322.182437)scale(0.1 -0.1)">
       <use xlink:href="#DejaVuSans-50"/>
       <use x="63.623047" xlink:href="#DejaVuSans-48"/>
       <use x="127.246094" xlink:href="#DejaVuSans-48"/>
       <use x="190.869141" xlink:href="#DejaVuSans-48"/>
       <use x="254.492188" xlink:href="#DejaVuSans-48"/>
      </g>
     </g>
    </g>
    <g id="xtick_6">
     <g id="line2d_11">
      <path clip-path="url(#pc99fe25c9f)" d="M 332.052492 307.584 
L 332.052492 41.472 
" style="fill:none;stroke:#b0b0b0;stroke-linecap:square;stroke-width:0.8;"/>
     </g>
     <g id="line2d_12">
      <g>
       <use style="stroke:#000000;stroke-width:0.8;" x="332.052492" xlink:href="#m9e96a92528" y="307.584"/>
      </g>
     </g>
     <g id="text_6">
      <!-- 25000 -->
      <g transform="translate(316.146242 322.182437)scale(0.1 -0.1)">
       <use xlink:href="#DejaVuSans-50"/>
       <use x="63.623047" xlink:href="#DejaVuSans-53"/>
       <use x="127.246094" xlink:href="#DejaVuSans-48"/>
       <use x="190.869141" xlink:href="#DejaVuSans-48"/>
       <use x="254.492188" xlink:href="#DejaVuSans-48"/>
      </g>
     </g>
    </g>
    <g id="xtick_7">
     <g id="line2d_13">
      <path clip-path="url(#pc99fe25c9f)" d="M 383.696445 307.584 
L 383.696445 41.472 
" style="fill:none;stroke:#b0b0b0;stroke-linecap:square;stroke-width:0.8;"/>
     </g>
     <g id="line2d_14">
      <g>
       <use style="stroke:#000000;stroke-width:0.8;" x="383.696445" xlink:href="#m9e96a92528" y="307.584"/>
      </g>
     </g>
     <g id="text_7">
      <!-- 30000 -->
      <defs>
       <path d="M 40.578125 39.3125 
Q 47.65625 37.796875 51.625 33 
Q 55.609375 28.21875 55.609375 21.1875 
Q 55.609375 10.40625 48.1875 4.484375 
Q 40.765625 -1.421875 27.09375 -1.421875 
Q 22.515625 -1.421875 17.65625 -0.515625 
Q 12.796875 0.390625 7.625 2.203125 
L 7.625 11.71875 
Q 11.71875 9.328125 16.59375 8.109375 
Q 21.484375 6.890625 26.8125 6.890625 
Q 36.078125 6.890625 40.9375 10.546875 
Q 45.796875 14.203125 45.796875 21.1875 
Q 45.796875 27.640625 41.28125 31.265625 
Q 36.765625 34.90625 28.71875 34.90625 
L 20.21875 34.90625 
L 20.21875 43.015625 
L 29.109375 43.015625 
Q 36.375 43.015625 40.234375 45.921875 
Q 44.09375 48.828125 44.09375 54.296875 
Q 44.09375 59.90625 40.109375 62.90625 
Q 36.140625 65.921875 28.71875 65.921875 
Q 24.65625 65.921875 20.015625 65.03125 
Q 15.375 64.15625 9.8125 62.3125 
L 9.8125 71.09375 
Q 15.4375 72.65625 20.34375 73.4375 
Q 25.25 74.21875 29.59375 74.21875 
Q 40.828125 74.21875 47.359375 69.109375 
Q 53.90625 64.015625 53.90625 55.328125 
Q 53.90625 49.265625 50.4375 45.09375 
Q 46.96875 40.921875 40.578125 39.3125 
z
" id="DejaVuSans-51"/>
      </defs>
      <g transform="translate(367.790195 322.182437)scale(0.1 -0.1)">
       <use xlink:href="#DejaVuSans-51"/>
       <use x="63.623047" xlink:href="#DejaVuSans-48"/>
       <use x="127.246094" xlink:href="#DejaVuSans-48"/>
       <use x="190.869141" xlink:href="#DejaVuSans-48"/>
       <use x="254.492188" xlink:href="#DejaVuSans-48"/>
      </g>
     </g>
    </g>
    <g id="text_8">
     <!-- Steps -->
     <defs>
      <path d="M 53.515625 70.515625 
L 53.515625 60.890625 
Q 47.90625 63.578125 42.921875 64.890625 
Q 37.9375 66.21875 33.296875 66.21875 
Q 25.25 66.21875 20.875 63.09375 
Q 16.5 59.96875 16.5 54.203125 
Q 16.5 49.359375 19.40625 46.890625 
Q 22.3125 44.4375 30.421875 42.921875 
L 36.375 41.703125 
Q 47.40625 39.59375 52.65625 34.296875 
Q 57.90625 29 57.90625 20.125 
Q 57.90625 9.515625 50.796875 4.046875 
Q 43.703125 -1.421875 29.984375 -1.421875 
Q 24.8125 -1.421875 18.96875 -0.25 
Q 13.140625 0.921875 6.890625 3.21875 
L 6.890625 13.375 
Q 12.890625 10.015625 18.65625 8.296875 
Q 24.421875 6.59375 29.984375 6.59375 
Q 38.421875 6.59375 43.015625 9.90625 
Q 47.609375 13.234375 47.609375 19.390625 
Q 47.609375 24.75 44.3125 27.78125 
Q 41.015625 30.8125 33.5 32.328125 
L 27.484375 33.5 
Q 16.453125 35.6875 11.515625 40.375 
Q 6.59375 45.0625 6.59375 53.421875 
Q 6.59375 63.09375 13.40625 68.65625 
Q 20.21875 74.21875 32.171875 74.21875 
Q 37.3125 74.21875 42.625 73.28125 
Q 47.953125 72.359375 53.515625 70.515625 
z
" id="DejaVuSans-83"/>
      <path d="M 18.3125 70.21875 
L 18.3125 54.6875 
L 36.8125 54.6875 
L 36.8125 47.703125 
L 18.3125 47.703125 
L 18.3125 18.015625 
Q 18.3125 11.328125 20.140625 9.421875 
Q 21.96875 7.515625 27.59375 7.515625 
L 36.8125 7.515625 
L 36.8125 0 
L 27.59375 0 
Q 17.1875 0 13.234375 3.875 
Q 9.28125 7.765625 9.28125 18.015625 
L 9.28125 47.703125 
L 2.6875 47.703125 
L 2.6875 54.6875 
L 9.28125 54.6875 
L 9.28125 70.21875 
z
" id="DejaVuSans-116"/>
      <path d="M 56.203125 29.59375 
L 56.203125 25.203125 
L 14.890625 25.203125 
Q 15.484375 15.921875 20.484375 11.0625 
Q 25.484375 6.203125 34.421875 6.203125 
Q 39.59375 6.203125 44.453125 7.46875 
Q 49.3125 8.734375 54.109375 11.28125 
L 54.109375 2.78125 
Q 49.265625 0.734375 44.1875 -0.34375 
Q 39.109375 -1.421875 33.890625 -1.421875 
Q 20.796875 -1.421875 13.15625 6.1875 
Q 5.515625 13.8125 5.515625 26.8125 
Q 5.515625 40.234375 12.765625 48.109375 
Q 20.015625 56 32.328125 56 
Q 43.359375 56 49.78125 48.890625 
Q 56.203125 41.796875 56.203125 29.59375 
z
M 47.21875 32.234375 
Q 47.125 39.59375 43.09375 43.984375 
Q 39.0625 48.390625 32.421875 48.390625 
Q 24.90625 48.390625 20.390625 44.140625 
Q 15.875 39.890625 15.1875 32.171875 
z
" id="DejaVuSans-101"/>
      <path d="M 18.109375 8.203125 
L 18.109375 -20.796875 
L 9.078125 -20.796875 
L 9.078125 54.6875 
L 18.109375 54.6875 
L 18.109375 46.390625 
Q 20.953125 51.265625 25.265625 53.625 
Q 29.59375 56 35.59375 56 
Q 45.5625 56 51.78125 48.09375 
Q 58.015625 40.1875 58.015625 27.296875 
Q 58.015625 14.40625 51.78125 6.484375 
Q 45.5625 -1.421875 35.59375 -1.421875 
Q 29.59375 -1.421875 25.265625 0.953125 
Q 20.953125 3.328125 18.109375 8.203125 
z
M 48.6875 27.296875 
Q 48.6875 37.203125 44.609375 42.84375 
Q 40.53125 48.484375 33.40625 48.484375 
Q 26.265625 48.484375 22.1875 42.84375 
Q 18.109375 37.203125 18.109375 27.296875 
Q 18.109375 17.390625 22.1875 11.75 
Q 26.265625 6.109375 33.40625 6.109375 
Q 40.53125 6.109375 44.609375 11.75 
Q 48.6875 17.390625 48.6875 27.296875 
z
" id="DejaVuSans-112"/>
      <path d="M 44.28125 53.078125 
L 44.28125 44.578125 
Q 40.484375 46.53125 36.375 47.5 
Q 32.28125 48.484375 27.875 48.484375 
Q 21.1875 48.484375 17.84375 46.4375 
Q 14.5 44.390625 14.5 40.28125 
Q 14.5 37.15625 16.890625 35.375 
Q 19.28125 33.59375 26.515625 31.984375 
L 29.59375 31.296875 
Q 39.15625 29.25 43.1875 25.515625 
Q 47.21875 21.78125 47.21875 15.09375 
Q 47.21875 7.46875 41.1875 3.015625 
Q 35.15625 -1.421875 24.609375 -1.421875 
Q 20.21875 -1.421875 15.453125 -0.5625 
Q 10.6875 0.296875 5.421875 2 
L 5.421875 11.28125 
Q 10.40625 8.6875 15.234375 7.390625 
Q 20.0625 6.109375 24.8125 6.109375 
Q 31.15625 6.109375 34.5625 8.28125 
Q 37.984375 10.453125 37.984375 14.40625 
Q 37.984375 18.0625 35.515625 20.015625 
Q 33.0625 21.96875 24.703125 23.78125 
L 21.578125 24.515625 
Q 13.234375 26.265625 9.515625 29.90625 
Q 5.8125 33.546875 5.8125 39.890625 
Q 5.8125 47.609375 11.28125 51.796875 
Q 16.75 56 26.8125 56 
Q 31.78125 56 36.171875 55.265625 
Q 40.578125 54.546875 44.28125 53.078125 
z
" id="DejaVuSans-115"/>
     </defs>
     <g transform="translate(222.170156 335.860562)scale(0.1 -0.1)">
      <use xlink:href="#DejaVuSans-83"/>
      <use x="63.476562" xlink:href="#DejaVuSans-116"/>
      <use x="102.685547" xlink:href="#DejaVuSans-101"/>
      <use x="164.208984" xlink:href="#DejaVuSans-112"/>
      <use x="227.685547" xlink:href="#DejaVuSans-115"/>
     </g>
    </g>
   </g>
   <g id="matplotlib.axis_2">
    <g id="ytick_1">
     <g id="line2d_15">
      <path clip-path="url(#pc99fe25c9f)" d="M 57.6 307.584 
L 414.72 307.584 
" style="fill:none;stroke:#b0b0b0;stroke-linecap:square;stroke-width:0.8;"/>
     </g>
     <g id="line2d_16">
      <defs>
       <path d="M 0 0 
L -3.5 0 
" id="ma2da1a0e4f" style="stroke:#000000;stroke-width:0.8;"/>
      </defs>
      <g>
       <use style="stroke:#000000;stroke-width:0.8;" x="57.6" xlink:href="#ma2da1a0e4f" y="307.584"/>
      </g>
     </g>
     <g id="text_9">
      <!-- $\mathdefault{10^{-1}}$ -->
      <defs>
       <path d="M 10.59375 35.5 
L 73.1875 35.5 
L 73.1875 27.203125 
L 10.59375 27.203125 
z
" id="DejaVuSans-8722"/>
      </defs>
      <g transform="translate(27.1 311.383219)scale(0.1 -0.1)">
       <use transform="translate(0 0.684375)" xlink:href="#DejaVuSans-49"/>
       <use transform="translate(63.623047 0.684375)" xlink:href="#DejaVuSans-48"/>
       <use transform="translate(128.203125 38.965625)scale(0.7)" xlink:href="#DejaVuSans-8722"/>
       <use transform="translate(186.855469 38.965625)scale(0.7)" xlink:href="#DejaVuSans-49"/>
      </g>
     </g>
    </g>
    <g id="ytick_2">
     <g id="line2d_17">
      <path clip-path="url(#pc99fe25c9f)" d="M 57.6 241.056 
L 414.72 241.056 
" style="fill:none;stroke:#b0b0b0;stroke-linecap:square;stroke-width:0.8;"/>
     </g>
     <g id="line2d_18">
      <g>
       <use style="stroke:#000000;stroke-width:0.8;" x="57.6" xlink:href="#ma2da1a0e4f" y="241.056"/>
      </g>
     </g>
     <g id="text_10">
      <!-- $\mathdefault{10^{0}}$ -->
      <g transform="translate(33 244.855219)scale(0.1 -0.1)">
       <use transform="translate(0 0.765625)" xlink:href="#DejaVuSans-49"/>
       <use transform="translate(63.623047 0.765625)" xlink:href="#DejaVuSans-48"/>
       <use transform="translate(128.203125 39.046875)scale(0.7)" xlink:href="#DejaVuSans-48"/>
      </g>
     </g>
    </g>
    <g id="ytick_3">
     <g id="line2d_19">
      <path clip-path="url(#pc99fe25c9f)" d="M 57.6 174.528 
L 414.72 174.528 
" style="fill:none;stroke:#b0b0b0;stroke-linecap:square;stroke-width:0.8;"/>
     </g>
     <g id="line2d_20">
      <g>
       <use style="stroke:#000000;stroke-width:0.8;" x="57.6" xlink:href="#ma2da1a0e4f" y="174.528"/>
      </g>
     </g>
     <g id="text_11">
      <!-- $\mathdefault{10^{1}}$ -->
      <g transform="translate(33 178.327219)scale(0.1 -0.1)">
       <use transform="translate(0 0.684375)" xlink:href="#DejaVuSans-49"/>
       <use transform="translate(63.623047 0.684375)" xlink:href="#DejaVuSans-48"/>
       <use transform="translate(128.203125 38.965625)scale(0.7)" xlink:href="#DejaVuSans-49"/>
      </g>
     </g>
    </g>
    <g id="ytick_4">
     <g id="line2d_21">
      <path clip-path="url(#pc99fe25c9f)" d="M 57.6 108 
L 414.72 108 
" style="fill:none;stroke:#b0b0b0;stroke-linecap:square;stroke-width:0.8;"/>
     </g>
     <g id="line2d_22">
      <g>
       <use style="stroke:#000000;stroke-width:0.8;" x="57.6" xlink:href="#ma2da1a0e4f" y="108"/>
      </g>
     </g>
     <g id="text_12">
      <!-- $\mathdefault{10^{2}}$ -->
      <g transform="translate(33 111.799219)scale(0.1 -0.1)">
       <use transform="translate(0 0.765625)" xlink:href="#DejaVuSans-49"/>
       <use transform="translate(63.623047 0.765625)" xlink:href="#DejaVuSans-48"/>
       <use transform="translate(128.203125 39.046875)scale(0.7)" xlink:href="#DejaVuSans-50"/>
      </g>
     </g>
    </g>
    <g id="ytick_5">
     <g id="line2d_23">
      <path clip-path="url(#pc99fe25c9f)" d="M 57.6 41.472 
L 414.72 41.472 
" style="fill:none;stroke:#b0b0b0;stroke-linecap:square;stroke-width:0.8;"/>
     </g>
     <g id="line2d_24">
      <g>
       <use style="stroke:#000000;stroke-width:0.8;" x="57.6" xlink:href="#ma2da1a0e4f" y="41.472"/>
      </g>
     </g>
     <g id="text_13">
      <!-- $\mathdefault{10^{3}}$ -->
      <g transform="translate(33 45.271219)scale(0.1 -0.1)">
       <use transform="translate(0 0.765625)" xlink:href="#DejaVuSans-49"/>
       <use transform="translate(63.623047 0.765625)" xlink:href="#DejaVuSans-48"/>
       <use transform="translate(128.203125 39.046875)scale(0.7)" xlink:href="#DejaVuSans-51"/>
      </g>
     </g>
    </g>
    <g id="ytick_6">
     <g id="line2d_25">
      <defs>
       <path d="M 0 0 
L -2 0 
" id="mfe8320f5ba" style="stroke:#000000;stroke-width:0.6;"/>
      </defs>
      <g>
       <use style="stroke:#000000;stroke-width:0.6;" x="57.6" xlink:href="#mfe8320f5ba" y="287.557076"/>
      </g>
     </g>
    </g>
    <g id="ytick_7">
     <g id="line2d_26">
      <g>
       <use style="stroke:#000000;stroke-width:0.6;" x="57.6" xlink:href="#mfe8320f5ba" y="275.842077"/>
      </g>
     </g>
    </g>
    <g id="ytick_8">
     <g id="line2d_27">
      <g>
       <use style="stroke:#000000;stroke-width:0.6;" x="57.6" xlink:href="#mfe8320f5ba" y="267.530153"/>
      </g>
     </g>
    </g>
    <g id="ytick_9">
     <g id="line2d_28">
      <g>
       <use style="stroke:#000000;stroke-width:0.6;" x="57.6" xlink:href="#mfe8320f5ba" y="261.082924"/>
      </g>
     </g>
    </g>
    <g id="ytick_10">
     <g id="line2d_29">
      <g>
       <use style="stroke:#000000;stroke-width:0.6;" x="57.6" xlink:href="#mfe8320f5ba" y="255.815154"/>
      </g>
     </g>
    </g>
    <g id="ytick_11">
     <g id="line2d_30">
      <g>
       <use style="stroke:#000000;stroke-width:0.6;" x="57.6" xlink:href="#mfe8320f5ba" y="251.361318"/>
      </g>
     </g>
    </g>
    <g id="ytick_12">
     <g id="line2d_31">
      <g>
       <use style="stroke:#000000;stroke-width:0.6;" x="57.6" xlink:href="#mfe8320f5ba" y="247.503229"/>
      </g>
     </g>
    </g>
    <g id="ytick_13">
     <g id="line2d_32">
      <g>
       <use style="stroke:#000000;stroke-width:0.6;" x="57.6" xlink:href="#mfe8320f5ba" y="244.100154"/>
      </g>
     </g>
    </g>
    <g id="ytick_14">
     <g id="line2d_33">
      <g>
       <use style="stroke:#000000;stroke-width:0.6;" x="57.6" xlink:href="#mfe8320f5ba" y="221.029076"/>
      </g>
     </g>
    </g>
    <g id="ytick_15">
     <g id="line2d_34">
      <g>
       <use style="stroke:#000000;stroke-width:0.6;" x="57.6" xlink:href="#mfe8320f5ba" y="209.314077"/>
      </g>
     </g>
    </g>
    <g id="ytick_16">
     <g id="line2d_35">
      <g>
       <use style="stroke:#000000;stroke-width:0.6;" x="57.6" xlink:href="#mfe8320f5ba" y="201.002153"/>
      </g>
     </g>
    </g>
    <g id="ytick_17">
     <g id="line2d_36">
      <g>
       <use style="stroke:#000000;stroke-width:0.6;" x="57.6" xlink:href="#mfe8320f5ba" y="194.554924"/>
      </g>
     </g>
    </g>
    <g id="ytick_18">
     <g id="line2d_37">
      <g>
       <use style="stroke:#000000;stroke-width:0.6;" x="57.6" xlink:href="#mfe8320f5ba" y="189.287154"/>
      </g>
     </g>
    </g>
    <g id="ytick_19">
     <g id="line2d_38">
      <g>
       <use style="stroke:#000000;stroke-width:0.6;" x="57.6" xlink:href="#mfe8320f5ba" y="184.833318"/>
      </g>
     </g>
    </g>
    <g id="ytick_20">
     <g id="line2d_39">
      <g>
       <use style="stroke:#000000;stroke-width:0.6;" x="57.6" xlink:href="#mfe8320f5ba" y="180.975229"/>
      </g>
     </g>
    </g>
    <g id="ytick_21">
     <g id="line2d_40">
      <g>
       <use style="stroke:#000000;stroke-width:0.6;" x="57.6" xlink:href="#mfe8320f5ba" y="177.572154"/>
      </g>
     </g>
    </g>
    <g id="ytick_22">
     <g id="line2d_41">
      <g>
       <use style="stroke:#000000;stroke-width:0.6;" x="57.6" xlink:href="#mfe8320f5ba" y="154.501076"/>
      </g>
     </g>
    </g>
    <g id="ytick_23">
     <g id="line2d_42">
      <g>
       <use style="stroke:#000000;stroke-width:0.6;" x="57.6" xlink:href="#mfe8320f5ba" y="142.786077"/>
      </g>
     </g>
    </g>
    <g id="ytick_24">
     <g id="line2d_43">
      <g>
       <use style="stroke:#000000;stroke-width:0.6;" x="57.6" xlink:href="#mfe8320f5ba" y="134.474153"/>
      </g>
     </g>
    </g>
    <g id="ytick_25">
     <g id="line2d_44">
      <g>
       <use style="stroke:#000000;stroke-width:0.6;" x="57.6" xlink:href="#mfe8320f5ba" y="128.026924"/>
      </g>
     </g>
    </g>
    <g id="ytick_26">
     <g id="line2d_45">
      <g>
       <use style="stroke:#000000;stroke-width:0.6;" x="57.6" xlink:href="#mfe8320f5ba" y="122.759154"/>
      </g>
     </g>
    </g>
    <g id="ytick_27">
     <g id="line2d_46">
      <g>
       <use style="stroke:#000000;stroke-width:0.6;" x="57.6" xlink:href="#mfe8320f5ba" y="118.305318"/>
      </g>
     </g>
    </g>
    <g id="ytick_28">
     <g id="line2d_47">
      <g>
       <use style="stroke:#000000;stroke-width:0.6;" x="57.6" xlink:href="#mfe8320f5ba" y="114.447229"/>
      </g>
     </g>
    </g>
    <g id="ytick_29">
     <g id="line2d_48">
      <g>
       <use style="stroke:#000000;stroke-width:0.6;" x="57.6" xlink:href="#mfe8320f5ba" y="111.044154"/>
      </g>
     </g>
    </g>
    <g id="ytick_30">
     <g id="line2d_49">
      <g>
       <use style="stroke:#000000;stroke-width:0.6;" x="57.6" xlink:href="#mfe8320f5ba" y="87.973076"/>
      </g>
     </g>
    </g>
    <g id="ytick_31">
     <g id="line2d_50">
      <g>
       <use style="stroke:#000000;stroke-width:0.6;" x="57.6" xlink:href="#mfe8320f5ba" y="76.258077"/>
      </g>
     </g>
    </g>
    <g id="ytick_32">
     <g id="line2d_51">
      <g>
       <use style="stroke:#000000;stroke-width:0.6;" x="57.6" xlink:href="#mfe8320f5ba" y="67.946153"/>
      </g>
     </g>
    </g>
    <g id="ytick_33">
     <g id="line2d_52">
      <g>
       <use style="stroke:#000000;stroke-width:0.6;" x="57.6" xlink:href="#mfe8320f5ba" y="61.498924"/>
      </g>
     </g>
    </g>
    <g id="ytick_34">
     <g id="line2d_53">
      <g>
       <use style="stroke:#000000;stroke-width:0.6;" x="57.6" xlink:href="#mfe8320f5ba" y="56.231154"/>
      </g>
     </g>
    </g>
    <g id="ytick_35">
     <g id="line2d_54">
      <g>
       <use style="stroke:#000000;stroke-width:0.6;" x="57.6" xlink:href="#mfe8320f5ba" y="51.777318"/>
      </g>
     </g>
    </g>
    <g id="ytick_36">
     <g id="line2d_55">
      <g>
       <use style="stroke:#000000;stroke-width:0.6;" x="57.6" xlink:href="#mfe8320f5ba" y="47.919229"/>
      </g>
     </g>
    </g>
    <g id="ytick_37">
     <g id="line2d_56">
      <g>
       <use style="stroke:#000000;stroke-width:0.6;" x="57.6" xlink:href="#mfe8320f5ba" y="44.516154"/>
      </g>
     </g>
    </g>
    <g id="text_14">
     <!-- Feature Mathing Error -->
     <defs>
      <path d="M 9.8125 72.90625 
L 51.703125 72.90625 
L 51.703125 64.59375 
L 19.671875 64.59375 
L 19.671875 43.109375 
L 48.578125 43.109375 
L 48.578125 34.8125 
L 19.671875 34.8125 
L 19.671875 0 
L 9.8125 0 
z
" id="DejaVuSans-70"/>
      <path d="M 34.28125 27.484375 
Q 23.390625 27.484375 19.1875 25 
Q 14.984375 22.515625 14.984375 16.5 
Q 14.984375 11.71875 18.140625 8.90625 
Q 21.296875 6.109375 26.703125 6.109375 
Q 34.1875 6.109375 38.703125 11.40625 
Q 43.21875 16.703125 43.21875 25.484375 
L 43.21875 27.484375 
z
M 52.203125 31.203125 
L 52.203125 0 
L 43.21875 0 
L 43.21875 8.296875 
Q 40.140625 3.328125 35.546875 0.953125 
Q 30.953125 -1.421875 24.3125 -1.421875 
Q 15.921875 -1.421875 10.953125 3.296875 
Q 6 8.015625 6 15.921875 
Q 6 25.140625 12.171875 29.828125 
Q 18.359375 34.515625 30.609375 34.515625 
L 43.21875 34.515625 
L 43.21875 35.40625 
Q 43.21875 41.609375 39.140625 45 
Q 35.0625 48.390625 27.6875 48.390625 
Q 23 48.390625 18.546875 47.265625 
Q 14.109375 46.140625 10.015625 43.890625 
L 10.015625 52.203125 
Q 14.9375 54.109375 19.578125 55.046875 
Q 24.21875 56 28.609375 56 
Q 40.484375 56 46.34375 49.84375 
Q 52.203125 43.703125 52.203125 31.203125 
z
" id="DejaVuSans-97"/>
      <path d="M 8.5 21.578125 
L 8.5 54.6875 
L 17.484375 54.6875 
L 17.484375 21.921875 
Q 17.484375 14.15625 20.5 10.265625 
Q 23.53125 6.390625 29.59375 6.390625 
Q 36.859375 6.390625 41.078125 11.03125 
Q 45.3125 15.671875 45.3125 23.6875 
L 45.3125 54.6875 
L 54.296875 54.6875 
L 54.296875 0 
L 45.3125 0 
L 45.3125 8.40625 
Q 42.046875 3.421875 37.71875 1 
Q 33.40625 -1.421875 27.6875 -1.421875 
Q 18.265625 -1.421875 13.375 4.4375 
Q 8.5 10.296875 8.5 21.578125 
z
M 31.109375 56 
z
" id="DejaVuSans-117"/>
      <path d="M 41.109375 46.296875 
Q 39.59375 47.171875 37.8125 47.578125 
Q 36.03125 48 33.890625 48 
Q 26.265625 48 22.1875 43.046875 
Q 18.109375 38.09375 18.109375 28.8125 
L 18.109375 0 
L 9.078125 0 
L 9.078125 54.6875 
L 18.109375 54.6875 
L 18.109375 46.1875 
Q 20.953125 51.171875 25.484375 53.578125 
Q 30.03125 56 36.53125 56 
Q 37.453125 56 38.578125 55.875 
Q 39.703125 55.765625 41.0625 55.515625 
z
" id="DejaVuSans-114"/>
      <path id="DejaVuSans-32"/>
      <path d="M 9.8125 72.90625 
L 24.515625 72.90625 
L 43.109375 23.296875 
L 61.8125 72.90625 
L 76.515625 72.90625 
L 76.515625 0 
L 66.890625 0 
L 66.890625 64.015625 
L 48.09375 14.015625 
L 38.1875 14.015625 
L 19.390625 64.015625 
L 19.390625 0 
L 9.8125 0 
z
" id="DejaVuSans-77"/>
      <path d="M 54.890625 33.015625 
L 54.890625 0 
L 45.90625 0 
L 45.90625 32.71875 
Q 45.90625 40.484375 42.875 44.328125 
Q 39.84375 48.1875 33.796875 48.1875 
Q 26.515625 48.1875 22.3125 43.546875 
Q 18.109375 38.921875 18.109375 30.90625 
L 18.109375 0 
L 9.078125 0 
L 9.078125 75.984375 
L 18.109375 75.984375 
L 18.109375 46.1875 
Q 21.34375 51.125 25.703125 53.5625 
Q 30.078125 56 35.796875 56 
Q 45.21875 56 50.046875 50.171875 
Q 54.890625 44.34375 54.890625 33.015625 
z
" id="DejaVuSans-104"/>
      <path d="M 9.421875 54.6875 
L 18.40625 54.6875 
L 18.40625 0 
L 9.421875 0 
z
M 9.421875 75.984375 
L 18.40625 75.984375 
L 18.40625 64.59375 
L 9.421875 64.59375 
z
" id="DejaVuSans-105"/>
      <path d="M 54.890625 33.015625 
L 54.890625 0 
L 45.90625 0 
L 45.90625 32.71875 
Q 45.90625 40.484375 42.875 44.328125 
Q 39.84375 48.1875 33.796875 48.1875 
Q 26.515625 48.1875 22.3125 43.546875 
Q 18.109375 38.921875 18.109375 30.90625 
L 18.109375 0 
L 9.078125 0 
L 9.078125 54.6875 
L 18.109375 54.6875 
L 18.109375 46.1875 
Q 21.34375 51.125 25.703125 53.5625 
Q 30.078125 56 35.796875 56 
Q 45.21875 56 50.046875 50.171875 
Q 54.890625 44.34375 54.890625 33.015625 
z
" id="DejaVuSans-110"/>
      <path d="M 45.40625 27.984375 
Q 45.40625 37.75 41.375 43.109375 
Q 37.359375 48.484375 30.078125 48.484375 
Q 22.859375 48.484375 18.828125 43.109375 
Q 14.796875 37.75 14.796875 27.984375 
Q 14.796875 18.265625 18.828125 12.890625 
Q 22.859375 7.515625 30.078125 7.515625 
Q 37.359375 7.515625 41.375 12.890625 
Q 45.40625 18.265625 45.40625 27.984375 
z
M 54.390625 6.78125 
Q 54.390625 -7.171875 48.1875 -13.984375 
Q 42 -20.796875 29.203125 -20.796875 
Q 24.46875 -20.796875 20.265625 -20.09375 
Q 16.0625 -19.390625 12.109375 -17.921875 
L 12.109375 -9.1875 
Q 16.0625 -11.328125 19.921875 -12.34375 
Q 23.78125 -13.375 27.78125 -13.375 
Q 36.625 -13.375 41.015625 -8.765625 
Q 45.40625 -4.15625 45.40625 5.171875 
L 45.40625 9.625 
Q 42.625 4.78125 38.28125 2.390625 
Q 33.9375 0 27.875 0 
Q 17.828125 0 11.671875 7.65625 
Q 5.515625 15.328125 5.515625 27.984375 
Q 5.515625 40.671875 11.671875 48.328125 
Q 17.828125 56 27.875 56 
Q 33.9375 56 38.28125 53.609375 
Q 42.625 51.21875 45.40625 46.390625 
L 45.40625 54.6875 
L 54.390625 54.6875 
z
" id="DejaVuSans-103"/>
      <path d="M 9.8125 72.90625 
L 55.90625 72.90625 
L 55.90625 64.59375 
L 19.671875 64.59375 
L 19.671875 43.015625 
L 54.390625 43.015625 
L 54.390625 34.71875 
L 19.671875 34.71875 
L 19.671875 8.296875 
L 56.78125 8.296875 
L 56.78125 0 
L 9.8125 0 
z
" id="DejaVuSans-69"/>
      <path d="M 30.609375 48.390625 
Q 23.390625 48.390625 19.1875 42.75 
Q 14.984375 37.109375 14.984375 27.296875 
Q 14.984375 17.484375 19.15625 11.84375 
Q 23.34375 6.203125 30.609375 6.203125 
Q 37.796875 6.203125 41.984375 11.859375 
Q 46.1875 17.53125 46.1875 27.296875 
Q 46.1875 37.015625 41.984375 42.703125 
Q 37.796875 48.390625 30.609375 48.390625 
z
M 30.609375 56 
Q 42.328125 56 49.015625 48.375 
Q 55.71875 40.765625 55.71875 27.296875 
Q 55.71875 13.875 49.015625 6.21875 
Q 42.328125 -1.421875 30.609375 -1.421875 
Q 18.84375 -1.421875 12.171875 6.21875 
Q 5.515625 13.875 5.515625 27.296875 
Q 5.515625 40.765625 12.171875 48.375 
Q 18.84375 56 30.609375 56 
z
" id="DejaVuSans-111"/>
     </defs>
     <g transform="translate(21.020312 229.599875)rotate(-90)scale(0.1 -0.1)">
      <use xlink:href="#DejaVuSans-70"/>
      <use x="57.441406" xlink:href="#DejaVuSans-101"/>
      <use x="118.964844" xlink:href="#DejaVuSans-97"/>
      <use x="180.244141" xlink:href="#DejaVuSans-116"/>
      <use x="219.453125" xlink:href="#DejaVuSans-117"/>
      <use x="282.832031" xlink:href="#DejaVuSans-114"/>
      <use x="323.914062" xlink:href="#DejaVuSans-101"/>
      <use x="385.4375" xlink:href="#DejaVuSans-32"/>
      <use x="417.224609" xlink:href="#DejaVuSans-77"/>
      <use x="503.503906" xlink:href="#DejaVuSans-97"/>
      <use x="564.783203" xlink:href="#DejaVuSans-116"/>
      <use x="603.992188" xlink:href="#DejaVuSans-104"/>
      <use x="667.371094" xlink:href="#DejaVuSans-105"/>
      <use x="695.154297" xlink:href="#DejaVuSans-110"/>
      <use x="758.533203" xlink:href="#DejaVuSans-103"/>
      <use x="822.009766" xlink:href="#DejaVuSans-32"/>
      <use x="853.796875" xlink:href="#DejaVuSans-69"/>
      <use x="916.980469" xlink:href="#DejaVuSans-114"/>
      <use x="958.078125" xlink:href="#DejaVuSans-114"/>
      <use x="999.160156" xlink:href="#DejaVuSans-111"/>
      <use x="1060.341797" xlink:href="#DejaVuSans-114"/>
     </g>
    </g>
   </g>
   <g id="line2d_57">
    <path clip-path="url(#pc99fe25c9f)" d="M 77.106954 184.398917 
L 83.665736 197.787321 
L 90.224518 193.085293 
L 96.7833 186.125578 
L 103.342082 177.068178 
L 109.900864 168.980051 
L 116.459646 165.332694 
L 123.018428 164.97282 
L 129.57721 162.057836 
L 136.135992 160.350358 
L 142.694774 158.282751 
L 149.253556 155.773901 
L 155.812338 153.430914 
L 162.37112 150.478721 
L 168.929902 147.795978 
L 175.488684 147.137931 
L 182.047466 146.107412 
L 188.606248 145.133254 
L 195.16503 144.06032 
L 201.723812 141.897813 
L 208.282594 140.368641 
L 214.841376 139.90285 
L 221.400158 138.731397 
L 227.95894 136.841742 
L 234.517722 134.973244 
L 241.076504 132.588876 
L 247.635286 130.694154 
L 254.194068 129.652453 
L 260.75285 129.870093 
L 267.311632 128.727918 
L 273.870414 128.449718 
L 280.429196 127.211175 
L 286.987978 126.841769 
L 293.54676 126.265735 
L 300.105542 125.697187 
L 306.664324 124.036124 
L 313.223107 123.41455 
L 319.781889 123.318131 
L 326.340671 123.16332 
L 332.899453 122.562132 
L 339.458235 121.753557 
L 346.017017 120.851251 
L 352.575799 120.479591 
L 359.134581 120.637377 
L 365.693363 121.327972 
L 372.252145 122.324417 
L 378.810927 122.57083 
L 385.369709 122.881193 
L 391.928491 122.752344 
L 398.487273 122.208716 
" style="fill:none;stroke:#aec7e8;stroke-linecap:square;stroke-width:1.5;"/>
   </g>
   <g id="line2d_58">
    <path clip-path="url(#pc99fe25c9f)" d="M 75.947499 346.6 
L 84.161518 197.950656 
L 94.490308 184.21498 
L 104.819099 177.306746 
L 115.14789 166.672955 
L 125.47668 164.831802 
L 135.805471 160.642521 
L 146.134261 157.175965 
L 156.463052 153.186467 
L 166.791842 148.663997 
L 177.120633 146.626677 
L 187.449424 144.940595 
L 197.778214 143.480903 
L 208.107005 139.423432 
L 218.435795 138.7043 
L 228.764586 136.424678 
L 239.093377 132.317751 
L 249.422167 129.30957 
L 259.750958 128.186951 
L 270.079748 127.669652 
L 280.408539 126.445182 
L 290.737329 125.463958 
L 301.06612 124.014785 
L 311.394911 122.249013 
L 321.723701 122.167072 
L 332.052492 121.920738 
L 342.381282 120.809177 
L 352.710073 119.183839 
L 363.038863 119.689993 
L 373.367654 121.016799 
L 383.696445 120.888851 
L 394.025235 121.265703 
" style="fill:none;stroke:#1f77b4;stroke-linecap:square;stroke-width:1.5;"/>
   </g>
   <g id="line2d_59">
    <path clip-path="url(#pc99fe25c9f)" d="M 77.106954 183.198005 
L 83.665736 217.161402 
L 90.224518 214.114241 
L 96.7833 187.933101 
L 103.342082 172.387706 
L 109.900864 172.184349 
L 116.459646 173.716129 
L 123.018428 176.001079 
L 129.57721 174.554449 
L 136.135992 174.278051 
L 142.694774 171.412291 
L 149.253556 170.228759 
L 155.812338 167.261998 
L 162.37112 162.754803 
L 168.929902 160.056955 
L 175.488684 158.479086 
L 182.047466 157.431174 
L 188.606248 156.284608 
L 195.16503 154.914599 
L 201.723812 153.673444 
L 208.282594 152.558068 
L 214.841376 151.77821 
L 221.400158 150.856115 
L 227.95894 150.126524 
L 234.517722 149.655807 
L 241.076504 149.326678 
L 247.635286 149.920234 
L 254.194068 150.101819 
L 260.75285 150.885782 
L 267.311632 150.809311 
L 273.870414 150.579236 
L 280.429196 151.470369 
L 286.987978 151.047555 
L 293.54676 150.756929 
L 300.105542 151.339497 
L 306.664324 150.144488 
L 313.223107 151.126895 
L 319.781889 151.311803 
L 326.340671 151.049425 
L 332.899453 151.114139 
L 339.458235 150.783341 
L 346.017017 150.217516 
L 352.575799 150.408376 
L 359.134581 149.775645 
L 365.693363 148.692485 
L 372.252145 149.094058 
L 378.810927 149.097996 
L 385.369709 148.701923 
L 391.928491 147.990171 
L 398.487273 147.591521 
" style="fill:none;stroke:#ffbb78;stroke-linecap:square;stroke-width:1.5;"/>
   </g>
   <g id="line2d_60">
    <path clip-path="url(#pc99fe25c9f)" d="M 75.738301 346.6 
L 84.161518 225.764594 
L 94.490308 200.993198 
L 104.819099 169.926937 
L 115.14789 172.460667 
L 125.47668 173.14426 
L 135.805471 174.177684 
L 146.134261 171.656187 
L 156.463052 165.112414 
L 166.791842 159.639386 
L 177.120633 156.493192 
L 187.449424 154.766483 
L 197.778214 151.75382 
L 208.107005 152.578966 
L 218.435795 150.897033 
L 228.764586 149.426218 
L 239.093377 148.398314 
L 249.422167 149.387208 
L 259.750958 146.954014 
L 270.079748 151.323832 
L 280.408539 150.977332 
L 290.737329 149.57659 
L 301.06612 148.253126 
L 311.394911 150.507149 
L 321.723701 149.492819 
L 332.052492 148.012482 
L 342.381282 146.984918 
L 352.710073 148.330455 
L 363.038863 145.84919 
L 373.367654 145.573103 
L 383.696445 145.950211 
L 394.025235 142.674231 
" style="fill:none;stroke:#ff7f0e;stroke-linecap:square;stroke-width:1.5;"/>
   </g>
   <g id="line2d_61">
    <path clip-path="url(#pc99fe25c9f)" d="M 77.106954 170.69472 
L 83.665736 204.279494 
L 90.224518 197.17524 
L 96.7833 180.322581 
L 103.342082 173.59381 
L 109.900864 176.921344 
L 116.459646 177.285533 
L 123.018428 178.643289 
L 129.57721 179.094395 
L 136.135992 177.969952 
L 142.694774 176.337381 
L 149.253556 175.241179 
L 155.812338 171.228491 
L 162.37112 167.384622 
L 168.929902 163.56809 
L 175.488684 160.777607 
L 182.047466 158.563267 
L 188.606248 157.023442 
L 195.16503 155.65185 
L 201.723812 155.003507 
L 208.282594 154.000588 
L 214.841376 153.047257 
L 221.400158 151.542605 
L 227.95894 149.940259 
L 234.517722 148.412368 
L 241.076504 146.909572 
L 247.635286 145.37368 
L 254.194068 144.791052 
L 260.75285 143.499588 
L 267.311632 143.174887 
L 273.870414 143.421802 
L 280.429196 143.671181 
L 286.987978 144.004194 
L 293.54676 145.149809 
L 300.105542 145.303842 
L 306.664324 145.780185 
L 313.223107 146.965725 
L 319.781889 147.304498 
L 326.340671 147.428107 
L 332.899453 146.983464 
L 339.458235 146.909472 
L 346.017017 146.516294 
L 352.575799 146.468177 
L 359.134581 146.672131 
L 365.693363 145.915849 
L 372.252145 146.443396 
L 378.810927 146.668323 
L 385.369709 145.939674 
L 391.928491 146.040791 
L 398.487273 145.763251 
" style="fill:none;stroke:#98df8a;stroke-linecap:square;stroke-width:1.5;"/>
   </g>
   <g id="line2d_62">
    <path clip-path="url(#pc99fe25c9f)" d="M 76.234259 346.6 
L 84.161518 214.892291 
L 94.490308 183.066226 
L 104.819099 174.131721 
L 115.14789 176.141856 
L 125.47668 178.316643 
L 135.805471 177.109236 
L 146.134261 175.068814 
L 156.463052 170.34371 
L 166.791842 163.69791 
L 177.120633 159.460623 
L 187.449424 156.138725 
L 197.778214 153.67679 
L 208.107005 152.110123 
L 218.435795 149.915472 
L 228.764586 147.317247 
L 239.093377 144.975081 
L 249.422167 143.738767 
L 259.750958 141.059076 
L 270.079748 140.688984 
L 280.408539 141.733655 
L 290.737329 142.629579 
L 301.06612 142.906723 
L 311.394911 143.154642 
L 321.723701 144.707026 
L 332.052492 143.728415 
L 342.381282 143.545376 
L 352.710073 142.015136 
L 363.038863 142.699758 
L 373.367654 142.880935 
L 383.696445 143.276927 
L 394.025235 143.084403 
" style="fill:none;stroke:#2ca02c;stroke-linecap:square;stroke-width:1.5;"/>
   </g>
   <g id="line2d_63">
    <path clip-path="url(#pc99fe25c9f)" d="M 77.106954 176.400473 
L 83.665736 198.749689 
L 90.224518 200.890683 
L 96.7833 192.159968 
L 103.342082 182.402543 
L 109.900864 176.45578 
L 116.459646 171.574802 
L 123.018428 169.398129 
L 129.57721 166.983998 
L 136.135992 165.161666 
L 142.694774 160.263731 
L 149.253556 157.432906 
L 155.812338 157.230442 
L 162.37112 157.543809 
L 168.929902 155.760332 
L 175.488684 153.870046 
L 182.047466 152.33926 
L 188.606248 150.866348 
L 195.16503 149.416859 
L 201.723812 148.402576 
L 208.282594 147.267817 
L 214.841376 146.520285 
L 221.400158 145.809122 
L 227.95894 145.133944 
L 234.517722 145.025664 
L 241.076504 144.629131 
L 247.635286 142.842388 
L 254.194068 141.945354 
L 260.75285 140.75971 
L 267.311632 139.523268 
L 273.870414 139.307284 
L 280.429196 138.937476 
L 286.987978 139.323662 
L 293.54676 139.372859 
L 300.105542 139.532059 
L 306.664324 139.879293 
L 313.223107 140.318705 
L 319.781889 140.480884 
L 326.340671 140.855356 
L 332.899453 140.900957 
L 339.458235 141.215422 
L 346.017017 140.564386 
L 352.575799 140.776631 
L 359.134581 139.85698 
L 365.693363 139.983243 
L 372.252145 139.690873 
L 378.810927 139.485634 
L 385.369709 139.138435 
L 391.928491 138.717055 
L 398.487273 138.167222 
" style="fill:none;stroke:#ff9896;stroke-linecap:square;stroke-width:1.5;"/>
   </g>
   <g id="line2d_64">
    <path clip-path="url(#pc99fe25c9f)" d="M 76.32699 346.6 
L 84.161518 212.790328 
L 94.490308 204.089104 
L 104.819099 183.168828 
L 115.14789 173.813079 
L 125.47668 170.345404 
L 135.805471 167.543905 
L 146.134261 157.141804 
L 156.463052 157.706153 
L 166.791842 155.194345 
L 177.120633 152.816936 
L 187.449424 149.627983 
L 197.778214 147.373132 
L 208.107005 145.776742 
L 218.435795 144.122202 
L 228.764586 143.799709 
L 239.093377 143.64764 
L 249.422167 140.092176 
L 259.750958 138.638385 
L 270.079748 136.589389 
L 280.408539 135.060071 
L 290.737329 135.991947 
L 301.06612 136.137607 
L 311.394911 137.324207 
L 321.723701 138.238915 
L 332.052492 138.428643 
L 342.381282 139.230781 
L 352.710073 136.229853 
L 363.038863 136.347113 
L 373.367654 135.853298 
L 383.696445 136.186403 
L 394.025235 135.296053 
" style="fill:none;stroke:#d62728;stroke-linecap:square;stroke-width:1.5;"/>
   </g>
   <g id="patch_3">
    <path d="M 57.6 307.584 
L 57.6 41.472 
" style="fill:none;stroke:#000000;stroke-linecap:square;stroke-linejoin:miter;stroke-width:0.8;"/>
   </g>
   <g id="patch_4">
    <path d="M 414.72 307.584 
L 414.72 41.472 
" style="fill:none;stroke:#000000;stroke-linecap:square;stroke-linejoin:miter;stroke-width:0.8;"/>
   </g>
   <g id="patch_5">
    <path d="M 57.6 307.584 
L 414.72 307.584 
" style="fill:none;stroke:#000000;stroke-linecap:square;stroke-linejoin:miter;stroke-width:0.8;"/>
   </g>
   <g id="patch_6">
    <path d="M 57.6 41.472 
L 414.72 41.472 
" style="fill:none;stroke:#000000;stroke-linecap:square;stroke-linejoin:miter;stroke-width:0.8;"/>
   </g>
   <g id="text_15">
    <!-- Feature Matching Error -->
    <defs>
     <path d="M 48.78125 52.59375 
L 48.78125 44.1875 
Q 44.96875 46.296875 41.140625 47.34375 
Q 37.3125 48.390625 33.40625 48.390625 
Q 24.65625 48.390625 19.8125 42.84375 
Q 14.984375 37.3125 14.984375 27.296875 
Q 14.984375 17.28125 19.8125 11.734375 
Q 24.65625 6.203125 33.40625 6.203125 
Q 37.3125 6.203125 41.140625 7.25 
Q 44.96875 8.296875 48.78125 10.40625 
L 48.78125 2.09375 
Q 45.015625 0.34375 40.984375 -0.53125 
Q 36.96875 -1.421875 32.421875 -1.421875 
Q 20.0625 -1.421875 12.78125 6.34375 
Q 5.515625 14.109375 5.515625 27.296875 
Q 5.515625 40.671875 12.859375 48.328125 
Q 20.21875 56 33.015625 56 
Q 37.15625 56 41.109375 55.140625 
Q 45.0625 54.296875 48.78125 52.59375 
z
" id="DejaVuSans-99"/>
    </defs>
    <g transform="translate(166.774687 35.472)scale(0.12 -0.12)">
     <use xlink:href="#DejaVuSans-70"/>
     <use x="57.441406" xlink:href="#DejaVuSans-101"/>
     <use x="118.964844" xlink:href="#DejaVuSans-97"/>
     <use x="180.244141" xlink:href="#DejaVuSans-116"/>
     <use x="219.453125" xlink:href="#DejaVuSans-117"/>
     <use x="282.832031" xlink:href="#DejaVuSans-114"/>
     <use x="323.914062" xlink:href="#DejaVuSans-101"/>
     <use x="385.4375" xlink:href="#DejaVuSans-32"/>
     <use x="417.224609" xlink:href="#DejaVuSans-77"/>
     <use x="503.503906" xlink:href="#DejaVuSans-97"/>
     <use x="564.783203" xlink:href="#DejaVuSans-116"/>
     <use x="603.992188" xlink:href="#DejaVuSans-99"/>
     <use x="658.972656" xlink:href="#DejaVuSans-104"/>
     <use x="722.351562" xlink:href="#DejaVuSans-105"/>
     <use x="750.134766" xlink:href="#DejaVuSans-110"/>
     <use x="813.513672" xlink:href="#DejaVuSans-103"/>
     <use x="876.990234" xlink:href="#DejaVuSans-32"/>
     <use x="908.777344" xlink:href="#DejaVuSans-69"/>
     <use x="971.960938" xlink:href="#DejaVuSans-114"/>
     <use x="1013.058594" xlink:href="#DejaVuSans-114"/>
     <use x="1054.140625" xlink:href="#DejaVuSans-111"/>
     <use x="1115.322266" xlink:href="#DejaVuSans-114"/>
    </g>
   </g>
   <g id="legend_1">
    <g id="patch_7">
     <path d="M 252.812187 302.584 
L 407.72 302.584 
Q 409.72 302.584 409.72 300.584 
L 409.72 184.159 
Q 409.72 182.159 407.72 182.159 
L 252.812187 182.159 
Q 250.812187 182.159 250.812187 184.159 
L 250.812187 300.584 
Q 250.812187 302.584 252.812187 302.584 
z
" style="fill:#ffffff;opacity:0.8;stroke:#cccccc;stroke-linejoin:miter;"/>
    </g>
    <g id="line2d_65">
     <path d="M 254.812187 190.257437 
L 274.812187 190.257437 
" style="fill:none;stroke:#aec7e8;stroke-linecap:square;stroke-width:1.5;"/>
    </g>
    <g id="line2d_66"/>
    <g id="text_16">
     <!-- Single Point KLD -->
     <defs>
      <path d="M 9.421875 75.984375 
L 18.40625 75.984375 
L 18.40625 0 
L 9.421875 0 
z
" id="DejaVuSans-108"/>
      <path d="M 19.671875 64.796875 
L 19.671875 37.40625 
L 32.078125 37.40625 
Q 38.96875 37.40625 42.71875 40.96875 
Q 46.484375 44.53125 46.484375 51.125 
Q 46.484375 57.671875 42.71875 61.234375 
Q 38.96875 64.796875 32.078125 64.796875 
z
M 9.8125 72.90625 
L 32.078125 72.90625 
Q 44.34375 72.90625 50.609375 67.359375 
Q 56.890625 61.8125 56.890625 51.125 
Q 56.890625 40.328125 50.609375 34.8125 
Q 44.34375 29.296875 32.078125 29.296875 
L 19.671875 29.296875 
L 19.671875 0 
L 9.8125 0 
z
" id="DejaVuSans-80"/>
      <path d="M 9.8125 72.90625 
L 19.671875 72.90625 
L 19.671875 42.09375 
L 52.390625 72.90625 
L 65.09375 72.90625 
L 28.90625 38.921875 
L 67.671875 0 
L 54.6875 0 
L 19.671875 35.109375 
L 19.671875 0 
L 9.8125 0 
z
" id="DejaVuSans-75"/>
      <path d="M 9.8125 72.90625 
L 19.671875 72.90625 
L 19.671875 8.296875 
L 55.171875 8.296875 
L 55.171875 0 
L 9.8125 0 
z
" id="DejaVuSans-76"/>
      <path d="M 19.671875 64.796875 
L 19.671875 8.109375 
L 31.59375 8.109375 
Q 46.6875 8.109375 53.6875 14.9375 
Q 60.6875 21.78125 60.6875 36.53125 
Q 60.6875 51.171875 53.6875 57.984375 
Q 46.6875 64.796875 31.59375 64.796875 
z
M 9.8125 72.90625 
L 30.078125 72.90625 
Q 51.265625 72.90625 61.171875 64.09375 
Q 71.09375 55.28125 71.09375 36.53125 
Q 71.09375 17.671875 61.125 8.828125 
Q 51.171875 0 30.078125 0 
L 9.8125 0 
z
" id="DejaVuSans-68"/>
     </defs>
     <g transform="translate(282.812187 193.757437)scale(0.1 -0.1)">
      <use xlink:href="#DejaVuSans-83"/>
      <use x="63.476562" xlink:href="#DejaVuSans-105"/>
      <use x="91.259766" xlink:href="#DejaVuSans-110"/>
      <use x="154.638672" xlink:href="#DejaVuSans-103"/>
      <use x="218.115234" xlink:href="#DejaVuSans-108"/>
      <use x="245.898438" xlink:href="#DejaVuSans-101"/>
      <use x="307.421875" xlink:href="#DejaVuSans-32"/>
      <use x="339.208984" xlink:href="#DejaVuSans-80"/>
      <use x="399.464844" xlink:href="#DejaVuSans-111"/>
      <use x="460.646484" xlink:href="#DejaVuSans-105"/>
      <use x="488.429688" xlink:href="#DejaVuSans-110"/>
      <use x="551.808594" xlink:href="#DejaVuSans-116"/>
      <use x="591.017578" xlink:href="#DejaVuSans-32"/>
      <use x="622.804688" xlink:href="#DejaVuSans-75"/>
      <use x="688.380859" xlink:href="#DejaVuSans-76"/>
      <use x="744.09375" xlink:href="#DejaVuSans-68"/>
     </g>
    </g>
    <g id="line2d_67">
     <path d="M 254.812187 204.935563 
L 274.812187 204.935563 
" style="fill:none;stroke:#1f77b4;stroke-linecap:square;stroke-width:1.5;"/>
    </g>
    <g id="line2d_68"/>
    <g id="text_17">
     <!-- Single Point KLD -->
     <g transform="translate(282.812187 208.435563)scale(0.1 -0.1)">
      <use xlink:href="#DejaVuSans-83"/>
      <use x="63.476562" xlink:href="#DejaVuSans-105"/>
      <use x="91.259766" xlink:href="#DejaVuSans-110"/>
      <use x="154.638672" xlink:href="#DejaVuSans-103"/>
      <use x="218.115234" xlink:href="#DejaVuSans-108"/>
      <use x="245.898438" xlink:href="#DejaVuSans-101"/>
      <use x="307.421875" xlink:href="#DejaVuSans-32"/>
      <use x="339.208984" xlink:href="#DejaVuSans-80"/>
      <use x="399.464844" xlink:href="#DejaVuSans-111"/>
      <use x="460.646484" xlink:href="#DejaVuSans-105"/>
      <use x="488.429688" xlink:href="#DejaVuSans-110"/>
      <use x="551.808594" xlink:href="#DejaVuSans-116"/>
      <use x="591.017578" xlink:href="#DejaVuSans-32"/>
      <use x="622.804688" xlink:href="#DejaVuSans-75"/>
      <use x="688.380859" xlink:href="#DejaVuSans-76"/>
      <use x="744.09375" xlink:href="#DejaVuSans-68"/>
     </g>
    </g>
    <g id="line2d_69">
     <path d="M 254.812187 219.613687 
L 274.812187 219.613687 
" style="fill:none;stroke:#ffbb78;stroke-linecap:square;stroke-width:1.5;"/>
    </g>
    <g id="line2d_70"/>
    <g id="text_18">
     <!-- Batch: Momentum = 0.0 -->
     <defs>
      <path d="M 19.671875 34.8125 
L 19.671875 8.109375 
L 35.5 8.109375 
Q 43.453125 8.109375 47.28125 11.40625 
Q 51.125 14.703125 51.125 21.484375 
Q 51.125 28.328125 47.28125 31.5625 
Q 43.453125 34.8125 35.5 34.8125 
z
M 19.671875 64.796875 
L 19.671875 42.828125 
L 34.28125 42.828125 
Q 41.5 42.828125 45.03125 45.53125 
Q 48.578125 48.25 48.578125 53.8125 
Q 48.578125 59.328125 45.03125 62.0625 
Q 41.5 64.796875 34.28125 64.796875 
z
M 9.8125 72.90625 
L 35.015625 72.90625 
Q 46.296875 72.90625 52.390625 68.21875 
Q 58.5 63.53125 58.5 54.890625 
Q 58.5 48.1875 55.375 44.234375 
Q 52.25 40.28125 46.1875 39.3125 
Q 53.46875 37.75 57.5 32.78125 
Q 61.53125 27.828125 61.53125 20.40625 
Q 61.53125 10.640625 54.890625 5.3125 
Q 48.25 0 35.984375 0 
L 9.8125 0 
z
" id="DejaVuSans-66"/>
      <path d="M 11.71875 12.40625 
L 22.015625 12.40625 
L 22.015625 0 
L 11.71875 0 
z
M 11.71875 51.703125 
L 22.015625 51.703125 
L 22.015625 39.3125 
L 11.71875 39.3125 
z
" id="DejaVuSans-58"/>
      <path d="M 52 44.1875 
Q 55.375 50.25 60.0625 53.125 
Q 64.75 56 71.09375 56 
Q 79.640625 56 84.28125 50.015625 
Q 88.921875 44.046875 88.921875 33.015625 
L 88.921875 0 
L 79.890625 0 
L 79.890625 32.71875 
Q 79.890625 40.578125 77.09375 44.375 
Q 74.3125 48.1875 68.609375 48.1875 
Q 61.625 48.1875 57.5625 43.546875 
Q 53.515625 38.921875 53.515625 30.90625 
L 53.515625 0 
L 44.484375 0 
L 44.484375 32.71875 
Q 44.484375 40.625 41.703125 44.40625 
Q 38.921875 48.1875 33.109375 48.1875 
Q 26.21875 48.1875 22.15625 43.53125 
Q 18.109375 38.875 18.109375 30.90625 
L 18.109375 0 
L 9.078125 0 
L 9.078125 54.6875 
L 18.109375 54.6875 
L 18.109375 46.1875 
Q 21.1875 51.21875 25.484375 53.609375 
Q 29.78125 56 35.6875 56 
Q 41.65625 56 45.828125 52.96875 
Q 50 49.953125 52 44.1875 
z
" id="DejaVuSans-109"/>
      <path d="M 10.59375 45.40625 
L 73.1875 45.40625 
L 73.1875 37.203125 
L 10.59375 37.203125 
z
M 10.59375 25.484375 
L 73.1875 25.484375 
L 73.1875 17.1875 
L 10.59375 17.1875 
z
" id="DejaVuSans-61"/>
      <path d="M 10.6875 12.40625 
L 21 12.40625 
L 21 0 
L 10.6875 0 
z
" id="DejaVuSans-46"/>
     </defs>
     <g transform="translate(282.812187 223.113687)scale(0.1 -0.1)">
      <use xlink:href="#DejaVuSans-66"/>
      <use x="68.603516" xlink:href="#DejaVuSans-97"/>
      <use x="129.882812" xlink:href="#DejaVuSans-116"/>
      <use x="169.091797" xlink:href="#DejaVuSans-99"/>
      <use x="224.072266" xlink:href="#DejaVuSans-104"/>
      <use x="287.451172" xlink:href="#DejaVuSans-58"/>
      <use x="321.142578" xlink:href="#DejaVuSans-32"/>
      <use x="352.929688" xlink:href="#DejaVuSans-77"/>
      <use x="439.208984" xlink:href="#DejaVuSans-111"/>
      <use x="500.390625" xlink:href="#DejaVuSans-109"/>
      <use x="597.802734" xlink:href="#DejaVuSans-101"/>
      <use x="659.326172" xlink:href="#DejaVuSans-110"/>
      <use x="722.705078" xlink:href="#DejaVuSans-116"/>
      <use x="761.914062" xlink:href="#DejaVuSans-117"/>
      <use x="825.292969" xlink:href="#DejaVuSans-109"/>
      <use x="922.705078" xlink:href="#DejaVuSans-32"/>
      <use x="954.492188" xlink:href="#DejaVuSans-61"/>
      <use x="1038.28125" xlink:href="#DejaVuSans-32"/>
      <use x="1070.068359" xlink:href="#DejaVuSans-48"/>
      <use x="1133.691406" xlink:href="#DejaVuSans-46"/>
      <use x="1165.478516" xlink:href="#DejaVuSans-48"/>
     </g>
    </g>
    <g id="line2d_71">
     <path d="M 254.812187 234.291812 
L 274.812187 234.291812 
" style="fill:none;stroke:#ff7f0e;stroke-linecap:square;stroke-width:1.5;"/>
    </g>
    <g id="line2d_72"/>
    <g id="text_19">
     <!-- Batch: Momentum = 0.0 -->
     <g transform="translate(282.812187 237.791812)scale(0.1 -0.1)">
      <use xlink:href="#DejaVuSans-66"/>
      <use x="68.603516" xlink:href="#DejaVuSans-97"/>
      <use x="129.882812" xlink:href="#DejaVuSans-116"/>
      <use x="169.091797" xlink:href="#DejaVuSans-99"/>
      <use x="224.072266" xlink:href="#DejaVuSans-104"/>
      <use x="287.451172" xlink:href="#DejaVuSans-58"/>
      <use x="321.142578" xlink:href="#DejaVuSans-32"/>
      <use x="352.929688" xlink:href="#DejaVuSans-77"/>
      <use x="439.208984" xlink:href="#DejaVuSans-111"/>
      <use x="500.390625" xlink:href="#DejaVuSans-109"/>
      <use x="597.802734" xlink:href="#DejaVuSans-101"/>
      <use x="659.326172" xlink:href="#DejaVuSans-110"/>
      <use x="722.705078" xlink:href="#DejaVuSans-116"/>
      <use x="761.914062" xlink:href="#DejaVuSans-117"/>
      <use x="825.292969" xlink:href="#DejaVuSans-109"/>
      <use x="922.705078" xlink:href="#DejaVuSans-32"/>
      <use x="954.492188" xlink:href="#DejaVuSans-61"/>
      <use x="1038.28125" xlink:href="#DejaVuSans-32"/>
      <use x="1070.068359" xlink:href="#DejaVuSans-48"/>
      <use x="1133.691406" xlink:href="#DejaVuSans-46"/>
      <use x="1165.478516" xlink:href="#DejaVuSans-48"/>
     </g>
    </g>
    <g id="line2d_73">
     <path d="M 254.812187 248.969937 
L 274.812187 248.969937 
" style="fill:none;stroke:#98df8a;stroke-linecap:square;stroke-width:1.5;"/>
    </g>
    <g id="line2d_74"/>
    <g id="text_20">
     <!-- Batch: Momentum = 0.1 -->
     <g transform="translate(282.812187 252.469937)scale(0.1 -0.1)">
      <use xlink:href="#DejaVuSans-66"/>
      <use x="68.603516" xlink:href="#DejaVuSans-97"/>
      <use x="129.882812" xlink:href="#DejaVuSans-116"/>
      <use x="169.091797" xlink:href="#DejaVuSans-99"/>
      <use x="224.072266" xlink:href="#DejaVuSans-104"/>
      <use x="287.451172" xlink:href="#DejaVuSans-58"/>
      <use x="321.142578" xlink:href="#DejaVuSans-32"/>
      <use x="352.929688" xlink:href="#DejaVuSans-77"/>
      <use x="439.208984" xlink:href="#DejaVuSans-111"/>
      <use x="500.390625" xlink:href="#DejaVuSans-109"/>
      <use x="597.802734" xlink:href="#DejaVuSans-101"/>
      <use x="659.326172" xlink:href="#DejaVuSans-110"/>
      <use x="722.705078" xlink:href="#DejaVuSans-116"/>
      <use x="761.914062" xlink:href="#DejaVuSans-117"/>
      <use x="825.292969" xlink:href="#DejaVuSans-109"/>
      <use x="922.705078" xlink:href="#DejaVuSans-32"/>
      <use x="954.492188" xlink:href="#DejaVuSans-61"/>
      <use x="1038.28125" xlink:href="#DejaVuSans-32"/>
      <use x="1070.068359" xlink:href="#DejaVuSans-48"/>
      <use x="1133.691406" xlink:href="#DejaVuSans-46"/>
      <use x="1165.478516" xlink:href="#DejaVuSans-49"/>
     </g>
    </g>
    <g id="line2d_75">
     <path d="M 254.812187 263.648062 
L 274.812187 263.648062 
" style="fill:none;stroke:#2ca02c;stroke-linecap:square;stroke-width:1.5;"/>
    </g>
    <g id="line2d_76"/>
    <g id="text_21">
     <!-- Batch: Momentum = 0.1 -->
     <g transform="translate(282.812187 267.148062)scale(0.1 -0.1)">
      <use xlink:href="#DejaVuSans-66"/>
      <use x="68.603516" xlink:href="#DejaVuSans-97"/>
      <use x="129.882812" xlink:href="#DejaVuSans-116"/>
      <use x="169.091797" xlink:href="#DejaVuSans-99"/>
      <use x="224.072266" xlink:href="#DejaVuSans-104"/>
      <use x="287.451172" xlink:href="#DejaVuSans-58"/>
      <use x="321.142578" xlink:href="#DejaVuSans-32"/>
      <use x="352.929688" xlink:href="#DejaVuSans-77"/>
      <use x="439.208984" xlink:href="#DejaVuSans-111"/>
      <use x="500.390625" xlink:href="#DejaVuSans-109"/>
      <use x="597.802734" xlink:href="#DejaVuSans-101"/>
      <use x="659.326172" xlink:href="#DejaVuSans-110"/>
      <use x="722.705078" xlink:href="#DejaVuSans-116"/>
      <use x="761.914062" xlink:href="#DejaVuSans-117"/>
      <use x="825.292969" xlink:href="#DejaVuSans-109"/>
      <use x="922.705078" xlink:href="#DejaVuSans-32"/>
      <use x="954.492188" xlink:href="#DejaVuSans-61"/>
      <use x="1038.28125" xlink:href="#DejaVuSans-32"/>
      <use x="1070.068359" xlink:href="#DejaVuSans-48"/>
      <use x="1133.691406" xlink:href="#DejaVuSans-46"/>
      <use x="1165.478516" xlink:href="#DejaVuSans-49"/>
     </g>
    </g>
    <g id="line2d_77">
     <path d="M 254.812187 278.326187 
L 274.812187 278.326187 
" style="fill:none;stroke:#ff9896;stroke-linecap:square;stroke-width:1.5;"/>
    </g>
    <g id="line2d_78"/>
    <g id="text_22">
     <!-- Batch: Momentum = 0.9 -->
     <defs>
      <path d="M 10.984375 1.515625 
L 10.984375 10.5 
Q 14.703125 8.734375 18.5 7.8125 
Q 22.3125 6.890625 25.984375 6.890625 
Q 35.75 6.890625 40.890625 13.453125 
Q 46.046875 20.015625 46.78125 33.40625 
Q 43.953125 29.203125 39.59375 26.953125 
Q 35.25 24.703125 29.984375 24.703125 
Q 19.046875 24.703125 12.671875 31.3125 
Q 6.296875 37.9375 6.296875 49.421875 
Q 6.296875 60.640625 12.9375 67.421875 
Q 19.578125 74.21875 30.609375 74.21875 
Q 43.265625 74.21875 49.921875 64.515625 
Q 56.59375 54.828125 56.59375 36.375 
Q 56.59375 19.140625 48.40625 8.859375 
Q 40.234375 -1.421875 26.421875 -1.421875 
Q 22.703125 -1.421875 18.890625 -0.6875 
Q 15.09375 0.046875 10.984375 1.515625 
z
M 30.609375 32.421875 
Q 37.25 32.421875 41.125 36.953125 
Q 45.015625 41.5 45.015625 49.421875 
Q 45.015625 57.28125 41.125 61.84375 
Q 37.25 66.40625 30.609375 66.40625 
Q 23.96875 66.40625 20.09375 61.84375 
Q 16.21875 57.28125 16.21875 49.421875 
Q 16.21875 41.5 20.09375 36.953125 
Q 23.96875 32.421875 30.609375 32.421875 
z
" id="DejaVuSans-57"/>
     </defs>
     <g transform="translate(282.812187 281.826187)scale(0.1 -0.1)">
      <use xlink:href="#DejaVuSans-66"/>
      <use x="68.603516" xlink:href="#DejaVuSans-97"/>
      <use x="129.882812" xlink:href="#DejaVuSans-116"/>
      <use x="169.091797" xlink:href="#DejaVuSans-99"/>
      <use x="224.072266" xlink:href="#DejaVuSans-104"/>
      <use x="287.451172" xlink:href="#DejaVuSans-58"/>
      <use x="321.142578" xlink:href="#DejaVuSans-32"/>
      <use x="352.929688" xlink:href="#DejaVuSans-77"/>
      <use x="439.208984" xlink:href="#DejaVuSans-111"/>
      <use x="500.390625" xlink:href="#DejaVuSans-109"/>
      <use x="597.802734" xlink:href="#DejaVuSans-101"/>
      <use x="659.326172" xlink:href="#DejaVuSans-110"/>
      <use x="722.705078" xlink:href="#DejaVuSans-116"/>
      <use x="761.914062" xlink:href="#DejaVuSans-117"/>
      <use x="825.292969" xlink:href="#DejaVuSans-109"/>
      <use x="922.705078" xlink:href="#DejaVuSans-32"/>
      <use x="954.492188" xlink:href="#DejaVuSans-61"/>
      <use x="1038.28125" xlink:href="#DejaVuSans-32"/>
      <use x="1070.068359" xlink:href="#DejaVuSans-48"/>
      <use x="1133.691406" xlink:href="#DejaVuSans-46"/>
      <use x="1165.478516" xlink:href="#DejaVuSans-57"/>
     </g>
    </g>
    <g id="line2d_79">
     <path d="M 254.812187 293.004312 
L 274.812187 293.004312 
" style="fill:none;stroke:#d62728;stroke-linecap:square;stroke-width:1.5;"/>
    </g>
    <g id="line2d_80"/>
    <g id="text_23">
     <!-- Batch: Momentum = 0.9 -->
     <g transform="translate(282.812187 296.504312)scale(0.1 -0.1)">
      <use xlink:href="#DejaVuSans-66"/>
      <use x="68.603516" xlink:href="#DejaVuSans-97"/>
      <use x="129.882812" xlink:href="#DejaVuSans-116"/>
      <use x="169.091797" xlink:href="#DejaVuSans-99"/>
      <use x="224.072266" xlink:href="#DejaVuSans-104"/>
      <use x="287.451172" xlink:href="#DejaVuSans-58"/>
      <use x="321.142578" xlink:href="#DejaVuSans-32"/>
      <use x="352.929688" xlink:href="#DejaVuSans-77"/>
      <use x="439.208984" xlink:href="#DejaVuSans-111"/>
      <use x="500.390625" xlink:href="#DejaVuSans-109"/>
      <use x="597.802734" xlink:href="#DejaVuSans-101"/>
      <use x="659.326172" xlink:href="#DejaVuSans-110"/>
      <use x="722.705078" xlink:href="#DejaVuSans-116"/>
      <use x="761.914062" xlink:href="#DejaVuSans-117"/>
      <use x="825.292969" xlink:href="#DejaVuSans-109"/>
      <use x="922.705078" xlink:href="#DejaVuSans-32"/>
      <use x="954.492188" xlink:href="#DejaVuSans-61"/>
      <use x="1038.28125" xlink:href="#DejaVuSans-32"/>
      <use x="1070.068359" xlink:href="#DejaVuSans-48"/>
      <use x="1133.691406" xlink:href="#DejaVuSans-46"/>
      <use x="1165.478516" xlink:href="#DejaVuSans-57"/>
     </g>
    </g>
   </g>
  </g>
 </g>
 <defs>
  <clipPath id="pc99fe25c9f">
   <rect height="266.112" width="357.12" x="57.6" y="41.472"/>
  </clipPath>
 </defs>
</svg>
