<?xml version="1.0" encoding="utf-8" standalone="no"?>
<!DOCTYPE svg PUBLIC "-//W3C//DTD SVG 1.1//EN"
  "http://www.w3.org/Graphics/SVG/1.1/DTD/svg11.dtd">
<!-- Created with matplotlib (https://matplotlib.org/) -->
<svg height="345.6pt" version="1.1" viewBox="0 0 460.8 345.6" width="460.8pt" xmlns="http://www.w3.org/2000/svg" xmlns:xlink="http://www.w3.org/1999/xlink">
 <defs>
  <style type="text/css">
*{stroke-linecap:butt;stroke-linejoin:round;white-space:pre;}
  </style>
 </defs>
 <g id="figure_1">
  <g id="patch_1">
   <path d="M 0 345.6 
L 460.8 345.6 
L 460.8 0 
L 0 0 
z
" style="fill:#ffffff;"/>
  </g>
  <g id="axes_1">
   <g id="patch_2">
    <path d="M 57.6 307.584 
L 414.72 307.584 
L 414.72 41.472 
L 57.6 41.472 
z
" style="fill:#ffffff;"/>
   </g>
   <g id="PolyCollection_1">
    <defs>
     <path d="M 77.106954 -288.671728 
L 77.106954 -152.869211 
L 83.665736 -238.42262 
L 90.224518 -236.497709 
L 96.7833 -235.198302 
L 103.342082 -234.026709 
L 109.900864 -237.286158 
L 116.459646 -242.235581 
L 123.018428 -238.846577 
L 129.57721 -239.415494 
L 136.135992 -239.333191 
L 142.694774 -239.277041 
L 149.253556 -239.823572 
L 155.812338 -239.618922 
L 162.37112 -240.345778 
L 168.929902 -242.846999 
L 175.488684 -241.465249 
L 182.047466 -242.209168 
L 188.606248 -242.385184 
L 195.16503 -241.432928 
L 201.723812 -243.460756 
L 208.282594 -244.58279 
L 214.841376 -244.425158 
L 221.400158 -242.304877 
L 227.95894 -244.915036 
L 234.517722 -246.028469 
L 241.076504 -245.89524 
L 247.635286 -247.822828 
L 254.194068 -248.517279 
L 260.75285 -248.485832 
L 267.311632 -247.2105 
L 273.870414 -247.371274 
L 280.429196 -246.861854 
L 286.987978 -247.54062 
L 293.54676 -247.323993 
L 300.105542 -246.944129 
L 306.664324 -247.335598 
L 313.223107 -247.780335 
L 319.781889 -247.157638 
L 326.340671 -246.487246 
L 332.899453 -246.408183 
L 339.458235 -246.365176 
L 346.017017 -243.390461 
L 352.575799 -244.908043 
L 359.134581 -245.32389 
L 365.693363 -243.857899 
L 372.252145 -243.546458 
L 378.810927 -242.960348 
L 385.369709 -242.059277 
L 391.928491 -241.182551 
L 398.487273 -242.523352 
L 398.487273 -250.598053 
L 398.487273 -250.598053 
L 391.928491 -248.933273 
L 385.369709 -249.642114 
L 378.810927 -251.061613 
L 372.252145 -251.477044 
L 365.693363 -252.387659 
L 359.134581 -252.424833 
L 352.575799 -252.33426 
L 346.017017 -255.545103 
L 339.458235 -255.803403 
L 332.899453 -253.744741 
L 326.340671 -254.571855 
L 319.781889 -254.822109 
L 313.223107 -255.383765 
L 306.664324 -255.843004 
L 300.105542 -255.115724 
L 293.54676 -256.188016 
L 286.987978 -256.331361 
L 280.429196 -256.541453 
L 273.870414 -257.184715 
L 267.311632 -257.311534 
L 260.75285 -258.316371 
L 254.194068 -257.802403 
L 247.635286 -257.291155 
L 241.076504 -255.848505 
L 234.517722 -254.711173 
L 227.95894 -255.872262 
L 221.400158 -252.860291 
L 214.841376 -253.603063 
L 208.282594 -253.935447 
L 201.723812 -255.925887 
L 195.16503 -252.11305 
L 188.606248 -252.110299 
L 182.047466 -253.34051 
L 175.488684 -253.777022 
L 168.929902 -253.02217 
L 162.37112 -251.182058 
L 155.812338 -253.093424 
L 149.253556 -250.472427 
L 142.694774 -250.51495 
L 136.135992 -249.944815 
L 129.57721 -251.239961 
L 123.018428 -257.833966 
L 116.459646 -256.12854 
L 109.900864 -260.152358 
L 103.342082 -261.048211 
L 96.7833 -257.665976 
L 90.224518 -257.77684 
L 83.665736 -261.171621 
L 77.106954 -288.671728 
z
" id="me0acf90b5b" style="stroke:#aec7e8;stroke-opacity:0.25;"/>
    </defs>
    <g clip-path="url(#pe18a5c432e)">
     <use style="fill:#aec7e8;fill-opacity:0.25;stroke:#aec7e8;stroke-opacity:0.25;" x="0" xlink:href="#me0acf90b5b" y="345.6"/>
    </g>
   </g>
   <g id="PolyCollection_2">
    <defs>
     <path d="M 77.106954 -274.715149 
L 77.106954 -201.713847 
L 83.665736 -214.364701 
L 90.224518 -219.939832 
L 96.7833 -224.920924 
L 103.342082 -232.513937 
L 109.900864 -226.50902 
L 116.459646 -229.503832 
L 123.018428 -224.466784 
L 129.57721 -227.877701 
L 136.135992 -224.930409 
L 142.694774 -220.033066 
L 149.253556 -220.221792 
L 155.812338 -218.310476 
L 162.37112 -216.592554 
L 168.929902 -213.196906 
L 175.488684 -212.816012 
L 182.047466 -214.086382 
L 188.606248 -212.441266 
L 195.16503 -215.117666 
L 201.723812 -213.128301 
L 208.282594 -221.626453 
L 214.841376 -221.90213 
L 221.400158 -225.312819 
L 227.95894 -225.760349 
L 234.517722 -230.175991 
L 241.076504 -231.577598 
L 247.635286 -230.383298 
L 254.194068 -230.486469 
L 260.75285 -228.943655 
L 267.311632 -227.092144 
L 273.870414 -229.193988 
L 280.429196 -223.114525 
L 286.987978 -224.109076 
L 293.54676 -225.541801 
L 300.105542 -227.450927 
L 306.664324 -225.25501 
L 313.223107 -223.773666 
L 319.781889 -221.614908 
L 326.340671 -221.45974 
L 332.899453 -219.678659 
L 339.458235 -220.039852 
L 346.017017 -216.457837 
L 352.575799 -215.453754 
L 359.134581 -214.609078 
L 365.693363 -212.985524 
L 372.252145 -214.247102 
L 378.810927 -214.625907 
L 385.369709 -219.180566 
L 391.928491 -215.882189 
L 398.487273 -218.662252 
L 398.487273 -251.505198 
L 398.487273 -251.505198 
L 391.928491 -250.285596 
L 385.369709 -251.605183 
L 378.810927 -250.759817 
L 372.252145 -252.21686 
L 365.693363 -247.370842 
L 359.134581 -251.074925 
L 352.575799 -250.405386 
L 346.017017 -243.896096 
L 339.458235 -248.374532 
L 332.899453 -247.786641 
L 326.340671 -248.097433 
L 319.781889 -247.680222 
L 313.223107 -249.190647 
L 306.664324 -248.189342 
L 300.105542 -251.082908 
L 293.54676 -248.255293 
L 286.987978 -249.165299 
L 280.429196 -249.985974 
L 273.870414 -251.56354 
L 267.311632 -250.91893 
L 260.75285 -252.075061 
L 254.194068 -252.23402 
L 247.635286 -254.076758 
L 241.076504 -256.969497 
L 234.517722 -255.324925 
L 227.95894 -252.308128 
L 221.400158 -256.147967 
L 214.841376 -252.450619 
L 208.282594 -249.107503 
L 201.723812 -247.034166 
L 195.16503 -243.791047 
L 188.606248 -246.963354 
L 182.047466 -244.097874 
L 175.488684 -241.754898 
L 168.929902 -241.418904 
L 162.37112 -239.8242 
L 155.812338 -239.665954 
L 149.253556 -240.437983 
L 142.694774 -246.710157 
L 136.135992 -245.039804 
L 129.57721 -246.967982 
L 123.018428 -248.137603 
L 116.459646 -249.794315 
L 109.900864 -248.19115 
L 103.342082 -258.145117 
L 96.7833 -257.214592 
L 90.224518 -255.480404 
L 83.665736 -245.941317 
L 77.106954 -274.715149 
z
" id="me267306165" style="stroke:#ffbb78;stroke-opacity:0.25;"/>
    </defs>
    <g clip-path="url(#pe18a5c432e)">
     <use style="fill:#ffbb78;fill-opacity:0.25;stroke:#ffbb78;stroke-opacity:0.25;" x="0" xlink:href="#me267306165" y="345.6"/>
    </g>
   </g>
   <g id="PolyCollection_3">
    <defs>
     <path d="M 77.106954 -277.055024 
L 77.106954 -205.93914 
L 83.665736 -222.622002 
L 90.224518 -232.454952 
L 96.7833 -234.29388 
L 103.342082 -226.824786 
L 109.900864 -223.481034 
L 116.459646 -222.30225 
L 123.018428 -220.543213 
L 129.57721 -222.896101 
L 136.135992 -222.41777 
L 142.694774 -219.121905 
L 149.253556 -221.690691 
L 155.812338 -219.411434 
L 162.37112 -219.035145 
L 168.929902 -217.010655 
L 175.488684 -221.747017 
L 182.047466 -220.579242 
L 188.606248 -220.691668 
L 195.16503 -218.834365 
L 201.723812 -215.755697 
L 208.282594 -216.9948 
L 214.841376 -215.202294 
L 221.400158 -217.761033 
L 227.95894 -216.433914 
L 234.517722 -216.909495 
L 241.076504 -220.773769 
L 247.635286 -220.167029 
L 254.194068 -224.383733 
L 260.75285 -227.214091 
L 267.311632 -222.325868 
L 273.870414 -229.357034 
L 280.429196 -232.901475 
L 286.987978 -233.799778 
L 293.54676 -233.560509 
L 300.105542 -230.229259 
L 306.664324 -230.926635 
L 313.223107 -231.179431 
L 319.781889 -229.428444 
L 326.340671 -227.983494 
L 332.899453 -224.764935 
L 339.458235 -223.795552 
L 346.017017 -220.394852 
L 352.575799 -219.910501 
L 359.134581 -221.984699 
L 365.693363 -219.282501 
L 372.252145 -221.356391 
L 378.810927 -215.962417 
L 385.369709 -213.800422 
L 391.928491 -217.195073 
L 398.487273 -221.000861 
L 398.487273 -253.868026 
L 398.487273 -253.868026 
L 391.928491 -252.566321 
L 385.369709 -251.267809 
L 378.810927 -249.848178 
L 372.252145 -248.766491 
L 365.693363 -251.314393 
L 359.134581 -251.211491 
L 352.575799 -248.108815 
L 346.017017 -249.562163 
L 339.458235 -250.416964 
L 332.899453 -251.021688 
L 326.340671 -253.104169 
L 319.781889 -251.618749 
L 313.223107 -252.541568 
L 306.664324 -252.87194 
L 300.105542 -256.001322 
L 293.54676 -255.657392 
L 286.987978 -257.675374 
L 280.429196 -256.52598 
L 273.870414 -258.843319 
L 267.311632 -257.21741 
L 260.75285 -260.590068 
L 254.194068 -261.005509 
L 247.635286 -259.79674 
L 241.076504 -255.30889 
L 234.517722 -256.723924 
L 227.95894 -257.499681 
L 221.400158 -255.555861 
L 214.841376 -253.712574 
L 208.282594 -251.991138 
L 201.723812 -244.636652 
L 195.16503 -244.938937 
L 188.606248 -241.331961 
L 182.047466 -238.872042 
L 175.488684 -242.859866 
L 168.929902 -243.79672 
L 162.37112 -241.266046 
L 155.812338 -243.117192 
L 149.253556 -240.163115 
L 142.694774 -244.32994 
L 136.135992 -242.73019 
L 129.57721 -245.071413 
L 123.018428 -243.145754 
L 116.459646 -241.757353 
L 109.900864 -252.579108 
L 103.342082 -254.266897 
L 96.7833 -260.564107 
L 90.224518 -255.676799 
L 83.665736 -251.466081 
L 77.106954 -277.055024 
z
" id="maad63b35a4" style="stroke:#98df8a;stroke-opacity:0.25;"/>
    </defs>
    <g clip-path="url(#pe18a5c432e)">
     <use style="fill:#98df8a;fill-opacity:0.25;stroke:#98df8a;stroke-opacity:0.25;" x="0" xlink:href="#maad63b35a4" y="345.6"/>
    </g>
   </g>
   <g id="PolyCollection_4">
    <defs>
     <path d="M 77.106954 -292.032 
L 77.106954 -120.342185 
L 83.665736 -237.071614 
L 90.224518 -236.731896 
L 96.7833 -237.981075 
L 103.342082 -245.353985 
L 109.900864 -245.659334 
L 116.459646 -241.673651 
L 123.018428 -240.026061 
L 129.57721 -240.878515 
L 136.135992 -239.605327 
L 142.694774 -237.625962 
L 149.253556 -238.589202 
L 155.812338 -236.527967 
L 162.37112 -238.696571 
L 168.929902 -237.87448 
L 175.488684 -236.222507 
L 182.047466 -235.332539 
L 188.606248 -230.190353 
L 195.16503 -218.435088 
L 201.723812 -208.04381 
L 208.282594 -214.843217 
L 214.841376 -216.056731 
L 221.400158 -219.435886 
L 227.95894 -223.082324 
L 234.517722 -227.139035 
L 241.076504 -228.587054 
L 247.635286 -231.786224 
L 254.194068 -229.962981 
L 260.75285 -231.447911 
L 267.311632 -233.261605 
L 273.870414 -229.989976 
L 280.429196 -238.085806 
L 286.987978 -241.791559 
L 293.54676 -244.7514 
L 300.105542 -243.142045 
L 306.664324 -241.742193 
L 313.223107 -240.611214 
L 319.781889 -239.740981 
L 326.340671 -238.095257 
L 332.899453 -241.785128 
L 339.458235 -242.469116 
L 346.017017 -243.429851 
L 352.575799 -242.153588 
L 359.134581 -242.743018 
L 365.693363 -239.650349 
L 372.252145 -242.892163 
L 378.810927 -243.636495 
L 385.369709 -242.534352 
L 391.928491 -238.881092 
L 398.487273 -243.577712 
L 398.487273 -264.053866 
L 398.487273 -264.053866 
L 391.928491 -263.929936 
L 385.369709 -262.575076 
L 378.810927 -263.387985 
L 372.252145 -260.032512 
L 365.693363 -260.199815 
L 359.134581 -260.812411 
L 352.575799 -263.506922 
L 346.017017 -260.972814 
L 339.458235 -259.340987 
L 332.899453 -258.353802 
L 326.340671 -257.97517 
L 319.781889 -257.952852 
L 313.223107 -259.730619 
L 306.664324 -258.336524 
L 300.105542 -259.06559 
L 293.54676 -257.417593 
L 286.987978 -257.730009 
L 280.429196 -260.095432 
L 273.870414 -258.711698 
L 267.311632 -258.382979 
L 260.75285 -262.407315 
L 254.194068 -255.424122 
L 247.635286 -259.615424 
L 241.076504 -260.745859 
L 234.517722 -261.648192 
L 227.95894 -260.829014 
L 221.400158 -260.401186 
L 214.841376 -251.874573 
L 208.282594 -258.774801 
L 201.723812 -257.039843 
L 195.16503 -245.41604 
L 188.606248 -247.841527 
L 182.047466 -247.312138 
L 175.488684 -246.83414 
L 168.929902 -246.538305 
L 162.37112 -249.153146 
L 155.812338 -246.902149 
L 149.253556 -248.833336 
L 142.694774 -250.214527 
L 136.135992 -248.545916 
L 129.57721 -250.193228 
L 123.018428 -249.661675 
L 116.459646 -255.046781 
L 109.900864 -258.446804 
L 103.342082 -256.316112 
L 96.7833 -256.791413 
L 90.224518 -257.748163 
L 83.665736 -270.75695 
L 77.106954 -292.032 
z
" id="m22500a6425" style="stroke:#ff9896;stroke-opacity:0.25;"/>
    </defs>
    <g clip-path="url(#pe18a5c432e)">
     <use style="fill:#ff9896;fill-opacity:0.25;stroke:#ff9896;stroke-opacity:0.25;" x="0" xlink:href="#m22500a6425" y="345.6"/>
    </g>
   </g>
   <g id="matplotlib.axis_1">
    <g id="xtick_1">
     <g id="line2d_1">
      <path clip-path="url(#pe18a5c432e)" d="M 73.832727 307.584 
L 73.832727 41.472 
" style="fill:none;stroke:#b0b0b0;stroke-linecap:square;stroke-width:0.8;"/>
     </g>
     <g id="line2d_2">
      <defs>
       <path d="M 0 0 
L 0 3.5 
" id="mb2ad25c3e9" style="stroke:#000000;stroke-width:0.8;"/>
      </defs>
      <g>
       <use style="stroke:#000000;stroke-width:0.8;" x="73.832727" xlink:href="#mb2ad25c3e9" y="307.584"/>
      </g>
     </g>
     <g id="text_1">
      <!-- 0 -->
      <defs>
       <path d="M 31.78125 66.40625 
Q 24.171875 66.40625 20.328125 58.90625 
Q 16.5 51.421875 16.5 36.375 
Q 16.5 21.390625 20.328125 13.890625 
Q 24.171875 6.390625 31.78125 6.390625 
Q 39.453125 6.390625 43.28125 13.890625 
Q 47.125 21.390625 47.125 36.375 
Q 47.125 51.421875 43.28125 58.90625 
Q 39.453125 66.40625 31.78125 66.40625 
z
M 31.78125 74.21875 
Q 44.046875 74.21875 50.515625 64.515625 
Q 56.984375 54.828125 56.984375 36.375 
Q 56.984375 17.96875 50.515625 8.265625 
Q 44.046875 -1.421875 31.78125 -1.421875 
Q 19.53125 -1.421875 13.0625 8.265625 
Q 6.59375 17.96875 6.59375 36.375 
Q 6.59375 54.828125 13.0625 64.515625 
Q 19.53125 74.21875 31.78125 74.21875 
z
" id="DejaVuSans-48"/>
      </defs>
      <g transform="translate(70.651477 322.182437)scale(0.1 -0.1)">
       <use xlink:href="#DejaVuSans-48"/>
      </g>
     </g>
    </g>
    <g id="xtick_2">
     <g id="line2d_3">
      <path clip-path="url(#pe18a5c432e)" d="M 125.47668 307.584 
L 125.47668 41.472 
" style="fill:none;stroke:#b0b0b0;stroke-linecap:square;stroke-width:0.8;"/>
     </g>
     <g id="line2d_4">
      <g>
       <use style="stroke:#000000;stroke-width:0.8;" x="125.47668" xlink:href="#mb2ad25c3e9" y="307.584"/>
      </g>
     </g>
     <g id="text_2">
      <!-- 5000 -->
      <defs>
       <path d="M 10.796875 72.90625 
L 49.515625 72.90625 
L 49.515625 64.59375 
L 19.828125 64.59375 
L 19.828125 46.734375 
Q 21.96875 47.46875 24.109375 47.828125 
Q 26.265625 48.1875 28.421875 48.1875 
Q 40.625 48.1875 47.75 41.5 
Q 54.890625 34.8125 54.890625 23.390625 
Q 54.890625 11.625 47.5625 5.09375 
Q 40.234375 -1.421875 26.90625 -1.421875 
Q 22.3125 -1.421875 17.546875 -0.640625 
Q 12.796875 0.140625 7.71875 1.703125 
L 7.71875 11.625 
Q 12.109375 9.234375 16.796875 8.0625 
Q 21.484375 6.890625 26.703125 6.890625 
Q 35.15625 6.890625 40.078125 11.328125 
Q 45.015625 15.765625 45.015625 23.390625 
Q 45.015625 31 40.078125 35.4375 
Q 35.15625 39.890625 26.703125 39.890625 
Q 22.75 39.890625 18.8125 39.015625 
Q 14.890625 38.140625 10.796875 36.28125 
z
" id="DejaVuSans-53"/>
      </defs>
      <g transform="translate(112.75168 322.182437)scale(0.1 -0.1)">
       <use xlink:href="#DejaVuSans-53"/>
       <use x="63.623047" xlink:href="#DejaVuSans-48"/>
       <use x="127.246094" xlink:href="#DejaVuSans-48"/>
       <use x="190.869141" xlink:href="#DejaVuSans-48"/>
      </g>
     </g>
    </g>
    <g id="xtick_3">
     <g id="line2d_5">
      <path clip-path="url(#pe18a5c432e)" d="M 177.120633 307.584 
L 177.120633 41.472 
" style="fill:none;stroke:#b0b0b0;stroke-linecap:square;stroke-width:0.8;"/>
     </g>
     <g id="line2d_6">
      <g>
       <use style="stroke:#000000;stroke-width:0.8;" x="177.120633" xlink:href="#mb2ad25c3e9" y="307.584"/>
      </g>
     </g>
     <g id="text_3">
      <!-- 10000 -->
      <defs>
       <path d="M 12.40625 8.296875 
L 28.515625 8.296875 
L 28.515625 63.921875 
L 10.984375 60.40625 
L 10.984375 69.390625 
L 28.421875 72.90625 
L 38.28125 72.90625 
L 38.28125 8.296875 
L 54.390625 8.296875 
L 54.390625 0 
L 12.40625 0 
z
" id="DejaVuSans-49"/>
      </defs>
      <g transform="translate(161.214383 322.182437)scale(0.1 -0.1)">
       <use xlink:href="#DejaVuSans-49"/>
       <use x="63.623047" xlink:href="#DejaVuSans-48"/>
       <use x="127.246094" xlink:href="#DejaVuSans-48"/>
       <use x="190.869141" xlink:href="#DejaVuSans-48"/>
       <use x="254.492188" xlink:href="#DejaVuSans-48"/>
      </g>
     </g>
    </g>
    <g id="xtick_4">
     <g id="line2d_7">
      <path clip-path="url(#pe18a5c432e)" d="M 228.764586 307.584 
L 228.764586 41.472 
" style="fill:none;stroke:#b0b0b0;stroke-linecap:square;stroke-width:0.8;"/>
     </g>
     <g id="line2d_8">
      <g>
       <use style="stroke:#000000;stroke-width:0.8;" x="228.764586" xlink:href="#mb2ad25c3e9" y="307.584"/>
      </g>
     </g>
     <g id="text_4">
      <!-- 15000 -->
      <g transform="translate(212.858336 322.182437)scale(0.1 -0.1)">
       <use xlink:href="#DejaVuSans-49"/>
       <use x="63.623047" xlink:href="#DejaVuSans-53"/>
       <use x="127.246094" xlink:href="#DejaVuSans-48"/>
       <use x="190.869141" xlink:href="#DejaVuSans-48"/>
       <use x="254.492188" xlink:href="#DejaVuSans-48"/>
      </g>
     </g>
    </g>
    <g id="xtick_5">
     <g id="line2d_9">
      <path clip-path="url(#pe18a5c432e)" d="M 280.408539 307.584 
L 280.408539 41.472 
" style="fill:none;stroke:#b0b0b0;stroke-linecap:square;stroke-width:0.8;"/>
     </g>
     <g id="line2d_10">
      <g>
       <use style="stroke:#000000;stroke-width:0.8;" x="280.408539" xlink:href="#mb2ad25c3e9" y="307.584"/>
      </g>
     </g>
     <g id="text_5">
      <!-- 20000 -->
      <defs>
       <path d="M 19.1875 8.296875 
L 53.609375 8.296875 
L 53.609375 0 
L 7.328125 0 
L 7.328125 8.296875 
Q 12.9375 14.109375 22.625 23.890625 
Q 32.328125 33.6875 34.8125 36.53125 
Q 39.546875 41.84375 41.421875 45.53125 
Q 43.3125 49.21875 43.3125 52.78125 
Q 43.3125 58.59375 39.234375 62.25 
Q 35.15625 65.921875 28.609375 65.921875 
Q 23.96875 65.921875 18.8125 64.3125 
Q 13.671875 62.703125 7.8125 59.421875 
L 7.8125 69.390625 
Q 13.765625 71.78125 18.9375 73 
Q 24.125 74.21875 28.421875 74.21875 
Q 39.75 74.21875 46.484375 68.546875 
Q 53.21875 62.890625 53.21875 53.421875 
Q 53.21875 48.921875 51.53125 44.890625 
Q 49.859375 40.875 45.40625 35.40625 
Q 44.1875 33.984375 37.640625 27.21875 
Q 31.109375 20.453125 19.1875 8.296875 
z
" id="DejaVuSans-50"/>
      </defs>
      <g transform="translate(264.502289 322.182437)scale(0.1 -0.1)">
       <use xlink:href="#DejaVuSans-50"/>
       <use x="63.623047" xlink:href="#DejaVuSans-48"/>
       <use x="127.246094" xlink:href="#DejaVuSans-48"/>
       <use x="190.869141" xlink:href="#DejaVuSans-48"/>
       <use x="254.492188" xlink:href="#DejaVuSans-48"/>
      </g>
     </g>
    </g>
    <g id="xtick_6">
     <g id="line2d_11">
      <path clip-path="url(#pe18a5c432e)" d="M 332.052492 307.584 
L 332.052492 41.472 
" style="fill:none;stroke:#b0b0b0;stroke-linecap:square;stroke-width:0.8;"/>
     </g>
     <g id="line2d_12">
      <g>
       <use style="stroke:#000000;stroke-width:0.8;" x="332.052492" xlink:href="#mb2ad25c3e9" y="307.584"/>
      </g>
     </g>
     <g id="text_6">
      <!-- 25000 -->
      <g transform="translate(316.146242 322.182437)scale(0.1 -0.1)">
       <use xlink:href="#DejaVuSans-50"/>
       <use x="63.623047" xlink:href="#DejaVuSans-53"/>
       <use x="127.246094" xlink:href="#DejaVuSans-48"/>
       <use x="190.869141" xlink:href="#DejaVuSans-48"/>
       <use x="254.492188" xlink:href="#DejaVuSans-48"/>
      </g>
     </g>
    </g>
    <g id="xtick_7">
     <g id="line2d_13">
      <path clip-path="url(#pe18a5c432e)" d="M 383.696445 307.584 
L 383.696445 41.472 
" style="fill:none;stroke:#b0b0b0;stroke-linecap:square;stroke-width:0.8;"/>
     </g>
     <g id="line2d_14">
      <g>
       <use style="stroke:#000000;stroke-width:0.8;" x="383.696445" xlink:href="#mb2ad25c3e9" y="307.584"/>
      </g>
     </g>
     <g id="text_7">
      <!-- 30000 -->
      <defs>
       <path d="M 40.578125 39.3125 
Q 47.65625 37.796875 51.625 33 
Q 55.609375 28.21875 55.609375 21.1875 
Q 55.609375 10.40625 48.1875 4.484375 
Q 40.765625 -1.421875 27.09375 -1.421875 
Q 22.515625 -1.421875 17.65625 -0.515625 
Q 12.796875 0.390625 7.625 2.203125 
L 7.625 11.71875 
Q 11.71875 9.328125 16.59375 8.109375 
Q 21.484375 6.890625 26.8125 6.890625 
Q 36.078125 6.890625 40.9375 10.546875 
Q 45.796875 14.203125 45.796875 21.1875 
Q 45.796875 27.640625 41.28125 31.265625 
Q 36.765625 34.90625 28.71875 34.90625 
L 20.21875 34.90625 
L 20.21875 43.015625 
L 29.109375 43.015625 
Q 36.375 43.015625 40.234375 45.921875 
Q 44.09375 48.828125 44.09375 54.296875 
Q 44.09375 59.90625 40.109375 62.90625 
Q 36.140625 65.921875 28.71875 65.921875 
Q 24.65625 65.921875 20.015625 65.03125 
Q 15.375 64.15625 9.8125 62.3125 
L 9.8125 71.09375 
Q 15.4375 72.65625 20.34375 73.4375 
Q 25.25 74.21875 29.59375 74.21875 
Q 40.828125 74.21875 47.359375 69.109375 
Q 53.90625 64.015625 53.90625 55.328125 
Q 53.90625 49.265625 50.4375 45.09375 
Q 46.96875 40.921875 40.578125 39.3125 
z
" id="DejaVuSans-51"/>
      </defs>
      <g transform="translate(367.790195 322.182437)scale(0.1 -0.1)">
       <use xlink:href="#DejaVuSans-51"/>
       <use x="63.623047" xlink:href="#DejaVuSans-48"/>
       <use x="127.246094" xlink:href="#DejaVuSans-48"/>
       <use x="190.869141" xlink:href="#DejaVuSans-48"/>
       <use x="254.492188" xlink:href="#DejaVuSans-48"/>
      </g>
     </g>
    </g>
    <g id="text_8">
     <!-- Steps -->
     <defs>
      <path d="M 53.515625 70.515625 
L 53.515625 60.890625 
Q 47.90625 63.578125 42.921875 64.890625 
Q 37.9375 66.21875 33.296875 66.21875 
Q 25.25 66.21875 20.875 63.09375 
Q 16.5 59.96875 16.5 54.203125 
Q 16.5 49.359375 19.40625 46.890625 
Q 22.3125 44.4375 30.421875 42.921875 
L 36.375 41.703125 
Q 47.40625 39.59375 52.65625 34.296875 
Q 57.90625 29 57.90625 20.125 
Q 57.90625 9.515625 50.796875 4.046875 
Q 43.703125 -1.421875 29.984375 -1.421875 
Q 24.8125 -1.421875 18.96875 -0.25 
Q 13.140625 0.921875 6.890625 3.21875 
L 6.890625 13.375 
Q 12.890625 10.015625 18.65625 8.296875 
Q 24.421875 6.59375 29.984375 6.59375 
Q 38.421875 6.59375 43.015625 9.90625 
Q 47.609375 13.234375 47.609375 19.390625 
Q 47.609375 24.75 44.3125 27.78125 
Q 41.015625 30.8125 33.5 32.328125 
L 27.484375 33.5 
Q 16.453125 35.6875 11.515625 40.375 
Q 6.59375 45.0625 6.59375 53.421875 
Q 6.59375 63.09375 13.40625 68.65625 
Q 20.21875 74.21875 32.171875 74.21875 
Q 37.3125 74.21875 42.625 73.28125 
Q 47.953125 72.359375 53.515625 70.515625 
z
" id="DejaVuSans-83"/>
      <path d="M 18.3125 70.21875 
L 18.3125 54.6875 
L 36.8125 54.6875 
L 36.8125 47.703125 
L 18.3125 47.703125 
L 18.3125 18.015625 
Q 18.3125 11.328125 20.140625 9.421875 
Q 21.96875 7.515625 27.59375 7.515625 
L 36.8125 7.515625 
L 36.8125 0 
L 27.59375 0 
Q 17.1875 0 13.234375 3.875 
Q 9.28125 7.765625 9.28125 18.015625 
L 9.28125 47.703125 
L 2.6875 47.703125 
L 2.6875 54.6875 
L 9.28125 54.6875 
L 9.28125 70.21875 
z
" id="DejaVuSans-116"/>
      <path d="M 56.203125 29.59375 
L 56.203125 25.203125 
L 14.890625 25.203125 
Q 15.484375 15.921875 20.484375 11.0625 
Q 25.484375 6.203125 34.421875 6.203125 
Q 39.59375 6.203125 44.453125 7.46875 
Q 49.3125 8.734375 54.109375 11.28125 
L 54.109375 2.78125 
Q 49.265625 0.734375 44.1875 -0.34375 
Q 39.109375 -1.421875 33.890625 -1.421875 
Q 20.796875 -1.421875 13.15625 6.1875 
Q 5.515625 13.8125 5.515625 26.8125 
Q 5.515625 40.234375 12.765625 48.109375 
Q 20.015625 56 32.328125 56 
Q 43.359375 56 49.78125 48.890625 
Q 56.203125 41.796875 56.203125 29.59375 
z
M 47.21875 32.234375 
Q 47.125 39.59375 43.09375 43.984375 
Q 39.0625 48.390625 32.421875 48.390625 
Q 24.90625 48.390625 20.390625 44.140625 
Q 15.875 39.890625 15.1875 32.171875 
z
" id="DejaVuSans-101"/>
      <path d="M 18.109375 8.203125 
L 18.109375 -20.796875 
L 9.078125 -20.796875 
L 9.078125 54.6875 
L 18.109375 54.6875 
L 18.109375 46.390625 
Q 20.953125 51.265625 25.265625 53.625 
Q 29.59375 56 35.59375 56 
Q 45.5625 56 51.78125 48.09375 
Q 58.015625 40.1875 58.015625 27.296875 
Q 58.015625 14.40625 51.78125 6.484375 
Q 45.5625 -1.421875 35.59375 -1.421875 
Q 29.59375 -1.421875 25.265625 0.953125 
Q 20.953125 3.328125 18.109375 8.203125 
z
M 48.6875 27.296875 
Q 48.6875 37.203125 44.609375 42.84375 
Q 40.53125 48.484375 33.40625 48.484375 
Q 26.265625 48.484375 22.1875 42.84375 
Q 18.109375 37.203125 18.109375 27.296875 
Q 18.109375 17.390625 22.1875 11.75 
Q 26.265625 6.109375 33.40625 6.109375 
Q 40.53125 6.109375 44.609375 11.75 
Q 48.6875 17.390625 48.6875 27.296875 
z
" id="DejaVuSans-112"/>
      <path d="M 44.28125 53.078125 
L 44.28125 44.578125 
Q 40.484375 46.53125 36.375 47.5 
Q 32.28125 48.484375 27.875 48.484375 
Q 21.1875 48.484375 17.84375 46.4375 
Q 14.5 44.390625 14.5 40.28125 
Q 14.5 37.15625 16.890625 35.375 
Q 19.28125 33.59375 26.515625 31.984375 
L 29.59375 31.296875 
Q 39.15625 29.25 43.1875 25.515625 
Q 47.21875 21.78125 47.21875 15.09375 
Q 47.21875 7.46875 41.1875 3.015625 
Q 35.15625 -1.421875 24.609375 -1.421875 
Q 20.21875 -1.421875 15.453125 -0.5625 
Q 10.6875 0.296875 5.421875 2 
L 5.421875 11.28125 
Q 10.40625 8.6875 15.234375 7.390625 
Q 20.0625 6.109375 24.8125 6.109375 
Q 31.15625 6.109375 34.5625 8.28125 
Q 37.984375 10.453125 37.984375 14.40625 
Q 37.984375 18.0625 35.515625 20.015625 
Q 33.0625 21.96875 24.703125 23.78125 
L 21.578125 24.515625 
Q 13.234375 26.265625 9.515625 29.90625 
Q 5.8125 33.546875 5.8125 39.890625 
Q 5.8125 47.609375 11.28125 51.796875 
Q 16.75 56 26.8125 56 
Q 31.78125 56 36.171875 55.265625 
Q 40.578125 54.546875 44.28125 53.078125 
z
" id="DejaVuSans-115"/>
     </defs>
     <g transform="translate(222.170156 335.860562)scale(0.1 -0.1)">
      <use xlink:href="#DejaVuSans-83"/>
      <use x="63.476562" xlink:href="#DejaVuSans-116"/>
      <use x="102.685547" xlink:href="#DejaVuSans-101"/>
      <use x="164.208984" xlink:href="#DejaVuSans-112"/>
      <use x="227.685547" xlink:href="#DejaVuSans-115"/>
     </g>
    </g>
   </g>
   <g id="matplotlib.axis_2">
    <g id="ytick_1">
     <g id="line2d_15">
      <path clip-path="url(#pe18a5c432e)" d="M 57.6 306.128307 
L 414.72 306.128307 
" style="fill:none;stroke:#b0b0b0;stroke-linecap:square;stroke-width:0.8;"/>
     </g>
     <g id="line2d_16">
      <defs>
       <path d="M 0 0 
L -3.5 0 
" id="m031df277d7" style="stroke:#000000;stroke-width:0.8;"/>
      </defs>
      <g>
       <use style="stroke:#000000;stroke-width:0.8;" x="57.6" xlink:href="#m031df277d7" y="306.128307"/>
      </g>
     </g>
     <g id="text_9">
      <!-- $\mathdefault{10^{-5}}$ -->
      <defs>
       <path d="M 10.59375 35.5 
L 73.1875 35.5 
L 73.1875 27.203125 
L 10.59375 27.203125 
z
" id="DejaVuSans-8722"/>
      </defs>
      <g transform="translate(27.1 309.927526)scale(0.1 -0.1)">
       <use transform="translate(0 0.684375)" xlink:href="#DejaVuSans-49"/>
       <use transform="translate(63.623047 0.684375)" xlink:href="#DejaVuSans-48"/>
       <use transform="translate(128.203125 38.965625)scale(0.7)" xlink:href="#DejaVuSans-8722"/>
       <use transform="translate(186.855469 38.965625)scale(0.7)" xlink:href="#DejaVuSans-53"/>
      </g>
     </g>
    </g>
    <g id="ytick_2">
     <g id="line2d_17">
      <path clip-path="url(#pe18a5c432e)" d="M 57.6 258.295148 
L 414.72 258.295148 
" style="fill:none;stroke:#b0b0b0;stroke-linecap:square;stroke-width:0.8;"/>
     </g>
     <g id="line2d_18">
      <g>
       <use style="stroke:#000000;stroke-width:0.8;" x="57.6" xlink:href="#m031df277d7" y="258.295148"/>
      </g>
     </g>
     <g id="text_10">
      <!-- $\mathdefault{10^{-4}}$ -->
      <defs>
       <path d="M 37.796875 64.3125 
L 12.890625 25.390625 
L 37.796875 25.390625 
z
M 35.203125 72.90625 
L 47.609375 72.90625 
L 47.609375 25.390625 
L 58.015625 25.390625 
L 58.015625 17.1875 
L 47.609375 17.1875 
L 47.609375 0 
L 37.796875 0 
L 37.796875 17.1875 
L 4.890625 17.1875 
L 4.890625 26.703125 
z
" id="DejaVuSans-52"/>
      </defs>
      <g transform="translate(27.1 262.094367)scale(0.1 -0.1)">
       <use transform="translate(0 0.684375)" xlink:href="#DejaVuSans-49"/>
       <use transform="translate(63.623047 0.684375)" xlink:href="#DejaVuSans-48"/>
       <use transform="translate(128.203125 38.965625)scale(0.7)" xlink:href="#DejaVuSans-8722"/>
       <use transform="translate(186.855469 38.965625)scale(0.7)" xlink:href="#DejaVuSans-52"/>
      </g>
     </g>
    </g>
    <g id="ytick_3">
     <g id="line2d_19">
      <path clip-path="url(#pe18a5c432e)" d="M 57.6 210.46199 
L 414.72 210.46199 
" style="fill:none;stroke:#b0b0b0;stroke-linecap:square;stroke-width:0.8;"/>
     </g>
     <g id="line2d_20">
      <g>
       <use style="stroke:#000000;stroke-width:0.8;" x="57.6" xlink:href="#m031df277d7" y="210.46199"/>
      </g>
     </g>
     <g id="text_11">
      <!-- $\mathdefault{10^{-3}}$ -->
      <g transform="translate(27.1 214.261209)scale(0.1 -0.1)">
       <use transform="translate(0 0.765625)" xlink:href="#DejaVuSans-49"/>
       <use transform="translate(63.623047 0.765625)" xlink:href="#DejaVuSans-48"/>
       <use transform="translate(128.203125 39.046875)scale(0.7)" xlink:href="#DejaVuSans-8722"/>
       <use transform="translate(186.855469 39.046875)scale(0.7)" xlink:href="#DejaVuSans-51"/>
      </g>
     </g>
    </g>
    <g id="ytick_4">
     <g id="line2d_21">
      <path clip-path="url(#pe18a5c432e)" d="M 57.6 162.628832 
L 414.72 162.628832 
" style="fill:none;stroke:#b0b0b0;stroke-linecap:square;stroke-width:0.8;"/>
     </g>
     <g id="line2d_22">
      <g>
       <use style="stroke:#000000;stroke-width:0.8;" x="57.6" xlink:href="#m031df277d7" y="162.628832"/>
      </g>
     </g>
     <g id="text_12">
      <!-- $\mathdefault{10^{-2}}$ -->
      <g transform="translate(27.1 166.42805)scale(0.1 -0.1)">
       <use transform="translate(0 0.765625)" xlink:href="#DejaVuSans-49"/>
       <use transform="translate(63.623047 0.765625)" xlink:href="#DejaVuSans-48"/>
       <use transform="translate(128.203125 39.046875)scale(0.7)" xlink:href="#DejaVuSans-8722"/>
       <use transform="translate(186.855469 39.046875)scale(0.7)" xlink:href="#DejaVuSans-50"/>
      </g>
     </g>
    </g>
    <g id="ytick_5">
     <g id="line2d_23">
      <path clip-path="url(#pe18a5c432e)" d="M 57.6 114.795673 
L 414.72 114.795673 
" style="fill:none;stroke:#b0b0b0;stroke-linecap:square;stroke-width:0.8;"/>
     </g>
     <g id="line2d_24">
      <g>
       <use style="stroke:#000000;stroke-width:0.8;" x="57.6" xlink:href="#m031df277d7" y="114.795673"/>
      </g>
     </g>
     <g id="text_13">
      <!-- $\mathdefault{10^{-1}}$ -->
      <g transform="translate(27.1 118.594892)scale(0.1 -0.1)">
       <use transform="translate(0 0.684375)" xlink:href="#DejaVuSans-49"/>
       <use transform="translate(63.623047 0.684375)" xlink:href="#DejaVuSans-48"/>
       <use transform="translate(128.203125 38.965625)scale(0.7)" xlink:href="#DejaVuSans-8722"/>
       <use transform="translate(186.855469 38.965625)scale(0.7)" xlink:href="#DejaVuSans-49"/>
      </g>
     </g>
    </g>
    <g id="ytick_6">
     <g id="line2d_25">
      <path clip-path="url(#pe18a5c432e)" d="M 57.6 66.962515 
L 414.72 66.962515 
" style="fill:none;stroke:#b0b0b0;stroke-linecap:square;stroke-width:0.8;"/>
     </g>
     <g id="line2d_26">
      <g>
       <use style="stroke:#000000;stroke-width:0.8;" x="57.6" xlink:href="#m031df277d7" y="66.962515"/>
      </g>
     </g>
     <g id="text_14">
      <!-- $\mathdefault{10^{0}}$ -->
      <g transform="translate(33 70.761734)scale(0.1 -0.1)">
       <use transform="translate(0 0.765625)" xlink:href="#DejaVuSans-49"/>
       <use transform="translate(63.623047 0.765625)" xlink:href="#DejaVuSans-48"/>
       <use transform="translate(128.203125 39.046875)scale(0.7)" xlink:href="#DejaVuSans-48"/>
      </g>
     </g>
    </g>
    <g id="ytick_7">
     <g id="line2d_27">
      <defs>
       <path d="M 0 0 
L -2 0 
" id="m9c8846f6f2" style="stroke:#000000;stroke-width:0.6;"/>
      </defs>
      <g>
       <use style="stroke:#000000;stroke-width:0.6;" x="57.6" xlink:href="#m9c8846f6f2" y="291.729091"/>
      </g>
     </g>
    </g>
    <g id="ytick_8">
     <g id="line2d_28">
      <g>
       <use style="stroke:#000000;stroke-width:0.6;" x="57.6" xlink:href="#m9c8846f6f2" y="283.30609"/>
      </g>
     </g>
    </g>
    <g id="ytick_9">
     <g id="line2d_29">
      <g>
       <use style="stroke:#000000;stroke-width:0.6;" x="57.6" xlink:href="#m9c8846f6f2" y="277.329876"/>
      </g>
     </g>
    </g>
    <g id="ytick_10">
     <g id="line2d_30">
      <g>
       <use style="stroke:#000000;stroke-width:0.6;" x="57.6" xlink:href="#m9c8846f6f2" y="272.694364"/>
      </g>
     </g>
    </g>
    <g id="ytick_11">
     <g id="line2d_31">
      <g>
       <use style="stroke:#000000;stroke-width:0.6;" x="57.6" xlink:href="#m9c8846f6f2" y="268.906875"/>
      </g>
     </g>
    </g>
    <g id="ytick_12">
     <g id="line2d_32">
      <g>
       <use style="stroke:#000000;stroke-width:0.6;" x="57.6" xlink:href="#m9c8846f6f2" y="265.704598"/>
      </g>
     </g>
    </g>
    <g id="ytick_13">
     <g id="line2d_33">
      <g>
       <use style="stroke:#000000;stroke-width:0.6;" x="57.6" xlink:href="#m9c8846f6f2" y="262.93066"/>
      </g>
     </g>
    </g>
    <g id="ytick_14">
     <g id="line2d_34">
      <g>
       <use style="stroke:#000000;stroke-width:0.6;" x="57.6" xlink:href="#m9c8846f6f2" y="260.483874"/>
      </g>
     </g>
    </g>
    <g id="ytick_15">
     <g id="line2d_35">
      <g>
       <use style="stroke:#000000;stroke-width:0.6;" x="57.6" xlink:href="#m9c8846f6f2" y="243.895933"/>
      </g>
     </g>
    </g>
    <g id="ytick_16">
     <g id="line2d_36">
      <g>
       <use style="stroke:#000000;stroke-width:0.6;" x="57.6" xlink:href="#m9c8846f6f2" y="235.472932"/>
      </g>
     </g>
    </g>
    <g id="ytick_17">
     <g id="line2d_37">
      <g>
       <use style="stroke:#000000;stroke-width:0.6;" x="57.6" xlink:href="#m9c8846f6f2" y="229.496718"/>
      </g>
     </g>
    </g>
    <g id="ytick_18">
     <g id="line2d_38">
      <g>
       <use style="stroke:#000000;stroke-width:0.6;" x="57.6" xlink:href="#m9c8846f6f2" y="224.861206"/>
      </g>
     </g>
    </g>
    <g id="ytick_19">
     <g id="line2d_39">
      <g>
       <use style="stroke:#000000;stroke-width:0.6;" x="57.6" xlink:href="#m9c8846f6f2" y="221.073716"/>
      </g>
     </g>
    </g>
    <g id="ytick_20">
     <g id="line2d_40">
      <g>
       <use style="stroke:#000000;stroke-width:0.6;" x="57.6" xlink:href="#m9c8846f6f2" y="217.87144"/>
      </g>
     </g>
    </g>
    <g id="ytick_21">
     <g id="line2d_41">
      <g>
       <use style="stroke:#000000;stroke-width:0.6;" x="57.6" xlink:href="#m9c8846f6f2" y="215.097502"/>
      </g>
     </g>
    </g>
    <g id="ytick_22">
     <g id="line2d_42">
      <g>
       <use style="stroke:#000000;stroke-width:0.6;" x="57.6" xlink:href="#m9c8846f6f2" y="212.650715"/>
      </g>
     </g>
    </g>
    <g id="ytick_23">
     <g id="line2d_43">
      <g>
       <use style="stroke:#000000;stroke-width:0.6;" x="57.6" xlink:href="#m9c8846f6f2" y="196.062775"/>
      </g>
     </g>
    </g>
    <g id="ytick_24">
     <g id="line2d_44">
      <g>
       <use style="stroke:#000000;stroke-width:0.6;" x="57.6" xlink:href="#m9c8846f6f2" y="187.639774"/>
      </g>
     </g>
    </g>
    <g id="ytick_25">
     <g id="line2d_45">
      <g>
       <use style="stroke:#000000;stroke-width:0.6;" x="57.6" xlink:href="#m9c8846f6f2" y="181.663559"/>
      </g>
     </g>
    </g>
    <g id="ytick_26">
     <g id="line2d_46">
      <g>
       <use style="stroke:#000000;stroke-width:0.6;" x="57.6" xlink:href="#m9c8846f6f2" y="177.028047"/>
      </g>
     </g>
    </g>
    <g id="ytick_27">
     <g id="line2d_47">
      <g>
       <use style="stroke:#000000;stroke-width:0.6;" x="57.6" xlink:href="#m9c8846f6f2" y="173.240558"/>
      </g>
     </g>
    </g>
    <g id="ytick_28">
     <g id="line2d_48">
      <g>
       <use style="stroke:#000000;stroke-width:0.6;" x="57.6" xlink:href="#m9c8846f6f2" y="170.038282"/>
      </g>
     </g>
    </g>
    <g id="ytick_29">
     <g id="line2d_49">
      <g>
       <use style="stroke:#000000;stroke-width:0.6;" x="57.6" xlink:href="#m9c8846f6f2" y="167.264344"/>
      </g>
     </g>
    </g>
    <g id="ytick_30">
     <g id="line2d_50">
      <g>
       <use style="stroke:#000000;stroke-width:0.6;" x="57.6" xlink:href="#m9c8846f6f2" y="164.817557"/>
      </g>
     </g>
    </g>
    <g id="ytick_31">
     <g id="line2d_51">
      <g>
       <use style="stroke:#000000;stroke-width:0.6;" x="57.6" xlink:href="#m9c8846f6f2" y="148.229616"/>
      </g>
     </g>
    </g>
    <g id="ytick_32">
     <g id="line2d_52">
      <g>
       <use style="stroke:#000000;stroke-width:0.6;" x="57.6" xlink:href="#m9c8846f6f2" y="139.806615"/>
      </g>
     </g>
    </g>
    <g id="ytick_33">
     <g id="line2d_53">
      <g>
       <use style="stroke:#000000;stroke-width:0.6;" x="57.6" xlink:href="#m9c8846f6f2" y="133.830401"/>
      </g>
     </g>
    </g>
    <g id="ytick_34">
     <g id="line2d_54">
      <g>
       <use style="stroke:#000000;stroke-width:0.6;" x="57.6" xlink:href="#m9c8846f6f2" y="129.194889"/>
      </g>
     </g>
    </g>
    <g id="ytick_35">
     <g id="line2d_55">
      <g>
       <use style="stroke:#000000;stroke-width:0.6;" x="57.6" xlink:href="#m9c8846f6f2" y="125.4074"/>
      </g>
     </g>
    </g>
    <g id="ytick_36">
     <g id="line2d_56">
      <g>
       <use style="stroke:#000000;stroke-width:0.6;" x="57.6" xlink:href="#m9c8846f6f2" y="122.205123"/>
      </g>
     </g>
    </g>
    <g id="ytick_37">
     <g id="line2d_57">
      <g>
       <use style="stroke:#000000;stroke-width:0.6;" x="57.6" xlink:href="#m9c8846f6f2" y="119.431185"/>
      </g>
     </g>
    </g>
    <g id="ytick_38">
     <g id="line2d_58">
      <g>
       <use style="stroke:#000000;stroke-width:0.6;" x="57.6" xlink:href="#m9c8846f6f2" y="116.984399"/>
      </g>
     </g>
    </g>
    <g id="ytick_39">
     <g id="line2d_59">
      <g>
       <use style="stroke:#000000;stroke-width:0.6;" x="57.6" xlink:href="#m9c8846f6f2" y="100.396458"/>
      </g>
     </g>
    </g>
    <g id="ytick_40">
     <g id="line2d_60">
      <g>
       <use style="stroke:#000000;stroke-width:0.6;" x="57.6" xlink:href="#m9c8846f6f2" y="91.973457"/>
      </g>
     </g>
    </g>
    <g id="ytick_41">
     <g id="line2d_61">
      <g>
       <use style="stroke:#000000;stroke-width:0.6;" x="57.6" xlink:href="#m9c8846f6f2" y="85.997242"/>
      </g>
     </g>
    </g>
    <g id="ytick_42">
     <g id="line2d_62">
      <g>
       <use style="stroke:#000000;stroke-width:0.6;" x="57.6" xlink:href="#m9c8846f6f2" y="81.36173"/>
      </g>
     </g>
    </g>
    <g id="ytick_43">
     <g id="line2d_63">
      <g>
       <use style="stroke:#000000;stroke-width:0.6;" x="57.6" xlink:href="#m9c8846f6f2" y="77.574241"/>
      </g>
     </g>
    </g>
    <g id="ytick_44">
     <g id="line2d_64">
      <g>
       <use style="stroke:#000000;stroke-width:0.6;" x="57.6" xlink:href="#m9c8846f6f2" y="74.371965"/>
      </g>
     </g>
    </g>
    <g id="ytick_45">
     <g id="line2d_65">
      <g>
       <use style="stroke:#000000;stroke-width:0.6;" x="57.6" xlink:href="#m9c8846f6f2" y="71.598027"/>
      </g>
     </g>
    </g>
    <g id="ytick_46">
     <g id="line2d_66">
      <g>
       <use style="stroke:#000000;stroke-width:0.6;" x="57.6" xlink:href="#m9c8846f6f2" y="69.15124"/>
      </g>
     </g>
    </g>
    <g id="ytick_47">
     <g id="line2d_67">
      <g>
       <use style="stroke:#000000;stroke-width:0.6;" x="57.6" xlink:href="#m9c8846f6f2" y="52.5633"/>
      </g>
     </g>
    </g>
    <g id="ytick_48">
     <g id="line2d_68">
      <g>
       <use style="stroke:#000000;stroke-width:0.6;" x="57.6" xlink:href="#m9c8846f6f2" y="44.140299"/>
      </g>
     </g>
    </g>
    <g id="text_15">
     <!-- KLD -->
     <defs>
      <path d="M 9.8125 72.90625 
L 19.671875 72.90625 
L 19.671875 42.09375 
L 52.390625 72.90625 
L 65.09375 72.90625 
L 28.90625 38.921875 
L 67.671875 0 
L 54.6875 0 
L 19.671875 35.109375 
L 19.671875 0 
L 9.8125 0 
z
" id="DejaVuSans-75"/>
      <path d="M 9.8125 72.90625 
L 19.671875 72.90625 
L 19.671875 8.296875 
L 55.171875 8.296875 
L 55.171875 0 
L 9.8125 0 
z
" id="DejaVuSans-76"/>
      <path d="M 19.671875 64.796875 
L 19.671875 8.109375 
L 31.59375 8.109375 
Q 46.6875 8.109375 53.6875 14.9375 
Q 60.6875 21.78125 60.6875 36.53125 
Q 60.6875 51.171875 53.6875 57.984375 
Q 46.6875 64.796875 31.59375 64.796875 
z
M 9.8125 72.90625 
L 30.078125 72.90625 
Q 51.265625 72.90625 61.171875 64.09375 
Q 71.09375 55.28125 71.09375 36.53125 
Q 71.09375 17.671875 61.125 8.828125 
Q 51.171875 0 30.078125 0 
L 9.8125 0 
z
" id="DejaVuSans-68"/>
     </defs>
     <g transform="translate(21.020313 184.442844)rotate(-90)scale(0.1 -0.1)">
      <use xlink:href="#DejaVuSans-75"/>
      <use x="65.576172" xlink:href="#DejaVuSans-76"/>
      <use x="121.289062" xlink:href="#DejaVuSans-68"/>
     </g>
    </g>
   </g>
   <g id="line2d_69">
    <path clip-path="url(#pe18a5c432e)" d="M 77.106954 91.288927 
L 83.665736 96.763574 
L 90.224518 98.348347 
L 96.7833 100.093325 
L 103.342082 99.478712 
L 109.900864 97.223502 
L 116.459646 96.902958 
L 123.018428 99.945278 
L 129.57721 100.30821 
L 136.135992 100.908264 
L 142.694774 101.118958 
L 149.253556 100.844179 
L 155.812338 100.16573 
L 162.37112 99.183464 
L 168.929902 97.683499 
L 175.488684 97.601942 
L 182.047466 98.344675 
L 188.606248 98.510595 
L 195.16503 98.026438 
L 201.723812 96.9849 
L 208.282594 96.535635 
L 214.841376 96.712597 
L 221.400158 96.616536 
L 227.95894 96.166651 
L 234.517722 95.070682 
L 241.076504 94.10607 
L 247.635286 92.652784 
L 254.194068 92.762274 
L 260.75285 92.955713 
L 267.311632 93.453092 
L 273.870414 93.855773 
L 280.429196 93.755234 
L 286.987978 94.011768 
L 293.54676 94.272544 
L 300.105542 94.53821 
L 306.664324 94.195666 
L 313.223107 93.991618 
L 319.781889 94.630667 
L 326.340671 95.361167 
L 332.899453 95.442612 
L 339.458235 95.10036 
L 346.017017 97.907512 
L 352.575799 97.367778 
L 359.134581 96.848118 
L 365.693363 97.562425 
L 372.252145 98.468961 
L 378.810927 99.145649 
L 385.369709 99.718091 
L 391.928491 100.02496 
L 398.487273 99.498262 
" style="fill:none;stroke:#aec7e8;stroke-linecap:square;stroke-width:1.5;"/>
   </g>
   <g id="line2d_70">
    <path clip-path="url(#pe18a5c432e)" d="M 73.832727 295.488 
L 84.161518 100.075761 
L 94.490308 99.429637 
L 104.819099 102.704146 
L 115.14789 98.855712 
L 125.47668 101.716653 
L 135.805471 104.043563 
L 146.134261 104.342328 
L 156.463052 102.580251 
L 166.791842 98.226639 
L 177.120633 98.653635 
L 187.449424 101.079795 
L 197.778214 100.186194 
L 208.107005 98.146423 
L 218.435795 97.505314 
L 228.764586 97.141898 
L 239.093377 96.834209 
L 249.422167 94.08581 
L 259.750958 94.551421 
L 270.079748 94.077459 
L 280.408539 95.158035 
L 290.737329 94.986628 
L 301.06612 95.775029 
L 311.394911 95.651585 
L 321.723701 96.230541 
L 332.052492 96.825947 
L 342.381282 95.258219 
L 352.710073 98.769935 
L 363.038863 99.171453 
L 373.367654 99.885111 
L 383.696445 101.360237 
L 394.025235 100.762985 
" style="fill:none;stroke:#1f77b4;stroke-linecap:square;stroke-width:1.5;"/>
   </g>
   <g id="line2d_71">
    <path clip-path="url(#pe18a5c432e)" d="M 77.106954 100.149557 
L 83.665736 116.767039 
L 90.224518 110.606519 
L 96.7833 101.591043 
L 103.342082 102.181325 
L 109.900864 107.708694 
L 116.459646 107.36608 
L 123.018428 108.569174 
L 129.57721 110.122806 
L 136.135992 112.197123 
L 142.694774 112.115712 
L 149.253556 114.900464 
L 155.812338 116.901154 
L 162.37112 118.929611 
L 168.929902 119.963801 
L 175.488684 121.257079 
L 182.047466 119.550295 
L 188.606248 119.757026 
L 195.16503 117.76 
L 201.723812 116.040517 
L 208.282594 113.125082 
L 214.841376 111.045281 
L 221.400158 109.54187 
L 227.95894 108.265977 
L 234.517722 105.056138 
L 241.076504 103.486248 
L 247.635286 103.38957 
L 254.194068 105.193353 
L 260.75285 105.526085 
L 267.311632 106.399179 
L 273.870414 105.576192 
L 280.429196 109.148841 
L 286.987978 109.141101 
L 293.54676 110.938761 
L 300.105542 109.00787 
L 306.664324 111.081643 
L 313.223107 112.177187 
L 319.781889 113.263158 
L 326.340671 113.093515 
L 332.899453 115.205746 
L 339.458235 115.360966 
L 346.017017 117.402556 
L 352.575799 116.652483 
L 359.134581 116.766431 
L 365.693363 118.130625 
L 372.252145 117.618125 
L 378.810927 116.688616 
L 385.369709 114.556429 
L 391.928491 114.249145 
L 398.487273 115.655308 
" style="fill:none;stroke:#ffbb78;stroke-linecap:square;stroke-width:1.5;"/>
   </g>
   <g id="line2d_72">
    <path clip-path="url(#pe18a5c432e)" d="M 73.832727 123.598371 
L 84.161518 78.874088 
L 94.490308 77.136092 
L 104.819099 76.347626 
L 115.14789 76.96649 
L 125.47668 77.778294 
L 135.805471 77.711655 
L 146.134261 77.111313 
L 156.463052 76.166191 
L 166.791842 75.17876 
L 177.120633 72.236705 
L 187.449424 72.948993 
L 197.778214 73.369179 
L 208.107005 70.379475 
L 218.435795 70.755114 
L 228.764586 69.698688 
L 239.093377 70.502098 
L 249.422167 71.700904 
L 259.750958 67.677211 
L 270.079748 72.488323 
L 280.408539 72.106292 
L 290.737329 64.956276 
L 301.06612 70.740376 
L 311.394911 69.467883 
L 321.723701 58.550205 
L 332.052492 65.695506 
L 342.381282 66.320387 
L 352.710073 66.974334 
L 363.038863 62.150056 
L 373.367654 62.850201 
L 383.696445 63.879302 
L 394.025235 63.946849 
" style="fill:none;stroke:#ff7f0e;stroke-linecap:square;stroke-width:1.5;"/>
   </g>
   <g id="line2d_73">
    <path clip-path="url(#pe18a5c432e)" d="M 77.106954 97.460126 
L 83.665736 110.174953 
L 90.224518 100.955916 
L 96.7833 100.763448 
L 103.342082 107.550201 
L 109.900864 111.643166 
L 116.459646 113.125808 
L 123.018428 114.108829 
L 129.57721 114.347284 
L 136.135992 115.265089 
L 142.694774 116.10225 
L 149.253556 115.569999 
L 155.812338 116.697935 
L 162.37112 117.27161 
L 168.929902 116.716525 
L 175.488684 114.987582 
L 182.047466 116.907475 
L 188.606248 117.442441 
L 195.16503 118.00206 
L 201.723812 119.48393 
L 208.282594 117.874497 
L 214.841376 116.50381 
L 221.400158 115.493552 
L 227.95894 115.511667 
L 234.517722 112.714922 
L 241.076504 111.510395 
L 247.635286 112.125782 
L 254.194068 107.420633 
L 260.75285 106.455683 
L 267.311632 108.891136 
L 273.870414 104.263628 
L 280.429196 102.073294 
L 286.987978 103.418744 
L 293.54676 102.142472 
L 300.105542 103.314816 
L 306.664324 104.311736 
L 313.223107 105.426006 
L 319.781889 106.930085 
L 326.340671 105.829693 
L 332.899453 108.966067 
L 339.458235 111.218761 
L 346.017017 113.55991 
L 352.575799 113.39032 
L 359.134581 113.399415 
L 365.693363 114.670181 
L 372.252145 114.495688 
L 378.810927 117.485846 
L 385.369709 117.554252 
L 391.928491 116.100089 
L 398.487273 113.091511 
" style="fill:none;stroke:#98df8a;stroke-linecap:square;stroke-width:1.5;"/>
   </g>
   <g id="line2d_74">
    <path clip-path="url(#pe18a5c432e)" d="M 73.832727 128.154705 
L 84.161518 84.364557 
L 94.490308 79.803038 
L 104.819099 85.207108 
L 115.14789 87.228141 
L 125.47668 83.481252 
L 135.805471 82.110898 
L 146.134261 81.796102 
L 156.463052 77.829488 
L 166.791842 83.010851 
L 177.120633 83.322446 
L 187.449424 83.111413 
L 197.778214 78.819622 
L 208.107005 76.06898 
L 218.435795 78.543777 
L 228.764586 77.196109 
L 239.093377 76.620718 
L 249.422167 76.198875 
L 259.750958 77.249055 
L 270.079748 70.760798 
L 280.408539 77.849578 
L 290.737329 77.012227 
L 301.06612 74.467649 
L 311.394911 78.781402 
L 321.723701 77.957927 
L 332.052492 77.584797 
L 342.381282 75.316445 
L 352.710073 75.910091 
L 363.038863 76.434789 
L 373.367654 75.628838 
L 383.696445 73.512003 
L 394.025235 72.998266 
" style="fill:none;stroke:#2ca02c;stroke-linecap:square;stroke-width:1.5;"/>
   </g>
   <g id="line2d_75">
    <path clip-path="url(#pe18a5c432e)" d="M 77.106954 70.494934 
L 83.665736 90.911802 
L 90.224518 98.186488 
L 96.7833 97.329289 
L 103.342082 94.15578 
L 109.900864 94.707349 
L 116.459646 94.992099 
L 123.018428 100.361306 
L 129.57721 100.968644 
L 136.135992 100.993864 
L 142.694774 102.002392 
L 149.253556 101.799349 
L 155.812338 103.187301 
L 162.37112 100.828247 
L 168.929902 102.301038 
L 175.488684 103.841814 
L 182.047466 103.520282 
L 188.606248 107.48703 
L 195.16503 115.0974 
L 201.723812 114.54302 
L 208.282594 112.935447 
L 214.841376 114.979628 
L 221.400158 111.996285 
L 227.95894 106.918003 
L 234.517722 105.674636 
L 241.076504 106.858614 
L 247.635286 105.571106 
L 254.194068 107.087644 
L 260.75285 104.26185 
L 267.311632 103.713149 
L 273.870414 102.983168 
L 280.429196 97.30985 
L 286.987978 96.55839 
L 293.54676 96.073194 
L 300.105542 96.998872 
L 306.664324 97.318947 
L 313.223107 97.478562 
L 319.781889 99.637788 
L 326.340671 100.409621 
L 332.899453 96.763936 
L 339.458235 97.140497 
L 346.017017 96.473159 
L 352.575799 95.867666 
L 359.134581 95.854759 
L 365.693363 98.643085 
L 372.252145 97.567927 
L 378.810927 95.967688 
L 385.369709 95.082585 
L 391.928491 95.84154 
L 398.487273 94.932738 
" style="fill:none;stroke:#ff9896;stroke-linecap:square;stroke-width:1.5;"/>
   </g>
   <g id="line2d_76">
    <path clip-path="url(#pe18a5c432e)" d="M 73.832727 219.602874 
L 84.161518 89.823048 
L 94.490308 100.349132 
L 104.819099 92.416417 
L 115.14789 94.486531 
L 125.47668 100.253952 
L 135.805471 100.718302 
L 146.134261 99.337039 
L 156.463052 98.85731 
L 166.791842 105.329978 
L 177.120633 103.423984 
L 187.449424 99.158814 
L 197.778214 122.225917 
L 208.107005 92.520721 
L 218.435795 121.432977 
L 228.764586 92.66048 
L 239.093377 111.341628 
L 249.422167 111.887393 
L 259.750958 102.974535 
L 270.079748 102.25775 
L 280.408539 101.373022 
L 290.737329 94.468915 
L 301.06612 100.368038 
L 311.394911 98.903891 
L 321.723701 95.351022 
L 332.052492 99.286348 
L 342.381282 91.765685 
L 352.710073 96.09296 
L 363.038863 101.005597 
L 373.367654 99.133955 
L 383.696445 98.934188 
L 394.025235 94.083146 
" style="fill:none;stroke:#d62728;stroke-linecap:square;stroke-width:1.5;"/>
   </g>
   <g id="patch_3">
    <path d="M 57.6 307.584 
L 57.6 41.472 
" style="fill:none;stroke:#000000;stroke-linecap:square;stroke-linejoin:miter;stroke-width:0.8;"/>
   </g>
   <g id="patch_4">
    <path d="M 414.72 307.584 
L 414.72 41.472 
" style="fill:none;stroke:#000000;stroke-linecap:square;stroke-linejoin:miter;stroke-width:0.8;"/>
   </g>
   <g id="patch_5">
    <path d="M 57.6 307.584 
L 414.72 307.584 
" style="fill:none;stroke:#000000;stroke-linecap:square;stroke-linejoin:miter;stroke-width:0.8;"/>
   </g>
   <g id="patch_6">
    <path d="M 57.6 41.472 
L 414.72 41.472 
" style="fill:none;stroke:#000000;stroke-linecap:square;stroke-linejoin:miter;stroke-width:0.8;"/>
   </g>
   <g id="text_16">
    <!-- KL Divergence -->
    <defs>
     <path id="DejaVuSans-32"/>
     <path d="M 9.421875 54.6875 
L 18.40625 54.6875 
L 18.40625 0 
L 9.421875 0 
z
M 9.421875 75.984375 
L 18.40625 75.984375 
L 18.40625 64.59375 
L 9.421875 64.59375 
z
" id="DejaVuSans-105"/>
     <path d="M 2.984375 54.6875 
L 12.5 54.6875 
L 29.59375 8.796875 
L 46.6875 54.6875 
L 56.203125 54.6875 
L 35.6875 0 
L 23.484375 0 
z
" id="DejaVuSans-118"/>
     <path d="M 41.109375 46.296875 
Q 39.59375 47.171875 37.8125 47.578125 
Q 36.03125 48 33.890625 48 
Q 26.265625 48 22.1875 43.046875 
Q 18.109375 38.09375 18.109375 28.8125 
L 18.109375 0 
L 9.078125 0 
L 9.078125 54.6875 
L 18.109375 54.6875 
L 18.109375 46.1875 
Q 20.953125 51.171875 25.484375 53.578125 
Q 30.03125 56 36.53125 56 
Q 37.453125 56 38.578125 55.875 
Q 39.703125 55.765625 41.0625 55.515625 
z
" id="DejaVuSans-114"/>
     <path d="M 45.40625 27.984375 
Q 45.40625 37.75 41.375 43.109375 
Q 37.359375 48.484375 30.078125 48.484375 
Q 22.859375 48.484375 18.828125 43.109375 
Q 14.796875 37.75 14.796875 27.984375 
Q 14.796875 18.265625 18.828125 12.890625 
Q 22.859375 7.515625 30.078125 7.515625 
Q 37.359375 7.515625 41.375 12.890625 
Q 45.40625 18.265625 45.40625 27.984375 
z
M 54.390625 6.78125 
Q 54.390625 -7.171875 48.1875 -13.984375 
Q 42 -20.796875 29.203125 -20.796875 
Q 24.46875 -20.796875 20.265625 -20.09375 
Q 16.0625 -19.390625 12.109375 -17.921875 
L 12.109375 -9.1875 
Q 16.0625 -11.328125 19.921875 -12.34375 
Q 23.78125 -13.375 27.78125 -13.375 
Q 36.625 -13.375 41.015625 -8.765625 
Q 45.40625 -4.15625 45.40625 5.171875 
L 45.40625 9.625 
Q 42.625 4.78125 38.28125 2.390625 
Q 33.9375 0 27.875 0 
Q 17.828125 0 11.671875 7.65625 
Q 5.515625 15.328125 5.515625 27.984375 
Q 5.515625 40.671875 11.671875 48.328125 
Q 17.828125 56 27.875 56 
Q 33.9375 56 38.28125 53.609375 
Q 42.625 51.21875 45.40625 46.390625 
L 45.40625 54.6875 
L 54.390625 54.6875 
z
" id="DejaVuSans-103"/>
     <path d="M 54.890625 33.015625 
L 54.890625 0 
L 45.90625 0 
L 45.90625 32.71875 
Q 45.90625 40.484375 42.875 44.328125 
Q 39.84375 48.1875 33.796875 48.1875 
Q 26.515625 48.1875 22.3125 43.546875 
Q 18.109375 38.921875 18.109375 30.90625 
L 18.109375 0 
L 9.078125 0 
L 9.078125 54.6875 
L 18.109375 54.6875 
L 18.109375 46.1875 
Q 21.34375 51.125 25.703125 53.5625 
Q 30.078125 56 35.796875 56 
Q 45.21875 56 50.046875 50.171875 
Q 54.890625 44.34375 54.890625 33.015625 
z
" id="DejaVuSans-110"/>
     <path d="M 48.78125 52.59375 
L 48.78125 44.1875 
Q 44.96875 46.296875 41.140625 47.34375 
Q 37.3125 48.390625 33.40625 48.390625 
Q 24.65625 48.390625 19.8125 42.84375 
Q 14.984375 37.3125 14.984375 27.296875 
Q 14.984375 17.28125 19.8125 11.734375 
Q 24.65625 6.203125 33.40625 6.203125 
Q 37.3125 6.203125 41.140625 7.25 
Q 44.96875 8.296875 48.78125 10.40625 
L 48.78125 2.09375 
Q 45.015625 0.34375 40.984375 -0.53125 
Q 36.96875 -1.421875 32.421875 -1.421875 
Q 20.0625 -1.421875 12.78125 6.34375 
Q 5.515625 14.109375 5.515625 27.296875 
Q 5.515625 40.671875 12.859375 48.328125 
Q 20.21875 56 33.015625 56 
Q 37.15625 56 41.109375 55.140625 
Q 45.0625 54.296875 48.78125 52.59375 
z
" id="DejaVuSans-99"/>
    </defs>
    <g transform="translate(192.685313 35.472)scale(0.12 -0.12)">
     <use xlink:href="#DejaVuSans-75"/>
     <use x="65.576172" xlink:href="#DejaVuSans-76"/>
     <use x="121.289062" xlink:href="#DejaVuSans-32"/>
     <use x="153.076172" xlink:href="#DejaVuSans-68"/>
     <use x="230.078125" xlink:href="#DejaVuSans-105"/>
     <use x="257.861328" xlink:href="#DejaVuSans-118"/>
     <use x="317.041016" xlink:href="#DejaVuSans-101"/>
     <use x="378.564453" xlink:href="#DejaVuSans-114"/>
     <use x="419.662109" xlink:href="#DejaVuSans-103"/>
     <use x="483.138672" xlink:href="#DejaVuSans-101"/>
     <use x="544.662109" xlink:href="#DejaVuSans-110"/>
     <use x="608.041016" xlink:href="#DejaVuSans-99"/>
     <use x="663.021484" xlink:href="#DejaVuSans-101"/>
    </g>
   </g>
   <g id="legend_1">
    <g id="patch_7">
     <path d="M 217.4075 302.584 
L 407.72 302.584 
Q 409.72 302.584 409.72 300.584 
L 409.72 184.159 
Q 409.72 182.159 407.72 182.159 
L 217.4075 182.159 
Q 215.4075 182.159 215.4075 184.159 
L 215.4075 300.584 
Q 215.4075 302.584 217.4075 302.584 
z
" style="fill:#ffffff;opacity:0.8;stroke:#cccccc;stroke-linejoin:miter;"/>
    </g>
    <g id="line2d_77">
     <path d="M 219.4075 190.257437 
L 239.4075 190.257437 
" style="fill:none;stroke:#aec7e8;stroke-linecap:square;stroke-width:1.5;"/>
    </g>
    <g id="line2d_78"/>
    <g id="text_17">
     <!-- Single Point KLD - Train -->
     <defs>
      <path d="M 9.421875 75.984375 
L 18.40625 75.984375 
L 18.40625 0 
L 9.421875 0 
z
" id="DejaVuSans-108"/>
      <path d="M 19.671875 64.796875 
L 19.671875 37.40625 
L 32.078125 37.40625 
Q 38.96875 37.40625 42.71875 40.96875 
Q 46.484375 44.53125 46.484375 51.125 
Q 46.484375 57.671875 42.71875 61.234375 
Q 38.96875 64.796875 32.078125 64.796875 
z
M 9.8125 72.90625 
L 32.078125 72.90625 
Q 44.34375 72.90625 50.609375 67.359375 
Q 56.890625 61.8125 56.890625 51.125 
Q 56.890625 40.328125 50.609375 34.8125 
Q 44.34375 29.296875 32.078125 29.296875 
L 19.671875 29.296875 
L 19.671875 0 
L 9.8125 0 
z
" id="DejaVuSans-80"/>
      <path d="M 30.609375 48.390625 
Q 23.390625 48.390625 19.1875 42.75 
Q 14.984375 37.109375 14.984375 27.296875 
Q 14.984375 17.484375 19.15625 11.84375 
Q 23.34375 6.203125 30.609375 6.203125 
Q 37.796875 6.203125 41.984375 11.859375 
Q 46.1875 17.53125 46.1875 27.296875 
Q 46.1875 37.015625 41.984375 42.703125 
Q 37.796875 48.390625 30.609375 48.390625 
z
M 30.609375 56 
Q 42.328125 56 49.015625 48.375 
Q 55.71875 40.765625 55.71875 27.296875 
Q 55.71875 13.875 49.015625 6.21875 
Q 42.328125 -1.421875 30.609375 -1.421875 
Q 18.84375 -1.421875 12.171875 6.21875 
Q 5.515625 13.875 5.515625 27.296875 
Q 5.515625 40.765625 12.171875 48.375 
Q 18.84375 56 30.609375 56 
z
" id="DejaVuSans-111"/>
      <path d="M 4.890625 31.390625 
L 31.203125 31.390625 
L 31.203125 23.390625 
L 4.890625 23.390625 
z
" id="DejaVuSans-45"/>
      <path d="M -0.296875 72.90625 
L 61.375 72.90625 
L 61.375 64.59375 
L 35.5 64.59375 
L 35.5 0 
L 25.59375 0 
L 25.59375 64.59375 
L -0.296875 64.59375 
z
" id="DejaVuSans-84"/>
      <path d="M 34.28125 27.484375 
Q 23.390625 27.484375 19.1875 25 
Q 14.984375 22.515625 14.984375 16.5 
Q 14.984375 11.71875 18.140625 8.90625 
Q 21.296875 6.109375 26.703125 6.109375 
Q 34.1875 6.109375 38.703125 11.40625 
Q 43.21875 16.703125 43.21875 25.484375 
L 43.21875 27.484375 
z
M 52.203125 31.203125 
L 52.203125 0 
L 43.21875 0 
L 43.21875 8.296875 
Q 40.140625 3.328125 35.546875 0.953125 
Q 30.953125 -1.421875 24.3125 -1.421875 
Q 15.921875 -1.421875 10.953125 3.296875 
Q 6 8.015625 6 15.921875 
Q 6 25.140625 12.171875 29.828125 
Q 18.359375 34.515625 30.609375 34.515625 
L 43.21875 34.515625 
L 43.21875 35.40625 
Q 43.21875 41.609375 39.140625 45 
Q 35.0625 48.390625 27.6875 48.390625 
Q 23 48.390625 18.546875 47.265625 
Q 14.109375 46.140625 10.015625 43.890625 
L 10.015625 52.203125 
Q 14.9375 54.109375 19.578125 55.046875 
Q 24.21875 56 28.609375 56 
Q 40.484375 56 46.34375 49.84375 
Q 52.203125 43.703125 52.203125 31.203125 
z
" id="DejaVuSans-97"/>
     </defs>
     <g transform="translate(247.4075 193.757437)scale(0.1 -0.1)">
      <use xlink:href="#DejaVuSans-83"/>
      <use x="63.476562" xlink:href="#DejaVuSans-105"/>
      <use x="91.259766" xlink:href="#DejaVuSans-110"/>
      <use x="154.638672" xlink:href="#DejaVuSans-103"/>
      <use x="218.115234" xlink:href="#DejaVuSans-108"/>
      <use x="245.898438" xlink:href="#DejaVuSans-101"/>
      <use x="307.421875" xlink:href="#DejaVuSans-32"/>
      <use x="339.208984" xlink:href="#DejaVuSans-80"/>
      <use x="399.464844" xlink:href="#DejaVuSans-111"/>
      <use x="460.646484" xlink:href="#DejaVuSans-105"/>
      <use x="488.429688" xlink:href="#DejaVuSans-110"/>
      <use x="551.808594" xlink:href="#DejaVuSans-116"/>
      <use x="591.017578" xlink:href="#DejaVuSans-32"/>
      <use x="622.804688" xlink:href="#DejaVuSans-75"/>
      <use x="688.380859" xlink:href="#DejaVuSans-76"/>
      <use x="744.09375" xlink:href="#DejaVuSans-68"/>
      <use x="821.095703" xlink:href="#DejaVuSans-32"/>
      <use x="852.882812" xlink:href="#DejaVuSans-45"/>
      <use x="888.966797" xlink:href="#DejaVuSans-32"/>
      <use x="920.753906" xlink:href="#DejaVuSans-84"/>
      <use x="981.619141" xlink:href="#DejaVuSans-114"/>
      <use x="1022.732422" xlink:href="#DejaVuSans-97"/>
      <use x="1084.011719" xlink:href="#DejaVuSans-105"/>
      <use x="1111.794922" xlink:href="#DejaVuSans-110"/>
     </g>
    </g>
    <g id="line2d_79">
     <path d="M 219.4075 204.935563 
L 239.4075 204.935563 
" style="fill:none;stroke:#1f77b4;stroke-linecap:square;stroke-width:1.5;"/>
    </g>
    <g id="line2d_80"/>
    <g id="text_18">
     <!-- Single Point KLD - Test -->
     <g transform="translate(247.4075 208.435563)scale(0.1 -0.1)">
      <use xlink:href="#DejaVuSans-83"/>
      <use x="63.476562" xlink:href="#DejaVuSans-105"/>
      <use x="91.259766" xlink:href="#DejaVuSans-110"/>
      <use x="154.638672" xlink:href="#DejaVuSans-103"/>
      <use x="218.115234" xlink:href="#DejaVuSans-108"/>
      <use x="245.898438" xlink:href="#DejaVuSans-101"/>
      <use x="307.421875" xlink:href="#DejaVuSans-32"/>
      <use x="339.208984" xlink:href="#DejaVuSans-80"/>
      <use x="399.464844" xlink:href="#DejaVuSans-111"/>
      <use x="460.646484" xlink:href="#DejaVuSans-105"/>
      <use x="488.429688" xlink:href="#DejaVuSans-110"/>
      <use x="551.808594" xlink:href="#DejaVuSans-116"/>
      <use x="591.017578" xlink:href="#DejaVuSans-32"/>
      <use x="622.804688" xlink:href="#DejaVuSans-75"/>
      <use x="688.380859" xlink:href="#DejaVuSans-76"/>
      <use x="744.09375" xlink:href="#DejaVuSans-68"/>
      <use x="821.095703" xlink:href="#DejaVuSans-32"/>
      <use x="852.882812" xlink:href="#DejaVuSans-45"/>
      <use x="888.966797" xlink:href="#DejaVuSans-32"/>
      <use x="920.753906" xlink:href="#DejaVuSans-84"/>
      <use x="981.572266" xlink:href="#DejaVuSans-101"/>
      <use x="1043.095703" xlink:href="#DejaVuSans-115"/>
      <use x="1095.195312" xlink:href="#DejaVuSans-116"/>
     </g>
    </g>
    <g id="line2d_81">
     <path d="M 219.4075 219.613687 
L 239.4075 219.613687 
" style="fill:none;stroke:#ffbb78;stroke-linecap:square;stroke-width:1.5;"/>
    </g>
    <g id="line2d_82"/>
    <g id="text_19">
     <!-- Batch: Momentum = 0.0 - Train -->
     <defs>
      <path d="M 19.671875 34.8125 
L 19.671875 8.109375 
L 35.5 8.109375 
Q 43.453125 8.109375 47.28125 11.40625 
Q 51.125 14.703125 51.125 21.484375 
Q 51.125 28.328125 47.28125 31.5625 
Q 43.453125 34.8125 35.5 34.8125 
z
M 19.671875 64.796875 
L 19.671875 42.828125 
L 34.28125 42.828125 
Q 41.5 42.828125 45.03125 45.53125 
Q 48.578125 48.25 48.578125 53.8125 
Q 48.578125 59.328125 45.03125 62.0625 
Q 41.5 64.796875 34.28125 64.796875 
z
M 9.8125 72.90625 
L 35.015625 72.90625 
Q 46.296875 72.90625 52.390625 68.21875 
Q 58.5 63.53125 58.5 54.890625 
Q 58.5 48.1875 55.375 44.234375 
Q 52.25 40.28125 46.1875 39.3125 
Q 53.46875 37.75 57.5 32.78125 
Q 61.53125 27.828125 61.53125 20.40625 
Q 61.53125 10.640625 54.890625 5.3125 
Q 48.25 0 35.984375 0 
L 9.8125 0 
z
" id="DejaVuSans-66"/>
      <path d="M 54.890625 33.015625 
L 54.890625 0 
L 45.90625 0 
L 45.90625 32.71875 
Q 45.90625 40.484375 42.875 44.328125 
Q 39.84375 48.1875 33.796875 48.1875 
Q 26.515625 48.1875 22.3125 43.546875 
Q 18.109375 38.921875 18.109375 30.90625 
L 18.109375 0 
L 9.078125 0 
L 9.078125 75.984375 
L 18.109375 75.984375 
L 18.109375 46.1875 
Q 21.34375 51.125 25.703125 53.5625 
Q 30.078125 56 35.796875 56 
Q 45.21875 56 50.046875 50.171875 
Q 54.890625 44.34375 54.890625 33.015625 
z
" id="DejaVuSans-104"/>
      <path d="M 11.71875 12.40625 
L 22.015625 12.40625 
L 22.015625 0 
L 11.71875 0 
z
M 11.71875 51.703125 
L 22.015625 51.703125 
L 22.015625 39.3125 
L 11.71875 39.3125 
z
" id="DejaVuSans-58"/>
      <path d="M 9.8125 72.90625 
L 24.515625 72.90625 
L 43.109375 23.296875 
L 61.8125 72.90625 
L 76.515625 72.90625 
L 76.515625 0 
L 66.890625 0 
L 66.890625 64.015625 
L 48.09375 14.015625 
L 38.1875 14.015625 
L 19.390625 64.015625 
L 19.390625 0 
L 9.8125 0 
z
" id="DejaVuSans-77"/>
      <path d="M 52 44.1875 
Q 55.375 50.25 60.0625 53.125 
Q 64.75 56 71.09375 56 
Q 79.640625 56 84.28125 50.015625 
Q 88.921875 44.046875 88.921875 33.015625 
L 88.921875 0 
L 79.890625 0 
L 79.890625 32.71875 
Q 79.890625 40.578125 77.09375 44.375 
Q 74.3125 48.1875 68.609375 48.1875 
Q 61.625 48.1875 57.5625 43.546875 
Q 53.515625 38.921875 53.515625 30.90625 
L 53.515625 0 
L 44.484375 0 
L 44.484375 32.71875 
Q 44.484375 40.625 41.703125 44.40625 
Q 38.921875 48.1875 33.109375 48.1875 
Q 26.21875 48.1875 22.15625 43.53125 
Q 18.109375 38.875 18.109375 30.90625 
L 18.109375 0 
L 9.078125 0 
L 9.078125 54.6875 
L 18.109375 54.6875 
L 18.109375 46.1875 
Q 21.1875 51.21875 25.484375 53.609375 
Q 29.78125 56 35.6875 56 
Q 41.65625 56 45.828125 52.96875 
Q 50 49.953125 52 44.1875 
z
" id="DejaVuSans-109"/>
      <path d="M 8.5 21.578125 
L 8.5 54.6875 
L 17.484375 54.6875 
L 17.484375 21.921875 
Q 17.484375 14.15625 20.5 10.265625 
Q 23.53125 6.390625 29.59375 6.390625 
Q 36.859375 6.390625 41.078125 11.03125 
Q 45.3125 15.671875 45.3125 23.6875 
L 45.3125 54.6875 
L 54.296875 54.6875 
L 54.296875 0 
L 45.3125 0 
L 45.3125 8.40625 
Q 42.046875 3.421875 37.71875 1 
Q 33.40625 -1.421875 27.6875 -1.421875 
Q 18.265625 -1.421875 13.375 4.4375 
Q 8.5 10.296875 8.5 21.578125 
z
M 31.109375 56 
z
" id="DejaVuSans-117"/>
      <path d="M 10.59375 45.40625 
L 73.1875 45.40625 
L 73.1875 37.203125 
L 10.59375 37.203125 
z
M 10.59375 25.484375 
L 73.1875 25.484375 
L 73.1875 17.1875 
L 10.59375 17.1875 
z
" id="DejaVuSans-61"/>
      <path d="M 10.6875 12.40625 
L 21 12.40625 
L 21 0 
L 10.6875 0 
z
" id="DejaVuSans-46"/>
     </defs>
     <g transform="translate(247.4075 223.113687)scale(0.1 -0.1)">
      <use xlink:href="#DejaVuSans-66"/>
      <use x="68.603516" xlink:href="#DejaVuSans-97"/>
      <use x="129.882812" xlink:href="#DejaVuSans-116"/>
      <use x="169.091797" xlink:href="#DejaVuSans-99"/>
      <use x="224.072266" xlink:href="#DejaVuSans-104"/>
      <use x="287.451172" xlink:href="#DejaVuSans-58"/>
      <use x="321.142578" xlink:href="#DejaVuSans-32"/>
      <use x="352.929688" xlink:href="#DejaVuSans-77"/>
      <use x="439.208984" xlink:href="#DejaVuSans-111"/>
      <use x="500.390625" xlink:href="#DejaVuSans-109"/>
      <use x="597.802734" xlink:href="#DejaVuSans-101"/>
      <use x="659.326172" xlink:href="#DejaVuSans-110"/>
      <use x="722.705078" xlink:href="#DejaVuSans-116"/>
      <use x="761.914062" xlink:href="#DejaVuSans-117"/>
      <use x="825.292969" xlink:href="#DejaVuSans-109"/>
      <use x="922.705078" xlink:href="#DejaVuSans-32"/>
      <use x="954.492188" xlink:href="#DejaVuSans-61"/>
      <use x="1038.28125" xlink:href="#DejaVuSans-32"/>
      <use x="1070.068359" xlink:href="#DejaVuSans-48"/>
      <use x="1133.691406" xlink:href="#DejaVuSans-46"/>
      <use x="1165.478516" xlink:href="#DejaVuSans-48"/>
      <use x="1229.101562" xlink:href="#DejaVuSans-32"/>
      <use x="1260.888672" xlink:href="#DejaVuSans-45"/>
      <use x="1296.972656" xlink:href="#DejaVuSans-32"/>
      <use x="1328.759766" xlink:href="#DejaVuSans-84"/>
      <use x="1389.625" xlink:href="#DejaVuSans-114"/>
      <use x="1430.738281" xlink:href="#DejaVuSans-97"/>
      <use x="1492.017578" xlink:href="#DejaVuSans-105"/>
      <use x="1519.800781" xlink:href="#DejaVuSans-110"/>
     </g>
    </g>
    <g id="line2d_83">
     <path d="M 219.4075 234.291812 
L 239.4075 234.291812 
" style="fill:none;stroke:#ff7f0e;stroke-linecap:square;stroke-width:1.5;"/>
    </g>
    <g id="line2d_84"/>
    <g id="text_20">
     <!-- Batch: Momentum = 0.0 - Test -->
     <g transform="translate(247.4075 237.791812)scale(0.1 -0.1)">
      <use xlink:href="#DejaVuSans-66"/>
      <use x="68.603516" xlink:href="#DejaVuSans-97"/>
      <use x="129.882812" xlink:href="#DejaVuSans-116"/>
      <use x="169.091797" xlink:href="#DejaVuSans-99"/>
      <use x="224.072266" xlink:href="#DejaVuSans-104"/>
      <use x="287.451172" xlink:href="#DejaVuSans-58"/>
      <use x="321.142578" xlink:href="#DejaVuSans-32"/>
      <use x="352.929688" xlink:href="#DejaVuSans-77"/>
      <use x="439.208984" xlink:href="#DejaVuSans-111"/>
      <use x="500.390625" xlink:href="#DejaVuSans-109"/>
      <use x="597.802734" xlink:href="#DejaVuSans-101"/>
      <use x="659.326172" xlink:href="#DejaVuSans-110"/>
      <use x="722.705078" xlink:href="#DejaVuSans-116"/>
      <use x="761.914062" xlink:href="#DejaVuSans-117"/>
      <use x="825.292969" xlink:href="#DejaVuSans-109"/>
      <use x="922.705078" xlink:href="#DejaVuSans-32"/>
      <use x="954.492188" xlink:href="#DejaVuSans-61"/>
      <use x="1038.28125" xlink:href="#DejaVuSans-32"/>
      <use x="1070.068359" xlink:href="#DejaVuSans-48"/>
      <use x="1133.691406" xlink:href="#DejaVuSans-46"/>
      <use x="1165.478516" xlink:href="#DejaVuSans-48"/>
      <use x="1229.101562" xlink:href="#DejaVuSans-32"/>
      <use x="1260.888672" xlink:href="#DejaVuSans-45"/>
      <use x="1296.972656" xlink:href="#DejaVuSans-32"/>
      <use x="1328.759766" xlink:href="#DejaVuSans-84"/>
      <use x="1389.578125" xlink:href="#DejaVuSans-101"/>
      <use x="1451.101562" xlink:href="#DejaVuSans-115"/>
      <use x="1503.201172" xlink:href="#DejaVuSans-116"/>
     </g>
    </g>
    <g id="line2d_85">
     <path d="M 219.4075 248.969937 
L 239.4075 248.969937 
" style="fill:none;stroke:#98df8a;stroke-linecap:square;stroke-width:1.5;"/>
    </g>
    <g id="line2d_86"/>
    <g id="text_21">
     <!-- Batch: Momentum = 0.1 - Train -->
     <g transform="translate(247.4075 252.469937)scale(0.1 -0.1)">
      <use xlink:href="#DejaVuSans-66"/>
      <use x="68.603516" xlink:href="#DejaVuSans-97"/>
      <use x="129.882812" xlink:href="#DejaVuSans-116"/>
      <use x="169.091797" xlink:href="#DejaVuSans-99"/>
      <use x="224.072266" xlink:href="#DejaVuSans-104"/>
      <use x="287.451172" xlink:href="#DejaVuSans-58"/>
      <use x="321.142578" xlink:href="#DejaVuSans-32"/>
      <use x="352.929688" xlink:href="#DejaVuSans-77"/>
      <use x="439.208984" xlink:href="#DejaVuSans-111"/>
      <use x="500.390625" xlink:href="#DejaVuSans-109"/>
      <use x="597.802734" xlink:href="#DejaVuSans-101"/>
      <use x="659.326172" xlink:href="#DejaVuSans-110"/>
      <use x="722.705078" xlink:href="#DejaVuSans-116"/>
      <use x="761.914062" xlink:href="#DejaVuSans-117"/>
      <use x="825.292969" xlink:href="#DejaVuSans-109"/>
      <use x="922.705078" xlink:href="#DejaVuSans-32"/>
      <use x="954.492188" xlink:href="#DejaVuSans-61"/>
      <use x="1038.28125" xlink:href="#DejaVuSans-32"/>
      <use x="1070.068359" xlink:href="#DejaVuSans-48"/>
      <use x="1133.691406" xlink:href="#DejaVuSans-46"/>
      <use x="1165.478516" xlink:href="#DejaVuSans-49"/>
      <use x="1229.101562" xlink:href="#DejaVuSans-32"/>
      <use x="1260.888672" xlink:href="#DejaVuSans-45"/>
      <use x="1296.972656" xlink:href="#DejaVuSans-32"/>
      <use x="1328.759766" xlink:href="#DejaVuSans-84"/>
      <use x="1389.625" xlink:href="#DejaVuSans-114"/>
      <use x="1430.738281" xlink:href="#DejaVuSans-97"/>
      <use x="1492.017578" xlink:href="#DejaVuSans-105"/>
      <use x="1519.800781" xlink:href="#DejaVuSans-110"/>
     </g>
    </g>
    <g id="line2d_87">
     <path d="M 219.4075 263.648062 
L 239.4075 263.648062 
" style="fill:none;stroke:#2ca02c;stroke-linecap:square;stroke-width:1.5;"/>
    </g>
    <g id="line2d_88"/>
    <g id="text_22">
     <!-- Batch: Momentum = 0.1 - Test -->
     <g transform="translate(247.4075 267.148062)scale(0.1 -0.1)">
      <use xlink:href="#DejaVuSans-66"/>
      <use x="68.603516" xlink:href="#DejaVuSans-97"/>
      <use x="129.882812" xlink:href="#DejaVuSans-116"/>
      <use x="169.091797" xlink:href="#DejaVuSans-99"/>
      <use x="224.072266" xlink:href="#DejaVuSans-104"/>
      <use x="287.451172" xlink:href="#DejaVuSans-58"/>
      <use x="321.142578" xlink:href="#DejaVuSans-32"/>
      <use x="352.929688" xlink:href="#DejaVuSans-77"/>
      <use x="439.208984" xlink:href="#DejaVuSans-111"/>
      <use x="500.390625" xlink:href="#DejaVuSans-109"/>
      <use x="597.802734" xlink:href="#DejaVuSans-101"/>
      <use x="659.326172" xlink:href="#DejaVuSans-110"/>
      <use x="722.705078" xlink:href="#DejaVuSans-116"/>
      <use x="761.914062" xlink:href="#DejaVuSans-117"/>
      <use x="825.292969" xlink:href="#DejaVuSans-109"/>
      <use x="922.705078" xlink:href="#DejaVuSans-32"/>
      <use x="954.492188" xlink:href="#DejaVuSans-61"/>
      <use x="1038.28125" xlink:href="#DejaVuSans-32"/>
      <use x="1070.068359" xlink:href="#DejaVuSans-48"/>
      <use x="1133.691406" xlink:href="#DejaVuSans-46"/>
      <use x="1165.478516" xlink:href="#DejaVuSans-49"/>
      <use x="1229.101562" xlink:href="#DejaVuSans-32"/>
      <use x="1260.888672" xlink:href="#DejaVuSans-45"/>
      <use x="1296.972656" xlink:href="#DejaVuSans-32"/>
      <use x="1328.759766" xlink:href="#DejaVuSans-84"/>
      <use x="1389.578125" xlink:href="#DejaVuSans-101"/>
      <use x="1451.101562" xlink:href="#DejaVuSans-115"/>
      <use x="1503.201172" xlink:href="#DejaVuSans-116"/>
     </g>
    </g>
    <g id="line2d_89">
     <path d="M 219.4075 278.326187 
L 239.4075 278.326187 
" style="fill:none;stroke:#ff9896;stroke-linecap:square;stroke-width:1.5;"/>
    </g>
    <g id="line2d_90"/>
    <g id="text_23">
     <!-- Batch: Momentum = 0.9 - Train -->
     <defs>
      <path d="M 10.984375 1.515625 
L 10.984375 10.5 
Q 14.703125 8.734375 18.5 7.8125 
Q 22.3125 6.890625 25.984375 6.890625 
Q 35.75 6.890625 40.890625 13.453125 
Q 46.046875 20.015625 46.78125 33.40625 
Q 43.953125 29.203125 39.59375 26.953125 
Q 35.25 24.703125 29.984375 24.703125 
Q 19.046875 24.703125 12.671875 31.3125 
Q 6.296875 37.9375 6.296875 49.421875 
Q 6.296875 60.640625 12.9375 67.421875 
Q 19.578125 74.21875 30.609375 74.21875 
Q 43.265625 74.21875 49.921875 64.515625 
Q 56.59375 54.828125 56.59375 36.375 
Q 56.59375 19.140625 48.40625 8.859375 
Q 40.234375 -1.421875 26.421875 -1.421875 
Q 22.703125 -1.421875 18.890625 -0.6875 
Q 15.09375 0.046875 10.984375 1.515625 
z
M 30.609375 32.421875 
Q 37.25 32.421875 41.125 36.953125 
Q 45.015625 41.5 45.015625 49.421875 
Q 45.015625 57.28125 41.125 61.84375 
Q 37.25 66.40625 30.609375 66.40625 
Q 23.96875 66.40625 20.09375 61.84375 
Q 16.21875 57.28125 16.21875 49.421875 
Q 16.21875 41.5 20.09375 36.953125 
Q 23.96875 32.421875 30.609375 32.421875 
z
" id="DejaVuSans-57"/>
     </defs>
     <g transform="translate(247.4075 281.826187)scale(0.1 -0.1)">
      <use xlink:href="#DejaVuSans-66"/>
      <use x="68.603516" xlink:href="#DejaVuSans-97"/>
      <use x="129.882812" xlink:href="#DejaVuSans-116"/>
      <use x="169.091797" xlink:href="#DejaVuSans-99"/>
      <use x="224.072266" xlink:href="#DejaVuSans-104"/>
      <use x="287.451172" xlink:href="#DejaVuSans-58"/>
      <use x="321.142578" xlink:href="#DejaVuSans-32"/>
      <use x="352.929688" xlink:href="#DejaVuSans-77"/>
      <use x="439.208984" xlink:href="#DejaVuSans-111"/>
      <use x="500.390625" xlink:href="#DejaVuSans-109"/>
      <use x="597.802734" xlink:href="#DejaVuSans-101"/>
      <use x="659.326172" xlink:href="#DejaVuSans-110"/>
      <use x="722.705078" xlink:href="#DejaVuSans-116"/>
      <use x="761.914062" xlink:href="#DejaVuSans-117"/>
      <use x="825.292969" xlink:href="#DejaVuSans-109"/>
      <use x="922.705078" xlink:href="#DejaVuSans-32"/>
      <use x="954.492188" xlink:href="#DejaVuSans-61"/>
      <use x="1038.28125" xlink:href="#DejaVuSans-32"/>
      <use x="1070.068359" xlink:href="#DejaVuSans-48"/>
      <use x="1133.691406" xlink:href="#DejaVuSans-46"/>
      <use x="1165.478516" xlink:href="#DejaVuSans-57"/>
      <use x="1229.101562" xlink:href="#DejaVuSans-32"/>
      <use x="1260.888672" xlink:href="#DejaVuSans-45"/>
      <use x="1296.972656" xlink:href="#DejaVuSans-32"/>
      <use x="1328.759766" xlink:href="#DejaVuSans-84"/>
      <use x="1389.625" xlink:href="#DejaVuSans-114"/>
      <use x="1430.738281" xlink:href="#DejaVuSans-97"/>
      <use x="1492.017578" xlink:href="#DejaVuSans-105"/>
      <use x="1519.800781" xlink:href="#DejaVuSans-110"/>
     </g>
    </g>
    <g id="line2d_91">
     <path d="M 219.4075 293.004312 
L 239.4075 293.004312 
" style="fill:none;stroke:#d62728;stroke-linecap:square;stroke-width:1.5;"/>
    </g>
    <g id="line2d_92"/>
    <g id="text_24">
     <!-- Batch: Momentum = 0.9 - Test -->
     <g transform="translate(247.4075 296.504312)scale(0.1 -0.1)">
      <use xlink:href="#DejaVuSans-66"/>
      <use x="68.603516" xlink:href="#DejaVuSans-97"/>
      <use x="129.882812" xlink:href="#DejaVuSans-116"/>
      <use x="169.091797" xlink:href="#DejaVuSans-99"/>
      <use x="224.072266" xlink:href="#DejaVuSans-104"/>
      <use x="287.451172" xlink:href="#DejaVuSans-58"/>
      <use x="321.142578" xlink:href="#DejaVuSans-32"/>
      <use x="352.929688" xlink:href="#DejaVuSans-77"/>
      <use x="439.208984" xlink:href="#DejaVuSans-111"/>
      <use x="500.390625" xlink:href="#DejaVuSans-109"/>
      <use x="597.802734" xlink:href="#DejaVuSans-101"/>
      <use x="659.326172" xlink:href="#DejaVuSans-110"/>
      <use x="722.705078" xlink:href="#DejaVuSans-116"/>
      <use x="761.914062" xlink:href="#DejaVuSans-117"/>
      <use x="825.292969" xlink:href="#DejaVuSans-109"/>
      <use x="922.705078" xlink:href="#DejaVuSans-32"/>
      <use x="954.492188" xlink:href="#DejaVuSans-61"/>
      <use x="1038.28125" xlink:href="#DejaVuSans-32"/>
      <use x="1070.068359" xlink:href="#DejaVuSans-48"/>
      <use x="1133.691406" xlink:href="#DejaVuSans-46"/>
      <use x="1165.478516" xlink:href="#DejaVuSans-57"/>
      <use x="1229.101562" xlink:href="#DejaVuSans-32"/>
      <use x="1260.888672" xlink:href="#DejaVuSans-45"/>
      <use x="1296.972656" xlink:href="#DejaVuSans-32"/>
      <use x="1328.759766" xlink:href="#DejaVuSans-84"/>
      <use x="1389.578125" xlink:href="#DejaVuSans-101"/>
      <use x="1451.101562" xlink:href="#DejaVuSans-115"/>
      <use x="1503.201172" xlink:href="#DejaVuSans-116"/>
     </g>
    </g>
   </g>
  </g>
 </g>
 <defs>
  <clipPath id="pe18a5c432e">
   <rect height="266.112" width="357.12" x="57.6" y="41.472"/>
  </clipPath>
 </defs>
</svg>
