<?xml version="1.0" encoding="utf-8" standalone="no"?>
<!DOCTYPE svg PUBLIC "-//W3C//DTD SVG 1.1//EN"
  "http://www.w3.org/Graphics/SVG/1.1/DTD/svg11.dtd">
<!-- Created with matplotlib (https://matplotlib.org/) -->
<svg height="345.6pt" version="1.1" viewBox="0 0 460.8 345.6" width="460.8pt" xmlns="http://www.w3.org/2000/svg" xmlns:xlink="http://www.w3.org/1999/xlink">
 <defs>
  <style type="text/css">
*{stroke-linecap:butt;stroke-linejoin:round;white-space:pre;}
  </style>
 </defs>
 <g id="figure_1">
  <g id="patch_1">
   <path d="M 0 345.6 
L 460.8 345.6 
L 460.8 0 
L 0 0 
z
" style="fill:#ffffff;"/>
  </g>
  <g id="axes_1">
   <g id="patch_2">
    <path d="M 57.6 307.584 
L 414.72 307.584 
L 414.72 41.472 
L 57.6 41.472 
z
" style="fill:#ffffff;"/>
   </g>
   <g id="PolyCollection_1">
    <defs>
     <path d="M 77.106954 -292.032 
L 77.106954 -194.199604 
L 83.665736 -162.711789 
L 90.224518 -157.137354 
L 96.7833 -162.697277 
L 103.342082 -146.577694 
L 109.900864 -143.494509 
L 116.459646 -140.825864 
L 123.018428 -136.97107 
L 129.57721 -132.835873 
L 136.135992 -131.981293 
L 142.694774 -129.821653 
L 149.253556 -122.474823 
L 155.812338 -120.357208 
L 162.37112 -117.037139 
L 168.929902 -118.556426 
L 175.488684 -117.599872 
L 182.047466 -115.877517 
L 188.606248 -112.919241 
L 195.16503 -111.227438 
L 201.723812 -108.420624 
L 208.282594 -110.008954 
L 214.841376 -106.066063 
L 221.400158 -102.061411 
L 227.95894 -99.461144 
L 234.517722 -102.516019 
L 241.076504 -102.59386 
L 247.635286 -102.992899 
L 254.194068 -105.745843 
L 260.75285 -100.865697 
L 267.311632 -98.225124 
L 273.870414 -100.342526 
L 280.429196 -99.352597 
L 286.987978 -96.094962 
L 293.54676 -97.946048 
L 300.105542 -96.826194 
L 306.664324 -96.736786 
L 313.223107 -93.431396 
L 319.781889 -94.289481 
L 326.340671 -94.453525 
L 332.899453 -90.784844 
L 339.458235 -98.310243 
L 346.017017 -97.186616 
L 352.575799 -93.344357 
L 359.134581 -92.60871 
L 365.693363 -91.558484 
L 372.252145 -94.584142 
L 378.810927 -92.576349 
L 385.369709 -91.024513 
L 391.928491 -97.282421 
L 398.487273 -93.003746 
L 398.487273 -131.824481 
L 398.487273 -131.824481 
L 391.928491 -137.527227 
L 385.369709 -128.18822 
L 378.810927 -127.337697 
L 372.252145 -127.670989 
L 365.693363 -128.349114 
L 359.134581 -129.94217 
L 352.575799 -130.155866 
L 346.017017 -134.583393 
L 339.458235 -130.284674 
L 332.899453 -132.790077 
L 326.340671 -128.984963 
L 319.781889 -130.248859 
L 313.223107 -136.181696 
L 306.664324 -132.814803 
L 300.105542 -128.686229 
L 293.54676 -129.059672 
L 286.987978 -134.887593 
L 280.429196 -136.305839 
L 273.870414 -131.439876 
L 267.311632 -135.233414 
L 260.75285 -130.542737 
L 254.194068 -136.996261 
L 247.635286 -132.689907 
L 241.076504 -132.764032 
L 234.517722 -136.025376 
L 227.95894 -133.956805 
L 221.400158 -133.475974 
L 214.841376 -135.493814 
L 208.282594 -140.279843 
L 201.723812 -140.339245 
L 195.16503 -139.95533 
L 188.606248 -140.536968 
L 182.047466 -143.030188 
L 175.488684 -145.361086 
L 168.929902 -147.110203 
L 162.37112 -147.87036 
L 155.812338 -151.283749 
L 149.253556 -151.036608 
L 142.694774 -158.389379 
L 136.135992 -163.0797 
L 129.57721 -165.381263 
L 123.018428 -172.567509 
L 116.459646 -173.322059 
L 109.900864 -191.825049 
L 103.342082 -193.400657 
L 96.7833 -202.204061 
L 90.224518 -208.321023 
L 83.665736 -230.439854 
L 77.106954 -292.032 
z
" id="m0a72b2db23" style="stroke:#aec7e8;stroke-opacity:0.25;"/>
    </defs>
    <g clip-path="url(#p5b4381a52a)">
     <use style="fill:#aec7e8;fill-opacity:0.25;stroke:#aec7e8;stroke-opacity:0.25;" x="0" xlink:href="#m0a72b2db23" y="345.6"/>
    </g>
   </g>
   <g id="PolyCollection_2">
    <defs>
     <path d="M 77.106954 -284.566977 
L 77.106954 -185.143934 
L 83.665736 -139.733637 
L 90.224518 -135.238606 
L 96.7833 -135.837938 
L 103.342082 -127.221247 
L 109.900864 -125.557775 
L 116.459646 -131.399805 
L 123.018428 -130.498732 
L 129.57721 -127.589674 
L 136.135992 -117.03332 
L 142.694774 -112.592173 
L 149.253556 -92.296086 
L 155.812338 -101.448941 
L 162.37112 -103.449933 
L 168.929902 -96.195578 
L 175.488684 -98.002758 
L 182.047466 -91.212687 
L 188.606248 -90.533645 
L 195.16503 -74.328562 
L 201.723812 -74.885565 
L 208.282594 -81.342526 
L 214.841376 -71.721697 
L 221.400158 -66.965273 
L 227.95894 -65.138065 
L 234.517722 -62.577037 
L 241.076504 -64.814448 
L 247.635286 -59.987537 
L 254.194068 -62.722467 
L 260.75285 -58.166173 
L 267.311632 -61.590881 
L 273.870414 -60.29121 
L 280.429196 -57.35026 
L 286.987978 -59.946536 
L 293.54676 -61.629439 
L 300.105542 -62.512402 
L 306.664324 -63.438598 
L 313.223107 -59.239633 
L 319.781889 -58.671503 
L 326.340671 -58.28893 
L 332.899453 -63.095495 
L 339.458235 -58.529125 
L 346.017017 -59.813963 
L 352.575799 -56.617283 
L 359.134581 -55.102051 
L 365.693363 -59.641102 
L 372.252145 -60.224131 
L 378.810927 -59.379194 
L 385.369709 -56.898321 
L 391.928491 -52.519531 
L 398.487273 -56.226064 
L 398.487273 -96.121338 
L 398.487273 -96.121338 
L 391.928491 -97.963746 
L 385.369709 -99.878533 
L 378.810927 -100.867249 
L 372.252145 -96.773987 
L 365.693363 -102.698219 
L 359.134581 -102.717375 
L 352.575799 -101.127997 
L 346.017017 -98.941511 
L 339.458235 -102.730271 
L 332.899453 -100.595965 
L 326.340671 -104.698348 
L 319.781889 -98.796837 
L 313.223107 -102.596125 
L 306.664324 -103.119149 
L 300.105542 -102.10402 
L 293.54676 -108.014458 
L 286.987978 -108.964611 
L 280.429196 -102.400676 
L 273.870414 -106.060504 
L 267.311632 -105.144598 
L 260.75285 -106.485723 
L 254.194068 -107.10618 
L 247.635286 -107.21554 
L 241.076504 -111.205123 
L 234.517722 -106.81375 
L 227.95894 -110.823684 
L 221.400158 -115.620418 
L 214.841376 -114.430091 
L 208.282594 -115.657785 
L 201.723812 -121.579695 
L 195.16503 -123.242697 
L 188.606248 -130.157591 
L 182.047466 -129.601321 
L 175.488684 -128.920655 
L 168.929902 -133.046225 
L 162.37112 -134.378847 
L 155.812338 -139.738581 
L 149.253556 -143.427847 
L 142.694774 -151.886763 
L 136.135992 -157.393406 
L 129.57721 -162.656944 
L 123.018428 -163.839336 
L 116.459646 -165.008605 
L 109.900864 -159.831512 
L 103.342082 -166.580062 
L 96.7833 -178.119329 
L 90.224518 -197.602291 
L 83.665736 -198.090023 
L 77.106954 -284.566977 
z
" id="m7050fa9ce2" style="stroke:#ffbb78;stroke-opacity:0.25;"/>
    </defs>
    <g clip-path="url(#p5b4381a52a)">
     <use style="fill:#ffbb78;fill-opacity:0.25;stroke:#ffbb78;stroke-opacity:0.25;" x="0" xlink:href="#m7050fa9ce2" y="345.6"/>
    </g>
   </g>
   <g id="PolyCollection_3">
    <defs>
     <path d="M 77.106954 -289.144366 
L 77.106954 -187.723396 
L 83.665736 -159.835053 
L 90.224518 -148.156315 
L 96.7833 -146.684127 
L 103.342082 -131.885441 
L 109.900864 -134.031638 
L 116.459646 -135.191776 
L 123.018428 -134.513133 
L 129.57721 -128.188941 
L 136.135992 -121.70088 
L 142.694774 -114.461176 
L 149.253556 -111.58743 
L 155.812338 -105.456813 
L 162.37112 -100.458641 
L 168.929902 -96.396757 
L 175.488684 -97.182213 
L 182.047466 -91.143334 
L 188.606248 -89.894953 
L 195.16503 -90.695363 
L 201.723812 -86.990431 
L 208.282594 -86.817562 
L 214.841376 -78.654467 
L 221.400158 -82.321527 
L 227.95894 -81.943738 
L 234.517722 -78.887308 
L 241.076504 -76.78125 
L 247.635286 -75.32614 
L 254.194068 -72.40255 
L 260.75285 -68.392479 
L 267.311632 -72.862288 
L 273.870414 -64.854304 
L 280.429196 -65.378552 
L 286.987978 -68.537382 
L 293.54676 -62.72028 
L 300.105542 -63.305855 
L 306.664324 -65.940174 
L 313.223107 -63.081235 
L 319.781889 -59.217422 
L 326.340671 -50.112 
L 332.899453 -63.263835 
L 339.458235 -62.088441 
L 346.017017 -61.667558 
L 352.575799 -62.156497 
L 359.134581 -61.088653 
L 365.693363 -59.089275 
L 372.252145 -58.361348 
L 378.810927 -52.867696 
L 385.369709 -59.541461 
L 391.928491 -55.058213 
L 398.487273 -51.564786 
L 398.487273 -95.336145 
L 398.487273 -95.336145 
L 391.928491 -95.221734 
L 385.369709 -96.23721 
L 378.810927 -94.755344 
L 372.252145 -94.738194 
L 365.693363 -97.107051 
L 359.134581 -99.97181 
L 352.575799 -94.250781 
L 346.017017 -98.72432 
L 339.458235 -100.350305 
L 332.899453 -97.305083 
L 326.340671 -103.238259 
L 319.781889 -98.586204 
L 313.223107 -98.203478 
L 306.664324 -100.825168 
L 300.105542 -101.830932 
L 293.54676 -99.296996 
L 286.987978 -102.939769 
L 280.429196 -101.808587 
L 273.870414 -100.805369 
L 267.311632 -106.542535 
L 260.75285 -106.572805 
L 254.194068 -103.941031 
L 247.635286 -107.413445 
L 241.076504 -106.547217 
L 234.517722 -107.747388 
L 227.95894 -110.805242 
L 221.400158 -113.964444 
L 214.841376 -116.559349 
L 208.282594 -116.816625 
L 201.723812 -117.790311 
L 195.16503 -120.264693 
L 188.606248 -123.611997 
L 182.047466 -122.774633 
L 175.488684 -125.104404 
L 168.929902 -130.83466 
L 162.37112 -131.057518 
L 155.812338 -138.520987 
L 149.253556 -148.307273 
L 142.694774 -150.957312 
L 136.135992 -155.078118 
L 129.57721 -157.469955 
L 123.018428 -167.816129 
L 116.459646 -171.49222 
L 109.900864 -169.085706 
L 103.342082 -183.999433 
L 96.7833 -187.351398 
L 90.224518 -197.811452 
L 83.665736 -200.972597 
L 77.106954 -289.144366 
z
" id="m9bcca98c31" style="stroke:#98df8a;stroke-opacity:0.25;"/>
    </defs>
    <g clip-path="url(#p5b4381a52a)">
     <use style="fill:#98df8a;fill-opacity:0.25;stroke:#98df8a;stroke-opacity:0.25;" x="0" xlink:href="#m9bcca98c31" y="345.6"/>
    </g>
   </g>
   <g id="PolyCollection_4">
    <defs>
     <path d="M 77.106954 -275.626175 
L 77.106954 -200.36737 
L 83.665736 -143.566411 
L 90.224518 -132.549023 
L 96.7833 -129.772559 
L 103.342082 -126.624655 
L 109.900864 -135.626936 
L 116.459646 -133.308933 
L 123.018428 -132.310516 
L 129.57721 -132.638952 
L 136.135992 -124.919791 
L 142.694774 -118.667979 
L 149.253556 -119.200913 
L 155.812338 -112.635379 
L 162.37112 -104.222942 
L 168.929902 -100.434852 
L 175.488684 -100.84642 
L 182.047466 -94.958451 
L 188.606248 -94.572928 
L 195.16503 -95.429206 
L 201.723812 -89.758957 
L 208.282594 -90.713823 
L 214.841376 -85.451401 
L 221.400158 -85.049821 
L 227.95894 -86.893648 
L 234.517722 -84.571566 
L 241.076504 -79.698143 
L 247.635286 -77.764725 
L 254.194068 -76.318819 
L 260.75285 -73.70865 
L 267.311632 -74.797537 
L 273.870414 -66.342117 
L 280.429196 -68.017771 
L 286.987978 -69.556167 
L 293.54676 -67.777556 
L 300.105542 -70.803374 
L 306.664324 -66.264558 
L 313.223107 -67.976018 
L 319.781889 -69.23874 
L 326.340671 -65.394994 
L 332.899453 -67.190065 
L 339.458235 -61.748197 
L 346.017017 -68.068131 
L 352.575799 -63.171387 
L 359.134581 -66.756483 
L 365.693363 -64.615196 
L 372.252145 -59.367623 
L 378.810927 -61.194331 
L 385.369709 -58.568533 
L 391.928491 -60.567956 
L 398.487273 -57.19178 
L 398.487273 -95.895772 
L 398.487273 -95.895772 
L 391.928491 -97.597677 
L 385.369709 -99.093549 
L 378.810927 -96.567807 
L 372.252145 -95.709129 
L 365.693363 -100.116936 
L 359.134581 -100.284732 
L 352.575799 -98.684602 
L 346.017017 -103.300213 
L 339.458235 -103.990835 
L 332.899453 -100.92876 
L 326.340671 -101.607466 
L 319.781889 -100.328017 
L 313.223107 -105.934556 
L 306.664324 -103.555076 
L 300.105542 -103.619364 
L 293.54676 -106.64081 
L 286.987978 -107.198546 
L 280.429196 -109.0511 
L 273.870414 -109.025245 
L 267.311632 -111.445882 
L 260.75285 -109.636122 
L 254.194068 -112.304619 
L 247.635286 -112.766737 
L 241.076504 -113.126762 
L 234.517722 -115.35092 
L 227.95894 -117.034729 
L 221.400158 -118.503783 
L 214.841376 -127.764402 
L 208.282594 -121.614584 
L 201.723812 -128.393969 
L 195.16503 -125.70151 
L 188.606248 -132.35023 
L 182.047466 -131.995095 
L 175.488684 -139.995236 
L 168.929902 -143.475943 
L 162.37112 -146.534395 
L 155.812338 -148.589225 
L 149.253556 -150.511325 
L 142.694774 -155.488968 
L 136.135992 -169.20193 
L 129.57721 -175.073482 
L 123.018428 -175.186717 
L 116.459646 -168.762502 
L 109.900864 -172.711851 
L 103.342082 -181.016229 
L 96.7833 -175.512621 
L 90.224518 -176.608676 
L 83.665736 -239.915318 
L 77.106954 -275.626175 
z
" id="mb9a7180878" style="stroke:#ff9896;stroke-opacity:0.25;"/>
    </defs>
    <g clip-path="url(#p5b4381a52a)">
     <use style="fill:#ff9896;fill-opacity:0.25;stroke:#ff9896;stroke-opacity:0.25;" x="0" xlink:href="#mb9a7180878" y="345.6"/>
    </g>
   </g>
   <g id="matplotlib.axis_1">
    <g id="xtick_1">
     <g id="line2d_1">
      <path clip-path="url(#p5b4381a52a)" d="M 73.832727 307.584 
L 73.832727 41.472 
" style="fill:none;stroke:#b0b0b0;stroke-linecap:square;stroke-width:0.8;"/>
     </g>
     <g id="line2d_2">
      <defs>
       <path d="M 0 0 
L 0 3.5 
" id="m84f12c797a" style="stroke:#000000;stroke-width:0.8;"/>
      </defs>
      <g>
       <use style="stroke:#000000;stroke-width:0.8;" x="73.832727" xlink:href="#m84f12c797a" y="307.584"/>
      </g>
     </g>
     <g id="text_1">
      <!-- 0 -->
      <defs>
       <path d="M 31.78125 66.40625 
Q 24.171875 66.40625 20.328125 58.90625 
Q 16.5 51.421875 16.5 36.375 
Q 16.5 21.390625 20.328125 13.890625 
Q 24.171875 6.390625 31.78125 6.390625 
Q 39.453125 6.390625 43.28125 13.890625 
Q 47.125 21.390625 47.125 36.375 
Q 47.125 51.421875 43.28125 58.90625 
Q 39.453125 66.40625 31.78125 66.40625 
z
M 31.78125 74.21875 
Q 44.046875 74.21875 50.515625 64.515625 
Q 56.984375 54.828125 56.984375 36.375 
Q 56.984375 17.96875 50.515625 8.265625 
Q 44.046875 -1.421875 31.78125 -1.421875 
Q 19.53125 -1.421875 13.0625 8.265625 
Q 6.59375 17.96875 6.59375 36.375 
Q 6.59375 54.828125 13.0625 64.515625 
Q 19.53125 74.21875 31.78125 74.21875 
z
" id="DejaVuSans-48"/>
      </defs>
      <g transform="translate(70.651477 322.182437)scale(0.1 -0.1)">
       <use xlink:href="#DejaVuSans-48"/>
      </g>
     </g>
    </g>
    <g id="xtick_2">
     <g id="line2d_3">
      <path clip-path="url(#p5b4381a52a)" d="M 125.47668 307.584 
L 125.47668 41.472 
" style="fill:none;stroke:#b0b0b0;stroke-linecap:square;stroke-width:0.8;"/>
     </g>
     <g id="line2d_4">
      <g>
       <use style="stroke:#000000;stroke-width:0.8;" x="125.47668" xlink:href="#m84f12c797a" y="307.584"/>
      </g>
     </g>
     <g id="text_2">
      <!-- 5000 -->
      <defs>
       <path d="M 10.796875 72.90625 
L 49.515625 72.90625 
L 49.515625 64.59375 
L 19.828125 64.59375 
L 19.828125 46.734375 
Q 21.96875 47.46875 24.109375 47.828125 
Q 26.265625 48.1875 28.421875 48.1875 
Q 40.625 48.1875 47.75 41.5 
Q 54.890625 34.8125 54.890625 23.390625 
Q 54.890625 11.625 47.5625 5.09375 
Q 40.234375 -1.421875 26.90625 -1.421875 
Q 22.3125 -1.421875 17.546875 -0.640625 
Q 12.796875 0.140625 7.71875 1.703125 
L 7.71875 11.625 
Q 12.109375 9.234375 16.796875 8.0625 
Q 21.484375 6.890625 26.703125 6.890625 
Q 35.15625 6.890625 40.078125 11.328125 
Q 45.015625 15.765625 45.015625 23.390625 
Q 45.015625 31 40.078125 35.4375 
Q 35.15625 39.890625 26.703125 39.890625 
Q 22.75 39.890625 18.8125 39.015625 
Q 14.890625 38.140625 10.796875 36.28125 
z
" id="DejaVuSans-53"/>
      </defs>
      <g transform="translate(112.75168 322.182437)scale(0.1 -0.1)">
       <use xlink:href="#DejaVuSans-53"/>
       <use x="63.623047" xlink:href="#DejaVuSans-48"/>
       <use x="127.246094" xlink:href="#DejaVuSans-48"/>
       <use x="190.869141" xlink:href="#DejaVuSans-48"/>
      </g>
     </g>
    </g>
    <g id="xtick_3">
     <g id="line2d_5">
      <path clip-path="url(#p5b4381a52a)" d="M 177.120633 307.584 
L 177.120633 41.472 
" style="fill:none;stroke:#b0b0b0;stroke-linecap:square;stroke-width:0.8;"/>
     </g>
     <g id="line2d_6">
      <g>
       <use style="stroke:#000000;stroke-width:0.8;" x="177.120633" xlink:href="#m84f12c797a" y="307.584"/>
      </g>
     </g>
     <g id="text_3">
      <!-- 10000 -->
      <defs>
       <path d="M 12.40625 8.296875 
L 28.515625 8.296875 
L 28.515625 63.921875 
L 10.984375 60.40625 
L 10.984375 69.390625 
L 28.421875 72.90625 
L 38.28125 72.90625 
L 38.28125 8.296875 
L 54.390625 8.296875 
L 54.390625 0 
L 12.40625 0 
z
" id="DejaVuSans-49"/>
      </defs>
      <g transform="translate(161.214383 322.182437)scale(0.1 -0.1)">
       <use xlink:href="#DejaVuSans-49"/>
       <use x="63.623047" xlink:href="#DejaVuSans-48"/>
       <use x="127.246094" xlink:href="#DejaVuSans-48"/>
       <use x="190.869141" xlink:href="#DejaVuSans-48"/>
       <use x="254.492188" xlink:href="#DejaVuSans-48"/>
      </g>
     </g>
    </g>
    <g id="xtick_4">
     <g id="line2d_7">
      <path clip-path="url(#p5b4381a52a)" d="M 228.764586 307.584 
L 228.764586 41.472 
" style="fill:none;stroke:#b0b0b0;stroke-linecap:square;stroke-width:0.8;"/>
     </g>
     <g id="line2d_8">
      <g>
       <use style="stroke:#000000;stroke-width:0.8;" x="228.764586" xlink:href="#m84f12c797a" y="307.584"/>
      </g>
     </g>
     <g id="text_4">
      <!-- 15000 -->
      <g transform="translate(212.858336 322.182437)scale(0.1 -0.1)">
       <use xlink:href="#DejaVuSans-49"/>
       <use x="63.623047" xlink:href="#DejaVuSans-53"/>
       <use x="127.246094" xlink:href="#DejaVuSans-48"/>
       <use x="190.869141" xlink:href="#DejaVuSans-48"/>
       <use x="254.492188" xlink:href="#DejaVuSans-48"/>
      </g>
     </g>
    </g>
    <g id="xtick_5">
     <g id="line2d_9">
      <path clip-path="url(#p5b4381a52a)" d="M 280.408539 307.584 
L 280.408539 41.472 
" style="fill:none;stroke:#b0b0b0;stroke-linecap:square;stroke-width:0.8;"/>
     </g>
     <g id="line2d_10">
      <g>
       <use style="stroke:#000000;stroke-width:0.8;" x="280.408539" xlink:href="#m84f12c797a" y="307.584"/>
      </g>
     </g>
     <g id="text_5">
      <!-- 20000 -->
      <defs>
       <path d="M 19.1875 8.296875 
L 53.609375 8.296875 
L 53.609375 0 
L 7.328125 0 
L 7.328125 8.296875 
Q 12.9375 14.109375 22.625 23.890625 
Q 32.328125 33.6875 34.8125 36.53125 
Q 39.546875 41.84375 41.421875 45.53125 
Q 43.3125 49.21875 43.3125 52.78125 
Q 43.3125 58.59375 39.234375 62.25 
Q 35.15625 65.921875 28.609375 65.921875 
Q 23.96875 65.921875 18.8125 64.3125 
Q 13.671875 62.703125 7.8125 59.421875 
L 7.8125 69.390625 
Q 13.765625 71.78125 18.9375 73 
Q 24.125 74.21875 28.421875 74.21875 
Q 39.75 74.21875 46.484375 68.546875 
Q 53.21875 62.890625 53.21875 53.421875 
Q 53.21875 48.921875 51.53125 44.890625 
Q 49.859375 40.875 45.40625 35.40625 
Q 44.1875 33.984375 37.640625 27.21875 
Q 31.109375 20.453125 19.1875 8.296875 
z
" id="DejaVuSans-50"/>
      </defs>
      <g transform="translate(264.502289 322.182437)scale(0.1 -0.1)">
       <use xlink:href="#DejaVuSans-50"/>
       <use x="63.623047" xlink:href="#DejaVuSans-48"/>
       <use x="127.246094" xlink:href="#DejaVuSans-48"/>
       <use x="190.869141" xlink:href="#DejaVuSans-48"/>
       <use x="254.492188" xlink:href="#DejaVuSans-48"/>
      </g>
     </g>
    </g>
    <g id="xtick_6">
     <g id="line2d_11">
      <path clip-path="url(#p5b4381a52a)" d="M 332.052492 307.584 
L 332.052492 41.472 
" style="fill:none;stroke:#b0b0b0;stroke-linecap:square;stroke-width:0.8;"/>
     </g>
     <g id="line2d_12">
      <g>
       <use style="stroke:#000000;stroke-width:0.8;" x="332.052492" xlink:href="#m84f12c797a" y="307.584"/>
      </g>
     </g>
     <g id="text_6">
      <!-- 25000 -->
      <g transform="translate(316.146242 322.182437)scale(0.1 -0.1)">
       <use xlink:href="#DejaVuSans-50"/>
       <use x="63.623047" xlink:href="#DejaVuSans-53"/>
       <use x="127.246094" xlink:href="#DejaVuSans-48"/>
       <use x="190.869141" xlink:href="#DejaVuSans-48"/>
       <use x="254.492188" xlink:href="#DejaVuSans-48"/>
      </g>
     </g>
    </g>
    <g id="xtick_7">
     <g id="line2d_13">
      <path clip-path="url(#p5b4381a52a)" d="M 383.696445 307.584 
L 383.696445 41.472 
" style="fill:none;stroke:#b0b0b0;stroke-linecap:square;stroke-width:0.8;"/>
     </g>
     <g id="line2d_14">
      <g>
       <use style="stroke:#000000;stroke-width:0.8;" x="383.696445" xlink:href="#m84f12c797a" y="307.584"/>
      </g>
     </g>
     <g id="text_7">
      <!-- 30000 -->
      <defs>
       <path d="M 40.578125 39.3125 
Q 47.65625 37.796875 51.625 33 
Q 55.609375 28.21875 55.609375 21.1875 
Q 55.609375 10.40625 48.1875 4.484375 
Q 40.765625 -1.421875 27.09375 -1.421875 
Q 22.515625 -1.421875 17.65625 -0.515625 
Q 12.796875 0.390625 7.625 2.203125 
L 7.625 11.71875 
Q 11.71875 9.328125 16.59375 8.109375 
Q 21.484375 6.890625 26.8125 6.890625 
Q 36.078125 6.890625 40.9375 10.546875 
Q 45.796875 14.203125 45.796875 21.1875 
Q 45.796875 27.640625 41.28125 31.265625 
Q 36.765625 34.90625 28.71875 34.90625 
L 20.21875 34.90625 
L 20.21875 43.015625 
L 29.109375 43.015625 
Q 36.375 43.015625 40.234375 45.921875 
Q 44.09375 48.828125 44.09375 54.296875 
Q 44.09375 59.90625 40.109375 62.90625 
Q 36.140625 65.921875 28.71875 65.921875 
Q 24.65625 65.921875 20.015625 65.03125 
Q 15.375 64.15625 9.8125 62.3125 
L 9.8125 71.09375 
Q 15.4375 72.65625 20.34375 73.4375 
Q 25.25 74.21875 29.59375 74.21875 
Q 40.828125 74.21875 47.359375 69.109375 
Q 53.90625 64.015625 53.90625 55.328125 
Q 53.90625 49.265625 50.4375 45.09375 
Q 46.96875 40.921875 40.578125 39.3125 
z
" id="DejaVuSans-51"/>
      </defs>
      <g transform="translate(367.790195 322.182437)scale(0.1 -0.1)">
       <use xlink:href="#DejaVuSans-51"/>
       <use x="63.623047" xlink:href="#DejaVuSans-48"/>
       <use x="127.246094" xlink:href="#DejaVuSans-48"/>
       <use x="190.869141" xlink:href="#DejaVuSans-48"/>
       <use x="254.492188" xlink:href="#DejaVuSans-48"/>
      </g>
     </g>
    </g>
    <g id="text_8">
     <!-- Steps -->
     <defs>
      <path d="M 53.515625 70.515625 
L 53.515625 60.890625 
Q 47.90625 63.578125 42.921875 64.890625 
Q 37.9375 66.21875 33.296875 66.21875 
Q 25.25 66.21875 20.875 63.09375 
Q 16.5 59.96875 16.5 54.203125 
Q 16.5 49.359375 19.40625 46.890625 
Q 22.3125 44.4375 30.421875 42.921875 
L 36.375 41.703125 
Q 47.40625 39.59375 52.65625 34.296875 
Q 57.90625 29 57.90625 20.125 
Q 57.90625 9.515625 50.796875 4.046875 
Q 43.703125 -1.421875 29.984375 -1.421875 
Q 24.8125 -1.421875 18.96875 -0.25 
Q 13.140625 0.921875 6.890625 3.21875 
L 6.890625 13.375 
Q 12.890625 10.015625 18.65625 8.296875 
Q 24.421875 6.59375 29.984375 6.59375 
Q 38.421875 6.59375 43.015625 9.90625 
Q 47.609375 13.234375 47.609375 19.390625 
Q 47.609375 24.75 44.3125 27.78125 
Q 41.015625 30.8125 33.5 32.328125 
L 27.484375 33.5 
Q 16.453125 35.6875 11.515625 40.375 
Q 6.59375 45.0625 6.59375 53.421875 
Q 6.59375 63.09375 13.40625 68.65625 
Q 20.21875 74.21875 32.171875 74.21875 
Q 37.3125 74.21875 42.625 73.28125 
Q 47.953125 72.359375 53.515625 70.515625 
z
" id="DejaVuSans-83"/>
      <path d="M 18.3125 70.21875 
L 18.3125 54.6875 
L 36.8125 54.6875 
L 36.8125 47.703125 
L 18.3125 47.703125 
L 18.3125 18.015625 
Q 18.3125 11.328125 20.140625 9.421875 
Q 21.96875 7.515625 27.59375 7.515625 
L 36.8125 7.515625 
L 36.8125 0 
L 27.59375 0 
Q 17.1875 0 13.234375 3.875 
Q 9.28125 7.765625 9.28125 18.015625 
L 9.28125 47.703125 
L 2.6875 47.703125 
L 2.6875 54.6875 
L 9.28125 54.6875 
L 9.28125 70.21875 
z
" id="DejaVuSans-116"/>
      <path d="M 56.203125 29.59375 
L 56.203125 25.203125 
L 14.890625 25.203125 
Q 15.484375 15.921875 20.484375 11.0625 
Q 25.484375 6.203125 34.421875 6.203125 
Q 39.59375 6.203125 44.453125 7.46875 
Q 49.3125 8.734375 54.109375 11.28125 
L 54.109375 2.78125 
Q 49.265625 0.734375 44.1875 -0.34375 
Q 39.109375 -1.421875 33.890625 -1.421875 
Q 20.796875 -1.421875 13.15625 6.1875 
Q 5.515625 13.8125 5.515625 26.8125 
Q 5.515625 40.234375 12.765625 48.109375 
Q 20.015625 56 32.328125 56 
Q 43.359375 56 49.78125 48.890625 
Q 56.203125 41.796875 56.203125 29.59375 
z
M 47.21875 32.234375 
Q 47.125 39.59375 43.09375 43.984375 
Q 39.0625 48.390625 32.421875 48.390625 
Q 24.90625 48.390625 20.390625 44.140625 
Q 15.875 39.890625 15.1875 32.171875 
z
" id="DejaVuSans-101"/>
      <path d="M 18.109375 8.203125 
L 18.109375 -20.796875 
L 9.078125 -20.796875 
L 9.078125 54.6875 
L 18.109375 54.6875 
L 18.109375 46.390625 
Q 20.953125 51.265625 25.265625 53.625 
Q 29.59375 56 35.59375 56 
Q 45.5625 56 51.78125 48.09375 
Q 58.015625 40.1875 58.015625 27.296875 
Q 58.015625 14.40625 51.78125 6.484375 
Q 45.5625 -1.421875 35.59375 -1.421875 
Q 29.59375 -1.421875 25.265625 0.953125 
Q 20.953125 3.328125 18.109375 8.203125 
z
M 48.6875 27.296875 
Q 48.6875 37.203125 44.609375 42.84375 
Q 40.53125 48.484375 33.40625 48.484375 
Q 26.265625 48.484375 22.1875 42.84375 
Q 18.109375 37.203125 18.109375 27.296875 
Q 18.109375 17.390625 22.1875 11.75 
Q 26.265625 6.109375 33.40625 6.109375 
Q 40.53125 6.109375 44.609375 11.75 
Q 48.6875 17.390625 48.6875 27.296875 
z
" id="DejaVuSans-112"/>
      <path d="M 44.28125 53.078125 
L 44.28125 44.578125 
Q 40.484375 46.53125 36.375 47.5 
Q 32.28125 48.484375 27.875 48.484375 
Q 21.1875 48.484375 17.84375 46.4375 
Q 14.5 44.390625 14.5 40.28125 
Q 14.5 37.15625 16.890625 35.375 
Q 19.28125 33.59375 26.515625 31.984375 
L 29.59375 31.296875 
Q 39.15625 29.25 43.1875 25.515625 
Q 47.21875 21.78125 47.21875 15.09375 
Q 47.21875 7.46875 41.1875 3.015625 
Q 35.15625 -1.421875 24.609375 -1.421875 
Q 20.21875 -1.421875 15.453125 -0.5625 
Q 10.6875 0.296875 5.421875 2 
L 5.421875 11.28125 
Q 10.40625 8.6875 15.234375 7.390625 
Q 20.0625 6.109375 24.8125 6.109375 
Q 31.15625 6.109375 34.5625 8.28125 
Q 37.984375 10.453125 37.984375 14.40625 
Q 37.984375 18.0625 35.515625 20.015625 
Q 33.0625 21.96875 24.703125 23.78125 
L 21.578125 24.515625 
Q 13.234375 26.265625 9.515625 29.90625 
Q 5.8125 33.546875 5.8125 39.890625 
Q 5.8125 47.609375 11.28125 51.796875 
Q 16.75 56 26.8125 56 
Q 31.78125 56 36.171875 55.265625 
Q 40.578125 54.546875 44.28125 53.078125 
z
" id="DejaVuSans-115"/>
     </defs>
     <g transform="translate(222.170156 335.860562)scale(0.1 -0.1)">
      <use xlink:href="#DejaVuSans-83"/>
      <use x="63.476562" xlink:href="#DejaVuSans-116"/>
      <use x="102.685547" xlink:href="#DejaVuSans-101"/>
      <use x="164.208984" xlink:href="#DejaVuSans-112"/>
      <use x="227.685547" xlink:href="#DejaVuSans-115"/>
     </g>
    </g>
   </g>
   <g id="matplotlib.axis_2">
    <g id="ytick_1">
     <g id="line2d_15">
      <path clip-path="url(#p5b4381a52a)" d="M 57.6 259.9254 
L 414.72 259.9254 
" style="fill:none;stroke:#b0b0b0;stroke-linecap:square;stroke-width:0.8;"/>
     </g>
     <g id="line2d_16">
      <defs>
       <path d="M 0 0 
L -3.5 0 
" id="mdc7b56db85" style="stroke:#000000;stroke-width:0.8;"/>
      </defs>
      <g>
       <use style="stroke:#000000;stroke-width:0.8;" x="57.6" xlink:href="#mdc7b56db85" y="259.9254"/>
      </g>
     </g>
     <g id="text_9">
      <!-- $\mathdefault{10^{-1}}$ -->
      <defs>
       <path d="M 10.59375 35.5 
L 73.1875 35.5 
L 73.1875 27.203125 
L 10.59375 27.203125 
z
" id="DejaVuSans-8722"/>
      </defs>
      <g transform="translate(27.1 263.724619)scale(0.1 -0.1)">
       <use transform="translate(0 0.684375)" xlink:href="#DejaVuSans-49"/>
       <use transform="translate(63.623047 0.684375)" xlink:href="#DejaVuSans-48"/>
       <use transform="translate(128.203125 38.965625)scale(0.7)" xlink:href="#DejaVuSans-8722"/>
       <use transform="translate(186.855469 38.965625)scale(0.7)" xlink:href="#DejaVuSans-49"/>
      </g>
     </g>
    </g>
    <g id="ytick_2">
     <g id="line2d_17">
      <defs>
       <path d="M 0 0 
L -2 0 
" id="m80696d386b" style="stroke:#000000;stroke-width:0.6;"/>
      </defs>
      <g>
       <use style="stroke:#000000;stroke-width:0.6;" x="57.6" xlink:href="#m80696d386b" y="295.263057"/>
      </g>
     </g>
    </g>
    <g id="ytick_3">
     <g id="line2d_18">
      <g>
       <use style="stroke:#000000;stroke-width:0.6;" x="57.6" xlink:href="#m80696d386b" y="282.033402"/>
      </g>
     </g>
    </g>
    <g id="ytick_4">
     <g id="line2d_19">
      <g>
       <use style="stroke:#000000;stroke-width:0.6;" x="57.6" xlink:href="#m80696d386b" y="270.364019"/>
      </g>
     </g>
    </g>
    <g id="ytick_5">
     <g id="line2d_20">
      <g>
       <use style="stroke:#000000;stroke-width:0.6;" x="57.6" xlink:href="#m80696d386b" y="191.251673"/>
      </g>
     </g>
    </g>
    <g id="ytick_6">
     <g id="line2d_21">
      <g>
       <use style="stroke:#000000;stroke-width:0.6;" x="57.6" xlink:href="#m80696d386b" y="151.080118"/>
      </g>
     </g>
    </g>
    <g id="ytick_7">
     <g id="line2d_22">
      <g>
       <use style="stroke:#000000;stroke-width:0.6;" x="57.6" xlink:href="#m80696d386b" y="122.577946"/>
      </g>
     </g>
    </g>
    <g id="ytick_8">
     <g id="line2d_23">
      <g>
       <use style="stroke:#000000;stroke-width:0.6;" x="57.6" xlink:href="#m80696d386b" y="100.469944"/>
      </g>
     </g>
    </g>
    <g id="ytick_9">
     <g id="line2d_24">
      <g>
       <use style="stroke:#000000;stroke-width:0.6;" x="57.6" xlink:href="#m80696d386b" y="82.406391"/>
      </g>
     </g>
    </g>
    <g id="ytick_10">
     <g id="line2d_25">
      <g>
       <use style="stroke:#000000;stroke-width:0.6;" x="57.6" xlink:href="#m80696d386b" y="67.133875"/>
      </g>
     </g>
    </g>
    <g id="ytick_11">
     <g id="line2d_26">
      <g>
       <use style="stroke:#000000;stroke-width:0.6;" x="57.6" xlink:href="#m80696d386b" y="53.90422"/>
      </g>
     </g>
    </g>
    <g id="ytick_12">
     <g id="line2d_27">
      <g>
       <use style="stroke:#000000;stroke-width:0.6;" x="57.6" xlink:href="#m80696d386b" y="42.234836"/>
      </g>
     </g>
    </g>
    <g id="text_10">
     <!-- Pixel Error -->
     <defs>
      <path d="M 19.671875 64.796875 
L 19.671875 37.40625 
L 32.078125 37.40625 
Q 38.96875 37.40625 42.71875 40.96875 
Q 46.484375 44.53125 46.484375 51.125 
Q 46.484375 57.671875 42.71875 61.234375 
Q 38.96875 64.796875 32.078125 64.796875 
z
M 9.8125 72.90625 
L 32.078125 72.90625 
Q 44.34375 72.90625 50.609375 67.359375 
Q 56.890625 61.8125 56.890625 51.125 
Q 56.890625 40.328125 50.609375 34.8125 
Q 44.34375 29.296875 32.078125 29.296875 
L 19.671875 29.296875 
L 19.671875 0 
L 9.8125 0 
z
" id="DejaVuSans-80"/>
      <path d="M 9.421875 54.6875 
L 18.40625 54.6875 
L 18.40625 0 
L 9.421875 0 
z
M 9.421875 75.984375 
L 18.40625 75.984375 
L 18.40625 64.59375 
L 9.421875 64.59375 
z
" id="DejaVuSans-105"/>
      <path d="M 54.890625 54.6875 
L 35.109375 28.078125 
L 55.90625 0 
L 45.3125 0 
L 29.390625 21.484375 
L 13.484375 0 
L 2.875 0 
L 24.125 28.609375 
L 4.6875 54.6875 
L 15.28125 54.6875 
L 29.78125 35.203125 
L 44.28125 54.6875 
z
" id="DejaVuSans-120"/>
      <path d="M 9.421875 75.984375 
L 18.40625 75.984375 
L 18.40625 0 
L 9.421875 0 
z
" id="DejaVuSans-108"/>
      <path id="DejaVuSans-32"/>
      <path d="M 9.8125 72.90625 
L 55.90625 72.90625 
L 55.90625 64.59375 
L 19.671875 64.59375 
L 19.671875 43.015625 
L 54.390625 43.015625 
L 54.390625 34.71875 
L 19.671875 34.71875 
L 19.671875 8.296875 
L 56.78125 8.296875 
L 56.78125 0 
L 9.8125 0 
z
" id="DejaVuSans-69"/>
      <path d="M 41.109375 46.296875 
Q 39.59375 47.171875 37.8125 47.578125 
Q 36.03125 48 33.890625 48 
Q 26.265625 48 22.1875 43.046875 
Q 18.109375 38.09375 18.109375 28.8125 
L 18.109375 0 
L 9.078125 0 
L 9.078125 54.6875 
L 18.109375 54.6875 
L 18.109375 46.1875 
Q 20.953125 51.171875 25.484375 53.578125 
Q 30.03125 56 36.53125 56 
Q 37.453125 56 38.578125 55.875 
Q 39.703125 55.765625 41.0625 55.515625 
z
" id="DejaVuSans-114"/>
      <path d="M 30.609375 48.390625 
Q 23.390625 48.390625 19.1875 42.75 
Q 14.984375 37.109375 14.984375 27.296875 
Q 14.984375 17.484375 19.15625 11.84375 
Q 23.34375 6.203125 30.609375 6.203125 
Q 37.796875 6.203125 41.984375 11.859375 
Q 46.1875 17.53125 46.1875 27.296875 
Q 46.1875 37.015625 41.984375 42.703125 
Q 37.796875 48.390625 30.609375 48.390625 
z
M 30.609375 56 
Q 42.328125 56 49.015625 48.375 
Q 55.71875 40.765625 55.71875 27.296875 
Q 55.71875 13.875 49.015625 6.21875 
Q 42.328125 -1.421875 30.609375 -1.421875 
Q 18.84375 -1.421875 12.171875 6.21875 
Q 5.515625 13.875 5.515625 27.296875 
Q 5.515625 40.765625 12.171875 48.375 
Q 18.84375 56 30.609375 56 
z
" id="DejaVuSans-111"/>
     </defs>
     <g transform="translate(21.020312 200.324875)rotate(-90)scale(0.1 -0.1)">
      <use xlink:href="#DejaVuSans-80"/>
      <use x="60.271484" xlink:href="#DejaVuSans-105"/>
      <use x="88.054688" xlink:href="#DejaVuSans-120"/>
      <use x="147.1875" xlink:href="#DejaVuSans-101"/>
      <use x="208.710938" xlink:href="#DejaVuSans-108"/>
      <use x="236.494141" xlink:href="#DejaVuSans-32"/>
      <use x="268.28125" xlink:href="#DejaVuSans-69"/>
      <use x="331.464844" xlink:href="#DejaVuSans-114"/>
      <use x="372.5625" xlink:href="#DejaVuSans-114"/>
      <use x="413.644531" xlink:href="#DejaVuSans-111"/>
      <use x="474.826172" xlink:href="#DejaVuSans-114"/>
     </g>
    </g>
   </g>
   <g id="line2d_28">
    <path clip-path="url(#p5b4381a52a)" d="M 77.106954 112.074257 
L 83.665736 152.956794 
L 90.224518 168.853528 
L 96.7833 165.787091 
L 103.342082 175.264662 
L 109.900864 184.034078 
L 116.459646 189.756024 
L 123.018428 191.762024 
L 129.57721 194.771338 
L 136.135992 198.644864 
L 142.694774 202.637576 
L 149.253556 207.743258 
L 155.812338 210.480184 
L 162.37112 212.707551 
L 168.929902 213.168195 
L 175.488684 213.778257 
L 182.047466 215.774109 
L 188.606248 218.508559 
L 195.16503 219.84595 
L 201.723812 219.10116 
L 208.282594 221.532679 
L 214.841376 223.553492 
L 221.400158 225.849659 
L 227.95894 227.37965 
L 234.517722 228.494207 
L 241.076504 227.597625 
L 247.635286 227.953532 
L 254.194068 225.779111 
L 260.75285 228.05131 
L 267.311632 227.557059 
L 273.870414 229.537622 
L 280.429196 228.608471 
L 286.987978 230.634972 
L 293.54676 231.217348 
L 300.105542 232.199937 
L 306.664324 230.720704 
L 313.223107 232.504507 
L 319.781889 232.392527 
L 326.340671 232.554399 
L 332.899453 231.585276 
L 339.458235 230.57566 
L 346.017017 231.098528 
L 352.575799 235.551867 
L 359.134581 236.107985 
L 365.693363 236.021887 
L 372.252145 235.853286 
L 378.810927 235.506798 
L 385.369709 235.382411 
L 391.928491 233.904586 
L 398.487273 234.666642 
" style="fill:none;stroke:#aec7e8;stroke-linecap:square;stroke-width:1.5;"/>
   </g>
   <g id="line2d_29">
    <path clip-path="url(#p5b4381a52a)" d="M 73.832727 96.462254 
L 84.161518 159.37861 
L 94.490308 169.489888 
L 104.819099 182.810298 
L 115.14789 189.762127 
L 125.47668 191.863885 
L 135.805471 195.457881 
L 146.134261 207.533275 
L 156.463052 209.071045 
L 166.791842 213.818441 
L 177.120633 213.788169 
L 187.449424 217.473433 
L 197.778214 220.082247 
L 208.107005 220.685782 
L 218.435795 223.944302 
L 228.764586 228.099976 
L 239.093377 225.743877 
L 249.422167 226.521288 
L 259.750958 220.561037 
L 270.079748 225.997015 
L 280.408539 229.131326 
L 290.737329 227.694835 
L 301.06612 227.952675 
L 311.394911 228.85545 
L 321.723701 228.063131 
L 332.052492 230.762599 
L 342.381282 226.10727 
L 352.710073 231.91928 
L 363.038863 232.10444 
L 373.367654 231.491745 
L 383.696445 230.484406 
L 394.025235 231.083682 
" style="fill:none;stroke:#1f77b4;stroke-linecap:square;stroke-width:1.5;"/>
   </g>
   <g id="line2d_30">
    <path clip-path="url(#p5b4381a52a)" d="M 77.106954 114.632727 
L 83.665736 181.621639 
L 90.224518 188.296025 
L 96.7833 188.331888 
L 103.342082 200.145473 
L 109.900864 202.489155 
L 116.459646 198.786456 
L 123.018428 197.02466 
L 129.57721 200.165789 
L 136.135992 206.661122 
L 142.694774 213.363543 
L 149.253556 219.615622 
L 155.812338 222.465243 
L 162.37112 225.546704 
L 168.929902 229.707607 
L 175.488684 231.643827 
L 182.047466 234.207195 
L 188.606248 236.240107 
L 195.16503 241.304016 
L 201.723812 243.320872 
L 208.282594 245.562112 
L 214.841376 249.224171 
L 221.400158 251.962169 
L 227.95894 253.948348 
L 234.517722 257.154834 
L 241.076504 257.734257 
L 247.635286 260.030428 
L 254.194068 259.725003 
L 260.75285 262.979505 
L 267.311632 262.816159 
L 273.870414 261.601333 
L 280.429196 264.699218 
L 286.987978 262.221801 
L 293.54676 261.013553 
L 300.105542 265.938865 
L 306.664324 261.949987 
L 313.223107 265.716283 
L 319.781889 265.462417 
L 326.340671 264.628772 
L 332.899453 264.438757 
L 339.458235 265.366045 
L 346.017017 264.192882 
L 352.575799 266.22583 
L 359.134581 266.79028 
L 365.693363 265.680743 
L 372.252145 268.271358 
L 378.810927 268.686618 
L 385.369709 269.425525 
L 391.928491 268.81879 
L 398.487273 269.060878 
" style="fill:none;stroke:#ffbb78;stroke-linecap:square;stroke-width:1.5;"/>
   </g>
   <g id="line2d_31">
    <path clip-path="url(#p5b4381a52a)" d="M 73.832727 74.726221 
L 84.161518 187.052328 
L 94.490308 202.952938 
L 104.819099 204.485047 
L 115.14789 198.130551 
L 125.47668 191.084476 
L 135.805471 202.689357 
L 146.134261 217.866536 
L 156.463052 216.201606 
L 166.791842 222.136196 
L 177.120633 222.944541 
L 187.449424 228.969176 
L 197.778214 231.3764 
L 208.107005 245.412192 
L 218.435795 249.72148 
L 228.764586 248.50178 
L 239.093377 252.437865 
L 249.422167 257.885227 
L 259.750958 245.33217 
L 270.079748 264.051929 
L 280.408539 263.445796 
L 290.737329 256.29437 
L 301.06612 255.751879 
L 311.394911 262.989214 
L 321.723701 258.592195 
L 332.052492 252.259341 
L 342.381282 250.632697 
L 352.710073 258.918557 
L 363.038863 255.00975 
L 373.367654 255.732983 
L 383.696445 258.279579 
L 394.025235 248.329442 
" style="fill:none;stroke:#ff7f0e;stroke-linecap:square;stroke-width:1.5;"/>
   </g>
   <g id="line2d_32">
    <path clip-path="url(#p5b4381a52a)" d="M 77.106954 121.011568 
L 83.665736 167.893644 
L 90.224518 169.752388 
L 96.7833 180.597278 
L 103.342082 189.561888 
L 109.900864 191.955411 
L 116.459646 193.245138 
L 123.018428 196.715984 
L 129.57721 200.999364 
L 136.135992 207.085948 
L 142.694774 213.213134 
L 149.253556 218.556116 
L 155.812338 224.918508 
L 162.37112 228.065145 
L 168.929902 231.237329 
L 175.488684 233.381151 
L 182.047466 236.200556 
L 188.606248 237.916277 
L 195.16503 239.720079 
L 201.723812 241.391711 
L 208.282594 242.956275 
L 214.841376 245.880626 
L 221.400158 247.911502 
L 227.95894 249.553627 
L 234.517722 252.014115 
L 241.076504 253.185711 
L 247.635286 252.874301 
L 254.194068 256.440437 
L 260.75285 256.169187 
L 267.311632 256.584766 
L 273.870414 259.09339 
L 280.429196 259.957491 
L 286.987978 259.510374 
L 293.54676 262.474081 
L 300.105542 262.572986 
L 306.664324 262.082025 
L 313.223107 264.594693 
L 319.781889 265.525586 
L 326.340671 266.229751 
L 332.899453 265.163992 
L 339.458235 265.284336 
L 346.017017 264.481748 
L 352.575799 266.244552 
L 359.134581 267.317734 
L 365.693363 265.298427 
L 372.252145 266.814522 
L 378.810927 268.994914 
L 385.369709 266.973606 
L 391.928491 269.814422 
L 398.487273 269.793753 
" style="fill:none;stroke:#98df8a;stroke-linecap:square;stroke-width:1.5;"/>
   </g>
   <g id="line2d_33">
    <path clip-path="url(#p5b4381a52a)" d="M 73.832727 93.115193 
L 84.161518 173.919791 
L 94.490308 179.050878 
L 104.819099 202.932108 
L 115.14789 190.175424 
L 125.47668 196.610377 
L 135.805471 204.551713 
L 146.134261 212.843104 
L 156.463052 221.289832 
L 166.791842 226.002226 
L 177.120633 227.425715 
L 187.449424 232.300979 
L 197.778214 233.073158 
L 208.107005 236.582378 
L 218.435795 237.293089 
L 228.764586 240.888953 
L 239.093377 244.646796 
L 249.422167 246.852167 
L 259.750958 247.315753 
L 270.079748 248.971439 
L 280.408539 254.173525 
L 290.737329 255.418376 
L 301.06612 253.521696 
L 311.394911 253.650885 
L 321.723701 256.678835 
L 332.052492 252.600883 
L 342.381282 255.399317 
L 352.710073 249.840743 
L 363.038863 252.84353 
L 373.367654 254.367169 
L 383.696445 256.064557 
L 394.025235 261.360954 
" style="fill:none;stroke:#2ca02c;stroke-linecap:square;stroke-width:1.5;"/>
   </g>
   <g id="line2d_34">
    <path clip-path="url(#p5b4381a52a)" d="M 77.106954 117.219195 
L 83.665736 159.533677 
L 90.224518 190.136295 
L 96.7833 196.48589 
L 103.342082 198.586718 
L 109.900864 191.877518 
L 116.459646 193.51699 
L 123.018428 190.147185 
L 129.57721 192.238256 
L 136.135992 200.928309 
L 142.694774 205.526052 
L 149.253556 210.968457 
L 155.812338 213.833887 
L 162.37112 217.817422 
L 168.929902 221.485237 
L 175.488684 225.471277 
L 182.047466 228.576107 
L 188.606248 231.106099 
L 195.16503 233.565684 
L 201.723812 237.020506 
L 208.282594 238.160503 
L 214.841376 241.249218 
L 221.400158 243.15712 
L 227.95894 243.933826 
L 234.517722 245.17782 
L 241.076504 248.023983 
L 247.635286 248.403246 
L 254.194068 250.50257 
L 260.75285 251.761762 
L 267.311632 252.269122 
L 273.870414 252.887144 
L 280.429196 254.02875 
L 286.987978 255.699422 
L 293.54676 256.91732 
L 300.105542 257.842375 
L 306.664324 258.113161 
L 313.223107 258.570553 
L 319.781889 260.478719 
L 326.340671 260.446731 
L 332.899453 261.162668 
L 339.458235 262.310069 
L 346.017017 262.189258 
L 352.575799 264.892101 
L 359.134581 262.207678 
L 365.693363 263.687082 
L 372.252145 263.614293 
L 378.810927 264.220167 
L 385.369709 264.967586 
L 391.928491 265.808001 
L 398.487273 266.030322 
" style="fill:none;stroke:#ff9896;stroke-linecap:square;stroke-width:1.5;"/>
   </g>
   <g id="line2d_35">
    <path clip-path="url(#p5b4381a52a)" d="M 73.832727 101.852055 
L 84.161518 180.962987 
L 94.490308 198.677339 
L 104.819099 195.128526 
L 115.14789 194.583916 
L 125.47668 196.136925 
L 135.805471 207.868321 
L 146.134261 203.824549 
L 156.463052 213.783208 
L 166.791842 213.543754 
L 177.120633 227.208559 
L 187.449424 225.630724 
L 197.778214 226.445839 
L 208.107005 234.159644 
L 218.435795 236.24494 
L 228.764586 241.451905 
L 239.093377 244.284196 
L 249.422167 240.47386 
L 259.750958 243.670472 
L 270.079748 241.18669 
L 280.408539 238.882739 
L 290.737329 242.879523 
L 301.06612 247.648718 
L 311.394911 247.884112 
L 321.723701 253.034112 
L 332.052492 254.13316 
L 342.381282 257.341735 
L 352.710073 250.394417 
L 363.038863 250.552362 
L 373.367654 249.979561 
L 383.696445 248.995669 
L 394.025235 255.767843 
" style="fill:none;stroke:#d62728;stroke-linecap:square;stroke-width:1.5;"/>
   </g>
   <g id="patch_3">
    <path d="M 57.6 307.584 
L 57.6 41.472 
" style="fill:none;stroke:#000000;stroke-linecap:square;stroke-linejoin:miter;stroke-width:0.8;"/>
   </g>
   <g id="patch_4">
    <path d="M 414.72 307.584 
L 414.72 41.472 
" style="fill:none;stroke:#000000;stroke-linecap:square;stroke-linejoin:miter;stroke-width:0.8;"/>
   </g>
   <g id="patch_5">
    <path d="M 57.6 307.584 
L 414.72 307.584 
" style="fill:none;stroke:#000000;stroke-linecap:square;stroke-linejoin:miter;stroke-width:0.8;"/>
   </g>
   <g id="patch_6">
    <path d="M 57.6 41.472 
L 414.72 41.472 
" style="fill:none;stroke:#000000;stroke-linecap:square;stroke-linejoin:miter;stroke-width:0.8;"/>
   </g>
   <g id="text_11">
    <!-- Pixel Error -->
    <g transform="translate(205.20375 35.472)scale(0.12 -0.12)">
     <use xlink:href="#DejaVuSans-80"/>
     <use x="60.271484" xlink:href="#DejaVuSans-105"/>
     <use x="88.054688" xlink:href="#DejaVuSans-120"/>
     <use x="147.1875" xlink:href="#DejaVuSans-101"/>
     <use x="208.710938" xlink:href="#DejaVuSans-108"/>
     <use x="236.494141" xlink:href="#DejaVuSans-32"/>
     <use x="268.28125" xlink:href="#DejaVuSans-69"/>
     <use x="331.464844" xlink:href="#DejaVuSans-114"/>
     <use x="372.5625" xlink:href="#DejaVuSans-114"/>
     <use x="413.644531" xlink:href="#DejaVuSans-111"/>
     <use x="474.826172" xlink:href="#DejaVuSans-114"/>
    </g>
   </g>
   <g id="legend_1">
    <g id="patch_7">
     <path d="M 217.4075 166.897 
L 407.72 166.897 
Q 409.72 166.897 409.72 164.897 
L 409.72 48.472 
Q 409.72 46.472 407.72 46.472 
L 217.4075 46.472 
Q 215.4075 46.472 215.4075 48.472 
L 215.4075 164.897 
Q 215.4075 166.897 217.4075 166.897 
z
" style="fill:#ffffff;opacity:0.8;stroke:#cccccc;stroke-linejoin:miter;"/>
    </g>
    <g id="line2d_36">
     <path d="M 219.4075 54.570438 
L 239.4075 54.570438 
" style="fill:none;stroke:#aec7e8;stroke-linecap:square;stroke-width:1.5;"/>
    </g>
    <g id="line2d_37"/>
    <g id="text_12">
     <!-- Single Point KLD - Train -->
     <defs>
      <path d="M 54.890625 33.015625 
L 54.890625 0 
L 45.90625 0 
L 45.90625 32.71875 
Q 45.90625 40.484375 42.875 44.328125 
Q 39.84375 48.1875 33.796875 48.1875 
Q 26.515625 48.1875 22.3125 43.546875 
Q 18.109375 38.921875 18.109375 30.90625 
L 18.109375 0 
L 9.078125 0 
L 9.078125 54.6875 
L 18.109375 54.6875 
L 18.109375 46.1875 
Q 21.34375 51.125 25.703125 53.5625 
Q 30.078125 56 35.796875 56 
Q 45.21875 56 50.046875 50.171875 
Q 54.890625 44.34375 54.890625 33.015625 
z
" id="DejaVuSans-110"/>
      <path d="M 45.40625 27.984375 
Q 45.40625 37.75 41.375 43.109375 
Q 37.359375 48.484375 30.078125 48.484375 
Q 22.859375 48.484375 18.828125 43.109375 
Q 14.796875 37.75 14.796875 27.984375 
Q 14.796875 18.265625 18.828125 12.890625 
Q 22.859375 7.515625 30.078125 7.515625 
Q 37.359375 7.515625 41.375 12.890625 
Q 45.40625 18.265625 45.40625 27.984375 
z
M 54.390625 6.78125 
Q 54.390625 -7.171875 48.1875 -13.984375 
Q 42 -20.796875 29.203125 -20.796875 
Q 24.46875 -20.796875 20.265625 -20.09375 
Q 16.0625 -19.390625 12.109375 -17.921875 
L 12.109375 -9.1875 
Q 16.0625 -11.328125 19.921875 -12.34375 
Q 23.78125 -13.375 27.78125 -13.375 
Q 36.625 -13.375 41.015625 -8.765625 
Q 45.40625 -4.15625 45.40625 5.171875 
L 45.40625 9.625 
Q 42.625 4.78125 38.28125 2.390625 
Q 33.9375 0 27.875 0 
Q 17.828125 0 11.671875 7.65625 
Q 5.515625 15.328125 5.515625 27.984375 
Q 5.515625 40.671875 11.671875 48.328125 
Q 17.828125 56 27.875 56 
Q 33.9375 56 38.28125 53.609375 
Q 42.625 51.21875 45.40625 46.390625 
L 45.40625 54.6875 
L 54.390625 54.6875 
z
" id="DejaVuSans-103"/>
      <path d="M 9.8125 72.90625 
L 19.671875 72.90625 
L 19.671875 42.09375 
L 52.390625 72.90625 
L 65.09375 72.90625 
L 28.90625 38.921875 
L 67.671875 0 
L 54.6875 0 
L 19.671875 35.109375 
L 19.671875 0 
L 9.8125 0 
z
" id="DejaVuSans-75"/>
      <path d="M 9.8125 72.90625 
L 19.671875 72.90625 
L 19.671875 8.296875 
L 55.171875 8.296875 
L 55.171875 0 
L 9.8125 0 
z
" id="DejaVuSans-76"/>
      <path d="M 19.671875 64.796875 
L 19.671875 8.109375 
L 31.59375 8.109375 
Q 46.6875 8.109375 53.6875 14.9375 
Q 60.6875 21.78125 60.6875 36.53125 
Q 60.6875 51.171875 53.6875 57.984375 
Q 46.6875 64.796875 31.59375 64.796875 
z
M 9.8125 72.90625 
L 30.078125 72.90625 
Q 51.265625 72.90625 61.171875 64.09375 
Q 71.09375 55.28125 71.09375 36.53125 
Q 71.09375 17.671875 61.125 8.828125 
Q 51.171875 0 30.078125 0 
L 9.8125 0 
z
" id="DejaVuSans-68"/>
      <path d="M 4.890625 31.390625 
L 31.203125 31.390625 
L 31.203125 23.390625 
L 4.890625 23.390625 
z
" id="DejaVuSans-45"/>
      <path d="M -0.296875 72.90625 
L 61.375 72.90625 
L 61.375 64.59375 
L 35.5 64.59375 
L 35.5 0 
L 25.59375 0 
L 25.59375 64.59375 
L -0.296875 64.59375 
z
" id="DejaVuSans-84"/>
      <path d="M 34.28125 27.484375 
Q 23.390625 27.484375 19.1875 25 
Q 14.984375 22.515625 14.984375 16.5 
Q 14.984375 11.71875 18.140625 8.90625 
Q 21.296875 6.109375 26.703125 6.109375 
Q 34.1875 6.109375 38.703125 11.40625 
Q 43.21875 16.703125 43.21875 25.484375 
L 43.21875 27.484375 
z
M 52.203125 31.203125 
L 52.203125 0 
L 43.21875 0 
L 43.21875 8.296875 
Q 40.140625 3.328125 35.546875 0.953125 
Q 30.953125 -1.421875 24.3125 -1.421875 
Q 15.921875 -1.421875 10.953125 3.296875 
Q 6 8.015625 6 15.921875 
Q 6 25.140625 12.171875 29.828125 
Q 18.359375 34.515625 30.609375 34.515625 
L 43.21875 34.515625 
L 43.21875 35.40625 
Q 43.21875 41.609375 39.140625 45 
Q 35.0625 48.390625 27.6875 48.390625 
Q 23 48.390625 18.546875 47.265625 
Q 14.109375 46.140625 10.015625 43.890625 
L 10.015625 52.203125 
Q 14.9375 54.109375 19.578125 55.046875 
Q 24.21875 56 28.609375 56 
Q 40.484375 56 46.34375 49.84375 
Q 52.203125 43.703125 52.203125 31.203125 
z
" id="DejaVuSans-97"/>
     </defs>
     <g transform="translate(247.4075 58.070438)scale(0.1 -0.1)">
      <use xlink:href="#DejaVuSans-83"/>
      <use x="63.476562" xlink:href="#DejaVuSans-105"/>
      <use x="91.259766" xlink:href="#DejaVuSans-110"/>
      <use x="154.638672" xlink:href="#DejaVuSans-103"/>
      <use x="218.115234" xlink:href="#DejaVuSans-108"/>
      <use x="245.898438" xlink:href="#DejaVuSans-101"/>
      <use x="307.421875" xlink:href="#DejaVuSans-32"/>
      <use x="339.208984" xlink:href="#DejaVuSans-80"/>
      <use x="399.464844" xlink:href="#DejaVuSans-111"/>
      <use x="460.646484" xlink:href="#DejaVuSans-105"/>
      <use x="488.429688" xlink:href="#DejaVuSans-110"/>
      <use x="551.808594" xlink:href="#DejaVuSans-116"/>
      <use x="591.017578" xlink:href="#DejaVuSans-32"/>
      <use x="622.804688" xlink:href="#DejaVuSans-75"/>
      <use x="688.380859" xlink:href="#DejaVuSans-76"/>
      <use x="744.09375" xlink:href="#DejaVuSans-68"/>
      <use x="821.095703" xlink:href="#DejaVuSans-32"/>
      <use x="852.882812" xlink:href="#DejaVuSans-45"/>
      <use x="888.966797" xlink:href="#DejaVuSans-32"/>
      <use x="920.753906" xlink:href="#DejaVuSans-84"/>
      <use x="981.619141" xlink:href="#DejaVuSans-114"/>
      <use x="1022.732422" xlink:href="#DejaVuSans-97"/>
      <use x="1084.011719" xlink:href="#DejaVuSans-105"/>
      <use x="1111.794922" xlink:href="#DejaVuSans-110"/>
     </g>
    </g>
    <g id="line2d_38">
     <path d="M 219.4075 69.248563 
L 239.4075 69.248563 
" style="fill:none;stroke:#1f77b4;stroke-linecap:square;stroke-width:1.5;"/>
    </g>
    <g id="line2d_39"/>
    <g id="text_13">
     <!-- Single Point KLD - Test -->
     <g transform="translate(247.4075 72.748563)scale(0.1 -0.1)">
      <use xlink:href="#DejaVuSans-83"/>
      <use x="63.476562" xlink:href="#DejaVuSans-105"/>
      <use x="91.259766" xlink:href="#DejaVuSans-110"/>
      <use x="154.638672" xlink:href="#DejaVuSans-103"/>
      <use x="218.115234" xlink:href="#DejaVuSans-108"/>
      <use x="245.898438" xlink:href="#DejaVuSans-101"/>
      <use x="307.421875" xlink:href="#DejaVuSans-32"/>
      <use x="339.208984" xlink:href="#DejaVuSans-80"/>
      <use x="399.464844" xlink:href="#DejaVuSans-111"/>
      <use x="460.646484" xlink:href="#DejaVuSans-105"/>
      <use x="488.429688" xlink:href="#DejaVuSans-110"/>
      <use x="551.808594" xlink:href="#DejaVuSans-116"/>
      <use x="591.017578" xlink:href="#DejaVuSans-32"/>
      <use x="622.804688" xlink:href="#DejaVuSans-75"/>
      <use x="688.380859" xlink:href="#DejaVuSans-76"/>
      <use x="744.09375" xlink:href="#DejaVuSans-68"/>
      <use x="821.095703" xlink:href="#DejaVuSans-32"/>
      <use x="852.882812" xlink:href="#DejaVuSans-45"/>
      <use x="888.966797" xlink:href="#DejaVuSans-32"/>
      <use x="920.753906" xlink:href="#DejaVuSans-84"/>
      <use x="981.572266" xlink:href="#DejaVuSans-101"/>
      <use x="1043.095703" xlink:href="#DejaVuSans-115"/>
      <use x="1095.195312" xlink:href="#DejaVuSans-116"/>
     </g>
    </g>
    <g id="line2d_40">
     <path d="M 219.4075 83.926688 
L 239.4075 83.926688 
" style="fill:none;stroke:#ffbb78;stroke-linecap:square;stroke-width:1.5;"/>
    </g>
    <g id="line2d_41"/>
    <g id="text_14">
     <!-- Batch: Momentum = 0.0 - Train -->
     <defs>
      <path d="M 19.671875 34.8125 
L 19.671875 8.109375 
L 35.5 8.109375 
Q 43.453125 8.109375 47.28125 11.40625 
Q 51.125 14.703125 51.125 21.484375 
Q 51.125 28.328125 47.28125 31.5625 
Q 43.453125 34.8125 35.5 34.8125 
z
M 19.671875 64.796875 
L 19.671875 42.828125 
L 34.28125 42.828125 
Q 41.5 42.828125 45.03125 45.53125 
Q 48.578125 48.25 48.578125 53.8125 
Q 48.578125 59.328125 45.03125 62.0625 
Q 41.5 64.796875 34.28125 64.796875 
z
M 9.8125 72.90625 
L 35.015625 72.90625 
Q 46.296875 72.90625 52.390625 68.21875 
Q 58.5 63.53125 58.5 54.890625 
Q 58.5 48.1875 55.375 44.234375 
Q 52.25 40.28125 46.1875 39.3125 
Q 53.46875 37.75 57.5 32.78125 
Q 61.53125 27.828125 61.53125 20.40625 
Q 61.53125 10.640625 54.890625 5.3125 
Q 48.25 0 35.984375 0 
L 9.8125 0 
z
" id="DejaVuSans-66"/>
      <path d="M 48.78125 52.59375 
L 48.78125 44.1875 
Q 44.96875 46.296875 41.140625 47.34375 
Q 37.3125 48.390625 33.40625 48.390625 
Q 24.65625 48.390625 19.8125 42.84375 
Q 14.984375 37.3125 14.984375 27.296875 
Q 14.984375 17.28125 19.8125 11.734375 
Q 24.65625 6.203125 33.40625 6.203125 
Q 37.3125 6.203125 41.140625 7.25 
Q 44.96875 8.296875 48.78125 10.40625 
L 48.78125 2.09375 
Q 45.015625 0.34375 40.984375 -0.53125 
Q 36.96875 -1.421875 32.421875 -1.421875 
Q 20.0625 -1.421875 12.78125 6.34375 
Q 5.515625 14.109375 5.515625 27.296875 
Q 5.515625 40.671875 12.859375 48.328125 
Q 20.21875 56 33.015625 56 
Q 37.15625 56 41.109375 55.140625 
Q 45.0625 54.296875 48.78125 52.59375 
z
" id="DejaVuSans-99"/>
      <path d="M 54.890625 33.015625 
L 54.890625 0 
L 45.90625 0 
L 45.90625 32.71875 
Q 45.90625 40.484375 42.875 44.328125 
Q 39.84375 48.1875 33.796875 48.1875 
Q 26.515625 48.1875 22.3125 43.546875 
Q 18.109375 38.921875 18.109375 30.90625 
L 18.109375 0 
L 9.078125 0 
L 9.078125 75.984375 
L 18.109375 75.984375 
L 18.109375 46.1875 
Q 21.34375 51.125 25.703125 53.5625 
Q 30.078125 56 35.796875 56 
Q 45.21875 56 50.046875 50.171875 
Q 54.890625 44.34375 54.890625 33.015625 
z
" id="DejaVuSans-104"/>
      <path d="M 11.71875 12.40625 
L 22.015625 12.40625 
L 22.015625 0 
L 11.71875 0 
z
M 11.71875 51.703125 
L 22.015625 51.703125 
L 22.015625 39.3125 
L 11.71875 39.3125 
z
" id="DejaVuSans-58"/>
      <path d="M 9.8125 72.90625 
L 24.515625 72.90625 
L 43.109375 23.296875 
L 61.8125 72.90625 
L 76.515625 72.90625 
L 76.515625 0 
L 66.890625 0 
L 66.890625 64.015625 
L 48.09375 14.015625 
L 38.1875 14.015625 
L 19.390625 64.015625 
L 19.390625 0 
L 9.8125 0 
z
" id="DejaVuSans-77"/>
      <path d="M 52 44.1875 
Q 55.375 50.25 60.0625 53.125 
Q 64.75 56 71.09375 56 
Q 79.640625 56 84.28125 50.015625 
Q 88.921875 44.046875 88.921875 33.015625 
L 88.921875 0 
L 79.890625 0 
L 79.890625 32.71875 
Q 79.890625 40.578125 77.09375 44.375 
Q 74.3125 48.1875 68.609375 48.1875 
Q 61.625 48.1875 57.5625 43.546875 
Q 53.515625 38.921875 53.515625 30.90625 
L 53.515625 0 
L 44.484375 0 
L 44.484375 32.71875 
Q 44.484375 40.625 41.703125 44.40625 
Q 38.921875 48.1875 33.109375 48.1875 
Q 26.21875 48.1875 22.15625 43.53125 
Q 18.109375 38.875 18.109375 30.90625 
L 18.109375 0 
L 9.078125 0 
L 9.078125 54.6875 
L 18.109375 54.6875 
L 18.109375 46.1875 
Q 21.1875 51.21875 25.484375 53.609375 
Q 29.78125 56 35.6875 56 
Q 41.65625 56 45.828125 52.96875 
Q 50 49.953125 52 44.1875 
z
" id="DejaVuSans-109"/>
      <path d="M 8.5 21.578125 
L 8.5 54.6875 
L 17.484375 54.6875 
L 17.484375 21.921875 
Q 17.484375 14.15625 20.5 10.265625 
Q 23.53125 6.390625 29.59375 6.390625 
Q 36.859375 6.390625 41.078125 11.03125 
Q 45.3125 15.671875 45.3125 23.6875 
L 45.3125 54.6875 
L 54.296875 54.6875 
L 54.296875 0 
L 45.3125 0 
L 45.3125 8.40625 
Q 42.046875 3.421875 37.71875 1 
Q 33.40625 -1.421875 27.6875 -1.421875 
Q 18.265625 -1.421875 13.375 4.4375 
Q 8.5 10.296875 8.5 21.578125 
z
M 31.109375 56 
z
" id="DejaVuSans-117"/>
      <path d="M 10.59375 45.40625 
L 73.1875 45.40625 
L 73.1875 37.203125 
L 10.59375 37.203125 
z
M 10.59375 25.484375 
L 73.1875 25.484375 
L 73.1875 17.1875 
L 10.59375 17.1875 
z
" id="DejaVuSans-61"/>
      <path d="M 10.6875 12.40625 
L 21 12.40625 
L 21 0 
L 10.6875 0 
z
" id="DejaVuSans-46"/>
     </defs>
     <g transform="translate(247.4075 87.426688)scale(0.1 -0.1)">
      <use xlink:href="#DejaVuSans-66"/>
      <use x="68.603516" xlink:href="#DejaVuSans-97"/>
      <use x="129.882812" xlink:href="#DejaVuSans-116"/>
      <use x="169.091797" xlink:href="#DejaVuSans-99"/>
      <use x="224.072266" xlink:href="#DejaVuSans-104"/>
      <use x="287.451172" xlink:href="#DejaVuSans-58"/>
      <use x="321.142578" xlink:href="#DejaVuSans-32"/>
      <use x="352.929688" xlink:href="#DejaVuSans-77"/>
      <use x="439.208984" xlink:href="#DejaVuSans-111"/>
      <use x="500.390625" xlink:href="#DejaVuSans-109"/>
      <use x="597.802734" xlink:href="#DejaVuSans-101"/>
      <use x="659.326172" xlink:href="#DejaVuSans-110"/>
      <use x="722.705078" xlink:href="#DejaVuSans-116"/>
      <use x="761.914062" xlink:href="#DejaVuSans-117"/>
      <use x="825.292969" xlink:href="#DejaVuSans-109"/>
      <use x="922.705078" xlink:href="#DejaVuSans-32"/>
      <use x="954.492188" xlink:href="#DejaVuSans-61"/>
      <use x="1038.28125" xlink:href="#DejaVuSans-32"/>
      <use x="1070.068359" xlink:href="#DejaVuSans-48"/>
      <use x="1133.691406" xlink:href="#DejaVuSans-46"/>
      <use x="1165.478516" xlink:href="#DejaVuSans-48"/>
      <use x="1229.101562" xlink:href="#DejaVuSans-32"/>
      <use x="1260.888672" xlink:href="#DejaVuSans-45"/>
      <use x="1296.972656" xlink:href="#DejaVuSans-32"/>
      <use x="1328.759766" xlink:href="#DejaVuSans-84"/>
      <use x="1389.625" xlink:href="#DejaVuSans-114"/>
      <use x="1430.738281" xlink:href="#DejaVuSans-97"/>
      <use x="1492.017578" xlink:href="#DejaVuSans-105"/>
      <use x="1519.800781" xlink:href="#DejaVuSans-110"/>
     </g>
    </g>
    <g id="line2d_42">
     <path d="M 219.4075 98.604813 
L 239.4075 98.604813 
" style="fill:none;stroke:#ff7f0e;stroke-linecap:square;stroke-width:1.5;"/>
    </g>
    <g id="line2d_43"/>
    <g id="text_15">
     <!-- Batch: Momentum = 0.0 - Test -->
     <g transform="translate(247.4075 102.104813)scale(0.1 -0.1)">
      <use xlink:href="#DejaVuSans-66"/>
      <use x="68.603516" xlink:href="#DejaVuSans-97"/>
      <use x="129.882812" xlink:href="#DejaVuSans-116"/>
      <use x="169.091797" xlink:href="#DejaVuSans-99"/>
      <use x="224.072266" xlink:href="#DejaVuSans-104"/>
      <use x="287.451172" xlink:href="#DejaVuSans-58"/>
      <use x="321.142578" xlink:href="#DejaVuSans-32"/>
      <use x="352.929688" xlink:href="#DejaVuSans-77"/>
      <use x="439.208984" xlink:href="#DejaVuSans-111"/>
      <use x="500.390625" xlink:href="#DejaVuSans-109"/>
      <use x="597.802734" xlink:href="#DejaVuSans-101"/>
      <use x="659.326172" xlink:href="#DejaVuSans-110"/>
      <use x="722.705078" xlink:href="#DejaVuSans-116"/>
      <use x="761.914062" xlink:href="#DejaVuSans-117"/>
      <use x="825.292969" xlink:href="#DejaVuSans-109"/>
      <use x="922.705078" xlink:href="#DejaVuSans-32"/>
      <use x="954.492188" xlink:href="#DejaVuSans-61"/>
      <use x="1038.28125" xlink:href="#DejaVuSans-32"/>
      <use x="1070.068359" xlink:href="#DejaVuSans-48"/>
      <use x="1133.691406" xlink:href="#DejaVuSans-46"/>
      <use x="1165.478516" xlink:href="#DejaVuSans-48"/>
      <use x="1229.101562" xlink:href="#DejaVuSans-32"/>
      <use x="1260.888672" xlink:href="#DejaVuSans-45"/>
      <use x="1296.972656" xlink:href="#DejaVuSans-32"/>
      <use x="1328.759766" xlink:href="#DejaVuSans-84"/>
      <use x="1389.578125" xlink:href="#DejaVuSans-101"/>
      <use x="1451.101562" xlink:href="#DejaVuSans-115"/>
      <use x="1503.201172" xlink:href="#DejaVuSans-116"/>
     </g>
    </g>
    <g id="line2d_44">
     <path d="M 219.4075 113.282938 
L 239.4075 113.282938 
" style="fill:none;stroke:#98df8a;stroke-linecap:square;stroke-width:1.5;"/>
    </g>
    <g id="line2d_45"/>
    <g id="text_16">
     <!-- Batch: Momentum = 0.1 - Train -->
     <g transform="translate(247.4075 116.782938)scale(0.1 -0.1)">
      <use xlink:href="#DejaVuSans-66"/>
      <use x="68.603516" xlink:href="#DejaVuSans-97"/>
      <use x="129.882812" xlink:href="#DejaVuSans-116"/>
      <use x="169.091797" xlink:href="#DejaVuSans-99"/>
      <use x="224.072266" xlink:href="#DejaVuSans-104"/>
      <use x="287.451172" xlink:href="#DejaVuSans-58"/>
      <use x="321.142578" xlink:href="#DejaVuSans-32"/>
      <use x="352.929688" xlink:href="#DejaVuSans-77"/>
      <use x="439.208984" xlink:href="#DejaVuSans-111"/>
      <use x="500.390625" xlink:href="#DejaVuSans-109"/>
      <use x="597.802734" xlink:href="#DejaVuSans-101"/>
      <use x="659.326172" xlink:href="#DejaVuSans-110"/>
      <use x="722.705078" xlink:href="#DejaVuSans-116"/>
      <use x="761.914062" xlink:href="#DejaVuSans-117"/>
      <use x="825.292969" xlink:href="#DejaVuSans-109"/>
      <use x="922.705078" xlink:href="#DejaVuSans-32"/>
      <use x="954.492188" xlink:href="#DejaVuSans-61"/>
      <use x="1038.28125" xlink:href="#DejaVuSans-32"/>
      <use x="1070.068359" xlink:href="#DejaVuSans-48"/>
      <use x="1133.691406" xlink:href="#DejaVuSans-46"/>
      <use x="1165.478516" xlink:href="#DejaVuSans-49"/>
      <use x="1229.101562" xlink:href="#DejaVuSans-32"/>
      <use x="1260.888672" xlink:href="#DejaVuSans-45"/>
      <use x="1296.972656" xlink:href="#DejaVuSans-32"/>
      <use x="1328.759766" xlink:href="#DejaVuSans-84"/>
      <use x="1389.625" xlink:href="#DejaVuSans-114"/>
      <use x="1430.738281" xlink:href="#DejaVuSans-97"/>
      <use x="1492.017578" xlink:href="#DejaVuSans-105"/>
      <use x="1519.800781" xlink:href="#DejaVuSans-110"/>
     </g>
    </g>
    <g id="line2d_46">
     <path d="M 219.4075 127.961063 
L 239.4075 127.961063 
" style="fill:none;stroke:#2ca02c;stroke-linecap:square;stroke-width:1.5;"/>
    </g>
    <g id="line2d_47"/>
    <g id="text_17">
     <!-- Batch: Momentum = 0.1 - Test -->
     <g transform="translate(247.4075 131.461063)scale(0.1 -0.1)">
      <use xlink:href="#DejaVuSans-66"/>
      <use x="68.603516" xlink:href="#DejaVuSans-97"/>
      <use x="129.882812" xlink:href="#DejaVuSans-116"/>
      <use x="169.091797" xlink:href="#DejaVuSans-99"/>
      <use x="224.072266" xlink:href="#DejaVuSans-104"/>
      <use x="287.451172" xlink:href="#DejaVuSans-58"/>
      <use x="321.142578" xlink:href="#DejaVuSans-32"/>
      <use x="352.929688" xlink:href="#DejaVuSans-77"/>
      <use x="439.208984" xlink:href="#DejaVuSans-111"/>
      <use x="500.390625" xlink:href="#DejaVuSans-109"/>
      <use x="597.802734" xlink:href="#DejaVuSans-101"/>
      <use x="659.326172" xlink:href="#DejaVuSans-110"/>
      <use x="722.705078" xlink:href="#DejaVuSans-116"/>
      <use x="761.914062" xlink:href="#DejaVuSans-117"/>
      <use x="825.292969" xlink:href="#DejaVuSans-109"/>
      <use x="922.705078" xlink:href="#DejaVuSans-32"/>
      <use x="954.492188" xlink:href="#DejaVuSans-61"/>
      <use x="1038.28125" xlink:href="#DejaVuSans-32"/>
      <use x="1070.068359" xlink:href="#DejaVuSans-48"/>
      <use x="1133.691406" xlink:href="#DejaVuSans-46"/>
      <use x="1165.478516" xlink:href="#DejaVuSans-49"/>
      <use x="1229.101562" xlink:href="#DejaVuSans-32"/>
      <use x="1260.888672" xlink:href="#DejaVuSans-45"/>
      <use x="1296.972656" xlink:href="#DejaVuSans-32"/>
      <use x="1328.759766" xlink:href="#DejaVuSans-84"/>
      <use x="1389.578125" xlink:href="#DejaVuSans-101"/>
      <use x="1451.101562" xlink:href="#DejaVuSans-115"/>
      <use x="1503.201172" xlink:href="#DejaVuSans-116"/>
     </g>
    </g>
    <g id="line2d_48">
     <path d="M 219.4075 142.639188 
L 239.4075 142.639188 
" style="fill:none;stroke:#ff9896;stroke-linecap:square;stroke-width:1.5;"/>
    </g>
    <g id="line2d_49"/>
    <g id="text_18">
     <!-- Batch: Momentum = 0.9 - Train -->
     <defs>
      <path d="M 10.984375 1.515625 
L 10.984375 10.5 
Q 14.703125 8.734375 18.5 7.8125 
Q 22.3125 6.890625 25.984375 6.890625 
Q 35.75 6.890625 40.890625 13.453125 
Q 46.046875 20.015625 46.78125 33.40625 
Q 43.953125 29.203125 39.59375 26.953125 
Q 35.25 24.703125 29.984375 24.703125 
Q 19.046875 24.703125 12.671875 31.3125 
Q 6.296875 37.9375 6.296875 49.421875 
Q 6.296875 60.640625 12.9375 67.421875 
Q 19.578125 74.21875 30.609375 74.21875 
Q 43.265625 74.21875 49.921875 64.515625 
Q 56.59375 54.828125 56.59375 36.375 
Q 56.59375 19.140625 48.40625 8.859375 
Q 40.234375 -1.421875 26.421875 -1.421875 
Q 22.703125 -1.421875 18.890625 -0.6875 
Q 15.09375 0.046875 10.984375 1.515625 
z
M 30.609375 32.421875 
Q 37.25 32.421875 41.125 36.953125 
Q 45.015625 41.5 45.015625 49.421875 
Q 45.015625 57.28125 41.125 61.84375 
Q 37.25 66.40625 30.609375 66.40625 
Q 23.96875 66.40625 20.09375 61.84375 
Q 16.21875 57.28125 16.21875 49.421875 
Q 16.21875 41.5 20.09375 36.953125 
Q 23.96875 32.421875 30.609375 32.421875 
z
" id="DejaVuSans-57"/>
     </defs>
     <g transform="translate(247.4075 146.139188)scale(0.1 -0.1)">
      <use xlink:href="#DejaVuSans-66"/>
      <use x="68.603516" xlink:href="#DejaVuSans-97"/>
      <use x="129.882812" xlink:href="#DejaVuSans-116"/>
      <use x="169.091797" xlink:href="#DejaVuSans-99"/>
      <use x="224.072266" xlink:href="#DejaVuSans-104"/>
      <use x="287.451172" xlink:href="#DejaVuSans-58"/>
      <use x="321.142578" xlink:href="#DejaVuSans-32"/>
      <use x="352.929688" xlink:href="#DejaVuSans-77"/>
      <use x="439.208984" xlink:href="#DejaVuSans-111"/>
      <use x="500.390625" xlink:href="#DejaVuSans-109"/>
      <use x="597.802734" xlink:href="#DejaVuSans-101"/>
      <use x="659.326172" xlink:href="#DejaVuSans-110"/>
      <use x="722.705078" xlink:href="#DejaVuSans-116"/>
      <use x="761.914062" xlink:href="#DejaVuSans-117"/>
      <use x="825.292969" xlink:href="#DejaVuSans-109"/>
      <use x="922.705078" xlink:href="#DejaVuSans-32"/>
      <use x="954.492188" xlink:href="#DejaVuSans-61"/>
      <use x="1038.28125" xlink:href="#DejaVuSans-32"/>
      <use x="1070.068359" xlink:href="#DejaVuSans-48"/>
      <use x="1133.691406" xlink:href="#DejaVuSans-46"/>
      <use x="1165.478516" xlink:href="#DejaVuSans-57"/>
      <use x="1229.101562" xlink:href="#DejaVuSans-32"/>
      <use x="1260.888672" xlink:href="#DejaVuSans-45"/>
      <use x="1296.972656" xlink:href="#DejaVuSans-32"/>
      <use x="1328.759766" xlink:href="#DejaVuSans-84"/>
      <use x="1389.625" xlink:href="#DejaVuSans-114"/>
      <use x="1430.738281" xlink:href="#DejaVuSans-97"/>
      <use x="1492.017578" xlink:href="#DejaVuSans-105"/>
      <use x="1519.800781" xlink:href="#DejaVuSans-110"/>
     </g>
    </g>
    <g id="line2d_50">
     <path d="M 219.4075 157.317313 
L 239.4075 157.317313 
" style="fill:none;stroke:#d62728;stroke-linecap:square;stroke-width:1.5;"/>
    </g>
    <g id="line2d_51"/>
    <g id="text_19">
     <!-- Batch: Momentum = 0.9 - Test -->
     <g transform="translate(247.4075 160.817313)scale(0.1 -0.1)">
      <use xlink:href="#DejaVuSans-66"/>
      <use x="68.603516" xlink:href="#DejaVuSans-97"/>
      <use x="129.882812" xlink:href="#DejaVuSans-116"/>
      <use x="169.091797" xlink:href="#DejaVuSans-99"/>
      <use x="224.072266" xlink:href="#DejaVuSans-104"/>
      <use x="287.451172" xlink:href="#DejaVuSans-58"/>
      <use x="321.142578" xlink:href="#DejaVuSans-32"/>
      <use x="352.929688" xlink:href="#DejaVuSans-77"/>
      <use x="439.208984" xlink:href="#DejaVuSans-111"/>
      <use x="500.390625" xlink:href="#DejaVuSans-109"/>
      <use x="597.802734" xlink:href="#DejaVuSans-101"/>
      <use x="659.326172" xlink:href="#DejaVuSans-110"/>
      <use x="722.705078" xlink:href="#DejaVuSans-116"/>
      <use x="761.914062" xlink:href="#DejaVuSans-117"/>
      <use x="825.292969" xlink:href="#DejaVuSans-109"/>
      <use x="922.705078" xlink:href="#DejaVuSans-32"/>
      <use x="954.492188" xlink:href="#DejaVuSans-61"/>
      <use x="1038.28125" xlink:href="#DejaVuSans-32"/>
      <use x="1070.068359" xlink:href="#DejaVuSans-48"/>
      <use x="1133.691406" xlink:href="#DejaVuSans-46"/>
      <use x="1165.478516" xlink:href="#DejaVuSans-57"/>
      <use x="1229.101562" xlink:href="#DejaVuSans-32"/>
      <use x="1260.888672" xlink:href="#DejaVuSans-45"/>
      <use x="1296.972656" xlink:href="#DejaVuSans-32"/>
      <use x="1328.759766" xlink:href="#DejaVuSans-84"/>
      <use x="1389.578125" xlink:href="#DejaVuSans-101"/>
      <use x="1451.101562" xlink:href="#DejaVuSans-115"/>
      <use x="1503.201172" xlink:href="#DejaVuSans-116"/>
     </g>
    </g>
   </g>
  </g>
 </g>
 <defs>
  <clipPath id="p5b4381a52a">
   <rect height="266.112" width="357.12" x="57.6" y="41.472"/>
  </clipPath>
 </defs>
</svg>
