<?xml version="1.0" encoding="utf-8" standalone="no"?>
<!DOCTYPE svg PUBLIC "-//W3C//DTD SVG 1.1//EN"
  "http://www.w3.org/Graphics/SVG/1.1/DTD/svg11.dtd">
<!-- Created with matplotlib (https://matplotlib.org/) -->
<svg height="345.6pt" version="1.1" viewBox="0 0 460.8 345.6" width="460.8pt" xmlns="http://www.w3.org/2000/svg" xmlns:xlink="http://www.w3.org/1999/xlink">
 <defs>
  <style type="text/css">
*{stroke-linecap:butt;stroke-linejoin:round;white-space:pre;}
  </style>
 </defs>
 <g id="figure_1">
  <g id="patch_1">
   <path d="M 0 345.6 
L 460.8 345.6 
L 460.8 0 
L 0 0 
z
" style="fill:#ffffff;"/>
  </g>
  <g id="axes_1">
   <g id="patch_2">
    <path d="M 57.6 307.584 
L 414.72 307.584 
L 414.72 41.472 
L 57.6 41.472 
z
" style="fill:#ffffff;"/>
   </g>
   <g id="PolyCollection_1">
    <defs>
     <path d="M 77.106954 -195.140599 
L 77.106954 28.367453 
L 83.665736 -156.124772 
L 90.224518 -147.228966 
L 96.7833 -156.512404 
L 103.342082 -172.071737 
L 109.900864 -181.397771 
L 116.459646 -184.554626 
L 123.018428 -184.69671 
L 129.57721 -187.897965 
L 136.135992 -189.412704 
L 142.694774 -192.095765 
L 149.253556 -193.57224 
L 155.812338 -197.878433 
L 162.37112 -201.375756 
L 168.929902 -204.492497 
L 175.488684 -207.530633 
L 182.047466 -210.592615 
L 188.606248 -214.045851 
L 195.16503 -216.818229 
L 201.723812 -216.612016 
L 208.282594 -218.4456 
L 214.841376 -220.352406 
L 221.400158 -220.351623 
L 227.95894 -220.766201 
L 234.517722 -222.766976 
L 241.076504 -221.049915 
L 247.635286 -222.274245 
L 254.194068 -222.512906 
L 260.75285 -221.180276 
L 267.311632 -221.582865 
L 273.870414 -221.630505 
L 280.429196 -224.564348 
L 286.987978 -224.337709 
L 293.54676 -225.402441 
L 300.105542 -225.670705 
L 306.664324 -226.500109 
L 313.223107 -227.532619 
L 319.781889 -228.656546 
L 326.340671 -229.15666 
L 332.899453 -231.080046 
L 339.458235 -232.064724 
L 346.017017 -231.422103 
L 352.575799 -234.050261 
L 359.134581 -233.436474 
L 365.693363 -234.88897 
L 372.252145 -235.657341 
L 378.810927 -236.689216 
L 385.369709 -237.682307 
L 391.928491 -236.923406 
L 398.487273 -237.573304 
L 398.487273 -249.465364 
L 398.487273 -249.465364 
L 391.928491 -248.754989 
L 385.369709 -248.311129 
L 378.810927 -247.877076 
L 372.252145 -248.095077 
L 365.693363 -247.272515 
L 359.134581 -246.577254 
L 352.575799 -245.767375 
L 346.017017 -246.506267 
L 339.458235 -243.514236 
L 332.899453 -242.189644 
L 326.340671 -241.197483 
L 319.781889 -240.747279 
L 313.223107 -241.185015 
L 306.664324 -239.314385 
L 300.105542 -238.40829 
L 293.54676 -238.84257 
L 286.987978 -237.561807 
L 280.429196 -235.892014 
L 273.870414 -236.975387 
L 267.311632 -234.8441 
L 260.75285 -235.321881 
L 254.194068 -234.960795 
L 247.635286 -235.8049 
L 241.076504 -236.154604 
L 234.517722 -234.510158 
L 227.95894 -234.886973 
L 221.400158 -233.22694 
L 214.841376 -232.886075 
L 208.282594 -230.636304 
L 201.723812 -231.282313 
L 195.16503 -227.807764 
L 188.606248 -226.433891 
L 182.047466 -224.703924 
L 175.488684 -221.191056 
L 168.929902 -216.303839 
L 162.37112 -213.43575 
L 155.812338 -208.160339 
L 149.253556 -205.2214 
L 142.694774 -203.862829 
L 136.135992 -199.897204 
L 129.57721 -197.327721 
L 123.018428 -196.813474 
L 116.459646 -201.841522 
L 109.900864 -205.088161 
L 103.342082 -190.633703 
L 96.7833 -188.63733 
L 90.224518 -169.306492 
L 83.665736 -210.883188 
L 77.106954 -195.140599 
z
" id="m6dc7515577" style="stroke:#aec7e8;stroke-opacity:0.25;"/>
    </defs>
    <g clip-path="url(#p1aa716d5b2)">
     <use style="fill:#aec7e8;fill-opacity:0.25;stroke:#aec7e8;stroke-opacity:0.25;" x="0" xlink:href="#m6dc7515577" y="345.6"/>
    </g>
   </g>
   <g id="PolyCollection_2">
    <defs>
     <path d="M 77.106954 -173.617858 
L 77.106954 23.140949 
L 83.665736 -114.260741 
L 90.224518 -134.443021 
L 96.7833 -150.375539 
L 103.342082 -159.630233 
L 109.900864 -163.227854 
L 116.459646 -166.795488 
L 123.018428 -169.044245 
L 129.57721 -170.707711 
L 136.135992 -173.38217 
L 142.694774 -177.59796 
L 149.253556 -179.900677 
L 155.812338 -181.443723 
L 162.37112 -185.159403 
L 168.929902 -183.819332 
L 175.488684 -186.909306 
L 182.047466 -187.51219 
L 188.606248 -188.451765 
L 195.16503 -189.254234 
L 201.723812 -189.548914 
L 208.282594 -191.442799 
L 214.841376 -192.681761 
L 221.400158 -194.848674 
L 227.95894 -192.963121 
L 234.517722 -192.106581 
L 241.076504 -193.838487 
L 247.635286 -192.567886 
L 254.194068 -191.891147 
L 260.75285 -191.09347 
L 267.311632 -191.829136 
L 273.870414 -191.621508 
L 280.429196 -191.475947 
L 286.987978 -192.389552 
L 293.54676 -193.020665 
L 300.105542 -192.358317 
L 306.664324 -193.96721 
L 313.223107 -193.882132 
L 319.781889 -192.706078 
L 326.340671 -194.09641 
L 332.899453 -194.813145 
L 339.458235 -195.379125 
L 346.017017 -194.814575 
L 352.575799 -193.648266 
L 359.134581 -195.875331 
L 365.693363 -195.248901 
L 372.252145 -196.163857 
L 378.810927 -198.133593 
L 385.369709 -196.464119 
L 391.928491 -198.706473 
L 398.487273 -197.240733 
L 398.487273 -208.323708 
L 398.487273 -208.323708 
L 391.928491 -208.53725 
L 385.369709 -208.006887 
L 378.810927 -207.993412 
L 372.252145 -207.948347 
L 365.693363 -207.812486 
L 359.134581 -206.784712 
L 352.575799 -207.564886 
L 346.017017 -206.79881 
L 339.458235 -206.652838 
L 332.899453 -206.365365 
L 326.340671 -206.78247 
L 319.781889 -206.34117 
L 313.223107 -205.332213 
L 306.664324 -205.979257 
L 300.105542 -204.562848 
L 293.54676 -205.654706 
L 286.987978 -205.20462 
L 280.429196 -206.207614 
L 273.870414 -204.964947 
L 267.311632 -204.331754 
L 260.75285 -204.561919 
L 254.194068 -203.717662 
L 247.635286 -204.975998 
L 241.076504 -206.403768 
L 234.517722 -205.123439 
L 227.95894 -208.067009 
L 221.400158 -204.905707 
L 214.841376 -203.952149 
L 208.282594 -203.843404 
L 201.723812 -202.459636 
L 195.16503 -200.854264 
L 188.606248 -200.435858 
L 182.047466 -198.109891 
L 175.488684 -198.758831 
L 168.929902 -197.519629 
L 162.37112 -195.724589 
L 155.812338 -193.134889 
L 149.253556 -191.308757 
L 142.694774 -190.186068 
L 136.135992 -185.255654 
L 129.57721 -181.531074 
L 123.018428 -180.864031 
L 116.459646 -181.040091 
L 109.900864 -180.803825 
L 103.342082 -178.526427 
L 96.7833 -179.08289 
L 90.224518 -171.975668 
L 83.665736 -165.065783 
L 77.106954 -173.617858 
z
" id="md0c30af44f" style="stroke:#ffbb78;stroke-opacity:0.25;"/>
    </defs>
    <g clip-path="url(#p1aa716d5b2)">
     <use style="fill:#ffbb78;fill-opacity:0.25;stroke:#ffbb78;stroke-opacity:0.25;" x="0" xlink:href="#md0c30af44f" y="345.6"/>
    </g>
   </g>
   <g id="PolyCollection_3">
    <defs>
     <path d="M 77.106954 -217.329542 
L 77.106954 43.386653 
L 83.665736 -128.845124 
L 90.224518 -133.488317 
L 96.7833 -147.64747 
L 103.342082 -154.326372 
L 109.900864 -160.159474 
L 116.459646 -162.327374 
L 123.018428 -164.629365 
L 129.57721 -165.967735 
L 136.135992 -168.662645 
L 142.694774 -171.128357 
L 149.253556 -172.595111 
L 155.812338 -176.321843 
L 162.37112 -177.062716 
L 168.929902 -178.466452 
L 175.488684 -180.687206 
L 182.047466 -182.243138 
L 188.606248 -182.46153 
L 195.16503 -183.907695 
L 201.723812 -183.834646 
L 208.282594 -186.5359 
L 214.841376 -187.837213 
L 221.400158 -189.510303 
L 227.95894 -189.56277 
L 234.517722 -191.967976 
L 241.076504 -192.078222 
L 247.635286 -193.175845 
L 254.194068 -194.114499 
L 260.75285 -193.687357 
L 267.311632 -195.051079 
L 273.870414 -195.800032 
L 280.429196 -194.120365 
L 286.987978 -194.552495 
L 293.54676 -193.996554 
L 300.105542 -195.282101 
L 306.664324 -196.435016 
L 313.223107 -195.011991 
L 319.781889 -196.034347 
L 326.340671 -196.154892 
L 332.899453 -197.059868 
L 339.458235 -195.926265 
L 346.017017 -196.515891 
L 352.575799 -197.077582 
L 359.134581 -197.788041 
L 365.693363 -195.25728 
L 372.252145 -197.739927 
L 378.810927 -197.37422 
L 385.369709 -196.94142 
L 391.928491 -196.475335 
L 398.487273 -197.493185 
L 398.487273 -207.435729 
L 398.487273 -207.435729 
L 391.928491 -208.442667 
L 385.369709 -208.639084 
L 378.810927 -207.986372 
L 372.252145 -208.005239 
L 365.693363 -208.250973 
L 359.134581 -208.547663 
L 352.575799 -209.337474 
L 346.017017 -209.037533 
L 339.458235 -207.732753 
L 332.899453 -207.896595 
L 326.340671 -207.384629 
L 319.781889 -208.11065 
L 313.223107 -206.10736 
L 306.664324 -207.521601 
L 300.105542 -208.604401 
L 293.54676 -207.861379 
L 286.987978 -207.330606 
L 280.429196 -204.900994 
L 273.870414 -206.355253 
L 267.311632 -205.874786 
L 260.75285 -204.755794 
L 254.194068 -205.045931 
L 247.635286 -204.570907 
L 241.076504 -203.242585 
L 234.517722 -202.549242 
L 227.95894 -201.471074 
L 221.400158 -200.412414 
L 214.841376 -198.840363 
L 208.282594 -197.682974 
L 201.723812 -197.506432 
L 195.16503 -195.527975 
L 188.606248 -194.214743 
L 182.047466 -192.176284 
L 175.488684 -191.122495 
L 168.929902 -189.195962 
L 162.37112 -187.881513 
L 155.812338 -186.146166 
L 149.253556 -187.071079 
L 142.694774 -184.043988 
L 136.135992 -179.931813 
L 129.57721 -176.206756 
L 123.018428 -174.008482 
L 116.459646 -175.72719 
L 109.900864 -171.931535 
L 103.342082 -174.58771 
L 96.7833 -182.351958 
L 90.224518 -166.276519 
L 83.665736 -172.52415 
L 77.106954 -217.329542 
z
" id="mfff6ea9948" style="stroke:#98df8a;stroke-opacity:0.25;"/>
    </defs>
    <g clip-path="url(#p1aa716d5b2)">
     <use style="fill:#98df8a;fill-opacity:0.25;stroke:#98df8a;stroke-opacity:0.25;" x="0" xlink:href="#mfff6ea9948" y="345.6"/>
    </g>
   </g>
   <g id="PolyCollection_4">
    <defs>
     <path d="M 77.106954 -222.748613 
L 77.106954 32.358278 
L 83.665736 -127.602897 
L 90.224518 -137.776246 
L 96.7833 -149.880497 
L 103.342082 -163.215152 
L 109.900864 -161.587899 
L 116.459646 -166.029199 
L 123.018428 -167.855246 
L 129.57721 -171.388106 
L 136.135992 -173.316134 
L 142.694774 -175.044577 
L 149.253556 -178.145786 
L 155.812338 -179.637211 
L 162.37112 -179.614509 
L 168.929902 -180.36082 
L 175.488684 -182.669274 
L 182.047466 -183.82857 
L 188.606248 -184.025691 
L 195.16503 -187.413974 
L 201.723812 -184.480216 
L 208.282594 -185.783129 
L 214.841376 -189.299128 
L 221.400158 -189.89355 
L 227.95894 -191.714522 
L 234.517722 -192.826451 
L 241.076504 -191.67191 
L 247.635286 -192.408033 
L 254.194068 -193.144304 
L 260.75285 -194.600321 
L 267.311632 -193.42263 
L 273.870414 -193.98653 
L 280.429196 -193.931494 
L 286.987978 -193.962708 
L 293.54676 -195.232277 
L 300.105542 -192.779231 
L 306.664324 -194.566839 
L 313.223107 -197.57015 
L 319.781889 -197.063769 
L 326.340671 -196.194128 
L 332.899453 -197.373898 
L 339.458235 -197.460361 
L 346.017017 -195.211001 
L 352.575799 -198.417984 
L 359.134581 -198.098046 
L 365.693363 -194.718696 
L 372.252145 -194.891874 
L 378.810927 -194.535035 
L 385.369709 -194.55628 
L 391.928491 -196.187465 
L 398.487273 -195.001143 
L 398.487273 -207.382029 
L 398.487273 -207.382029 
L 391.928491 -207.925615 
L 385.369709 -207.748215 
L 378.810927 -208.920836 
L 372.252145 -208.579335 
L 365.693363 -208.532635 
L 359.134581 -209.087245 
L 352.575799 -211.259509 
L 346.017017 -209.498453 
L 339.458235 -210.311018 
L 332.899453 -209.83896 
L 326.340671 -207.797634 
L 319.781889 -208.851732 
L 313.223107 -208.82164 
L 306.664324 -208.032221 
L 300.105542 -208.270556 
L 293.54676 -207.481902 
L 286.987978 -207.851018 
L 280.429196 -207.561323 
L 273.870414 -205.722745 
L 267.311632 -204.813563 
L 260.75285 -204.913836 
L 254.194068 -205.55602 
L 247.635286 -206.077373 
L 241.076504 -203.916594 
L 234.517722 -204.063353 
L 227.95894 -205.625985 
L 221.400158 -205.122883 
L 214.841376 -203.853343 
L 208.282594 -202.216749 
L 201.723812 -199.648193 
L 195.16503 -200.680285 
L 188.606248 -197.666574 
L 182.047466 -195.540687 
L 175.488684 -193.491993 
L 168.929902 -194.256848 
L 162.37112 -191.058973 
L 155.812338 -189.101915 
L 149.253556 -188.679821 
L 142.694774 -185.959843 
L 136.135992 -184.187742 
L 129.57721 -181.371507 
L 123.018428 -178.879939 
L 116.459646 -178.728777 
L 109.900864 -174.656972 
L 103.342082 -182.973597 
L 96.7833 -179.684371 
L 90.224518 -166.100319 
L 83.665736 -172.688012 
L 77.106954 -222.748613 
z
" id="m78f3901877" style="stroke:#ff9896;stroke-opacity:0.25;"/>
    </defs>
    <g clip-path="url(#p1aa716d5b2)">
     <use style="fill:#ff9896;fill-opacity:0.25;stroke:#ff9896;stroke-opacity:0.25;" x="0" xlink:href="#m78f3901877" y="345.6"/>
    </g>
   </g>
   <g id="matplotlib.axis_1">
    <g id="xtick_1">
     <g id="line2d_1">
      <path clip-path="url(#p1aa716d5b2)" d="M 73.832727 307.584 
L 73.832727 41.472 
" style="fill:none;stroke:#b0b0b0;stroke-linecap:square;stroke-width:0.8;"/>
     </g>
     <g id="line2d_2">
      <defs>
       <path d="M 0 0 
L 0 3.5 
" id="m303108fec3" style="stroke:#000000;stroke-width:0.8;"/>
      </defs>
      <g>
       <use style="stroke:#000000;stroke-width:0.8;" x="73.832727" xlink:href="#m303108fec3" y="307.584"/>
      </g>
     </g>
     <g id="text_1">
      <!-- 0 -->
      <defs>
       <path d="M 31.78125 66.40625 
Q 24.171875 66.40625 20.328125 58.90625 
Q 16.5 51.421875 16.5 36.375 
Q 16.5 21.390625 20.328125 13.890625 
Q 24.171875 6.390625 31.78125 6.390625 
Q 39.453125 6.390625 43.28125 13.890625 
Q 47.125 21.390625 47.125 36.375 
Q 47.125 51.421875 43.28125 58.90625 
Q 39.453125 66.40625 31.78125 66.40625 
z
M 31.78125 74.21875 
Q 44.046875 74.21875 50.515625 64.515625 
Q 56.984375 54.828125 56.984375 36.375 
Q 56.984375 17.96875 50.515625 8.265625 
Q 44.046875 -1.421875 31.78125 -1.421875 
Q 19.53125 -1.421875 13.0625 8.265625 
Q 6.59375 17.96875 6.59375 36.375 
Q 6.59375 54.828125 13.0625 64.515625 
Q 19.53125 74.21875 31.78125 74.21875 
z
" id="DejaVuSans-48"/>
      </defs>
      <g transform="translate(70.651477 322.182437)scale(0.1 -0.1)">
       <use xlink:href="#DejaVuSans-48"/>
      </g>
     </g>
    </g>
    <g id="xtick_2">
     <g id="line2d_3">
      <path clip-path="url(#p1aa716d5b2)" d="M 125.47668 307.584 
L 125.47668 41.472 
" style="fill:none;stroke:#b0b0b0;stroke-linecap:square;stroke-width:0.8;"/>
     </g>
     <g id="line2d_4">
      <g>
       <use style="stroke:#000000;stroke-width:0.8;" x="125.47668" xlink:href="#m303108fec3" y="307.584"/>
      </g>
     </g>
     <g id="text_2">
      <!-- 5000 -->
      <defs>
       <path d="M 10.796875 72.90625 
L 49.515625 72.90625 
L 49.515625 64.59375 
L 19.828125 64.59375 
L 19.828125 46.734375 
Q 21.96875 47.46875 24.109375 47.828125 
Q 26.265625 48.1875 28.421875 48.1875 
Q 40.625 48.1875 47.75 41.5 
Q 54.890625 34.8125 54.890625 23.390625 
Q 54.890625 11.625 47.5625 5.09375 
Q 40.234375 -1.421875 26.90625 -1.421875 
Q 22.3125 -1.421875 17.546875 -0.640625 
Q 12.796875 0.140625 7.71875 1.703125 
L 7.71875 11.625 
Q 12.109375 9.234375 16.796875 8.0625 
Q 21.484375 6.890625 26.703125 6.890625 
Q 35.15625 6.890625 40.078125 11.328125 
Q 45.015625 15.765625 45.015625 23.390625 
Q 45.015625 31 40.078125 35.4375 
Q 35.15625 39.890625 26.703125 39.890625 
Q 22.75 39.890625 18.8125 39.015625 
Q 14.890625 38.140625 10.796875 36.28125 
z
" id="DejaVuSans-53"/>
      </defs>
      <g transform="translate(112.75168 322.182437)scale(0.1 -0.1)">
       <use xlink:href="#DejaVuSans-53"/>
       <use x="63.623047" xlink:href="#DejaVuSans-48"/>
       <use x="127.246094" xlink:href="#DejaVuSans-48"/>
       <use x="190.869141" xlink:href="#DejaVuSans-48"/>
      </g>
     </g>
    </g>
    <g id="xtick_3">
     <g id="line2d_5">
      <path clip-path="url(#p1aa716d5b2)" d="M 177.120633 307.584 
L 177.120633 41.472 
" style="fill:none;stroke:#b0b0b0;stroke-linecap:square;stroke-width:0.8;"/>
     </g>
     <g id="line2d_6">
      <g>
       <use style="stroke:#000000;stroke-width:0.8;" x="177.120633" xlink:href="#m303108fec3" y="307.584"/>
      </g>
     </g>
     <g id="text_3">
      <!-- 10000 -->
      <defs>
       <path d="M 12.40625 8.296875 
L 28.515625 8.296875 
L 28.515625 63.921875 
L 10.984375 60.40625 
L 10.984375 69.390625 
L 28.421875 72.90625 
L 38.28125 72.90625 
L 38.28125 8.296875 
L 54.390625 8.296875 
L 54.390625 0 
L 12.40625 0 
z
" id="DejaVuSans-49"/>
      </defs>
      <g transform="translate(161.214383 322.182437)scale(0.1 -0.1)">
       <use xlink:href="#DejaVuSans-49"/>
       <use x="63.623047" xlink:href="#DejaVuSans-48"/>
       <use x="127.246094" xlink:href="#DejaVuSans-48"/>
       <use x="190.869141" xlink:href="#DejaVuSans-48"/>
       <use x="254.492188" xlink:href="#DejaVuSans-48"/>
      </g>
     </g>
    </g>
    <g id="xtick_4">
     <g id="line2d_7">
      <path clip-path="url(#p1aa716d5b2)" d="M 228.764586 307.584 
L 228.764586 41.472 
" style="fill:none;stroke:#b0b0b0;stroke-linecap:square;stroke-width:0.8;"/>
     </g>
     <g id="line2d_8">
      <g>
       <use style="stroke:#000000;stroke-width:0.8;" x="228.764586" xlink:href="#m303108fec3" y="307.584"/>
      </g>
     </g>
     <g id="text_4">
      <!-- 15000 -->
      <g transform="translate(212.858336 322.182437)scale(0.1 -0.1)">
       <use xlink:href="#DejaVuSans-49"/>
       <use x="63.623047" xlink:href="#DejaVuSans-53"/>
       <use x="127.246094" xlink:href="#DejaVuSans-48"/>
       <use x="190.869141" xlink:href="#DejaVuSans-48"/>
       <use x="254.492188" xlink:href="#DejaVuSans-48"/>
      </g>
     </g>
    </g>
    <g id="xtick_5">
     <g id="line2d_9">
      <path clip-path="url(#p1aa716d5b2)" d="M 280.408539 307.584 
L 280.408539 41.472 
" style="fill:none;stroke:#b0b0b0;stroke-linecap:square;stroke-width:0.8;"/>
     </g>
     <g id="line2d_10">
      <g>
       <use style="stroke:#000000;stroke-width:0.8;" x="280.408539" xlink:href="#m303108fec3" y="307.584"/>
      </g>
     </g>
     <g id="text_5">
      <!-- 20000 -->
      <defs>
       <path d="M 19.1875 8.296875 
L 53.609375 8.296875 
L 53.609375 0 
L 7.328125 0 
L 7.328125 8.296875 
Q 12.9375 14.109375 22.625 23.890625 
Q 32.328125 33.6875 34.8125 36.53125 
Q 39.546875 41.84375 41.421875 45.53125 
Q 43.3125 49.21875 43.3125 52.78125 
Q 43.3125 58.59375 39.234375 62.25 
Q 35.15625 65.921875 28.609375 65.921875 
Q 23.96875 65.921875 18.8125 64.3125 
Q 13.671875 62.703125 7.8125 59.421875 
L 7.8125 69.390625 
Q 13.765625 71.78125 18.9375 73 
Q 24.125 74.21875 28.421875 74.21875 
Q 39.75 74.21875 46.484375 68.546875 
Q 53.21875 62.890625 53.21875 53.421875 
Q 53.21875 48.921875 51.53125 44.890625 
Q 49.859375 40.875 45.40625 35.40625 
Q 44.1875 33.984375 37.640625 27.21875 
Q 31.109375 20.453125 19.1875 8.296875 
z
" id="DejaVuSans-50"/>
      </defs>
      <g transform="translate(264.502289 322.182437)scale(0.1 -0.1)">
       <use xlink:href="#DejaVuSans-50"/>
       <use x="63.623047" xlink:href="#DejaVuSans-48"/>
       <use x="127.246094" xlink:href="#DejaVuSans-48"/>
       <use x="190.869141" xlink:href="#DejaVuSans-48"/>
       <use x="254.492188" xlink:href="#DejaVuSans-48"/>
      </g>
     </g>
    </g>
    <g id="xtick_6">
     <g id="line2d_11">
      <path clip-path="url(#p1aa716d5b2)" d="M 332.052492 307.584 
L 332.052492 41.472 
" style="fill:none;stroke:#b0b0b0;stroke-linecap:square;stroke-width:0.8;"/>
     </g>
     <g id="line2d_12">
      <g>
       <use style="stroke:#000000;stroke-width:0.8;" x="332.052492" xlink:href="#m303108fec3" y="307.584"/>
      </g>
     </g>
     <g id="text_6">
      <!-- 25000 -->
      <g transform="translate(316.146242 322.182437)scale(0.1 -0.1)">
       <use xlink:href="#DejaVuSans-50"/>
       <use x="63.623047" xlink:href="#DejaVuSans-53"/>
       <use x="127.246094" xlink:href="#DejaVuSans-48"/>
       <use x="190.869141" xlink:href="#DejaVuSans-48"/>
       <use x="254.492188" xlink:href="#DejaVuSans-48"/>
      </g>
     </g>
    </g>
    <g id="xtick_7">
     <g id="line2d_13">
      <path clip-path="url(#p1aa716d5b2)" d="M 383.696445 307.584 
L 383.696445 41.472 
" style="fill:none;stroke:#b0b0b0;stroke-linecap:square;stroke-width:0.8;"/>
     </g>
     <g id="line2d_14">
      <g>
       <use style="stroke:#000000;stroke-width:0.8;" x="383.696445" xlink:href="#m303108fec3" y="307.584"/>
      </g>
     </g>
     <g id="text_7">
      <!-- 30000 -->
      <defs>
       <path d="M 40.578125 39.3125 
Q 47.65625 37.796875 51.625 33 
Q 55.609375 28.21875 55.609375 21.1875 
Q 55.609375 10.40625 48.1875 4.484375 
Q 40.765625 -1.421875 27.09375 -1.421875 
Q 22.515625 -1.421875 17.65625 -0.515625 
Q 12.796875 0.390625 7.625 2.203125 
L 7.625 11.71875 
Q 11.71875 9.328125 16.59375 8.109375 
Q 21.484375 6.890625 26.8125 6.890625 
Q 36.078125 6.890625 40.9375 10.546875 
Q 45.796875 14.203125 45.796875 21.1875 
Q 45.796875 27.640625 41.28125 31.265625 
Q 36.765625 34.90625 28.71875 34.90625 
L 20.21875 34.90625 
L 20.21875 43.015625 
L 29.109375 43.015625 
Q 36.375 43.015625 40.234375 45.921875 
Q 44.09375 48.828125 44.09375 54.296875 
Q 44.09375 59.90625 40.109375 62.90625 
Q 36.140625 65.921875 28.71875 65.921875 
Q 24.65625 65.921875 20.015625 65.03125 
Q 15.375 64.15625 9.8125 62.3125 
L 9.8125 71.09375 
Q 15.4375 72.65625 20.34375 73.4375 
Q 25.25 74.21875 29.59375 74.21875 
Q 40.828125 74.21875 47.359375 69.109375 
Q 53.90625 64.015625 53.90625 55.328125 
Q 53.90625 49.265625 50.4375 45.09375 
Q 46.96875 40.921875 40.578125 39.3125 
z
" id="DejaVuSans-51"/>
      </defs>
      <g transform="translate(367.790195 322.182437)scale(0.1 -0.1)">
       <use xlink:href="#DejaVuSans-51"/>
       <use x="63.623047" xlink:href="#DejaVuSans-48"/>
       <use x="127.246094" xlink:href="#DejaVuSans-48"/>
       <use x="190.869141" xlink:href="#DejaVuSans-48"/>
       <use x="254.492188" xlink:href="#DejaVuSans-48"/>
      </g>
     </g>
    </g>
    <g id="text_8">
     <!-- Steps -->
     <defs>
      <path d="M 53.515625 70.515625 
L 53.515625 60.890625 
Q 47.90625 63.578125 42.921875 64.890625 
Q 37.9375 66.21875 33.296875 66.21875 
Q 25.25 66.21875 20.875 63.09375 
Q 16.5 59.96875 16.5 54.203125 
Q 16.5 49.359375 19.40625 46.890625 
Q 22.3125 44.4375 30.421875 42.921875 
L 36.375 41.703125 
Q 47.40625 39.59375 52.65625 34.296875 
Q 57.90625 29 57.90625 20.125 
Q 57.90625 9.515625 50.796875 4.046875 
Q 43.703125 -1.421875 29.984375 -1.421875 
Q 24.8125 -1.421875 18.96875 -0.25 
Q 13.140625 0.921875 6.890625 3.21875 
L 6.890625 13.375 
Q 12.890625 10.015625 18.65625 8.296875 
Q 24.421875 6.59375 29.984375 6.59375 
Q 38.421875 6.59375 43.015625 9.90625 
Q 47.609375 13.234375 47.609375 19.390625 
Q 47.609375 24.75 44.3125 27.78125 
Q 41.015625 30.8125 33.5 32.328125 
L 27.484375 33.5 
Q 16.453125 35.6875 11.515625 40.375 
Q 6.59375 45.0625 6.59375 53.421875 
Q 6.59375 63.09375 13.40625 68.65625 
Q 20.21875 74.21875 32.171875 74.21875 
Q 37.3125 74.21875 42.625 73.28125 
Q 47.953125 72.359375 53.515625 70.515625 
z
" id="DejaVuSans-83"/>
      <path d="M 18.3125 70.21875 
L 18.3125 54.6875 
L 36.8125 54.6875 
L 36.8125 47.703125 
L 18.3125 47.703125 
L 18.3125 18.015625 
Q 18.3125 11.328125 20.140625 9.421875 
Q 21.96875 7.515625 27.59375 7.515625 
L 36.8125 7.515625 
L 36.8125 0 
L 27.59375 0 
Q 17.1875 0 13.234375 3.875 
Q 9.28125 7.765625 9.28125 18.015625 
L 9.28125 47.703125 
L 2.6875 47.703125 
L 2.6875 54.6875 
L 9.28125 54.6875 
L 9.28125 70.21875 
z
" id="DejaVuSans-116"/>
      <path d="M 56.203125 29.59375 
L 56.203125 25.203125 
L 14.890625 25.203125 
Q 15.484375 15.921875 20.484375 11.0625 
Q 25.484375 6.203125 34.421875 6.203125 
Q 39.59375 6.203125 44.453125 7.46875 
Q 49.3125 8.734375 54.109375 11.28125 
L 54.109375 2.78125 
Q 49.265625 0.734375 44.1875 -0.34375 
Q 39.109375 -1.421875 33.890625 -1.421875 
Q 20.796875 -1.421875 13.15625 6.1875 
Q 5.515625 13.8125 5.515625 26.8125 
Q 5.515625 40.234375 12.765625 48.109375 
Q 20.015625 56 32.328125 56 
Q 43.359375 56 49.78125 48.890625 
Q 56.203125 41.796875 56.203125 29.59375 
z
M 47.21875 32.234375 
Q 47.125 39.59375 43.09375 43.984375 
Q 39.0625 48.390625 32.421875 48.390625 
Q 24.90625 48.390625 20.390625 44.140625 
Q 15.875 39.890625 15.1875 32.171875 
z
" id="DejaVuSans-101"/>
      <path d="M 18.109375 8.203125 
L 18.109375 -20.796875 
L 9.078125 -20.796875 
L 9.078125 54.6875 
L 18.109375 54.6875 
L 18.109375 46.390625 
Q 20.953125 51.265625 25.265625 53.625 
Q 29.59375 56 35.59375 56 
Q 45.5625 56 51.78125 48.09375 
Q 58.015625 40.1875 58.015625 27.296875 
Q 58.015625 14.40625 51.78125 6.484375 
Q 45.5625 -1.421875 35.59375 -1.421875 
Q 29.59375 -1.421875 25.265625 0.953125 
Q 20.953125 3.328125 18.109375 8.203125 
z
M 48.6875 27.296875 
Q 48.6875 37.203125 44.609375 42.84375 
Q 40.53125 48.484375 33.40625 48.484375 
Q 26.265625 48.484375 22.1875 42.84375 
Q 18.109375 37.203125 18.109375 27.296875 
Q 18.109375 17.390625 22.1875 11.75 
Q 26.265625 6.109375 33.40625 6.109375 
Q 40.53125 6.109375 44.609375 11.75 
Q 48.6875 17.390625 48.6875 27.296875 
z
" id="DejaVuSans-112"/>
      <path d="M 44.28125 53.078125 
L 44.28125 44.578125 
Q 40.484375 46.53125 36.375 47.5 
Q 32.28125 48.484375 27.875 48.484375 
Q 21.1875 48.484375 17.84375 46.4375 
Q 14.5 44.390625 14.5 40.28125 
Q 14.5 37.15625 16.890625 35.375 
Q 19.28125 33.59375 26.515625 31.984375 
L 29.59375 31.296875 
Q 39.15625 29.25 43.1875 25.515625 
Q 47.21875 21.78125 47.21875 15.09375 
Q 47.21875 7.46875 41.1875 3.015625 
Q 35.15625 -1.421875 24.609375 -1.421875 
Q 20.21875 -1.421875 15.453125 -0.5625 
Q 10.6875 0.296875 5.421875 2 
L 5.421875 11.28125 
Q 10.40625 8.6875 15.234375 7.390625 
Q 20.0625 6.109375 24.8125 6.109375 
Q 31.15625 6.109375 34.5625 8.28125 
Q 37.984375 10.453125 37.984375 14.40625 
Q 37.984375 18.0625 35.515625 20.015625 
Q 33.0625 21.96875 24.703125 23.78125 
L 21.578125 24.515625 
Q 13.234375 26.265625 9.515625 29.90625 
Q 5.8125 33.546875 5.8125 39.890625 
Q 5.8125 47.609375 11.28125 51.796875 
Q 16.75 56 26.8125 56 
Q 31.78125 56 36.171875 55.265625 
Q 40.578125 54.546875 44.28125 53.078125 
z
" id="DejaVuSans-115"/>
     </defs>
     <g transform="translate(222.170156 335.860562)scale(0.1 -0.1)">
      <use xlink:href="#DejaVuSans-83"/>
      <use x="63.476562" xlink:href="#DejaVuSans-116"/>
      <use x="102.685547" xlink:href="#DejaVuSans-101"/>
      <use x="164.208984" xlink:href="#DejaVuSans-112"/>
      <use x="227.685547" xlink:href="#DejaVuSans-115"/>
     </g>
    </g>
   </g>
   <g id="matplotlib.axis_2">
    <g id="ytick_1">
     <g id="line2d_15">
      <path clip-path="url(#p1aa716d5b2)" d="M 57.6 307.584 
L 414.72 307.584 
" style="fill:none;stroke:#b0b0b0;stroke-linecap:square;stroke-width:0.8;"/>
     </g>
     <g id="line2d_16">
      <defs>
       <path d="M 0 0 
L -3.5 0 
" id="m33a2ad6d6a" style="stroke:#000000;stroke-width:0.8;"/>
      </defs>
      <g>
       <use style="stroke:#000000;stroke-width:0.8;" x="57.6" xlink:href="#m33a2ad6d6a" y="307.584"/>
      </g>
     </g>
     <g id="text_9">
      <!-- $\mathdefault{10^{-1}}$ -->
      <defs>
       <path d="M 10.59375 35.5 
L 73.1875 35.5 
L 73.1875 27.203125 
L 10.59375 27.203125 
z
" id="DejaVuSans-8722"/>
      </defs>
      <g transform="translate(27.1 311.383219)scale(0.1 -0.1)">
       <use transform="translate(0 0.684375)" xlink:href="#DejaVuSans-49"/>
       <use transform="translate(63.623047 0.684375)" xlink:href="#DejaVuSans-48"/>
       <use transform="translate(128.203125 38.965625)scale(0.7)" xlink:href="#DejaVuSans-8722"/>
       <use transform="translate(186.855469 38.965625)scale(0.7)" xlink:href="#DejaVuSans-49"/>
      </g>
     </g>
    </g>
    <g id="ytick_2">
     <g id="line2d_17">
      <path clip-path="url(#p1aa716d5b2)" d="M 57.6 241.056 
L 414.72 241.056 
" style="fill:none;stroke:#b0b0b0;stroke-linecap:square;stroke-width:0.8;"/>
     </g>
     <g id="line2d_18">
      <g>
       <use style="stroke:#000000;stroke-width:0.8;" x="57.6" xlink:href="#m33a2ad6d6a" y="241.056"/>
      </g>
     </g>
     <g id="text_10">
      <!-- $\mathdefault{10^{0}}$ -->
      <g transform="translate(33 244.855219)scale(0.1 -0.1)">
       <use transform="translate(0 0.765625)" xlink:href="#DejaVuSans-49"/>
       <use transform="translate(63.623047 0.765625)" xlink:href="#DejaVuSans-48"/>
       <use transform="translate(128.203125 39.046875)scale(0.7)" xlink:href="#DejaVuSans-48"/>
      </g>
     </g>
    </g>
    <g id="ytick_3">
     <g id="line2d_19">
      <path clip-path="url(#p1aa716d5b2)" d="M 57.6 174.528 
L 414.72 174.528 
" style="fill:none;stroke:#b0b0b0;stroke-linecap:square;stroke-width:0.8;"/>
     </g>
     <g id="line2d_20">
      <g>
       <use style="stroke:#000000;stroke-width:0.8;" x="57.6" xlink:href="#m33a2ad6d6a" y="174.528"/>
      </g>
     </g>
     <g id="text_11">
      <!-- $\mathdefault{10^{1}}$ -->
      <g transform="translate(33 178.327219)scale(0.1 -0.1)">
       <use transform="translate(0 0.684375)" xlink:href="#DejaVuSans-49"/>
       <use transform="translate(63.623047 0.684375)" xlink:href="#DejaVuSans-48"/>
       <use transform="translate(128.203125 38.965625)scale(0.7)" xlink:href="#DejaVuSans-49"/>
      </g>
     </g>
    </g>
    <g id="ytick_4">
     <g id="line2d_21">
      <path clip-path="url(#p1aa716d5b2)" d="M 57.6 108 
L 414.72 108 
" style="fill:none;stroke:#b0b0b0;stroke-linecap:square;stroke-width:0.8;"/>
     </g>
     <g id="line2d_22">
      <g>
       <use style="stroke:#000000;stroke-width:0.8;" x="57.6" xlink:href="#m33a2ad6d6a" y="108"/>
      </g>
     </g>
     <g id="text_12">
      <!-- $\mathdefault{10^{2}}$ -->
      <g transform="translate(33 111.799219)scale(0.1 -0.1)">
       <use transform="translate(0 0.765625)" xlink:href="#DejaVuSans-49"/>
       <use transform="translate(63.623047 0.765625)" xlink:href="#DejaVuSans-48"/>
       <use transform="translate(128.203125 39.046875)scale(0.7)" xlink:href="#DejaVuSans-50"/>
      </g>
     </g>
    </g>
    <g id="ytick_5">
     <g id="line2d_23">
      <path clip-path="url(#p1aa716d5b2)" d="M 57.6 41.472 
L 414.72 41.472 
" style="fill:none;stroke:#b0b0b0;stroke-linecap:square;stroke-width:0.8;"/>
     </g>
     <g id="line2d_24">
      <g>
       <use style="stroke:#000000;stroke-width:0.8;" x="57.6" xlink:href="#m33a2ad6d6a" y="41.472"/>
      </g>
     </g>
     <g id="text_13">
      <!-- $\mathdefault{10^{3}}$ -->
      <g transform="translate(33 45.271219)scale(0.1 -0.1)">
       <use transform="translate(0 0.765625)" xlink:href="#DejaVuSans-49"/>
       <use transform="translate(63.623047 0.765625)" xlink:href="#DejaVuSans-48"/>
       <use transform="translate(128.203125 39.046875)scale(0.7)" xlink:href="#DejaVuSans-51"/>
      </g>
     </g>
    </g>
    <g id="ytick_6">
     <g id="line2d_25">
      <defs>
       <path d="M 0 0 
L -2 0 
" id="m7dd780f524" style="stroke:#000000;stroke-width:0.6;"/>
      </defs>
      <g>
       <use style="stroke:#000000;stroke-width:0.6;" x="57.6" xlink:href="#m7dd780f524" y="287.557076"/>
      </g>
     </g>
    </g>
    <g id="ytick_7">
     <g id="line2d_26">
      <g>
       <use style="stroke:#000000;stroke-width:0.6;" x="57.6" xlink:href="#m7dd780f524" y="275.842077"/>
      </g>
     </g>
    </g>
    <g id="ytick_8">
     <g id="line2d_27">
      <g>
       <use style="stroke:#000000;stroke-width:0.6;" x="57.6" xlink:href="#m7dd780f524" y="267.530153"/>
      </g>
     </g>
    </g>
    <g id="ytick_9">
     <g id="line2d_28">
      <g>
       <use style="stroke:#000000;stroke-width:0.6;" x="57.6" xlink:href="#m7dd780f524" y="261.082924"/>
      </g>
     </g>
    </g>
    <g id="ytick_10">
     <g id="line2d_29">
      <g>
       <use style="stroke:#000000;stroke-width:0.6;" x="57.6" xlink:href="#m7dd780f524" y="255.815154"/>
      </g>
     </g>
    </g>
    <g id="ytick_11">
     <g id="line2d_30">
      <g>
       <use style="stroke:#000000;stroke-width:0.6;" x="57.6" xlink:href="#m7dd780f524" y="251.361318"/>
      </g>
     </g>
    </g>
    <g id="ytick_12">
     <g id="line2d_31">
      <g>
       <use style="stroke:#000000;stroke-width:0.6;" x="57.6" xlink:href="#m7dd780f524" y="247.503229"/>
      </g>
     </g>
    </g>
    <g id="ytick_13">
     <g id="line2d_32">
      <g>
       <use style="stroke:#000000;stroke-width:0.6;" x="57.6" xlink:href="#m7dd780f524" y="244.100154"/>
      </g>
     </g>
    </g>
    <g id="ytick_14">
     <g id="line2d_33">
      <g>
       <use style="stroke:#000000;stroke-width:0.6;" x="57.6" xlink:href="#m7dd780f524" y="221.029076"/>
      </g>
     </g>
    </g>
    <g id="ytick_15">
     <g id="line2d_34">
      <g>
       <use style="stroke:#000000;stroke-width:0.6;" x="57.6" xlink:href="#m7dd780f524" y="209.314077"/>
      </g>
     </g>
    </g>
    <g id="ytick_16">
     <g id="line2d_35">
      <g>
       <use style="stroke:#000000;stroke-width:0.6;" x="57.6" xlink:href="#m7dd780f524" y="201.002153"/>
      </g>
     </g>
    </g>
    <g id="ytick_17">
     <g id="line2d_36">
      <g>
       <use style="stroke:#000000;stroke-width:0.6;" x="57.6" xlink:href="#m7dd780f524" y="194.554924"/>
      </g>
     </g>
    </g>
    <g id="ytick_18">
     <g id="line2d_37">
      <g>
       <use style="stroke:#000000;stroke-width:0.6;" x="57.6" xlink:href="#m7dd780f524" y="189.287154"/>
      </g>
     </g>
    </g>
    <g id="ytick_19">
     <g id="line2d_38">
      <g>
       <use style="stroke:#000000;stroke-width:0.6;" x="57.6" xlink:href="#m7dd780f524" y="184.833318"/>
      </g>
     </g>
    </g>
    <g id="ytick_20">
     <g id="line2d_39">
      <g>
       <use style="stroke:#000000;stroke-width:0.6;" x="57.6" xlink:href="#m7dd780f524" y="180.975229"/>
      </g>
     </g>
    </g>
    <g id="ytick_21">
     <g id="line2d_40">
      <g>
       <use style="stroke:#000000;stroke-width:0.6;" x="57.6" xlink:href="#m7dd780f524" y="177.572154"/>
      </g>
     </g>
    </g>
    <g id="ytick_22">
     <g id="line2d_41">
      <g>
       <use style="stroke:#000000;stroke-width:0.6;" x="57.6" xlink:href="#m7dd780f524" y="154.501076"/>
      </g>
     </g>
    </g>
    <g id="ytick_23">
     <g id="line2d_42">
      <g>
       <use style="stroke:#000000;stroke-width:0.6;" x="57.6" xlink:href="#m7dd780f524" y="142.786077"/>
      </g>
     </g>
    </g>
    <g id="ytick_24">
     <g id="line2d_43">
      <g>
       <use style="stroke:#000000;stroke-width:0.6;" x="57.6" xlink:href="#m7dd780f524" y="134.474153"/>
      </g>
     </g>
    </g>
    <g id="ytick_25">
     <g id="line2d_44">
      <g>
       <use style="stroke:#000000;stroke-width:0.6;" x="57.6" xlink:href="#m7dd780f524" y="128.026924"/>
      </g>
     </g>
    </g>
    <g id="ytick_26">
     <g id="line2d_45">
      <g>
       <use style="stroke:#000000;stroke-width:0.6;" x="57.6" xlink:href="#m7dd780f524" y="122.759154"/>
      </g>
     </g>
    </g>
    <g id="ytick_27">
     <g id="line2d_46">
      <g>
       <use style="stroke:#000000;stroke-width:0.6;" x="57.6" xlink:href="#m7dd780f524" y="118.305318"/>
      </g>
     </g>
    </g>
    <g id="ytick_28">
     <g id="line2d_47">
      <g>
       <use style="stroke:#000000;stroke-width:0.6;" x="57.6" xlink:href="#m7dd780f524" y="114.447229"/>
      </g>
     </g>
    </g>
    <g id="ytick_29">
     <g id="line2d_48">
      <g>
       <use style="stroke:#000000;stroke-width:0.6;" x="57.6" xlink:href="#m7dd780f524" y="111.044154"/>
      </g>
     </g>
    </g>
    <g id="ytick_30">
     <g id="line2d_49">
      <g>
       <use style="stroke:#000000;stroke-width:0.6;" x="57.6" xlink:href="#m7dd780f524" y="87.973076"/>
      </g>
     </g>
    </g>
    <g id="ytick_31">
     <g id="line2d_50">
      <g>
       <use style="stroke:#000000;stroke-width:0.6;" x="57.6" xlink:href="#m7dd780f524" y="76.258077"/>
      </g>
     </g>
    </g>
    <g id="ytick_32">
     <g id="line2d_51">
      <g>
       <use style="stroke:#000000;stroke-width:0.6;" x="57.6" xlink:href="#m7dd780f524" y="67.946153"/>
      </g>
     </g>
    </g>
    <g id="ytick_33">
     <g id="line2d_52">
      <g>
       <use style="stroke:#000000;stroke-width:0.6;" x="57.6" xlink:href="#m7dd780f524" y="61.498924"/>
      </g>
     </g>
    </g>
    <g id="ytick_34">
     <g id="line2d_53">
      <g>
       <use style="stroke:#000000;stroke-width:0.6;" x="57.6" xlink:href="#m7dd780f524" y="56.231154"/>
      </g>
     </g>
    </g>
    <g id="ytick_35">
     <g id="line2d_54">
      <g>
       <use style="stroke:#000000;stroke-width:0.6;" x="57.6" xlink:href="#m7dd780f524" y="51.777318"/>
      </g>
     </g>
    </g>
    <g id="ytick_36">
     <g id="line2d_55">
      <g>
       <use style="stroke:#000000;stroke-width:0.6;" x="57.6" xlink:href="#m7dd780f524" y="47.919229"/>
      </g>
     </g>
    </g>
    <g id="ytick_37">
     <g id="line2d_56">
      <g>
       <use style="stroke:#000000;stroke-width:0.6;" x="57.6" xlink:href="#m7dd780f524" y="44.516154"/>
      </g>
     </g>
    </g>
    <g id="text_14">
     <!-- Feature Mathing Error -->
     <defs>
      <path d="M 9.8125 72.90625 
L 51.703125 72.90625 
L 51.703125 64.59375 
L 19.671875 64.59375 
L 19.671875 43.109375 
L 48.578125 43.109375 
L 48.578125 34.8125 
L 19.671875 34.8125 
L 19.671875 0 
L 9.8125 0 
z
" id="DejaVuSans-70"/>
      <path d="M 34.28125 27.484375 
Q 23.390625 27.484375 19.1875 25 
Q 14.984375 22.515625 14.984375 16.5 
Q 14.984375 11.71875 18.140625 8.90625 
Q 21.296875 6.109375 26.703125 6.109375 
Q 34.1875 6.109375 38.703125 11.40625 
Q 43.21875 16.703125 43.21875 25.484375 
L 43.21875 27.484375 
z
M 52.203125 31.203125 
L 52.203125 0 
L 43.21875 0 
L 43.21875 8.296875 
Q 40.140625 3.328125 35.546875 0.953125 
Q 30.953125 -1.421875 24.3125 -1.421875 
Q 15.921875 -1.421875 10.953125 3.296875 
Q 6 8.015625 6 15.921875 
Q 6 25.140625 12.171875 29.828125 
Q 18.359375 34.515625 30.609375 34.515625 
L 43.21875 34.515625 
L 43.21875 35.40625 
Q 43.21875 41.609375 39.140625 45 
Q 35.0625 48.390625 27.6875 48.390625 
Q 23 48.390625 18.546875 47.265625 
Q 14.109375 46.140625 10.015625 43.890625 
L 10.015625 52.203125 
Q 14.9375 54.109375 19.578125 55.046875 
Q 24.21875 56 28.609375 56 
Q 40.484375 56 46.34375 49.84375 
Q 52.203125 43.703125 52.203125 31.203125 
z
" id="DejaVuSans-97"/>
      <path d="M 8.5 21.578125 
L 8.5 54.6875 
L 17.484375 54.6875 
L 17.484375 21.921875 
Q 17.484375 14.15625 20.5 10.265625 
Q 23.53125 6.390625 29.59375 6.390625 
Q 36.859375 6.390625 41.078125 11.03125 
Q 45.3125 15.671875 45.3125 23.6875 
L 45.3125 54.6875 
L 54.296875 54.6875 
L 54.296875 0 
L 45.3125 0 
L 45.3125 8.40625 
Q 42.046875 3.421875 37.71875 1 
Q 33.40625 -1.421875 27.6875 -1.421875 
Q 18.265625 -1.421875 13.375 4.4375 
Q 8.5 10.296875 8.5 21.578125 
z
M 31.109375 56 
z
" id="DejaVuSans-117"/>
      <path d="M 41.109375 46.296875 
Q 39.59375 47.171875 37.8125 47.578125 
Q 36.03125 48 33.890625 48 
Q 26.265625 48 22.1875 43.046875 
Q 18.109375 38.09375 18.109375 28.8125 
L 18.109375 0 
L 9.078125 0 
L 9.078125 54.6875 
L 18.109375 54.6875 
L 18.109375 46.1875 
Q 20.953125 51.171875 25.484375 53.578125 
Q 30.03125 56 36.53125 56 
Q 37.453125 56 38.578125 55.875 
Q 39.703125 55.765625 41.0625 55.515625 
z
" id="DejaVuSans-114"/>
      <path id="DejaVuSans-32"/>
      <path d="M 9.8125 72.90625 
L 24.515625 72.90625 
L 43.109375 23.296875 
L 61.8125 72.90625 
L 76.515625 72.90625 
L 76.515625 0 
L 66.890625 0 
L 66.890625 64.015625 
L 48.09375 14.015625 
L 38.1875 14.015625 
L 19.390625 64.015625 
L 19.390625 0 
L 9.8125 0 
z
" id="DejaVuSans-77"/>
      <path d="M 54.890625 33.015625 
L 54.890625 0 
L 45.90625 0 
L 45.90625 32.71875 
Q 45.90625 40.484375 42.875 44.328125 
Q 39.84375 48.1875 33.796875 48.1875 
Q 26.515625 48.1875 22.3125 43.546875 
Q 18.109375 38.921875 18.109375 30.90625 
L 18.109375 0 
L 9.078125 0 
L 9.078125 75.984375 
L 18.109375 75.984375 
L 18.109375 46.1875 
Q 21.34375 51.125 25.703125 53.5625 
Q 30.078125 56 35.796875 56 
Q 45.21875 56 50.046875 50.171875 
Q 54.890625 44.34375 54.890625 33.015625 
z
" id="DejaVuSans-104"/>
      <path d="M 9.421875 54.6875 
L 18.40625 54.6875 
L 18.40625 0 
L 9.421875 0 
z
M 9.421875 75.984375 
L 18.40625 75.984375 
L 18.40625 64.59375 
L 9.421875 64.59375 
z
" id="DejaVuSans-105"/>
      <path d="M 54.890625 33.015625 
L 54.890625 0 
L 45.90625 0 
L 45.90625 32.71875 
Q 45.90625 40.484375 42.875 44.328125 
Q 39.84375 48.1875 33.796875 48.1875 
Q 26.515625 48.1875 22.3125 43.546875 
Q 18.109375 38.921875 18.109375 30.90625 
L 18.109375 0 
L 9.078125 0 
L 9.078125 54.6875 
L 18.109375 54.6875 
L 18.109375 46.1875 
Q 21.34375 51.125 25.703125 53.5625 
Q 30.078125 56 35.796875 56 
Q 45.21875 56 50.046875 50.171875 
Q 54.890625 44.34375 54.890625 33.015625 
z
" id="DejaVuSans-110"/>
      <path d="M 45.40625 27.984375 
Q 45.40625 37.75 41.375 43.109375 
Q 37.359375 48.484375 30.078125 48.484375 
Q 22.859375 48.484375 18.828125 43.109375 
Q 14.796875 37.75 14.796875 27.984375 
Q 14.796875 18.265625 18.828125 12.890625 
Q 22.859375 7.515625 30.078125 7.515625 
Q 37.359375 7.515625 41.375 12.890625 
Q 45.40625 18.265625 45.40625 27.984375 
z
M 54.390625 6.78125 
Q 54.390625 -7.171875 48.1875 -13.984375 
Q 42 -20.796875 29.203125 -20.796875 
Q 24.46875 -20.796875 20.265625 -20.09375 
Q 16.0625 -19.390625 12.109375 -17.921875 
L 12.109375 -9.1875 
Q 16.0625 -11.328125 19.921875 -12.34375 
Q 23.78125 -13.375 27.78125 -13.375 
Q 36.625 -13.375 41.015625 -8.765625 
Q 45.40625 -4.15625 45.40625 5.171875 
L 45.40625 9.625 
Q 42.625 4.78125 38.28125 2.390625 
Q 33.9375 0 27.875 0 
Q 17.828125 0 11.671875 7.65625 
Q 5.515625 15.328125 5.515625 27.984375 
Q 5.515625 40.671875 11.671875 48.328125 
Q 17.828125 56 27.875 56 
Q 33.9375 56 38.28125 53.609375 
Q 42.625 51.21875 45.40625 46.390625 
L 45.40625 54.6875 
L 54.390625 54.6875 
z
" id="DejaVuSans-103"/>
      <path d="M 9.8125 72.90625 
L 55.90625 72.90625 
L 55.90625 64.59375 
L 19.671875 64.59375 
L 19.671875 43.015625 
L 54.390625 43.015625 
L 54.390625 34.71875 
L 19.671875 34.71875 
L 19.671875 8.296875 
L 56.78125 8.296875 
L 56.78125 0 
L 9.8125 0 
z
" id="DejaVuSans-69"/>
      <path d="M 30.609375 48.390625 
Q 23.390625 48.390625 19.1875 42.75 
Q 14.984375 37.109375 14.984375 27.296875 
Q 14.984375 17.484375 19.15625 11.84375 
Q 23.34375 6.203125 30.609375 6.203125 
Q 37.796875 6.203125 41.984375 11.859375 
Q 46.1875 17.53125 46.1875 27.296875 
Q 46.1875 37.015625 41.984375 42.703125 
Q 37.796875 48.390625 30.609375 48.390625 
z
M 30.609375 56 
Q 42.328125 56 49.015625 48.375 
Q 55.71875 40.765625 55.71875 27.296875 
Q 55.71875 13.875 49.015625 6.21875 
Q 42.328125 -1.421875 30.609375 -1.421875 
Q 18.84375 -1.421875 12.171875 6.21875 
Q 5.515625 13.875 5.515625 27.296875 
Q 5.515625 40.765625 12.171875 48.375 
Q 18.84375 56 30.609375 56 
z
" id="DejaVuSans-111"/>
     </defs>
     <g transform="translate(21.020312 229.599875)rotate(-90)scale(0.1 -0.1)">
      <use xlink:href="#DejaVuSans-70"/>
      <use x="57.441406" xlink:href="#DejaVuSans-101"/>
      <use x="118.964844" xlink:href="#DejaVuSans-97"/>
      <use x="180.244141" xlink:href="#DejaVuSans-116"/>
      <use x="219.453125" xlink:href="#DejaVuSans-117"/>
      <use x="282.832031" xlink:href="#DejaVuSans-114"/>
      <use x="323.914062" xlink:href="#DejaVuSans-101"/>
      <use x="385.4375" xlink:href="#DejaVuSans-32"/>
      <use x="417.224609" xlink:href="#DejaVuSans-77"/>
      <use x="503.503906" xlink:href="#DejaVuSans-97"/>
      <use x="564.783203" xlink:href="#DejaVuSans-116"/>
      <use x="603.992188" xlink:href="#DejaVuSans-104"/>
      <use x="667.371094" xlink:href="#DejaVuSans-105"/>
      <use x="695.154297" xlink:href="#DejaVuSans-110"/>
      <use x="758.533203" xlink:href="#DejaVuSans-103"/>
      <use x="822.009766" xlink:href="#DejaVuSans-32"/>
      <use x="853.796875" xlink:href="#DejaVuSans-69"/>
      <use x="916.980469" xlink:href="#DejaVuSans-114"/>
      <use x="958.078125" xlink:href="#DejaVuSans-114"/>
      <use x="999.160156" xlink:href="#DejaVuSans-111"/>
      <use x="1060.341797" xlink:href="#DejaVuSans-114"/>
     </g>
    </g>
   </g>
   <g id="line2d_57">
    <path clip-path="url(#p1aa716d5b2)" d="M 77.106954 179.037922 
L 83.665736 163.978618 
L 90.224518 188.187283 
L 96.7833 173.876078 
L 103.342082 164.593732 
L 109.900864 156.402522 
L 116.459646 153.784012 
L 123.018428 155.704186 
L 129.57721 152.720491 
L 136.135992 150.572595 
L 142.694774 148.39577 
L 149.253556 145.473618 
L 155.812338 141.958861 
L 162.37112 138.402032 
L 168.929902 135.406707 
L 175.488684 131.36128 
L 182.047466 127.95095 
L 188.606248 125.041648 
L 195.16503 123.355311 
L 201.723812 122.063221 
L 208.282594 120.650089 
L 214.841376 119.018696 
L 221.400158 117.852866 
L 227.95894 117.400665 
L 234.517722 116.893184 
L 241.076504 117.062107 
L 247.635286 116.074584 
L 254.194068 117.020611 
L 260.75285 116.917012 
L 267.311632 116.674221 
L 273.870414 116.385425 
L 280.429196 115.752605 
L 286.987978 114.323475 
L 293.54676 112.929756 
L 300.105542 112.534844 
L 306.664324 111.971745 
L 313.223107 111.521415 
L 319.781889 111.185131 
L 326.340671 110.184744 
L 332.899453 108.484552 
L 339.458235 107.66066 
L 346.017017 106.87794 
L 352.575799 106.112871 
L 359.134581 104.893963 
L 365.693363 104.233042 
L 372.252145 103.5285 
L 378.810927 102.87759 
L 385.369709 102.514376 
L 391.928491 101.949677 
L 398.487273 101.733659 
" style="fill:none;stroke:#aec7e8;stroke-linecap:square;stroke-width:1.5;"/>
   </g>
   <g id="line2d_58">
    <path clip-path="url(#p1aa716d5b2)" d="M 75.72788 346.6 
L 84.161518 158.553572 
L 94.490308 181.721378 
L 104.819099 162.928347 
L 115.14789 152.141708 
L 125.47668 155.627337 
L 135.805471 150.935222 
L 146.134261 147.606493 
L 156.463052 141.423973 
L 166.791842 136.556246 
L 177.120633 130.126113 
L 187.449424 125.364226 
L 197.778214 122.552249 
L 208.107005 119.650443 
L 218.435795 117.724243 
L 228.764586 116.001375 
L 239.093377 115.96134 
L 249.422167 115.38707 
L 259.750958 115.92461 
L 270.079748 115.673563 
L 280.408539 115.092094 
L 290.737329 112.517745 
L 301.06612 111.801407 
L 311.394911 110.011762 
L 321.723701 109.87575 
L 332.052492 106.904821 
L 342.381282 106.35438 
L 352.710073 105.003781 
L 363.038863 103.645602 
L 373.367654 102.172056 
L 383.696445 100.960707 
L 394.025235 100.368912 
" style="fill:none;stroke:#1f77b4;stroke-linecap:square;stroke-width:1.5;"/>
   </g>
   <g id="line2d_59">
    <path clip-path="url(#p1aa716d5b2)" d="M 77.106954 218.305561 
L 83.665736 204.934485 
L 90.224518 195.849511 
L 96.7833 178.742483 
L 103.342082 177.603617 
L 109.900864 173.282693 
L 116.459646 171.52611 
L 123.018428 170.555675 
L 129.57721 169.47891 
L 136.135992 166.013905 
L 142.694774 161.456437 
L 149.253556 159.358402 
L 155.812338 157.765148 
L 162.37112 155.473763 
L 168.929902 154.248761 
L 175.488684 152.856973 
L 182.047466 152.395028 
L 188.606248 151.107159 
L 195.16503 150.475288 
L 201.723812 148.715549 
L 208.282594 147.851183 
L 214.841376 146.782565 
L 221.400158 145.631972 
L 227.95894 144.872157 
L 234.517722 145.488509 
L 241.076504 146.103497 
L 247.635286 146.741122 
L 254.194068 147.723852 
L 260.75285 147.873476 
L 267.311632 147.0988 
L 273.870414 146.790028 
L 280.429196 147.102726 
L 286.987978 146.48021 
L 293.54676 146.85907 
L 300.105542 146.551459 
L 306.664324 145.845997 
L 313.223107 145.437277 
L 319.781889 144.998025 
L 326.340671 144.792646 
L 332.899453 144.591356 
L 339.458235 144.525518 
L 346.017017 144.131511 
L 352.575799 144.130898 
L 359.134581 143.66332 
L 365.693363 142.97917 
L 372.252145 142.977233 
L 378.810927 142.833938 
L 385.369709 142.713533 
L 391.928491 142.248145 
L 398.487273 142.172307 
" style="fill:none;stroke:#ffbb78;stroke-linecap:square;stroke-width:1.5;"/>
   </g>
   <g id="line2d_60">
    <path clip-path="url(#p1aa716d5b2)" d="M 75.702057 346.6 
L 84.161518 186.213459 
L 94.490308 177.674444 
L 104.819099 176.172886 
L 115.14789 172.435014 
L 125.47668 170.920607 
L 135.805471 165.840868 
L 146.134261 160.841346 
L 156.463052 156.046645 
L 166.791842 152.143069 
L 177.120633 151.502632 
L 187.449424 149.670965 
L 197.778214 148.501765 
L 208.107005 144.966183 
L 218.435795 144.673486 
L 228.764586 142.334222 
L 239.093377 141.276919 
L 249.422167 143.054458 
L 259.750958 145.965432 
L 270.079748 143.388567 
L 280.408539 143.357379 
L 290.737329 141.995947 
L 301.06612 143.557138 
L 311.394911 141.834016 
L 321.723701 141.680779 
L 332.052492 141.226645 
L 342.381282 140.320729 
L 352.710073 140.847626 
L 363.038863 137.495272 
L 373.367654 138.347321 
L 383.696445 137.930927 
L 394.025235 137.539099 
" style="fill:none;stroke:#ff7f0e;stroke-linecap:square;stroke-width:1.5;"/>
   </g>
   <g id="line2d_61">
    <path clip-path="url(#p1aa716d5b2)" d="M 77.106954 157.202195 
L 83.665736 195.817397 
L 90.224518 195.681164 
L 96.7833 185.829302 
L 103.342082 180.393314 
L 109.900864 179.097531 
L 116.459646 177.381559 
L 123.018428 175.683135 
L 129.57721 174.196971 
L 136.135992 170.956442 
L 142.694774 167.87859 
L 149.253556 164.726945 
L 155.812338 164.044744 
L 162.37112 163.531311 
L 168.929902 161.627581 
L 175.488684 159.165732 
L 182.047466 158.135812 
L 188.606248 156.524605 
L 195.16503 155.527273 
L 201.723812 154.289072 
L 208.282594 152.775234 
L 214.841376 151.780604 
L 221.400158 150.821446 
L 227.95894 149.627305 
L 234.517722 148.476511 
L 241.076504 147.825608 
L 247.635286 146.901634 
L 254.194068 146.083404 
L 260.75285 145.772258 
L 267.311632 145.3547 
L 273.870414 145.076871 
L 280.429196 145.559984 
L 286.987978 145.197462 
L 293.54676 144.923658 
L 300.105542 144.681181 
L 306.664324 144.322952 
L 313.223107 144.216912 
L 319.781889 143.702839 
L 326.340671 143.194893 
L 332.899453 142.872751 
L 339.458235 143.059177 
L 346.017017 142.025696 
L 352.575799 142.269343 
L 359.134581 142.058222 
L 365.693363 142.531034 
L 372.252145 142.59503 
L 378.810927 142.792581 
L 385.369709 142.548666 
L 391.928491 142.699651 
L 398.487273 143.181789 
" style="fill:none;stroke:#98df8a;stroke-linecap:square;stroke-width:1.5;"/>
   </g>
   <g id="line2d_62">
    <path clip-path="url(#p1aa716d5b2)" d="M 76.660221 346.6 
L 84.161518 209.612343 
L 94.490308 192.431047 
L 104.819099 178.56796 
L 115.14789 178.392874 
L 125.47668 175.45041 
L 135.805471 170.592327 
L 146.134261 164.222365 
L 156.463052 162.74611 
L 166.791842 161.989886 
L 177.120633 158.192333 
L 187.449424 155.043867 
L 197.778214 153.089071 
L 208.107005 152.355989 
L 218.435795 149.992074 
L 228.764586 148.090522 
L 239.093377 145.293573 
L 249.422167 144.383758 
L 259.750958 142.968073 
L 270.079748 143.041834 
L 280.408539 143.096534 
L 290.737329 142.842935 
L 301.06612 141.398235 
L 311.394911 141.969283 
L 321.723701 140.717572 
L 332.052492 139.359179 
L 342.381282 139.499998 
L 352.710073 139.575437 
L 363.038863 139.50058 
L 373.367654 138.748469 
L 383.696445 139.332826 
L 394.025235 138.317247 
" style="fill:none;stroke:#2ca02c;stroke-linecap:square;stroke-width:1.5;"/>
   </g>
   <g id="line2d_63">
    <path clip-path="url(#p1aa716d5b2)" d="M 77.106954 159.351932 
L 83.665736 201.693901 
L 90.224518 194.488073 
L 96.7833 181.15279 
L 103.342082 174.559783 
L 109.900864 176.699816 
L 116.459646 173.488574 
L 123.018428 172.474148 
L 129.57721 168.31055 
L 136.135992 167.036023 
L 142.694774 165.524642 
L 149.253556 162.527237 
L 155.812338 160.658363 
L 162.37112 160.33948 
L 168.929902 159.003841 
L 175.488684 157.1597 
L 182.047466 155.828249 
L 188.606248 154.303433 
L 195.16503 152.773762 
L 201.723812 152.624201 
L 208.282594 150.437371 
L 214.841376 148.516462 
L 221.400158 148.086515 
L 227.95894 146.324833 
L 234.517722 147.031199 
L 241.076504 147.033949 
L 247.635286 145.99893 
L 254.194068 146.333515 
L 260.75285 145.579835 
L 267.311632 145.966358 
L 273.870414 144.923994 
L 280.429196 144.851757 
L 286.987978 144.026826 
L 293.54676 144.094851 
L 300.105542 143.850894 
L 306.664324 143.61974 
L 313.223107 142.717199 
L 319.781889 142.38512 
L 326.340671 142.068323 
L 332.899453 141.142649 
L 339.458235 141.610827 
L 346.017017 141.052946 
L 352.575799 141.186658 
L 359.134581 141.496771 
L 365.693363 143.279588 
L 372.252145 142.918365 
L 378.810927 142.503046 
L 385.369709 143.135906 
L 391.928491 143.775752 
L 398.487273 144.181625 
" style="fill:none;stroke:#ff9896;stroke-linecap:square;stroke-width:1.5;"/>
   </g>
   <g id="line2d_64">
    <path clip-path="url(#p1aa716d5b2)" d="M 76.351889 346.6 
L 84.161518 204.051836 
L 94.490308 189.067877 
L 104.819099 175.152286 
L 115.14789 176.733316 
L 125.47668 173.215512 
L 135.805471 166.84439 
L 146.134261 164.113473 
L 156.463052 159.563411 
L 166.791842 160.206784 
L 177.120633 155.006399 
L 187.449424 154.366916 
L 197.778214 152.380294 
L 208.107005 147.801991 
L 218.435795 148.013374 
L 228.764586 143.388892 
L 239.093377 145.373759 
L 249.422167 145.332533 
L 259.750958 143.376956 
L 270.079748 144.711578 
L 280.408539 142.829916 
L 290.737329 142.24986 
L 301.06612 141.938992 
L 311.394911 141.38865 
L 321.723701 139.578285 
L 332.052492 137.866169 
L 342.381282 140.029051 
L 352.710073 138.89272 
L 363.038863 140.731948 
L 373.367654 140.039506 
L 383.696445 140.27753 
L 394.025235 141.61323 
" style="fill:none;stroke:#d62728;stroke-linecap:square;stroke-width:1.5;"/>
   </g>
   <g id="patch_3">
    <path d="M 57.6 307.584 
L 57.6 41.472 
" style="fill:none;stroke:#000000;stroke-linecap:square;stroke-linejoin:miter;stroke-width:0.8;"/>
   </g>
   <g id="patch_4">
    <path d="M 414.72 307.584 
L 414.72 41.472 
" style="fill:none;stroke:#000000;stroke-linecap:square;stroke-linejoin:miter;stroke-width:0.8;"/>
   </g>
   <g id="patch_5">
    <path d="M 57.6 307.584 
L 414.72 307.584 
" style="fill:none;stroke:#000000;stroke-linecap:square;stroke-linejoin:miter;stroke-width:0.8;"/>
   </g>
   <g id="patch_6">
    <path d="M 57.6 41.472 
L 414.72 41.472 
" style="fill:none;stroke:#000000;stroke-linecap:square;stroke-linejoin:miter;stroke-width:0.8;"/>
   </g>
   <g id="text_15">
    <!-- Feature Matching Error -->
    <defs>
     <path d="M 48.78125 52.59375 
L 48.78125 44.1875 
Q 44.96875 46.296875 41.140625 47.34375 
Q 37.3125 48.390625 33.40625 48.390625 
Q 24.65625 48.390625 19.8125 42.84375 
Q 14.984375 37.3125 14.984375 27.296875 
Q 14.984375 17.28125 19.8125 11.734375 
Q 24.65625 6.203125 33.40625 6.203125 
Q 37.3125 6.203125 41.140625 7.25 
Q 44.96875 8.296875 48.78125 10.40625 
L 48.78125 2.09375 
Q 45.015625 0.34375 40.984375 -0.53125 
Q 36.96875 -1.421875 32.421875 -1.421875 
Q 20.0625 -1.421875 12.78125 6.34375 
Q 5.515625 14.109375 5.515625 27.296875 
Q 5.515625 40.671875 12.859375 48.328125 
Q 20.21875 56 33.015625 56 
Q 37.15625 56 41.109375 55.140625 
Q 45.0625 54.296875 48.78125 52.59375 
z
" id="DejaVuSans-99"/>
    </defs>
    <g transform="translate(166.774687 35.472)scale(0.12 -0.12)">
     <use xlink:href="#DejaVuSans-70"/>
     <use x="57.441406" xlink:href="#DejaVuSans-101"/>
     <use x="118.964844" xlink:href="#DejaVuSans-97"/>
     <use x="180.244141" xlink:href="#DejaVuSans-116"/>
     <use x="219.453125" xlink:href="#DejaVuSans-117"/>
     <use x="282.832031" xlink:href="#DejaVuSans-114"/>
     <use x="323.914062" xlink:href="#DejaVuSans-101"/>
     <use x="385.4375" xlink:href="#DejaVuSans-32"/>
     <use x="417.224609" xlink:href="#DejaVuSans-77"/>
     <use x="503.503906" xlink:href="#DejaVuSans-97"/>
     <use x="564.783203" xlink:href="#DejaVuSans-116"/>
     <use x="603.992188" xlink:href="#DejaVuSans-99"/>
     <use x="658.972656" xlink:href="#DejaVuSans-104"/>
     <use x="722.351562" xlink:href="#DejaVuSans-105"/>
     <use x="750.134766" xlink:href="#DejaVuSans-110"/>
     <use x="813.513672" xlink:href="#DejaVuSans-103"/>
     <use x="876.990234" xlink:href="#DejaVuSans-32"/>
     <use x="908.777344" xlink:href="#DejaVuSans-69"/>
     <use x="971.960938" xlink:href="#DejaVuSans-114"/>
     <use x="1013.058594" xlink:href="#DejaVuSans-114"/>
     <use x="1054.140625" xlink:href="#DejaVuSans-111"/>
     <use x="1115.322266" xlink:href="#DejaVuSans-114"/>
    </g>
   </g>
   <g id="legend_1">
    <g id="patch_7">
     <path d="M 252.812187 302.584 
L 407.72 302.584 
Q 409.72 302.584 409.72 300.584 
L 409.72 184.159 
Q 409.72 182.159 407.72 182.159 
L 252.812187 182.159 
Q 250.812187 182.159 250.812187 184.159 
L 250.812187 300.584 
Q 250.812187 302.584 252.812187 302.584 
z
" style="fill:#ffffff;opacity:0.8;stroke:#cccccc;stroke-linejoin:miter;"/>
    </g>
    <g id="line2d_65">
     <path d="M 254.812187 190.257437 
L 274.812187 190.257437 
" style="fill:none;stroke:#aec7e8;stroke-linecap:square;stroke-width:1.5;"/>
    </g>
    <g id="line2d_66"/>
    <g id="text_16">
     <!-- Single Point -->
     <defs>
      <path d="M 9.421875 75.984375 
L 18.40625 75.984375 
L 18.40625 0 
L 9.421875 0 
z
" id="DejaVuSans-108"/>
      <path d="M 19.671875 64.796875 
L 19.671875 37.40625 
L 32.078125 37.40625 
Q 38.96875 37.40625 42.71875 40.96875 
Q 46.484375 44.53125 46.484375 51.125 
Q 46.484375 57.671875 42.71875 61.234375 
Q 38.96875 64.796875 32.078125 64.796875 
z
M 9.8125 72.90625 
L 32.078125 72.90625 
Q 44.34375 72.90625 50.609375 67.359375 
Q 56.890625 61.8125 56.890625 51.125 
Q 56.890625 40.328125 50.609375 34.8125 
Q 44.34375 29.296875 32.078125 29.296875 
L 19.671875 29.296875 
L 19.671875 0 
L 9.8125 0 
z
" id="DejaVuSans-80"/>
     </defs>
     <g transform="translate(282.812187 193.757437)scale(0.1 -0.1)">
      <use xlink:href="#DejaVuSans-83"/>
      <use x="63.476562" xlink:href="#DejaVuSans-105"/>
      <use x="91.259766" xlink:href="#DejaVuSans-110"/>
      <use x="154.638672" xlink:href="#DejaVuSans-103"/>
      <use x="218.115234" xlink:href="#DejaVuSans-108"/>
      <use x="245.898438" xlink:href="#DejaVuSans-101"/>
      <use x="307.421875" xlink:href="#DejaVuSans-32"/>
      <use x="339.208984" xlink:href="#DejaVuSans-80"/>
      <use x="399.464844" xlink:href="#DejaVuSans-111"/>
      <use x="460.646484" xlink:href="#DejaVuSans-105"/>
      <use x="488.429688" xlink:href="#DejaVuSans-110"/>
      <use x="551.808594" xlink:href="#DejaVuSans-116"/>
     </g>
    </g>
    <g id="line2d_67">
     <path d="M 254.812187 204.935563 
L 274.812187 204.935563 
" style="fill:none;stroke:#1f77b4;stroke-linecap:square;stroke-width:1.5;"/>
    </g>
    <g id="line2d_68"/>
    <g id="text_17">
     <!-- Single Point -->
     <g transform="translate(282.812187 208.435563)scale(0.1 -0.1)">
      <use xlink:href="#DejaVuSans-83"/>
      <use x="63.476562" xlink:href="#DejaVuSans-105"/>
      <use x="91.259766" xlink:href="#DejaVuSans-110"/>
      <use x="154.638672" xlink:href="#DejaVuSans-103"/>
      <use x="218.115234" xlink:href="#DejaVuSans-108"/>
      <use x="245.898438" xlink:href="#DejaVuSans-101"/>
      <use x="307.421875" xlink:href="#DejaVuSans-32"/>
      <use x="339.208984" xlink:href="#DejaVuSans-80"/>
      <use x="399.464844" xlink:href="#DejaVuSans-111"/>
      <use x="460.646484" xlink:href="#DejaVuSans-105"/>
      <use x="488.429688" xlink:href="#DejaVuSans-110"/>
      <use x="551.808594" xlink:href="#DejaVuSans-116"/>
     </g>
    </g>
    <g id="line2d_69">
     <path d="M 254.812187 219.613687 
L 274.812187 219.613687 
" style="fill:none;stroke:#ffbb78;stroke-linecap:square;stroke-width:1.5;"/>
    </g>
    <g id="line2d_70"/>
    <g id="text_18">
     <!-- Batch: Momentum = 0.0 -->
     <defs>
      <path d="M 19.671875 34.8125 
L 19.671875 8.109375 
L 35.5 8.109375 
Q 43.453125 8.109375 47.28125 11.40625 
Q 51.125 14.703125 51.125 21.484375 
Q 51.125 28.328125 47.28125 31.5625 
Q 43.453125 34.8125 35.5 34.8125 
z
M 19.671875 64.796875 
L 19.671875 42.828125 
L 34.28125 42.828125 
Q 41.5 42.828125 45.03125 45.53125 
Q 48.578125 48.25 48.578125 53.8125 
Q 48.578125 59.328125 45.03125 62.0625 
Q 41.5 64.796875 34.28125 64.796875 
z
M 9.8125 72.90625 
L 35.015625 72.90625 
Q 46.296875 72.90625 52.390625 68.21875 
Q 58.5 63.53125 58.5 54.890625 
Q 58.5 48.1875 55.375 44.234375 
Q 52.25 40.28125 46.1875 39.3125 
Q 53.46875 37.75 57.5 32.78125 
Q 61.53125 27.828125 61.53125 20.40625 
Q 61.53125 10.640625 54.890625 5.3125 
Q 48.25 0 35.984375 0 
L 9.8125 0 
z
" id="DejaVuSans-66"/>
      <path d="M 11.71875 12.40625 
L 22.015625 12.40625 
L 22.015625 0 
L 11.71875 0 
z
M 11.71875 51.703125 
L 22.015625 51.703125 
L 22.015625 39.3125 
L 11.71875 39.3125 
z
" id="DejaVuSans-58"/>
      <path d="M 52 44.1875 
Q 55.375 50.25 60.0625 53.125 
Q 64.75 56 71.09375 56 
Q 79.640625 56 84.28125 50.015625 
Q 88.921875 44.046875 88.921875 33.015625 
L 88.921875 0 
L 79.890625 0 
L 79.890625 32.71875 
Q 79.890625 40.578125 77.09375 44.375 
Q 74.3125 48.1875 68.609375 48.1875 
Q 61.625 48.1875 57.5625 43.546875 
Q 53.515625 38.921875 53.515625 30.90625 
L 53.515625 0 
L 44.484375 0 
L 44.484375 32.71875 
Q 44.484375 40.625 41.703125 44.40625 
Q 38.921875 48.1875 33.109375 48.1875 
Q 26.21875 48.1875 22.15625 43.53125 
Q 18.109375 38.875 18.109375 30.90625 
L 18.109375 0 
L 9.078125 0 
L 9.078125 54.6875 
L 18.109375 54.6875 
L 18.109375 46.1875 
Q 21.1875 51.21875 25.484375 53.609375 
Q 29.78125 56 35.6875 56 
Q 41.65625 56 45.828125 52.96875 
Q 50 49.953125 52 44.1875 
z
" id="DejaVuSans-109"/>
      <path d="M 10.59375 45.40625 
L 73.1875 45.40625 
L 73.1875 37.203125 
L 10.59375 37.203125 
z
M 10.59375 25.484375 
L 73.1875 25.484375 
L 73.1875 17.1875 
L 10.59375 17.1875 
z
" id="DejaVuSans-61"/>
      <path d="M 10.6875 12.40625 
L 21 12.40625 
L 21 0 
L 10.6875 0 
z
" id="DejaVuSans-46"/>
     </defs>
     <g transform="translate(282.812187 223.113687)scale(0.1 -0.1)">
      <use xlink:href="#DejaVuSans-66"/>
      <use x="68.603516" xlink:href="#DejaVuSans-97"/>
      <use x="129.882812" xlink:href="#DejaVuSans-116"/>
      <use x="169.091797" xlink:href="#DejaVuSans-99"/>
      <use x="224.072266" xlink:href="#DejaVuSans-104"/>
      <use x="287.451172" xlink:href="#DejaVuSans-58"/>
      <use x="321.142578" xlink:href="#DejaVuSans-32"/>
      <use x="352.929688" xlink:href="#DejaVuSans-77"/>
      <use x="439.208984" xlink:href="#DejaVuSans-111"/>
      <use x="500.390625" xlink:href="#DejaVuSans-109"/>
      <use x="597.802734" xlink:href="#DejaVuSans-101"/>
      <use x="659.326172" xlink:href="#DejaVuSans-110"/>
      <use x="722.705078" xlink:href="#DejaVuSans-116"/>
      <use x="761.914062" xlink:href="#DejaVuSans-117"/>
      <use x="825.292969" xlink:href="#DejaVuSans-109"/>
      <use x="922.705078" xlink:href="#DejaVuSans-32"/>
      <use x="954.492188" xlink:href="#DejaVuSans-61"/>
      <use x="1038.28125" xlink:href="#DejaVuSans-32"/>
      <use x="1070.068359" xlink:href="#DejaVuSans-48"/>
      <use x="1133.691406" xlink:href="#DejaVuSans-46"/>
      <use x="1165.478516" xlink:href="#DejaVuSans-48"/>
     </g>
    </g>
    <g id="line2d_71">
     <path d="M 254.812187 234.291812 
L 274.812187 234.291812 
" style="fill:none;stroke:#ff7f0e;stroke-linecap:square;stroke-width:1.5;"/>
    </g>
    <g id="line2d_72"/>
    <g id="text_19">
     <!-- Batch: Momentum = 0.0 -->
     <g transform="translate(282.812187 237.791812)scale(0.1 -0.1)">
      <use xlink:href="#DejaVuSans-66"/>
      <use x="68.603516" xlink:href="#DejaVuSans-97"/>
      <use x="129.882812" xlink:href="#DejaVuSans-116"/>
      <use x="169.091797" xlink:href="#DejaVuSans-99"/>
      <use x="224.072266" xlink:href="#DejaVuSans-104"/>
      <use x="287.451172" xlink:href="#DejaVuSans-58"/>
      <use x="321.142578" xlink:href="#DejaVuSans-32"/>
      <use x="352.929688" xlink:href="#DejaVuSans-77"/>
      <use x="439.208984" xlink:href="#DejaVuSans-111"/>
      <use x="500.390625" xlink:href="#DejaVuSans-109"/>
      <use x="597.802734" xlink:href="#DejaVuSans-101"/>
      <use x="659.326172" xlink:href="#DejaVuSans-110"/>
      <use x="722.705078" xlink:href="#DejaVuSans-116"/>
      <use x="761.914062" xlink:href="#DejaVuSans-117"/>
      <use x="825.292969" xlink:href="#DejaVuSans-109"/>
      <use x="922.705078" xlink:href="#DejaVuSans-32"/>
      <use x="954.492188" xlink:href="#DejaVuSans-61"/>
      <use x="1038.28125" xlink:href="#DejaVuSans-32"/>
      <use x="1070.068359" xlink:href="#DejaVuSans-48"/>
      <use x="1133.691406" xlink:href="#DejaVuSans-46"/>
      <use x="1165.478516" xlink:href="#DejaVuSans-48"/>
     </g>
    </g>
    <g id="line2d_73">
     <path d="M 254.812187 248.969937 
L 274.812187 248.969937 
" style="fill:none;stroke:#98df8a;stroke-linecap:square;stroke-width:1.5;"/>
    </g>
    <g id="line2d_74"/>
    <g id="text_20">
     <!-- Batch: Momentum = 0.1 -->
     <g transform="translate(282.812187 252.469937)scale(0.1 -0.1)">
      <use xlink:href="#DejaVuSans-66"/>
      <use x="68.603516" xlink:href="#DejaVuSans-97"/>
      <use x="129.882812" xlink:href="#DejaVuSans-116"/>
      <use x="169.091797" xlink:href="#DejaVuSans-99"/>
      <use x="224.072266" xlink:href="#DejaVuSans-104"/>
      <use x="287.451172" xlink:href="#DejaVuSans-58"/>
      <use x="321.142578" xlink:href="#DejaVuSans-32"/>
      <use x="352.929688" xlink:href="#DejaVuSans-77"/>
      <use x="439.208984" xlink:href="#DejaVuSans-111"/>
      <use x="500.390625" xlink:href="#DejaVuSans-109"/>
      <use x="597.802734" xlink:href="#DejaVuSans-101"/>
      <use x="659.326172" xlink:href="#DejaVuSans-110"/>
      <use x="722.705078" xlink:href="#DejaVuSans-116"/>
      <use x="761.914062" xlink:href="#DejaVuSans-117"/>
      <use x="825.292969" xlink:href="#DejaVuSans-109"/>
      <use x="922.705078" xlink:href="#DejaVuSans-32"/>
      <use x="954.492188" xlink:href="#DejaVuSans-61"/>
      <use x="1038.28125" xlink:href="#DejaVuSans-32"/>
      <use x="1070.068359" xlink:href="#DejaVuSans-48"/>
      <use x="1133.691406" xlink:href="#DejaVuSans-46"/>
      <use x="1165.478516" xlink:href="#DejaVuSans-49"/>
     </g>
    </g>
    <g id="line2d_75">
     <path d="M 254.812187 263.648062 
L 274.812187 263.648062 
" style="fill:none;stroke:#2ca02c;stroke-linecap:square;stroke-width:1.5;"/>
    </g>
    <g id="line2d_76"/>
    <g id="text_21">
     <!-- Batch: Momentum = 0.1 -->
     <g transform="translate(282.812187 267.148062)scale(0.1 -0.1)">
      <use xlink:href="#DejaVuSans-66"/>
      <use x="68.603516" xlink:href="#DejaVuSans-97"/>
      <use x="129.882812" xlink:href="#DejaVuSans-116"/>
      <use x="169.091797" xlink:href="#DejaVuSans-99"/>
      <use x="224.072266" xlink:href="#DejaVuSans-104"/>
      <use x="287.451172" xlink:href="#DejaVuSans-58"/>
      <use x="321.142578" xlink:href="#DejaVuSans-32"/>
      <use x="352.929688" xlink:href="#DejaVuSans-77"/>
      <use x="439.208984" xlink:href="#DejaVuSans-111"/>
      <use x="500.390625" xlink:href="#DejaVuSans-109"/>
      <use x="597.802734" xlink:href="#DejaVuSans-101"/>
      <use x="659.326172" xlink:href="#DejaVuSans-110"/>
      <use x="722.705078" xlink:href="#DejaVuSans-116"/>
      <use x="761.914062" xlink:href="#DejaVuSans-117"/>
      <use x="825.292969" xlink:href="#DejaVuSans-109"/>
      <use x="922.705078" xlink:href="#DejaVuSans-32"/>
      <use x="954.492188" xlink:href="#DejaVuSans-61"/>
      <use x="1038.28125" xlink:href="#DejaVuSans-32"/>
      <use x="1070.068359" xlink:href="#DejaVuSans-48"/>
      <use x="1133.691406" xlink:href="#DejaVuSans-46"/>
      <use x="1165.478516" xlink:href="#DejaVuSans-49"/>
     </g>
    </g>
    <g id="line2d_77">
     <path d="M 254.812187 278.326187 
L 274.812187 278.326187 
" style="fill:none;stroke:#ff9896;stroke-linecap:square;stroke-width:1.5;"/>
    </g>
    <g id="line2d_78"/>
    <g id="text_22">
     <!-- Batch: Momentum = 0.9 -->
     <defs>
      <path d="M 10.984375 1.515625 
L 10.984375 10.5 
Q 14.703125 8.734375 18.5 7.8125 
Q 22.3125 6.890625 25.984375 6.890625 
Q 35.75 6.890625 40.890625 13.453125 
Q 46.046875 20.015625 46.78125 33.40625 
Q 43.953125 29.203125 39.59375 26.953125 
Q 35.25 24.703125 29.984375 24.703125 
Q 19.046875 24.703125 12.671875 31.3125 
Q 6.296875 37.9375 6.296875 49.421875 
Q 6.296875 60.640625 12.9375 67.421875 
Q 19.578125 74.21875 30.609375 74.21875 
Q 43.265625 74.21875 49.921875 64.515625 
Q 56.59375 54.828125 56.59375 36.375 
Q 56.59375 19.140625 48.40625 8.859375 
Q 40.234375 -1.421875 26.421875 -1.421875 
Q 22.703125 -1.421875 18.890625 -0.6875 
Q 15.09375 0.046875 10.984375 1.515625 
z
M 30.609375 32.421875 
Q 37.25 32.421875 41.125 36.953125 
Q 45.015625 41.5 45.015625 49.421875 
Q 45.015625 57.28125 41.125 61.84375 
Q 37.25 66.40625 30.609375 66.40625 
Q 23.96875 66.40625 20.09375 61.84375 
Q 16.21875 57.28125 16.21875 49.421875 
Q 16.21875 41.5 20.09375 36.953125 
Q 23.96875 32.421875 30.609375 32.421875 
z
" id="DejaVuSans-57"/>
     </defs>
     <g transform="translate(282.812187 281.826187)scale(0.1 -0.1)">
      <use xlink:href="#DejaVuSans-66"/>
      <use x="68.603516" xlink:href="#DejaVuSans-97"/>
      <use x="129.882812" xlink:href="#DejaVuSans-116"/>
      <use x="169.091797" xlink:href="#DejaVuSans-99"/>
      <use x="224.072266" xlink:href="#DejaVuSans-104"/>
      <use x="287.451172" xlink:href="#DejaVuSans-58"/>
      <use x="321.142578" xlink:href="#DejaVuSans-32"/>
      <use x="352.929688" xlink:href="#DejaVuSans-77"/>
      <use x="439.208984" xlink:href="#DejaVuSans-111"/>
      <use x="500.390625" xlink:href="#DejaVuSans-109"/>
      <use x="597.802734" xlink:href="#DejaVuSans-101"/>
      <use x="659.326172" xlink:href="#DejaVuSans-110"/>
      <use x="722.705078" xlink:href="#DejaVuSans-116"/>
      <use x="761.914062" xlink:href="#DejaVuSans-117"/>
      <use x="825.292969" xlink:href="#DejaVuSans-109"/>
      <use x="922.705078" xlink:href="#DejaVuSans-32"/>
      <use x="954.492188" xlink:href="#DejaVuSans-61"/>
      <use x="1038.28125" xlink:href="#DejaVuSans-32"/>
      <use x="1070.068359" xlink:href="#DejaVuSans-48"/>
      <use x="1133.691406" xlink:href="#DejaVuSans-46"/>
      <use x="1165.478516" xlink:href="#DejaVuSans-57"/>
     </g>
    </g>
    <g id="line2d_79">
     <path d="M 254.812187 293.004312 
L 274.812187 293.004312 
" style="fill:none;stroke:#d62728;stroke-linecap:square;stroke-width:1.5;"/>
    </g>
    <g id="line2d_80"/>
    <g id="text_23">
     <!-- Batch: Momentum = 0.9 -->
     <g transform="translate(282.812187 296.504312)scale(0.1 -0.1)">
      <use xlink:href="#DejaVuSans-66"/>
      <use x="68.603516" xlink:href="#DejaVuSans-97"/>
      <use x="129.882812" xlink:href="#DejaVuSans-116"/>
      <use x="169.091797" xlink:href="#DejaVuSans-99"/>
      <use x="224.072266" xlink:href="#DejaVuSans-104"/>
      <use x="287.451172" xlink:href="#DejaVuSans-58"/>
      <use x="321.142578" xlink:href="#DejaVuSans-32"/>
      <use x="352.929688" xlink:href="#DejaVuSans-77"/>
      <use x="439.208984" xlink:href="#DejaVuSans-111"/>
      <use x="500.390625" xlink:href="#DejaVuSans-109"/>
      <use x="597.802734" xlink:href="#DejaVuSans-101"/>
      <use x="659.326172" xlink:href="#DejaVuSans-110"/>
      <use x="722.705078" xlink:href="#DejaVuSans-116"/>
      <use x="761.914062" xlink:href="#DejaVuSans-117"/>
      <use x="825.292969" xlink:href="#DejaVuSans-109"/>
      <use x="922.705078" xlink:href="#DejaVuSans-32"/>
      <use x="954.492188" xlink:href="#DejaVuSans-61"/>
      <use x="1038.28125" xlink:href="#DejaVuSans-32"/>
      <use x="1070.068359" xlink:href="#DejaVuSans-48"/>
      <use x="1133.691406" xlink:href="#DejaVuSans-46"/>
      <use x="1165.478516" xlink:href="#DejaVuSans-57"/>
     </g>
    </g>
   </g>
  </g>
 </g>
 <defs>
  <clipPath id="p1aa716d5b2">
   <rect height="266.112" width="357.12" x="57.6" y="41.472"/>
  </clipPath>
 </defs>
</svg>
