<?xml version="1.0" encoding="utf-8" standalone="no"?>
<!DOCTYPE svg PUBLIC "-//W3C//DTD SVG 1.1//EN"
  "http://www.w3.org/Graphics/SVG/1.1/DTD/svg11.dtd">
<!-- Created with matplotlib (https://matplotlib.org/) -->
<svg height="345.6pt" version="1.1" viewBox="0 0 460.8 345.6" width="460.8pt" xmlns="http://www.w3.org/2000/svg" xmlns:xlink="http://www.w3.org/1999/xlink">
 <defs>
  <style type="text/css">
*{stroke-linecap:butt;stroke-linejoin:round;white-space:pre;}
  </style>
 </defs>
 <g id="figure_1">
  <g id="patch_1">
   <path d="M 0 345.6 
L 460.8 345.6 
L 460.8 0 
L 0 0 
z
" style="fill:#ffffff;"/>
  </g>
  <g id="axes_1">
   <g id="patch_2">
    <path d="M 57.6 307.584 
L 414.72 307.584 
L 414.72 41.472 
L 57.6 41.472 
z
" style="fill:#ffffff;"/>
   </g>
   <g id="PolyCollection_1">
    <defs>
     <path d="M 77.106954 -266.634879 
L 77.106954 -171.32222 
L 83.665736 -230.005466 
L 90.224518 -221.725166 
L 96.7833 -227.085491 
L 103.342082 -234.749904 
L 109.900864 -232.106986 
L 116.459646 -232.727983 
L 123.018428 -226.719251 
L 129.57721 -225.641289 
L 136.135992 -225.778185 
L 142.694774 -229.956253 
L 149.253556 -229.235504 
L 155.812338 -229.323677 
L 162.37112 -231.808821 
L 168.929902 -233.386286 
L 175.488684 -235.497648 
L 182.047466 -236.2151 
L 188.606248 -238.266757 
L 195.16503 -240.441451 
L 201.723812 -238.380173 
L 208.282594 -238.192752 
L 214.841376 -236.197042 
L 221.400158 -238.023821 
L 227.95894 -237.713152 
L 234.517722 -238.058127 
L 241.076504 -237.078199 
L 247.635286 -238.263902 
L 254.194068 -238.610885 
L 260.75285 -238.258859 
L 267.311632 -236.694297 
L 273.870414 -237.476009 
L 280.429196 -237.466849 
L 286.987978 -237.461984 
L 293.54676 -237.990675 
L 300.105542 -240.211514 
L 306.664324 -239.493037 
L 313.223107 -240.469421 
L 319.781889 -241.227073 
L 326.340671 -241.220965 
L 332.899453 -241.389627 
L 339.458235 -240.613803 
L 346.017017 -242.189815 
L 352.575799 -240.542562 
L 359.134581 -242.199119 
L 365.693363 -241.985024 
L 372.252145 -241.148065 
L 378.810927 -241.767264 
L 385.369709 -241.089662 
L 391.928491 -241.43186 
L 398.487273 -241.107309 
L 398.487273 -251.310381 
L 398.487273 -251.310381 
L 391.928491 -251.484425 
L 385.369709 -251.529643 
L 378.810927 -252.074569 
L 372.252145 -252.190263 
L 365.693363 -252.360013 
L 359.134581 -253.20872 
L 352.575799 -251.566683 
L 346.017017 -250.946722 
L 339.458235 -252.656423 
L 332.899453 -252.526958 
L 326.340671 -252.094688 
L 319.781889 -253.355654 
L 313.223107 -252.333893 
L 306.664324 -251.695916 
L 300.105542 -250.464432 
L 293.54676 -249.251151 
L 286.987978 -249.724393 
L 280.429196 -247.8845 
L 273.870414 -250.20779 
L 267.311632 -251.965058 
L 260.75285 -249.90111 
L 254.194068 -251.908128 
L 247.635286 -253.499226 
L 241.076504 -250.24878 
L 234.517722 -250.860012 
L 227.95894 -252.903812 
L 221.400158 -250.913963 
L 214.841376 -251.859356 
L 208.282594 -252.179604 
L 201.723812 -254.09545 
L 195.16503 -252.49945 
L 188.606248 -250.256744 
L 182.047466 -249.8837 
L 175.488684 -247.74931 
L 168.929902 -248.130077 
L 162.37112 -246.653843 
L 155.812338 -243.79709 
L 149.253556 -243.422225 
L 142.694774 -248.140924 
L 136.135992 -245.052017 
L 129.57721 -244.685275 
L 123.018428 -248.331648 
L 116.459646 -255.400213 
L 109.900864 -259.601331 
L 103.342082 -250.233804 
L 96.7833 -258.031172 
L 90.224518 -244.727471 
L 83.665736 -271.095227 
L 77.106954 -266.634879 
z
" id="m45e01a8e23" style="stroke:#aec7e8;stroke-opacity:0.25;"/>
    </defs>
    <g clip-path="url(#p4e00e4ce58)">
     <use style="fill:#aec7e8;fill-opacity:0.25;stroke:#aec7e8;stroke-opacity:0.25;" x="0" xlink:href="#m45e01a8e23" y="345.6"/>
    </g>
   </g>
   <g id="PolyCollection_2">
    <defs>
     <path d="M 77.106954 -267.988189 
L 77.106954 -186.305955 
L 83.665736 -200.015771 
L 90.224518 -218.906289 
L 96.7833 -227.314768 
L 103.342082 -224.146048 
L 109.900864 -228.056074 
L 116.459646 -227.679343 
L 123.018428 -225.919088 
L 129.57721 -224.67089 
L 136.135992 -228.758884 
L 142.694774 -228.36899 
L 149.253556 -228.899719 
L 155.812338 -226.767597 
L 162.37112 -225.069808 
L 168.929902 -224.184413 
L 175.488684 -224.116244 
L 182.047466 -222.339214 
L 188.606248 -225.640145 
L 195.16503 -224.715706 
L 201.723812 -227.624442 
L 208.282594 -225.858664 
L 214.841376 -228.12 
L 221.400158 -228.253512 
L 227.95894 -228.703213 
L 234.517722 -225.158666 
L 241.076504 -227.755247 
L 247.635286 -226.883995 
L 254.194068 -224.274916 
L 260.75285 -224.897252 
L 267.311632 -224.890148 
L 273.870414 -224.591417 
L 280.429196 -225.788494 
L 286.987978 -222.882818 
L 293.54676 -220.257231 
L 300.105542 -223.867056 
L 306.664324 -223.379354 
L 313.223107 -222.743163 
L 319.781889 -223.992991 
L 326.340671 -223.272489 
L 332.899453 -223.487522 
L 339.458235 -223.465796 
L 346.017017 -226.124364 
L 352.575799 -227.459837 
L 359.134581 -227.581494 
L 365.693363 -225.387591 
L 372.252145 -224.510189 
L 378.810927 -223.836533 
L 385.369709 -223.772976 
L 391.928491 -226.060251 
L 398.487273 -224.943656 
L 398.487273 -246.546691 
L 398.487273 -246.546691 
L 391.928491 -251.965012 
L 385.369709 -250.117158 
L 378.810927 -250.131575 
L 372.252145 -251.69856 
L 365.693363 -250.997622 
L 359.134581 -256.545576 
L 352.575799 -252.587608 
L 346.017017 -254.965407 
L 339.458235 -249.77813 
L 332.899453 -254.198361 
L 326.340671 -256.159779 
L 319.781889 -258.179906 
L 313.223107 -254.27216 
L 306.664324 -256.999219 
L 300.105542 -253.399554 
L 293.54676 -256.661265 
L 286.987978 -256.222676 
L 280.429196 -255.777163 
L 273.870414 -254.143484 
L 267.311632 -255.500512 
L 260.75285 -258.176305 
L 254.194068 -256.626446 
L 247.635286 -257.129624 
L 241.076504 -254.482884 
L 234.517722 -257.02828 
L 227.95894 -259.521785 
L 221.400158 -259.435467 
L 214.841376 -261.193911 
L 208.282594 -258.247009 
L 201.723812 -257.17247 
L 195.16503 -257.864679 
L 188.606248 -251.731084 
L 182.047466 -246.322693 
L 175.488684 -246.308982 
L 168.929902 -245.482058 
L 162.37112 -242.627982 
L 155.812338 -243.000893 
L 149.253556 -243.636122 
L 142.694774 -247.908215 
L 136.135992 -247.123779 
L 129.57721 -248.662913 
L 123.018428 -248.715053 
L 116.459646 -248.813893 
L 109.900864 -247.189157 
L 103.342082 -255.207454 
L 96.7833 -251.471571 
L 90.224518 -268.853913 
L 83.665736 -252.233214 
L 77.106954 -267.988189 
z
" id="m93d3a6267d" style="stroke:#ffbb78;stroke-opacity:0.25;"/>
    </defs>
    <g clip-path="url(#p4e00e4ce58)">
     <use style="fill:#ffbb78;fill-opacity:0.25;stroke:#ffbb78;stroke-opacity:0.25;" x="0" xlink:href="#m93d3a6267d" y="345.6"/>
    </g>
   </g>
   <g id="PolyCollection_3">
    <defs>
     <path d="M 77.106954 -266.941433 
L 77.106954 -195.436918 
L 83.665736 -206.544018 
L 90.224518 -215.331771 
L 96.7833 -219.805502 
L 103.342082 -220.432931 
L 109.900864 -224.939976 
L 116.459646 -227.709869 
L 123.018428 -231.968424 
L 129.57721 -229.802391 
L 136.135992 -228.874651 
L 142.694774 -226.988611 
L 149.253556 -223.259818 
L 155.812338 -226.289513 
L 162.37112 -226.604575 
L 168.929902 -224.660994 
L 175.488684 -227.22428 
L 182.047466 -225.571582 
L 188.606248 -225.906359 
L 195.16503 -224.164374 
L 201.723812 -224.517879 
L 208.282594 -226.364778 
L 214.841376 -224.67741 
L 221.400158 -225.356845 
L 227.95894 -225.538558 
L 234.517722 -222.482911 
L 241.076504 -222.864759 
L 247.635286 -224.311883 
L 254.194068 -223.965467 
L 260.75285 -223.877852 
L 267.311632 -225.76498 
L 273.870414 -222.750159 
L 280.429196 -224.470446 
L 286.987978 -223.853647 
L 293.54676 -224.148911 
L 300.105542 -223.617506 
L 306.664324 -222.299618 
L 313.223107 -225.180077 
L 319.781889 -223.993263 
L 326.340671 -224.601514 
L 332.899453 -224.381587 
L 339.458235 -224.335955 
L 346.017017 -221.385575 
L 352.575799 -222.281968 
L 359.134581 -221.851719 
L 365.693363 -223.347686 
L 372.252145 -221.888082 
L 378.810927 -220.728451 
L 385.369709 -224.035259 
L 391.928491 -220.327632 
L 398.487273 -223.954912 
L 398.487273 -258.863567 
L 398.487273 -258.863567 
L 391.928491 -259.55467 
L 385.369709 -257.429268 
L 378.810927 -262.657482 
L 372.252145 -260.013242 
L 365.693363 -260.199356 
L 359.134581 -263.237221 
L 352.575799 -259.467326 
L 346.017017 -259.204178 
L 339.458235 -260.006686 
L 332.899453 -260.313516 
L 326.340671 -260.102227 
L 319.781889 -264.53869 
L 313.223107 -261.409321 
L 306.664324 -267.80385 
L 300.105542 -259.819927 
L 293.54676 -261.018572 
L 286.987978 -264.713965 
L 280.429196 -260.615598 
L 273.870414 -260.606266 
L 267.311632 -262.864085 
L 260.75285 -263.440076 
L 254.194068 -263.408142 
L 247.635286 -264.425485 
L 241.076504 -264.383613 
L 234.517722 -264.13912 
L 227.95894 -264.580402 
L 221.400158 -264.105133 
L 214.841376 -262.419341 
L 208.282594 -261.943345 
L 201.723812 -260.397702 
L 195.16503 -255.462341 
L 188.606248 -252.323826 
L 182.047466 -253.260499 
L 175.488684 -252.005564 
L 168.929902 -250.281002 
L 162.37112 -251.459845 
L 155.812338 -249.944555 
L 149.253556 -250.223416 
L 142.694774 -249.127099 
L 136.135992 -248.777619 
L 129.57721 -245.894929 
L 123.018428 -249.858684 
L 116.459646 -247.313994 
L 109.900864 -246.84194 
L 103.342082 -248.056703 
L 96.7833 -259.055442 
L 90.224518 -246.752791 
L 83.665736 -239.99899 
L 77.106954 -266.941433 
z
" id="m8e3c19d2e7" style="stroke:#98df8a;stroke-opacity:0.25;"/>
    </defs>
    <g clip-path="url(#p4e00e4ce58)">
     <use style="fill:#98df8a;fill-opacity:0.25;stroke:#98df8a;stroke-opacity:0.25;" x="0" xlink:href="#m8e3c19d2e7" y="345.6"/>
    </g>
   </g>
   <g id="PolyCollection_4">
    <defs>
     <path d="M 77.106954 -288.926904 
L 77.106954 -113.095083 
L 83.665736 -221.112136 
L 90.224518 -230.867885 
L 96.7833 -238.240208 
L 103.342082 -236.798849 
L 109.900864 -235.792472 
L 116.459646 -237.091372 
L 123.018428 -236.536702 
L 129.57721 -240.129845 
L 136.135992 -241.691482 
L 142.694774 -235.609254 
L 149.253556 -236.065302 
L 155.812338 -237.550314 
L 162.37112 -236.41609 
L 168.929902 -237.616237 
L 175.488684 -232.38016 
L 182.047466 -233.085503 
L 188.606248 -223.65902 
L 195.16503 -226.412734 
L 201.723812 -227.609511 
L 208.282594 -221.793811 
L 214.841376 -223.727985 
L 221.400158 -221.666294 
L 227.95894 -216.290571 
L 234.517722 -218.173488 
L 241.076504 -220.512083 
L 247.635286 -223.77762 
L 254.194068 -217.950937 
L 260.75285 -219.106792 
L 267.311632 -218.833407 
L 273.870414 -223.047996 
L 280.429196 -224.371697 
L 286.987978 -224.362663 
L 293.54676 -226.868126 
L 300.105542 -228.112555 
L 306.664324 -227.409762 
L 313.223107 -229.398458 
L 319.781889 -226.557118 
L 326.340671 -235.079217 
L 332.899453 -230.52096 
L 339.458235 -230.459856 
L 346.017017 -229.055556 
L 352.575799 -230.738432 
L 359.134581 -226.66758 
L 365.693363 -215.401274 
L 372.252145 -207.657573 
L 378.810927 -220.824417 
L 385.369709 -235.350484 
L 391.928491 -239.404925 
L 398.487273 -235.601606 
L 398.487273 -248.657078 
L 398.487273 -248.657078 
L 391.928491 -249.555735 
L 385.369709 -247.167613 
L 378.810927 -245.43119 
L 372.252145 -228.779569 
L 365.693363 -238.573441 
L 359.134581 -242.929612 
L 352.575799 -246.977048 
L 346.017017 -246.136564 
L 339.458235 -252.137709 
L 332.899453 -249.177941 
L 326.340671 -258.465732 
L 319.781889 -252.139823 
L 313.223107 -250.479364 
L 306.664324 -249.02351 
L 300.105542 -252.451782 
L 293.54676 -247.073501 
L 286.987978 -250.034071 
L 280.429196 -250.189635 
L 273.870414 -257.782733 
L 267.311632 -248.627822 
L 260.75285 -244.889041 
L 254.194068 -245.121416 
L 247.635286 -244.934687 
L 241.076504 -243.909995 
L 234.517722 -245.74624 
L 227.95894 -242.84929 
L 221.400158 -244.12176 
L 214.841376 -244.965201 
L 208.282594 -241.874382 
L 201.723812 -246.381919 
L 195.16503 -242.01735 
L 188.606248 -241.950715 
L 182.047466 -246.311581 
L 175.488684 -246.667824 
L 168.929902 -251.01005 
L 162.37112 -254.416388 
L 155.812338 -246.365399 
L 149.253556 -245.32216 
L 142.694774 -249.364081 
L 136.135992 -248.904313 
L 129.57721 -247.432213 
L 123.018428 -247.341193 
L 116.459646 -251.327307 
L 109.900864 -249.764612 
L 103.342082 -250.842353 
L 96.7833 -253.090504 
L 90.224518 -252.420929 
L 83.665736 -250.753384 
L 77.106954 -288.926904 
z
" id="mb75d99d369" style="stroke:#ff9896;stroke-opacity:0.25;"/>
    </defs>
    <g clip-path="url(#p4e00e4ce58)">
     <use style="fill:#ff9896;fill-opacity:0.25;stroke:#ff9896;stroke-opacity:0.25;" x="0" xlink:href="#mb75d99d369" y="345.6"/>
    </g>
   </g>
   <g id="matplotlib.axis_1">
    <g id="xtick_1">
     <g id="line2d_1">
      <path clip-path="url(#p4e00e4ce58)" d="M 73.832727 307.584 
L 73.832727 41.472 
" style="fill:none;stroke:#b0b0b0;stroke-linecap:square;stroke-width:0.8;"/>
     </g>
     <g id="line2d_2">
      <defs>
       <path d="M 0 0 
L 0 3.5 
" id="ma58fd73049" style="stroke:#000000;stroke-width:0.8;"/>
      </defs>
      <g>
       <use style="stroke:#000000;stroke-width:0.8;" x="73.832727" xlink:href="#ma58fd73049" y="307.584"/>
      </g>
     </g>
     <g id="text_1">
      <!-- 0 -->
      <defs>
       <path d="M 31.78125 66.40625 
Q 24.171875 66.40625 20.328125 58.90625 
Q 16.5 51.421875 16.5 36.375 
Q 16.5 21.390625 20.328125 13.890625 
Q 24.171875 6.390625 31.78125 6.390625 
Q 39.453125 6.390625 43.28125 13.890625 
Q 47.125 21.390625 47.125 36.375 
Q 47.125 51.421875 43.28125 58.90625 
Q 39.453125 66.40625 31.78125 66.40625 
z
M 31.78125 74.21875 
Q 44.046875 74.21875 50.515625 64.515625 
Q 56.984375 54.828125 56.984375 36.375 
Q 56.984375 17.96875 50.515625 8.265625 
Q 44.046875 -1.421875 31.78125 -1.421875 
Q 19.53125 -1.421875 13.0625 8.265625 
Q 6.59375 17.96875 6.59375 36.375 
Q 6.59375 54.828125 13.0625 64.515625 
Q 19.53125 74.21875 31.78125 74.21875 
z
" id="DejaVuSans-48"/>
      </defs>
      <g transform="translate(70.651477 322.182437)scale(0.1 -0.1)">
       <use xlink:href="#DejaVuSans-48"/>
      </g>
     </g>
    </g>
    <g id="xtick_2">
     <g id="line2d_3">
      <path clip-path="url(#p4e00e4ce58)" d="M 125.47668 307.584 
L 125.47668 41.472 
" style="fill:none;stroke:#b0b0b0;stroke-linecap:square;stroke-width:0.8;"/>
     </g>
     <g id="line2d_4">
      <g>
       <use style="stroke:#000000;stroke-width:0.8;" x="125.47668" xlink:href="#ma58fd73049" y="307.584"/>
      </g>
     </g>
     <g id="text_2">
      <!-- 5000 -->
      <defs>
       <path d="M 10.796875 72.90625 
L 49.515625 72.90625 
L 49.515625 64.59375 
L 19.828125 64.59375 
L 19.828125 46.734375 
Q 21.96875 47.46875 24.109375 47.828125 
Q 26.265625 48.1875 28.421875 48.1875 
Q 40.625 48.1875 47.75 41.5 
Q 54.890625 34.8125 54.890625 23.390625 
Q 54.890625 11.625 47.5625 5.09375 
Q 40.234375 -1.421875 26.90625 -1.421875 
Q 22.3125 -1.421875 17.546875 -0.640625 
Q 12.796875 0.140625 7.71875 1.703125 
L 7.71875 11.625 
Q 12.109375 9.234375 16.796875 8.0625 
Q 21.484375 6.890625 26.703125 6.890625 
Q 35.15625 6.890625 40.078125 11.328125 
Q 45.015625 15.765625 45.015625 23.390625 
Q 45.015625 31 40.078125 35.4375 
Q 35.15625 39.890625 26.703125 39.890625 
Q 22.75 39.890625 18.8125 39.015625 
Q 14.890625 38.140625 10.796875 36.28125 
z
" id="DejaVuSans-53"/>
      </defs>
      <g transform="translate(112.75168 322.182437)scale(0.1 -0.1)">
       <use xlink:href="#DejaVuSans-53"/>
       <use x="63.623047" xlink:href="#DejaVuSans-48"/>
       <use x="127.246094" xlink:href="#DejaVuSans-48"/>
       <use x="190.869141" xlink:href="#DejaVuSans-48"/>
      </g>
     </g>
    </g>
    <g id="xtick_3">
     <g id="line2d_5">
      <path clip-path="url(#p4e00e4ce58)" d="M 177.120633 307.584 
L 177.120633 41.472 
" style="fill:none;stroke:#b0b0b0;stroke-linecap:square;stroke-width:0.8;"/>
     </g>
     <g id="line2d_6">
      <g>
       <use style="stroke:#000000;stroke-width:0.8;" x="177.120633" xlink:href="#ma58fd73049" y="307.584"/>
      </g>
     </g>
     <g id="text_3">
      <!-- 10000 -->
      <defs>
       <path d="M 12.40625 8.296875 
L 28.515625 8.296875 
L 28.515625 63.921875 
L 10.984375 60.40625 
L 10.984375 69.390625 
L 28.421875 72.90625 
L 38.28125 72.90625 
L 38.28125 8.296875 
L 54.390625 8.296875 
L 54.390625 0 
L 12.40625 0 
z
" id="DejaVuSans-49"/>
      </defs>
      <g transform="translate(161.214383 322.182437)scale(0.1 -0.1)">
       <use xlink:href="#DejaVuSans-49"/>
       <use x="63.623047" xlink:href="#DejaVuSans-48"/>
       <use x="127.246094" xlink:href="#DejaVuSans-48"/>
       <use x="190.869141" xlink:href="#DejaVuSans-48"/>
       <use x="254.492188" xlink:href="#DejaVuSans-48"/>
      </g>
     </g>
    </g>
    <g id="xtick_4">
     <g id="line2d_7">
      <path clip-path="url(#p4e00e4ce58)" d="M 228.764586 307.584 
L 228.764586 41.472 
" style="fill:none;stroke:#b0b0b0;stroke-linecap:square;stroke-width:0.8;"/>
     </g>
     <g id="line2d_8">
      <g>
       <use style="stroke:#000000;stroke-width:0.8;" x="228.764586" xlink:href="#ma58fd73049" y="307.584"/>
      </g>
     </g>
     <g id="text_4">
      <!-- 15000 -->
      <g transform="translate(212.858336 322.182437)scale(0.1 -0.1)">
       <use xlink:href="#DejaVuSans-49"/>
       <use x="63.623047" xlink:href="#DejaVuSans-53"/>
       <use x="127.246094" xlink:href="#DejaVuSans-48"/>
       <use x="190.869141" xlink:href="#DejaVuSans-48"/>
       <use x="254.492188" xlink:href="#DejaVuSans-48"/>
      </g>
     </g>
    </g>
    <g id="xtick_5">
     <g id="line2d_9">
      <path clip-path="url(#p4e00e4ce58)" d="M 280.408539 307.584 
L 280.408539 41.472 
" style="fill:none;stroke:#b0b0b0;stroke-linecap:square;stroke-width:0.8;"/>
     </g>
     <g id="line2d_10">
      <g>
       <use style="stroke:#000000;stroke-width:0.8;" x="280.408539" xlink:href="#ma58fd73049" y="307.584"/>
      </g>
     </g>
     <g id="text_5">
      <!-- 20000 -->
      <defs>
       <path d="M 19.1875 8.296875 
L 53.609375 8.296875 
L 53.609375 0 
L 7.328125 0 
L 7.328125 8.296875 
Q 12.9375 14.109375 22.625 23.890625 
Q 32.328125 33.6875 34.8125 36.53125 
Q 39.546875 41.84375 41.421875 45.53125 
Q 43.3125 49.21875 43.3125 52.78125 
Q 43.3125 58.59375 39.234375 62.25 
Q 35.15625 65.921875 28.609375 65.921875 
Q 23.96875 65.921875 18.8125 64.3125 
Q 13.671875 62.703125 7.8125 59.421875 
L 7.8125 69.390625 
Q 13.765625 71.78125 18.9375 73 
Q 24.125 74.21875 28.421875 74.21875 
Q 39.75 74.21875 46.484375 68.546875 
Q 53.21875 62.890625 53.21875 53.421875 
Q 53.21875 48.921875 51.53125 44.890625 
Q 49.859375 40.875 45.40625 35.40625 
Q 44.1875 33.984375 37.640625 27.21875 
Q 31.109375 20.453125 19.1875 8.296875 
z
" id="DejaVuSans-50"/>
      </defs>
      <g transform="translate(264.502289 322.182437)scale(0.1 -0.1)">
       <use xlink:href="#DejaVuSans-50"/>
       <use x="63.623047" xlink:href="#DejaVuSans-48"/>
       <use x="127.246094" xlink:href="#DejaVuSans-48"/>
       <use x="190.869141" xlink:href="#DejaVuSans-48"/>
       <use x="254.492188" xlink:href="#DejaVuSans-48"/>
      </g>
     </g>
    </g>
    <g id="xtick_6">
     <g id="line2d_11">
      <path clip-path="url(#p4e00e4ce58)" d="M 332.052492 307.584 
L 332.052492 41.472 
" style="fill:none;stroke:#b0b0b0;stroke-linecap:square;stroke-width:0.8;"/>
     </g>
     <g id="line2d_12">
      <g>
       <use style="stroke:#000000;stroke-width:0.8;" x="332.052492" xlink:href="#ma58fd73049" y="307.584"/>
      </g>
     </g>
     <g id="text_6">
      <!-- 25000 -->
      <g transform="translate(316.146242 322.182437)scale(0.1 -0.1)">
       <use xlink:href="#DejaVuSans-50"/>
       <use x="63.623047" xlink:href="#DejaVuSans-53"/>
       <use x="127.246094" xlink:href="#DejaVuSans-48"/>
       <use x="190.869141" xlink:href="#DejaVuSans-48"/>
       <use x="254.492188" xlink:href="#DejaVuSans-48"/>
      </g>
     </g>
    </g>
    <g id="xtick_7">
     <g id="line2d_13">
      <path clip-path="url(#p4e00e4ce58)" d="M 383.696445 307.584 
L 383.696445 41.472 
" style="fill:none;stroke:#b0b0b0;stroke-linecap:square;stroke-width:0.8;"/>
     </g>
     <g id="line2d_14">
      <g>
       <use style="stroke:#000000;stroke-width:0.8;" x="383.696445" xlink:href="#ma58fd73049" y="307.584"/>
      </g>
     </g>
     <g id="text_7">
      <!-- 30000 -->
      <defs>
       <path d="M 40.578125 39.3125 
Q 47.65625 37.796875 51.625 33 
Q 55.609375 28.21875 55.609375 21.1875 
Q 55.609375 10.40625 48.1875 4.484375 
Q 40.765625 -1.421875 27.09375 -1.421875 
Q 22.515625 -1.421875 17.65625 -0.515625 
Q 12.796875 0.390625 7.625 2.203125 
L 7.625 11.71875 
Q 11.71875 9.328125 16.59375 8.109375 
Q 21.484375 6.890625 26.8125 6.890625 
Q 36.078125 6.890625 40.9375 10.546875 
Q 45.796875 14.203125 45.796875 21.1875 
Q 45.796875 27.640625 41.28125 31.265625 
Q 36.765625 34.90625 28.71875 34.90625 
L 20.21875 34.90625 
L 20.21875 43.015625 
L 29.109375 43.015625 
Q 36.375 43.015625 40.234375 45.921875 
Q 44.09375 48.828125 44.09375 54.296875 
Q 44.09375 59.90625 40.109375 62.90625 
Q 36.140625 65.921875 28.71875 65.921875 
Q 24.65625 65.921875 20.015625 65.03125 
Q 15.375 64.15625 9.8125 62.3125 
L 9.8125 71.09375 
Q 15.4375 72.65625 20.34375 73.4375 
Q 25.25 74.21875 29.59375 74.21875 
Q 40.828125 74.21875 47.359375 69.109375 
Q 53.90625 64.015625 53.90625 55.328125 
Q 53.90625 49.265625 50.4375 45.09375 
Q 46.96875 40.921875 40.578125 39.3125 
z
" id="DejaVuSans-51"/>
      </defs>
      <g transform="translate(367.790195 322.182437)scale(0.1 -0.1)">
       <use xlink:href="#DejaVuSans-51"/>
       <use x="63.623047" xlink:href="#DejaVuSans-48"/>
       <use x="127.246094" xlink:href="#DejaVuSans-48"/>
       <use x="190.869141" xlink:href="#DejaVuSans-48"/>
       <use x="254.492188" xlink:href="#DejaVuSans-48"/>
      </g>
     </g>
    </g>
    <g id="text_8">
     <!-- Steps -->
     <defs>
      <path d="M 53.515625 70.515625 
L 53.515625 60.890625 
Q 47.90625 63.578125 42.921875 64.890625 
Q 37.9375 66.21875 33.296875 66.21875 
Q 25.25 66.21875 20.875 63.09375 
Q 16.5 59.96875 16.5 54.203125 
Q 16.5 49.359375 19.40625 46.890625 
Q 22.3125 44.4375 30.421875 42.921875 
L 36.375 41.703125 
Q 47.40625 39.59375 52.65625 34.296875 
Q 57.90625 29 57.90625 20.125 
Q 57.90625 9.515625 50.796875 4.046875 
Q 43.703125 -1.421875 29.984375 -1.421875 
Q 24.8125 -1.421875 18.96875 -0.25 
Q 13.140625 0.921875 6.890625 3.21875 
L 6.890625 13.375 
Q 12.890625 10.015625 18.65625 8.296875 
Q 24.421875 6.59375 29.984375 6.59375 
Q 38.421875 6.59375 43.015625 9.90625 
Q 47.609375 13.234375 47.609375 19.390625 
Q 47.609375 24.75 44.3125 27.78125 
Q 41.015625 30.8125 33.5 32.328125 
L 27.484375 33.5 
Q 16.453125 35.6875 11.515625 40.375 
Q 6.59375 45.0625 6.59375 53.421875 
Q 6.59375 63.09375 13.40625 68.65625 
Q 20.21875 74.21875 32.171875 74.21875 
Q 37.3125 74.21875 42.625 73.28125 
Q 47.953125 72.359375 53.515625 70.515625 
z
" id="DejaVuSans-83"/>
      <path d="M 18.3125 70.21875 
L 18.3125 54.6875 
L 36.8125 54.6875 
L 36.8125 47.703125 
L 18.3125 47.703125 
L 18.3125 18.015625 
Q 18.3125 11.328125 20.140625 9.421875 
Q 21.96875 7.515625 27.59375 7.515625 
L 36.8125 7.515625 
L 36.8125 0 
L 27.59375 0 
Q 17.1875 0 13.234375 3.875 
Q 9.28125 7.765625 9.28125 18.015625 
L 9.28125 47.703125 
L 2.6875 47.703125 
L 2.6875 54.6875 
L 9.28125 54.6875 
L 9.28125 70.21875 
z
" id="DejaVuSans-116"/>
      <path d="M 56.203125 29.59375 
L 56.203125 25.203125 
L 14.890625 25.203125 
Q 15.484375 15.921875 20.484375 11.0625 
Q 25.484375 6.203125 34.421875 6.203125 
Q 39.59375 6.203125 44.453125 7.46875 
Q 49.3125 8.734375 54.109375 11.28125 
L 54.109375 2.78125 
Q 49.265625 0.734375 44.1875 -0.34375 
Q 39.109375 -1.421875 33.890625 -1.421875 
Q 20.796875 -1.421875 13.15625 6.1875 
Q 5.515625 13.8125 5.515625 26.8125 
Q 5.515625 40.234375 12.765625 48.109375 
Q 20.015625 56 32.328125 56 
Q 43.359375 56 49.78125 48.890625 
Q 56.203125 41.796875 56.203125 29.59375 
z
M 47.21875 32.234375 
Q 47.125 39.59375 43.09375 43.984375 
Q 39.0625 48.390625 32.421875 48.390625 
Q 24.90625 48.390625 20.390625 44.140625 
Q 15.875 39.890625 15.1875 32.171875 
z
" id="DejaVuSans-101"/>
      <path d="M 18.109375 8.203125 
L 18.109375 -20.796875 
L 9.078125 -20.796875 
L 9.078125 54.6875 
L 18.109375 54.6875 
L 18.109375 46.390625 
Q 20.953125 51.265625 25.265625 53.625 
Q 29.59375 56 35.59375 56 
Q 45.5625 56 51.78125 48.09375 
Q 58.015625 40.1875 58.015625 27.296875 
Q 58.015625 14.40625 51.78125 6.484375 
Q 45.5625 -1.421875 35.59375 -1.421875 
Q 29.59375 -1.421875 25.265625 0.953125 
Q 20.953125 3.328125 18.109375 8.203125 
z
M 48.6875 27.296875 
Q 48.6875 37.203125 44.609375 42.84375 
Q 40.53125 48.484375 33.40625 48.484375 
Q 26.265625 48.484375 22.1875 42.84375 
Q 18.109375 37.203125 18.109375 27.296875 
Q 18.109375 17.390625 22.1875 11.75 
Q 26.265625 6.109375 33.40625 6.109375 
Q 40.53125 6.109375 44.609375 11.75 
Q 48.6875 17.390625 48.6875 27.296875 
z
" id="DejaVuSans-112"/>
      <path d="M 44.28125 53.078125 
L 44.28125 44.578125 
Q 40.484375 46.53125 36.375 47.5 
Q 32.28125 48.484375 27.875 48.484375 
Q 21.1875 48.484375 17.84375 46.4375 
Q 14.5 44.390625 14.5 40.28125 
Q 14.5 37.15625 16.890625 35.375 
Q 19.28125 33.59375 26.515625 31.984375 
L 29.59375 31.296875 
Q 39.15625 29.25 43.1875 25.515625 
Q 47.21875 21.78125 47.21875 15.09375 
Q 47.21875 7.46875 41.1875 3.015625 
Q 35.15625 -1.421875 24.609375 -1.421875 
Q 20.21875 -1.421875 15.453125 -0.5625 
Q 10.6875 0.296875 5.421875 2 
L 5.421875 11.28125 
Q 10.40625 8.6875 15.234375 7.390625 
Q 20.0625 6.109375 24.8125 6.109375 
Q 31.15625 6.109375 34.5625 8.28125 
Q 37.984375 10.453125 37.984375 14.40625 
Q 37.984375 18.0625 35.515625 20.015625 
Q 33.0625 21.96875 24.703125 23.78125 
L 21.578125 24.515625 
Q 13.234375 26.265625 9.515625 29.90625 
Q 5.8125 33.546875 5.8125 39.890625 
Q 5.8125 47.609375 11.28125 51.796875 
Q 16.75 56 26.8125 56 
Q 31.78125 56 36.171875 55.265625 
Q 40.578125 54.546875 44.28125 53.078125 
z
" id="DejaVuSans-115"/>
     </defs>
     <g transform="translate(222.170156 335.860562)scale(0.1 -0.1)">
      <use xlink:href="#DejaVuSans-83"/>
      <use x="63.476562" xlink:href="#DejaVuSans-116"/>
      <use x="102.685547" xlink:href="#DejaVuSans-101"/>
      <use x="164.208984" xlink:href="#DejaVuSans-112"/>
      <use x="227.685547" xlink:href="#DejaVuSans-115"/>
     </g>
    </g>
   </g>
   <g id="matplotlib.axis_2">
    <g id="ytick_1">
     <g id="line2d_15">
      <path clip-path="url(#p4e00e4ce58)" d="M 57.6 263.337651 
L 414.72 263.337651 
" style="fill:none;stroke:#b0b0b0;stroke-linecap:square;stroke-width:0.8;"/>
     </g>
     <g id="line2d_16">
      <defs>
       <path d="M 0 0 
L -3.5 0 
" id="mdad0bc91a9" style="stroke:#000000;stroke-width:0.8;"/>
      </defs>
      <g>
       <use style="stroke:#000000;stroke-width:0.8;" x="57.6" xlink:href="#mdad0bc91a9" y="263.337651"/>
      </g>
     </g>
     <g id="text_9">
      <!-- $\mathdefault{10^{-4}}$ -->
      <defs>
       <path d="M 10.59375 35.5 
L 73.1875 35.5 
L 73.1875 27.203125 
L 10.59375 27.203125 
z
" id="DejaVuSans-8722"/>
       <path d="M 37.796875 64.3125 
L 12.890625 25.390625 
L 37.796875 25.390625 
z
M 35.203125 72.90625 
L 47.609375 72.90625 
L 47.609375 25.390625 
L 58.015625 25.390625 
L 58.015625 17.1875 
L 47.609375 17.1875 
L 47.609375 0 
L 37.796875 0 
L 37.796875 17.1875 
L 4.890625 17.1875 
L 4.890625 26.703125 
z
" id="DejaVuSans-52"/>
      </defs>
      <g transform="translate(27.1 267.13687)scale(0.1 -0.1)">
       <use transform="translate(0 0.684375)" xlink:href="#DejaVuSans-49"/>
       <use transform="translate(63.623047 0.684375)" xlink:href="#DejaVuSans-48"/>
       <use transform="translate(128.203125 38.965625)scale(0.7)" xlink:href="#DejaVuSans-8722"/>
       <use transform="translate(186.855469 38.965625)scale(0.7)" xlink:href="#DejaVuSans-52"/>
      </g>
     </g>
    </g>
    <g id="ytick_2">
     <g id="line2d_17">
      <path clip-path="url(#p4e00e4ce58)" d="M 57.6 212.010046 
L 414.72 212.010046 
" style="fill:none;stroke:#b0b0b0;stroke-linecap:square;stroke-width:0.8;"/>
     </g>
     <g id="line2d_18">
      <g>
       <use style="stroke:#000000;stroke-width:0.8;" x="57.6" xlink:href="#mdad0bc91a9" y="212.010046"/>
      </g>
     </g>
     <g id="text_10">
      <!-- $\mathdefault{10^{-3}}$ -->
      <g transform="translate(27.1 215.809265)scale(0.1 -0.1)">
       <use transform="translate(0 0.765625)" xlink:href="#DejaVuSans-49"/>
       <use transform="translate(63.623047 0.765625)" xlink:href="#DejaVuSans-48"/>
       <use transform="translate(128.203125 39.046875)scale(0.7)" xlink:href="#DejaVuSans-8722"/>
       <use transform="translate(186.855469 39.046875)scale(0.7)" xlink:href="#DejaVuSans-51"/>
      </g>
     </g>
    </g>
    <g id="ytick_3">
     <g id="line2d_19">
      <path clip-path="url(#p4e00e4ce58)" d="M 57.6 160.682441 
L 414.72 160.682441 
" style="fill:none;stroke:#b0b0b0;stroke-linecap:square;stroke-width:0.8;"/>
     </g>
     <g id="line2d_20">
      <g>
       <use style="stroke:#000000;stroke-width:0.8;" x="57.6" xlink:href="#mdad0bc91a9" y="160.682441"/>
      </g>
     </g>
     <g id="text_11">
      <!-- $\mathdefault{10^{-2}}$ -->
      <g transform="translate(27.1 164.48166)scale(0.1 -0.1)">
       <use transform="translate(0 0.765625)" xlink:href="#DejaVuSans-49"/>
       <use transform="translate(63.623047 0.765625)" xlink:href="#DejaVuSans-48"/>
       <use transform="translate(128.203125 39.046875)scale(0.7)" xlink:href="#DejaVuSans-8722"/>
       <use transform="translate(186.855469 39.046875)scale(0.7)" xlink:href="#DejaVuSans-50"/>
      </g>
     </g>
    </g>
    <g id="ytick_4">
     <g id="line2d_21">
      <path clip-path="url(#p4e00e4ce58)" d="M 57.6 109.354836 
L 414.72 109.354836 
" style="fill:none;stroke:#b0b0b0;stroke-linecap:square;stroke-width:0.8;"/>
     </g>
     <g id="line2d_22">
      <g>
       <use style="stroke:#000000;stroke-width:0.8;" x="57.6" xlink:href="#mdad0bc91a9" y="109.354836"/>
      </g>
     </g>
     <g id="text_12">
      <!-- $\mathdefault{10^{-1}}$ -->
      <g transform="translate(27.1 113.154055)scale(0.1 -0.1)">
       <use transform="translate(0 0.684375)" xlink:href="#DejaVuSans-49"/>
       <use transform="translate(63.623047 0.684375)" xlink:href="#DejaVuSans-48"/>
       <use transform="translate(128.203125 38.965625)scale(0.7)" xlink:href="#DejaVuSans-8722"/>
       <use transform="translate(186.855469 38.965625)scale(0.7)" xlink:href="#DejaVuSans-49"/>
      </g>
     </g>
    </g>
    <g id="ytick_5">
     <g id="line2d_23">
      <path clip-path="url(#p4e00e4ce58)" d="M 57.6 58.027231 
L 414.72 58.027231 
" style="fill:none;stroke:#b0b0b0;stroke-linecap:square;stroke-width:0.8;"/>
     </g>
     <g id="line2d_24">
      <g>
       <use style="stroke:#000000;stroke-width:0.8;" x="57.6" xlink:href="#mdad0bc91a9" y="58.027231"/>
      </g>
     </g>
     <g id="text_13">
      <!-- $\mathdefault{10^{0}}$ -->
      <g transform="translate(33 61.82645)scale(0.1 -0.1)">
       <use transform="translate(0 0.765625)" xlink:href="#DejaVuSans-49"/>
       <use transform="translate(63.623047 0.765625)" xlink:href="#DejaVuSans-48"/>
       <use transform="translate(128.203125 39.046875)scale(0.7)" xlink:href="#DejaVuSans-48"/>
      </g>
     </g>
    </g>
    <g id="ytick_6">
     <g id="line2d_25">
      <defs>
       <path d="M 0 0 
L -2 0 
" id="m46d01c3810" style="stroke:#000000;stroke-width:0.6;"/>
      </defs>
      <g>
       <use style="stroke:#000000;stroke-width:0.6;" x="57.6" xlink:href="#m46d01c3810" y="299.214107"/>
      </g>
     </g>
    </g>
    <g id="ytick_7">
     <g id="line2d_26">
      <g>
       <use style="stroke:#000000;stroke-width:0.6;" x="57.6" xlink:href="#m46d01c3810" y="290.175764"/>
      </g>
     </g>
    </g>
    <g id="ytick_8">
     <g id="line2d_27">
      <g>
       <use style="stroke:#000000;stroke-width:0.6;" x="57.6" xlink:href="#m46d01c3810" y="283.762958"/>
      </g>
     </g>
    </g>
    <g id="ytick_9">
     <g id="line2d_28">
      <g>
       <use style="stroke:#000000;stroke-width:0.6;" x="57.6" xlink:href="#m46d01c3810" y="278.7888"/>
      </g>
     </g>
    </g>
    <g id="ytick_10">
     <g id="line2d_29">
      <g>
       <use style="stroke:#000000;stroke-width:0.6;" x="57.6" xlink:href="#m46d01c3810" y="274.724616"/>
      </g>
     </g>
    </g>
    <g id="ytick_11">
     <g id="line2d_30">
      <g>
       <use style="stroke:#000000;stroke-width:0.6;" x="57.6" xlink:href="#m46d01c3810" y="271.288397"/>
      </g>
     </g>
    </g>
    <g id="ytick_12">
     <g id="line2d_31">
      <g>
       <use style="stroke:#000000;stroke-width:0.6;" x="57.6" xlink:href="#m46d01c3810" y="268.31181"/>
      </g>
     </g>
    </g>
    <g id="ytick_13">
     <g id="line2d_32">
      <g>
       <use style="stroke:#000000;stroke-width:0.6;" x="57.6" xlink:href="#m46d01c3810" y="265.686273"/>
      </g>
     </g>
    </g>
    <g id="ytick_14">
     <g id="line2d_33">
      <g>
       <use style="stroke:#000000;stroke-width:0.6;" x="57.6" xlink:href="#m46d01c3810" y="247.886502"/>
      </g>
     </g>
    </g>
    <g id="ytick_15">
     <g id="line2d_34">
      <g>
       <use style="stroke:#000000;stroke-width:0.6;" x="57.6" xlink:href="#m46d01c3810" y="238.848159"/>
      </g>
     </g>
    </g>
    <g id="ytick_16">
     <g id="line2d_35">
      <g>
       <use style="stroke:#000000;stroke-width:0.6;" x="57.6" xlink:href="#m46d01c3810" y="232.435353"/>
      </g>
     </g>
    </g>
    <g id="ytick_17">
     <g id="line2d_36">
      <g>
       <use style="stroke:#000000;stroke-width:0.6;" x="57.6" xlink:href="#m46d01c3810" y="227.461195"/>
      </g>
     </g>
    </g>
    <g id="ytick_18">
     <g id="line2d_37">
      <g>
       <use style="stroke:#000000;stroke-width:0.6;" x="57.6" xlink:href="#m46d01c3810" y="223.397011"/>
      </g>
     </g>
    </g>
    <g id="ytick_19">
     <g id="line2d_38">
      <g>
       <use style="stroke:#000000;stroke-width:0.6;" x="57.6" xlink:href="#m46d01c3810" y="219.960792"/>
      </g>
     </g>
    </g>
    <g id="ytick_20">
     <g id="line2d_39">
      <g>
       <use style="stroke:#000000;stroke-width:0.6;" x="57.6" xlink:href="#m46d01c3810" y="216.984205"/>
      </g>
     </g>
    </g>
    <g id="ytick_21">
     <g id="line2d_40">
      <g>
       <use style="stroke:#000000;stroke-width:0.6;" x="57.6" xlink:href="#m46d01c3810" y="214.358668"/>
      </g>
     </g>
    </g>
    <g id="ytick_22">
     <g id="line2d_41">
      <g>
       <use style="stroke:#000000;stroke-width:0.6;" x="57.6" xlink:href="#m46d01c3810" y="196.558897"/>
      </g>
     </g>
    </g>
    <g id="ytick_23">
     <g id="line2d_42">
      <g>
       <use style="stroke:#000000;stroke-width:0.6;" x="57.6" xlink:href="#m46d01c3810" y="187.520555"/>
      </g>
     </g>
    </g>
    <g id="ytick_24">
     <g id="line2d_43">
      <g>
       <use style="stroke:#000000;stroke-width:0.6;" x="57.6" xlink:href="#m46d01c3810" y="181.107748"/>
      </g>
     </g>
    </g>
    <g id="ytick_25">
     <g id="line2d_44">
      <g>
       <use style="stroke:#000000;stroke-width:0.6;" x="57.6" xlink:href="#m46d01c3810" y="176.13359"/>
      </g>
     </g>
    </g>
    <g id="ytick_26">
     <g id="line2d_45">
      <g>
       <use style="stroke:#000000;stroke-width:0.6;" x="57.6" xlink:href="#m46d01c3810" y="172.069406"/>
      </g>
     </g>
    </g>
    <g id="ytick_27">
     <g id="line2d_46">
      <g>
       <use style="stroke:#000000;stroke-width:0.6;" x="57.6" xlink:href="#m46d01c3810" y="168.633187"/>
      </g>
     </g>
    </g>
    <g id="ytick_28">
     <g id="line2d_47">
      <g>
       <use style="stroke:#000000;stroke-width:0.6;" x="57.6" xlink:href="#m46d01c3810" y="165.6566"/>
      </g>
     </g>
    </g>
    <g id="ytick_29">
     <g id="line2d_48">
      <g>
       <use style="stroke:#000000;stroke-width:0.6;" x="57.6" xlink:href="#m46d01c3810" y="163.031063"/>
      </g>
     </g>
    </g>
    <g id="ytick_30">
     <g id="line2d_49">
      <g>
       <use style="stroke:#000000;stroke-width:0.6;" x="57.6" xlink:href="#m46d01c3810" y="145.231292"/>
      </g>
     </g>
    </g>
    <g id="ytick_31">
     <g id="line2d_50">
      <g>
       <use style="stroke:#000000;stroke-width:0.6;" x="57.6" xlink:href="#m46d01c3810" y="136.19295"/>
      </g>
     </g>
    </g>
    <g id="ytick_32">
     <g id="line2d_51">
      <g>
       <use style="stroke:#000000;stroke-width:0.6;" x="57.6" xlink:href="#m46d01c3810" y="129.780143"/>
      </g>
     </g>
    </g>
    <g id="ytick_33">
     <g id="line2d_52">
      <g>
       <use style="stroke:#000000;stroke-width:0.6;" x="57.6" xlink:href="#m46d01c3810" y="124.805985"/>
      </g>
     </g>
    </g>
    <g id="ytick_34">
     <g id="line2d_53">
      <g>
       <use style="stroke:#000000;stroke-width:0.6;" x="57.6" xlink:href="#m46d01c3810" y="120.741801"/>
      </g>
     </g>
    </g>
    <g id="ytick_35">
     <g id="line2d_54">
      <g>
       <use style="stroke:#000000;stroke-width:0.6;" x="57.6" xlink:href="#m46d01c3810" y="117.305582"/>
      </g>
     </g>
    </g>
    <g id="ytick_36">
     <g id="line2d_55">
      <g>
       <use style="stroke:#000000;stroke-width:0.6;" x="57.6" xlink:href="#m46d01c3810" y="114.328995"/>
      </g>
     </g>
    </g>
    <g id="ytick_37">
     <g id="line2d_56">
      <g>
       <use style="stroke:#000000;stroke-width:0.6;" x="57.6" xlink:href="#m46d01c3810" y="111.703458"/>
      </g>
     </g>
    </g>
    <g id="ytick_38">
     <g id="line2d_57">
      <g>
       <use style="stroke:#000000;stroke-width:0.6;" x="57.6" xlink:href="#m46d01c3810" y="93.903687"/>
      </g>
     </g>
    </g>
    <g id="ytick_39">
     <g id="line2d_58">
      <g>
       <use style="stroke:#000000;stroke-width:0.6;" x="57.6" xlink:href="#m46d01c3810" y="84.865345"/>
      </g>
     </g>
    </g>
    <g id="ytick_40">
     <g id="line2d_59">
      <g>
       <use style="stroke:#000000;stroke-width:0.6;" x="57.6" xlink:href="#m46d01c3810" y="78.452538"/>
      </g>
     </g>
    </g>
    <g id="ytick_41">
     <g id="line2d_60">
      <g>
       <use style="stroke:#000000;stroke-width:0.6;" x="57.6" xlink:href="#m46d01c3810" y="73.47838"/>
      </g>
     </g>
    </g>
    <g id="ytick_42">
     <g id="line2d_61">
      <g>
       <use style="stroke:#000000;stroke-width:0.6;" x="57.6" xlink:href="#m46d01c3810" y="69.414196"/>
      </g>
     </g>
    </g>
    <g id="ytick_43">
     <g id="line2d_62">
      <g>
       <use style="stroke:#000000;stroke-width:0.6;" x="57.6" xlink:href="#m46d01c3810" y="65.977977"/>
      </g>
     </g>
    </g>
    <g id="ytick_44">
     <g id="line2d_63">
      <g>
       <use style="stroke:#000000;stroke-width:0.6;" x="57.6" xlink:href="#m46d01c3810" y="63.00139"/>
      </g>
     </g>
    </g>
    <g id="ytick_45">
     <g id="line2d_64">
      <g>
       <use style="stroke:#000000;stroke-width:0.6;" x="57.6" xlink:href="#m46d01c3810" y="60.375853"/>
      </g>
     </g>
    </g>
    <g id="ytick_46">
     <g id="line2d_65">
      <g>
       <use style="stroke:#000000;stroke-width:0.6;" x="57.6" xlink:href="#m46d01c3810" y="42.576082"/>
      </g>
     </g>
    </g>
    <g id="text_14">
     <!-- KLD -->
     <defs>
      <path d="M 9.8125 72.90625 
L 19.671875 72.90625 
L 19.671875 42.09375 
L 52.390625 72.90625 
L 65.09375 72.90625 
L 28.90625 38.921875 
L 67.671875 0 
L 54.6875 0 
L 19.671875 35.109375 
L 19.671875 0 
L 9.8125 0 
z
" id="DejaVuSans-75"/>
      <path d="M 9.8125 72.90625 
L 19.671875 72.90625 
L 19.671875 8.296875 
L 55.171875 8.296875 
L 55.171875 0 
L 9.8125 0 
z
" id="DejaVuSans-76"/>
      <path d="M 19.671875 64.796875 
L 19.671875 8.109375 
L 31.59375 8.109375 
Q 46.6875 8.109375 53.6875 14.9375 
Q 60.6875 21.78125 60.6875 36.53125 
Q 60.6875 51.171875 53.6875 57.984375 
Q 46.6875 64.796875 31.59375 64.796875 
z
M 9.8125 72.90625 
L 30.078125 72.90625 
Q 51.265625 72.90625 61.171875 64.09375 
Q 71.09375 55.28125 71.09375 36.53125 
Q 71.09375 17.671875 61.125 8.828125 
Q 51.171875 0 30.078125 0 
L 9.8125 0 
z
" id="DejaVuSans-68"/>
     </defs>
     <g transform="translate(21.020313 184.442844)rotate(-90)scale(0.1 -0.1)">
      <use xlink:href="#DejaVuSans-75"/>
      <use x="65.576172" xlink:href="#DejaVuSans-76"/>
      <use x="121.289062" xlink:href="#DejaVuSans-68"/>
     </g>
    </g>
   </g>
   <g id="line2d_66">
    <path clip-path="url(#p4e00e4ce58)" d="M 77.106954 114.691836 
L 83.665736 98.661285 
L 90.224518 110.815587 
L 96.7833 101.785769 
L 103.342082 101.919433 
L 109.900864 99.692526 
L 116.459646 101.51532 
L 123.018428 108.591101 
L 129.57721 110.051544 
L 136.135992 109.401026 
L 142.694774 107.975185 
L 149.253556 109.001046 
L 155.812338 107.594561 
L 162.37112 106.87631 
L 168.929902 105.277225 
L 175.488684 104.172765 
L 182.047466 102.124558 
L 188.606248 100.381386 
L 195.16503 99.098553 
L 201.723812 98.45183 
L 208.282594 99.394968 
L 214.841376 101.341449 
L 221.400158 101.425072 
L 227.95894 101.188701 
L 234.517722 100.621093 
L 241.076504 101.255951 
L 247.635286 99.523008 
L 254.194068 100.739232 
L 260.75285 101.330434 
L 267.311632 101.223108 
L 273.870414 101.920441 
L 280.429196 102.394036 
L 286.987978 101.931632 
L 293.54676 101.404977 
L 300.105542 100.704057 
L 306.664324 99.617044 
L 313.223107 99.563382 
L 319.781889 99.267593 
L 326.340671 98.768803 
L 332.899453 98.505833 
L 339.458235 98.883405 
L 346.017017 98.97808 
L 352.575799 98.771707 
L 359.134581 98.141641 
L 365.693363 98.456057 
L 372.252145 98.527255 
L 378.810927 98.657844 
L 385.369709 99.010417 
L 391.928491 98.792464 
L 398.487273 99.378416 
" style="fill:none;stroke:#aec7e8;stroke-linecap:square;stroke-width:1.5;"/>
   </g>
   <g id="line2d_67">
    <path clip-path="url(#p4e00e4ce58)" d="M 73.832727 295.488 
L 84.161518 102.215847 
L 94.490308 105.787423 
L 104.819099 102.203021 
L 115.14789 102.874375 
L 125.47668 110.262869 
L 135.805471 109.622894 
L 146.134261 109.705155 
L 156.463052 110.861209 
L 166.791842 108.35141 
L 177.120633 106.384553 
L 187.449424 102.4494 
L 197.778214 99.330622 
L 208.107005 100.905443 
L 218.435795 103.782244 
L 228.764586 104.178082 
L 239.093377 104.831421 
L 249.422167 101.926091 
L 259.750958 103.115947 
L 270.079748 103.153245 
L 280.408539 104.287766 
L 290.737329 103.49555 
L 301.06612 101.954424 
L 311.394911 102.703955 
L 321.723701 101.116116 
L 332.052492 101.545571 
L 342.381282 102.443533 
L 352.710073 101.245909 
L 363.038863 100.355386 
L 373.367654 99.598699 
L 383.696445 100.883302 
L 394.025235 102.204996 
" style="fill:none;stroke:#1f77b4;stroke-linecap:square;stroke-width:1.5;"/>
   </g>
   <g id="line2d_68">
    <path clip-path="url(#p4e00e4ce58)" d="M 77.106954 134.330961 
L 83.665736 120.198896 
L 90.224518 108.932168 
L 96.7833 108.274462 
L 103.342082 107.367861 
L 109.900864 108.281244 
L 116.459646 108.86214 
L 123.018428 109.72076 
L 129.57721 110.855362 
L 136.135992 108.092472 
L 142.694774 107.974834 
L 149.253556 109.754146 
L 155.812338 109.895638 
L 162.37112 112.039993 
L 168.929902 112.629674 
L 175.488684 111.675849 
L 182.047466 110.442942 
L 188.606248 106.725417 
L 195.16503 108.650529 
L 201.723812 106.110446 
L 208.282594 107.881411 
L 214.841376 105.393255 
L 221.400158 105.344855 
L 227.95894 105.323354 
L 234.517722 105.363578 
L 241.076504 105.983482 
L 247.635286 106.232625 
L 254.194068 107.032617 
L 260.75285 106.494395 
L 267.311632 107.865453 
L 273.870414 108.058641 
L 280.429196 108.72096 
L 286.987978 109.348147 
L 293.54676 109.52135 
L 300.105542 109.90007 
L 306.664324 111.109686 
L 313.223107 110.511198 
L 319.781889 109.167558 
L 326.340671 110.009588 
L 332.899453 109.966384 
L 339.458235 109.888329 
L 346.017017 108.126067 
L 352.575799 108.459387 
L 359.134581 108.618976 
L 365.693363 108.742342 
L 372.252145 109.800985 
L 378.810927 109.617462 
L 385.369709 110.276731 
L 391.928491 108.304891 
L 398.487273 110.465531 
" style="fill:none;stroke:#ffbb78;stroke-linecap:square;stroke-width:1.5;"/>
   </g>
   <g id="line2d_69">
    <path clip-path="url(#p4e00e4ce58)" d="M 73.832727 118.761255 
L 84.161518 70.155777 
L 94.490308 69.5178 
L 104.819099 70.47101 
L 115.14789 72.713553 
L 125.47668 71.314787 
L 135.805471 71.513302 
L 146.134261 70.836415 
L 156.463052 68.693347 
L 166.791842 69.695261 
L 177.120633 69.952767 
L 187.449424 67.046788 
L 197.778214 64.571417 
L 208.107005 62.585227 
L 218.435795 60.489288 
L 228.764586 61.532569 
L 239.093377 62.419194 
L 249.422167 61.127803 
L 259.750958 59.025472 
L 270.079748 57.751479 
L 280.408539 57.624576 
L 290.737329 55.416292 
L 301.06612 55.532884 
L 311.394911 57.270041 
L 321.723701 58.036103 
L 332.052492 53.568 
L 342.381282 58.5359 
L 352.710073 57.514765 
L 363.038863 58.730112 
L 373.367654 60.593428 
L 383.696445 59.344409 
L 394.025235 61.382004 
" style="fill:none;stroke:#ff7f0e;stroke-linecap:square;stroke-width:1.5;"/>
   </g>
   <g id="line2d_70">
    <path clip-path="url(#p4e00e4ce58)" d="M 77.106954 116.352593 
L 83.665736 123.170415 
L 90.224518 113.771799 
L 96.7833 110.935555 
L 103.342082 110.266955 
L 109.900864 111.505769 
L 116.459646 108.071932 
L 123.018428 107.577328 
L 129.57721 107.755578 
L 136.135992 109.039719 
L 142.694774 109.431995 
L 149.253556 110.127827 
L 155.812338 109.717221 
L 162.37112 109.559933 
L 168.929902 111.302842 
L 175.488684 109.783514 
L 182.047466 109.303965 
L 188.606248 109.842739 
L 195.16503 110.185301 
L 201.723812 108.59739 
L 208.282594 107.000741 
L 214.841376 108.360398 
L 221.400158 106.965864 
L 227.95894 107.355971 
L 234.517722 108.612754 
L 241.076504 108.721141 
L 247.635286 107.408354 
L 254.194068 106.912751 
L 260.75285 107.777911 
L 267.311632 107.763132 
L 273.870414 109.379283 
L 280.429196 108.560959 
L 286.987978 108.39623 
L 293.54676 108.821361 
L 300.105542 110.258074 
L 306.664324 109.431804 
L 313.223107 107.914032 
L 319.781889 108.048026 
L 326.340671 108.248394 
L 332.899453 108.926881 
L 339.458235 109.124394 
L 346.017017 110.108173 
L 352.575799 108.680286 
L 359.134581 110.786262 
L 365.693363 109.170375 
L 372.252145 109.053771 
L 378.810927 109.230456 
L 385.369709 109.884245 
L 391.928491 110.0265 
L 398.487273 108.733845 
" style="fill:none;stroke:#98df8a;stroke-linecap:square;stroke-width:1.5;"/>
   </g>
   <g id="line2d_71">
    <path clip-path="url(#p4e00e4ce58)" d="M 73.832727 123.758593 
L 84.161518 79.526538 
L 94.490308 79.536622 
L 104.819099 77.502053 
L 115.14789 79.768249 
L 125.47668 77.971525 
L 135.805471 74.627294 
L 146.134261 74.924648 
L 156.463052 74.187147 
L 166.791842 68.453292 
L 177.120633 71.880726 
L 187.449424 69.962546 
L 197.778214 71.740487 
L 208.107005 70.437591 
L 218.435795 70.180116 
L 228.764586 68.633381 
L 239.093377 64.049189 
L 249.422167 60.140221 
L 259.750958 70.482719 
L 270.079748 67.203133 
L 280.408539 66.568362 
L 290.737329 62.617051 
L 301.06612 55.773786 
L 311.394911 66.620261 
L 321.723701 69.029307 
L 332.052492 68.2274 
L 342.381282 68.186728 
L 352.710073 67.943425 
L 363.038863 66.664442 
L 373.367654 66.024032 
L 383.696445 68.050569 
L 394.025235 66.901093 
" style="fill:none;stroke:#2ca02c;stroke-linecap:square;stroke-width:1.5;"/>
   </g>
   <g id="line2d_72">
    <path clip-path="url(#p4e00e4ce58)" d="M 77.106954 81.828271 
L 83.665736 109.158967 
L 90.224518 102.251339 
L 96.7833 100.773363 
L 103.342082 101.237626 
L 109.900864 102.621107 
L 116.459646 102.807629 
L 123.018428 103.456115 
L 129.57721 101.768224 
L 136.135992 99.785263 
L 142.694774 102.126168 
L 149.253556 105.026428 
L 155.812338 102.421882 
L 162.37112 102.398956 
L 168.929902 103.318039 
L 175.488684 107.063447 
L 182.047466 106.130729 
L 188.606248 112.8498 
L 195.16503 112.819797 
L 201.723812 111.691404 
L 208.282594 114.408778 
L 214.841376 113.731557 
L 221.400158 113.489199 
L 227.95894 118.378131 
L 234.517722 111.938891 
L 241.076504 113.78744 
L 247.635286 114.045274 
L 254.194068 116.545914 
L 260.75285 117.292687 
L 267.311632 114.490677 
L 273.870414 112.419531 
L 280.429196 112.12935 
L 286.987978 112.541659 
L 293.54676 111.766297 
L 300.105542 110.827809 
L 306.664324 109.159032 
L 313.223107 109.528879 
L 319.781889 108.327469 
L 326.340671 103.571341 
L 332.899453 108.091739 
L 339.458235 107.661648 
L 346.017017 109.026211 
L 352.575799 109.257646 
L 359.134581 111.560563 
L 365.693363 120.003846 
L 372.252145 128.233867 
L 378.810927 111.551594 
L 385.369709 105.263216 
L 391.928491 101.717726 
L 398.487273 103.04963 
" style="fill:none;stroke:#ff9896;stroke-linecap:square;stroke-width:1.5;"/>
   </g>
   <g id="line2d_73">
    <path clip-path="url(#p4e00e4ce58)" d="M 73.832727 221.841254 
L 84.161518 110.494208 
L 94.490308 99.820376 
L 104.819099 100.615004 
L 115.14789 103.724464 
L 125.47668 101.505843 
L 135.805471 97.929517 
L 146.134261 104.420643 
L 156.463052 100.308641 
L 166.791842 102.943911 
L 177.120633 107.20561 
L 187.449424 114.756215 
L 197.778214 109.331501 
L 208.107005 112.192478 
L 218.435795 119.420567 
L 228.764586 117.518085 
L 239.093377 109.810217 
L 249.422167 110.356032 
L 259.750958 112.851639 
L 270.079748 106.296535 
L 280.408539 117.292604 
L 290.737329 112.552932 
L 301.06612 108.603454 
L 311.394911 103.919125 
L 321.723701 105.434355 
L 332.052492 103.942409 
L 342.381282 107.382995 
L 352.710073 105.206651 
L 363.038863 110.924642 
L 373.367654 124.333649 
L 383.696445 108.012338 
L 394.025235 100.604163 
" style="fill:none;stroke:#d62728;stroke-linecap:square;stroke-width:1.5;"/>
   </g>
   <g id="patch_3">
    <path d="M 57.6 307.584 
L 57.6 41.472 
" style="fill:none;stroke:#000000;stroke-linecap:square;stroke-linejoin:miter;stroke-width:0.8;"/>
   </g>
   <g id="patch_4">
    <path d="M 414.72 307.584 
L 414.72 41.472 
" style="fill:none;stroke:#000000;stroke-linecap:square;stroke-linejoin:miter;stroke-width:0.8;"/>
   </g>
   <g id="patch_5">
    <path d="M 57.6 307.584 
L 414.72 307.584 
" style="fill:none;stroke:#000000;stroke-linecap:square;stroke-linejoin:miter;stroke-width:0.8;"/>
   </g>
   <g id="patch_6">
    <path d="M 57.6 41.472 
L 414.72 41.472 
" style="fill:none;stroke:#000000;stroke-linecap:square;stroke-linejoin:miter;stroke-width:0.8;"/>
   </g>
   <g id="text_15">
    <!-- KL Divergence -->
    <defs>
     <path id="DejaVuSans-32"/>
     <path d="M 9.421875 54.6875 
L 18.40625 54.6875 
L 18.40625 0 
L 9.421875 0 
z
M 9.421875 75.984375 
L 18.40625 75.984375 
L 18.40625 64.59375 
L 9.421875 64.59375 
z
" id="DejaVuSans-105"/>
     <path d="M 2.984375 54.6875 
L 12.5 54.6875 
L 29.59375 8.796875 
L 46.6875 54.6875 
L 56.203125 54.6875 
L 35.6875 0 
L 23.484375 0 
z
" id="DejaVuSans-118"/>
     <path d="M 41.109375 46.296875 
Q 39.59375 47.171875 37.8125 47.578125 
Q 36.03125 48 33.890625 48 
Q 26.265625 48 22.1875 43.046875 
Q 18.109375 38.09375 18.109375 28.8125 
L 18.109375 0 
L 9.078125 0 
L 9.078125 54.6875 
L 18.109375 54.6875 
L 18.109375 46.1875 
Q 20.953125 51.171875 25.484375 53.578125 
Q 30.03125 56 36.53125 56 
Q 37.453125 56 38.578125 55.875 
Q 39.703125 55.765625 41.0625 55.515625 
z
" id="DejaVuSans-114"/>
     <path d="M 45.40625 27.984375 
Q 45.40625 37.75 41.375 43.109375 
Q 37.359375 48.484375 30.078125 48.484375 
Q 22.859375 48.484375 18.828125 43.109375 
Q 14.796875 37.75 14.796875 27.984375 
Q 14.796875 18.265625 18.828125 12.890625 
Q 22.859375 7.515625 30.078125 7.515625 
Q 37.359375 7.515625 41.375 12.890625 
Q 45.40625 18.265625 45.40625 27.984375 
z
M 54.390625 6.78125 
Q 54.390625 -7.171875 48.1875 -13.984375 
Q 42 -20.796875 29.203125 -20.796875 
Q 24.46875 -20.796875 20.265625 -20.09375 
Q 16.0625 -19.390625 12.109375 -17.921875 
L 12.109375 -9.1875 
Q 16.0625 -11.328125 19.921875 -12.34375 
Q 23.78125 -13.375 27.78125 -13.375 
Q 36.625 -13.375 41.015625 -8.765625 
Q 45.40625 -4.15625 45.40625 5.171875 
L 45.40625 9.625 
Q 42.625 4.78125 38.28125 2.390625 
Q 33.9375 0 27.875 0 
Q 17.828125 0 11.671875 7.65625 
Q 5.515625 15.328125 5.515625 27.984375 
Q 5.515625 40.671875 11.671875 48.328125 
Q 17.828125 56 27.875 56 
Q 33.9375 56 38.28125 53.609375 
Q 42.625 51.21875 45.40625 46.390625 
L 45.40625 54.6875 
L 54.390625 54.6875 
z
" id="DejaVuSans-103"/>
     <path d="M 54.890625 33.015625 
L 54.890625 0 
L 45.90625 0 
L 45.90625 32.71875 
Q 45.90625 40.484375 42.875 44.328125 
Q 39.84375 48.1875 33.796875 48.1875 
Q 26.515625 48.1875 22.3125 43.546875 
Q 18.109375 38.921875 18.109375 30.90625 
L 18.109375 0 
L 9.078125 0 
L 9.078125 54.6875 
L 18.109375 54.6875 
L 18.109375 46.1875 
Q 21.34375 51.125 25.703125 53.5625 
Q 30.078125 56 35.796875 56 
Q 45.21875 56 50.046875 50.171875 
Q 54.890625 44.34375 54.890625 33.015625 
z
" id="DejaVuSans-110"/>
     <path d="M 48.78125 52.59375 
L 48.78125 44.1875 
Q 44.96875 46.296875 41.140625 47.34375 
Q 37.3125 48.390625 33.40625 48.390625 
Q 24.65625 48.390625 19.8125 42.84375 
Q 14.984375 37.3125 14.984375 27.296875 
Q 14.984375 17.28125 19.8125 11.734375 
Q 24.65625 6.203125 33.40625 6.203125 
Q 37.3125 6.203125 41.140625 7.25 
Q 44.96875 8.296875 48.78125 10.40625 
L 48.78125 2.09375 
Q 45.015625 0.34375 40.984375 -0.53125 
Q 36.96875 -1.421875 32.421875 -1.421875 
Q 20.0625 -1.421875 12.78125 6.34375 
Q 5.515625 14.109375 5.515625 27.296875 
Q 5.515625 40.671875 12.859375 48.328125 
Q 20.21875 56 33.015625 56 
Q 37.15625 56 41.109375 55.140625 
Q 45.0625 54.296875 48.78125 52.59375 
z
" id="DejaVuSans-99"/>
    </defs>
    <g transform="translate(192.685313 35.472)scale(0.12 -0.12)">
     <use xlink:href="#DejaVuSans-75"/>
     <use x="65.576172" xlink:href="#DejaVuSans-76"/>
     <use x="121.289062" xlink:href="#DejaVuSans-32"/>
     <use x="153.076172" xlink:href="#DejaVuSans-68"/>
     <use x="230.078125" xlink:href="#DejaVuSans-105"/>
     <use x="257.861328" xlink:href="#DejaVuSans-118"/>
     <use x="317.041016" xlink:href="#DejaVuSans-101"/>
     <use x="378.564453" xlink:href="#DejaVuSans-114"/>
     <use x="419.662109" xlink:href="#DejaVuSans-103"/>
     <use x="483.138672" xlink:href="#DejaVuSans-101"/>
     <use x="544.662109" xlink:href="#DejaVuSans-110"/>
     <use x="608.041016" xlink:href="#DejaVuSans-99"/>
     <use x="663.021484" xlink:href="#DejaVuSans-101"/>
    </g>
   </g>
   <g id="legend_1">
    <g id="patch_7">
     <path d="M 217.4075 302.584 
L 407.72 302.584 
Q 409.72 302.584 409.72 300.584 
L 409.72 184.159 
Q 409.72 182.159 407.72 182.159 
L 217.4075 182.159 
Q 215.4075 182.159 215.4075 184.159 
L 215.4075 300.584 
Q 215.4075 302.584 217.4075 302.584 
z
" style="fill:#ffffff;opacity:0.8;stroke:#cccccc;stroke-linejoin:miter;"/>
    </g>
    <g id="line2d_74">
     <path d="M 219.4075 190.257437 
L 239.4075 190.257437 
" style="fill:none;stroke:#aec7e8;stroke-linecap:square;stroke-width:1.5;"/>
    </g>
    <g id="line2d_75"/>
    <g id="text_16">
     <!-- Single Point - Train -->
     <defs>
      <path d="M 9.421875 75.984375 
L 18.40625 75.984375 
L 18.40625 0 
L 9.421875 0 
z
" id="DejaVuSans-108"/>
      <path d="M 19.671875 64.796875 
L 19.671875 37.40625 
L 32.078125 37.40625 
Q 38.96875 37.40625 42.71875 40.96875 
Q 46.484375 44.53125 46.484375 51.125 
Q 46.484375 57.671875 42.71875 61.234375 
Q 38.96875 64.796875 32.078125 64.796875 
z
M 9.8125 72.90625 
L 32.078125 72.90625 
Q 44.34375 72.90625 50.609375 67.359375 
Q 56.890625 61.8125 56.890625 51.125 
Q 56.890625 40.328125 50.609375 34.8125 
Q 44.34375 29.296875 32.078125 29.296875 
L 19.671875 29.296875 
L 19.671875 0 
L 9.8125 0 
z
" id="DejaVuSans-80"/>
      <path d="M 30.609375 48.390625 
Q 23.390625 48.390625 19.1875 42.75 
Q 14.984375 37.109375 14.984375 27.296875 
Q 14.984375 17.484375 19.15625 11.84375 
Q 23.34375 6.203125 30.609375 6.203125 
Q 37.796875 6.203125 41.984375 11.859375 
Q 46.1875 17.53125 46.1875 27.296875 
Q 46.1875 37.015625 41.984375 42.703125 
Q 37.796875 48.390625 30.609375 48.390625 
z
M 30.609375 56 
Q 42.328125 56 49.015625 48.375 
Q 55.71875 40.765625 55.71875 27.296875 
Q 55.71875 13.875 49.015625 6.21875 
Q 42.328125 -1.421875 30.609375 -1.421875 
Q 18.84375 -1.421875 12.171875 6.21875 
Q 5.515625 13.875 5.515625 27.296875 
Q 5.515625 40.765625 12.171875 48.375 
Q 18.84375 56 30.609375 56 
z
" id="DejaVuSans-111"/>
      <path d="M 4.890625 31.390625 
L 31.203125 31.390625 
L 31.203125 23.390625 
L 4.890625 23.390625 
z
" id="DejaVuSans-45"/>
      <path d="M -0.296875 72.90625 
L 61.375 72.90625 
L 61.375 64.59375 
L 35.5 64.59375 
L 35.5 0 
L 25.59375 0 
L 25.59375 64.59375 
L -0.296875 64.59375 
z
" id="DejaVuSans-84"/>
      <path d="M 34.28125 27.484375 
Q 23.390625 27.484375 19.1875 25 
Q 14.984375 22.515625 14.984375 16.5 
Q 14.984375 11.71875 18.140625 8.90625 
Q 21.296875 6.109375 26.703125 6.109375 
Q 34.1875 6.109375 38.703125 11.40625 
Q 43.21875 16.703125 43.21875 25.484375 
L 43.21875 27.484375 
z
M 52.203125 31.203125 
L 52.203125 0 
L 43.21875 0 
L 43.21875 8.296875 
Q 40.140625 3.328125 35.546875 0.953125 
Q 30.953125 -1.421875 24.3125 -1.421875 
Q 15.921875 -1.421875 10.953125 3.296875 
Q 6 8.015625 6 15.921875 
Q 6 25.140625 12.171875 29.828125 
Q 18.359375 34.515625 30.609375 34.515625 
L 43.21875 34.515625 
L 43.21875 35.40625 
Q 43.21875 41.609375 39.140625 45 
Q 35.0625 48.390625 27.6875 48.390625 
Q 23 48.390625 18.546875 47.265625 
Q 14.109375 46.140625 10.015625 43.890625 
L 10.015625 52.203125 
Q 14.9375 54.109375 19.578125 55.046875 
Q 24.21875 56 28.609375 56 
Q 40.484375 56 46.34375 49.84375 
Q 52.203125 43.703125 52.203125 31.203125 
z
" id="DejaVuSans-97"/>
     </defs>
     <g transform="translate(247.4075 193.757437)scale(0.1 -0.1)">
      <use xlink:href="#DejaVuSans-83"/>
      <use x="63.476562" xlink:href="#DejaVuSans-105"/>
      <use x="91.259766" xlink:href="#DejaVuSans-110"/>
      <use x="154.638672" xlink:href="#DejaVuSans-103"/>
      <use x="218.115234" xlink:href="#DejaVuSans-108"/>
      <use x="245.898438" xlink:href="#DejaVuSans-101"/>
      <use x="307.421875" xlink:href="#DejaVuSans-32"/>
      <use x="339.208984" xlink:href="#DejaVuSans-80"/>
      <use x="399.464844" xlink:href="#DejaVuSans-111"/>
      <use x="460.646484" xlink:href="#DejaVuSans-105"/>
      <use x="488.429688" xlink:href="#DejaVuSans-110"/>
      <use x="551.808594" xlink:href="#DejaVuSans-116"/>
      <use x="591.017578" xlink:href="#DejaVuSans-32"/>
      <use x="622.804688" xlink:href="#DejaVuSans-45"/>
      <use x="658.888672" xlink:href="#DejaVuSans-32"/>
      <use x="690.675781" xlink:href="#DejaVuSans-84"/>
      <use x="751.541016" xlink:href="#DejaVuSans-114"/>
      <use x="792.654297" xlink:href="#DejaVuSans-97"/>
      <use x="853.933594" xlink:href="#DejaVuSans-105"/>
      <use x="881.716797" xlink:href="#DejaVuSans-110"/>
     </g>
    </g>
    <g id="line2d_76">
     <path d="M 219.4075 204.935563 
L 239.4075 204.935563 
" style="fill:none;stroke:#1f77b4;stroke-linecap:square;stroke-width:1.5;"/>
    </g>
    <g id="line2d_77"/>
    <g id="text_17">
     <!-- Single Point - Test -->
     <g transform="translate(247.4075 208.435563)scale(0.1 -0.1)">
      <use xlink:href="#DejaVuSans-83"/>
      <use x="63.476562" xlink:href="#DejaVuSans-105"/>
      <use x="91.259766" xlink:href="#DejaVuSans-110"/>
      <use x="154.638672" xlink:href="#DejaVuSans-103"/>
      <use x="218.115234" xlink:href="#DejaVuSans-108"/>
      <use x="245.898438" xlink:href="#DejaVuSans-101"/>
      <use x="307.421875" xlink:href="#DejaVuSans-32"/>
      <use x="339.208984" xlink:href="#DejaVuSans-80"/>
      <use x="399.464844" xlink:href="#DejaVuSans-111"/>
      <use x="460.646484" xlink:href="#DejaVuSans-105"/>
      <use x="488.429688" xlink:href="#DejaVuSans-110"/>
      <use x="551.808594" xlink:href="#DejaVuSans-116"/>
      <use x="591.017578" xlink:href="#DejaVuSans-32"/>
      <use x="622.804688" xlink:href="#DejaVuSans-45"/>
      <use x="658.888672" xlink:href="#DejaVuSans-32"/>
      <use x="690.675781" xlink:href="#DejaVuSans-84"/>
      <use x="751.494141" xlink:href="#DejaVuSans-101"/>
      <use x="813.017578" xlink:href="#DejaVuSans-115"/>
      <use x="865.117188" xlink:href="#DejaVuSans-116"/>
     </g>
    </g>
    <g id="line2d_78">
     <path d="M 219.4075 219.613687 
L 239.4075 219.613687 
" style="fill:none;stroke:#ffbb78;stroke-linecap:square;stroke-width:1.5;"/>
    </g>
    <g id="line2d_79"/>
    <g id="text_18">
     <!-- Batch: Momentum = 0.0 - Train -->
     <defs>
      <path d="M 19.671875 34.8125 
L 19.671875 8.109375 
L 35.5 8.109375 
Q 43.453125 8.109375 47.28125 11.40625 
Q 51.125 14.703125 51.125 21.484375 
Q 51.125 28.328125 47.28125 31.5625 
Q 43.453125 34.8125 35.5 34.8125 
z
M 19.671875 64.796875 
L 19.671875 42.828125 
L 34.28125 42.828125 
Q 41.5 42.828125 45.03125 45.53125 
Q 48.578125 48.25 48.578125 53.8125 
Q 48.578125 59.328125 45.03125 62.0625 
Q 41.5 64.796875 34.28125 64.796875 
z
M 9.8125 72.90625 
L 35.015625 72.90625 
Q 46.296875 72.90625 52.390625 68.21875 
Q 58.5 63.53125 58.5 54.890625 
Q 58.5 48.1875 55.375 44.234375 
Q 52.25 40.28125 46.1875 39.3125 
Q 53.46875 37.75 57.5 32.78125 
Q 61.53125 27.828125 61.53125 20.40625 
Q 61.53125 10.640625 54.890625 5.3125 
Q 48.25 0 35.984375 0 
L 9.8125 0 
z
" id="DejaVuSans-66"/>
      <path d="M 54.890625 33.015625 
L 54.890625 0 
L 45.90625 0 
L 45.90625 32.71875 
Q 45.90625 40.484375 42.875 44.328125 
Q 39.84375 48.1875 33.796875 48.1875 
Q 26.515625 48.1875 22.3125 43.546875 
Q 18.109375 38.921875 18.109375 30.90625 
L 18.109375 0 
L 9.078125 0 
L 9.078125 75.984375 
L 18.109375 75.984375 
L 18.109375 46.1875 
Q 21.34375 51.125 25.703125 53.5625 
Q 30.078125 56 35.796875 56 
Q 45.21875 56 50.046875 50.171875 
Q 54.890625 44.34375 54.890625 33.015625 
z
" id="DejaVuSans-104"/>
      <path d="M 11.71875 12.40625 
L 22.015625 12.40625 
L 22.015625 0 
L 11.71875 0 
z
M 11.71875 51.703125 
L 22.015625 51.703125 
L 22.015625 39.3125 
L 11.71875 39.3125 
z
" id="DejaVuSans-58"/>
      <path d="M 9.8125 72.90625 
L 24.515625 72.90625 
L 43.109375 23.296875 
L 61.8125 72.90625 
L 76.515625 72.90625 
L 76.515625 0 
L 66.890625 0 
L 66.890625 64.015625 
L 48.09375 14.015625 
L 38.1875 14.015625 
L 19.390625 64.015625 
L 19.390625 0 
L 9.8125 0 
z
" id="DejaVuSans-77"/>
      <path d="M 52 44.1875 
Q 55.375 50.25 60.0625 53.125 
Q 64.75 56 71.09375 56 
Q 79.640625 56 84.28125 50.015625 
Q 88.921875 44.046875 88.921875 33.015625 
L 88.921875 0 
L 79.890625 0 
L 79.890625 32.71875 
Q 79.890625 40.578125 77.09375 44.375 
Q 74.3125 48.1875 68.609375 48.1875 
Q 61.625 48.1875 57.5625 43.546875 
Q 53.515625 38.921875 53.515625 30.90625 
L 53.515625 0 
L 44.484375 0 
L 44.484375 32.71875 
Q 44.484375 40.625 41.703125 44.40625 
Q 38.921875 48.1875 33.109375 48.1875 
Q 26.21875 48.1875 22.15625 43.53125 
Q 18.109375 38.875 18.109375 30.90625 
L 18.109375 0 
L 9.078125 0 
L 9.078125 54.6875 
L 18.109375 54.6875 
L 18.109375 46.1875 
Q 21.1875 51.21875 25.484375 53.609375 
Q 29.78125 56 35.6875 56 
Q 41.65625 56 45.828125 52.96875 
Q 50 49.953125 52 44.1875 
z
" id="DejaVuSans-109"/>
      <path d="M 8.5 21.578125 
L 8.5 54.6875 
L 17.484375 54.6875 
L 17.484375 21.921875 
Q 17.484375 14.15625 20.5 10.265625 
Q 23.53125 6.390625 29.59375 6.390625 
Q 36.859375 6.390625 41.078125 11.03125 
Q 45.3125 15.671875 45.3125 23.6875 
L 45.3125 54.6875 
L 54.296875 54.6875 
L 54.296875 0 
L 45.3125 0 
L 45.3125 8.40625 
Q 42.046875 3.421875 37.71875 1 
Q 33.40625 -1.421875 27.6875 -1.421875 
Q 18.265625 -1.421875 13.375 4.4375 
Q 8.5 10.296875 8.5 21.578125 
z
M 31.109375 56 
z
" id="DejaVuSans-117"/>
      <path d="M 10.59375 45.40625 
L 73.1875 45.40625 
L 73.1875 37.203125 
L 10.59375 37.203125 
z
M 10.59375 25.484375 
L 73.1875 25.484375 
L 73.1875 17.1875 
L 10.59375 17.1875 
z
" id="DejaVuSans-61"/>
      <path d="M 10.6875 12.40625 
L 21 12.40625 
L 21 0 
L 10.6875 0 
z
" id="DejaVuSans-46"/>
     </defs>
     <g transform="translate(247.4075 223.113687)scale(0.1 -0.1)">
      <use xlink:href="#DejaVuSans-66"/>
      <use x="68.603516" xlink:href="#DejaVuSans-97"/>
      <use x="129.882812" xlink:href="#DejaVuSans-116"/>
      <use x="169.091797" xlink:href="#DejaVuSans-99"/>
      <use x="224.072266" xlink:href="#DejaVuSans-104"/>
      <use x="287.451172" xlink:href="#DejaVuSans-58"/>
      <use x="321.142578" xlink:href="#DejaVuSans-32"/>
      <use x="352.929688" xlink:href="#DejaVuSans-77"/>
      <use x="439.208984" xlink:href="#DejaVuSans-111"/>
      <use x="500.390625" xlink:href="#DejaVuSans-109"/>
      <use x="597.802734" xlink:href="#DejaVuSans-101"/>
      <use x="659.326172" xlink:href="#DejaVuSans-110"/>
      <use x="722.705078" xlink:href="#DejaVuSans-116"/>
      <use x="761.914062" xlink:href="#DejaVuSans-117"/>
      <use x="825.292969" xlink:href="#DejaVuSans-109"/>
      <use x="922.705078" xlink:href="#DejaVuSans-32"/>
      <use x="954.492188" xlink:href="#DejaVuSans-61"/>
      <use x="1038.28125" xlink:href="#DejaVuSans-32"/>
      <use x="1070.068359" xlink:href="#DejaVuSans-48"/>
      <use x="1133.691406" xlink:href="#DejaVuSans-46"/>
      <use x="1165.478516" xlink:href="#DejaVuSans-48"/>
      <use x="1229.101562" xlink:href="#DejaVuSans-32"/>
      <use x="1260.888672" xlink:href="#DejaVuSans-45"/>
      <use x="1296.972656" xlink:href="#DejaVuSans-32"/>
      <use x="1328.759766" xlink:href="#DejaVuSans-84"/>
      <use x="1389.625" xlink:href="#DejaVuSans-114"/>
      <use x="1430.738281" xlink:href="#DejaVuSans-97"/>
      <use x="1492.017578" xlink:href="#DejaVuSans-105"/>
      <use x="1519.800781" xlink:href="#DejaVuSans-110"/>
     </g>
    </g>
    <g id="line2d_80">
     <path d="M 219.4075 234.291812 
L 239.4075 234.291812 
" style="fill:none;stroke:#ff7f0e;stroke-linecap:square;stroke-width:1.5;"/>
    </g>
    <g id="line2d_81"/>
    <g id="text_19">
     <!-- Batch: Momentum = 0.0 - Test -->
     <g transform="translate(247.4075 237.791812)scale(0.1 -0.1)">
      <use xlink:href="#DejaVuSans-66"/>
      <use x="68.603516" xlink:href="#DejaVuSans-97"/>
      <use x="129.882812" xlink:href="#DejaVuSans-116"/>
      <use x="169.091797" xlink:href="#DejaVuSans-99"/>
      <use x="224.072266" xlink:href="#DejaVuSans-104"/>
      <use x="287.451172" xlink:href="#DejaVuSans-58"/>
      <use x="321.142578" xlink:href="#DejaVuSans-32"/>
      <use x="352.929688" xlink:href="#DejaVuSans-77"/>
      <use x="439.208984" xlink:href="#DejaVuSans-111"/>
      <use x="500.390625" xlink:href="#DejaVuSans-109"/>
      <use x="597.802734" xlink:href="#DejaVuSans-101"/>
      <use x="659.326172" xlink:href="#DejaVuSans-110"/>
      <use x="722.705078" xlink:href="#DejaVuSans-116"/>
      <use x="761.914062" xlink:href="#DejaVuSans-117"/>
      <use x="825.292969" xlink:href="#DejaVuSans-109"/>
      <use x="922.705078" xlink:href="#DejaVuSans-32"/>
      <use x="954.492188" xlink:href="#DejaVuSans-61"/>
      <use x="1038.28125" xlink:href="#DejaVuSans-32"/>
      <use x="1070.068359" xlink:href="#DejaVuSans-48"/>
      <use x="1133.691406" xlink:href="#DejaVuSans-46"/>
      <use x="1165.478516" xlink:href="#DejaVuSans-48"/>
      <use x="1229.101562" xlink:href="#DejaVuSans-32"/>
      <use x="1260.888672" xlink:href="#DejaVuSans-45"/>
      <use x="1296.972656" xlink:href="#DejaVuSans-32"/>
      <use x="1328.759766" xlink:href="#DejaVuSans-84"/>
      <use x="1389.578125" xlink:href="#DejaVuSans-101"/>
      <use x="1451.101562" xlink:href="#DejaVuSans-115"/>
      <use x="1503.201172" xlink:href="#DejaVuSans-116"/>
     </g>
    </g>
    <g id="line2d_82">
     <path d="M 219.4075 248.969937 
L 239.4075 248.969937 
" style="fill:none;stroke:#98df8a;stroke-linecap:square;stroke-width:1.5;"/>
    </g>
    <g id="line2d_83"/>
    <g id="text_20">
     <!-- Batch: Momentum = 0.1 - Train -->
     <g transform="translate(247.4075 252.469937)scale(0.1 -0.1)">
      <use xlink:href="#DejaVuSans-66"/>
      <use x="68.603516" xlink:href="#DejaVuSans-97"/>
      <use x="129.882812" xlink:href="#DejaVuSans-116"/>
      <use x="169.091797" xlink:href="#DejaVuSans-99"/>
      <use x="224.072266" xlink:href="#DejaVuSans-104"/>
      <use x="287.451172" xlink:href="#DejaVuSans-58"/>
      <use x="321.142578" xlink:href="#DejaVuSans-32"/>
      <use x="352.929688" xlink:href="#DejaVuSans-77"/>
      <use x="439.208984" xlink:href="#DejaVuSans-111"/>
      <use x="500.390625" xlink:href="#DejaVuSans-109"/>
      <use x="597.802734" xlink:href="#DejaVuSans-101"/>
      <use x="659.326172" xlink:href="#DejaVuSans-110"/>
      <use x="722.705078" xlink:href="#DejaVuSans-116"/>
      <use x="761.914062" xlink:href="#DejaVuSans-117"/>
      <use x="825.292969" xlink:href="#DejaVuSans-109"/>
      <use x="922.705078" xlink:href="#DejaVuSans-32"/>
      <use x="954.492188" xlink:href="#DejaVuSans-61"/>
      <use x="1038.28125" xlink:href="#DejaVuSans-32"/>
      <use x="1070.068359" xlink:href="#DejaVuSans-48"/>
      <use x="1133.691406" xlink:href="#DejaVuSans-46"/>
      <use x="1165.478516" xlink:href="#DejaVuSans-49"/>
      <use x="1229.101562" xlink:href="#DejaVuSans-32"/>
      <use x="1260.888672" xlink:href="#DejaVuSans-45"/>
      <use x="1296.972656" xlink:href="#DejaVuSans-32"/>
      <use x="1328.759766" xlink:href="#DejaVuSans-84"/>
      <use x="1389.625" xlink:href="#DejaVuSans-114"/>
      <use x="1430.738281" xlink:href="#DejaVuSans-97"/>
      <use x="1492.017578" xlink:href="#DejaVuSans-105"/>
      <use x="1519.800781" xlink:href="#DejaVuSans-110"/>
     </g>
    </g>
    <g id="line2d_84">
     <path d="M 219.4075 263.648062 
L 239.4075 263.648062 
" style="fill:none;stroke:#2ca02c;stroke-linecap:square;stroke-width:1.5;"/>
    </g>
    <g id="line2d_85"/>
    <g id="text_21">
     <!-- Batch: Momentum = 0.1 - Test -->
     <g transform="translate(247.4075 267.148062)scale(0.1 -0.1)">
      <use xlink:href="#DejaVuSans-66"/>
      <use x="68.603516" xlink:href="#DejaVuSans-97"/>
      <use x="129.882812" xlink:href="#DejaVuSans-116"/>
      <use x="169.091797" xlink:href="#DejaVuSans-99"/>
      <use x="224.072266" xlink:href="#DejaVuSans-104"/>
      <use x="287.451172" xlink:href="#DejaVuSans-58"/>
      <use x="321.142578" xlink:href="#DejaVuSans-32"/>
      <use x="352.929688" xlink:href="#DejaVuSans-77"/>
      <use x="439.208984" xlink:href="#DejaVuSans-111"/>
      <use x="500.390625" xlink:href="#DejaVuSans-109"/>
      <use x="597.802734" xlink:href="#DejaVuSans-101"/>
      <use x="659.326172" xlink:href="#DejaVuSans-110"/>
      <use x="722.705078" xlink:href="#DejaVuSans-116"/>
      <use x="761.914062" xlink:href="#DejaVuSans-117"/>
      <use x="825.292969" xlink:href="#DejaVuSans-109"/>
      <use x="922.705078" xlink:href="#DejaVuSans-32"/>
      <use x="954.492188" xlink:href="#DejaVuSans-61"/>
      <use x="1038.28125" xlink:href="#DejaVuSans-32"/>
      <use x="1070.068359" xlink:href="#DejaVuSans-48"/>
      <use x="1133.691406" xlink:href="#DejaVuSans-46"/>
      <use x="1165.478516" xlink:href="#DejaVuSans-49"/>
      <use x="1229.101562" xlink:href="#DejaVuSans-32"/>
      <use x="1260.888672" xlink:href="#DejaVuSans-45"/>
      <use x="1296.972656" xlink:href="#DejaVuSans-32"/>
      <use x="1328.759766" xlink:href="#DejaVuSans-84"/>
      <use x="1389.578125" xlink:href="#DejaVuSans-101"/>
      <use x="1451.101562" xlink:href="#DejaVuSans-115"/>
      <use x="1503.201172" xlink:href="#DejaVuSans-116"/>
     </g>
    </g>
    <g id="line2d_86">
     <path d="M 219.4075 278.326187 
L 239.4075 278.326187 
" style="fill:none;stroke:#ff9896;stroke-linecap:square;stroke-width:1.5;"/>
    </g>
    <g id="line2d_87"/>
    <g id="text_22">
     <!-- Batch: Momentum = 0.9 - Train -->
     <defs>
      <path d="M 10.984375 1.515625 
L 10.984375 10.5 
Q 14.703125 8.734375 18.5 7.8125 
Q 22.3125 6.890625 25.984375 6.890625 
Q 35.75 6.890625 40.890625 13.453125 
Q 46.046875 20.015625 46.78125 33.40625 
Q 43.953125 29.203125 39.59375 26.953125 
Q 35.25 24.703125 29.984375 24.703125 
Q 19.046875 24.703125 12.671875 31.3125 
Q 6.296875 37.9375 6.296875 49.421875 
Q 6.296875 60.640625 12.9375 67.421875 
Q 19.578125 74.21875 30.609375 74.21875 
Q 43.265625 74.21875 49.921875 64.515625 
Q 56.59375 54.828125 56.59375 36.375 
Q 56.59375 19.140625 48.40625 8.859375 
Q 40.234375 -1.421875 26.421875 -1.421875 
Q 22.703125 -1.421875 18.890625 -0.6875 
Q 15.09375 0.046875 10.984375 1.515625 
z
M 30.609375 32.421875 
Q 37.25 32.421875 41.125 36.953125 
Q 45.015625 41.5 45.015625 49.421875 
Q 45.015625 57.28125 41.125 61.84375 
Q 37.25 66.40625 30.609375 66.40625 
Q 23.96875 66.40625 20.09375 61.84375 
Q 16.21875 57.28125 16.21875 49.421875 
Q 16.21875 41.5 20.09375 36.953125 
Q 23.96875 32.421875 30.609375 32.421875 
z
" id="DejaVuSans-57"/>
     </defs>
     <g transform="translate(247.4075 281.826187)scale(0.1 -0.1)">
      <use xlink:href="#DejaVuSans-66"/>
      <use x="68.603516" xlink:href="#DejaVuSans-97"/>
      <use x="129.882812" xlink:href="#DejaVuSans-116"/>
      <use x="169.091797" xlink:href="#DejaVuSans-99"/>
      <use x="224.072266" xlink:href="#DejaVuSans-104"/>
      <use x="287.451172" xlink:href="#DejaVuSans-58"/>
      <use x="321.142578" xlink:href="#DejaVuSans-32"/>
      <use x="352.929688" xlink:href="#DejaVuSans-77"/>
      <use x="439.208984" xlink:href="#DejaVuSans-111"/>
      <use x="500.390625" xlink:href="#DejaVuSans-109"/>
      <use x="597.802734" xlink:href="#DejaVuSans-101"/>
      <use x="659.326172" xlink:href="#DejaVuSans-110"/>
      <use x="722.705078" xlink:href="#DejaVuSans-116"/>
      <use x="761.914062" xlink:href="#DejaVuSans-117"/>
      <use x="825.292969" xlink:href="#DejaVuSans-109"/>
      <use x="922.705078" xlink:href="#DejaVuSans-32"/>
      <use x="954.492188" xlink:href="#DejaVuSans-61"/>
      <use x="1038.28125" xlink:href="#DejaVuSans-32"/>
      <use x="1070.068359" xlink:href="#DejaVuSans-48"/>
      <use x="1133.691406" xlink:href="#DejaVuSans-46"/>
      <use x="1165.478516" xlink:href="#DejaVuSans-57"/>
      <use x="1229.101562" xlink:href="#DejaVuSans-32"/>
      <use x="1260.888672" xlink:href="#DejaVuSans-45"/>
      <use x="1296.972656" xlink:href="#DejaVuSans-32"/>
      <use x="1328.759766" xlink:href="#DejaVuSans-84"/>
      <use x="1389.625" xlink:href="#DejaVuSans-114"/>
      <use x="1430.738281" xlink:href="#DejaVuSans-97"/>
      <use x="1492.017578" xlink:href="#DejaVuSans-105"/>
      <use x="1519.800781" xlink:href="#DejaVuSans-110"/>
     </g>
    </g>
    <g id="line2d_88">
     <path d="M 219.4075 293.004312 
L 239.4075 293.004312 
" style="fill:none;stroke:#d62728;stroke-linecap:square;stroke-width:1.5;"/>
    </g>
    <g id="line2d_89"/>
    <g id="text_23">
     <!-- Batch: Momentum = 0.9 - Test -->
     <g transform="translate(247.4075 296.504312)scale(0.1 -0.1)">
      <use xlink:href="#DejaVuSans-66"/>
      <use x="68.603516" xlink:href="#DejaVuSans-97"/>
      <use x="129.882812" xlink:href="#DejaVuSans-116"/>
      <use x="169.091797" xlink:href="#DejaVuSans-99"/>
      <use x="224.072266" xlink:href="#DejaVuSans-104"/>
      <use x="287.451172" xlink:href="#DejaVuSans-58"/>
      <use x="321.142578" xlink:href="#DejaVuSans-32"/>
      <use x="352.929688" xlink:href="#DejaVuSans-77"/>
      <use x="439.208984" xlink:href="#DejaVuSans-111"/>
      <use x="500.390625" xlink:href="#DejaVuSans-109"/>
      <use x="597.802734" xlink:href="#DejaVuSans-101"/>
      <use x="659.326172" xlink:href="#DejaVuSans-110"/>
      <use x="722.705078" xlink:href="#DejaVuSans-116"/>
      <use x="761.914062" xlink:href="#DejaVuSans-117"/>
      <use x="825.292969" xlink:href="#DejaVuSans-109"/>
      <use x="922.705078" xlink:href="#DejaVuSans-32"/>
      <use x="954.492188" xlink:href="#DejaVuSans-61"/>
      <use x="1038.28125" xlink:href="#DejaVuSans-32"/>
      <use x="1070.068359" xlink:href="#DejaVuSans-48"/>
      <use x="1133.691406" xlink:href="#DejaVuSans-46"/>
      <use x="1165.478516" xlink:href="#DejaVuSans-57"/>
      <use x="1229.101562" xlink:href="#DejaVuSans-32"/>
      <use x="1260.888672" xlink:href="#DejaVuSans-45"/>
      <use x="1296.972656" xlink:href="#DejaVuSans-32"/>
      <use x="1328.759766" xlink:href="#DejaVuSans-84"/>
      <use x="1389.578125" xlink:href="#DejaVuSans-101"/>
      <use x="1451.101562" xlink:href="#DejaVuSans-115"/>
      <use x="1503.201172" xlink:href="#DejaVuSans-116"/>
     </g>
    </g>
   </g>
  </g>
 </g>
 <defs>
  <clipPath id="p4e00e4ce58">
   <rect height="266.112" width="357.12" x="57.6" y="41.472"/>
  </clipPath>
 </defs>
</svg>
