<?xml version="1.0" encoding="utf-8" standalone="no"?>
<!DOCTYPE svg PUBLIC "-//W3C//DTD SVG 1.1//EN"
  "http://www.w3.org/Graphics/SVG/1.1/DTD/svg11.dtd">
<!-- Created with matplotlib (https://matplotlib.org/) -->
<svg height="345.6pt" version="1.1" viewBox="0 0 460.8 345.6" width="460.8pt" xmlns="http://www.w3.org/2000/svg" xmlns:xlink="http://www.w3.org/1999/xlink">
 <defs>
  <style type="text/css">
*{stroke-linecap:butt;stroke-linejoin:round;white-space:pre;}
  </style>
 </defs>
 <g id="figure_1">
  <g id="patch_1">
   <path d="M 0 345.6 
L 460.8 345.6 
L 460.8 0 
L 0 0 
z
" style="fill:#ffffff;"/>
  </g>
  <g id="axes_1">
   <g id="patch_2">
    <path d="M 57.6 307.584 
L 414.72 307.584 
L 414.72 41.472 
L 57.6 41.472 
z
" style="fill:#ffffff;"/>
   </g>
   <g id="PolyCollection_1">
    <defs>
     <path d="M 77.106954 -292.032 
L 77.106954 -183.915317 
L 83.665736 -166.239249 
L 90.224518 -162.558229 
L 96.7833 -157.036478 
L 103.342082 -150.398332 
L 109.900864 -154.313776 
L 116.459646 -147.994082 
L 123.018428 -142.136769 
L 129.57721 -148.810986 
L 136.135992 -142.58526 
L 142.694774 -139.103278 
L 149.253556 -130.561646 
L 155.812338 -128.252128 
L 162.37112 -124.284808 
L 168.929902 -123.472643 
L 175.488684 -123.44941 
L 182.047466 -121.479709 
L 188.606248 -120.929962 
L 195.16503 -120.151 
L 201.723812 -118.854235 
L 208.282594 -115.242826 
L 214.841376 -115.475642 
L 221.400158 -114.310082 
L 227.95894 -111.945125 
L 234.517722 -110.169273 
L 241.076504 -109.391771 
L 247.635286 -111.390056 
L 254.194068 -111.259735 
L 260.75285 -103.361135 
L 267.311632 -106.59612 
L 273.870414 -107.156306 
L 280.429196 -107.351228 
L 286.987978 -106.107457 
L 293.54676 -104.461908 
L 300.105542 -108.454294 
L 306.664324 -107.059478 
L 313.223107 -108.194811 
L 319.781889 -106.384803 
L 326.340671 -102.71995 
L 332.899453 -104.28695 
L 339.458235 -106.33629 
L 346.017017 -100.546349 
L 352.575799 -103.957182 
L 359.134581 -99.636635 
L 365.693363 -99.683629 
L 372.252145 -101.313914 
L 378.810927 -101.176899 
L 385.369709 -102.872015 
L 391.928491 -102.226509 
L 398.487273 -96.173177 
L 398.487273 -130.104636 
L 398.487273 -130.104636 
L 391.928491 -128.136307 
L 385.369709 -127.341497 
L 378.810927 -129.166057 
L 372.252145 -128.095262 
L 365.693363 -129.0683 
L 359.134581 -129.838369 
L 352.575799 -128.316623 
L 346.017017 -134.257972 
L 339.458235 -130.035526 
L 332.899453 -132.91495 
L 326.340671 -136.210143 
L 319.781889 -136.141685 
L 313.223107 -136.197607 
L 306.664324 -134.654787 
L 300.105542 -133.912902 
L 293.54676 -135.894235 
L 286.987978 -136.378912 
L 280.429196 -137.098201 
L 273.870414 -135.773154 
L 267.311632 -139.84735 
L 260.75285 -137.626301 
L 254.194068 -137.934377 
L 247.635286 -146.347311 
L 241.076504 -140.973348 
L 234.517722 -139.72355 
L 227.95894 -138.025468 
L 221.400158 -142.602613 
L 214.841376 -144.669362 
L 208.282594 -148.633849 
L 201.723812 -167.356301 
L 195.16503 -149.235676 
L 188.606248 -150.617942 
L 182.047466 -153.997258 
L 175.488684 -154.768543 
L 168.929902 -148.174888 
L 162.37112 -156.715264 
L 155.812338 -162.217341 
L 149.253556 -162.115102 
L 142.694774 -190.489503 
L 136.135992 -172.202586 
L 129.57721 -181.430561 
L 123.018428 -174.292295 
L 116.459646 -187.658708 
L 109.900864 -190.572469 
L 103.342082 -186.274999 
L 96.7833 -208.428203 
L 90.224518 -210.286463 
L 83.665736 -220.509613 
L 77.106954 -292.032 
z
" id="mfb604d2d3d" style="stroke:#aec7e8;stroke-opacity:0.25;"/>
    </defs>
    <g clip-path="url(#p058b7275e0)">
     <use style="fill:#aec7e8;fill-opacity:0.25;stroke:#aec7e8;stroke-opacity:0.25;" x="0" xlink:href="#mfb604d2d3d" y="345.6"/>
    </g>
   </g>
   <g id="PolyCollection_2">
    <defs>
     <path d="M 77.106954 -269.617517 
L 77.106954 -165.357573 
L 83.665736 -145.962356 
L 90.224518 -127.172998 
L 96.7833 -124.354293 
L 103.342082 -123.612721 
L 109.900864 -124.186876 
L 116.459646 -124.462314 
L 123.018428 -117.741438 
L 129.57721 -110.198922 
L 136.135992 -109.845876 
L 142.694774 -105.346812 
L 149.253556 -99.941184 
L 155.812338 -96.70384 
L 162.37112 -93.550949 
L 168.929902 -87.632149 
L 175.488684 -86.711596 
L 182.047466 -83.036786 
L 188.606248 -85.426167 
L 195.16503 -78.842361 
L 201.723812 -75.270408 
L 208.282594 -76.767429 
L 214.841376 -72.167749 
L 221.400158 -69.756001 
L 227.95894 -64.824783 
L 234.517722 -60.867827 
L 241.076504 -66.199711 
L 247.635286 -64.07215 
L 254.194068 -59.897623 
L 260.75285 -59.675349 
L 267.311632 -57.621491 
L 273.870414 -54.648746 
L 280.429196 -54.843918 
L 286.987978 -57.177382 
L 293.54676 -57.914017 
L 300.105542 -50.254444 
L 306.664324 -57.768266 
L 313.223107 -55.467005 
L 319.781889 -52.498348 
L 326.340671 -54.634459 
L 332.899453 -52.947871 
L 339.458235 -51.685896 
L 346.017017 -50.392214 
L 352.575799 -50.260054 
L 359.134581 -53.833347 
L 365.693363 -51.054814 
L 372.252145 -50.112 
L 378.810927 -54.310263 
L 385.369709 -51.199313 
L 391.928491 -52.054825 
L 398.487273 -50.895552 
L 398.487273 -83.615556 
L 398.487273 -83.615556 
L 391.928491 -80.743165 
L 385.369709 -86.949662 
L 378.810927 -80.237054 
L 372.252145 -81.899013 
L 365.693363 -82.506442 
L 359.134581 -83.723029 
L 352.575799 -86.808348 
L 346.017017 -84.300433 
L 339.458235 -85.551021 
L 332.899453 -86.551595 
L 326.340671 -87.435628 
L 319.781889 -88.227854 
L 313.223107 -89.66397 
L 306.664324 -89.571048 
L 300.105542 -89.906253 
L 293.54676 -92.366073 
L 286.987978 -97.476336 
L 280.429196 -99.024087 
L 273.870414 -91.846718 
L 267.311632 -95.934913 
L 260.75285 -102.816298 
L 254.194068 -92.196439 
L 247.635286 -94.685013 
L 241.076504 -99.693496 
L 234.517722 -95.556632 
L 227.95894 -101.042818 
L 221.400158 -100.988267 
L 214.841376 -103.02721 
L 208.282594 -106.086471 
L 201.723812 -107.220868 
L 195.16503 -108.390006 
L 188.606248 -112.132582 
L 182.047466 -113.131415 
L 175.488684 -117.654094 
L 168.929902 -120.312852 
L 162.37112 -120.591343 
L 155.812338 -125.781914 
L 149.253556 -127.990027 
L 142.694774 -139.988804 
L 136.135992 -139.25341 
L 129.57721 -147.339557 
L 123.018428 -149.824268 
L 116.459646 -158.506188 
L 109.900864 -157.863972 
L 103.342082 -167.797935 
L 96.7833 -167.531466 
L 90.224518 -182.377303 
L 83.665736 -192.778922 
L 77.106954 -269.617517 
z
" id="mae716b5bae" style="stroke:#ffbb78;stroke-opacity:0.25;"/>
    </defs>
    <g clip-path="url(#p058b7275e0)">
     <use style="fill:#ffbb78;fill-opacity:0.25;stroke:#ffbb78;stroke-opacity:0.25;" x="0" xlink:href="#mae716b5bae" y="345.6"/>
    </g>
   </g>
   <g id="PolyCollection_3">
    <defs>
     <path d="M 77.106954 -271.339962 
L 77.106954 -189.518532 
L 83.665736 -143.357489 
L 90.224518 -137.567057 
L 96.7833 -132.188219 
L 103.342082 -133.553297 
L 109.900864 -133.72782 
L 116.459646 -127.699701 
L 123.018428 -124.111087 
L 129.57721 -119.406971 
L 136.135992 -114.497752 
L 142.694774 -112.75671 
L 149.253556 -103.250339 
L 155.812338 -101.138625 
L 162.37112 -95.929124 
L 168.929902 -90.376677 
L 175.488684 -90.011547 
L 182.047466 -88.724398 
L 188.606248 -86.623537 
L 195.16503 -86.029629 
L 201.723812 -81.688423 
L 208.282594 -79.869719 
L 214.841376 -78.83503 
L 221.400158 -77.935348 
L 227.95894 -72.731645 
L 234.517722 -78.339865 
L 241.076504 -72.772473 
L 247.635286 -69.28536 
L 254.194068 -70.022849 
L 260.75285 -67.724221 
L 267.311632 -68.890069 
L 273.870414 -70.672848 
L 280.429196 -66.031004 
L 286.987978 -65.415906 
L 293.54676 -64.080909 
L 300.105542 -63.291142 
L 306.664324 -67.088723 
L 313.223107 -61.768509 
L 319.781889 -61.978191 
L 326.340671 -61.508178 
L 332.899453 -62.455408 
L 339.458235 -55.468543 
L 346.017017 -59.405571 
L 352.575799 -58.327816 
L 359.134581 -61.540966 
L 365.693363 -51.134954 
L 372.252145 -58.514155 
L 378.810927 -56.511987 
L 385.369709 -55.858576 
L 391.928491 -52.632846 
L 398.487273 -54.990716 
L 398.487273 -85.426494 
L 398.487273 -85.426494 
L 391.928491 -88.931386 
L 385.369709 -90.593478 
L 378.810927 -87.523502 
L 372.252145 -91.892818 
L 365.693363 -87.590906 
L 359.134581 -87.505955 
L 352.575799 -89.994125 
L 346.017017 -91.865687 
L 339.458235 -90.078114 
L 332.899453 -90.63591 
L 326.340671 -92.608661 
L 319.781889 -95.469293 
L 313.223107 -92.477 
L 306.664324 -97.073682 
L 300.105542 -101.309115 
L 293.54676 -97.145773 
L 286.987978 -98.679922 
L 280.429196 -94.442878 
L 273.870414 -102.47791 
L 267.311632 -99.342228 
L 260.75285 -96.780988 
L 254.194068 -99.996142 
L 247.635286 -102.723588 
L 241.076504 -103.290289 
L 234.517722 -106.136129 
L 227.95894 -104.225437 
L 221.400158 -106.881557 
L 214.841376 -105.948189 
L 208.282594 -108.009268 
L 201.723812 -110.158957 
L 195.16503 -112.531189 
L 188.606248 -115.234657 
L 182.047466 -116.151885 
L 175.488684 -118.156751 
L 168.929902 -120.913657 
L 162.37112 -124.227896 
L 155.812338 -127.863882 
L 149.253556 -131.923241 
L 142.694774 -139.517145 
L 136.135992 -146.021992 
L 129.57721 -152.310751 
L 123.018428 -149.675073 
L 116.459646 -161.812056 
L 109.900864 -162.471714 
L 103.342082 -165.435051 
L 96.7833 -178.179699 
L 90.224518 -173.175851 
L 83.665736 -203.465266 
L 77.106954 -271.339962 
z
" id="maa055ae021" style="stroke:#98df8a;stroke-opacity:0.25;"/>
    </defs>
    <g clip-path="url(#p058b7275e0)">
     <use style="fill:#98df8a;fill-opacity:0.25;stroke:#98df8a;stroke-opacity:0.25;" x="0" xlink:href="#maa055ae021" y="345.6"/>
    </g>
   </g>
   <g id="PolyCollection_4">
    <defs>
     <path d="M 77.106954 -267.731786 
L 77.106954 -192.462682 
L 83.665736 -154.298146 
L 90.224518 -147.527569 
L 96.7833 -128.213315 
L 103.342082 -120.29806 
L 109.900864 -120.282494 
L 116.459646 -121.151253 
L 123.018428 -119.170962 
L 129.57721 -114.583926 
L 136.135992 -105.062629 
L 142.694774 -100.114177 
L 149.253556 -93.564592 
L 155.812338 -94.08803 
L 162.37112 -89.80573 
L 168.929902 -82.355247 
L 175.488684 -85.072956 
L 182.047466 -85.56709 
L 188.606248 -85.616974 
L 195.16503 -81.989977 
L 201.723812 -76.985671 
L 208.282594 -73.400308 
L 214.841376 -77.647822 
L 221.400158 -77.228771 
L 227.95894 -79.277916 
L 234.517722 -76.983532 
L 241.076504 -77.242612 
L 247.635286 -76.196603 
L 254.194068 -77.586795 
L 260.75285 -78.110171 
L 267.311632 -72.610843 
L 273.870414 -74.458586 
L 280.429196 -73.264106 
L 286.987978 -73.724759 
L 293.54676 -76.390219 
L 300.105542 -69.06443 
L 306.664324 -67.056858 
L 313.223107 -73.277716 
L 319.781889 -71.811623 
L 326.340671 -66.712249 
L 332.899453 -68.979855 
L 339.458235 -65.796557 
L 346.017017 -64.640521 
L 352.575799 -67.590738 
L 359.134581 -67.87465 
L 365.693363 -64.042655 
L 372.252145 -60.475723 
L 378.810927 -61.199247 
L 385.369709 -63.286737 
L 391.928491 -64.352428 
L 398.487273 -62.613906 
L 398.487273 -95.1284 
L 398.487273 -95.1284 
L 391.928491 -92.350893 
L 385.369709 -95.230963 
L 378.810927 -97.366192 
L 372.252145 -99.715268 
L 365.693363 -94.808005 
L 359.134581 -97.508031 
L 352.575799 -100.447544 
L 346.017017 -96.967474 
L 339.458235 -100.692707 
L 332.899453 -99.734381 
L 326.340671 -99.621334 
L 319.781889 -101.942469 
L 313.223107 -103.242162 
L 306.664324 -106.218906 
L 300.105542 -103.416203 
L 293.54676 -103.542964 
L 286.987978 -106.655697 
L 280.429196 -104.870079 
L 273.870414 -107.535842 
L 267.311632 -103.5001 
L 260.75285 -107.028031 
L 254.194068 -107.113221 
L 247.635286 -109.85513 
L 241.076504 -108.346983 
L 234.517722 -109.57029 
L 227.95894 -109.819546 
L 221.400158 -110.381608 
L 214.841376 -114.377513 
L 208.282594 -113.702539 
L 201.723812 -110.34929 
L 195.16503 -113.737179 
L 188.606248 -113.821719 
L 182.047466 -116.641084 
L 175.488684 -115.040894 
L 168.929902 -122.330855 
L 162.37112 -125.406354 
L 155.812338 -124.256463 
L 149.253556 -126.110655 
L 142.694774 -136.053308 
L 136.135992 -141.755551 
L 129.57721 -148.326 
L 123.018428 -154.148057 
L 116.459646 -155.915416 
L 109.900864 -154.823487 
L 103.342082 -180.073378 
L 96.7833 -202.744385 
L 90.224518 -188.754416 
L 83.665736 -208.467788 
L 77.106954 -267.731786 
z
" id="mc650d8d585" style="stroke:#ff9896;stroke-opacity:0.25;"/>
    </defs>
    <g clip-path="url(#p058b7275e0)">
     <use style="fill:#ff9896;fill-opacity:0.25;stroke:#ff9896;stroke-opacity:0.25;" x="0" xlink:href="#mc650d8d585" y="345.6"/>
    </g>
   </g>
   <g id="matplotlib.axis_1">
    <g id="xtick_1">
     <g id="line2d_1">
      <path clip-path="url(#p058b7275e0)" d="M 73.832727 307.584 
L 73.832727 41.472 
" style="fill:none;stroke:#b0b0b0;stroke-linecap:square;stroke-width:0.8;"/>
     </g>
     <g id="line2d_2">
      <defs>
       <path d="M 0 0 
L 0 3.5 
" id="m7b2e7ac6cc" style="stroke:#000000;stroke-width:0.8;"/>
      </defs>
      <g>
       <use style="stroke:#000000;stroke-width:0.8;" x="73.832727" xlink:href="#m7b2e7ac6cc" y="307.584"/>
      </g>
     </g>
     <g id="text_1">
      <!-- 0 -->
      <defs>
       <path d="M 31.78125 66.40625 
Q 24.171875 66.40625 20.328125 58.90625 
Q 16.5 51.421875 16.5 36.375 
Q 16.5 21.390625 20.328125 13.890625 
Q 24.171875 6.390625 31.78125 6.390625 
Q 39.453125 6.390625 43.28125 13.890625 
Q 47.125 21.390625 47.125 36.375 
Q 47.125 51.421875 43.28125 58.90625 
Q 39.453125 66.40625 31.78125 66.40625 
z
M 31.78125 74.21875 
Q 44.046875 74.21875 50.515625 64.515625 
Q 56.984375 54.828125 56.984375 36.375 
Q 56.984375 17.96875 50.515625 8.265625 
Q 44.046875 -1.421875 31.78125 -1.421875 
Q 19.53125 -1.421875 13.0625 8.265625 
Q 6.59375 17.96875 6.59375 36.375 
Q 6.59375 54.828125 13.0625 64.515625 
Q 19.53125 74.21875 31.78125 74.21875 
z
" id="DejaVuSans-48"/>
      </defs>
      <g transform="translate(70.651477 322.182437)scale(0.1 -0.1)">
       <use xlink:href="#DejaVuSans-48"/>
      </g>
     </g>
    </g>
    <g id="xtick_2">
     <g id="line2d_3">
      <path clip-path="url(#p058b7275e0)" d="M 125.47668 307.584 
L 125.47668 41.472 
" style="fill:none;stroke:#b0b0b0;stroke-linecap:square;stroke-width:0.8;"/>
     </g>
     <g id="line2d_4">
      <g>
       <use style="stroke:#000000;stroke-width:0.8;" x="125.47668" xlink:href="#m7b2e7ac6cc" y="307.584"/>
      </g>
     </g>
     <g id="text_2">
      <!-- 5000 -->
      <defs>
       <path d="M 10.796875 72.90625 
L 49.515625 72.90625 
L 49.515625 64.59375 
L 19.828125 64.59375 
L 19.828125 46.734375 
Q 21.96875 47.46875 24.109375 47.828125 
Q 26.265625 48.1875 28.421875 48.1875 
Q 40.625 48.1875 47.75 41.5 
Q 54.890625 34.8125 54.890625 23.390625 
Q 54.890625 11.625 47.5625 5.09375 
Q 40.234375 -1.421875 26.90625 -1.421875 
Q 22.3125 -1.421875 17.546875 -0.640625 
Q 12.796875 0.140625 7.71875 1.703125 
L 7.71875 11.625 
Q 12.109375 9.234375 16.796875 8.0625 
Q 21.484375 6.890625 26.703125 6.890625 
Q 35.15625 6.890625 40.078125 11.328125 
Q 45.015625 15.765625 45.015625 23.390625 
Q 45.015625 31 40.078125 35.4375 
Q 35.15625 39.890625 26.703125 39.890625 
Q 22.75 39.890625 18.8125 39.015625 
Q 14.890625 38.140625 10.796875 36.28125 
z
" id="DejaVuSans-53"/>
      </defs>
      <g transform="translate(112.75168 322.182437)scale(0.1 -0.1)">
       <use xlink:href="#DejaVuSans-53"/>
       <use x="63.623047" xlink:href="#DejaVuSans-48"/>
       <use x="127.246094" xlink:href="#DejaVuSans-48"/>
       <use x="190.869141" xlink:href="#DejaVuSans-48"/>
      </g>
     </g>
    </g>
    <g id="xtick_3">
     <g id="line2d_5">
      <path clip-path="url(#p058b7275e0)" d="M 177.120633 307.584 
L 177.120633 41.472 
" style="fill:none;stroke:#b0b0b0;stroke-linecap:square;stroke-width:0.8;"/>
     </g>
     <g id="line2d_6">
      <g>
       <use style="stroke:#000000;stroke-width:0.8;" x="177.120633" xlink:href="#m7b2e7ac6cc" y="307.584"/>
      </g>
     </g>
     <g id="text_3">
      <!-- 10000 -->
      <defs>
       <path d="M 12.40625 8.296875 
L 28.515625 8.296875 
L 28.515625 63.921875 
L 10.984375 60.40625 
L 10.984375 69.390625 
L 28.421875 72.90625 
L 38.28125 72.90625 
L 38.28125 8.296875 
L 54.390625 8.296875 
L 54.390625 0 
L 12.40625 0 
z
" id="DejaVuSans-49"/>
      </defs>
      <g transform="translate(161.214383 322.182437)scale(0.1 -0.1)">
       <use xlink:href="#DejaVuSans-49"/>
       <use x="63.623047" xlink:href="#DejaVuSans-48"/>
       <use x="127.246094" xlink:href="#DejaVuSans-48"/>
       <use x="190.869141" xlink:href="#DejaVuSans-48"/>
       <use x="254.492188" xlink:href="#DejaVuSans-48"/>
      </g>
     </g>
    </g>
    <g id="xtick_4">
     <g id="line2d_7">
      <path clip-path="url(#p058b7275e0)" d="M 228.764586 307.584 
L 228.764586 41.472 
" style="fill:none;stroke:#b0b0b0;stroke-linecap:square;stroke-width:0.8;"/>
     </g>
     <g id="line2d_8">
      <g>
       <use style="stroke:#000000;stroke-width:0.8;" x="228.764586" xlink:href="#m7b2e7ac6cc" y="307.584"/>
      </g>
     </g>
     <g id="text_4">
      <!-- 15000 -->
      <g transform="translate(212.858336 322.182437)scale(0.1 -0.1)">
       <use xlink:href="#DejaVuSans-49"/>
       <use x="63.623047" xlink:href="#DejaVuSans-53"/>
       <use x="127.246094" xlink:href="#DejaVuSans-48"/>
       <use x="190.869141" xlink:href="#DejaVuSans-48"/>
       <use x="254.492188" xlink:href="#DejaVuSans-48"/>
      </g>
     </g>
    </g>
    <g id="xtick_5">
     <g id="line2d_9">
      <path clip-path="url(#p058b7275e0)" d="M 280.408539 307.584 
L 280.408539 41.472 
" style="fill:none;stroke:#b0b0b0;stroke-linecap:square;stroke-width:0.8;"/>
     </g>
     <g id="line2d_10">
      <g>
       <use style="stroke:#000000;stroke-width:0.8;" x="280.408539" xlink:href="#m7b2e7ac6cc" y="307.584"/>
      </g>
     </g>
     <g id="text_5">
      <!-- 20000 -->
      <defs>
       <path d="M 19.1875 8.296875 
L 53.609375 8.296875 
L 53.609375 0 
L 7.328125 0 
L 7.328125 8.296875 
Q 12.9375 14.109375 22.625 23.890625 
Q 32.328125 33.6875 34.8125 36.53125 
Q 39.546875 41.84375 41.421875 45.53125 
Q 43.3125 49.21875 43.3125 52.78125 
Q 43.3125 58.59375 39.234375 62.25 
Q 35.15625 65.921875 28.609375 65.921875 
Q 23.96875 65.921875 18.8125 64.3125 
Q 13.671875 62.703125 7.8125 59.421875 
L 7.8125 69.390625 
Q 13.765625 71.78125 18.9375 73 
Q 24.125 74.21875 28.421875 74.21875 
Q 39.75 74.21875 46.484375 68.546875 
Q 53.21875 62.890625 53.21875 53.421875 
Q 53.21875 48.921875 51.53125 44.890625 
Q 49.859375 40.875 45.40625 35.40625 
Q 44.1875 33.984375 37.640625 27.21875 
Q 31.109375 20.453125 19.1875 8.296875 
z
" id="DejaVuSans-50"/>
      </defs>
      <g transform="translate(264.502289 322.182437)scale(0.1 -0.1)">
       <use xlink:href="#DejaVuSans-50"/>
       <use x="63.623047" xlink:href="#DejaVuSans-48"/>
       <use x="127.246094" xlink:href="#DejaVuSans-48"/>
       <use x="190.869141" xlink:href="#DejaVuSans-48"/>
       <use x="254.492188" xlink:href="#DejaVuSans-48"/>
      </g>
     </g>
    </g>
    <g id="xtick_6">
     <g id="line2d_11">
      <path clip-path="url(#p058b7275e0)" d="M 332.052492 307.584 
L 332.052492 41.472 
" style="fill:none;stroke:#b0b0b0;stroke-linecap:square;stroke-width:0.8;"/>
     </g>
     <g id="line2d_12">
      <g>
       <use style="stroke:#000000;stroke-width:0.8;" x="332.052492" xlink:href="#m7b2e7ac6cc" y="307.584"/>
      </g>
     </g>
     <g id="text_6">
      <!-- 25000 -->
      <g transform="translate(316.146242 322.182437)scale(0.1 -0.1)">
       <use xlink:href="#DejaVuSans-50"/>
       <use x="63.623047" xlink:href="#DejaVuSans-53"/>
       <use x="127.246094" xlink:href="#DejaVuSans-48"/>
       <use x="190.869141" xlink:href="#DejaVuSans-48"/>
       <use x="254.492188" xlink:href="#DejaVuSans-48"/>
      </g>
     </g>
    </g>
    <g id="xtick_7">
     <g id="line2d_13">
      <path clip-path="url(#p058b7275e0)" d="M 383.696445 307.584 
L 383.696445 41.472 
" style="fill:none;stroke:#b0b0b0;stroke-linecap:square;stroke-width:0.8;"/>
     </g>
     <g id="line2d_14">
      <g>
       <use style="stroke:#000000;stroke-width:0.8;" x="383.696445" xlink:href="#m7b2e7ac6cc" y="307.584"/>
      </g>
     </g>
     <g id="text_7">
      <!-- 30000 -->
      <defs>
       <path d="M 40.578125 39.3125 
Q 47.65625 37.796875 51.625 33 
Q 55.609375 28.21875 55.609375 21.1875 
Q 55.609375 10.40625 48.1875 4.484375 
Q 40.765625 -1.421875 27.09375 -1.421875 
Q 22.515625 -1.421875 17.65625 -0.515625 
Q 12.796875 0.390625 7.625 2.203125 
L 7.625 11.71875 
Q 11.71875 9.328125 16.59375 8.109375 
Q 21.484375 6.890625 26.8125 6.890625 
Q 36.078125 6.890625 40.9375 10.546875 
Q 45.796875 14.203125 45.796875 21.1875 
Q 45.796875 27.640625 41.28125 31.265625 
Q 36.765625 34.90625 28.71875 34.90625 
L 20.21875 34.90625 
L 20.21875 43.015625 
L 29.109375 43.015625 
Q 36.375 43.015625 40.234375 45.921875 
Q 44.09375 48.828125 44.09375 54.296875 
Q 44.09375 59.90625 40.109375 62.90625 
Q 36.140625 65.921875 28.71875 65.921875 
Q 24.65625 65.921875 20.015625 65.03125 
Q 15.375 64.15625 9.8125 62.3125 
L 9.8125 71.09375 
Q 15.4375 72.65625 20.34375 73.4375 
Q 25.25 74.21875 29.59375 74.21875 
Q 40.828125 74.21875 47.359375 69.109375 
Q 53.90625 64.015625 53.90625 55.328125 
Q 53.90625 49.265625 50.4375 45.09375 
Q 46.96875 40.921875 40.578125 39.3125 
z
" id="DejaVuSans-51"/>
      </defs>
      <g transform="translate(367.790195 322.182437)scale(0.1 -0.1)">
       <use xlink:href="#DejaVuSans-51"/>
       <use x="63.623047" xlink:href="#DejaVuSans-48"/>
       <use x="127.246094" xlink:href="#DejaVuSans-48"/>
       <use x="190.869141" xlink:href="#DejaVuSans-48"/>
       <use x="254.492188" xlink:href="#DejaVuSans-48"/>
      </g>
     </g>
    </g>
    <g id="text_8">
     <!-- Steps -->
     <defs>
      <path d="M 53.515625 70.515625 
L 53.515625 60.890625 
Q 47.90625 63.578125 42.921875 64.890625 
Q 37.9375 66.21875 33.296875 66.21875 
Q 25.25 66.21875 20.875 63.09375 
Q 16.5 59.96875 16.5 54.203125 
Q 16.5 49.359375 19.40625 46.890625 
Q 22.3125 44.4375 30.421875 42.921875 
L 36.375 41.703125 
Q 47.40625 39.59375 52.65625 34.296875 
Q 57.90625 29 57.90625 20.125 
Q 57.90625 9.515625 50.796875 4.046875 
Q 43.703125 -1.421875 29.984375 -1.421875 
Q 24.8125 -1.421875 18.96875 -0.25 
Q 13.140625 0.921875 6.890625 3.21875 
L 6.890625 13.375 
Q 12.890625 10.015625 18.65625 8.296875 
Q 24.421875 6.59375 29.984375 6.59375 
Q 38.421875 6.59375 43.015625 9.90625 
Q 47.609375 13.234375 47.609375 19.390625 
Q 47.609375 24.75 44.3125 27.78125 
Q 41.015625 30.8125 33.5 32.328125 
L 27.484375 33.5 
Q 16.453125 35.6875 11.515625 40.375 
Q 6.59375 45.0625 6.59375 53.421875 
Q 6.59375 63.09375 13.40625 68.65625 
Q 20.21875 74.21875 32.171875 74.21875 
Q 37.3125 74.21875 42.625 73.28125 
Q 47.953125 72.359375 53.515625 70.515625 
z
" id="DejaVuSans-83"/>
      <path d="M 18.3125 70.21875 
L 18.3125 54.6875 
L 36.8125 54.6875 
L 36.8125 47.703125 
L 18.3125 47.703125 
L 18.3125 18.015625 
Q 18.3125 11.328125 20.140625 9.421875 
Q 21.96875 7.515625 27.59375 7.515625 
L 36.8125 7.515625 
L 36.8125 0 
L 27.59375 0 
Q 17.1875 0 13.234375 3.875 
Q 9.28125 7.765625 9.28125 18.015625 
L 9.28125 47.703125 
L 2.6875 47.703125 
L 2.6875 54.6875 
L 9.28125 54.6875 
L 9.28125 70.21875 
z
" id="DejaVuSans-116"/>
      <path d="M 56.203125 29.59375 
L 56.203125 25.203125 
L 14.890625 25.203125 
Q 15.484375 15.921875 20.484375 11.0625 
Q 25.484375 6.203125 34.421875 6.203125 
Q 39.59375 6.203125 44.453125 7.46875 
Q 49.3125 8.734375 54.109375 11.28125 
L 54.109375 2.78125 
Q 49.265625 0.734375 44.1875 -0.34375 
Q 39.109375 -1.421875 33.890625 -1.421875 
Q 20.796875 -1.421875 13.15625 6.1875 
Q 5.515625 13.8125 5.515625 26.8125 
Q 5.515625 40.234375 12.765625 48.109375 
Q 20.015625 56 32.328125 56 
Q 43.359375 56 49.78125 48.890625 
Q 56.203125 41.796875 56.203125 29.59375 
z
M 47.21875 32.234375 
Q 47.125 39.59375 43.09375 43.984375 
Q 39.0625 48.390625 32.421875 48.390625 
Q 24.90625 48.390625 20.390625 44.140625 
Q 15.875 39.890625 15.1875 32.171875 
z
" id="DejaVuSans-101"/>
      <path d="M 18.109375 8.203125 
L 18.109375 -20.796875 
L 9.078125 -20.796875 
L 9.078125 54.6875 
L 18.109375 54.6875 
L 18.109375 46.390625 
Q 20.953125 51.265625 25.265625 53.625 
Q 29.59375 56 35.59375 56 
Q 45.5625 56 51.78125 48.09375 
Q 58.015625 40.1875 58.015625 27.296875 
Q 58.015625 14.40625 51.78125 6.484375 
Q 45.5625 -1.421875 35.59375 -1.421875 
Q 29.59375 -1.421875 25.265625 0.953125 
Q 20.953125 3.328125 18.109375 8.203125 
z
M 48.6875 27.296875 
Q 48.6875 37.203125 44.609375 42.84375 
Q 40.53125 48.484375 33.40625 48.484375 
Q 26.265625 48.484375 22.1875 42.84375 
Q 18.109375 37.203125 18.109375 27.296875 
Q 18.109375 17.390625 22.1875 11.75 
Q 26.265625 6.109375 33.40625 6.109375 
Q 40.53125 6.109375 44.609375 11.75 
Q 48.6875 17.390625 48.6875 27.296875 
z
" id="DejaVuSans-112"/>
      <path d="M 44.28125 53.078125 
L 44.28125 44.578125 
Q 40.484375 46.53125 36.375 47.5 
Q 32.28125 48.484375 27.875 48.484375 
Q 21.1875 48.484375 17.84375 46.4375 
Q 14.5 44.390625 14.5 40.28125 
Q 14.5 37.15625 16.890625 35.375 
Q 19.28125 33.59375 26.515625 31.984375 
L 29.59375 31.296875 
Q 39.15625 29.25 43.1875 25.515625 
Q 47.21875 21.78125 47.21875 15.09375 
Q 47.21875 7.46875 41.1875 3.015625 
Q 35.15625 -1.421875 24.609375 -1.421875 
Q 20.21875 -1.421875 15.453125 -0.5625 
Q 10.6875 0.296875 5.421875 2 
L 5.421875 11.28125 
Q 10.40625 8.6875 15.234375 7.390625 
Q 20.0625 6.109375 24.8125 6.109375 
Q 31.15625 6.109375 34.5625 8.28125 
Q 37.984375 10.453125 37.984375 14.40625 
Q 37.984375 18.0625 35.515625 20.015625 
Q 33.0625 21.96875 24.703125 23.78125 
L 21.578125 24.515625 
Q 13.234375 26.265625 9.515625 29.90625 
Q 5.8125 33.546875 5.8125 39.890625 
Q 5.8125 47.609375 11.28125 51.796875 
Q 16.75 56 26.8125 56 
Q 31.78125 56 36.171875 55.265625 
Q 40.578125 54.546875 44.28125 53.078125 
z
" id="DejaVuSans-115"/>
     </defs>
     <g transform="translate(222.170156 335.860562)scale(0.1 -0.1)">
      <use xlink:href="#DejaVuSans-83"/>
      <use x="63.476562" xlink:href="#DejaVuSans-116"/>
      <use x="102.685547" xlink:href="#DejaVuSans-101"/>
      <use x="164.208984" xlink:href="#DejaVuSans-112"/>
      <use x="227.685547" xlink:href="#DejaVuSans-115"/>
     </g>
    </g>
   </g>
   <g id="matplotlib.axis_2">
    <g id="ytick_1">
     <g id="line2d_15">
      <path clip-path="url(#p058b7275e0)" d="M 57.6 261.830051 
L 414.72 261.830051 
" style="fill:none;stroke:#b0b0b0;stroke-linecap:square;stroke-width:0.8;"/>
     </g>
     <g id="line2d_16">
      <defs>
       <path d="M 0 0 
L -3.5 0 
" id="mf8a462f393" style="stroke:#000000;stroke-width:0.8;"/>
      </defs>
      <g>
       <use style="stroke:#000000;stroke-width:0.8;" x="57.6" xlink:href="#mf8a462f393" y="261.830051"/>
      </g>
     </g>
     <g id="text_9">
      <!-- $\mathdefault{10^{-1}}$ -->
      <defs>
       <path d="M 10.59375 35.5 
L 73.1875 35.5 
L 73.1875 27.203125 
L 10.59375 27.203125 
z
" id="DejaVuSans-8722"/>
      </defs>
      <g transform="translate(27.1 265.62927)scale(0.1 -0.1)">
       <use transform="translate(0 0.684375)" xlink:href="#DejaVuSans-49"/>
       <use transform="translate(63.623047 0.684375)" xlink:href="#DejaVuSans-48"/>
       <use transform="translate(128.203125 38.965625)scale(0.7)" xlink:href="#DejaVuSans-8722"/>
       <use transform="translate(186.855469 38.965625)scale(0.7)" xlink:href="#DejaVuSans-49"/>
      </g>
     </g>
    </g>
    <g id="ytick_2">
     <g id="line2d_17">
      <path clip-path="url(#p058b7275e0)" d="M 57.6 55.46643 
L 414.72 55.46643 
" style="fill:none;stroke:#b0b0b0;stroke-linecap:square;stroke-width:0.8;"/>
     </g>
     <g id="line2d_18">
      <g>
       <use style="stroke:#000000;stroke-width:0.8;" x="57.6" xlink:href="#mf8a462f393" y="55.46643"/>
      </g>
     </g>
     <g id="text_10">
      <!-- $\mathdefault{10^{0}}$ -->
      <g transform="translate(33 59.265649)scale(0.1 -0.1)">
       <use transform="translate(0 0.765625)" xlink:href="#DejaVuSans-49"/>
       <use transform="translate(63.623047 0.765625)" xlink:href="#DejaVuSans-48"/>
       <use transform="translate(128.203125 39.046875)scale(0.7)" xlink:href="#DejaVuSans-48"/>
      </g>
     </g>
    </g>
    <g id="ytick_3">
     <g id="line2d_19">
      <defs>
       <path d="M 0 0 
L -2 0 
" id="m59c76d9908" style="stroke:#000000;stroke-width:0.6;"/>
      </defs>
      <g>
       <use style="stroke:#000000;stroke-width:0.6;" x="57.6" xlink:href="#m59c76d9908" y="293.79618"/>
      </g>
     </g>
    </g>
    <g id="ytick_4">
     <g id="line2d_20">
      <g>
       <use style="stroke:#000000;stroke-width:0.6;" x="57.6" xlink:href="#m59c76d9908" y="281.828752"/>
      </g>
     </g>
    </g>
    <g id="ytick_5">
     <g id="line2d_21">
      <g>
       <use style="stroke:#000000;stroke-width:0.6;" x="57.6" xlink:href="#m59c76d9908" y="271.272732"/>
      </g>
     </g>
    </g>
    <g id="ytick_6">
     <g id="line2d_22">
      <g>
       <use style="stroke:#000000;stroke-width:0.6;" x="57.6" xlink:href="#m59c76d9908" y="199.708411"/>
      </g>
     </g>
    </g>
    <g id="ytick_7">
     <g id="line2d_23">
      <g>
       <use style="stroke:#000000;stroke-width:0.6;" x="57.6" xlink:href="#m59c76d9908" y="163.369581"/>
      </g>
     </g>
    </g>
    <g id="ytick_8">
     <g id="line2d_24">
      <g>
       <use style="stroke:#000000;stroke-width:0.6;" x="57.6" xlink:href="#m59c76d9908" y="137.586771"/>
      </g>
     </g>
    </g>
    <g id="ytick_9">
     <g id="line2d_25">
      <g>
       <use style="stroke:#000000;stroke-width:0.6;" x="57.6" xlink:href="#m59c76d9908" y="117.58807"/>
      </g>
     </g>
    </g>
    <g id="ytick_10">
     <g id="line2d_26">
      <g>
       <use style="stroke:#000000;stroke-width:0.6;" x="57.6" xlink:href="#m59c76d9908" y="101.247941"/>
      </g>
     </g>
    </g>
    <g id="ytick_11">
     <g id="line2d_27">
      <g>
       <use style="stroke:#000000;stroke-width:0.6;" x="57.6" xlink:href="#m59c76d9908" y="87.432559"/>
      </g>
     </g>
    </g>
    <g id="ytick_12">
     <g id="line2d_28">
      <g>
       <use style="stroke:#000000;stroke-width:0.6;" x="57.6" xlink:href="#m59c76d9908" y="75.465131"/>
      </g>
     </g>
    </g>
    <g id="ytick_13">
     <g id="line2d_29">
      <g>
       <use style="stroke:#000000;stroke-width:0.6;" x="57.6" xlink:href="#m59c76d9908" y="64.909112"/>
      </g>
     </g>
    </g>
    <g id="text_11">
     <!-- Pixel Error -->
     <defs>
      <path d="M 19.671875 64.796875 
L 19.671875 37.40625 
L 32.078125 37.40625 
Q 38.96875 37.40625 42.71875 40.96875 
Q 46.484375 44.53125 46.484375 51.125 
Q 46.484375 57.671875 42.71875 61.234375 
Q 38.96875 64.796875 32.078125 64.796875 
z
M 9.8125 72.90625 
L 32.078125 72.90625 
Q 44.34375 72.90625 50.609375 67.359375 
Q 56.890625 61.8125 56.890625 51.125 
Q 56.890625 40.328125 50.609375 34.8125 
Q 44.34375 29.296875 32.078125 29.296875 
L 19.671875 29.296875 
L 19.671875 0 
L 9.8125 0 
z
" id="DejaVuSans-80"/>
      <path d="M 9.421875 54.6875 
L 18.40625 54.6875 
L 18.40625 0 
L 9.421875 0 
z
M 9.421875 75.984375 
L 18.40625 75.984375 
L 18.40625 64.59375 
L 9.421875 64.59375 
z
" id="DejaVuSans-105"/>
      <path d="M 54.890625 54.6875 
L 35.109375 28.078125 
L 55.90625 0 
L 45.3125 0 
L 29.390625 21.484375 
L 13.484375 0 
L 2.875 0 
L 24.125 28.609375 
L 4.6875 54.6875 
L 15.28125 54.6875 
L 29.78125 35.203125 
L 44.28125 54.6875 
z
" id="DejaVuSans-120"/>
      <path d="M 9.421875 75.984375 
L 18.40625 75.984375 
L 18.40625 0 
L 9.421875 0 
z
" id="DejaVuSans-108"/>
      <path id="DejaVuSans-32"/>
      <path d="M 9.8125 72.90625 
L 55.90625 72.90625 
L 55.90625 64.59375 
L 19.671875 64.59375 
L 19.671875 43.015625 
L 54.390625 43.015625 
L 54.390625 34.71875 
L 19.671875 34.71875 
L 19.671875 8.296875 
L 56.78125 8.296875 
L 56.78125 0 
L 9.8125 0 
z
" id="DejaVuSans-69"/>
      <path d="M 41.109375 46.296875 
Q 39.59375 47.171875 37.8125 47.578125 
Q 36.03125 48 33.890625 48 
Q 26.265625 48 22.1875 43.046875 
Q 18.109375 38.09375 18.109375 28.8125 
L 18.109375 0 
L 9.078125 0 
L 9.078125 54.6875 
L 18.109375 54.6875 
L 18.109375 46.1875 
Q 20.953125 51.171875 25.484375 53.578125 
Q 30.03125 56 36.53125 56 
Q 37.453125 56 38.578125 55.875 
Q 39.703125 55.765625 41.0625 55.515625 
z
" id="DejaVuSans-114"/>
      <path d="M 30.609375 48.390625 
Q 23.390625 48.390625 19.1875 42.75 
Q 14.984375 37.109375 14.984375 27.296875 
Q 14.984375 17.484375 19.15625 11.84375 
Q 23.34375 6.203125 30.609375 6.203125 
Q 37.796875 6.203125 41.984375 11.859375 
Q 46.1875 17.53125 46.1875 27.296875 
Q 46.1875 37.015625 41.984375 42.703125 
Q 37.796875 48.390625 30.609375 48.390625 
z
M 30.609375 56 
Q 42.328125 56 49.015625 48.375 
Q 55.71875 40.765625 55.71875 27.296875 
Q 55.71875 13.875 49.015625 6.21875 
Q 42.328125 -1.421875 30.609375 -1.421875 
Q 18.84375 -1.421875 12.171875 6.21875 
Q 5.515625 13.875 5.515625 27.296875 
Q 5.515625 40.765625 12.171875 48.375 
Q 18.84375 56 30.609375 56 
z
" id="DejaVuSans-111"/>
     </defs>
     <g transform="translate(21.020312 200.324875)rotate(-90)scale(0.1 -0.1)">
      <use xlink:href="#DejaVuSans-80"/>
      <use x="60.271484" xlink:href="#DejaVuSans-105"/>
      <use x="88.054688" xlink:href="#DejaVuSans-120"/>
      <use x="147.1875" xlink:href="#DejaVuSans-101"/>
      <use x="208.710938" xlink:href="#DejaVuSans-108"/>
      <use x="236.494141" xlink:href="#DejaVuSans-32"/>
      <use x="268.28125" xlink:href="#DejaVuSans-69"/>
      <use x="331.464844" xlink:href="#DejaVuSans-114"/>
      <use x="372.5625" xlink:href="#DejaVuSans-114"/>
      <use x="413.644531" xlink:href="#DejaVuSans-111"/>
      <use x="474.826172" xlink:href="#DejaVuSans-114"/>
     </g>
    </g>
   </g>
   <g id="line2d_30">
    <path clip-path="url(#p058b7275e0)" d="M 77.106954 127.183832 
L 83.665736 153.082005 
L 90.224518 163.044314 
L 96.7833 164.843264 
L 103.342082 177.472216 
L 109.900864 177.056468 
L 116.459646 179.577305 
L 123.018428 186.187505 
L 129.57721 183.323678 
L 136.135992 186.600131 
L 142.694774 190.401396 
L 149.253556 198.978874 
L 155.812338 202.586412 
L 162.37112 203.902409 
L 168.929902 208.501169 
L 175.488684 208.722503 
L 182.047466 210.438819 
L 188.606248 210.72795 
L 195.16503 212.574478 
L 201.723812 209.007131 
L 208.282594 213.051448 
L 214.841376 215.946433 
L 221.400158 218.18667 
L 227.95894 219.067881 
L 234.517722 219.253761 
L 241.076504 219.59095 
L 247.635286 218.473089 
L 254.194068 220.82988 
L 260.75285 221.523685 
L 267.311632 223.051064 
L 273.870414 223.355748 
L 280.429196 223.685449 
L 286.987978 224.142498 
L 293.54676 224.686779 
L 300.105542 224.775007 
L 306.664324 223.572613 
L 313.223107 221.623827 
L 319.781889 222.998174 
L 326.340671 223.968103 
L 332.899453 224.335032 
L 339.458235 227.573521 
L 346.017017 228.389722 
L 352.575799 228.821648 
L 359.134581 229.024514 
L 365.693363 228.840371 
L 372.252145 229.552902 
L 378.810927 229.921571 
L 385.369709 229.90924 
L 391.928491 229.852967 
L 398.487273 230.574002 
" style="fill:none;stroke:#aec7e8;stroke-linecap:square;stroke-width:1.5;"/>
   </g>
   <g id="line2d_31">
    <path clip-path="url(#p058b7275e0)" d="M 73.832727 113.014153 
L 84.161518 157.501126 
L 94.490308 157.632206 
L 104.819099 182.887649 
L 115.14789 176.492236 
L 125.47668 188.641219 
L 135.805471 187.736865 
L 146.134261 198.322876 
L 156.463052 204.221103 
L 166.791842 208.978429 
L 177.120633 209.358083 
L 187.449424 208.558905 
L 197.778214 212.831417 
L 208.107005 211.55162 
L 218.435795 218.082805 
L 228.764586 218.573431 
L 239.093377 216.960504 
L 249.422167 218.288447 
L 259.750958 219.631601 
L 270.079748 221.632827 
L 280.408539 222.240236 
L 290.737329 223.274767 
L 301.06612 223.823385 
L 311.394911 218.186722 
L 321.723701 220.684313 
L 332.052492 219.885115 
L 342.381282 224.206606 
L 352.710073 225.515385 
L 363.038863 225.87828 
L 373.367654 227.025458 
L 383.696445 225.415721 
L 394.025235 224.771625 
" style="fill:none;stroke:#1f77b4;stroke-linecap:square;stroke-width:1.5;"/>
   </g>
   <g id="line2d_32">
    <path clip-path="url(#p058b7275e0)" d="M 77.106954 140.155485 
L 83.665736 179.076743 
L 90.224518 194.748202 
L 96.7833 204.735079 
L 103.342082 203.350344 
L 109.900864 203.604584 
L 116.459646 205.562577 
L 123.018428 210.553155 
L 129.57721 215.282998 
L 136.135992 220.828833 
L 142.694774 224.729177 
L 149.253556 229.420876 
L 155.812338 233.844804 
L 162.37112 235.943685 
L 168.929902 240.582543 
L 175.488684 242.429938 
L 182.047466 245.379507 
L 188.606248 246.793365 
L 195.16503 250.58714 
L 201.723812 251.397827 
L 208.282594 253.830723 
L 214.841376 256.999954 
L 221.400158 259.401271 
L 227.95894 261.739966 
L 234.517722 264.189812 
L 241.076504 263.606295 
L 247.635286 266.001439 
L 254.194068 268.824305 
L 260.75285 269.001391 
L 267.311632 268.520223 
L 273.870414 269.502292 
L 280.429196 270.820428 
L 286.987978 270.088861 
L 293.54676 272.384367 
L 300.105542 272.976556 
L 306.664324 272.407615 
L 313.223107 273.119115 
L 319.781889 273.828691 
L 326.340671 274.546363 
L 332.899453 275.783333 
L 339.458235 276.769096 
L 346.017017 275.870735 
L 352.575799 276.852989 
L 359.134581 277.11921 
L 365.693363 276.763166 
L 372.252145 278.434036 
L 378.810927 277.622462 
L 385.369709 278.54308 
L 391.928491 278.119448 
L 398.487273 278.231683 
" style="fill:none;stroke:#ffbb78;stroke-linecap:square;stroke-width:1.5;"/>
   </g>
   <g id="line2d_33">
    <path clip-path="url(#p058b7275e0)" d="M 73.832727 98.343831 
L 84.161518 172.866975 
L 94.490308 195.089981 
L 104.819099 205.864309 
L 115.14789 201.067083 
L 125.47668 211.490062 
L 135.805471 217.556753 
L 146.134261 226.36547 
L 156.463052 229.892496 
L 166.791842 228.070929 
L 177.120633 238.736177 
L 187.449424 241.238421 
L 197.778214 246.960057 
L 208.107005 244.954677 
L 218.435795 253.246391 
L 228.764586 254.212797 
L 239.093377 249.926612 
L 249.422167 251.581717 
L 259.750958 264.340421 
L 270.079748 256.077488 
L 280.408539 259.5041 
L 290.737329 257.686674 
L 301.06612 263.746761 
L 311.394911 258.209881 
L 321.723701 265.453658 
L 332.052492 266.124312 
L 342.381282 264.384691 
L 352.710073 266.751039 
L 363.038863 258.753515 
L 373.367654 263.590781 
L 383.696445 262.757118 
L 394.025235 264.806687 
" style="fill:none;stroke:#ff7f0e;stroke-linecap:square;stroke-width:1.5;"/>
   </g>
   <g id="line2d_34">
    <path clip-path="url(#p058b7275e0)" d="M 77.106954 133.632611 
L 83.665736 177.242604 
L 90.224518 193.3068 
L 96.7833 193.128253 
L 103.342082 196.346742 
L 109.900864 199.024662 
L 116.459646 201.691195 
L 123.018428 206.475186 
L 129.57721 210.576829 
L 136.135992 216.655006 
L 142.694774 221.600732 
L 149.253556 226.977192 
L 155.812338 229.657776 
L 162.37112 234.041651 
L 168.929902 237.655658 
L 175.488684 240.390658 
L 182.047466 242.571458 
L 188.606248 244.107479 
L 195.16503 245.585985 
L 201.723812 248.170879 
L 208.282594 249.798986 
L 214.841376 251.654473 
L 221.400158 253.660689 
L 227.95894 255.110339 
L 234.517722 255.715774 
L 241.076504 257.601127 
L 247.635286 259.157929 
L 254.194068 259.929558 
L 260.75285 261.658639 
L 267.311632 261.31358 
L 273.870414 261.272361 
L 280.429196 263.466916 
L 286.987978 263.564526 
L 293.54676 264.665036 
L 300.105542 265.48189 
L 306.664324 265.48285 
L 313.223107 267.221622 
L 319.781889 267.90836 
L 326.340671 268.138922 
L 332.899453 268.562851 
L 339.458235 270.499858 
L 346.017017 269.11403 
L 352.575799 270.278927 
L 359.134581 270.297815 
L 365.693363 271.440835 
L 372.252145 271.753843 
L 378.810927 272.713935 
L 385.369709 272.606877 
L 391.928491 273.268105 
L 398.487273 275.080137 
" style="fill:none;stroke:#98df8a;stroke-linecap:square;stroke-width:1.5;"/>
   </g>
   <g id="line2d_35">
    <path clip-path="url(#p058b7275e0)" d="M 73.832727 127.304211 
L 84.161518 188.553421 
L 94.490308 192.023058 
L 104.819099 201.333593 
L 115.14789 204.843479 
L 125.47668 207.895375 
L 135.805471 213.242026 
L 146.134261 218.68138 
L 156.463052 227.968947 
L 166.791842 235.600214 
L 177.120633 237.937649 
L 187.449424 237.95544 
L 197.778214 238.58505 
L 208.107005 249.896248 
L 218.435795 247.155346 
L 228.764586 251.214127 
L 239.093377 247.96086 
L 249.422167 252.038997 
L 259.750958 253.409652 
L 270.079748 254.952172 
L 280.408539 254.82508 
L 290.737329 258.287559 
L 301.06612 254.627426 
L 311.394911 258.78592 
L 321.723701 258.75037 
L 332.052492 256.401424 
L 342.381282 260.894896 
L 352.710073 261.916192 
L 363.038863 260.838876 
L 373.367654 259.732854 
L 383.696445 262.224823 
L 394.025235 258.970074 
" style="fill:none;stroke:#2ca02c;stroke-linecap:square;stroke-width:1.5;"/>
   </g>
   <g id="line2d_36">
    <path clip-path="url(#p058b7275e0)" d="M 77.106954 123.696596 
L 83.665736 168.906773 
L 90.224518 180.453449 
L 96.7833 190.593493 
L 103.342082 202.682115 
L 109.900864 209.320351 
L 116.459646 208.670719 
L 123.018428 212.235846 
L 129.57721 215.987434 
L 136.135992 221.889919 
L 142.694774 226.699827 
L 149.253556 232.317638 
L 155.812338 234.929906 
L 162.37112 239.203657 
L 168.929902 241.384121 
L 175.488684 244.525614 
L 182.047466 244.066891 
L 188.606248 245.421976 
L 195.16503 247.085327 
L 201.723812 250.888577 
L 208.282594 251.252292 
L 214.841376 249.415647 
L 221.400158 251.982431 
L 227.95894 249.199558 
L 234.517722 251.712496 
L 241.076504 251.551342 
L 247.635286 251.419939 
L 254.194068 252.647136 
L 260.75285 251.774348 
L 267.311632 255.785338 
L 273.870414 253.966366 
L 280.429196 256.054675 
L 286.987978 254.899606 
L 293.54676 256.578228 
L 300.105542 255.944481 
L 306.664324 256.732118 
L 313.223107 256.262699 
L 319.781889 258.029031 
L 326.340671 260.524695 
L 332.899453 259.87083 
L 339.458235 261.791855 
L 346.017017 261.219713 
L 352.575799 261.513461 
L 359.134581 262.108142 
L 365.693363 266.514742 
L 372.252145 264.506789 
L 378.810927 263.238224 
L 385.369709 264.385369 
L 391.928491 265.78831 
L 398.487273 265.329039 
" style="fill:none;stroke:#ff9896;stroke-linecap:square;stroke-width:1.5;"/>
   </g>
   <g id="line2d_37">
    <path clip-path="url(#p058b7275e0)" d="M 73.832727 120.891018 
L 84.161518 175.257802 
L 94.490308 176.685097 
L 104.819099 212.289815 
L 115.14789 210.360479 
L 125.47668 212.977018 
L 135.805471 217.086043 
L 146.134261 231.54141 
L 156.463052 233.45121 
L 166.791842 241.858018 
L 177.120633 237.217234 
L 187.449424 245.478797 
L 197.778214 246.615958 
L 208.107005 245.813732 
L 218.435795 252.768448 
L 228.764586 240.792705 
L 239.093377 246.425735 
L 249.422167 250.131837 
L 259.750958 245.103779 
L 270.079748 253.808567 
L 280.408539 250.437668 
L 290.737329 251.077093 
L 301.06612 250.56355 
L 311.394911 250.357563 
L 321.723701 247.662608 
L 332.052492 250.061584 
L 342.381282 256.828639 
L 352.710073 254.115082 
L 363.038863 258.605304 
L 373.367654 256.549295 
L 383.696445 255.310454 
L 394.025235 260.643606 
" style="fill:none;stroke:#d62728;stroke-linecap:square;stroke-width:1.5;"/>
   </g>
   <g id="patch_3">
    <path d="M 57.6 307.584 
L 57.6 41.472 
" style="fill:none;stroke:#000000;stroke-linecap:square;stroke-linejoin:miter;stroke-width:0.8;"/>
   </g>
   <g id="patch_4">
    <path d="M 414.72 307.584 
L 414.72 41.472 
" style="fill:none;stroke:#000000;stroke-linecap:square;stroke-linejoin:miter;stroke-width:0.8;"/>
   </g>
   <g id="patch_5">
    <path d="M 57.6 307.584 
L 414.72 307.584 
" style="fill:none;stroke:#000000;stroke-linecap:square;stroke-linejoin:miter;stroke-width:0.8;"/>
   </g>
   <g id="patch_6">
    <path d="M 57.6 41.472 
L 414.72 41.472 
" style="fill:none;stroke:#000000;stroke-linecap:square;stroke-linejoin:miter;stroke-width:0.8;"/>
   </g>
   <g id="text_12">
    <!-- Pixel Error -->
    <g transform="translate(205.20375 35.472)scale(0.12 -0.12)">
     <use xlink:href="#DejaVuSans-80"/>
     <use x="60.271484" xlink:href="#DejaVuSans-105"/>
     <use x="88.054688" xlink:href="#DejaVuSans-120"/>
     <use x="147.1875" xlink:href="#DejaVuSans-101"/>
     <use x="208.710938" xlink:href="#DejaVuSans-108"/>
     <use x="236.494141" xlink:href="#DejaVuSans-32"/>
     <use x="268.28125" xlink:href="#DejaVuSans-69"/>
     <use x="331.464844" xlink:href="#DejaVuSans-114"/>
     <use x="372.5625" xlink:href="#DejaVuSans-114"/>
     <use x="413.644531" xlink:href="#DejaVuSans-111"/>
     <use x="474.826172" xlink:href="#DejaVuSans-114"/>
    </g>
   </g>
   <g id="legend_1">
    <g id="patch_7">
     <path d="M 217.4075 166.897 
L 407.72 166.897 
Q 409.72 166.897 409.72 164.897 
L 409.72 48.472 
Q 409.72 46.472 407.72 46.472 
L 217.4075 46.472 
Q 215.4075 46.472 215.4075 48.472 
L 215.4075 164.897 
Q 215.4075 166.897 217.4075 166.897 
z
" style="fill:#ffffff;opacity:0.8;stroke:#cccccc;stroke-linejoin:miter;"/>
    </g>
    <g id="line2d_38">
     <path d="M 219.4075 54.570438 
L 239.4075 54.570438 
" style="fill:none;stroke:#aec7e8;stroke-linecap:square;stroke-width:1.5;"/>
    </g>
    <g id="line2d_39"/>
    <g id="text_13">
     <!-- Single Point - Train -->
     <defs>
      <path d="M 54.890625 33.015625 
L 54.890625 0 
L 45.90625 0 
L 45.90625 32.71875 
Q 45.90625 40.484375 42.875 44.328125 
Q 39.84375 48.1875 33.796875 48.1875 
Q 26.515625 48.1875 22.3125 43.546875 
Q 18.109375 38.921875 18.109375 30.90625 
L 18.109375 0 
L 9.078125 0 
L 9.078125 54.6875 
L 18.109375 54.6875 
L 18.109375 46.1875 
Q 21.34375 51.125 25.703125 53.5625 
Q 30.078125 56 35.796875 56 
Q 45.21875 56 50.046875 50.171875 
Q 54.890625 44.34375 54.890625 33.015625 
z
" id="DejaVuSans-110"/>
      <path d="M 45.40625 27.984375 
Q 45.40625 37.75 41.375 43.109375 
Q 37.359375 48.484375 30.078125 48.484375 
Q 22.859375 48.484375 18.828125 43.109375 
Q 14.796875 37.75 14.796875 27.984375 
Q 14.796875 18.265625 18.828125 12.890625 
Q 22.859375 7.515625 30.078125 7.515625 
Q 37.359375 7.515625 41.375 12.890625 
Q 45.40625 18.265625 45.40625 27.984375 
z
M 54.390625 6.78125 
Q 54.390625 -7.171875 48.1875 -13.984375 
Q 42 -20.796875 29.203125 -20.796875 
Q 24.46875 -20.796875 20.265625 -20.09375 
Q 16.0625 -19.390625 12.109375 -17.921875 
L 12.109375 -9.1875 
Q 16.0625 -11.328125 19.921875 -12.34375 
Q 23.78125 -13.375 27.78125 -13.375 
Q 36.625 -13.375 41.015625 -8.765625 
Q 45.40625 -4.15625 45.40625 5.171875 
L 45.40625 9.625 
Q 42.625 4.78125 38.28125 2.390625 
Q 33.9375 0 27.875 0 
Q 17.828125 0 11.671875 7.65625 
Q 5.515625 15.328125 5.515625 27.984375 
Q 5.515625 40.671875 11.671875 48.328125 
Q 17.828125 56 27.875 56 
Q 33.9375 56 38.28125 53.609375 
Q 42.625 51.21875 45.40625 46.390625 
L 45.40625 54.6875 
L 54.390625 54.6875 
z
" id="DejaVuSans-103"/>
      <path d="M 4.890625 31.390625 
L 31.203125 31.390625 
L 31.203125 23.390625 
L 4.890625 23.390625 
z
" id="DejaVuSans-45"/>
      <path d="M -0.296875 72.90625 
L 61.375 72.90625 
L 61.375 64.59375 
L 35.5 64.59375 
L 35.5 0 
L 25.59375 0 
L 25.59375 64.59375 
L -0.296875 64.59375 
z
" id="DejaVuSans-84"/>
      <path d="M 34.28125 27.484375 
Q 23.390625 27.484375 19.1875 25 
Q 14.984375 22.515625 14.984375 16.5 
Q 14.984375 11.71875 18.140625 8.90625 
Q 21.296875 6.109375 26.703125 6.109375 
Q 34.1875 6.109375 38.703125 11.40625 
Q 43.21875 16.703125 43.21875 25.484375 
L 43.21875 27.484375 
z
M 52.203125 31.203125 
L 52.203125 0 
L 43.21875 0 
L 43.21875 8.296875 
Q 40.140625 3.328125 35.546875 0.953125 
Q 30.953125 -1.421875 24.3125 -1.421875 
Q 15.921875 -1.421875 10.953125 3.296875 
Q 6 8.015625 6 15.921875 
Q 6 25.140625 12.171875 29.828125 
Q 18.359375 34.515625 30.609375 34.515625 
L 43.21875 34.515625 
L 43.21875 35.40625 
Q 43.21875 41.609375 39.140625 45 
Q 35.0625 48.390625 27.6875 48.390625 
Q 23 48.390625 18.546875 47.265625 
Q 14.109375 46.140625 10.015625 43.890625 
L 10.015625 52.203125 
Q 14.9375 54.109375 19.578125 55.046875 
Q 24.21875 56 28.609375 56 
Q 40.484375 56 46.34375 49.84375 
Q 52.203125 43.703125 52.203125 31.203125 
z
" id="DejaVuSans-97"/>
     </defs>
     <g transform="translate(247.4075 58.070438)scale(0.1 -0.1)">
      <use xlink:href="#DejaVuSans-83"/>
      <use x="63.476562" xlink:href="#DejaVuSans-105"/>
      <use x="91.259766" xlink:href="#DejaVuSans-110"/>
      <use x="154.638672" xlink:href="#DejaVuSans-103"/>
      <use x="218.115234" xlink:href="#DejaVuSans-108"/>
      <use x="245.898438" xlink:href="#DejaVuSans-101"/>
      <use x="307.421875" xlink:href="#DejaVuSans-32"/>
      <use x="339.208984" xlink:href="#DejaVuSans-80"/>
      <use x="399.464844" xlink:href="#DejaVuSans-111"/>
      <use x="460.646484" xlink:href="#DejaVuSans-105"/>
      <use x="488.429688" xlink:href="#DejaVuSans-110"/>
      <use x="551.808594" xlink:href="#DejaVuSans-116"/>
      <use x="591.017578" xlink:href="#DejaVuSans-32"/>
      <use x="622.804688" xlink:href="#DejaVuSans-45"/>
      <use x="658.888672" xlink:href="#DejaVuSans-32"/>
      <use x="690.675781" xlink:href="#DejaVuSans-84"/>
      <use x="751.541016" xlink:href="#DejaVuSans-114"/>
      <use x="792.654297" xlink:href="#DejaVuSans-97"/>
      <use x="853.933594" xlink:href="#DejaVuSans-105"/>
      <use x="881.716797" xlink:href="#DejaVuSans-110"/>
     </g>
    </g>
    <g id="line2d_40">
     <path d="M 219.4075 69.248563 
L 239.4075 69.248563 
" style="fill:none;stroke:#1f77b4;stroke-linecap:square;stroke-width:1.5;"/>
    </g>
    <g id="line2d_41"/>
    <g id="text_14">
     <!-- Single Point - Test -->
     <g transform="translate(247.4075 72.748563)scale(0.1 -0.1)">
      <use xlink:href="#DejaVuSans-83"/>
      <use x="63.476562" xlink:href="#DejaVuSans-105"/>
      <use x="91.259766" xlink:href="#DejaVuSans-110"/>
      <use x="154.638672" xlink:href="#DejaVuSans-103"/>
      <use x="218.115234" xlink:href="#DejaVuSans-108"/>
      <use x="245.898438" xlink:href="#DejaVuSans-101"/>
      <use x="307.421875" xlink:href="#DejaVuSans-32"/>
      <use x="339.208984" xlink:href="#DejaVuSans-80"/>
      <use x="399.464844" xlink:href="#DejaVuSans-111"/>
      <use x="460.646484" xlink:href="#DejaVuSans-105"/>
      <use x="488.429688" xlink:href="#DejaVuSans-110"/>
      <use x="551.808594" xlink:href="#DejaVuSans-116"/>
      <use x="591.017578" xlink:href="#DejaVuSans-32"/>
      <use x="622.804688" xlink:href="#DejaVuSans-45"/>
      <use x="658.888672" xlink:href="#DejaVuSans-32"/>
      <use x="690.675781" xlink:href="#DejaVuSans-84"/>
      <use x="751.494141" xlink:href="#DejaVuSans-101"/>
      <use x="813.017578" xlink:href="#DejaVuSans-115"/>
      <use x="865.117188" xlink:href="#DejaVuSans-116"/>
     </g>
    </g>
    <g id="line2d_42">
     <path d="M 219.4075 83.926688 
L 239.4075 83.926688 
" style="fill:none;stroke:#ffbb78;stroke-linecap:square;stroke-width:1.5;"/>
    </g>
    <g id="line2d_43"/>
    <g id="text_15">
     <!-- Batch: Momentum = 0.0 - Train -->
     <defs>
      <path d="M 19.671875 34.8125 
L 19.671875 8.109375 
L 35.5 8.109375 
Q 43.453125 8.109375 47.28125 11.40625 
Q 51.125 14.703125 51.125 21.484375 
Q 51.125 28.328125 47.28125 31.5625 
Q 43.453125 34.8125 35.5 34.8125 
z
M 19.671875 64.796875 
L 19.671875 42.828125 
L 34.28125 42.828125 
Q 41.5 42.828125 45.03125 45.53125 
Q 48.578125 48.25 48.578125 53.8125 
Q 48.578125 59.328125 45.03125 62.0625 
Q 41.5 64.796875 34.28125 64.796875 
z
M 9.8125 72.90625 
L 35.015625 72.90625 
Q 46.296875 72.90625 52.390625 68.21875 
Q 58.5 63.53125 58.5 54.890625 
Q 58.5 48.1875 55.375 44.234375 
Q 52.25 40.28125 46.1875 39.3125 
Q 53.46875 37.75 57.5 32.78125 
Q 61.53125 27.828125 61.53125 20.40625 
Q 61.53125 10.640625 54.890625 5.3125 
Q 48.25 0 35.984375 0 
L 9.8125 0 
z
" id="DejaVuSans-66"/>
      <path d="M 48.78125 52.59375 
L 48.78125 44.1875 
Q 44.96875 46.296875 41.140625 47.34375 
Q 37.3125 48.390625 33.40625 48.390625 
Q 24.65625 48.390625 19.8125 42.84375 
Q 14.984375 37.3125 14.984375 27.296875 
Q 14.984375 17.28125 19.8125 11.734375 
Q 24.65625 6.203125 33.40625 6.203125 
Q 37.3125 6.203125 41.140625 7.25 
Q 44.96875 8.296875 48.78125 10.40625 
L 48.78125 2.09375 
Q 45.015625 0.34375 40.984375 -0.53125 
Q 36.96875 -1.421875 32.421875 -1.421875 
Q 20.0625 -1.421875 12.78125 6.34375 
Q 5.515625 14.109375 5.515625 27.296875 
Q 5.515625 40.671875 12.859375 48.328125 
Q 20.21875 56 33.015625 56 
Q 37.15625 56 41.109375 55.140625 
Q 45.0625 54.296875 48.78125 52.59375 
z
" id="DejaVuSans-99"/>
      <path d="M 54.890625 33.015625 
L 54.890625 0 
L 45.90625 0 
L 45.90625 32.71875 
Q 45.90625 40.484375 42.875 44.328125 
Q 39.84375 48.1875 33.796875 48.1875 
Q 26.515625 48.1875 22.3125 43.546875 
Q 18.109375 38.921875 18.109375 30.90625 
L 18.109375 0 
L 9.078125 0 
L 9.078125 75.984375 
L 18.109375 75.984375 
L 18.109375 46.1875 
Q 21.34375 51.125 25.703125 53.5625 
Q 30.078125 56 35.796875 56 
Q 45.21875 56 50.046875 50.171875 
Q 54.890625 44.34375 54.890625 33.015625 
z
" id="DejaVuSans-104"/>
      <path d="M 11.71875 12.40625 
L 22.015625 12.40625 
L 22.015625 0 
L 11.71875 0 
z
M 11.71875 51.703125 
L 22.015625 51.703125 
L 22.015625 39.3125 
L 11.71875 39.3125 
z
" id="DejaVuSans-58"/>
      <path d="M 9.8125 72.90625 
L 24.515625 72.90625 
L 43.109375 23.296875 
L 61.8125 72.90625 
L 76.515625 72.90625 
L 76.515625 0 
L 66.890625 0 
L 66.890625 64.015625 
L 48.09375 14.015625 
L 38.1875 14.015625 
L 19.390625 64.015625 
L 19.390625 0 
L 9.8125 0 
z
" id="DejaVuSans-77"/>
      <path d="M 52 44.1875 
Q 55.375 50.25 60.0625 53.125 
Q 64.75 56 71.09375 56 
Q 79.640625 56 84.28125 50.015625 
Q 88.921875 44.046875 88.921875 33.015625 
L 88.921875 0 
L 79.890625 0 
L 79.890625 32.71875 
Q 79.890625 40.578125 77.09375 44.375 
Q 74.3125 48.1875 68.609375 48.1875 
Q 61.625 48.1875 57.5625 43.546875 
Q 53.515625 38.921875 53.515625 30.90625 
L 53.515625 0 
L 44.484375 0 
L 44.484375 32.71875 
Q 44.484375 40.625 41.703125 44.40625 
Q 38.921875 48.1875 33.109375 48.1875 
Q 26.21875 48.1875 22.15625 43.53125 
Q 18.109375 38.875 18.109375 30.90625 
L 18.109375 0 
L 9.078125 0 
L 9.078125 54.6875 
L 18.109375 54.6875 
L 18.109375 46.1875 
Q 21.1875 51.21875 25.484375 53.609375 
Q 29.78125 56 35.6875 56 
Q 41.65625 56 45.828125 52.96875 
Q 50 49.953125 52 44.1875 
z
" id="DejaVuSans-109"/>
      <path d="M 8.5 21.578125 
L 8.5 54.6875 
L 17.484375 54.6875 
L 17.484375 21.921875 
Q 17.484375 14.15625 20.5 10.265625 
Q 23.53125 6.390625 29.59375 6.390625 
Q 36.859375 6.390625 41.078125 11.03125 
Q 45.3125 15.671875 45.3125 23.6875 
L 45.3125 54.6875 
L 54.296875 54.6875 
L 54.296875 0 
L 45.3125 0 
L 45.3125 8.40625 
Q 42.046875 3.421875 37.71875 1 
Q 33.40625 -1.421875 27.6875 -1.421875 
Q 18.265625 -1.421875 13.375 4.4375 
Q 8.5 10.296875 8.5 21.578125 
z
M 31.109375 56 
z
" id="DejaVuSans-117"/>
      <path d="M 10.59375 45.40625 
L 73.1875 45.40625 
L 73.1875 37.203125 
L 10.59375 37.203125 
z
M 10.59375 25.484375 
L 73.1875 25.484375 
L 73.1875 17.1875 
L 10.59375 17.1875 
z
" id="DejaVuSans-61"/>
      <path d="M 10.6875 12.40625 
L 21 12.40625 
L 21 0 
L 10.6875 0 
z
" id="DejaVuSans-46"/>
     </defs>
     <g transform="translate(247.4075 87.426688)scale(0.1 -0.1)">
      <use xlink:href="#DejaVuSans-66"/>
      <use x="68.603516" xlink:href="#DejaVuSans-97"/>
      <use x="129.882812" xlink:href="#DejaVuSans-116"/>
      <use x="169.091797" xlink:href="#DejaVuSans-99"/>
      <use x="224.072266" xlink:href="#DejaVuSans-104"/>
      <use x="287.451172" xlink:href="#DejaVuSans-58"/>
      <use x="321.142578" xlink:href="#DejaVuSans-32"/>
      <use x="352.929688" xlink:href="#DejaVuSans-77"/>
      <use x="439.208984" xlink:href="#DejaVuSans-111"/>
      <use x="500.390625" xlink:href="#DejaVuSans-109"/>
      <use x="597.802734" xlink:href="#DejaVuSans-101"/>
      <use x="659.326172" xlink:href="#DejaVuSans-110"/>
      <use x="722.705078" xlink:href="#DejaVuSans-116"/>
      <use x="761.914062" xlink:href="#DejaVuSans-117"/>
      <use x="825.292969" xlink:href="#DejaVuSans-109"/>
      <use x="922.705078" xlink:href="#DejaVuSans-32"/>
      <use x="954.492188" xlink:href="#DejaVuSans-61"/>
      <use x="1038.28125" xlink:href="#DejaVuSans-32"/>
      <use x="1070.068359" xlink:href="#DejaVuSans-48"/>
      <use x="1133.691406" xlink:href="#DejaVuSans-46"/>
      <use x="1165.478516" xlink:href="#DejaVuSans-48"/>
      <use x="1229.101562" xlink:href="#DejaVuSans-32"/>
      <use x="1260.888672" xlink:href="#DejaVuSans-45"/>
      <use x="1296.972656" xlink:href="#DejaVuSans-32"/>
      <use x="1328.759766" xlink:href="#DejaVuSans-84"/>
      <use x="1389.625" xlink:href="#DejaVuSans-114"/>
      <use x="1430.738281" xlink:href="#DejaVuSans-97"/>
      <use x="1492.017578" xlink:href="#DejaVuSans-105"/>
      <use x="1519.800781" xlink:href="#DejaVuSans-110"/>
     </g>
    </g>
    <g id="line2d_44">
     <path d="M 219.4075 98.604813 
L 239.4075 98.604813 
" style="fill:none;stroke:#ff7f0e;stroke-linecap:square;stroke-width:1.5;"/>
    </g>
    <g id="line2d_45"/>
    <g id="text_16">
     <!-- Batch: Momentum = 0.0 - Test -->
     <g transform="translate(247.4075 102.104813)scale(0.1 -0.1)">
      <use xlink:href="#DejaVuSans-66"/>
      <use x="68.603516" xlink:href="#DejaVuSans-97"/>
      <use x="129.882812" xlink:href="#DejaVuSans-116"/>
      <use x="169.091797" xlink:href="#DejaVuSans-99"/>
      <use x="224.072266" xlink:href="#DejaVuSans-104"/>
      <use x="287.451172" xlink:href="#DejaVuSans-58"/>
      <use x="321.142578" xlink:href="#DejaVuSans-32"/>
      <use x="352.929688" xlink:href="#DejaVuSans-77"/>
      <use x="439.208984" xlink:href="#DejaVuSans-111"/>
      <use x="500.390625" xlink:href="#DejaVuSans-109"/>
      <use x="597.802734" xlink:href="#DejaVuSans-101"/>
      <use x="659.326172" xlink:href="#DejaVuSans-110"/>
      <use x="722.705078" xlink:href="#DejaVuSans-116"/>
      <use x="761.914062" xlink:href="#DejaVuSans-117"/>
      <use x="825.292969" xlink:href="#DejaVuSans-109"/>
      <use x="922.705078" xlink:href="#DejaVuSans-32"/>
      <use x="954.492188" xlink:href="#DejaVuSans-61"/>
      <use x="1038.28125" xlink:href="#DejaVuSans-32"/>
      <use x="1070.068359" xlink:href="#DejaVuSans-48"/>
      <use x="1133.691406" xlink:href="#DejaVuSans-46"/>
      <use x="1165.478516" xlink:href="#DejaVuSans-48"/>
      <use x="1229.101562" xlink:href="#DejaVuSans-32"/>
      <use x="1260.888672" xlink:href="#DejaVuSans-45"/>
      <use x="1296.972656" xlink:href="#DejaVuSans-32"/>
      <use x="1328.759766" xlink:href="#DejaVuSans-84"/>
      <use x="1389.578125" xlink:href="#DejaVuSans-101"/>
      <use x="1451.101562" xlink:href="#DejaVuSans-115"/>
      <use x="1503.201172" xlink:href="#DejaVuSans-116"/>
     </g>
    </g>
    <g id="line2d_46">
     <path d="M 219.4075 113.282938 
L 239.4075 113.282938 
" style="fill:none;stroke:#98df8a;stroke-linecap:square;stroke-width:1.5;"/>
    </g>
    <g id="line2d_47"/>
    <g id="text_17">
     <!-- Batch: Momentum = 0.1 - Train -->
     <g transform="translate(247.4075 116.782938)scale(0.1 -0.1)">
      <use xlink:href="#DejaVuSans-66"/>
      <use x="68.603516" xlink:href="#DejaVuSans-97"/>
      <use x="129.882812" xlink:href="#DejaVuSans-116"/>
      <use x="169.091797" xlink:href="#DejaVuSans-99"/>
      <use x="224.072266" xlink:href="#DejaVuSans-104"/>
      <use x="287.451172" xlink:href="#DejaVuSans-58"/>
      <use x="321.142578" xlink:href="#DejaVuSans-32"/>
      <use x="352.929688" xlink:href="#DejaVuSans-77"/>
      <use x="439.208984" xlink:href="#DejaVuSans-111"/>
      <use x="500.390625" xlink:href="#DejaVuSans-109"/>
      <use x="597.802734" xlink:href="#DejaVuSans-101"/>
      <use x="659.326172" xlink:href="#DejaVuSans-110"/>
      <use x="722.705078" xlink:href="#DejaVuSans-116"/>
      <use x="761.914062" xlink:href="#DejaVuSans-117"/>
      <use x="825.292969" xlink:href="#DejaVuSans-109"/>
      <use x="922.705078" xlink:href="#DejaVuSans-32"/>
      <use x="954.492188" xlink:href="#DejaVuSans-61"/>
      <use x="1038.28125" xlink:href="#DejaVuSans-32"/>
      <use x="1070.068359" xlink:href="#DejaVuSans-48"/>
      <use x="1133.691406" xlink:href="#DejaVuSans-46"/>
      <use x="1165.478516" xlink:href="#DejaVuSans-49"/>
      <use x="1229.101562" xlink:href="#DejaVuSans-32"/>
      <use x="1260.888672" xlink:href="#DejaVuSans-45"/>
      <use x="1296.972656" xlink:href="#DejaVuSans-32"/>
      <use x="1328.759766" xlink:href="#DejaVuSans-84"/>
      <use x="1389.625" xlink:href="#DejaVuSans-114"/>
      <use x="1430.738281" xlink:href="#DejaVuSans-97"/>
      <use x="1492.017578" xlink:href="#DejaVuSans-105"/>
      <use x="1519.800781" xlink:href="#DejaVuSans-110"/>
     </g>
    </g>
    <g id="line2d_48">
     <path d="M 219.4075 127.961063 
L 239.4075 127.961063 
" style="fill:none;stroke:#2ca02c;stroke-linecap:square;stroke-width:1.5;"/>
    </g>
    <g id="line2d_49"/>
    <g id="text_18">
     <!-- Batch: Momentum = 0.1 - Test -->
     <g transform="translate(247.4075 131.461063)scale(0.1 -0.1)">
      <use xlink:href="#DejaVuSans-66"/>
      <use x="68.603516" xlink:href="#DejaVuSans-97"/>
      <use x="129.882812" xlink:href="#DejaVuSans-116"/>
      <use x="169.091797" xlink:href="#DejaVuSans-99"/>
      <use x="224.072266" xlink:href="#DejaVuSans-104"/>
      <use x="287.451172" xlink:href="#DejaVuSans-58"/>
      <use x="321.142578" xlink:href="#DejaVuSans-32"/>
      <use x="352.929688" xlink:href="#DejaVuSans-77"/>
      <use x="439.208984" xlink:href="#DejaVuSans-111"/>
      <use x="500.390625" xlink:href="#DejaVuSans-109"/>
      <use x="597.802734" xlink:href="#DejaVuSans-101"/>
      <use x="659.326172" xlink:href="#DejaVuSans-110"/>
      <use x="722.705078" xlink:href="#DejaVuSans-116"/>
      <use x="761.914062" xlink:href="#DejaVuSans-117"/>
      <use x="825.292969" xlink:href="#DejaVuSans-109"/>
      <use x="922.705078" xlink:href="#DejaVuSans-32"/>
      <use x="954.492188" xlink:href="#DejaVuSans-61"/>
      <use x="1038.28125" xlink:href="#DejaVuSans-32"/>
      <use x="1070.068359" xlink:href="#DejaVuSans-48"/>
      <use x="1133.691406" xlink:href="#DejaVuSans-46"/>
      <use x="1165.478516" xlink:href="#DejaVuSans-49"/>
      <use x="1229.101562" xlink:href="#DejaVuSans-32"/>
      <use x="1260.888672" xlink:href="#DejaVuSans-45"/>
      <use x="1296.972656" xlink:href="#DejaVuSans-32"/>
      <use x="1328.759766" xlink:href="#DejaVuSans-84"/>
      <use x="1389.578125" xlink:href="#DejaVuSans-101"/>
      <use x="1451.101562" xlink:href="#DejaVuSans-115"/>
      <use x="1503.201172" xlink:href="#DejaVuSans-116"/>
     </g>
    </g>
    <g id="line2d_50">
     <path d="M 219.4075 142.639188 
L 239.4075 142.639188 
" style="fill:none;stroke:#ff9896;stroke-linecap:square;stroke-width:1.5;"/>
    </g>
    <g id="line2d_51"/>
    <g id="text_19">
     <!-- Batch: Momentum = 0.9 - Train -->
     <defs>
      <path d="M 10.984375 1.515625 
L 10.984375 10.5 
Q 14.703125 8.734375 18.5 7.8125 
Q 22.3125 6.890625 25.984375 6.890625 
Q 35.75 6.890625 40.890625 13.453125 
Q 46.046875 20.015625 46.78125 33.40625 
Q 43.953125 29.203125 39.59375 26.953125 
Q 35.25 24.703125 29.984375 24.703125 
Q 19.046875 24.703125 12.671875 31.3125 
Q 6.296875 37.9375 6.296875 49.421875 
Q 6.296875 60.640625 12.9375 67.421875 
Q 19.578125 74.21875 30.609375 74.21875 
Q 43.265625 74.21875 49.921875 64.515625 
Q 56.59375 54.828125 56.59375 36.375 
Q 56.59375 19.140625 48.40625 8.859375 
Q 40.234375 -1.421875 26.421875 -1.421875 
Q 22.703125 -1.421875 18.890625 -0.6875 
Q 15.09375 0.046875 10.984375 1.515625 
z
M 30.609375 32.421875 
Q 37.25 32.421875 41.125 36.953125 
Q 45.015625 41.5 45.015625 49.421875 
Q 45.015625 57.28125 41.125 61.84375 
Q 37.25 66.40625 30.609375 66.40625 
Q 23.96875 66.40625 20.09375 61.84375 
Q 16.21875 57.28125 16.21875 49.421875 
Q 16.21875 41.5 20.09375 36.953125 
Q 23.96875 32.421875 30.609375 32.421875 
z
" id="DejaVuSans-57"/>
     </defs>
     <g transform="translate(247.4075 146.139188)scale(0.1 -0.1)">
      <use xlink:href="#DejaVuSans-66"/>
      <use x="68.603516" xlink:href="#DejaVuSans-97"/>
      <use x="129.882812" xlink:href="#DejaVuSans-116"/>
      <use x="169.091797" xlink:href="#DejaVuSans-99"/>
      <use x="224.072266" xlink:href="#DejaVuSans-104"/>
      <use x="287.451172" xlink:href="#DejaVuSans-58"/>
      <use x="321.142578" xlink:href="#DejaVuSans-32"/>
      <use x="352.929688" xlink:href="#DejaVuSans-77"/>
      <use x="439.208984" xlink:href="#DejaVuSans-111"/>
      <use x="500.390625" xlink:href="#DejaVuSans-109"/>
      <use x="597.802734" xlink:href="#DejaVuSans-101"/>
      <use x="659.326172" xlink:href="#DejaVuSans-110"/>
      <use x="722.705078" xlink:href="#DejaVuSans-116"/>
      <use x="761.914062" xlink:href="#DejaVuSans-117"/>
      <use x="825.292969" xlink:href="#DejaVuSans-109"/>
      <use x="922.705078" xlink:href="#DejaVuSans-32"/>
      <use x="954.492188" xlink:href="#DejaVuSans-61"/>
      <use x="1038.28125" xlink:href="#DejaVuSans-32"/>
      <use x="1070.068359" xlink:href="#DejaVuSans-48"/>
      <use x="1133.691406" xlink:href="#DejaVuSans-46"/>
      <use x="1165.478516" xlink:href="#DejaVuSans-57"/>
      <use x="1229.101562" xlink:href="#DejaVuSans-32"/>
      <use x="1260.888672" xlink:href="#DejaVuSans-45"/>
      <use x="1296.972656" xlink:href="#DejaVuSans-32"/>
      <use x="1328.759766" xlink:href="#DejaVuSans-84"/>
      <use x="1389.625" xlink:href="#DejaVuSans-114"/>
      <use x="1430.738281" xlink:href="#DejaVuSans-97"/>
      <use x="1492.017578" xlink:href="#DejaVuSans-105"/>
      <use x="1519.800781" xlink:href="#DejaVuSans-110"/>
     </g>
    </g>
    <g id="line2d_52">
     <path d="M 219.4075 157.317313 
L 239.4075 157.317313 
" style="fill:none;stroke:#d62728;stroke-linecap:square;stroke-width:1.5;"/>
    </g>
    <g id="line2d_53"/>
    <g id="text_20">
     <!-- Batch: Momentum = 0.9 - Test -->
     <g transform="translate(247.4075 160.817313)scale(0.1 -0.1)">
      <use xlink:href="#DejaVuSans-66"/>
      <use x="68.603516" xlink:href="#DejaVuSans-97"/>
      <use x="129.882812" xlink:href="#DejaVuSans-116"/>
      <use x="169.091797" xlink:href="#DejaVuSans-99"/>
      <use x="224.072266" xlink:href="#DejaVuSans-104"/>
      <use x="287.451172" xlink:href="#DejaVuSans-58"/>
      <use x="321.142578" xlink:href="#DejaVuSans-32"/>
      <use x="352.929688" xlink:href="#DejaVuSans-77"/>
      <use x="439.208984" xlink:href="#DejaVuSans-111"/>
      <use x="500.390625" xlink:href="#DejaVuSans-109"/>
      <use x="597.802734" xlink:href="#DejaVuSans-101"/>
      <use x="659.326172" xlink:href="#DejaVuSans-110"/>
      <use x="722.705078" xlink:href="#DejaVuSans-116"/>
      <use x="761.914062" xlink:href="#DejaVuSans-117"/>
      <use x="825.292969" xlink:href="#DejaVuSans-109"/>
      <use x="922.705078" xlink:href="#DejaVuSans-32"/>
      <use x="954.492188" xlink:href="#DejaVuSans-61"/>
      <use x="1038.28125" xlink:href="#DejaVuSans-32"/>
      <use x="1070.068359" xlink:href="#DejaVuSans-48"/>
      <use x="1133.691406" xlink:href="#DejaVuSans-46"/>
      <use x="1165.478516" xlink:href="#DejaVuSans-57"/>
      <use x="1229.101562" xlink:href="#DejaVuSans-32"/>
      <use x="1260.888672" xlink:href="#DejaVuSans-45"/>
      <use x="1296.972656" xlink:href="#DejaVuSans-32"/>
      <use x="1328.759766" xlink:href="#DejaVuSans-84"/>
      <use x="1389.578125" xlink:href="#DejaVuSans-101"/>
      <use x="1451.101562" xlink:href="#DejaVuSans-115"/>
      <use x="1503.201172" xlink:href="#DejaVuSans-116"/>
     </g>
    </g>
   </g>
  </g>
 </g>
 <defs>
  <clipPath id="p058b7275e0">
   <rect height="266.112" width="357.12" x="57.6" y="41.472"/>
  </clipPath>
 </defs>
</svg>
