<?xml version="1.0" encoding="utf-8" standalone="no"?>
<!DOCTYPE svg PUBLIC "-//W3C//DTD SVG 1.1//EN"
  "http://www.w3.org/Graphics/SVG/1.1/DTD/svg11.dtd">
<!-- Created with matplotlib (https://matplotlib.org/) -->
<svg height="345.6pt" version="1.1" viewBox="0 0 460.8 345.6" width="460.8pt" xmlns="http://www.w3.org/2000/svg" xmlns:xlink="http://www.w3.org/1999/xlink">
 <defs>
  <style type="text/css">
*{stroke-linecap:butt;stroke-linejoin:round;}
  </style>
 </defs>
 <g id="figure_1">
  <g id="patch_1">
   <path d="M 0 345.6 
L 460.8 345.6 
L 460.8 0 
L 0 0 
z
" style="fill:#ffffff;"/>
  </g>
  <g id="axes_1">
   <g id="patch_2">
    <path d="M 57.6 307.584 
L 414.72 307.584 
L 414.72 41.472 
L 57.6 41.472 
z
" style="fill:#ffffff;"/>
   </g>
   <g id="matplotlib.axis_1">
    <g id="xtick_1">
     <g id="line2d_1">
      <path clip-path="url(#p449e957c29)" d="M 72.546931 307.584 
L 72.546931 41.472 
" style="fill:none;stroke:#b0b0b0;stroke-linecap:square;stroke-width:0.8;"/>
     </g>
     <g id="line2d_2">
      <defs>
       <path d="M 0 0 
L 0 3.5 
" id="maa0ac61061" style="stroke:#000000;stroke-width:0.8;"/>
      </defs>
      <g>
       <use style="stroke:#000000;stroke-width:0.8;" x="72.546931" xlink:href="#maa0ac61061" y="307.584"/>
      </g>
     </g>
     <g id="text_1">
      <!-- 0 -->
      <defs>
       <path d="M 31.78125 66.40625 
Q 24.171875 66.40625 20.328125 58.90625 
Q 16.5 51.421875 16.5 36.375 
Q 16.5 21.390625 20.328125 13.890625 
Q 24.171875 6.390625 31.78125 6.390625 
Q 39.453125 6.390625 43.28125 13.890625 
Q 47.125 21.390625 47.125 36.375 
Q 47.125 51.421875 43.28125 58.90625 
Q 39.453125 66.40625 31.78125 66.40625 
z
M 31.78125 74.21875 
Q 44.046875 74.21875 50.515625 64.515625 
Q 56.984375 54.828125 56.984375 36.375 
Q 56.984375 17.96875 50.515625 8.265625 
Q 44.046875 -1.421875 31.78125 -1.421875 
Q 19.53125 -1.421875 13.0625 8.265625 
Q 6.59375 17.96875 6.59375 36.375 
Q 6.59375 54.828125 13.0625 64.515625 
Q 19.53125 74.21875 31.78125 74.21875 
z
" id="DejaVuSans-48"/>
      </defs>
      <g transform="translate(69.365681 322.182437)scale(0.1 -0.1)">
       <use xlink:href="#DejaVuSans-48"/>
      </g>
     </g>
    </g>
    <g id="xtick_2">
     <g id="line2d_3">
      <path clip-path="url(#p449e957c29)" d="M 123.876119 307.584 
L 123.876119 41.472 
" style="fill:none;stroke:#b0b0b0;stroke-linecap:square;stroke-width:0.8;"/>
     </g>
     <g id="line2d_4">
      <g>
       <use style="stroke:#000000;stroke-width:0.8;" x="123.876119" xlink:href="#maa0ac61061" y="307.584"/>
      </g>
     </g>
     <g id="text_2">
      <!-- 10000 -->
      <defs>
       <path d="M 12.40625 8.296875 
L 28.515625 8.296875 
L 28.515625 63.921875 
L 10.984375 60.40625 
L 10.984375 69.390625 
L 28.421875 72.90625 
L 38.28125 72.90625 
L 38.28125 8.296875 
L 54.390625 8.296875 
L 54.390625 0 
L 12.40625 0 
z
" id="DejaVuSans-49"/>
      </defs>
      <g transform="translate(107.969869 322.182437)scale(0.1 -0.1)">
       <use xlink:href="#DejaVuSans-49"/>
       <use x="63.623047" xlink:href="#DejaVuSans-48"/>
       <use x="127.246094" xlink:href="#DejaVuSans-48"/>
       <use x="190.869141" xlink:href="#DejaVuSans-48"/>
       <use x="254.492188" xlink:href="#DejaVuSans-48"/>
      </g>
     </g>
    </g>
    <g id="xtick_3">
     <g id="line2d_5">
      <path clip-path="url(#p449e957c29)" d="M 175.205306 307.584 
L 175.205306 41.472 
" style="fill:none;stroke:#b0b0b0;stroke-linecap:square;stroke-width:0.8;"/>
     </g>
     <g id="line2d_6">
      <g>
       <use style="stroke:#000000;stroke-width:0.8;" x="175.205306" xlink:href="#maa0ac61061" y="307.584"/>
      </g>
     </g>
     <g id="text_3">
      <!-- 20000 -->
      <defs>
       <path d="M 19.1875 8.296875 
L 53.609375 8.296875 
L 53.609375 0 
L 7.328125 0 
L 7.328125 8.296875 
Q 12.9375 14.109375 22.625 23.890625 
Q 32.328125 33.6875 34.8125 36.53125 
Q 39.546875 41.84375 41.421875 45.53125 
Q 43.3125 49.21875 43.3125 52.78125 
Q 43.3125 58.59375 39.234375 62.25 
Q 35.15625 65.921875 28.609375 65.921875 
Q 23.96875 65.921875 18.8125 64.3125 
Q 13.671875 62.703125 7.8125 59.421875 
L 7.8125 69.390625 
Q 13.765625 71.78125 18.9375 73 
Q 24.125 74.21875 28.421875 74.21875 
Q 39.75 74.21875 46.484375 68.546875 
Q 53.21875 62.890625 53.21875 53.421875 
Q 53.21875 48.921875 51.53125 44.890625 
Q 49.859375 40.875 45.40625 35.40625 
Q 44.1875 33.984375 37.640625 27.21875 
Q 31.109375 20.453125 19.1875 8.296875 
z
" id="DejaVuSans-50"/>
      </defs>
      <g transform="translate(159.299056 322.182437)scale(0.1 -0.1)">
       <use xlink:href="#DejaVuSans-50"/>
       <use x="63.623047" xlink:href="#DejaVuSans-48"/>
       <use x="127.246094" xlink:href="#DejaVuSans-48"/>
       <use x="190.869141" xlink:href="#DejaVuSans-48"/>
       <use x="254.492188" xlink:href="#DejaVuSans-48"/>
      </g>
     </g>
    </g>
    <g id="xtick_4">
     <g id="line2d_7">
      <path clip-path="url(#p449e957c29)" d="M 226.534494 307.584 
L 226.534494 41.472 
" style="fill:none;stroke:#b0b0b0;stroke-linecap:square;stroke-width:0.8;"/>
     </g>
     <g id="line2d_8">
      <g>
       <use style="stroke:#000000;stroke-width:0.8;" x="226.534494" xlink:href="#maa0ac61061" y="307.584"/>
      </g>
     </g>
     <g id="text_4">
      <!-- 30000 -->
      <defs>
       <path d="M 40.578125 39.3125 
Q 47.65625 37.796875 51.625 33 
Q 55.609375 28.21875 55.609375 21.1875 
Q 55.609375 10.40625 48.1875 4.484375 
Q 40.765625 -1.421875 27.09375 -1.421875 
Q 22.515625 -1.421875 17.65625 -0.515625 
Q 12.796875 0.390625 7.625 2.203125 
L 7.625 11.71875 
Q 11.71875 9.328125 16.59375 8.109375 
Q 21.484375 6.890625 26.8125 6.890625 
Q 36.078125 6.890625 40.9375 10.546875 
Q 45.796875 14.203125 45.796875 21.1875 
Q 45.796875 27.640625 41.28125 31.265625 
Q 36.765625 34.90625 28.71875 34.90625 
L 20.21875 34.90625 
L 20.21875 43.015625 
L 29.109375 43.015625 
Q 36.375 43.015625 40.234375 45.921875 
Q 44.09375 48.828125 44.09375 54.296875 
Q 44.09375 59.90625 40.109375 62.90625 
Q 36.140625 65.921875 28.71875 65.921875 
Q 24.65625 65.921875 20.015625 65.03125 
Q 15.375 64.15625 9.8125 62.3125 
L 9.8125 71.09375 
Q 15.4375 72.65625 20.34375 73.4375 
Q 25.25 74.21875 29.59375 74.21875 
Q 40.828125 74.21875 47.359375 69.109375 
Q 53.90625 64.015625 53.90625 55.328125 
Q 53.90625 49.265625 50.4375 45.09375 
Q 46.96875 40.921875 40.578125 39.3125 
z
" id="DejaVuSans-51"/>
      </defs>
      <g transform="translate(210.628244 322.182437)scale(0.1 -0.1)">
       <use xlink:href="#DejaVuSans-51"/>
       <use x="63.623047" xlink:href="#DejaVuSans-48"/>
       <use x="127.246094" xlink:href="#DejaVuSans-48"/>
       <use x="190.869141" xlink:href="#DejaVuSans-48"/>
       <use x="254.492188" xlink:href="#DejaVuSans-48"/>
      </g>
     </g>
    </g>
    <g id="xtick_5">
     <g id="line2d_9">
      <path clip-path="url(#p449e957c29)" d="M 277.863682 307.584 
L 277.863682 41.472 
" style="fill:none;stroke:#b0b0b0;stroke-linecap:square;stroke-width:0.8;"/>
     </g>
     <g id="line2d_10">
      <g>
       <use style="stroke:#000000;stroke-width:0.8;" x="277.863682" xlink:href="#maa0ac61061" y="307.584"/>
      </g>
     </g>
     <g id="text_5">
      <!-- 40000 -->
      <defs>
       <path d="M 37.796875 64.3125 
L 12.890625 25.390625 
L 37.796875 25.390625 
z
M 35.203125 72.90625 
L 47.609375 72.90625 
L 47.609375 25.390625 
L 58.015625 25.390625 
L 58.015625 17.1875 
L 47.609375 17.1875 
L 47.609375 0 
L 37.796875 0 
L 37.796875 17.1875 
L 4.890625 17.1875 
L 4.890625 26.703125 
z
" id="DejaVuSans-52"/>
      </defs>
      <g transform="translate(261.957432 322.182437)scale(0.1 -0.1)">
       <use xlink:href="#DejaVuSans-52"/>
       <use x="63.623047" xlink:href="#DejaVuSans-48"/>
       <use x="127.246094" xlink:href="#DejaVuSans-48"/>
       <use x="190.869141" xlink:href="#DejaVuSans-48"/>
       <use x="254.492188" xlink:href="#DejaVuSans-48"/>
      </g>
     </g>
    </g>
    <g id="xtick_6">
     <g id="line2d_11">
      <path clip-path="url(#p449e957c29)" d="M 329.192869 307.584 
L 329.192869 41.472 
" style="fill:none;stroke:#b0b0b0;stroke-linecap:square;stroke-width:0.8;"/>
     </g>
     <g id="line2d_12">
      <g>
       <use style="stroke:#000000;stroke-width:0.8;" x="329.192869" xlink:href="#maa0ac61061" y="307.584"/>
      </g>
     </g>
     <g id="text_6">
      <!-- 50000 -->
      <defs>
       <path d="M 10.796875 72.90625 
L 49.515625 72.90625 
L 49.515625 64.59375 
L 19.828125 64.59375 
L 19.828125 46.734375 
Q 21.96875 47.46875 24.109375 47.828125 
Q 26.265625 48.1875 28.421875 48.1875 
Q 40.625 48.1875 47.75 41.5 
Q 54.890625 34.8125 54.890625 23.390625 
Q 54.890625 11.625 47.5625 5.09375 
Q 40.234375 -1.421875 26.90625 -1.421875 
Q 22.3125 -1.421875 17.546875 -0.640625 
Q 12.796875 0.140625 7.71875 1.703125 
L 7.71875 11.625 
Q 12.109375 9.234375 16.796875 8.0625 
Q 21.484375 6.890625 26.703125 6.890625 
Q 35.15625 6.890625 40.078125 11.328125 
Q 45.015625 15.765625 45.015625 23.390625 
Q 45.015625 31 40.078125 35.4375 
Q 35.15625 39.890625 26.703125 39.890625 
Q 22.75 39.890625 18.8125 39.015625 
Q 14.890625 38.140625 10.796875 36.28125 
z
" id="DejaVuSans-53"/>
      </defs>
      <g transform="translate(313.286619 322.182437)scale(0.1 -0.1)">
       <use xlink:href="#DejaVuSans-53"/>
       <use x="63.623047" xlink:href="#DejaVuSans-48"/>
       <use x="127.246094" xlink:href="#DejaVuSans-48"/>
       <use x="190.869141" xlink:href="#DejaVuSans-48"/>
       <use x="254.492188" xlink:href="#DejaVuSans-48"/>
      </g>
     </g>
    </g>
    <g id="xtick_7">
     <g id="line2d_13">
      <path clip-path="url(#p449e957c29)" d="M 380.522057 307.584 
L 380.522057 41.472 
" style="fill:none;stroke:#b0b0b0;stroke-linecap:square;stroke-width:0.8;"/>
     </g>
     <g id="line2d_14">
      <g>
       <use style="stroke:#000000;stroke-width:0.8;" x="380.522057" xlink:href="#maa0ac61061" y="307.584"/>
      </g>
     </g>
     <g id="text_7">
      <!-- 60000 -->
      <defs>
       <path d="M 33.015625 40.375 
Q 26.375 40.375 22.484375 35.828125 
Q 18.609375 31.296875 18.609375 23.390625 
Q 18.609375 15.53125 22.484375 10.953125 
Q 26.375 6.390625 33.015625 6.390625 
Q 39.65625 6.390625 43.53125 10.953125 
Q 47.40625 15.53125 47.40625 23.390625 
Q 47.40625 31.296875 43.53125 35.828125 
Q 39.65625 40.375 33.015625 40.375 
z
M 52.59375 71.296875 
L 52.59375 62.3125 
Q 48.875 64.0625 45.09375 64.984375 
Q 41.3125 65.921875 37.59375 65.921875 
Q 27.828125 65.921875 22.671875 59.328125 
Q 17.53125 52.734375 16.796875 39.40625 
Q 19.671875 43.65625 24.015625 45.921875 
Q 28.375 48.1875 33.59375 48.1875 
Q 44.578125 48.1875 50.953125 41.515625 
Q 57.328125 34.859375 57.328125 23.390625 
Q 57.328125 12.15625 50.6875 5.359375 
Q 44.046875 -1.421875 33.015625 -1.421875 
Q 20.359375 -1.421875 13.671875 8.265625 
Q 6.984375 17.96875 6.984375 36.375 
Q 6.984375 53.65625 15.1875 63.9375 
Q 23.390625 74.21875 37.203125 74.21875 
Q 40.921875 74.21875 44.703125 73.484375 
Q 48.484375 72.75 52.59375 71.296875 
z
" id="DejaVuSans-54"/>
      </defs>
      <g transform="translate(364.615807 322.182437)scale(0.1 -0.1)">
       <use xlink:href="#DejaVuSans-54"/>
       <use x="63.623047" xlink:href="#DejaVuSans-48"/>
       <use x="127.246094" xlink:href="#DejaVuSans-48"/>
       <use x="190.869141" xlink:href="#DejaVuSans-48"/>
       <use x="254.492188" xlink:href="#DejaVuSans-48"/>
      </g>
     </g>
    </g>
    <g id="text_8">
     <!-- Steps -->
     <defs>
      <path d="M 53.515625 70.515625 
L 53.515625 60.890625 
Q 47.90625 63.578125 42.921875 64.890625 
Q 37.9375 66.21875 33.296875 66.21875 
Q 25.25 66.21875 20.875 63.09375 
Q 16.5 59.96875 16.5 54.203125 
Q 16.5 49.359375 19.40625 46.890625 
Q 22.3125 44.4375 30.421875 42.921875 
L 36.375 41.703125 
Q 47.40625 39.59375 52.65625 34.296875 
Q 57.90625 29 57.90625 20.125 
Q 57.90625 9.515625 50.796875 4.046875 
Q 43.703125 -1.421875 29.984375 -1.421875 
Q 24.8125 -1.421875 18.96875 -0.25 
Q 13.140625 0.921875 6.890625 3.21875 
L 6.890625 13.375 
Q 12.890625 10.015625 18.65625 8.296875 
Q 24.421875 6.59375 29.984375 6.59375 
Q 38.421875 6.59375 43.015625 9.90625 
Q 47.609375 13.234375 47.609375 19.390625 
Q 47.609375 24.75 44.3125 27.78125 
Q 41.015625 30.8125 33.5 32.328125 
L 27.484375 33.5 
Q 16.453125 35.6875 11.515625 40.375 
Q 6.59375 45.0625 6.59375 53.421875 
Q 6.59375 63.09375 13.40625 68.65625 
Q 20.21875 74.21875 32.171875 74.21875 
Q 37.3125 74.21875 42.625 73.28125 
Q 47.953125 72.359375 53.515625 70.515625 
z
" id="DejaVuSans-83"/>
      <path d="M 18.3125 70.21875 
L 18.3125 54.6875 
L 36.8125 54.6875 
L 36.8125 47.703125 
L 18.3125 47.703125 
L 18.3125 18.015625 
Q 18.3125 11.328125 20.140625 9.421875 
Q 21.96875 7.515625 27.59375 7.515625 
L 36.8125 7.515625 
L 36.8125 0 
L 27.59375 0 
Q 17.1875 0 13.234375 3.875 
Q 9.28125 7.765625 9.28125 18.015625 
L 9.28125 47.703125 
L 2.6875 47.703125 
L 2.6875 54.6875 
L 9.28125 54.6875 
L 9.28125 70.21875 
z
" id="DejaVuSans-116"/>
      <path d="M 56.203125 29.59375 
L 56.203125 25.203125 
L 14.890625 25.203125 
Q 15.484375 15.921875 20.484375 11.0625 
Q 25.484375 6.203125 34.421875 6.203125 
Q 39.59375 6.203125 44.453125 7.46875 
Q 49.3125 8.734375 54.109375 11.28125 
L 54.109375 2.78125 
Q 49.265625 0.734375 44.1875 -0.34375 
Q 39.109375 -1.421875 33.890625 -1.421875 
Q 20.796875 -1.421875 13.15625 6.1875 
Q 5.515625 13.8125 5.515625 26.8125 
Q 5.515625 40.234375 12.765625 48.109375 
Q 20.015625 56 32.328125 56 
Q 43.359375 56 49.78125 48.890625 
Q 56.203125 41.796875 56.203125 29.59375 
z
M 47.21875 32.234375 
Q 47.125 39.59375 43.09375 43.984375 
Q 39.0625 48.390625 32.421875 48.390625 
Q 24.90625 48.390625 20.390625 44.140625 
Q 15.875 39.890625 15.1875 32.171875 
z
" id="DejaVuSans-101"/>
      <path d="M 18.109375 8.203125 
L 18.109375 -20.796875 
L 9.078125 -20.796875 
L 9.078125 54.6875 
L 18.109375 54.6875 
L 18.109375 46.390625 
Q 20.953125 51.265625 25.265625 53.625 
Q 29.59375 56 35.59375 56 
Q 45.5625 56 51.78125 48.09375 
Q 58.015625 40.1875 58.015625 27.296875 
Q 58.015625 14.40625 51.78125 6.484375 
Q 45.5625 -1.421875 35.59375 -1.421875 
Q 29.59375 -1.421875 25.265625 0.953125 
Q 20.953125 3.328125 18.109375 8.203125 
z
M 48.6875 27.296875 
Q 48.6875 37.203125 44.609375 42.84375 
Q 40.53125 48.484375 33.40625 48.484375 
Q 26.265625 48.484375 22.1875 42.84375 
Q 18.109375 37.203125 18.109375 27.296875 
Q 18.109375 17.390625 22.1875 11.75 
Q 26.265625 6.109375 33.40625 6.109375 
Q 40.53125 6.109375 44.609375 11.75 
Q 48.6875 17.390625 48.6875 27.296875 
z
" id="DejaVuSans-112"/>
      <path d="M 44.28125 53.078125 
L 44.28125 44.578125 
Q 40.484375 46.53125 36.375 47.5 
Q 32.28125 48.484375 27.875 48.484375 
Q 21.1875 48.484375 17.84375 46.4375 
Q 14.5 44.390625 14.5 40.28125 
Q 14.5 37.15625 16.890625 35.375 
Q 19.28125 33.59375 26.515625 31.984375 
L 29.59375 31.296875 
Q 39.15625 29.25 43.1875 25.515625 
Q 47.21875 21.78125 47.21875 15.09375 
Q 47.21875 7.46875 41.1875 3.015625 
Q 35.15625 -1.421875 24.609375 -1.421875 
Q 20.21875 -1.421875 15.453125 -0.5625 
Q 10.6875 0.296875 5.421875 2 
L 5.421875 11.28125 
Q 10.40625 8.6875 15.234375 7.390625 
Q 20.0625 6.109375 24.8125 6.109375 
Q 31.15625 6.109375 34.5625 8.28125 
Q 37.984375 10.453125 37.984375 14.40625 
Q 37.984375 18.0625 35.515625 20.015625 
Q 33.0625 21.96875 24.703125 23.78125 
L 21.578125 24.515625 
Q 13.234375 26.265625 9.515625 29.90625 
Q 5.8125 33.546875 5.8125 39.890625 
Q 5.8125 47.609375 11.28125 51.796875 
Q 16.75 56 26.8125 56 
Q 31.78125 56 36.171875 55.265625 
Q 40.578125 54.546875 44.28125 53.078125 
z
" id="DejaVuSans-115"/>
     </defs>
     <g transform="translate(222.170156 335.860562)scale(0.1 -0.1)">
      <use xlink:href="#DejaVuSans-83"/>
      <use x="63.476562" xlink:href="#DejaVuSans-116"/>
      <use x="102.685547" xlink:href="#DejaVuSans-101"/>
      <use x="164.208984" xlink:href="#DejaVuSans-112"/>
      <use x="227.685547" xlink:href="#DejaVuSans-115"/>
     </g>
    </g>
   </g>
   <g id="matplotlib.axis_2">
    <g id="ytick_1">
     <g id="line2d_15">
      <path clip-path="url(#p449e957c29)" d="M 57.6 299.803438 
L 414.72 299.803438 
" style="fill:none;stroke:#b0b0b0;stroke-linecap:square;stroke-width:0.8;"/>
     </g>
     <g id="line2d_16">
      <defs>
       <path d="M 0 0 
L -3.5 0 
" id="m1416633de6" style="stroke:#000000;stroke-width:0.8;"/>
      </defs>
      <g>
       <use style="stroke:#000000;stroke-width:0.8;" x="57.6" xlink:href="#m1416633de6" y="299.803438"/>
      </g>
     </g>
     <g id="text_9">
      <!-- 0 -->
      <g transform="translate(44.2375 303.602656)scale(0.1 -0.1)">
       <use xlink:href="#DejaVuSans-48"/>
      </g>
     </g>
    </g>
    <g id="ytick_2">
     <g id="line2d_17">
      <path clip-path="url(#p449e957c29)" d="M 57.6 249.464194 
L 414.72 249.464194 
" style="fill:none;stroke:#b0b0b0;stroke-linecap:square;stroke-width:0.8;"/>
     </g>
     <g id="line2d_18">
      <g>
       <use style="stroke:#000000;stroke-width:0.8;" x="57.6" xlink:href="#m1416633de6" y="249.464194"/>
      </g>
     </g>
     <g id="text_10">
      <!-- 20 -->
      <g transform="translate(37.875 253.263413)scale(0.1 -0.1)">
       <use xlink:href="#DejaVuSans-50"/>
       <use x="63.623047" xlink:href="#DejaVuSans-48"/>
      </g>
     </g>
    </g>
    <g id="ytick_3">
     <g id="line2d_19">
      <path clip-path="url(#p449e957c29)" d="M 57.6 199.12495 
L 414.72 199.12495 
" style="fill:none;stroke:#b0b0b0;stroke-linecap:square;stroke-width:0.8;"/>
     </g>
     <g id="line2d_20">
      <g>
       <use style="stroke:#000000;stroke-width:0.8;" x="57.6" xlink:href="#m1416633de6" y="199.12495"/>
      </g>
     </g>
     <g id="text_11">
      <!-- 40 -->
      <g transform="translate(37.875 202.924169)scale(0.1 -0.1)">
       <use xlink:href="#DejaVuSans-52"/>
       <use x="63.623047" xlink:href="#DejaVuSans-48"/>
      </g>
     </g>
    </g>
    <g id="ytick_4">
     <g id="line2d_21">
      <path clip-path="url(#p449e957c29)" d="M 57.6 148.785707 
L 414.72 148.785707 
" style="fill:none;stroke:#b0b0b0;stroke-linecap:square;stroke-width:0.8;"/>
     </g>
     <g id="line2d_22">
      <g>
       <use style="stroke:#000000;stroke-width:0.8;" x="57.6" xlink:href="#m1416633de6" y="148.785707"/>
      </g>
     </g>
     <g id="text_12">
      <!-- 60 -->
      <g transform="translate(37.875 152.584925)scale(0.1 -0.1)">
       <use xlink:href="#DejaVuSans-54"/>
       <use x="63.623047" xlink:href="#DejaVuSans-48"/>
      </g>
     </g>
    </g>
    <g id="ytick_5">
     <g id="line2d_23">
      <path clip-path="url(#p449e957c29)" d="M 57.6 98.446463 
L 414.72 98.446463 
" style="fill:none;stroke:#b0b0b0;stroke-linecap:square;stroke-width:0.8;"/>
     </g>
     <g id="line2d_24">
      <g>
       <use style="stroke:#000000;stroke-width:0.8;" x="57.6" xlink:href="#m1416633de6" y="98.446463"/>
      </g>
     </g>
     <g id="text_13">
      <!-- 80 -->
      <defs>
       <path d="M 31.78125 34.625 
Q 24.75 34.625 20.71875 30.859375 
Q 16.703125 27.09375 16.703125 20.515625 
Q 16.703125 13.921875 20.71875 10.15625 
Q 24.75 6.390625 31.78125 6.390625 
Q 38.8125 6.390625 42.859375 10.171875 
Q 46.921875 13.96875 46.921875 20.515625 
Q 46.921875 27.09375 42.890625 30.859375 
Q 38.875 34.625 31.78125 34.625 
z
M 21.921875 38.8125 
Q 15.578125 40.375 12.03125 44.71875 
Q 8.5 49.078125 8.5 55.328125 
Q 8.5 64.0625 14.71875 69.140625 
Q 20.953125 74.21875 31.78125 74.21875 
Q 42.671875 74.21875 48.875 69.140625 
Q 55.078125 64.0625 55.078125 55.328125 
Q 55.078125 49.078125 51.53125 44.71875 
Q 48 40.375 41.703125 38.8125 
Q 48.828125 37.15625 52.796875 32.3125 
Q 56.78125 27.484375 56.78125 20.515625 
Q 56.78125 9.90625 50.3125 4.234375 
Q 43.84375 -1.421875 31.78125 -1.421875 
Q 19.734375 -1.421875 13.25 4.234375 
Q 6.78125 9.90625 6.78125 20.515625 
Q 6.78125 27.484375 10.78125 32.3125 
Q 14.796875 37.15625 21.921875 38.8125 
z
M 18.3125 54.390625 
Q 18.3125 48.734375 21.84375 45.5625 
Q 25.390625 42.390625 31.78125 42.390625 
Q 38.140625 42.390625 41.71875 45.5625 
Q 45.3125 48.734375 45.3125 54.390625 
Q 45.3125 60.0625 41.71875 63.234375 
Q 38.140625 66.40625 31.78125 66.40625 
Q 25.390625 66.40625 21.84375 63.234375 
Q 18.3125 60.0625 18.3125 54.390625 
z
" id="DejaVuSans-56"/>
      </defs>
      <g transform="translate(37.875 102.245682)scale(0.1 -0.1)">
       <use xlink:href="#DejaVuSans-56"/>
       <use x="63.623047" xlink:href="#DejaVuSans-48"/>
      </g>
     </g>
    </g>
    <g id="ytick_6">
     <g id="line2d_25">
      <path clip-path="url(#p449e957c29)" d="M 57.6 48.107219 
L 414.72 48.107219 
" style="fill:none;stroke:#b0b0b0;stroke-linecap:square;stroke-width:0.8;"/>
     </g>
     <g id="line2d_26">
      <g>
       <use style="stroke:#000000;stroke-width:0.8;" x="57.6" xlink:href="#m1416633de6" y="48.107219"/>
      </g>
     </g>
     <g id="text_14">
      <!-- 100 -->
      <g transform="translate(31.5125 51.906438)scale(0.1 -0.1)">
       <use xlink:href="#DejaVuSans-49"/>
       <use x="63.623047" xlink:href="#DejaVuSans-48"/>
       <use x="127.246094" xlink:href="#DejaVuSans-48"/>
      </g>
     </g>
    </g>
    <g id="text_15">
     <!-- Feature Mathing Error -->
     <defs>
      <path d="M 9.8125 72.90625 
L 51.703125 72.90625 
L 51.703125 64.59375 
L 19.671875 64.59375 
L 19.671875 43.109375 
L 48.578125 43.109375 
L 48.578125 34.8125 
L 19.671875 34.8125 
L 19.671875 0 
L 9.8125 0 
z
" id="DejaVuSans-70"/>
      <path d="M 34.28125 27.484375 
Q 23.390625 27.484375 19.1875 25 
Q 14.984375 22.515625 14.984375 16.5 
Q 14.984375 11.71875 18.140625 8.90625 
Q 21.296875 6.109375 26.703125 6.109375 
Q 34.1875 6.109375 38.703125 11.40625 
Q 43.21875 16.703125 43.21875 25.484375 
L 43.21875 27.484375 
z
M 52.203125 31.203125 
L 52.203125 0 
L 43.21875 0 
L 43.21875 8.296875 
Q 40.140625 3.328125 35.546875 0.953125 
Q 30.953125 -1.421875 24.3125 -1.421875 
Q 15.921875 -1.421875 10.953125 3.296875 
Q 6 8.015625 6 15.921875 
Q 6 25.140625 12.171875 29.828125 
Q 18.359375 34.515625 30.609375 34.515625 
L 43.21875 34.515625 
L 43.21875 35.40625 
Q 43.21875 41.609375 39.140625 45 
Q 35.0625 48.390625 27.6875 48.390625 
Q 23 48.390625 18.546875 47.265625 
Q 14.109375 46.140625 10.015625 43.890625 
L 10.015625 52.203125 
Q 14.9375 54.109375 19.578125 55.046875 
Q 24.21875 56 28.609375 56 
Q 40.484375 56 46.34375 49.84375 
Q 52.203125 43.703125 52.203125 31.203125 
z
" id="DejaVuSans-97"/>
      <path d="M 8.5 21.578125 
L 8.5 54.6875 
L 17.484375 54.6875 
L 17.484375 21.921875 
Q 17.484375 14.15625 20.5 10.265625 
Q 23.53125 6.390625 29.59375 6.390625 
Q 36.859375 6.390625 41.078125 11.03125 
Q 45.3125 15.671875 45.3125 23.6875 
L 45.3125 54.6875 
L 54.296875 54.6875 
L 54.296875 0 
L 45.3125 0 
L 45.3125 8.40625 
Q 42.046875 3.421875 37.71875 1 
Q 33.40625 -1.421875 27.6875 -1.421875 
Q 18.265625 -1.421875 13.375 4.4375 
Q 8.5 10.296875 8.5 21.578125 
z
M 31.109375 56 
z
" id="DejaVuSans-117"/>
      <path d="M 41.109375 46.296875 
Q 39.59375 47.171875 37.8125 47.578125 
Q 36.03125 48 33.890625 48 
Q 26.265625 48 22.1875 43.046875 
Q 18.109375 38.09375 18.109375 28.8125 
L 18.109375 0 
L 9.078125 0 
L 9.078125 54.6875 
L 18.109375 54.6875 
L 18.109375 46.1875 
Q 20.953125 51.171875 25.484375 53.578125 
Q 30.03125 56 36.53125 56 
Q 37.453125 56 38.578125 55.875 
Q 39.703125 55.765625 41.0625 55.515625 
z
" id="DejaVuSans-114"/>
      <path id="DejaVuSans-32"/>
      <path d="M 9.8125 72.90625 
L 24.515625 72.90625 
L 43.109375 23.296875 
L 61.8125 72.90625 
L 76.515625 72.90625 
L 76.515625 0 
L 66.890625 0 
L 66.890625 64.015625 
L 48.09375 14.015625 
L 38.1875 14.015625 
L 19.390625 64.015625 
L 19.390625 0 
L 9.8125 0 
z
" id="DejaVuSans-77"/>
      <path d="M 54.890625 33.015625 
L 54.890625 0 
L 45.90625 0 
L 45.90625 32.71875 
Q 45.90625 40.484375 42.875 44.328125 
Q 39.84375 48.1875 33.796875 48.1875 
Q 26.515625 48.1875 22.3125 43.546875 
Q 18.109375 38.921875 18.109375 30.90625 
L 18.109375 0 
L 9.078125 0 
L 9.078125 75.984375 
L 18.109375 75.984375 
L 18.109375 46.1875 
Q 21.34375 51.125 25.703125 53.5625 
Q 30.078125 56 35.796875 56 
Q 45.21875 56 50.046875 50.171875 
Q 54.890625 44.34375 54.890625 33.015625 
z
" id="DejaVuSans-104"/>
      <path d="M 9.421875 54.6875 
L 18.40625 54.6875 
L 18.40625 0 
L 9.421875 0 
z
M 9.421875 75.984375 
L 18.40625 75.984375 
L 18.40625 64.59375 
L 9.421875 64.59375 
z
" id="DejaVuSans-105"/>
      <path d="M 54.890625 33.015625 
L 54.890625 0 
L 45.90625 0 
L 45.90625 32.71875 
Q 45.90625 40.484375 42.875 44.328125 
Q 39.84375 48.1875 33.796875 48.1875 
Q 26.515625 48.1875 22.3125 43.546875 
Q 18.109375 38.921875 18.109375 30.90625 
L 18.109375 0 
L 9.078125 0 
L 9.078125 54.6875 
L 18.109375 54.6875 
L 18.109375 46.1875 
Q 21.34375 51.125 25.703125 53.5625 
Q 30.078125 56 35.796875 56 
Q 45.21875 56 50.046875 50.171875 
Q 54.890625 44.34375 54.890625 33.015625 
z
" id="DejaVuSans-110"/>
      <path d="M 45.40625 27.984375 
Q 45.40625 37.75 41.375 43.109375 
Q 37.359375 48.484375 30.078125 48.484375 
Q 22.859375 48.484375 18.828125 43.109375 
Q 14.796875 37.75 14.796875 27.984375 
Q 14.796875 18.265625 18.828125 12.890625 
Q 22.859375 7.515625 30.078125 7.515625 
Q 37.359375 7.515625 41.375 12.890625 
Q 45.40625 18.265625 45.40625 27.984375 
z
M 54.390625 6.78125 
Q 54.390625 -7.171875 48.1875 -13.984375 
Q 42 -20.796875 29.203125 -20.796875 
Q 24.46875 -20.796875 20.265625 -20.09375 
Q 16.0625 -19.390625 12.109375 -17.921875 
L 12.109375 -9.1875 
Q 16.0625 -11.328125 19.921875 -12.34375 
Q 23.78125 -13.375 27.78125 -13.375 
Q 36.625 -13.375 41.015625 -8.765625 
Q 45.40625 -4.15625 45.40625 5.171875 
L 45.40625 9.625 
Q 42.625 4.78125 38.28125 2.390625 
Q 33.9375 0 27.875 0 
Q 17.828125 0 11.671875 7.65625 
Q 5.515625 15.328125 5.515625 27.984375 
Q 5.515625 40.671875 11.671875 48.328125 
Q 17.828125 56 27.875 56 
Q 33.9375 56 38.28125 53.609375 
Q 42.625 51.21875 45.40625 46.390625 
L 45.40625 54.6875 
L 54.390625 54.6875 
z
" id="DejaVuSans-103"/>
      <path d="M 9.8125 72.90625 
L 55.90625 72.90625 
L 55.90625 64.59375 
L 19.671875 64.59375 
L 19.671875 43.015625 
L 54.390625 43.015625 
L 54.390625 34.71875 
L 19.671875 34.71875 
L 19.671875 8.296875 
L 56.78125 8.296875 
L 56.78125 0 
L 9.8125 0 
z
" id="DejaVuSans-69"/>
      <path d="M 30.609375 48.390625 
Q 23.390625 48.390625 19.1875 42.75 
Q 14.984375 37.109375 14.984375 27.296875 
Q 14.984375 17.484375 19.15625 11.84375 
Q 23.34375 6.203125 30.609375 6.203125 
Q 37.796875 6.203125 41.984375 11.859375 
Q 46.1875 17.53125 46.1875 27.296875 
Q 46.1875 37.015625 41.984375 42.703125 
Q 37.796875 48.390625 30.609375 48.390625 
z
M 30.609375 56 
Q 42.328125 56 49.015625 48.375 
Q 55.71875 40.765625 55.71875 27.296875 
Q 55.71875 13.875 49.015625 6.21875 
Q 42.328125 -1.421875 30.609375 -1.421875 
Q 18.84375 -1.421875 12.171875 6.21875 
Q 5.515625 13.875 5.515625 27.296875 
Q 5.515625 40.765625 12.171875 48.375 
Q 18.84375 56 30.609375 56 
z
" id="DejaVuSans-111"/>
     </defs>
     <g transform="translate(25.432812 229.599875)rotate(-90)scale(0.1 -0.1)">
      <use xlink:href="#DejaVuSans-70"/>
      <use x="57.441406" xlink:href="#DejaVuSans-101"/>
      <use x="118.964844" xlink:href="#DejaVuSans-97"/>
      <use x="180.244141" xlink:href="#DejaVuSans-116"/>
      <use x="219.453125" xlink:href="#DejaVuSans-117"/>
      <use x="282.832031" xlink:href="#DejaVuSans-114"/>
      <use x="323.914062" xlink:href="#DejaVuSans-101"/>
      <use x="385.4375" xlink:href="#DejaVuSans-32"/>
      <use x="417.224609" xlink:href="#DejaVuSans-77"/>
      <use x="503.503906" xlink:href="#DejaVuSans-97"/>
      <use x="564.783203" xlink:href="#DejaVuSans-116"/>
      <use x="603.992188" xlink:href="#DejaVuSans-104"/>
      <use x="667.371094" xlink:href="#DejaVuSans-105"/>
      <use x="695.154297" xlink:href="#DejaVuSans-110"/>
      <use x="758.533203" xlink:href="#DejaVuSans-103"/>
      <use x="822.009766" xlink:href="#DejaVuSans-32"/>
      <use x="853.796875" xlink:href="#DejaVuSans-69"/>
      <use x="916.980469" xlink:href="#DejaVuSans-114"/>
      <use x="958.078125" xlink:href="#DejaVuSans-114"/>
      <use x="999.160156" xlink:href="#DejaVuSans-111"/>
      <use x="1060.341797" xlink:href="#DejaVuSans-114"/>
     </g>
    </g>
   </g>
   <g id="line2d_27">
    <path clip-path="url(#p449e957c29)" d="M 75.806335 287.129985 
L 79.065738 295.126142 
L 82.325141 291.850321 
L 85.584545 288.566595 
L 88.843948 283.83125 
L 92.103352 280.190925 
L 95.362755 276.714599 
L 98.622158 275.656113 
L 101.881562 270.345078 
L 105.140965 270.708189 
L 108.400369 268.848204 
L 111.659772 267.498246 
L 114.919176 267.753118 
L 118.178579 270.551766 
L 121.437982 265.221862 
L 124.697386 271.419429 
L 127.956789 273.083339 
L 131.216193 268.994402 
L 134.475596 266.229761 
L 137.734999 264.50824 
L 140.994403 266.971482 
L 144.253806 266.434293 
L 147.51321 264.179031 
L 150.772613 257.929934 
L 154.032017 251.846049 
L 157.29142 250.229813 
L 160.550823 248.15764 
L 163.810227 251.594087 
L 167.06963 240.156941 
L 170.329034 245.886109 
L 173.588437 240.752983 
L 176.84784 237.211192 
L 180.107244 231.480286 
L 183.366647 238.073343 
L 186.626051 235.365261 
L 189.885454 233.475323 
L 193.144858 239.751342 
L 196.404261 234.243849 
L 199.663664 236.719131 
L 202.923068 235.643696 
L 206.182471 231.737513 
L 209.441875 239.851458 
L 212.701278 235.676225 
L 215.960681 235.11706 
L 219.220085 226.96607 
L 222.479488 236.79175 
L 225.738892 228.925042 
L 228.998295 231.468889 
L 232.257699 223.36755 
L 235.517102 231.314888 
L 238.776505 220.691989 
L 242.035909 222.125117 
L 245.295312 226.895285 
L 248.554716 226.96618 
L 251.814119 215.656392 
L 255.073522 225.043564 
L 258.332926 218.363881 
L 261.592329 209.422842 
L 264.851733 221.979886 
L 268.111136 219.633542 
L 271.37054 211.283079 
L 274.629943 207.852309 
L 277.889346 202.734968 
L 281.14875 208.241219 
L 284.408153 204.387319 
L 287.667557 201.709941 
L 290.92696 199.255893 
L 294.186363 199.131561 
L 297.445767 189.851312 
L 300.70517 197.308615 
L 303.964574 195.218129 
L 307.223977 186.673825 
L 310.48338 188.945779 
L 313.742784 189.763176 
L 317.002187 192.665854 
L 320.261591 179.063963 
L 323.520994 190.986251 
L 326.780398 188.216766 
L 330.039801 189.638856 
L 333.299204 174.290022 
L 336.558608 187.109873 
L 339.818011 169.881443 
L 343.077415 181.88409 
L 346.336818 171.301838 
L 349.596221 183.860058 
L 352.855625 178.996544 
L 356.115028 178.827752 
L 359.374432 174.011892 
L 362.633835 175.367049 
L 365.893239 173.505875 
L 369.152642 170.160413 
L 372.412045 168.774155 
L 375.671449 168.053462 
L 378.930852 156.146021 
L 382.190256 157.663335 
L 385.449659 161.261551 
L 388.709062 160.043826 
L 391.968466 157.248876 
L 395.227869 152.403092 
L 398.487273 151.438177 
" style="fill:none;stroke:#1f77b4;stroke-linecap:square;stroke-width:1.5;"/>
   </g>
   <g id="line2d_28">
    <path clip-path="url(#p449e957c29)" d="M 73.832727 276.636917 
L 76.399187 290.657614 
L 78.965646 295.488 
L 81.532105 292.980588 
L 84.098565 287.992736 
L 86.665024 288.745356 
L 89.231484 283.552477 
L 94.364402 277.089407 
L 96.930862 275.517668 
L 99.497321 272.735807 
L 102.06378 270.528828 
L 104.63024 268.718307 
L 107.196699 271.702326 
L 109.763159 269.646107 
L 112.329618 266.980033 
L 114.896077 265.765398 
L 117.462537 266.705468 
L 122.595456 270.333713 
L 125.161915 272.975651 
L 127.728374 272.186773 
L 130.294834 270.221115 
L 132.861293 269.521198 
L 135.427752 267.369758 
L 137.994212 266.60917 
L 140.560671 266.850386 
L 143.127131 266.338712 
L 145.69359 263.924602 
L 148.260049 260.761335 
L 150.826509 258.905078 
L 153.392968 255.097695 
L 155.959428 251.889915 
L 158.525887 251.566917 
L 161.092346 249.396027 
L 163.658806 249.699631 
L 166.225265 246.636486 
L 168.791724 246.969311 
L 171.358184 247.45774 
L 173.924643 244.255707 
L 176.491103 245.33776 
L 179.057562 239.484832 
L 181.624021 242.897662 
L 184.190481 241.794022 
L 186.75694 241.120685 
L 189.323399 238.305052 
L 191.889859 238.973313 
L 194.456318 238.329744 
L 197.022778 238.519037 
L 199.589237 238.970123 
L 202.155696 240.064431 
L 204.722156 240.396898 
L 209.855075 240.320346 
L 212.421534 236.958804 
L 214.987993 238.079784 
L 217.554453 236.090753 
L 220.120912 235.286051 
L 222.687371 235.980603 
L 225.253831 234.659522 
L 227.82029 234.134624 
L 230.38675 235.451635 
L 232.953209 233.333959 
L 235.519668 234.15057 
L 238.086128 233.664731 
L 240.652587 232.770057 
L 243.219047 233.185614 
L 245.785506 229.231175 
L 248.351965 230.546711 
L 250.918425 230.611758 
L 253.484884 230.348535 
L 256.051343 230.521846 
L 258.617803 228.692927 
L 261.184262 227.131686 
L 263.750722 230.560878 
L 266.317181 224.834532 
L 268.88364 227.178168 
L 271.4501 222.858498 
L 274.016559 223.435639 
L 276.583019 223.528337 
L 279.149478 217.993199 
L 281.715937 216.072775 
L 284.282397 213.444336 
L 286.848856 212.334062 
L 289.415315 210.099925 
L 291.981775 212.169683 
L 294.548234 211.198183 
L 297.114694 208.63463 
L 299.681153 209.511827 
L 302.247612 207.203383 
L 304.814072 207.825323 
L 307.380531 204.618324 
L 309.94699 208.317671 
L 312.51345 204.62991 
L 317.646369 206.720603 
L 320.212828 202.971087 
L 322.779287 211.176529 
L 325.345747 205.149209 
L 327.912206 205.16112 
L 330.478666 204.651593 
L 333.045125 203.002087 
L 335.611584 202.823223 
L 338.178044 190.470164 
L 340.744503 198.161875 
L 343.310962 201.128833 
L 345.877422 195.479603 
L 348.443881 196.939078 
L 351.010341 195.850195 
L 353.5768 180.294417 
L 356.143259 187.780503 
L 358.709719 191.320977 
L 361.276178 191.760826 
L 363.842638 185.728681 
L 366.409097 186.94274 
L 368.975556 188.379559 
L 371.542016 189.299692 
L 374.108475 182.139618 
L 376.674934 187.617373 
L 379.241394 182.855932 
L 381.807853 180.39996 
L 384.374313 183.043136 
L 386.940772 181.105377 
L 389.507231 178.248566 
L 392.073691 182.703564 
L 394.64015 178.495841 
L 397.206609 176.499343 
L 397.206609 176.499343 
" style="fill:none;stroke:#aec7e8;stroke-linecap:square;stroke-opacity:0.5;stroke-width:1.5;"/>
   </g>
   <g id="line2d_29">
    <path clip-path="url(#p449e957c29)" d="M 75.806335 281.43624 
L 79.065738 276.817473 
L 82.325141 279.749375 
L 85.584545 280.043578 
L 88.843948 279.066547 
L 92.103352 272.010127 
L 95.362755 276.612873 
L 98.622158 268.411628 
L 101.881562 271.735543 
L 105.140965 259.320483 
L 108.400369 266.90325 
L 111.659772 271.992481 
L 114.919176 273.686599 
L 118.178579 273.528649 
L 121.437982 273.431483 
L 124.697386 268.110001 
L 127.956789 266.318972 
L 131.216193 266.043395 
L 134.475596 267.920435 
L 137.734999 262.150595 
L 140.994403 265.225458 
L 144.253806 269.393816 
L 147.51321 268.884747 
L 150.772613 270.209654 
L 154.032017 270.660223 
L 157.29142 267.650287 
L 160.550823 268.782102 
L 163.810227 270.227083 
L 167.06963 271.734968 
L 170.329034 267.35922 
L 173.588437 269.632091 
L 176.84784 267.133778 
L 180.107244 268.283092 
L 183.366647 268.120639 
L 186.626051 264.242276 
L 189.885454 267.405582 
L 193.144858 266.553536 
L 196.404261 260.148479 
L 199.663664 266.555587 
L 202.923068 259.653955 
L 206.182471 260.811203 
L 209.441875 260.865367 
L 212.701278 255.745362 
L 215.960681 256.772907 
L 219.220085 255.326383 
L 222.479488 252.247159 
L 225.738892 252.784226 
L 228.998295 247.272481 
L 232.257699 243.233863 
L 235.517102 242.021208 
L 238.776505 238.734579 
L 242.035909 235.695422 
L 245.295312 230.695619 
L 248.554716 234.750595 
L 251.814119 233.232729 
L 255.073522 228.768435 
L 258.332926 224.25434 
L 261.592329 219.620086 
L 264.851733 222.187541 
L 268.111136 221.084305 
L 271.37054 221.024272 
L 274.629943 222.876113 
L 277.889346 222.398484 
L 281.14875 218.584024 
L 284.408153 211.899242 
L 287.667557 215.459349 
L 290.92696 216.595503 
L 294.186363 211.221148 
L 297.445767 207.743384 
L 300.70517 204.975136 
L 303.964574 207.308514 
L 307.223977 201.138929 
L 310.48338 196.09493 
L 313.742784 197.483869 
L 317.002187 200.442208 
L 320.261591 190.725786 
L 323.520994 194.988925 
L 326.780398 198.361051 
L 330.039801 201.67731 
L 333.299204 202.32655 
L 336.558608 201.928705 
L 339.818011 196.347499 
L 343.077415 190.386112 
L 346.336818 192.016719 
L 349.596221 192.401654 
L 352.855625 189.857481 
L 356.115028 191.553708 
L 359.374432 202.45434 
L 362.633835 190.338879 
L 365.893239 189.545733 
L 369.152642 195.816345 
L 372.412045 188.880284 
L 375.671449 195.927531 
L 378.930852 185.789471 
L 382.190256 186.450407 
L 385.449659 190.399379 
L 388.709062 180.334598 
L 391.968466 193.875309 
L 395.227869 184.210884 
L 398.487273 181.522367 
" style="fill:none;stroke:#ff7f0e;stroke-linecap:square;stroke-width:1.5;"/>
   </g>
   <g id="line2d_30">
    <path clip-path="url(#p449e957c29)" d="M 73.832727 289.209394 
L 76.399187 270.262019 
L 78.965646 278.148631 
L 81.532105 283.505918 
L 84.098565 280.629775 
L 86.665024 277.999305 
L 89.231484 277.914216 
L 91.797943 273.525929 
L 94.364402 275.449684 
L 96.930862 270.5337 
L 99.497321 264.577065 
L 102.06378 267.452779 
L 104.63024 263.229314 
L 107.196699 266.273491 
L 109.763159 270.220185 
L 112.329618 273.187905 
L 114.896077 274.011833 
L 117.462537 272.947111 
L 120.028996 272.028665 
L 122.595456 271.393962 
L 125.161915 270.173587 
L 127.728374 269.351834 
L 130.294834 268.302962 
L 132.861293 267.488062 
L 135.427752 266.34725 
L 137.994212 266.457731 
L 140.560671 266.790979 
L 143.127131 268.340185 
L 145.69359 267.93725 
L 148.260049 268.350646 
L 150.826509 268.902842 
L 153.392968 268.873278 
L 155.959428 268.457003 
L 158.525887 268.81112 
L 161.092346 269.30547 
L 163.658806 269.066864 
L 166.225265 270.401175 
L 168.791724 269.8676 
L 171.358184 269.63842 
L 173.924643 269.791427 
L 176.491103 270.362452 
L 181.624021 267.950504 
L 184.190481 268.559724 
L 186.75694 267.315807 
L 189.323399 266.590578 
L 191.889859 267.392523 
L 194.456318 267.298035 
L 197.022778 264.052448 
L 199.589237 266.229873 
L 202.155696 262.287489 
L 204.722156 261.018177 
L 207.288615 261.743918 
L 212.421534 257.122488 
L 214.987993 255.59256 
L 217.554453 255.245384 
L 220.120912 254.148789 
L 222.687371 254.59686 
L 225.253831 253.278622 
L 227.82029 248.437718 
L 230.38675 247.444847 
L 232.953209 243.454091 
L 235.519668 242.675861 
L 238.086128 241.291133 
L 243.219047 237.479129 
L 245.785506 237.388505 
L 250.918425 234.614498 
L 253.484884 233.72262 
L 256.051343 231.340778 
L 258.617803 230.249629 
L 261.184262 227.433601 
L 263.750722 226.926886 
L 266.317181 226.060752 
L 268.88364 225.426216 
L 271.4501 224.42339 
L 274.016559 224.850002 
L 279.149478 222.627241 
L 281.715937 221.323911 
L 284.282397 219.259987 
L 286.848856 219.702796 
L 289.415315 218.906505 
L 291.981775 216.854549 
L 294.548234 216.737684 
L 297.114694 214.983548 
L 299.681153 213.576893 
L 302.247612 210.551268 
L 304.814072 212.288902 
L 307.380531 209.328848 
L 309.94699 207.179956 
L 312.51345 207.771402 
L 315.079909 205.881247 
L 317.646369 207.185803 
L 320.212828 205.553262 
L 322.779287 204.740198 
L 325.345747 205.575145 
L 327.912206 210.178888 
L 330.478666 209.790823 
L 333.045125 206.226497 
L 335.611584 206.286218 
L 338.178044 206.759824 
L 340.744503 205.926569 
L 343.310962 203.056677 
L 345.877422 201.128609 
L 348.443881 205.958082 
L 351.010341 206.758354 
L 353.5768 201.540966 
L 356.143259 203.356951 
L 358.709719 205.987669 
L 361.276178 204.60177 
L 363.842638 201.370521 
L 366.409097 203.581092 
L 368.975556 206.503034 
L 371.542016 201.990676 
L 374.108475 201.335894 
L 376.674934 199.938252 
L 379.241394 199.830665 
L 381.807853 201.594469 
L 384.374313 202.366617 
L 386.940772 198.895627 
L 389.507231 198.567732 
L 392.073691 202.579754 
L 394.64015 199.267194 
L 397.206609 198.328712 
L 397.206609 198.328712 
" style="fill:none;stroke:#ffbb78;stroke-linecap:square;stroke-opacity:0.5;stroke-width:1.5;"/>
   </g>
   <g id="line2d_31">
    <path clip-path="url(#p449e957c29)" d="M 75.806335 215.275806 
L 79.065738 282.620967 
L 82.325141 287.295025 
L 85.584545 290.727788 
L 88.843948 258.56085 
L 92.103352 260.719689 
L 95.362755 251.68904 
L 98.622158 254.878948 
L 101.881562 249.772945 
L 105.140965 244.551956 
L 108.400369 240.240706 
L 111.659772 229.045399 
L 114.919176 234.254457 
L 118.178579 231.494917 
L 121.437982 238.886795 
L 124.697386 242.806616 
L 127.956789 244.841582 
L 131.216193 249.965621 
L 134.475596 249.022471 
L 137.734999 249.61722 
L 140.994403 254.018104 
L 144.253806 249.554844 
L 147.51321 239.772682 
L 150.772613 252.161136 
L 154.032017 252.554828 
L 157.29142 250.970195 
L 160.550823 250.341149 
L 163.810227 242.736448 
L 167.06963 246.817162 
L 170.329034 249.090651 
L 173.588437 248.72825 
L 176.84784 239.114504 
L 180.107244 241.470278 
L 183.366647 246.920018 
L 186.626051 240.689835 
L 189.885454 239.439143 
L 193.144858 241.954509 
L 196.404261 242.09276 
L 199.663664 240.082899 
L 202.923068 236.194044 
L 206.182471 238.211488 
L 209.441875 237.510663 
L 212.701278 232.678323 
L 215.960681 232.186586 
L 219.220085 234.537933 
L 222.479488 232.798798 
L 225.738892 230.617154 
L 228.998295 233.178213 
L 232.257699 229.181252 
L 235.517102 223.608427 
L 238.776505 231.257173 
L 242.035909 225.376151 
L 245.295312 232.732494 
L 248.554716 226.104888 
L 251.814119 221.144253 
L 255.073522 220.413482 
L 258.332926 219.285405 
L 261.592329 217.668544 
L 264.851733 215.943101 
L 268.111136 215.617174 
L 271.37054 217.333778 
L 274.629943 215.966134 
L 277.889346 214.746389 
L 281.14875 211.289046 
L 284.408153 210.109132 
L 287.667557 203.767166 
L 290.92696 200.714931 
L 294.186363 199.675736 
L 297.445767 203.051094 
L 300.70517 203.875157 
L 303.964574 204.12875 
L 307.223977 204.169511 
L 310.48338 204.266697 
L 313.742784 203.048887 
L 317.002187 202.680334 
L 320.261591 201.814588 
L 323.520994 202.780261 
L 326.780398 201.275593 
L 330.039801 201.304272 
L 333.299204 197.580603 
L 336.558608 196.583797 
L 339.818011 197.588088 
L 343.077415 193.64391 
L 346.336818 196.228569 
L 349.596221 187.787014 
L 352.855625 188.949941 
L 356.115028 189.535519 
L 359.374432 185.401521 
L 362.633835 185.21217 
L 365.893239 184.3378 
L 369.152642 182.732569 
L 372.412045 183.173299 
L 375.671449 179.29152 
L 378.930852 175.273907 
L 382.190256 175.840359 
L 385.449659 172.655575 
L 388.709062 169.303105 
L 391.968466 169.259407 
L 395.227869 168.280115 
L 398.487273 164.611027 
" style="fill:none;stroke:#2ca02c;stroke-linecap:square;stroke-width:1.5;"/>
   </g>
   <g id="line2d_32">
    <path clip-path="url(#p449e957c29)" d="M 73.832727 295.257189 
L 76.399187 261.687241 
L 78.965646 284.094649 
L 81.532105 288.988637 
L 84.098565 293.072397 
L 86.665024 273.540097 
L 89.231484 260.592438 
L 91.797943 259.504147 
L 94.364402 251.292284 
L 96.930862 247.842204 
L 99.497321 258.727765 
L 102.06378 253.834736 
L 104.63024 251.196829 
L 107.196699 249.995372 
L 109.763159 242.61304 
L 112.329618 239.112777 
L 114.896077 239.599861 
L 117.462537 241.167683 
L 120.028996 245.855845 
L 122.595456 249.959143 
L 125.161915 251.197901 
L 127.728374 252.114382 
L 130.294834 254.91303 
L 132.861293 256.907241 
L 135.427752 256.585466 
L 137.994212 258.16439 
L 140.560671 258.324342 
L 143.127131 259.400026 
L 145.69359 259.624299 
L 148.260049 258.675828 
L 153.392968 261.260447 
L 155.959428 260.284618 
L 158.525887 258.462802 
L 161.092346 258.75563 
L 163.658806 259.837214 
L 166.225265 257.775303 
L 168.791724 258.868424 
L 171.358184 258.336497 
L 176.491103 255.542196 
L 179.057562 256.98675 
L 181.624021 256.631531 
L 184.190481 256.88799 
L 186.75694 255.192134 
L 189.323399 254.669162 
L 191.889859 255.495647 
L 194.456318 254.219462 
L 197.022778 255.445818 
L 199.589237 254.424524 
L 202.155696 254.665715 
L 204.722156 253.422366 
L 207.288615 251.475278 
L 209.855075 254.335218 
L 212.421534 251.603402 
L 214.987993 251.221374 
L 217.554453 252.0952 
L 220.120912 249.277804 
L 222.687371 251.319201 
L 225.253831 249.10272 
L 227.82029 250.663558 
L 230.38675 249.248637 
L 232.953209 248.54165 
L 235.519668 247.54324 
L 238.086128 248.388845 
L 240.652587 247.821785 
L 243.219047 247.385403 
L 245.785506 245.82779 
L 248.351965 247.054636 
L 250.918425 245.684783 
L 253.484884 244.695717 
L 256.051343 244.23624 
L 258.617803 243.59755 
L 261.184262 243.843476 
L 263.750722 243.299981 
L 266.317181 243.727298 
L 268.88364 239.635742 
L 271.4501 242.71392 
L 274.016559 242.498608 
L 276.583019 241.327782 
L 279.149478 240.693568 
L 281.715937 240.887217 
L 284.282397 240.629628 
L 286.848856 217.587515 
L 289.415315 225.563461 
L 291.981775 230.956609 
L 294.548234 232.548153 
L 297.114694 232.874167 
L 299.681153 234.039834 
L 302.247612 234.406543 
L 304.814072 235.093878 
L 307.380531 235.531939 
L 309.94699 236.142018 
L 317.646369 236.090506 
L 320.212828 235.356006 
L 322.779287 235.09196 
L 325.345747 234.648576 
L 327.912206 226.462333 
L 330.478666 234.049121 
L 333.045125 232.738846 
L 335.611584 232.8747 
L 338.178044 232.208428 
L 340.744503 231.887305 
L 343.310962 231.030508 
L 351.010341 229.494748 
L 353.5768 229.113751 
L 356.143259 228.246027 
L 358.709719 227.497557 
L 361.276178 227.057561 
L 363.842638 226.162849 
L 366.409097 223.120777 
L 368.975556 224.939478 
L 371.542016 223.597282 
L 374.108475 222.974264 
L 376.674934 221.91483 
L 379.241394 221.570548 
L 381.807853 220.112131 
L 386.940772 218.531205 
L 389.507231 217.615091 
L 392.073691 216.438745 
L 394.64015 215.750131 
L 397.206609 214.662279 
L 397.206609 214.662279 
" style="fill:none;stroke:#98df8a;stroke-linecap:square;stroke-opacity:0.5;stroke-width:1.5;"/>
   </g>
   <g id="line2d_33">
    <path clip-path="url(#p449e957c29)" d="M 75.806335 278.93855 
L 79.065738 292.573773 
L 82.325141 294.39034 
L 85.584545 290.886777 
L 88.843948 292.431815 
L 92.103352 293.879207 
L 95.362755 293.66043 
L 98.622158 292.481626 
L 101.881562 292.02658 
L 105.140965 290.796284 
L 108.400369 289.571116 
L 111.659772 289.633473 
L 114.919176 287.38039 
L 118.178579 286.065835 
L 121.437982 283.963364 
L 124.697386 283.213261 
L 127.956789 281.876029 
L 131.216193 274.226329 
L 134.475596 271.311694 
L 137.734999 259.673976 
L 140.994403 256.474489 
L 144.253806 258.368014 
L 147.51321 255.001758 
L 150.772613 250.690995 
L 154.032017 250.717462 
L 157.29142 256.286702 
L 160.550823 251.204431 
L 163.810227 251.455479 
L 167.06963 248.651828 
L 170.329034 237.025466 
L 173.588437 247.478862 
L 176.84784 251.349183 
L 180.107244 248.538512 
L 183.366647 250.890359 
L 186.626051 246.502195 
L 189.885454 244.24313 
L 193.144858 245.455422 
L 196.404261 245.155897 
L 199.663664 245.186093 
L 202.923068 245.485886 
L 206.182471 240.799476 
L 209.441875 241.28798 
L 212.701278 237.346898 
L 215.960681 239.818397 
L 219.220085 236.082501 
L 222.479488 233.093281 
L 225.738892 235.229817 
L 228.998295 234.878364 
L 232.257699 228.413095 
L 235.517102 231.527885 
L 238.776505 232.835647 
L 242.035909 233.089329 
L 245.295312 232.590917 
L 248.554716 232.884954 
L 251.814119 238.173714 
L 255.073522 231.324624 
L 258.332926 227.539377 
L 261.592329 224.197475 
L 264.851733 228.205344 
L 268.111136 223.51865 
L 271.37054 221.716887 
L 274.629943 217.865006 
L 277.889346 222.333016 
L 281.14875 219.837577 
L 284.408153 223.563665 
L 287.667557 220.303747 
L 290.92696 217.234081 
L 294.186363 215.360137 
L 297.445767 206.414259 
L 300.70517 209.35136 
L 303.964574 211.72162 
L 307.223977 211.037677 
L 310.48338 209.928314 
L 313.742784 211.273233 
L 317.002187 209.565332 
L 320.261591 211.876477 
L 323.520994 204.836209 
L 326.780398 200.640784 
L 330.039801 205.277306 
L 333.299204 201.750723 
L 336.558608 204.661103 
L 339.818011 204.933232 
L 343.077415 201.98461 
L 346.336818 204.258842 
L 349.596221 199.896711 
L 352.855625 198.009324 
L 356.115028 196.434596 
L 359.374432 195.986048 
L 362.633835 195.13932 
L 365.893239 194.654017 
L 369.152642 191.168375 
L 372.412045 193.813927 
L 375.671449 190.695655 
L 378.930852 187.864702 
L 382.190256 190.930329 
L 385.449659 184.791003 
L 388.709062 186.935855 
L 391.968466 184.578288 
L 395.227869 53.568 
L 398.487273 179.776595 
" style="fill:none;stroke:#d62728;stroke-linecap:square;stroke-width:1.5;"/>
   </g>
   <g id="line2d_34">
    <path clip-path="url(#p449e957c29)" d="M 73.832727 293.511224 
L 76.399187 288.039207 
L 78.965646 293.702151 
L 81.532105 295.122924 
L 84.098565 292.473562 
L 86.665024 291.744382 
L 89.231484 292.735097 
L 91.797943 293.957765 
L 94.364402 294.173814 
L 96.930862 293.786416 
L 102.06378 292.371562 
L 104.63024 291.215686 
L 107.196699 290.368084 
L 109.763159 290.25104 
L 112.329618 289.812601 
L 114.896077 288.325615 
L 122.595456 285.112849 
L 125.161915 284.171158 
L 127.728374 283.974452 
L 130.294834 275.778308 
L 132.861293 272.477294 
L 135.427752 268.053294 
L 137.994212 261.175987 
L 140.560671 257.953916 
L 143.127131 258.440671 
L 145.69359 258.534228 
L 148.260049 257.000573 
L 150.826509 254.493887 
L 153.392968 255.125866 
L 155.959428 254.527019 
L 158.525887 257.215202 
L 161.092346 255.758616 
L 163.658806 256.465279 
L 166.225265 256.3266 
L 171.358184 254.439629 
L 173.924643 255.422619 
L 179.057562 256.107238 
L 181.624021 255.264471 
L 184.190481 255.843314 
L 186.75694 254.831818 
L 189.323399 252.808026 
L 191.889859 253.550479 
L 194.456318 252.184688 
L 197.022778 253.35187 
L 199.589237 252.34839 
L 202.155696 252.886673 
L 204.722156 251.755468 
L 207.288615 251.354213 
L 209.855075 250.063806 
L 212.421534 249.92218 
L 214.987993 248.69814 
L 217.554453 248.218636 
L 220.120912 247.888983 
L 222.687371 248.409417 
L 225.253831 248.041284 
L 227.82029 247.502679 
L 230.38675 248.112022 
L 232.953209 246.836944 
L 235.519668 246.930947 
L 240.652587 246.566672 
L 243.219047 246.202043 
L 245.785506 245.590815 
L 248.351965 245.833798 
L 250.918425 242.992859 
L 253.484884 243.833622 
L 256.051343 244.51916 
L 258.617803 242.948131 
L 261.184262 240.78335 
L 263.750722 242.089791 
L 271.4501 239.828081 
L 274.016559 240.718096 
L 276.583019 239.637937 
L 279.149478 241.033226 
L 281.715937 241.068199 
L 284.282397 240.228227 
L 286.848856 238.910042 
L 289.415315 234.345276 
L 291.981775 227.708838 
L 294.548234 227.496344 
L 297.114694 227.131591 
L 299.681153 228.371998 
L 302.247612 231.580259 
L 304.814072 229.809685 
L 307.380531 231.735422 
L 309.94699 231.334876 
L 312.51345 232.792061 
L 315.079909 232.370292 
L 317.646369 232.374118 
L 320.212828 232.136307 
L 322.779287 230.299286 
L 325.345747 230.381489 
L 327.912206 229.462333 
L 330.478666 231.023805 
L 333.045125 229.447834 
L 335.611584 229.988206 
L 338.178044 228.504244 
L 340.744503 230.766225 
L 345.877422 225.477491 
L 348.443881 228.167924 
L 351.010341 226.56293 
L 353.5768 226.070123 
L 356.143259 225.85449 
L 358.709719 226.318016 
L 361.276178 225.882452 
L 363.842638 225.715162 
L 366.409097 224.839169 
L 368.975556 224.975077 
L 371.542016 224.377993 
L 374.108475 224.735814 
L 376.674934 224.169744 
L 379.241394 223.470161 
L 381.807853 223.548141 
L 384.374313 222.327971 
L 386.940772 222.008307 
L 389.507231 221.857284 
L 392.073691 221.406502 
L 394.64015 213.70511 
L 397.206609 219.5147 
L 397.206609 219.5147 
" style="fill:none;stroke:#ff9896;stroke-linecap:square;stroke-opacity:0.5;stroke-width:1.5;"/>
   </g>
   <g id="line2d_35">
    <path clip-path="url(#p449e957c29)" d="M 75.806335 252.579199 
L 79.065738 250.109911 
L 82.325141 285.345432 
L 85.584545 274.665818 
L 88.843948 274.622136 
L 92.103352 280.447993 
L 95.362755 271.394626 
L 98.622158 277.575939 
L 101.881562 275.605984 
L 105.140965 272.672949 
L 108.400369 279.701026 
L 111.659772 267.332359 
L 114.919176 268.377149 
L 118.178579 272.097353 
L 121.437982 276.167428 
L 124.697386 277.21157 
L 127.956789 280.351981 
L 131.216193 276.516907 
L 134.475596 272.152654 
L 137.734999 275.986522 
L 140.994403 274.634911 
L 144.253806 273.150074 
L 147.51321 271.7241 
L 150.772613 274.210551 
L 154.032017 269.261307 
L 157.29142 264.286239 
L 160.550823 270.004613 
L 163.810227 268.61072 
L 167.06963 264.317261 
L 170.329034 264.342029 
L 173.588437 265.469324 
L 176.84784 266.514869 
L 180.107244 257.183961 
L 183.366647 260.423606 
L 186.626051 254.577627 
L 189.885454 254.59249 
L 193.144858 255.499552 
L 196.404261 248.315518 
L 199.663664 247.279053 
L 202.923068 252.778916 
L 206.182471 254.052836 
L 209.441875 248.97805 
L 212.701278 250.878693 
L 215.960681 249.327949 
L 219.220085 250.918697 
L 222.479488 249.523447 
L 225.738892 248.250097 
L 228.998295 249.597545 
L 232.257699 242.452641 
L 235.517102 243.875857 
L 238.776505 234.773206 
L 242.035909 232.006982 
L 245.295312 235.935597 
L 248.554716 237.807117 
L 251.814119 232.781505 
L 255.073522 227.814942 
L 258.332926 223.126147 
L 261.592329 229.062276 
L 264.851733 234.26098 
L 268.111136 227.821849 
L 271.37054 229.768351 
L 274.629943 210.981742 
L 277.889346 229.424601 
L 281.14875 228.072668 
L 284.408153 227.863652 
L 287.667557 226.113916 
L 290.92696 222.842121 
L 294.186363 222.635093 
L 297.445767 223.539494 
L 300.70517 225.093476 
L 303.964574 219.634661 
L 307.223977 213.144362 
L 310.48338 222.418538 
L 313.742784 220.974887 
L 317.002187 215.856939 
L 320.261591 217.740379 
L 323.520994 214.9265 
L 326.780398 215.676682 
L 330.039801 216.14232 
L 333.299204 210.556112 
L 336.558608 214.396814 
L 339.818011 211.165983 
L 343.077415 211.332452 
L 346.336818 213.1471 
L 349.596221 214.318128 
L 352.855625 216.007289 
L 356.115028 213.689655 
L 359.374432 213.264112 
L 362.633835 210.618097 
L 365.893239 213.202958 
L 369.152642 210.617959 
L 372.412045 207.208133 
L 375.671449 215.317748 
L 378.930852 205.993019 
L 382.190256 208.07957 
L 385.449659 207.146937 
L 388.709062 207.440738 
L 391.968466 203.384751 
L 395.227869 207.450747 
L 398.487273 209.959602 
" style="fill:none;stroke:#9467bd;stroke-linecap:square;stroke-width:1.5;"/>
   </g>
   <g id="line2d_36">
    <path clip-path="url(#p449e957c29)" d="M 73.832727 277.460463 
L 76.399187 265.906761 
L 78.965646 271.373403 
L 81.532105 281.831384 
L 84.098565 280.771003 
L 86.665024 276.599047 
L 89.231484 279.250709 
L 91.797943 277.157438 
L 94.364402 273.512862 
L 96.930862 275.506325 
L 99.497321 273.222671 
L 102.06378 273.901058 
L 104.63024 271.605055 
L 107.196699 272.537156 
L 109.763159 274.731801 
L 112.329618 266.76319 
L 114.896077 270.697643 
L 117.462537 272.462809 
L 120.028996 269.757872 
L 122.595456 274.206568 
L 125.161915 277.565805 
L 127.728374 278.426066 
L 130.294834 278.104537 
L 132.861293 277.008769 
L 135.427752 277.97865 
L 140.560671 274.542373 
L 143.127131 274.13507 
L 145.69359 273.148001 
L 148.260049 272.64865 
L 150.826509 271.012835 
L 158.525887 269.369076 
L 161.092346 268.130256 
L 163.658806 267.877784 
L 166.225265 266.794573 
L 168.791724 265.131182 
L 171.358184 265.081426 
L 173.924643 267.577081 
L 176.491103 265.450168 
L 179.057562 261.692615 
L 181.624021 258.849956 
L 184.190481 257.539905 
L 186.75694 254.359452 
L 189.323399 254.105004 
L 191.889859 252.319721 
L 194.456318 252.011399 
L 197.022778 250.627758 
L 199.589237 249.800249 
L 202.155696 251.264152 
L 204.722156 251.234676 
L 207.288615 251.882731 
L 209.855075 252.088846 
L 212.421534 252.46172 
L 214.987993 253.240735 
L 217.554453 252.780741 
L 220.120912 250.971278 
L 222.687371 251.282778 
L 225.253831 249.653647 
L 227.82029 248.270338 
L 230.38675 244.866055 
L 232.953209 243.746222 
L 235.519668 241.827954 
L 238.086128 240.111753 
L 240.652587 238.560662 
L 243.219047 237.245233 
L 245.785506 237.789008 
L 248.351965 236.959089 
L 250.918425 235.689585 
L 253.484884 234.604381 
L 256.051343 229.672367 
L 258.617803 228.06061 
L 261.184262 231.07593 
L 263.750722 233.898482 
L 266.317181 233.246289 
L 268.88364 233.556812 
L 271.4501 232.325462 
L 276.583019 232.458532 
L 279.149478 231.982285 
L 281.715937 229.836838 
L 284.282397 229.484467 
L 286.848856 228.676652 
L 289.415315 228.083896 
L 291.981775 226.926733 
L 294.548234 227.640296 
L 297.114694 227.608053 
L 299.681153 226.796818 
L 302.247612 226.529539 
L 304.814072 224.689368 
L 307.380531 225.723295 
L 309.94699 225.680229 
L 312.51345 225.799159 
L 315.079909 224.161841 
L 317.646369 222.225589 
L 320.212828 221.923472 
L 322.779287 220.407472 
L 325.345747 219.95696 
L 327.912206 220.614828 
L 330.478666 220.549075 
L 333.045125 219.122516 
L 335.611584 218.949706 
L 338.178044 219.060335 
L 340.744503 218.40861 
L 343.310962 219.221017 
L 345.877422 220.949765 
L 348.443881 222.21969 
L 351.010341 221.868744 
L 353.5768 224.145519 
L 356.143259 221.583528 
L 358.709719 221.288206 
L 363.842638 219.584167 
L 366.409097 219.697422 
L 368.975556 219.606934 
L 371.542016 217.639722 
L 374.108475 219.834386 
L 376.674934 219.638272 
L 379.241394 217.287568 
L 381.807853 216.633747 
L 384.374313 217.265539 
L 386.940772 216.966805 
L 389.507231 216.801226 
L 392.073691 216.885 
L 394.64015 216.649532 
L 397.206609 216.605919 
L 397.206609 216.605919 
" style="fill:none;stroke:#c5b0d5;stroke-linecap:square;stroke-opacity:0.5;stroke-width:1.5;"/>
   </g>
   <g id="patch_3">
    <path d="M 57.6 307.584 
L 57.6 41.472 
" style="fill:none;stroke:#000000;stroke-linecap:square;stroke-linejoin:miter;stroke-width:0.8;"/>
   </g>
   <g id="patch_4">
    <path d="M 414.72 307.584 
L 414.72 41.472 
" style="fill:none;stroke:#000000;stroke-linecap:square;stroke-linejoin:miter;stroke-width:0.8;"/>
   </g>
   <g id="patch_5">
    <path d="M 57.6 307.584 
L 414.72 307.584 
" style="fill:none;stroke:#000000;stroke-linecap:square;stroke-linejoin:miter;stroke-width:0.8;"/>
   </g>
   <g id="patch_6">
    <path d="M 57.6 41.472 
L 414.72 41.472 
" style="fill:none;stroke:#000000;stroke-linecap:square;stroke-linejoin:miter;stroke-width:0.8;"/>
   </g>
   <g id="text_16">
    <!-- Feature Matching -->
    <defs>
     <path d="M 48.78125 52.59375 
L 48.78125 44.1875 
Q 44.96875 46.296875 41.140625 47.34375 
Q 37.3125 48.390625 33.40625 48.390625 
Q 24.65625 48.390625 19.8125 42.84375 
Q 14.984375 37.3125 14.984375 27.296875 
Q 14.984375 17.28125 19.8125 11.734375 
Q 24.65625 6.203125 33.40625 6.203125 
Q 37.3125 6.203125 41.140625 7.25 
Q 44.96875 8.296875 48.78125 10.40625 
L 48.78125 2.09375 
Q 45.015625 0.34375 40.984375 -0.53125 
Q 36.96875 -1.421875 32.421875 -1.421875 
Q 20.0625 -1.421875 12.78125 6.34375 
Q 5.515625 14.109375 5.515625 27.296875 
Q 5.515625 40.671875 12.859375 48.328125 
Q 20.21875 56 33.015625 56 
Q 37.15625 56 41.109375 55.140625 
Q 45.0625 54.296875 48.78125 52.59375 
z
" id="DejaVuSans-99"/>
    </defs>
    <g transform="translate(183.540937 35.472)scale(0.12 -0.12)">
     <use xlink:href="#DejaVuSans-70"/>
     <use x="57.441406" xlink:href="#DejaVuSans-101"/>
     <use x="118.964844" xlink:href="#DejaVuSans-97"/>
     <use x="180.244141" xlink:href="#DejaVuSans-116"/>
     <use x="219.453125" xlink:href="#DejaVuSans-117"/>
     <use x="282.832031" xlink:href="#DejaVuSans-114"/>
     <use x="323.914062" xlink:href="#DejaVuSans-101"/>
     <use x="385.4375" xlink:href="#DejaVuSans-32"/>
     <use x="417.224609" xlink:href="#DejaVuSans-77"/>
     <use x="503.503906" xlink:href="#DejaVuSans-97"/>
     <use x="564.783203" xlink:href="#DejaVuSans-116"/>
     <use x="603.992188" xlink:href="#DejaVuSans-99"/>
     <use x="658.972656" xlink:href="#DejaVuSans-104"/>
     <use x="722.351562" xlink:href="#DejaVuSans-105"/>
     <use x="750.134766" xlink:href="#DejaVuSans-110"/>
     <use x="813.513672" xlink:href="#DejaVuSans-103"/>
    </g>
   </g>
   <g id="legend_1">
    <g id="patch_7">
     <path d="M 64.6 196.87825 
L 162.66875 196.87825 
Q 164.66875 196.87825 164.66875 194.87825 
L 164.66875 48.472 
Q 164.66875 46.472 162.66875 46.472 
L 64.6 46.472 
Q 62.6 46.472 62.6 48.472 
L 62.6 194.87825 
Q 62.6 196.87825 64.6 196.87825 
z
" style="fill:#ffffff;opacity:0.8;stroke:#cccccc;stroke-linejoin:miter;"/>
    </g>
    <g id="line2d_37">
     <path d="M 66.6 54.632937 
L 86.6 54.632937 
" style="fill:none;stroke:#1f77b4;stroke-linecap:square;stroke-width:1.5;"/>
    </g>
    <g id="line2d_38"/>
    <g id="text_17">
     <!-- =0.1 - Test -->
     <defs>
      <path d="M 18.40625 3.375 
L 18.40625 -20.796875 
L 9.375 -20.796875 
L 9.375 54.34375 
Q 9.375 76.609375 30.171875 76.609375 
Q 51.375 76.609375 51.375 57.8125 
Q 51.375 44.4375 42.96875 39.546875 
Q 56.640625 35.15625 56.640625 22.125 
Q 56.640625 -1.03125 33.109375 -1.03125 
Q 22.75 -1.03125 18.40625 3.375 
z
M 18.40625 15.09375 
Q 23.828125 6.640625 33.453125 6.640625 
Q 47.515625 6.640625 47.515625 21.96875 
Q 47.515625 35.75 24.859375 34.671875 
L 24.859375 42.96875 
Q 42.578125 42.96875 42.578125 58.59375 
Q 42.578125 69.28125 31.15625 69.28125 
Q 18.40625 69.28125 18.40625 54.046875 
z
" id="DejaVuSans-946"/>
      <path d="M 10.59375 45.40625 
L 73.1875 45.40625 
L 73.1875 37.203125 
L 10.59375 37.203125 
z
M 10.59375 25.484375 
L 73.1875 25.484375 
L 73.1875 17.1875 
L 10.59375 17.1875 
z
" id="DejaVuSans-61"/>
      <path d="M 10.6875 12.40625 
L 21 12.40625 
L 21 0 
L 10.6875 0 
z
" id="DejaVuSans-46"/>
      <path d="M 4.890625 31.390625 
L 31.203125 31.390625 
L 31.203125 23.390625 
L 4.890625 23.390625 
z
" id="DejaVuSans-45"/>
      <path d="M -0.296875 72.90625 
L 61.375 72.90625 
L 61.375 64.59375 
L 35.5 64.59375 
L 35.5 0 
L 25.59375 0 
L 25.59375 64.59375 
L -0.296875 64.59375 
z
" id="DejaVuSans-84"/>
     </defs>
     <g transform="translate(94.6 58.132937)scale(0.1 -0.1)">
      <use xlink:href="#DejaVuSans-946"/>
      <use x="63.818359" xlink:href="#DejaVuSans-61"/>
      <use x="147.607422" xlink:href="#DejaVuSans-48"/>
      <use x="211.230469" xlink:href="#DejaVuSans-46"/>
      <use x="243.017578" xlink:href="#DejaVuSans-49"/>
      <use x="306.640625" xlink:href="#DejaVuSans-32"/>
      <use x="338.427734" xlink:href="#DejaVuSans-45"/>
      <use x="374.511719" xlink:href="#DejaVuSans-32"/>
      <use x="406.298828" xlink:href="#DejaVuSans-84"/>
      <use x="467.117188" xlink:href="#DejaVuSans-101"/>
      <use x="528.640625" xlink:href="#DejaVuSans-115"/>
      <use x="580.740234" xlink:href="#DejaVuSans-116"/>
     </g>
    </g>
    <g id="line2d_39">
     <path d="M 66.6 69.373562 
L 86.6 69.373562 
" style="fill:none;stroke:#aec7e8;stroke-linecap:square;stroke-opacity:0.5;stroke-width:1.5;"/>
    </g>
    <g id="line2d_40"/>
    <g id="text_18">
     <!-- =0.1 - Train -->
     <g transform="translate(94.6 72.873562)scale(0.1 -0.1)">
      <use xlink:href="#DejaVuSans-946"/>
      <use x="63.818359" xlink:href="#DejaVuSans-61"/>
      <use x="147.607422" xlink:href="#DejaVuSans-48"/>
      <use x="211.230469" xlink:href="#DejaVuSans-46"/>
      <use x="243.017578" xlink:href="#DejaVuSans-49"/>
      <use x="306.640625" xlink:href="#DejaVuSans-32"/>
      <use x="338.427734" xlink:href="#DejaVuSans-45"/>
      <use x="374.511719" xlink:href="#DejaVuSans-32"/>
      <use x="406.298828" xlink:href="#DejaVuSans-84"/>
      <use x="467.164062" xlink:href="#DejaVuSans-114"/>
      <use x="508.277344" xlink:href="#DejaVuSans-97"/>
      <use x="569.556641" xlink:href="#DejaVuSans-105"/>
      <use x="597.339844" xlink:href="#DejaVuSans-110"/>
     </g>
    </g>
    <g id="line2d_41">
     <path d="M 66.6 84.114188 
L 86.6 84.114188 
" style="fill:none;stroke:#ff7f0e;stroke-linecap:square;stroke-width:1.5;"/>
    </g>
    <g id="line2d_42"/>
    <g id="text_19">
     <!-- =1 - Test -->
     <g transform="translate(94.6 87.614188)scale(0.1 -0.1)">
      <use xlink:href="#DejaVuSans-946"/>
      <use x="63.818359" xlink:href="#DejaVuSans-61"/>
      <use x="147.607422" xlink:href="#DejaVuSans-49"/>
      <use x="211.230469" xlink:href="#DejaVuSans-32"/>
      <use x="243.017578" xlink:href="#DejaVuSans-45"/>
      <use x="279.101562" xlink:href="#DejaVuSans-32"/>
      <use x="310.888672" xlink:href="#DejaVuSans-84"/>
      <use x="371.707031" xlink:href="#DejaVuSans-101"/>
      <use x="433.230469" xlink:href="#DejaVuSans-115"/>
      <use x="485.330078" xlink:href="#DejaVuSans-116"/>
     </g>
    </g>
    <g id="line2d_43">
     <path d="M 66.6 98.854812 
L 86.6 98.854812 
" style="fill:none;stroke:#ffbb78;stroke-linecap:square;stroke-opacity:0.5;stroke-width:1.5;"/>
    </g>
    <g id="line2d_44"/>
    <g id="text_20">
     <!-- =1 - Train -->
     <g transform="translate(94.6 102.354812)scale(0.1 -0.1)">
      <use xlink:href="#DejaVuSans-946"/>
      <use x="63.818359" xlink:href="#DejaVuSans-61"/>
      <use x="147.607422" xlink:href="#DejaVuSans-49"/>
      <use x="211.230469" xlink:href="#DejaVuSans-32"/>
      <use x="243.017578" xlink:href="#DejaVuSans-45"/>
      <use x="279.101562" xlink:href="#DejaVuSans-32"/>
      <use x="310.888672" xlink:href="#DejaVuSans-84"/>
      <use x="371.753906" xlink:href="#DejaVuSans-114"/>
      <use x="412.867188" xlink:href="#DejaVuSans-97"/>
      <use x="474.146484" xlink:href="#DejaVuSans-105"/>
      <use x="501.929688" xlink:href="#DejaVuSans-110"/>
     </g>
    </g>
    <g id="line2d_45">
     <path d="M 66.6 113.595438 
L 86.6 113.595438 
" style="fill:none;stroke:#2ca02c;stroke-linecap:square;stroke-width:1.5;"/>
    </g>
    <g id="line2d_46"/>
    <g id="text_21">
     <!-- =2 - Test -->
     <g transform="translate(94.6 117.095438)scale(0.1 -0.1)">
      <use xlink:href="#DejaVuSans-946"/>
      <use x="63.818359" xlink:href="#DejaVuSans-61"/>
      <use x="147.607422" xlink:href="#DejaVuSans-50"/>
      <use x="211.230469" xlink:href="#DejaVuSans-32"/>
      <use x="243.017578" xlink:href="#DejaVuSans-45"/>
      <use x="279.101562" xlink:href="#DejaVuSans-32"/>
      <use x="310.888672" xlink:href="#DejaVuSans-84"/>
      <use x="371.707031" xlink:href="#DejaVuSans-101"/>
      <use x="433.230469" xlink:href="#DejaVuSans-115"/>
      <use x="485.330078" xlink:href="#DejaVuSans-116"/>
     </g>
    </g>
    <g id="line2d_47">
     <path d="M 66.6 128.336062 
L 86.6 128.336062 
" style="fill:none;stroke:#98df8a;stroke-linecap:square;stroke-opacity:0.5;stroke-width:1.5;"/>
    </g>
    <g id="line2d_48"/>
    <g id="text_22">
     <!-- =2 - Train -->
     <g transform="translate(94.6 131.836062)scale(0.1 -0.1)">
      <use xlink:href="#DejaVuSans-946"/>
      <use x="63.818359" xlink:href="#DejaVuSans-61"/>
      <use x="147.607422" xlink:href="#DejaVuSans-50"/>
      <use x="211.230469" xlink:href="#DejaVuSans-32"/>
      <use x="243.017578" xlink:href="#DejaVuSans-45"/>
      <use x="279.101562" xlink:href="#DejaVuSans-32"/>
      <use x="310.888672" xlink:href="#DejaVuSans-84"/>
      <use x="371.753906" xlink:href="#DejaVuSans-114"/>
      <use x="412.867188" xlink:href="#DejaVuSans-97"/>
      <use x="474.146484" xlink:href="#DejaVuSans-105"/>
      <use x="501.929688" xlink:href="#DejaVuSans-110"/>
     </g>
    </g>
    <g id="line2d_49">
     <path d="M 66.6 143.076687 
L 86.6 143.076687 
" style="fill:none;stroke:#d62728;stroke-linecap:square;stroke-width:1.5;"/>
    </g>
    <g id="line2d_50"/>
    <g id="text_23">
     <!-- =4 - Test -->
     <g transform="translate(94.6 146.576687)scale(0.1 -0.1)">
      <use xlink:href="#DejaVuSans-946"/>
      <use x="63.818359" xlink:href="#DejaVuSans-61"/>
      <use x="147.607422" xlink:href="#DejaVuSans-52"/>
      <use x="211.230469" xlink:href="#DejaVuSans-32"/>
      <use x="243.017578" xlink:href="#DejaVuSans-45"/>
      <use x="279.101562" xlink:href="#DejaVuSans-32"/>
      <use x="310.888672" xlink:href="#DejaVuSans-84"/>
      <use x="371.707031" xlink:href="#DejaVuSans-101"/>
      <use x="433.230469" xlink:href="#DejaVuSans-115"/>
      <use x="485.330078" xlink:href="#DejaVuSans-116"/>
     </g>
    </g>
    <g id="line2d_51">
     <path d="M 66.6 157.817312 
L 86.6 157.817312 
" style="fill:none;stroke:#ff9896;stroke-linecap:square;stroke-opacity:0.5;stroke-width:1.5;"/>
    </g>
    <g id="line2d_52"/>
    <g id="text_24">
     <!-- =4 - Train -->
     <g transform="translate(94.6 161.317312)scale(0.1 -0.1)">
      <use xlink:href="#DejaVuSans-946"/>
      <use x="63.818359" xlink:href="#DejaVuSans-61"/>
      <use x="147.607422" xlink:href="#DejaVuSans-52"/>
      <use x="211.230469" xlink:href="#DejaVuSans-32"/>
      <use x="243.017578" xlink:href="#DejaVuSans-45"/>
      <use x="279.101562" xlink:href="#DejaVuSans-32"/>
      <use x="310.888672" xlink:href="#DejaVuSans-84"/>
      <use x="371.753906" xlink:href="#DejaVuSans-114"/>
      <use x="412.867188" xlink:href="#DejaVuSans-97"/>
      <use x="474.146484" xlink:href="#DejaVuSans-105"/>
      <use x="501.929688" xlink:href="#DejaVuSans-110"/>
     </g>
    </g>
    <g id="line2d_53">
     <path d="M 66.6 172.557937 
L 86.6 172.557937 
" style="fill:none;stroke:#9467bd;stroke-linecap:square;stroke-width:1.5;"/>
    </g>
    <g id="line2d_54"/>
    <g id="text_25">
     <!-- =8 - Test -->
     <g transform="translate(94.6 176.057937)scale(0.1 -0.1)">
      <use xlink:href="#DejaVuSans-946"/>
      <use x="63.818359" xlink:href="#DejaVuSans-61"/>
      <use x="147.607422" xlink:href="#DejaVuSans-56"/>
      <use x="211.230469" xlink:href="#DejaVuSans-32"/>
      <use x="243.017578" xlink:href="#DejaVuSans-45"/>
      <use x="279.101562" xlink:href="#DejaVuSans-32"/>
      <use x="310.888672" xlink:href="#DejaVuSans-84"/>
      <use x="371.707031" xlink:href="#DejaVuSans-101"/>
      <use x="433.230469" xlink:href="#DejaVuSans-115"/>
      <use x="485.330078" xlink:href="#DejaVuSans-116"/>
     </g>
    </g>
    <g id="line2d_55">
     <path d="M 66.6 187.298562 
L 86.6 187.298562 
" style="fill:none;stroke:#c5b0d5;stroke-linecap:square;stroke-opacity:0.5;stroke-width:1.5;"/>
    </g>
    <g id="line2d_56"/>
    <g id="text_26">
     <!-- =8 - Train -->
     <g transform="translate(94.6 190.798562)scale(0.1 -0.1)">
      <use xlink:href="#DejaVuSans-946"/>
      <use x="63.818359" xlink:href="#DejaVuSans-61"/>
      <use x="147.607422" xlink:href="#DejaVuSans-56"/>
      <use x="211.230469" xlink:href="#DejaVuSans-32"/>
      <use x="243.017578" xlink:href="#DejaVuSans-45"/>
      <use x="279.101562" xlink:href="#DejaVuSans-32"/>
      <use x="310.888672" xlink:href="#DejaVuSans-84"/>
      <use x="371.753906" xlink:href="#DejaVuSans-114"/>
      <use x="412.867188" xlink:href="#DejaVuSans-97"/>
      <use x="474.146484" xlink:href="#DejaVuSans-105"/>
      <use x="501.929688" xlink:href="#DejaVuSans-110"/>
     </g>
    </g>
   </g>
  </g>
 </g>
 <defs>
  <clipPath id="p449e957c29">
   <rect height="266.112" width="357.12" x="57.6" y="41.472"/>
  </clipPath>
 </defs>
</svg>
