<?xml version="1.0" encoding="utf-8" standalone="no"?>
<!DOCTYPE svg PUBLIC "-//W3C//DTD SVG 1.1//EN"
  "http://www.w3.org/Graphics/SVG/1.1/DTD/svg11.dtd">
<!-- Created with matplotlib (https://matplotlib.org/) -->
<svg height="345.6pt" version="1.1" viewBox="0 0 460.8 345.6" width="460.8pt" xmlns="http://www.w3.org/2000/svg" xmlns:xlink="http://www.w3.org/1999/xlink">
 <defs>
  <style type="text/css">
*{stroke-linecap:butt;stroke-linejoin:round;}
  </style>
 </defs>
 <g id="figure_1">
  <g id="patch_1">
   <path d="M 0 345.6 
L 460.8 345.6 
L 460.8 0 
L 0 0 
z
" style="fill:#ffffff;"/>
  </g>
  <g id="axes_1">
   <g id="patch_2">
    <path d="M 57.6 307.584 
L 414.72 307.584 
L 414.72 41.472 
L 57.6 41.472 
z
" style="fill:#ffffff;"/>
   </g>
   <g id="matplotlib.axis_1">
    <g id="xtick_1">
     <g id="line2d_1">
      <path clip-path="url(#p1545e58089)" d="M 72.546931 307.584 
L 72.546931 41.472 
" style="fill:none;stroke:#b0b0b0;stroke-linecap:square;stroke-width:0.8;"/>
     </g>
     <g id="line2d_2">
      <defs>
       <path d="M 0 0 
L 0 3.5 
" id="m37a125894b" style="stroke:#000000;stroke-width:0.8;"/>
      </defs>
      <g>
       <use style="stroke:#000000;stroke-width:0.8;" x="72.546931" xlink:href="#m37a125894b" y="307.584"/>
      </g>
     </g>
     <g id="text_1">
      <!-- 0 -->
      <defs>
       <path d="M 31.78125 66.40625 
Q 24.171875 66.40625 20.328125 58.90625 
Q 16.5 51.421875 16.5 36.375 
Q 16.5 21.390625 20.328125 13.890625 
Q 24.171875 6.390625 31.78125 6.390625 
Q 39.453125 6.390625 43.28125 13.890625 
Q 47.125 21.390625 47.125 36.375 
Q 47.125 51.421875 43.28125 58.90625 
Q 39.453125 66.40625 31.78125 66.40625 
z
M 31.78125 74.21875 
Q 44.046875 74.21875 50.515625 64.515625 
Q 56.984375 54.828125 56.984375 36.375 
Q 56.984375 17.96875 50.515625 8.265625 
Q 44.046875 -1.421875 31.78125 -1.421875 
Q 19.53125 -1.421875 13.0625 8.265625 
Q 6.59375 17.96875 6.59375 36.375 
Q 6.59375 54.828125 13.0625 64.515625 
Q 19.53125 74.21875 31.78125 74.21875 
z
" id="DejaVuSans-48"/>
      </defs>
      <g transform="translate(69.365681 322.182437)scale(0.1 -0.1)">
       <use xlink:href="#DejaVuSans-48"/>
      </g>
     </g>
    </g>
    <g id="xtick_2">
     <g id="line2d_3">
      <path clip-path="url(#p1545e58089)" d="M 123.876119 307.584 
L 123.876119 41.472 
" style="fill:none;stroke:#b0b0b0;stroke-linecap:square;stroke-width:0.8;"/>
     </g>
     <g id="line2d_4">
      <g>
       <use style="stroke:#000000;stroke-width:0.8;" x="123.876119" xlink:href="#m37a125894b" y="307.584"/>
      </g>
     </g>
     <g id="text_2">
      <!-- 10000 -->
      <defs>
       <path d="M 12.40625 8.296875 
L 28.515625 8.296875 
L 28.515625 63.921875 
L 10.984375 60.40625 
L 10.984375 69.390625 
L 28.421875 72.90625 
L 38.28125 72.90625 
L 38.28125 8.296875 
L 54.390625 8.296875 
L 54.390625 0 
L 12.40625 0 
z
" id="DejaVuSans-49"/>
      </defs>
      <g transform="translate(107.969869 322.182437)scale(0.1 -0.1)">
       <use xlink:href="#DejaVuSans-49"/>
       <use x="63.623047" xlink:href="#DejaVuSans-48"/>
       <use x="127.246094" xlink:href="#DejaVuSans-48"/>
       <use x="190.869141" xlink:href="#DejaVuSans-48"/>
       <use x="254.492188" xlink:href="#DejaVuSans-48"/>
      </g>
     </g>
    </g>
    <g id="xtick_3">
     <g id="line2d_5">
      <path clip-path="url(#p1545e58089)" d="M 175.205306 307.584 
L 175.205306 41.472 
" style="fill:none;stroke:#b0b0b0;stroke-linecap:square;stroke-width:0.8;"/>
     </g>
     <g id="line2d_6">
      <g>
       <use style="stroke:#000000;stroke-width:0.8;" x="175.205306" xlink:href="#m37a125894b" y="307.584"/>
      </g>
     </g>
     <g id="text_3">
      <!-- 20000 -->
      <defs>
       <path d="M 19.1875 8.296875 
L 53.609375 8.296875 
L 53.609375 0 
L 7.328125 0 
L 7.328125 8.296875 
Q 12.9375 14.109375 22.625 23.890625 
Q 32.328125 33.6875 34.8125 36.53125 
Q 39.546875 41.84375 41.421875 45.53125 
Q 43.3125 49.21875 43.3125 52.78125 
Q 43.3125 58.59375 39.234375 62.25 
Q 35.15625 65.921875 28.609375 65.921875 
Q 23.96875 65.921875 18.8125 64.3125 
Q 13.671875 62.703125 7.8125 59.421875 
L 7.8125 69.390625 
Q 13.765625 71.78125 18.9375 73 
Q 24.125 74.21875 28.421875 74.21875 
Q 39.75 74.21875 46.484375 68.546875 
Q 53.21875 62.890625 53.21875 53.421875 
Q 53.21875 48.921875 51.53125 44.890625 
Q 49.859375 40.875 45.40625 35.40625 
Q 44.1875 33.984375 37.640625 27.21875 
Q 31.109375 20.453125 19.1875 8.296875 
z
" id="DejaVuSans-50"/>
      </defs>
      <g transform="translate(159.299056 322.182437)scale(0.1 -0.1)">
       <use xlink:href="#DejaVuSans-50"/>
       <use x="63.623047" xlink:href="#DejaVuSans-48"/>
       <use x="127.246094" xlink:href="#DejaVuSans-48"/>
       <use x="190.869141" xlink:href="#DejaVuSans-48"/>
       <use x="254.492188" xlink:href="#DejaVuSans-48"/>
      </g>
     </g>
    </g>
    <g id="xtick_4">
     <g id="line2d_7">
      <path clip-path="url(#p1545e58089)" d="M 226.534494 307.584 
L 226.534494 41.472 
" style="fill:none;stroke:#b0b0b0;stroke-linecap:square;stroke-width:0.8;"/>
     </g>
     <g id="line2d_8">
      <g>
       <use style="stroke:#000000;stroke-width:0.8;" x="226.534494" xlink:href="#m37a125894b" y="307.584"/>
      </g>
     </g>
     <g id="text_4">
      <!-- 30000 -->
      <defs>
       <path d="M 40.578125 39.3125 
Q 47.65625 37.796875 51.625 33 
Q 55.609375 28.21875 55.609375 21.1875 
Q 55.609375 10.40625 48.1875 4.484375 
Q 40.765625 -1.421875 27.09375 -1.421875 
Q 22.515625 -1.421875 17.65625 -0.515625 
Q 12.796875 0.390625 7.625 2.203125 
L 7.625 11.71875 
Q 11.71875 9.328125 16.59375 8.109375 
Q 21.484375 6.890625 26.8125 6.890625 
Q 36.078125 6.890625 40.9375 10.546875 
Q 45.796875 14.203125 45.796875 21.1875 
Q 45.796875 27.640625 41.28125 31.265625 
Q 36.765625 34.90625 28.71875 34.90625 
L 20.21875 34.90625 
L 20.21875 43.015625 
L 29.109375 43.015625 
Q 36.375 43.015625 40.234375 45.921875 
Q 44.09375 48.828125 44.09375 54.296875 
Q 44.09375 59.90625 40.109375 62.90625 
Q 36.140625 65.921875 28.71875 65.921875 
Q 24.65625 65.921875 20.015625 65.03125 
Q 15.375 64.15625 9.8125 62.3125 
L 9.8125 71.09375 
Q 15.4375 72.65625 20.34375 73.4375 
Q 25.25 74.21875 29.59375 74.21875 
Q 40.828125 74.21875 47.359375 69.109375 
Q 53.90625 64.015625 53.90625 55.328125 
Q 53.90625 49.265625 50.4375 45.09375 
Q 46.96875 40.921875 40.578125 39.3125 
z
" id="DejaVuSans-51"/>
      </defs>
      <g transform="translate(210.628244 322.182437)scale(0.1 -0.1)">
       <use xlink:href="#DejaVuSans-51"/>
       <use x="63.623047" xlink:href="#DejaVuSans-48"/>
       <use x="127.246094" xlink:href="#DejaVuSans-48"/>
       <use x="190.869141" xlink:href="#DejaVuSans-48"/>
       <use x="254.492188" xlink:href="#DejaVuSans-48"/>
      </g>
     </g>
    </g>
    <g id="xtick_5">
     <g id="line2d_9">
      <path clip-path="url(#p1545e58089)" d="M 277.863682 307.584 
L 277.863682 41.472 
" style="fill:none;stroke:#b0b0b0;stroke-linecap:square;stroke-width:0.8;"/>
     </g>
     <g id="line2d_10">
      <g>
       <use style="stroke:#000000;stroke-width:0.8;" x="277.863682" xlink:href="#m37a125894b" y="307.584"/>
      </g>
     </g>
     <g id="text_5">
      <!-- 40000 -->
      <defs>
       <path d="M 37.796875 64.3125 
L 12.890625 25.390625 
L 37.796875 25.390625 
z
M 35.203125 72.90625 
L 47.609375 72.90625 
L 47.609375 25.390625 
L 58.015625 25.390625 
L 58.015625 17.1875 
L 47.609375 17.1875 
L 47.609375 0 
L 37.796875 0 
L 37.796875 17.1875 
L 4.890625 17.1875 
L 4.890625 26.703125 
z
" id="DejaVuSans-52"/>
      </defs>
      <g transform="translate(261.957432 322.182437)scale(0.1 -0.1)">
       <use xlink:href="#DejaVuSans-52"/>
       <use x="63.623047" xlink:href="#DejaVuSans-48"/>
       <use x="127.246094" xlink:href="#DejaVuSans-48"/>
       <use x="190.869141" xlink:href="#DejaVuSans-48"/>
       <use x="254.492188" xlink:href="#DejaVuSans-48"/>
      </g>
     </g>
    </g>
    <g id="xtick_6">
     <g id="line2d_11">
      <path clip-path="url(#p1545e58089)" d="M 329.192869 307.584 
L 329.192869 41.472 
" style="fill:none;stroke:#b0b0b0;stroke-linecap:square;stroke-width:0.8;"/>
     </g>
     <g id="line2d_12">
      <g>
       <use style="stroke:#000000;stroke-width:0.8;" x="329.192869" xlink:href="#m37a125894b" y="307.584"/>
      </g>
     </g>
     <g id="text_6">
      <!-- 50000 -->
      <defs>
       <path d="M 10.796875 72.90625 
L 49.515625 72.90625 
L 49.515625 64.59375 
L 19.828125 64.59375 
L 19.828125 46.734375 
Q 21.96875 47.46875 24.109375 47.828125 
Q 26.265625 48.1875 28.421875 48.1875 
Q 40.625 48.1875 47.75 41.5 
Q 54.890625 34.8125 54.890625 23.390625 
Q 54.890625 11.625 47.5625 5.09375 
Q 40.234375 -1.421875 26.90625 -1.421875 
Q 22.3125 -1.421875 17.546875 -0.640625 
Q 12.796875 0.140625 7.71875 1.703125 
L 7.71875 11.625 
Q 12.109375 9.234375 16.796875 8.0625 
Q 21.484375 6.890625 26.703125 6.890625 
Q 35.15625 6.890625 40.078125 11.328125 
Q 45.015625 15.765625 45.015625 23.390625 
Q 45.015625 31 40.078125 35.4375 
Q 35.15625 39.890625 26.703125 39.890625 
Q 22.75 39.890625 18.8125 39.015625 
Q 14.890625 38.140625 10.796875 36.28125 
z
" id="DejaVuSans-53"/>
      </defs>
      <g transform="translate(313.286619 322.182437)scale(0.1 -0.1)">
       <use xlink:href="#DejaVuSans-53"/>
       <use x="63.623047" xlink:href="#DejaVuSans-48"/>
       <use x="127.246094" xlink:href="#DejaVuSans-48"/>
       <use x="190.869141" xlink:href="#DejaVuSans-48"/>
       <use x="254.492188" xlink:href="#DejaVuSans-48"/>
      </g>
     </g>
    </g>
    <g id="xtick_7">
     <g id="line2d_13">
      <path clip-path="url(#p1545e58089)" d="M 380.522057 307.584 
L 380.522057 41.472 
" style="fill:none;stroke:#b0b0b0;stroke-linecap:square;stroke-width:0.8;"/>
     </g>
     <g id="line2d_14">
      <g>
       <use style="stroke:#000000;stroke-width:0.8;" x="380.522057" xlink:href="#m37a125894b" y="307.584"/>
      </g>
     </g>
     <g id="text_7">
      <!-- 60000 -->
      <defs>
       <path d="M 33.015625 40.375 
Q 26.375 40.375 22.484375 35.828125 
Q 18.609375 31.296875 18.609375 23.390625 
Q 18.609375 15.53125 22.484375 10.953125 
Q 26.375 6.390625 33.015625 6.390625 
Q 39.65625 6.390625 43.53125 10.953125 
Q 47.40625 15.53125 47.40625 23.390625 
Q 47.40625 31.296875 43.53125 35.828125 
Q 39.65625 40.375 33.015625 40.375 
z
M 52.59375 71.296875 
L 52.59375 62.3125 
Q 48.875 64.0625 45.09375 64.984375 
Q 41.3125 65.921875 37.59375 65.921875 
Q 27.828125 65.921875 22.671875 59.328125 
Q 17.53125 52.734375 16.796875 39.40625 
Q 19.671875 43.65625 24.015625 45.921875 
Q 28.375 48.1875 33.59375 48.1875 
Q 44.578125 48.1875 50.953125 41.515625 
Q 57.328125 34.859375 57.328125 23.390625 
Q 57.328125 12.15625 50.6875 5.359375 
Q 44.046875 -1.421875 33.015625 -1.421875 
Q 20.359375 -1.421875 13.671875 8.265625 
Q 6.984375 17.96875 6.984375 36.375 
Q 6.984375 53.65625 15.1875 63.9375 
Q 23.390625 74.21875 37.203125 74.21875 
Q 40.921875 74.21875 44.703125 73.484375 
Q 48.484375 72.75 52.59375 71.296875 
z
" id="DejaVuSans-54"/>
      </defs>
      <g transform="translate(364.615807 322.182437)scale(0.1 -0.1)">
       <use xlink:href="#DejaVuSans-54"/>
       <use x="63.623047" xlink:href="#DejaVuSans-48"/>
       <use x="127.246094" xlink:href="#DejaVuSans-48"/>
       <use x="190.869141" xlink:href="#DejaVuSans-48"/>
       <use x="254.492188" xlink:href="#DejaVuSans-48"/>
      </g>
     </g>
    </g>
    <g id="text_8">
     <!-- Steps -->
     <defs>
      <path d="M 53.515625 70.515625 
L 53.515625 60.890625 
Q 47.90625 63.578125 42.921875 64.890625 
Q 37.9375 66.21875 33.296875 66.21875 
Q 25.25 66.21875 20.875 63.09375 
Q 16.5 59.96875 16.5 54.203125 
Q 16.5 49.359375 19.40625 46.890625 
Q 22.3125 44.4375 30.421875 42.921875 
L 36.375 41.703125 
Q 47.40625 39.59375 52.65625 34.296875 
Q 57.90625 29 57.90625 20.125 
Q 57.90625 9.515625 50.796875 4.046875 
Q 43.703125 -1.421875 29.984375 -1.421875 
Q 24.8125 -1.421875 18.96875 -0.25 
Q 13.140625 0.921875 6.890625 3.21875 
L 6.890625 13.375 
Q 12.890625 10.015625 18.65625 8.296875 
Q 24.421875 6.59375 29.984375 6.59375 
Q 38.421875 6.59375 43.015625 9.90625 
Q 47.609375 13.234375 47.609375 19.390625 
Q 47.609375 24.75 44.3125 27.78125 
Q 41.015625 30.8125 33.5 32.328125 
L 27.484375 33.5 
Q 16.453125 35.6875 11.515625 40.375 
Q 6.59375 45.0625 6.59375 53.421875 
Q 6.59375 63.09375 13.40625 68.65625 
Q 20.21875 74.21875 32.171875 74.21875 
Q 37.3125 74.21875 42.625 73.28125 
Q 47.953125 72.359375 53.515625 70.515625 
z
" id="DejaVuSans-83"/>
      <path d="M 18.3125 70.21875 
L 18.3125 54.6875 
L 36.8125 54.6875 
L 36.8125 47.703125 
L 18.3125 47.703125 
L 18.3125 18.015625 
Q 18.3125 11.328125 20.140625 9.421875 
Q 21.96875 7.515625 27.59375 7.515625 
L 36.8125 7.515625 
L 36.8125 0 
L 27.59375 0 
Q 17.1875 0 13.234375 3.875 
Q 9.28125 7.765625 9.28125 18.015625 
L 9.28125 47.703125 
L 2.6875 47.703125 
L 2.6875 54.6875 
L 9.28125 54.6875 
L 9.28125 70.21875 
z
" id="DejaVuSans-116"/>
      <path d="M 56.203125 29.59375 
L 56.203125 25.203125 
L 14.890625 25.203125 
Q 15.484375 15.921875 20.484375 11.0625 
Q 25.484375 6.203125 34.421875 6.203125 
Q 39.59375 6.203125 44.453125 7.46875 
Q 49.3125 8.734375 54.109375 11.28125 
L 54.109375 2.78125 
Q 49.265625 0.734375 44.1875 -0.34375 
Q 39.109375 -1.421875 33.890625 -1.421875 
Q 20.796875 -1.421875 13.15625 6.1875 
Q 5.515625 13.8125 5.515625 26.8125 
Q 5.515625 40.234375 12.765625 48.109375 
Q 20.015625 56 32.328125 56 
Q 43.359375 56 49.78125 48.890625 
Q 56.203125 41.796875 56.203125 29.59375 
z
M 47.21875 32.234375 
Q 47.125 39.59375 43.09375 43.984375 
Q 39.0625 48.390625 32.421875 48.390625 
Q 24.90625 48.390625 20.390625 44.140625 
Q 15.875 39.890625 15.1875 32.171875 
z
" id="DejaVuSans-101"/>
      <path d="M 18.109375 8.203125 
L 18.109375 -20.796875 
L 9.078125 -20.796875 
L 9.078125 54.6875 
L 18.109375 54.6875 
L 18.109375 46.390625 
Q 20.953125 51.265625 25.265625 53.625 
Q 29.59375 56 35.59375 56 
Q 45.5625 56 51.78125 48.09375 
Q 58.015625 40.1875 58.015625 27.296875 
Q 58.015625 14.40625 51.78125 6.484375 
Q 45.5625 -1.421875 35.59375 -1.421875 
Q 29.59375 -1.421875 25.265625 0.953125 
Q 20.953125 3.328125 18.109375 8.203125 
z
M 48.6875 27.296875 
Q 48.6875 37.203125 44.609375 42.84375 
Q 40.53125 48.484375 33.40625 48.484375 
Q 26.265625 48.484375 22.1875 42.84375 
Q 18.109375 37.203125 18.109375 27.296875 
Q 18.109375 17.390625 22.1875 11.75 
Q 26.265625 6.109375 33.40625 6.109375 
Q 40.53125 6.109375 44.609375 11.75 
Q 48.6875 17.390625 48.6875 27.296875 
z
" id="DejaVuSans-112"/>
      <path d="M 44.28125 53.078125 
L 44.28125 44.578125 
Q 40.484375 46.53125 36.375 47.5 
Q 32.28125 48.484375 27.875 48.484375 
Q 21.1875 48.484375 17.84375 46.4375 
Q 14.5 44.390625 14.5 40.28125 
Q 14.5 37.15625 16.890625 35.375 
Q 19.28125 33.59375 26.515625 31.984375 
L 29.59375 31.296875 
Q 39.15625 29.25 43.1875 25.515625 
Q 47.21875 21.78125 47.21875 15.09375 
Q 47.21875 7.46875 41.1875 3.015625 
Q 35.15625 -1.421875 24.609375 -1.421875 
Q 20.21875 -1.421875 15.453125 -0.5625 
Q 10.6875 0.296875 5.421875 2 
L 5.421875 11.28125 
Q 10.40625 8.6875 15.234375 7.390625 
Q 20.0625 6.109375 24.8125 6.109375 
Q 31.15625 6.109375 34.5625 8.28125 
Q 37.984375 10.453125 37.984375 14.40625 
Q 37.984375 18.0625 35.515625 20.015625 
Q 33.0625 21.96875 24.703125 23.78125 
L 21.578125 24.515625 
Q 13.234375 26.265625 9.515625 29.90625 
Q 5.8125 33.546875 5.8125 39.890625 
Q 5.8125 47.609375 11.28125 51.796875 
Q 16.75 56 26.8125 56 
Q 31.78125 56 36.171875 55.265625 
Q 40.578125 54.546875 44.28125 53.078125 
z
" id="DejaVuSans-115"/>
     </defs>
     <g transform="translate(222.170156 335.860562)scale(0.1 -0.1)">
      <use xlink:href="#DejaVuSans-83"/>
      <use x="63.476562" xlink:href="#DejaVuSans-116"/>
      <use x="102.685547" xlink:href="#DejaVuSans-101"/>
      <use x="164.208984" xlink:href="#DejaVuSans-112"/>
      <use x="227.685547" xlink:href="#DejaVuSans-115"/>
     </g>
    </g>
   </g>
   <g id="matplotlib.axis_2">
    <g id="ytick_1">
     <g id="line2d_15">
      <path clip-path="url(#p1545e58089)" d="M 57.6 290.717063 
L 414.72 290.717063 
" style="fill:none;stroke:#b0b0b0;stroke-linecap:square;stroke-width:0.8;"/>
     </g>
     <g id="line2d_16">
      <defs>
       <path d="M 0 0 
L -3.5 0 
" id="me8a2e75442" style="stroke:#000000;stroke-width:0.8;"/>
      </defs>
      <g>
       <use style="stroke:#000000;stroke-width:0.8;" x="57.6" xlink:href="#me8a2e75442" y="290.717063"/>
      </g>
     </g>
     <g id="text_9">
      <!-- $\mathdefault{10^{-1}}$ -->
      <defs>
       <path d="M 10.59375 35.5 
L 73.1875 35.5 
L 73.1875 27.203125 
L 10.59375 27.203125 
z
" id="DejaVuSans-8722"/>
      </defs>
      <g transform="translate(27.1 294.516282)scale(0.1 -0.1)">
       <use transform="translate(0 0.684375)" xlink:href="#DejaVuSans-49"/>
       <use transform="translate(63.623047 0.684375)" xlink:href="#DejaVuSans-48"/>
       <use transform="translate(128.203125 38.965625)scale(0.7)" xlink:href="#DejaVuSans-8722"/>
       <use transform="translate(186.855469 38.965625)scale(0.7)" xlink:href="#DejaVuSans-49"/>
      </g>
     </g>
    </g>
    <g id="ytick_2">
     <g id="line2d_17">
      <path clip-path="url(#p1545e58089)" d="M 57.6 252.460983 
L 414.72 252.460983 
" style="fill:none;stroke:#b0b0b0;stroke-linecap:square;stroke-width:0.8;"/>
     </g>
     <g id="line2d_18">
      <g>
       <use style="stroke:#000000;stroke-width:0.8;" x="57.6" xlink:href="#me8a2e75442" y="252.460983"/>
      </g>
     </g>
     <g id="text_10">
      <!-- $\mathdefault{10^{0}}$ -->
      <g transform="translate(33 256.260202)scale(0.1 -0.1)">
       <use transform="translate(0 0.765625)" xlink:href="#DejaVuSans-49"/>
       <use transform="translate(63.623047 0.765625)" xlink:href="#DejaVuSans-48"/>
       <use transform="translate(128.203125 39.046875)scale(0.7)" xlink:href="#DejaVuSans-48"/>
      </g>
     </g>
    </g>
    <g id="ytick_3">
     <g id="line2d_19">
      <path clip-path="url(#p1545e58089)" d="M 57.6 214.204903 
L 414.72 214.204903 
" style="fill:none;stroke:#b0b0b0;stroke-linecap:square;stroke-width:0.8;"/>
     </g>
     <g id="line2d_20">
      <g>
       <use style="stroke:#000000;stroke-width:0.8;" x="57.6" xlink:href="#me8a2e75442" y="214.204903"/>
      </g>
     </g>
     <g id="text_11">
      <!-- $\mathdefault{10^{1}}$ -->
      <g transform="translate(33 218.004122)scale(0.1 -0.1)">
       <use transform="translate(0 0.684375)" xlink:href="#DejaVuSans-49"/>
       <use transform="translate(63.623047 0.684375)" xlink:href="#DejaVuSans-48"/>
       <use transform="translate(128.203125 38.965625)scale(0.7)" xlink:href="#DejaVuSans-49"/>
      </g>
     </g>
    </g>
    <g id="ytick_4">
     <g id="line2d_21">
      <path clip-path="url(#p1545e58089)" d="M 57.6 175.948823 
L 414.72 175.948823 
" style="fill:none;stroke:#b0b0b0;stroke-linecap:square;stroke-width:0.8;"/>
     </g>
     <g id="line2d_22">
      <g>
       <use style="stroke:#000000;stroke-width:0.8;" x="57.6" xlink:href="#me8a2e75442" y="175.948823"/>
      </g>
     </g>
     <g id="text_12">
      <!-- $\mathdefault{10^{2}}$ -->
      <g transform="translate(33 179.748042)scale(0.1 -0.1)">
       <use transform="translate(0 0.765625)" xlink:href="#DejaVuSans-49"/>
       <use transform="translate(63.623047 0.765625)" xlink:href="#DejaVuSans-48"/>
       <use transform="translate(128.203125 39.046875)scale(0.7)" xlink:href="#DejaVuSans-50"/>
      </g>
     </g>
    </g>
    <g id="ytick_5">
     <g id="line2d_23">
      <path clip-path="url(#p1545e58089)" d="M 57.6 137.692743 
L 414.72 137.692743 
" style="fill:none;stroke:#b0b0b0;stroke-linecap:square;stroke-width:0.8;"/>
     </g>
     <g id="line2d_24">
      <g>
       <use style="stroke:#000000;stroke-width:0.8;" x="57.6" xlink:href="#me8a2e75442" y="137.692743"/>
      </g>
     </g>
     <g id="text_13">
      <!-- $\mathdefault{10^{3}}$ -->
      <g transform="translate(33 141.491962)scale(0.1 -0.1)">
       <use transform="translate(0 0.765625)" xlink:href="#DejaVuSans-49"/>
       <use transform="translate(63.623047 0.765625)" xlink:href="#DejaVuSans-48"/>
       <use transform="translate(128.203125 39.046875)scale(0.7)" xlink:href="#DejaVuSans-51"/>
      </g>
     </g>
    </g>
    <g id="ytick_6">
     <g id="line2d_25">
      <path clip-path="url(#p1545e58089)" d="M 57.6 99.436663 
L 414.72 99.436663 
" style="fill:none;stroke:#b0b0b0;stroke-linecap:square;stroke-width:0.8;"/>
     </g>
     <g id="line2d_26">
      <g>
       <use style="stroke:#000000;stroke-width:0.8;" x="57.6" xlink:href="#me8a2e75442" y="99.436663"/>
      </g>
     </g>
     <g id="text_14">
      <!-- $\mathdefault{10^{4}}$ -->
      <g transform="translate(33 103.235882)scale(0.1 -0.1)">
       <use transform="translate(0 0.684375)" xlink:href="#DejaVuSans-49"/>
       <use transform="translate(63.623047 0.684375)" xlink:href="#DejaVuSans-48"/>
       <use transform="translate(128.203125 38.965625)scale(0.7)" xlink:href="#DejaVuSans-52"/>
      </g>
     </g>
    </g>
    <g id="ytick_7">
     <g id="line2d_27">
      <path clip-path="url(#p1545e58089)" d="M 57.6 61.180583 
L 414.72 61.180583 
" style="fill:none;stroke:#b0b0b0;stroke-linecap:square;stroke-width:0.8;"/>
     </g>
     <g id="line2d_28">
      <g>
       <use style="stroke:#000000;stroke-width:0.8;" x="57.6" xlink:href="#me8a2e75442" y="61.180583"/>
      </g>
     </g>
     <g id="text_15">
      <!-- $\mathdefault{10^{5}}$ -->
      <g transform="translate(33 64.979802)scale(0.1 -0.1)">
       <use transform="translate(0 0.684375)" xlink:href="#DejaVuSans-49"/>
       <use transform="translate(63.623047 0.684375)" xlink:href="#DejaVuSans-48"/>
       <use transform="translate(128.203125 38.965625)scale(0.7)" xlink:href="#DejaVuSans-53"/>
      </g>
     </g>
    </g>
    <g id="ytick_8">
     <g id="line2d_29">
      <defs>
       <path d="M 0 0 
L -2 0 
" id="m3650b68d04" style="stroke:#000000;stroke-width:0.6;"/>
      </defs>
      <g>
       <use style="stroke:#000000;stroke-width:0.6;" x="57.6" xlink:href="#m3650b68d04" y="305.940688"/>
      </g>
     </g>
    </g>
    <g id="ytick_9">
     <g id="line2d_30">
      <g>
       <use style="stroke:#000000;stroke-width:0.6;" x="57.6" xlink:href="#m3650b68d04" y="302.233291"/>
      </g>
     </g>
    </g>
    <g id="ytick_10">
     <g id="line2d_31">
      <g>
       <use style="stroke:#000000;stroke-width:0.6;" x="57.6" xlink:href="#m3650b68d04" y="299.204127"/>
      </g>
     </g>
    </g>
    <g id="ytick_11">
     <g id="line2d_32">
      <g>
       <use style="stroke:#000000;stroke-width:0.6;" x="57.6" xlink:href="#m3650b68d04" y="296.643005"/>
      </g>
     </g>
    </g>
    <g id="ytick_12">
     <g id="line2d_33">
      <g>
       <use style="stroke:#000000;stroke-width:0.6;" x="57.6" xlink:href="#m3650b68d04" y="294.42446"/>
      </g>
     </g>
    </g>
    <g id="ytick_13">
     <g id="line2d_34">
      <g>
       <use style="stroke:#000000;stroke-width:0.6;" x="57.6" xlink:href="#m3650b68d04" y="292.467565"/>
      </g>
     </g>
    </g>
    <g id="ytick_14">
     <g id="line2d_35">
      <g>
       <use style="stroke:#000000;stroke-width:0.6;" x="57.6" xlink:href="#m3650b68d04" y="279.200835"/>
      </g>
     </g>
    </g>
    <g id="ytick_15">
     <g id="line2d_36">
      <g>
       <use style="stroke:#000000;stroke-width:0.6;" x="57.6" xlink:href="#m3650b68d04" y="272.464274"/>
      </g>
     </g>
    </g>
    <g id="ytick_16">
     <g id="line2d_37">
      <g>
       <use style="stroke:#000000;stroke-width:0.6;" x="57.6" xlink:href="#m3650b68d04" y="267.684608"/>
      </g>
     </g>
    </g>
    <g id="ytick_17">
     <g id="line2d_38">
      <g>
       <use style="stroke:#000000;stroke-width:0.6;" x="57.6" xlink:href="#m3650b68d04" y="263.977211"/>
      </g>
     </g>
    </g>
    <g id="ytick_18">
     <g id="line2d_39">
      <g>
       <use style="stroke:#000000;stroke-width:0.6;" x="57.6" xlink:href="#m3650b68d04" y="260.948047"/>
      </g>
     </g>
    </g>
    <g id="ytick_19">
     <g id="line2d_40">
      <g>
       <use style="stroke:#000000;stroke-width:0.6;" x="57.6" xlink:href="#m3650b68d04" y="258.386925"/>
      </g>
     </g>
    </g>
    <g id="ytick_20">
     <g id="line2d_41">
      <g>
       <use style="stroke:#000000;stroke-width:0.6;" x="57.6" xlink:href="#m3650b68d04" y="256.16838"/>
      </g>
     </g>
    </g>
    <g id="ytick_21">
     <g id="line2d_42">
      <g>
       <use style="stroke:#000000;stroke-width:0.6;" x="57.6" xlink:href="#m3650b68d04" y="254.211485"/>
      </g>
     </g>
    </g>
    <g id="ytick_22">
     <g id="line2d_43">
      <g>
       <use style="stroke:#000000;stroke-width:0.6;" x="57.6" xlink:href="#m3650b68d04" y="240.944755"/>
      </g>
     </g>
    </g>
    <g id="ytick_23">
     <g id="line2d_44">
      <g>
       <use style="stroke:#000000;stroke-width:0.6;" x="57.6" xlink:href="#m3650b68d04" y="234.208194"/>
      </g>
     </g>
    </g>
    <g id="ytick_24">
     <g id="line2d_45">
      <g>
       <use style="stroke:#000000;stroke-width:0.6;" x="57.6" xlink:href="#m3650b68d04" y="229.428528"/>
      </g>
     </g>
    </g>
    <g id="ytick_25">
     <g id="line2d_46">
      <g>
       <use style="stroke:#000000;stroke-width:0.6;" x="57.6" xlink:href="#m3650b68d04" y="225.721131"/>
      </g>
     </g>
    </g>
    <g id="ytick_26">
     <g id="line2d_47">
      <g>
       <use style="stroke:#000000;stroke-width:0.6;" x="57.6" xlink:href="#m3650b68d04" y="222.691967"/>
      </g>
     </g>
    </g>
    <g id="ytick_27">
     <g id="line2d_48">
      <g>
       <use style="stroke:#000000;stroke-width:0.6;" x="57.6" xlink:href="#m3650b68d04" y="220.130845"/>
      </g>
     </g>
    </g>
    <g id="ytick_28">
     <g id="line2d_49">
      <g>
       <use style="stroke:#000000;stroke-width:0.6;" x="57.6" xlink:href="#m3650b68d04" y="217.9123"/>
      </g>
     </g>
    </g>
    <g id="ytick_29">
     <g id="line2d_50">
      <g>
       <use style="stroke:#000000;stroke-width:0.6;" x="57.6" xlink:href="#m3650b68d04" y="215.955405"/>
      </g>
     </g>
    </g>
    <g id="ytick_30">
     <g id="line2d_51">
      <g>
       <use style="stroke:#000000;stroke-width:0.6;" x="57.6" xlink:href="#m3650b68d04" y="202.688675"/>
      </g>
     </g>
    </g>
    <g id="ytick_31">
     <g id="line2d_52">
      <g>
       <use style="stroke:#000000;stroke-width:0.6;" x="57.6" xlink:href="#m3650b68d04" y="195.952114"/>
      </g>
     </g>
    </g>
    <g id="ytick_32">
     <g id="line2d_53">
      <g>
       <use style="stroke:#000000;stroke-width:0.6;" x="57.6" xlink:href="#m3650b68d04" y="191.172448"/>
      </g>
     </g>
    </g>
    <g id="ytick_33">
     <g id="line2d_54">
      <g>
       <use style="stroke:#000000;stroke-width:0.6;" x="57.6" xlink:href="#m3650b68d04" y="187.465051"/>
      </g>
     </g>
    </g>
    <g id="ytick_34">
     <g id="line2d_55">
      <g>
       <use style="stroke:#000000;stroke-width:0.6;" x="57.6" xlink:href="#m3650b68d04" y="184.435887"/>
      </g>
     </g>
    </g>
    <g id="ytick_35">
     <g id="line2d_56">
      <g>
       <use style="stroke:#000000;stroke-width:0.6;" x="57.6" xlink:href="#m3650b68d04" y="181.874765"/>
      </g>
     </g>
    </g>
    <g id="ytick_36">
     <g id="line2d_57">
      <g>
       <use style="stroke:#000000;stroke-width:0.6;" x="57.6" xlink:href="#m3650b68d04" y="179.65622"/>
      </g>
     </g>
    </g>
    <g id="ytick_37">
     <g id="line2d_58">
      <g>
       <use style="stroke:#000000;stroke-width:0.6;" x="57.6" xlink:href="#m3650b68d04" y="177.699325"/>
      </g>
     </g>
    </g>
    <g id="ytick_38">
     <g id="line2d_59">
      <g>
       <use style="stroke:#000000;stroke-width:0.6;" x="57.6" xlink:href="#m3650b68d04" y="164.432596"/>
      </g>
     </g>
    </g>
    <g id="ytick_39">
     <g id="line2d_60">
      <g>
       <use style="stroke:#000000;stroke-width:0.6;" x="57.6" xlink:href="#m3650b68d04" y="157.696034"/>
      </g>
     </g>
    </g>
    <g id="ytick_40">
     <g id="line2d_61">
      <g>
       <use style="stroke:#000000;stroke-width:0.6;" x="57.6" xlink:href="#m3650b68d04" y="152.916368"/>
      </g>
     </g>
    </g>
    <g id="ytick_41">
     <g id="line2d_62">
      <g>
       <use style="stroke:#000000;stroke-width:0.6;" x="57.6" xlink:href="#m3650b68d04" y="149.208971"/>
      </g>
     </g>
    </g>
    <g id="ytick_42">
     <g id="line2d_63">
      <g>
       <use style="stroke:#000000;stroke-width:0.6;" x="57.6" xlink:href="#m3650b68d04" y="146.179807"/>
      </g>
     </g>
    </g>
    <g id="ytick_43">
     <g id="line2d_64">
      <g>
       <use style="stroke:#000000;stroke-width:0.6;" x="57.6" xlink:href="#m3650b68d04" y="143.618685"/>
      </g>
     </g>
    </g>
    <g id="ytick_44">
     <g id="line2d_65">
      <g>
       <use style="stroke:#000000;stroke-width:0.6;" x="57.6" xlink:href="#m3650b68d04" y="141.40014"/>
      </g>
     </g>
    </g>
    <g id="ytick_45">
     <g id="line2d_66">
      <g>
       <use style="stroke:#000000;stroke-width:0.6;" x="57.6" xlink:href="#m3650b68d04" y="139.443245"/>
      </g>
     </g>
    </g>
    <g id="ytick_46">
     <g id="line2d_67">
      <g>
       <use style="stroke:#000000;stroke-width:0.6;" x="57.6" xlink:href="#m3650b68d04" y="126.176516"/>
      </g>
     </g>
    </g>
    <g id="ytick_47">
     <g id="line2d_68">
      <g>
       <use style="stroke:#000000;stroke-width:0.6;" x="57.6" xlink:href="#m3650b68d04" y="119.439954"/>
      </g>
     </g>
    </g>
    <g id="ytick_48">
     <g id="line2d_69">
      <g>
       <use style="stroke:#000000;stroke-width:0.6;" x="57.6" xlink:href="#m3650b68d04" y="114.660288"/>
      </g>
     </g>
    </g>
    <g id="ytick_49">
     <g id="line2d_70">
      <g>
       <use style="stroke:#000000;stroke-width:0.6;" x="57.6" xlink:href="#m3650b68d04" y="110.952891"/>
      </g>
     </g>
    </g>
    <g id="ytick_50">
     <g id="line2d_71">
      <g>
       <use style="stroke:#000000;stroke-width:0.6;" x="57.6" xlink:href="#m3650b68d04" y="107.923727"/>
      </g>
     </g>
    </g>
    <g id="ytick_51">
     <g id="line2d_72">
      <g>
       <use style="stroke:#000000;stroke-width:0.6;" x="57.6" xlink:href="#m3650b68d04" y="105.362605"/>
      </g>
     </g>
    </g>
    <g id="ytick_52">
     <g id="line2d_73">
      <g>
       <use style="stroke:#000000;stroke-width:0.6;" x="57.6" xlink:href="#m3650b68d04" y="103.14406"/>
      </g>
     </g>
    </g>
    <g id="ytick_53">
     <g id="line2d_74">
      <g>
       <use style="stroke:#000000;stroke-width:0.6;" x="57.6" xlink:href="#m3650b68d04" y="101.187165"/>
      </g>
     </g>
    </g>
    <g id="ytick_54">
     <g id="line2d_75">
      <g>
       <use style="stroke:#000000;stroke-width:0.6;" x="57.6" xlink:href="#m3650b68d04" y="87.920436"/>
      </g>
     </g>
    </g>
    <g id="ytick_55">
     <g id="line2d_76">
      <g>
       <use style="stroke:#000000;stroke-width:0.6;" x="57.6" xlink:href="#m3650b68d04" y="81.183874"/>
      </g>
     </g>
    </g>
    <g id="ytick_56">
     <g id="line2d_77">
      <g>
       <use style="stroke:#000000;stroke-width:0.6;" x="57.6" xlink:href="#m3650b68d04" y="76.404208"/>
      </g>
     </g>
    </g>
    <g id="ytick_57">
     <g id="line2d_78">
      <g>
       <use style="stroke:#000000;stroke-width:0.6;" x="57.6" xlink:href="#m3650b68d04" y="72.696811"/>
      </g>
     </g>
    </g>
    <g id="ytick_58">
     <g id="line2d_79">
      <g>
       <use style="stroke:#000000;stroke-width:0.6;" x="57.6" xlink:href="#m3650b68d04" y="69.667647"/>
      </g>
     </g>
    </g>
    <g id="ytick_59">
     <g id="line2d_80">
      <g>
       <use style="stroke:#000000;stroke-width:0.6;" x="57.6" xlink:href="#m3650b68d04" y="67.106525"/>
      </g>
     </g>
    </g>
    <g id="ytick_60">
     <g id="line2d_81">
      <g>
       <use style="stroke:#000000;stroke-width:0.6;" x="57.6" xlink:href="#m3650b68d04" y="64.88798"/>
      </g>
     </g>
    </g>
    <g id="ytick_61">
     <g id="line2d_82">
      <g>
       <use style="stroke:#000000;stroke-width:0.6;" x="57.6" xlink:href="#m3650b68d04" y="62.931085"/>
      </g>
     </g>
    </g>
    <g id="ytick_62">
     <g id="line2d_83">
      <g>
       <use style="stroke:#000000;stroke-width:0.6;" x="57.6" xlink:href="#m3650b68d04" y="49.664356"/>
      </g>
     </g>
    </g>
    <g id="ytick_63">
     <g id="line2d_84">
      <g>
       <use style="stroke:#000000;stroke-width:0.6;" x="57.6" xlink:href="#m3650b68d04" y="42.927794"/>
      </g>
     </g>
    </g>
    <g id="text_16">
     <!-- KLD -->
     <defs>
      <path d="M 9.8125 72.90625 
L 19.671875 72.90625 
L 19.671875 42.09375 
L 52.390625 72.90625 
L 65.09375 72.90625 
L 28.90625 38.921875 
L 67.671875 0 
L 54.6875 0 
L 19.671875 35.109375 
L 19.671875 0 
L 9.8125 0 
z
" id="DejaVuSans-75"/>
      <path d="M 9.8125 72.90625 
L 19.671875 72.90625 
L 19.671875 8.296875 
L 55.171875 8.296875 
L 55.171875 0 
L 9.8125 0 
z
" id="DejaVuSans-76"/>
      <path d="M 19.671875 64.796875 
L 19.671875 8.109375 
L 31.59375 8.109375 
Q 46.6875 8.109375 53.6875 14.9375 
Q 60.6875 21.78125 60.6875 36.53125 
Q 60.6875 51.171875 53.6875 57.984375 
Q 46.6875 64.796875 31.59375 64.796875 
z
M 9.8125 72.90625 
L 30.078125 72.90625 
Q 51.265625 72.90625 61.171875 64.09375 
Q 71.09375 55.28125 71.09375 36.53125 
Q 71.09375 17.671875 61.125 8.828125 
Q 51.171875 0 30.078125 0 
L 9.8125 0 
z
" id="DejaVuSans-68"/>
     </defs>
     <g transform="translate(21.020313 184.442844)rotate(-90)scale(0.1 -0.1)">
      <use xlink:href="#DejaVuSans-75"/>
      <use x="65.576172" xlink:href="#DejaVuSans-76"/>
      <use x="121.289062" xlink:href="#DejaVuSans-68"/>
     </g>
    </g>
   </g>
   <g id="line2d_85">
    <path clip-path="url(#p1545e58089)" d="M 75.806335 224.28241 
L 79.065738 235.880015 
L 82.325141 226.873512 
L 85.584545 223.719471 
L 88.843948 226.265948 
L 92.103352 215.395597 
L 95.362755 213.663521 
L 98.622158 219.251931 
L 101.881562 215.063305 
L 105.140965 213.163277 
L 108.400369 211.1837 
L 111.659772 211.393044 
L 114.919176 215.045699 
L 118.178579 215.895156 
L 121.437982 212.721392 
L 124.697386 224.064046 
L 127.956789 220.373202 
L 131.216193 219.032433 
L 134.475596 220.686066 
L 137.734999 221.496361 
L 140.994403 221.223484 
L 144.253806 220.67791 
L 147.51321 224.295758 
L 150.772613 216.495642 
L 154.032017 216.144342 
L 157.29142 218.974635 
L 160.550823 218.095212 
L 163.810227 219.588375 
L 167.06963 215.250855 
L 170.329034 218.496275 
L 173.588437 215.429475 
L 176.84784 216.893561 
L 180.107244 216.389421 
L 183.366647 214.489264 
L 186.626051 214.791942 
L 189.885454 216.460312 
L 193.144858 218.22394 
L 196.404261 214.587705 
L 199.663664 215.388814 
L 202.923068 215.466093 
L 206.182471 213.462349 
L 209.441875 214.930045 
L 212.701278 213.699383 
L 215.960681 216.945043 
L 219.220085 212.06507 
L 222.479488 214.810703 
L 225.738892 210.408101 
L 228.998295 214.185655 
L 232.257699 213.159307 
L 235.517102 213.336689 
L 238.776505 214.229304 
L 242.035909 210.253767 
L 245.295312 209.210527 
L 248.554716 211.59439 
L 251.814119 209.610677 
L 255.073522 213.344155 
L 258.332926 209.195602 
L 261.592329 207.968328 
L 264.851733 210.691988 
L 268.111136 210.526861 
L 271.37054 210.015265 
L 274.629943 209.175885 
L 277.889346 207.283373 
L 281.14875 215.595029 
L 284.408153 210.879689 
L 287.667557 205.882831 
L 290.92696 203.997341 
L 294.186363 203.517213 
L 297.445767 199.807803 
L 300.70517 201.964895 
L 303.964574 206.807425 
L 307.223977 200.314233 
L 310.48338 202.178665 
L 313.742784 201.306467 
L 317.002187 204.094676 
L 320.261591 201.667608 
L 323.520994 203.782338 
L 326.780398 202.044188 
L 330.039801 209.888548 
L 333.299204 199.82893 
L 336.558608 200.981266 
L 339.818011 210.856066 
L 343.077415 205.354307 
L 346.336818 200.455028 
L 349.596221 202.901115 
L 352.855625 205.622386 
L 356.115028 210.388356 
L 359.374432 203.631976 
L 362.633835 202.189452 
L 365.893239 200.104327 
L 369.152642 205.846532 
L 372.412045 213.383591 
L 375.671449 201.549429 
L 378.930852 200.502777 
L 382.190256 199.914772 
L 385.449659 202.43824 
L 388.709062 210.759175 
L 391.968466 199.072429 
L 395.227869 196.927808 
L 398.487273 197.80526 
" style="fill:none;stroke:#1f77b4;stroke-linecap:square;stroke-width:1.5;"/>
   </g>
   <g id="line2d_86">
    <path clip-path="url(#p1545e58089)" d="M 73.832727 224.612843 
L 78.965646 235.381688 
L 84.098565 222.692292 
L 86.665024 225.136611 
L 91.797943 217.189145 
L 94.364402 215.96095 
L 96.930862 216.79916 
L 99.497321 211.153798 
L 102.06378 213.428866 
L 104.63024 212.716944 
L 107.196699 215.114112 
L 109.763159 213.72409 
L 112.329618 212.166962 
L 114.896077 212.550295 
L 117.462537 213.572056 
L 120.028996 214.351841 
L 122.595456 216.792894 
L 125.161915 219.640094 
L 127.728374 219.086048 
L 130.294834 218.063614 
L 132.861293 219.198231 
L 135.427752 216.650056 
L 137.994212 217.887548 
L 140.560671 218.919268 
L 143.127131 219.801385 
L 145.69359 217.367969 
L 148.260049 217.178767 
L 150.826509 218.142313 
L 155.959428 217.045481 
L 158.525887 217.279075 
L 161.092346 216.837008 
L 163.658806 211.27326 
L 166.225265 215.587812 
L 168.791724 215.952467 
L 171.358184 216.9197 
L 173.924643 216.348803 
L 176.491103 217.97483 
L 179.057562 207.852428 
L 181.624021 216.246027 
L 184.190481 215.696517 
L 186.75694 213.297133 
L 189.323399 217.004439 
L 191.889859 215.087421 
L 194.456318 215.45482 
L 199.589237 215.336309 
L 202.155696 214.369004 
L 207.288615 213.635808 
L 209.855075 213.170679 
L 212.421534 210.452521 
L 214.987993 215.167852 
L 217.554453 213.214793 
L 220.120912 214.160464 
L 222.687371 213.680869 
L 225.253831 211.416675 
L 227.82029 212.254706 
L 230.38675 214.874797 
L 232.953209 213.936766 
L 235.519668 213.966143 
L 238.086128 213.695885 
L 240.652587 212.327465 
L 243.219047 198.631654 
L 245.785506 209.153848 
L 248.351965 211.176207 
L 250.918425 212.29856 
L 253.484884 210.85414 
L 256.051343 211.122511 
L 258.617803 209.853199 
L 261.184262 209.334601 
L 263.750722 210.957426 
L 266.317181 209.372762 
L 268.88364 210.018292 
L 271.4501 208.96471 
L 274.016559 209.47034 
L 276.583019 208.8842 
L 279.149478 53.568 
L 281.715937 206.353592 
L 284.282397 209.07106 
L 286.848856 192.743752 
L 289.415315 203.933293 
L 291.981775 202.500855 
L 294.548234 202.733728 
L 297.114694 199.909909 
L 299.681153 199.762695 
L 302.247612 202.526192 
L 304.814072 202.273529 
L 307.380531 201.101959 
L 309.94699 205.028798 
L 312.51345 201.003637 
L 315.079909 201.109333 
L 317.646369 201.029173 
L 320.212828 203.192046 
L 322.779287 203.85807 
L 325.345747 201.427908 
L 327.912206 199.877302 
L 330.478666 203.34111 
L 333.045125 201.82696 
L 335.611584 199.67969 
L 338.178044 193.00198 
L 340.744503 209.297326 
L 343.310962 205.589237 
L 345.877422 201.16721 
L 348.443881 202.555492 
L 351.010341 204.477321 
L 353.5768 166.285198 
L 356.143259 206.975486 
L 358.709719 204.400555 
L 361.276178 203.051394 
L 363.842638 202.10877 
L 366.409097 72.845493 
L 368.975556 206.093517 
L 371.542016 207.047684 
L 374.108475 204.616464 
L 376.674934 198.861037 
L 379.241394 199.977287 
L 381.807853 199.980472 
L 384.374313 201.291461 
L 386.940772 202.79876 
L 389.507231 201.853412 
L 394.64015 197.526917 
L 397.206609 196.884446 
L 397.206609 196.884446 
" style="fill:none;stroke:#aec7e8;stroke-linecap:square;stroke-opacity:0.5;stroke-width:1.5;"/>
   </g>
   <g id="line2d_87">
    <path clip-path="url(#p1545e58089)" d="M 75.806335 256.068252 
L 79.065738 246.680227 
L 82.325141 247.438292 
L 85.584545 250.4379 
L 88.843948 253.241608 
L 92.103352 248.042799 
L 95.362755 256.029037 
L 98.622158 246.091441 
L 101.881562 249.219749 
L 105.140965 242.252553 
L 108.400369 246.836129 
L 111.659772 249.986285 
L 114.919176 247.089967 
L 118.178579 246.472219 
L 121.437982 253.318122 
L 124.697386 248.077566 
L 127.956789 248.79535 
L 131.216193 248.609627 
L 134.475596 247.123597 
L 137.734999 242.088485 
L 140.994403 243.448191 
L 144.253806 247.903457 
L 147.51321 245.823544 
L 150.772613 244.093592 
L 154.032017 247.589446 
L 157.29142 244.900679 
L 160.550823 245.693945 
L 163.810227 248.327971 
L 167.06963 248.420348 
L 170.329034 245.996038 
L 173.588437 247.870063 
L 176.84784 248.375837 
L 180.107244 245.418184 
L 183.366647 249.607892 
L 186.626051 246.563624 
L 189.885454 249.756822 
L 193.144858 246.281971 
L 196.404261 246.369679 
L 199.663664 248.96368 
L 202.923068 245.272054 
L 206.182471 244.663715 
L 209.441875 247.001941 
L 212.701278 242.628592 
L 215.960681 246.329481 
L 219.220085 245.61258 
L 222.479488 245.034274 
L 225.738892 245.814497 
L 228.998295 242.01643 
L 232.257699 241.247319 
L 235.517102 240.044069 
L 238.776505 241.142081 
L 242.035909 240.326088 
L 245.295312 236.125032 
L 248.554716 243.105656 
L 251.814119 239.245983 
L 255.073522 238.372866 
L 258.332926 237.522886 
L 261.592329 235.943557 
L 264.851733 236.131883 
L 268.111136 237.449238 
L 271.37054 237.702759 
L 274.629943 238.013507 
L 277.889346 237.87321 
L 281.14875 236.849231 
L 284.408153 233.558873 
L 287.667557 235.811574 
L 290.92696 237.325999 
L 294.186363 235.172222 
L 297.445767 233.942096 
L 300.70517 234.229 
L 303.964574 235.777301 
L 307.223977 232.588988 
L 310.48338 232.169782 
L 313.742784 231.338131 
L 317.002187 233.340443 
L 320.261591 232.69416 
L 323.520994 232.445329 
L 326.780398 232.50394 
L 330.039801 234.198808 
L 333.299204 233.568948 
L 336.558608 233.759675 
L 339.818011 231.926169 
L 343.077415 231.046514 
L 346.336818 230.963873 
L 349.596221 230.095471 
L 352.855625 229.549422 
L 356.115028 229.539256 
L 359.374432 233.160501 
L 362.633835 231.132248 
L 365.893239 229.474528 
L 369.152642 231.746748 
L 372.412045 229.761912 
L 375.671449 232.799731 
L 378.930852 230.631191 
L 382.190256 229.257037 
L 385.449659 230.747804 
L 388.709062 230.040368 
L 391.968466 230.50272 
L 395.227869 229.543981 
L 398.487273 229.364145 
" style="fill:none;stroke:#ff7f0e;stroke-linecap:square;stroke-width:1.5;"/>
   </g>
   <g id="line2d_88">
    <path clip-path="url(#p1545e58089)" d="M 73.832727 260.509881 
L 76.399187 249.959083 
L 78.965646 246.91804 
L 81.532105 250.603067 
L 84.098565 250.17664 
L 86.665024 249.873035 
L 89.231484 252.421588 
L 91.797943 249.846147 
L 94.364402 252.168514 
L 99.497321 246.633194 
L 102.06378 247.51046 
L 104.63024 242.489242 
L 107.196699 245.804471 
L 109.763159 247.820411 
L 112.329618 248.28541 
L 114.896077 247.954428 
L 117.462537 248.494735 
L 120.028996 247.399141 
L 122.595456 247.957985 
L 125.161915 247.137953 
L 127.728374 247.059355 
L 132.861293 246.616663 
L 137.994212 245.503783 
L 140.560671 244.198045 
L 143.127131 245.094169 
L 145.69359 243.600805 
L 148.260049 245.282285 
L 150.826509 246.077054 
L 153.392968 245.584414 
L 155.959428 245.407417 
L 161.092346 245.971113 
L 163.658806 245.339523 
L 166.225265 246.608861 
L 168.791724 245.918118 
L 171.358184 245.808877 
L 173.924643 247.020413 
L 176.491103 247.608238 
L 179.057562 246.130328 
L 181.624021 245.710166 
L 184.190481 247.140048 
L 186.75694 247.016179 
L 189.323399 248.015046 
L 191.889859 248.191843 
L 194.456318 247.053803 
L 197.022778 245.644555 
L 199.589237 246.891095 
L 202.155696 244.772843 
L 204.722156 244.456116 
L 207.288615 245.749182 
L 209.855075 244.284947 
L 212.421534 243.697789 
L 214.987993 243.449631 
L 217.554453 243.336979 
L 220.120912 243.015251 
L 222.687371 244.311711 
L 225.253831 242.794717 
L 227.82029 240.650207 
L 230.38675 241.194232 
L 232.953209 239.738415 
L 235.519668 239.885874 
L 240.652587 239.313093 
L 243.219047 239.354692 
L 245.785506 238.727422 
L 248.351965 239.020436 
L 250.918425 237.758398 
L 253.484884 238.226921 
L 256.051343 237.357852 
L 258.617803 237.327851 
L 261.184262 236.577186 
L 271.4501 235.85705 
L 274.016559 236.101536 
L 276.583019 235.756101 
L 279.149478 235.680052 
L 281.715937 235.263798 
L 284.282397 234.684857 
L 286.848856 235.039404 
L 289.415315 235.179935 
L 291.981775 234.52079 
L 294.548234 234.53125 
L 297.114694 233.856341 
L 299.681153 233.84546 
L 302.247612 233.238244 
L 304.814072 234.168814 
L 307.380531 233.395003 
L 312.51345 233.066008 
L 315.079909 232.659108 
L 317.646369 232.932588 
L 320.212828 232.510513 
L 325.345747 231.991151 
L 327.912206 232.768239 
L 330.478666 232.783522 
L 333.045125 231.883152 
L 338.178044 232.414111 
L 343.310962 231.116998 
L 345.877422 231.021498 
L 351.010341 231.162051 
L 353.5768 230.649791 
L 356.143259 230.94761 
L 358.709719 231.64075 
L 361.276178 230.891135 
L 363.842638 230.494723 
L 366.409097 230.801605 
L 368.975556 231.22669 
L 371.542016 230.532597 
L 374.108475 230.727367 
L 381.807853 230.32119 
L 384.374313 230.289586 
L 386.940772 229.367946 
L 389.507231 229.88983 
L 392.073691 230.616215 
L 394.64015 229.633724 
L 397.206609 229.678235 
L 397.206609 229.678235 
" style="fill:none;stroke:#ffbb78;stroke-linecap:square;stroke-opacity:0.5;stroke-width:1.5;"/>
   </g>
   <g id="line2d_89">
    <path clip-path="url(#p1545e58089)" d="M 75.806335 232.754012 
L 79.065738 254.202265 
L 82.325141 259.052964 
L 85.584545 270.003652 
L 88.843948 246.788595 
L 92.103352 245.627305 
L 95.362755 242.810887 
L 98.622158 244.911894 
L 101.881562 247.17622 
L 105.140965 244.754696 
L 108.400369 245.11924 
L 111.659772 243.701536 
L 114.919176 243.456119 
L 118.178579 240.391757 
L 121.437982 243.430813 
L 124.697386 243.870512 
L 127.956789 243.559298 
L 131.216193 245.176339 
L 134.475596 243.374505 
L 137.734999 244.143171 
L 140.994403 245.8797 
L 144.253806 243.829378 
L 147.51321 237.850924 
L 150.772613 244.677771 
L 154.032017 243.279 
L 157.29142 242.947922 
L 160.550823 243.38572 
L 163.810227 241.142694 
L 167.06963 242.427904 
L 170.329034 243.495287 
L 173.588437 242.915605 
L 176.84784 241.34864 
L 180.107244 242.398298 
L 183.366647 242.62852 
L 186.626051 241.172691 
L 189.885454 241.083308 
L 193.144858 241.571409 
L 196.404261 241.85112 
L 199.663664 240.891494 
L 202.923068 239.532119 
L 206.182471 239.045598 
L 209.441875 240.430453 
L 212.701278 239.814777 
L 215.960681 239.961751 
L 219.220085 239.505262 
L 222.479488 240.462768 
L 225.738892 238.656563 
L 228.998295 240.52263 
L 232.257699 239.684784 
L 235.517102 238.124163 
L 238.776505 239.389258 
L 242.035909 239.324957 
L 245.295312 237.624885 
L 248.554716 239.739206 
L 251.814119 237.923673 
L 255.073522 238.157669 
L 258.332926 237.743758 
L 261.592329 237.603893 
L 264.851733 237.355057 
L 268.111136 237.350829 
L 271.37054 238.260129 
L 274.629943 237.8126 
L 277.889346 237.143036 
L 281.14875 237.486602 
L 284.408153 237.367174 
L 287.667557 237.77382 
L 290.92696 237.531827 
L 294.186363 236.434828 
L 297.445767 236.482596 
L 300.70517 236.877468 
L 303.964574 236.687188 
L 307.223977 236.585862 
L 310.48338 236.434065 
L 313.742784 236.352703 
L 317.002187 236.242903 
L 320.261591 236.082719 
L 323.520994 236.03948 
L 326.780398 235.747012 
L 330.039801 236.377885 
L 333.299204 235.723837 
L 336.558608 236.031729 
L 339.818011 235.756705 
L 343.077415 235.479297 
L 346.336818 235.670949 
L 349.596221 234.878973 
L 352.855625 235.017082 
L 356.115028 234.815617 
L 359.374432 234.249912 
L 362.633835 234.483705 
L 365.893239 234.28897 
L 369.152642 234.019541 
L 372.412045 234.286702 
L 375.671449 233.746438 
L 378.930852 233.722496 
L 382.190256 233.684645 
L 385.449659 233.349837 
L 388.709062 233.076262 
L 391.968466 233.197144 
L 395.227869 233.254778 
L 398.487273 233.084334 
" style="fill:none;stroke:#2ca02c;stroke-linecap:square;stroke-width:1.5;"/>
   </g>
   <g id="line2d_90">
    <path clip-path="url(#p1545e58089)" d="M 73.832727 281.305438 
L 76.399187 245.581927 
L 78.965646 256.405605 
L 81.532105 255.69725 
L 84.098565 267.723162 
L 86.665024 253.44132 
L 89.231484 245.935781 
L 91.797943 244.759505 
L 94.364402 242.239471 
L 96.930862 235.17333 
L 99.497321 246.268664 
L 102.06378 246.493635 
L 104.63024 244.952784 
L 107.196699 245.181883 
L 109.763159 244.191449 
L 112.329618 243.464889 
L 114.896077 242.909557 
L 117.462537 243.201912 
L 120.028996 243.639487 
L 122.595456 243.848418 
L 125.161915 243.631975 
L 127.728374 243.226439 
L 130.294834 244.431703 
L 132.861293 244.246205 
L 135.427752 243.862331 
L 137.994212 244.202417 
L 140.560671 243.980646 
L 143.127131 243.888392 
L 145.69359 244.020274 
L 148.260049 243.120119 
L 150.826509 243.557129 
L 153.392968 243.720104 
L 155.959428 243.547047 
L 158.525887 242.854716 
L 161.092346 242.628711 
L 163.658806 242.960001 
L 166.225265 242.235342 
L 168.791724 242.516369 
L 171.358184 242.46264 
L 176.491103 241.317861 
L 179.057562 241.785474 
L 181.624021 241.619582 
L 184.190481 241.628552 
L 186.75694 241.095236 
L 189.323399 240.869527 
L 191.889859 240.958469 
L 194.456318 240.505125 
L 197.022778 240.877916 
L 199.589237 240.356754 
L 202.155696 240.272907 
L 204.722156 239.987441 
L 207.288615 239.248433 
L 209.855075 239.972864 
L 212.421534 239.441425 
L 214.987993 239.393426 
L 217.554453 239.64747 
L 220.120912 238.998434 
L 222.687371 239.448027 
L 225.253831 238.870004 
L 227.82029 239.433188 
L 230.38675 238.610741 
L 232.953209 238.860122 
L 235.519668 238.504067 
L 238.086128 238.70146 
L 240.652587 238.597095 
L 243.219047 238.287392 
L 245.785506 238.70145 
L 248.351965 238.447289 
L 253.484884 237.70851 
L 256.051343 237.725604 
L 258.617803 237.217786 
L 261.184262 237.562677 
L 263.750722 237.601179 
L 266.317181 237.46437 
L 268.88364 236.388859 
L 271.4501 237.411136 
L 274.016559 237.33037 
L 276.583019 237.062563 
L 279.149478 237.128667 
L 284.282397 236.97352 
L 286.848856 216.423862 
L 289.415315 237.092763 
L 294.548234 236.51571 
L 297.114694 236.432691 
L 302.247612 236.008172 
L 320.212828 235.847483 
L 322.779287 235.655297 
L 325.345747 235.582255 
L 327.912206 234.610344 
L 330.478666 235.81781 
L 333.045125 235.351978 
L 361.276178 234.161231 
L 363.842638 233.919585 
L 366.409097 233.565506 
L 368.975556 233.847033 
L 376.674934 233.407863 
L 386.940772 233.192 
L 392.073691 232.900338 
L 397.206609 232.807772 
L 397.206609 232.807772 
" style="fill:none;stroke:#98df8a;stroke-linecap:square;stroke-opacity:0.5;stroke-width:1.5;"/>
   </g>
   <g id="line2d_91">
    <path clip-path="url(#p1545e58089)" d="M 75.806335 264.013782 
L 79.065738 276.384727 
L 82.325141 288.007721 
L 85.584545 273.702822 
L 88.843948 277.41792 
L 92.103352 282.803571 
L 95.362755 283.645256 
L 98.622158 280.989107 
L 101.881562 281.326378 
L 105.140965 281.182367 
L 108.400369 277.938927 
L 111.659772 277.660585 
L 114.919176 275.285056 
L 118.178579 273.819977 
L 121.437982 272.605384 
L 124.697386 271.825947 
L 127.956789 270.764113 
L 131.216193 268.22067 
L 134.475596 264.524981 
L 137.734999 257.800298 
L 140.994403 257.094503 
L 144.253806 257.469429 
L 147.51321 255.350055 
L 150.772613 253.15765 
L 154.032017 253.311519 
L 157.29142 254.394413 
L 160.550823 252.035469 
L 163.810227 252.040069 
L 167.06963 251.897891 
L 170.329034 241.525329 
L 173.588437 250.332256 
L 176.84784 252.046039 
L 180.107244 250.616285 
L 183.366647 250.628166 
L 186.626051 249.565623 
L 189.885454 248.521463 
L 193.144858 249.194516 
L 196.404261 249.844224 
L 199.663664 249.403336 
L 202.923068 247.669141 
L 206.182471 247.699344 
L 209.441875 247.466678 
L 212.701278 246.520178 
L 215.960681 248.175296 
L 219.220085 246.338099 
L 222.479488 245.813135 
L 225.738892 246.740394 
L 228.998295 245.806156 
L 232.257699 244.45419 
L 235.517102 245.637691 
L 238.776505 246.577888 
L 242.035909 246.04792 
L 245.295312 244.717244 
L 248.554716 245.461408 
L 251.814119 249.597012 
L 255.073522 246.430745 
L 258.332926 245.361029 
L 261.592329 243.930861 
L 264.851733 245.453912 
L 268.111136 244.805087 
L 271.37054 244.838013 
L 274.629943 243.097498 
L 277.889346 245.196308 
L 281.14875 244.10806 
L 284.408153 244.672009 
L 287.667557 244.65556 
L 290.92696 244.581713 
L 294.186363 244.326353 
L 297.445767 245.476784 
L 300.70517 243.035642 
L 303.964574 243.190611 
L 307.223977 244.042422 
L 310.48338 243.267938 
L 313.742784 242.906423 
L 317.002187 243.140305 
L 320.261591 243.311078 
L 323.520994 242.451583 
L 326.780398 242.375342 
L 330.039801 242.603706 
L 333.299204 242.776776 
L 336.558608 242.417447 
L 339.818011 242.314615 
L 343.077415 242.32382 
L 346.336818 242.904696 
L 349.596221 241.927723 
L 352.855625 242.273213 
L 356.115028 241.551483 
L 359.374432 241.558135 
L 362.633835 241.858065 
L 365.893239 241.181143 
L 369.152642 240.980597 
L 372.412045 241.370994 
L 375.671449 240.306333 
L 378.930852 240.815935 
L 382.190256 240.884657 
L 385.449659 240.265868 
L 388.709062 240.689573 
L 391.968466 240.530149 
L 395.227869 222.383842 
L 398.487273 240.250713 
" style="fill:none;stroke:#d62728;stroke-linecap:square;stroke-width:1.5;"/>
   </g>
   <g id="line2d_92">
    <path clip-path="url(#p1545e58089)" d="M 73.832727 283.912833 
L 76.399187 271.110087 
L 78.965646 274.269929 
L 81.532105 288.697967 
L 84.098565 276.737388 
L 86.665024 273.128293 
L 89.231484 275.689426 
L 91.797943 280.263644 
L 94.364402 283.12447 
L 96.930862 282.79007 
L 99.497321 282.2171 
L 102.06378 279.859255 
L 104.63024 279.273003 
L 107.196699 278.052764 
L 109.763159 277.080457 
L 112.329618 275.936158 
L 114.896077 274.347902 
L 117.462537 273.441901 
L 120.028996 272.739329 
L 125.161915 270.564333 
L 127.728374 270.666587 
L 130.294834 264.999107 
L 132.861293 264.217112 
L 135.427752 260.697028 
L 137.994212 257.822256 
L 140.560671 256.02899 
L 143.127131 255.437736 
L 145.69359 255.027574 
L 148.260049 254.031824 
L 150.826509 251.959615 
L 153.392968 252.848521 
L 155.959428 251.887712 
L 158.525887 252.375345 
L 166.225265 251.117634 
L 168.791724 250.790713 
L 171.358184 250.086132 
L 176.491103 250.505481 
L 179.057562 250.316495 
L 181.624021 249.958248 
L 184.190481 249.901663 
L 186.75694 249.239912 
L 189.323399 248.942214 
L 191.889859 249.049507 
L 194.456318 248.563939 
L 197.022778 248.646346 
L 199.589237 248.001543 
L 202.155696 247.731346 
L 204.722156 247.969026 
L 207.288615 247.293307 
L 209.855075 247.421355 
L 212.421534 246.995671 
L 214.987993 246.774794 
L 220.120912 246.01449 
L 222.687371 245.910016 
L 225.253831 245.99087 
L 227.82029 245.530704 
L 230.38675 245.744679 
L 232.953209 245.785441 
L 235.519668 245.328714 
L 240.652587 245.586187 
L 243.219047 245.379726 
L 245.785506 244.998167 
L 248.351965 245.185862 
L 250.918425 244.843273 
L 253.484884 245.321881 
L 258.617803 245.010118 
L 261.184262 244.042858 
L 263.750722 244.38658 
L 266.317181 244.488628 
L 268.88364 244.085256 
L 274.016559 244.110799 
L 276.583019 243.902504 
L 279.149478 243.909993 
L 281.715937 244.634359 
L 286.848856 244.032232 
L 289.415315 243.034419 
L 291.981775 241.28217 
L 294.548234 236.043653 
L 297.114694 243.653708 
L 299.681153 242.64062 
L 302.247612 242.946802 
L 307.380531 243.108908 
L 309.94699 242.625253 
L 312.51345 242.948196 
L 315.079909 242.603533 
L 317.646369 242.609105 
L 320.212828 242.777086 
L 322.779287 242.685629 
L 325.345747 242.358632 
L 327.912206 242.191198 
L 330.478666 242.336301 
L 333.045125 242.179394 
L 335.611584 242.236975 
L 338.178044 241.821938 
L 340.744503 241.989374 
L 343.310962 241.972741 
L 345.877422 241.00903 
L 348.443881 241.98597 
L 353.5768 241.206471 
L 356.143259 241.044655 
L 358.709719 241.21725 
L 361.276178 241.207125 
L 366.409097 240.866607 
L 371.542016 240.688791 
L 376.674934 240.563578 
L 384.374313 240.353783 
L 392.073691 240.106894 
L 394.64015 239.670239 
L 397.206609 240.068563 
L 397.206609 240.068563 
" style="fill:none;stroke:#ff9896;stroke-linecap:square;stroke-opacity:0.5;stroke-width:1.5;"/>
   </g>
   <g id="line2d_93">
    <path clip-path="url(#p1545e58089)" d="M 75.806335 268.819991 
L 79.065738 254.594027 
L 82.325141 278.23444 
L 85.584545 275.39521 
L 88.843948 276.078337 
L 92.103352 286.162957 
L 95.362755 280.627226 
L 98.622158 287.230854 
L 101.881562 289.302798 
L 105.140965 284.484319 
L 108.400369 293.738124 
L 111.659772 275.004858 
L 114.919176 294.938977 
L 118.178579 284.781246 
L 121.437982 285.910703 
L 124.697386 281.421147 
L 127.956789 286.075904 
L 131.216193 295.488 
L 134.475596 277.988185 
L 137.734999 280.194765 
L 140.994403 283.052468 
L 144.253806 279.510427 
L 147.51321 278.272503 
L 150.772613 287.205559 
L 154.032017 279.182292 
L 157.29142 278.750712 
L 160.550823 277.536035 
L 163.810227 273.967888 
L 167.06963 268.568303 
L 170.329034 263.427735 
L 173.588437 279.741584 
L 176.84784 285.118122 
L 180.107244 282.822104 
L 183.366647 282.469524 
L 186.626051 277.461193 
L 189.885454 276.252728 
L 193.144858 277.754765 
L 196.404261 271.802032 
L 199.663664 269.920672 
L 202.923068 270.581594 
L 206.182471 273.067547 
L 209.441875 271.535939 
L 212.701278 271.752945 
L 215.960681 273.276936 
L 219.220085 271.61307 
L 222.479488 270.380462 
L 225.738892 268.952573 
L 228.998295 273.239662 
L 232.257699 267.518529 
L 235.517102 267.33504 
L 238.776505 265.264139 
L 242.035909 262.342292 
L 245.295312 264.570887 
L 248.554716 267.914856 
L 251.814119 266.259728 
L 255.073522 262.069347 
L 258.332926 259.16627 
L 261.592329 260.491252 
L 264.851733 261.540391 
L 268.111136 259.916588 
L 271.37054 258.705733 
L 274.629943 246.375433 
L 277.889346 259.17452 
L 281.14875 258.183363 
L 284.408153 258.445184 
L 287.667557 257.102995 
L 290.92696 257.036019 
L 294.186363 257.015342 
L 297.445767 256.411407 
L 300.70517 255.625564 
L 303.964574 254.888846 
L 307.223977 254.845422 
L 310.48338 256.980521 
L 313.742784 254.509365 
L 317.002187 253.711914 
L 320.261591 254.429445 
L 323.520994 254.046419 
L 326.780398 253.02796 
L 330.039801 253.523542 
L 333.299204 252.883885 
L 336.558608 253.290514 
L 339.818011 252.540678 
L 343.077415 252.388482 
L 346.336818 253.737513 
L 349.596221 252.993491 
L 352.855625 253.367145 
L 356.115028 251.985025 
L 359.374432 252.583626 
L 362.633835 251.602789 
L 365.893239 252.638249 
L 369.152642 252.757987 
L 372.412045 251.391806 
L 375.671449 253.310465 
L 378.930852 250.984749 
L 382.190256 251.602876 
L 385.449659 251.456347 
L 388.709062 251.642945 
L 391.968466 251.008532 
L 395.227869 252.101364 
L 398.487273 252.016866 
" style="fill:none;stroke:#9467bd;stroke-linecap:square;stroke-width:1.5;"/>
   </g>
   <g id="line2d_94">
    <path clip-path="url(#p1545e58089)" d="M 73.832727 280.363359 
L 76.399187 269.094529 
L 78.965646 256.655149 
L 81.532105 272.574311 
L 84.098565 277.007903 
L 86.665024 278.004301 
L 89.231484 281.435235 
L 91.797943 279.875224 
L 94.364402 280.143493 
L 96.930862 282.221931 
L 99.497321 283.298974 
L 102.06378 282.402129 
L 104.63024 280.542384 
L 107.196699 282.089589 
L 109.763159 288.192281 
L 112.329618 279.112 
L 114.896077 291.16982 
L 117.462537 281.805151 
L 120.028996 278.588792 
L 122.595456 280.406992 
L 125.161915 282.960665 
L 127.728374 282.275733 
L 130.294834 282.598707 
L 132.861293 282.478213 
L 135.427752 281.792023 
L 137.994212 280.800977 
L 140.560671 280.144209 
L 143.127131 280.495729 
L 145.69359 278.457518 
L 148.260049 278.550683 
L 150.826509 278.989321 
L 153.392968 277.882141 
L 155.959428 276.588586 
L 158.525887 278.623505 
L 163.658806 276.840871 
L 166.225265 278.667296 
L 168.791724 278.645971 
L 171.358184 277.548426 
L 173.924643 282.37697 
L 176.491103 282.979378 
L 179.057562 279.307977 
L 181.624021 276.764644 
L 184.190481 279.384642 
L 186.75694 278.004818 
L 189.323399 275.495214 
L 191.889859 275.199489 
L 194.456318 273.367777 
L 197.022778 272.270901 
L 199.589237 270.995625 
L 202.155696 270.037003 
L 204.722156 269.839665 
L 209.855075 270.571982 
L 214.987993 270.357252 
L 217.554453 270.530656 
L 220.120912 269.714132 
L 222.687371 270.161445 
L 225.253831 269.993662 
L 227.82029 268.706575 
L 230.38675 266.641718 
L 232.953209 265.76489 
L 235.519668 265.797458 
L 238.086128 265.054044 
L 240.652587 263.909446 
L 243.219047 263.223216 
L 245.785506 264.498734 
L 248.351965 264.925099 
L 250.918425 263.760129 
L 253.484884 264.117497 
L 256.051343 260.811607 
L 258.617803 259.617077 
L 261.184262 259.868819 
L 263.750722 260.380385 
L 266.317181 259.060714 
L 268.88364 259.027373 
L 274.016559 258.052292 
L 276.583019 258.212181 
L 279.149478 257.681262 
L 281.715937 256.828606 
L 284.282397 256.861444 
L 286.848856 256.519299 
L 289.415315 255.902198 
L 291.981775 255.669357 
L 294.548234 256.339975 
L 297.114694 256.209107 
L 299.681153 254.961433 
L 302.247612 254.865451 
L 304.814072 254.305648 
L 307.380531 254.466425 
L 309.94699 254.768894 
L 312.51345 254.153935 
L 317.646369 253.165892 
L 320.212828 252.875001 
L 322.779287 253.252292 
L 325.345747 252.582412 
L 327.912206 252.325707 
L 330.478666 252.507234 
L 333.045125 252.174918 
L 335.611584 252.365059 
L 338.178044 252.235916 
L 340.744503 251.935046 
L 343.310962 251.751444 
L 345.877422 252.276002 
L 348.443881 252.442341 
L 351.010341 252.279884 
L 353.5768 252.895191 
L 356.143259 251.891132 
L 358.709719 251.920089 
L 361.276178 251.556599 
L 363.842638 251.36202 
L 368.975556 251.647571 
L 371.542016 251.290151 
L 374.108475 251.929708 
L 376.674934 251.282385 
L 379.241394 250.751547 
L 381.807853 250.681092 
L 384.374313 250.824157 
L 392.073691 250.542853 
L 394.64015 250.961633 
L 397.206609 250.683656 
L 397.206609 250.683656 
" style="fill:none;stroke:#c5b0d5;stroke-linecap:square;stroke-opacity:0.5;stroke-width:1.5;"/>
   </g>
   <g id="patch_3">
    <path d="M 57.6 307.584 
L 57.6 41.472 
" style="fill:none;stroke:#000000;stroke-linecap:square;stroke-linejoin:miter;stroke-width:0.8;"/>
   </g>
   <g id="patch_4">
    <path d="M 414.72 307.584 
L 414.72 41.472 
" style="fill:none;stroke:#000000;stroke-linecap:square;stroke-linejoin:miter;stroke-width:0.8;"/>
   </g>
   <g id="patch_5">
    <path d="M 57.6 307.584 
L 414.72 307.584 
" style="fill:none;stroke:#000000;stroke-linecap:square;stroke-linejoin:miter;stroke-width:0.8;"/>
   </g>
   <g id="patch_6">
    <path d="M 57.6 41.472 
L 414.72 41.472 
" style="fill:none;stroke:#000000;stroke-linecap:square;stroke-linejoin:miter;stroke-width:0.8;"/>
   </g>
   <g id="text_17">
    <!-- KL Divergence -->
    <defs>
     <path id="DejaVuSans-32"/>
     <path d="M 9.421875 54.6875 
L 18.40625 54.6875 
L 18.40625 0 
L 9.421875 0 
z
M 9.421875 75.984375 
L 18.40625 75.984375 
L 18.40625 64.59375 
L 9.421875 64.59375 
z
" id="DejaVuSans-105"/>
     <path d="M 2.984375 54.6875 
L 12.5 54.6875 
L 29.59375 8.796875 
L 46.6875 54.6875 
L 56.203125 54.6875 
L 35.6875 0 
L 23.484375 0 
z
" id="DejaVuSans-118"/>
     <path d="M 41.109375 46.296875 
Q 39.59375 47.171875 37.8125 47.578125 
Q 36.03125 48 33.890625 48 
Q 26.265625 48 22.1875 43.046875 
Q 18.109375 38.09375 18.109375 28.8125 
L 18.109375 0 
L 9.078125 0 
L 9.078125 54.6875 
L 18.109375 54.6875 
L 18.109375 46.1875 
Q 20.953125 51.171875 25.484375 53.578125 
Q 30.03125 56 36.53125 56 
Q 37.453125 56 38.578125 55.875 
Q 39.703125 55.765625 41.0625 55.515625 
z
" id="DejaVuSans-114"/>
     <path d="M 45.40625 27.984375 
Q 45.40625 37.75 41.375 43.109375 
Q 37.359375 48.484375 30.078125 48.484375 
Q 22.859375 48.484375 18.828125 43.109375 
Q 14.796875 37.75 14.796875 27.984375 
Q 14.796875 18.265625 18.828125 12.890625 
Q 22.859375 7.515625 30.078125 7.515625 
Q 37.359375 7.515625 41.375 12.890625 
Q 45.40625 18.265625 45.40625 27.984375 
z
M 54.390625 6.78125 
Q 54.390625 -7.171875 48.1875 -13.984375 
Q 42 -20.796875 29.203125 -20.796875 
Q 24.46875 -20.796875 20.265625 -20.09375 
Q 16.0625 -19.390625 12.109375 -17.921875 
L 12.109375 -9.1875 
Q 16.0625 -11.328125 19.921875 -12.34375 
Q 23.78125 -13.375 27.78125 -13.375 
Q 36.625 -13.375 41.015625 -8.765625 
Q 45.40625 -4.15625 45.40625 5.171875 
L 45.40625 9.625 
Q 42.625 4.78125 38.28125 2.390625 
Q 33.9375 0 27.875 0 
Q 17.828125 0 11.671875 7.65625 
Q 5.515625 15.328125 5.515625 27.984375 
Q 5.515625 40.671875 11.671875 48.328125 
Q 17.828125 56 27.875 56 
Q 33.9375 56 38.28125 53.609375 
Q 42.625 51.21875 45.40625 46.390625 
L 45.40625 54.6875 
L 54.390625 54.6875 
z
" id="DejaVuSans-103"/>
     <path d="M 54.890625 33.015625 
L 54.890625 0 
L 45.90625 0 
L 45.90625 32.71875 
Q 45.90625 40.484375 42.875 44.328125 
Q 39.84375 48.1875 33.796875 48.1875 
Q 26.515625 48.1875 22.3125 43.546875 
Q 18.109375 38.921875 18.109375 30.90625 
L 18.109375 0 
L 9.078125 0 
L 9.078125 54.6875 
L 18.109375 54.6875 
L 18.109375 46.1875 
Q 21.34375 51.125 25.703125 53.5625 
Q 30.078125 56 35.796875 56 
Q 45.21875 56 50.046875 50.171875 
Q 54.890625 44.34375 54.890625 33.015625 
z
" id="DejaVuSans-110"/>
     <path d="M 48.78125 52.59375 
L 48.78125 44.1875 
Q 44.96875 46.296875 41.140625 47.34375 
Q 37.3125 48.390625 33.40625 48.390625 
Q 24.65625 48.390625 19.8125 42.84375 
Q 14.984375 37.3125 14.984375 27.296875 
Q 14.984375 17.28125 19.8125 11.734375 
Q 24.65625 6.203125 33.40625 6.203125 
Q 37.3125 6.203125 41.140625 7.25 
Q 44.96875 8.296875 48.78125 10.40625 
L 48.78125 2.09375 
Q 45.015625 0.34375 40.984375 -0.53125 
Q 36.96875 -1.421875 32.421875 -1.421875 
Q 20.0625 -1.421875 12.78125 6.34375 
Q 5.515625 14.109375 5.515625 27.296875 
Q 5.515625 40.671875 12.859375 48.328125 
Q 20.21875 56 33.015625 56 
Q 37.15625 56 41.109375 55.140625 
Q 45.0625 54.296875 48.78125 52.59375 
z
" id="DejaVuSans-99"/>
    </defs>
    <g transform="translate(192.685313 35.472)scale(0.12 -0.12)">
     <use xlink:href="#DejaVuSans-75"/>
     <use x="65.576172" xlink:href="#DejaVuSans-76"/>
     <use x="121.289062" xlink:href="#DejaVuSans-32"/>
     <use x="153.076172" xlink:href="#DejaVuSans-68"/>
     <use x="230.078125" xlink:href="#DejaVuSans-105"/>
     <use x="257.861328" xlink:href="#DejaVuSans-118"/>
     <use x="317.041016" xlink:href="#DejaVuSans-101"/>
     <use x="378.564453" xlink:href="#DejaVuSans-114"/>
     <use x="419.662109" xlink:href="#DejaVuSans-103"/>
     <use x="483.138672" xlink:href="#DejaVuSans-101"/>
     <use x="544.662109" xlink:href="#DejaVuSans-110"/>
     <use x="608.041016" xlink:href="#DejaVuSans-99"/>
     <use x="663.021484" xlink:href="#DejaVuSans-101"/>
    </g>
   </g>
   <g id="legend_1">
    <g id="patch_7">
     <path d="M 64.6 196.87825 
L 162.66875 196.87825 
Q 164.66875 196.87825 164.66875 194.87825 
L 164.66875 48.472 
Q 164.66875 46.472 162.66875 46.472 
L 64.6 46.472 
Q 62.6 46.472 62.6 48.472 
L 62.6 194.87825 
Q 62.6 196.87825 64.6 196.87825 
z
" style="fill:#ffffff;opacity:0.8;stroke:#cccccc;stroke-linejoin:miter;"/>
    </g>
    <g id="line2d_95">
     <path d="M 66.6 54.632937 
L 86.6 54.632937 
" style="fill:none;stroke:#1f77b4;stroke-linecap:square;stroke-width:1.5;"/>
    </g>
    <g id="line2d_96"/>
    <g id="text_18">
     <!-- =0.1 - Test -->
     <defs>
      <path d="M 18.40625 3.375 
L 18.40625 -20.796875 
L 9.375 -20.796875 
L 9.375 54.34375 
Q 9.375 76.609375 30.171875 76.609375 
Q 51.375 76.609375 51.375 57.8125 
Q 51.375 44.4375 42.96875 39.546875 
Q 56.640625 35.15625 56.640625 22.125 
Q 56.640625 -1.03125 33.109375 -1.03125 
Q 22.75 -1.03125 18.40625 3.375 
z
M 18.40625 15.09375 
Q 23.828125 6.640625 33.453125 6.640625 
Q 47.515625 6.640625 47.515625 21.96875 
Q 47.515625 35.75 24.859375 34.671875 
L 24.859375 42.96875 
Q 42.578125 42.96875 42.578125 58.59375 
Q 42.578125 69.28125 31.15625 69.28125 
Q 18.40625 69.28125 18.40625 54.046875 
z
" id="DejaVuSans-946"/>
      <path d="M 10.59375 45.40625 
L 73.1875 45.40625 
L 73.1875 37.203125 
L 10.59375 37.203125 
z
M 10.59375 25.484375 
L 73.1875 25.484375 
L 73.1875 17.1875 
L 10.59375 17.1875 
z
" id="DejaVuSans-61"/>
      <path d="M 10.6875 12.40625 
L 21 12.40625 
L 21 0 
L 10.6875 0 
z
" id="DejaVuSans-46"/>
      <path d="M 4.890625 31.390625 
L 31.203125 31.390625 
L 31.203125 23.390625 
L 4.890625 23.390625 
z
" id="DejaVuSans-45"/>
      <path d="M -0.296875 72.90625 
L 61.375 72.90625 
L 61.375 64.59375 
L 35.5 64.59375 
L 35.5 0 
L 25.59375 0 
L 25.59375 64.59375 
L -0.296875 64.59375 
z
" id="DejaVuSans-84"/>
     </defs>
     <g transform="translate(94.6 58.132937)scale(0.1 -0.1)">
      <use xlink:href="#DejaVuSans-946"/>
      <use x="63.818359" xlink:href="#DejaVuSans-61"/>
      <use x="147.607422" xlink:href="#DejaVuSans-48"/>
      <use x="211.230469" xlink:href="#DejaVuSans-46"/>
      <use x="243.017578" xlink:href="#DejaVuSans-49"/>
      <use x="306.640625" xlink:href="#DejaVuSans-32"/>
      <use x="338.427734" xlink:href="#DejaVuSans-45"/>
      <use x="374.511719" xlink:href="#DejaVuSans-32"/>
      <use x="406.298828" xlink:href="#DejaVuSans-84"/>
      <use x="467.117188" xlink:href="#DejaVuSans-101"/>
      <use x="528.640625" xlink:href="#DejaVuSans-115"/>
      <use x="580.740234" xlink:href="#DejaVuSans-116"/>
     </g>
    </g>
    <g id="line2d_97">
     <path d="M 66.6 69.373562 
L 86.6 69.373562 
" style="fill:none;stroke:#aec7e8;stroke-linecap:square;stroke-opacity:0.5;stroke-width:1.5;"/>
    </g>
    <g id="line2d_98"/>
    <g id="text_19">
     <!-- =0.1 - Train -->
     <defs>
      <path d="M 34.28125 27.484375 
Q 23.390625 27.484375 19.1875 25 
Q 14.984375 22.515625 14.984375 16.5 
Q 14.984375 11.71875 18.140625 8.90625 
Q 21.296875 6.109375 26.703125 6.109375 
Q 34.1875 6.109375 38.703125 11.40625 
Q 43.21875 16.703125 43.21875 25.484375 
L 43.21875 27.484375 
z
M 52.203125 31.203125 
L 52.203125 0 
L 43.21875 0 
L 43.21875 8.296875 
Q 40.140625 3.328125 35.546875 0.953125 
Q 30.953125 -1.421875 24.3125 -1.421875 
Q 15.921875 -1.421875 10.953125 3.296875 
Q 6 8.015625 6 15.921875 
Q 6 25.140625 12.171875 29.828125 
Q 18.359375 34.515625 30.609375 34.515625 
L 43.21875 34.515625 
L 43.21875 35.40625 
Q 43.21875 41.609375 39.140625 45 
Q 35.0625 48.390625 27.6875 48.390625 
Q 23 48.390625 18.546875 47.265625 
Q 14.109375 46.140625 10.015625 43.890625 
L 10.015625 52.203125 
Q 14.9375 54.109375 19.578125 55.046875 
Q 24.21875 56 28.609375 56 
Q 40.484375 56 46.34375 49.84375 
Q 52.203125 43.703125 52.203125 31.203125 
z
" id="DejaVuSans-97"/>
     </defs>
     <g transform="translate(94.6 72.873562)scale(0.1 -0.1)">
      <use xlink:href="#DejaVuSans-946"/>
      <use x="63.818359" xlink:href="#DejaVuSans-61"/>
      <use x="147.607422" xlink:href="#DejaVuSans-48"/>
      <use x="211.230469" xlink:href="#DejaVuSans-46"/>
      <use x="243.017578" xlink:href="#DejaVuSans-49"/>
      <use x="306.640625" xlink:href="#DejaVuSans-32"/>
      <use x="338.427734" xlink:href="#DejaVuSans-45"/>
      <use x="374.511719" xlink:href="#DejaVuSans-32"/>
      <use x="406.298828" xlink:href="#DejaVuSans-84"/>
      <use x="467.164062" xlink:href="#DejaVuSans-114"/>
      <use x="508.277344" xlink:href="#DejaVuSans-97"/>
      <use x="569.556641" xlink:href="#DejaVuSans-105"/>
      <use x="597.339844" xlink:href="#DejaVuSans-110"/>
     </g>
    </g>
    <g id="line2d_99">
     <path d="M 66.6 84.114188 
L 86.6 84.114188 
" style="fill:none;stroke:#ff7f0e;stroke-linecap:square;stroke-width:1.5;"/>
    </g>
    <g id="line2d_100"/>
    <g id="text_20">
     <!-- =1 - Test -->
     <g transform="translate(94.6 87.614188)scale(0.1 -0.1)">
      <use xlink:href="#DejaVuSans-946"/>
      <use x="63.818359" xlink:href="#DejaVuSans-61"/>
      <use x="147.607422" xlink:href="#DejaVuSans-49"/>
      <use x="211.230469" xlink:href="#DejaVuSans-32"/>
      <use x="243.017578" xlink:href="#DejaVuSans-45"/>
      <use x="279.101562" xlink:href="#DejaVuSans-32"/>
      <use x="310.888672" xlink:href="#DejaVuSans-84"/>
      <use x="371.707031" xlink:href="#DejaVuSans-101"/>
      <use x="433.230469" xlink:href="#DejaVuSans-115"/>
      <use x="485.330078" xlink:href="#DejaVuSans-116"/>
     </g>
    </g>
    <g id="line2d_101">
     <path d="M 66.6 98.854812 
L 86.6 98.854812 
" style="fill:none;stroke:#ffbb78;stroke-linecap:square;stroke-opacity:0.5;stroke-width:1.5;"/>
    </g>
    <g id="line2d_102"/>
    <g id="text_21">
     <!-- =1 - Train -->
     <g transform="translate(94.6 102.354812)scale(0.1 -0.1)">
      <use xlink:href="#DejaVuSans-946"/>
      <use x="63.818359" xlink:href="#DejaVuSans-61"/>
      <use x="147.607422" xlink:href="#DejaVuSans-49"/>
      <use x="211.230469" xlink:href="#DejaVuSans-32"/>
      <use x="243.017578" xlink:href="#DejaVuSans-45"/>
      <use x="279.101562" xlink:href="#DejaVuSans-32"/>
      <use x="310.888672" xlink:href="#DejaVuSans-84"/>
      <use x="371.753906" xlink:href="#DejaVuSans-114"/>
      <use x="412.867188" xlink:href="#DejaVuSans-97"/>
      <use x="474.146484" xlink:href="#DejaVuSans-105"/>
      <use x="501.929688" xlink:href="#DejaVuSans-110"/>
     </g>
    </g>
    <g id="line2d_103">
     <path d="M 66.6 113.595438 
L 86.6 113.595438 
" style="fill:none;stroke:#2ca02c;stroke-linecap:square;stroke-width:1.5;"/>
    </g>
    <g id="line2d_104"/>
    <g id="text_22">
     <!-- =2 - Test -->
     <g transform="translate(94.6 117.095438)scale(0.1 -0.1)">
      <use xlink:href="#DejaVuSans-946"/>
      <use x="63.818359" xlink:href="#DejaVuSans-61"/>
      <use x="147.607422" xlink:href="#DejaVuSans-50"/>
      <use x="211.230469" xlink:href="#DejaVuSans-32"/>
      <use x="243.017578" xlink:href="#DejaVuSans-45"/>
      <use x="279.101562" xlink:href="#DejaVuSans-32"/>
      <use x="310.888672" xlink:href="#DejaVuSans-84"/>
      <use x="371.707031" xlink:href="#DejaVuSans-101"/>
      <use x="433.230469" xlink:href="#DejaVuSans-115"/>
      <use x="485.330078" xlink:href="#DejaVuSans-116"/>
     </g>
    </g>
    <g id="line2d_105">
     <path d="M 66.6 128.336062 
L 86.6 128.336062 
" style="fill:none;stroke:#98df8a;stroke-linecap:square;stroke-opacity:0.5;stroke-width:1.5;"/>
    </g>
    <g id="line2d_106"/>
    <g id="text_23">
     <!-- =2 - Train -->
     <g transform="translate(94.6 131.836062)scale(0.1 -0.1)">
      <use xlink:href="#DejaVuSans-946"/>
      <use x="63.818359" xlink:href="#DejaVuSans-61"/>
      <use x="147.607422" xlink:href="#DejaVuSans-50"/>
      <use x="211.230469" xlink:href="#DejaVuSans-32"/>
      <use x="243.017578" xlink:href="#DejaVuSans-45"/>
      <use x="279.101562" xlink:href="#DejaVuSans-32"/>
      <use x="310.888672" xlink:href="#DejaVuSans-84"/>
      <use x="371.753906" xlink:href="#DejaVuSans-114"/>
      <use x="412.867188" xlink:href="#DejaVuSans-97"/>
      <use x="474.146484" xlink:href="#DejaVuSans-105"/>
      <use x="501.929688" xlink:href="#DejaVuSans-110"/>
     </g>
    </g>
    <g id="line2d_107">
     <path d="M 66.6 143.076687 
L 86.6 143.076687 
" style="fill:none;stroke:#d62728;stroke-linecap:square;stroke-width:1.5;"/>
    </g>
    <g id="line2d_108"/>
    <g id="text_24">
     <!-- =4 - Test -->
     <g transform="translate(94.6 146.576687)scale(0.1 -0.1)">
      <use xlink:href="#DejaVuSans-946"/>
      <use x="63.818359" xlink:href="#DejaVuSans-61"/>
      <use x="147.607422" xlink:href="#DejaVuSans-52"/>
      <use x="211.230469" xlink:href="#DejaVuSans-32"/>
      <use x="243.017578" xlink:href="#DejaVuSans-45"/>
      <use x="279.101562" xlink:href="#DejaVuSans-32"/>
      <use x="310.888672" xlink:href="#DejaVuSans-84"/>
      <use x="371.707031" xlink:href="#DejaVuSans-101"/>
      <use x="433.230469" xlink:href="#DejaVuSans-115"/>
      <use x="485.330078" xlink:href="#DejaVuSans-116"/>
     </g>
    </g>
    <g id="line2d_109">
     <path d="M 66.6 157.817312 
L 86.6 157.817312 
" style="fill:none;stroke:#ff9896;stroke-linecap:square;stroke-opacity:0.5;stroke-width:1.5;"/>
    </g>
    <g id="line2d_110"/>
    <g id="text_25">
     <!-- =4 - Train -->
     <g transform="translate(94.6 161.317312)scale(0.1 -0.1)">
      <use xlink:href="#DejaVuSans-946"/>
      <use x="63.818359" xlink:href="#DejaVuSans-61"/>
      <use x="147.607422" xlink:href="#DejaVuSans-52"/>
      <use x="211.230469" xlink:href="#DejaVuSans-32"/>
      <use x="243.017578" xlink:href="#DejaVuSans-45"/>
      <use x="279.101562" xlink:href="#DejaVuSans-32"/>
      <use x="310.888672" xlink:href="#DejaVuSans-84"/>
      <use x="371.753906" xlink:href="#DejaVuSans-114"/>
      <use x="412.867188" xlink:href="#DejaVuSans-97"/>
      <use x="474.146484" xlink:href="#DejaVuSans-105"/>
      <use x="501.929688" xlink:href="#DejaVuSans-110"/>
     </g>
    </g>
    <g id="line2d_111">
     <path d="M 66.6 172.557937 
L 86.6 172.557937 
" style="fill:none;stroke:#9467bd;stroke-linecap:square;stroke-width:1.5;"/>
    </g>
    <g id="line2d_112"/>
    <g id="text_26">
     <!-- =8 - Test -->
     <defs>
      <path d="M 31.78125 34.625 
Q 24.75 34.625 20.71875 30.859375 
Q 16.703125 27.09375 16.703125 20.515625 
Q 16.703125 13.921875 20.71875 10.15625 
Q 24.75 6.390625 31.78125 6.390625 
Q 38.8125 6.390625 42.859375 10.171875 
Q 46.921875 13.96875 46.921875 20.515625 
Q 46.921875 27.09375 42.890625 30.859375 
Q 38.875 34.625 31.78125 34.625 
z
M 21.921875 38.8125 
Q 15.578125 40.375 12.03125 44.71875 
Q 8.5 49.078125 8.5 55.328125 
Q 8.5 64.0625 14.71875 69.140625 
Q 20.953125 74.21875 31.78125 74.21875 
Q 42.671875 74.21875 48.875 69.140625 
Q 55.078125 64.0625 55.078125 55.328125 
Q 55.078125 49.078125 51.53125 44.71875 
Q 48 40.375 41.703125 38.8125 
Q 48.828125 37.15625 52.796875 32.3125 
Q 56.78125 27.484375 56.78125 20.515625 
Q 56.78125 9.90625 50.3125 4.234375 
Q 43.84375 -1.421875 31.78125 -1.421875 
Q 19.734375 -1.421875 13.25 4.234375 
Q 6.78125 9.90625 6.78125 20.515625 
Q 6.78125 27.484375 10.78125 32.3125 
Q 14.796875 37.15625 21.921875 38.8125 
z
M 18.3125 54.390625 
Q 18.3125 48.734375 21.84375 45.5625 
Q 25.390625 42.390625 31.78125 42.390625 
Q 38.140625 42.390625 41.71875 45.5625 
Q 45.3125 48.734375 45.3125 54.390625 
Q 45.3125 60.0625 41.71875 63.234375 
Q 38.140625 66.40625 31.78125 66.40625 
Q 25.390625 66.40625 21.84375 63.234375 
Q 18.3125 60.0625 18.3125 54.390625 
z
" id="DejaVuSans-56"/>
     </defs>
     <g transform="translate(94.6 176.057937)scale(0.1 -0.1)">
      <use xlink:href="#DejaVuSans-946"/>
      <use x="63.818359" xlink:href="#DejaVuSans-61"/>
      <use x="147.607422" xlink:href="#DejaVuSans-56"/>
      <use x="211.230469" xlink:href="#DejaVuSans-32"/>
      <use x="243.017578" xlink:href="#DejaVuSans-45"/>
      <use x="279.101562" xlink:href="#DejaVuSans-32"/>
      <use x="310.888672" xlink:href="#DejaVuSans-84"/>
      <use x="371.707031" xlink:href="#DejaVuSans-101"/>
      <use x="433.230469" xlink:href="#DejaVuSans-115"/>
      <use x="485.330078" xlink:href="#DejaVuSans-116"/>
     </g>
    </g>
    <g id="line2d_113">
     <path d="M 66.6 187.298562 
L 86.6 187.298562 
" style="fill:none;stroke:#c5b0d5;stroke-linecap:square;stroke-opacity:0.5;stroke-width:1.5;"/>
    </g>
    <g id="line2d_114"/>
    <g id="text_27">
     <!-- =8 - Train -->
     <g transform="translate(94.6 190.798562)scale(0.1 -0.1)">
      <use xlink:href="#DejaVuSans-946"/>
      <use x="63.818359" xlink:href="#DejaVuSans-61"/>
      <use x="147.607422" xlink:href="#DejaVuSans-56"/>
      <use x="211.230469" xlink:href="#DejaVuSans-32"/>
      <use x="243.017578" xlink:href="#DejaVuSans-45"/>
      <use x="279.101562" xlink:href="#DejaVuSans-32"/>
      <use x="310.888672" xlink:href="#DejaVuSans-84"/>
      <use x="371.753906" xlink:href="#DejaVuSans-114"/>
      <use x="412.867188" xlink:href="#DejaVuSans-97"/>
      <use x="474.146484" xlink:href="#DejaVuSans-105"/>
      <use x="501.929688" xlink:href="#DejaVuSans-110"/>
     </g>
    </g>
   </g>
  </g>
 </g>
 <defs>
  <clipPath id="p1545e58089">
   <rect height="266.112" width="357.12" x="57.6" y="41.472"/>
  </clipPath>
 </defs>
</svg>
