<?xml version="1.0" encoding="utf-8" standalone="no"?>
<!DOCTYPE svg PUBLIC "-//W3C//DTD SVG 1.1//EN"
  "http://www.w3.org/Graphics/SVG/1.1/DTD/svg11.dtd">
<!-- Created with matplotlib (https://matplotlib.org/) -->
<svg height="345.6pt" version="1.1" viewBox="0 0 460.8 345.6" width="460.8pt" xmlns="http://www.w3.org/2000/svg" xmlns:xlink="http://www.w3.org/1999/xlink">
 <defs>
  <style type="text/css">
*{stroke-linecap:butt;stroke-linejoin:round;}
  </style>
 </defs>
 <g id="figure_1">
  <g id="patch_1">
   <path d="M 0 345.6 
L 460.8 345.6 
L 460.8 0 
L 0 0 
z
" style="fill:#ffffff;"/>
  </g>
  <g id="axes_1">
   <g id="patch_2">
    <path d="M 57.6 307.584 
L 414.72 307.584 
L 414.72 41.472 
L 57.6 41.472 
z
" style="fill:#ffffff;"/>
   </g>
   <g id="matplotlib.axis_1">
    <g id="xtick_1">
     <g id="line2d_1">
      <path clip-path="url(#peef62ae457)" d="M 72.546931 307.584 
L 72.546931 41.472 
" style="fill:none;stroke:#b0b0b0;stroke-linecap:square;stroke-width:0.8;"/>
     </g>
     <g id="line2d_2">
      <defs>
       <path d="M 0 0 
L 0 3.5 
" id="meb42b6059c" style="stroke:#000000;stroke-width:0.8;"/>
      </defs>
      <g>
       <use style="stroke:#000000;stroke-width:0.8;" x="72.546931" xlink:href="#meb42b6059c" y="307.584"/>
      </g>
     </g>
     <g id="text_1">
      <!-- 0 -->
      <defs>
       <path d="M 31.78125 66.40625 
Q 24.171875 66.40625 20.328125 58.90625 
Q 16.5 51.421875 16.5 36.375 
Q 16.5 21.390625 20.328125 13.890625 
Q 24.171875 6.390625 31.78125 6.390625 
Q 39.453125 6.390625 43.28125 13.890625 
Q 47.125 21.390625 47.125 36.375 
Q 47.125 51.421875 43.28125 58.90625 
Q 39.453125 66.40625 31.78125 66.40625 
z
M 31.78125 74.21875 
Q 44.046875 74.21875 50.515625 64.515625 
Q 56.984375 54.828125 56.984375 36.375 
Q 56.984375 17.96875 50.515625 8.265625 
Q 44.046875 -1.421875 31.78125 -1.421875 
Q 19.53125 -1.421875 13.0625 8.265625 
Q 6.59375 17.96875 6.59375 36.375 
Q 6.59375 54.828125 13.0625 64.515625 
Q 19.53125 74.21875 31.78125 74.21875 
z
" id="DejaVuSans-48"/>
      </defs>
      <g transform="translate(69.365681 322.182437)scale(0.1 -0.1)">
       <use xlink:href="#DejaVuSans-48"/>
      </g>
     </g>
    </g>
    <g id="xtick_2">
     <g id="line2d_3">
      <path clip-path="url(#peef62ae457)" d="M 123.876119 307.584 
L 123.876119 41.472 
" style="fill:none;stroke:#b0b0b0;stroke-linecap:square;stroke-width:0.8;"/>
     </g>
     <g id="line2d_4">
      <g>
       <use style="stroke:#000000;stroke-width:0.8;" x="123.876119" xlink:href="#meb42b6059c" y="307.584"/>
      </g>
     </g>
     <g id="text_2">
      <!-- 10000 -->
      <defs>
       <path d="M 12.40625 8.296875 
L 28.515625 8.296875 
L 28.515625 63.921875 
L 10.984375 60.40625 
L 10.984375 69.390625 
L 28.421875 72.90625 
L 38.28125 72.90625 
L 38.28125 8.296875 
L 54.390625 8.296875 
L 54.390625 0 
L 12.40625 0 
z
" id="DejaVuSans-49"/>
      </defs>
      <g transform="translate(107.969869 322.182437)scale(0.1 -0.1)">
       <use xlink:href="#DejaVuSans-49"/>
       <use x="63.623047" xlink:href="#DejaVuSans-48"/>
       <use x="127.246094" xlink:href="#DejaVuSans-48"/>
       <use x="190.869141" xlink:href="#DejaVuSans-48"/>
       <use x="254.492188" xlink:href="#DejaVuSans-48"/>
      </g>
     </g>
    </g>
    <g id="xtick_3">
     <g id="line2d_5">
      <path clip-path="url(#peef62ae457)" d="M 175.205306 307.584 
L 175.205306 41.472 
" style="fill:none;stroke:#b0b0b0;stroke-linecap:square;stroke-width:0.8;"/>
     </g>
     <g id="line2d_6">
      <g>
       <use style="stroke:#000000;stroke-width:0.8;" x="175.205306" xlink:href="#meb42b6059c" y="307.584"/>
      </g>
     </g>
     <g id="text_3">
      <!-- 20000 -->
      <defs>
       <path d="M 19.1875 8.296875 
L 53.609375 8.296875 
L 53.609375 0 
L 7.328125 0 
L 7.328125 8.296875 
Q 12.9375 14.109375 22.625 23.890625 
Q 32.328125 33.6875 34.8125 36.53125 
Q 39.546875 41.84375 41.421875 45.53125 
Q 43.3125 49.21875 43.3125 52.78125 
Q 43.3125 58.59375 39.234375 62.25 
Q 35.15625 65.921875 28.609375 65.921875 
Q 23.96875 65.921875 18.8125 64.3125 
Q 13.671875 62.703125 7.8125 59.421875 
L 7.8125 69.390625 
Q 13.765625 71.78125 18.9375 73 
Q 24.125 74.21875 28.421875 74.21875 
Q 39.75 74.21875 46.484375 68.546875 
Q 53.21875 62.890625 53.21875 53.421875 
Q 53.21875 48.921875 51.53125 44.890625 
Q 49.859375 40.875 45.40625 35.40625 
Q 44.1875 33.984375 37.640625 27.21875 
Q 31.109375 20.453125 19.1875 8.296875 
z
" id="DejaVuSans-50"/>
      </defs>
      <g transform="translate(159.299056 322.182437)scale(0.1 -0.1)">
       <use xlink:href="#DejaVuSans-50"/>
       <use x="63.623047" xlink:href="#DejaVuSans-48"/>
       <use x="127.246094" xlink:href="#DejaVuSans-48"/>
       <use x="190.869141" xlink:href="#DejaVuSans-48"/>
       <use x="254.492188" xlink:href="#DejaVuSans-48"/>
      </g>
     </g>
    </g>
    <g id="xtick_4">
     <g id="line2d_7">
      <path clip-path="url(#peef62ae457)" d="M 226.534494 307.584 
L 226.534494 41.472 
" style="fill:none;stroke:#b0b0b0;stroke-linecap:square;stroke-width:0.8;"/>
     </g>
     <g id="line2d_8">
      <g>
       <use style="stroke:#000000;stroke-width:0.8;" x="226.534494" xlink:href="#meb42b6059c" y="307.584"/>
      </g>
     </g>
     <g id="text_4">
      <!-- 30000 -->
      <defs>
       <path d="M 40.578125 39.3125 
Q 47.65625 37.796875 51.625 33 
Q 55.609375 28.21875 55.609375 21.1875 
Q 55.609375 10.40625 48.1875 4.484375 
Q 40.765625 -1.421875 27.09375 -1.421875 
Q 22.515625 -1.421875 17.65625 -0.515625 
Q 12.796875 0.390625 7.625 2.203125 
L 7.625 11.71875 
Q 11.71875 9.328125 16.59375 8.109375 
Q 21.484375 6.890625 26.8125 6.890625 
Q 36.078125 6.890625 40.9375 10.546875 
Q 45.796875 14.203125 45.796875 21.1875 
Q 45.796875 27.640625 41.28125 31.265625 
Q 36.765625 34.90625 28.71875 34.90625 
L 20.21875 34.90625 
L 20.21875 43.015625 
L 29.109375 43.015625 
Q 36.375 43.015625 40.234375 45.921875 
Q 44.09375 48.828125 44.09375 54.296875 
Q 44.09375 59.90625 40.109375 62.90625 
Q 36.140625 65.921875 28.71875 65.921875 
Q 24.65625 65.921875 20.015625 65.03125 
Q 15.375 64.15625 9.8125 62.3125 
L 9.8125 71.09375 
Q 15.4375 72.65625 20.34375 73.4375 
Q 25.25 74.21875 29.59375 74.21875 
Q 40.828125 74.21875 47.359375 69.109375 
Q 53.90625 64.015625 53.90625 55.328125 
Q 53.90625 49.265625 50.4375 45.09375 
Q 46.96875 40.921875 40.578125 39.3125 
z
" id="DejaVuSans-51"/>
      </defs>
      <g transform="translate(210.628244 322.182437)scale(0.1 -0.1)">
       <use xlink:href="#DejaVuSans-51"/>
       <use x="63.623047" xlink:href="#DejaVuSans-48"/>
       <use x="127.246094" xlink:href="#DejaVuSans-48"/>
       <use x="190.869141" xlink:href="#DejaVuSans-48"/>
       <use x="254.492188" xlink:href="#DejaVuSans-48"/>
      </g>
     </g>
    </g>
    <g id="xtick_5">
     <g id="line2d_9">
      <path clip-path="url(#peef62ae457)" d="M 277.863682 307.584 
L 277.863682 41.472 
" style="fill:none;stroke:#b0b0b0;stroke-linecap:square;stroke-width:0.8;"/>
     </g>
     <g id="line2d_10">
      <g>
       <use style="stroke:#000000;stroke-width:0.8;" x="277.863682" xlink:href="#meb42b6059c" y="307.584"/>
      </g>
     </g>
     <g id="text_5">
      <!-- 40000 -->
      <defs>
       <path d="M 37.796875 64.3125 
L 12.890625 25.390625 
L 37.796875 25.390625 
z
M 35.203125 72.90625 
L 47.609375 72.90625 
L 47.609375 25.390625 
L 58.015625 25.390625 
L 58.015625 17.1875 
L 47.609375 17.1875 
L 47.609375 0 
L 37.796875 0 
L 37.796875 17.1875 
L 4.890625 17.1875 
L 4.890625 26.703125 
z
" id="DejaVuSans-52"/>
      </defs>
      <g transform="translate(261.957432 322.182437)scale(0.1 -0.1)">
       <use xlink:href="#DejaVuSans-52"/>
       <use x="63.623047" xlink:href="#DejaVuSans-48"/>
       <use x="127.246094" xlink:href="#DejaVuSans-48"/>
       <use x="190.869141" xlink:href="#DejaVuSans-48"/>
       <use x="254.492188" xlink:href="#DejaVuSans-48"/>
      </g>
     </g>
    </g>
    <g id="xtick_6">
     <g id="line2d_11">
      <path clip-path="url(#peef62ae457)" d="M 329.192869 307.584 
L 329.192869 41.472 
" style="fill:none;stroke:#b0b0b0;stroke-linecap:square;stroke-width:0.8;"/>
     </g>
     <g id="line2d_12">
      <g>
       <use style="stroke:#000000;stroke-width:0.8;" x="329.192869" xlink:href="#meb42b6059c" y="307.584"/>
      </g>
     </g>
     <g id="text_6">
      <!-- 50000 -->
      <defs>
       <path d="M 10.796875 72.90625 
L 49.515625 72.90625 
L 49.515625 64.59375 
L 19.828125 64.59375 
L 19.828125 46.734375 
Q 21.96875 47.46875 24.109375 47.828125 
Q 26.265625 48.1875 28.421875 48.1875 
Q 40.625 48.1875 47.75 41.5 
Q 54.890625 34.8125 54.890625 23.390625 
Q 54.890625 11.625 47.5625 5.09375 
Q 40.234375 -1.421875 26.90625 -1.421875 
Q 22.3125 -1.421875 17.546875 -0.640625 
Q 12.796875 0.140625 7.71875 1.703125 
L 7.71875 11.625 
Q 12.109375 9.234375 16.796875 8.0625 
Q 21.484375 6.890625 26.703125 6.890625 
Q 35.15625 6.890625 40.078125 11.328125 
Q 45.015625 15.765625 45.015625 23.390625 
Q 45.015625 31 40.078125 35.4375 
Q 35.15625 39.890625 26.703125 39.890625 
Q 22.75 39.890625 18.8125 39.015625 
Q 14.890625 38.140625 10.796875 36.28125 
z
" id="DejaVuSans-53"/>
      </defs>
      <g transform="translate(313.286619 322.182437)scale(0.1 -0.1)">
       <use xlink:href="#DejaVuSans-53"/>
       <use x="63.623047" xlink:href="#DejaVuSans-48"/>
       <use x="127.246094" xlink:href="#DejaVuSans-48"/>
       <use x="190.869141" xlink:href="#DejaVuSans-48"/>
       <use x="254.492188" xlink:href="#DejaVuSans-48"/>
      </g>
     </g>
    </g>
    <g id="xtick_7">
     <g id="line2d_13">
      <path clip-path="url(#peef62ae457)" d="M 380.522057 307.584 
L 380.522057 41.472 
" style="fill:none;stroke:#b0b0b0;stroke-linecap:square;stroke-width:0.8;"/>
     </g>
     <g id="line2d_14">
      <g>
       <use style="stroke:#000000;stroke-width:0.8;" x="380.522057" xlink:href="#meb42b6059c" y="307.584"/>
      </g>
     </g>
     <g id="text_7">
      <!-- 60000 -->
      <defs>
       <path d="M 33.015625 40.375 
Q 26.375 40.375 22.484375 35.828125 
Q 18.609375 31.296875 18.609375 23.390625 
Q 18.609375 15.53125 22.484375 10.953125 
Q 26.375 6.390625 33.015625 6.390625 
Q 39.65625 6.390625 43.53125 10.953125 
Q 47.40625 15.53125 47.40625 23.390625 
Q 47.40625 31.296875 43.53125 35.828125 
Q 39.65625 40.375 33.015625 40.375 
z
M 52.59375 71.296875 
L 52.59375 62.3125 
Q 48.875 64.0625 45.09375 64.984375 
Q 41.3125 65.921875 37.59375 65.921875 
Q 27.828125 65.921875 22.671875 59.328125 
Q 17.53125 52.734375 16.796875 39.40625 
Q 19.671875 43.65625 24.015625 45.921875 
Q 28.375 48.1875 33.59375 48.1875 
Q 44.578125 48.1875 50.953125 41.515625 
Q 57.328125 34.859375 57.328125 23.390625 
Q 57.328125 12.15625 50.6875 5.359375 
Q 44.046875 -1.421875 33.015625 -1.421875 
Q 20.359375 -1.421875 13.671875 8.265625 
Q 6.984375 17.96875 6.984375 36.375 
Q 6.984375 53.65625 15.1875 63.9375 
Q 23.390625 74.21875 37.203125 74.21875 
Q 40.921875 74.21875 44.703125 73.484375 
Q 48.484375 72.75 52.59375 71.296875 
z
" id="DejaVuSans-54"/>
      </defs>
      <g transform="translate(364.615807 322.182437)scale(0.1 -0.1)">
       <use xlink:href="#DejaVuSans-54"/>
       <use x="63.623047" xlink:href="#DejaVuSans-48"/>
       <use x="127.246094" xlink:href="#DejaVuSans-48"/>
       <use x="190.869141" xlink:href="#DejaVuSans-48"/>
       <use x="254.492188" xlink:href="#DejaVuSans-48"/>
      </g>
     </g>
    </g>
    <g id="text_8">
     <!-- Steps -->
     <defs>
      <path d="M 53.515625 70.515625 
L 53.515625 60.890625 
Q 47.90625 63.578125 42.921875 64.890625 
Q 37.9375 66.21875 33.296875 66.21875 
Q 25.25 66.21875 20.875 63.09375 
Q 16.5 59.96875 16.5 54.203125 
Q 16.5 49.359375 19.40625 46.890625 
Q 22.3125 44.4375 30.421875 42.921875 
L 36.375 41.703125 
Q 47.40625 39.59375 52.65625 34.296875 
Q 57.90625 29 57.90625 20.125 
Q 57.90625 9.515625 50.796875 4.046875 
Q 43.703125 -1.421875 29.984375 -1.421875 
Q 24.8125 -1.421875 18.96875 -0.25 
Q 13.140625 0.921875 6.890625 3.21875 
L 6.890625 13.375 
Q 12.890625 10.015625 18.65625 8.296875 
Q 24.421875 6.59375 29.984375 6.59375 
Q 38.421875 6.59375 43.015625 9.90625 
Q 47.609375 13.234375 47.609375 19.390625 
Q 47.609375 24.75 44.3125 27.78125 
Q 41.015625 30.8125 33.5 32.328125 
L 27.484375 33.5 
Q 16.453125 35.6875 11.515625 40.375 
Q 6.59375 45.0625 6.59375 53.421875 
Q 6.59375 63.09375 13.40625 68.65625 
Q 20.21875 74.21875 32.171875 74.21875 
Q 37.3125 74.21875 42.625 73.28125 
Q 47.953125 72.359375 53.515625 70.515625 
z
" id="DejaVuSans-83"/>
      <path d="M 18.3125 70.21875 
L 18.3125 54.6875 
L 36.8125 54.6875 
L 36.8125 47.703125 
L 18.3125 47.703125 
L 18.3125 18.015625 
Q 18.3125 11.328125 20.140625 9.421875 
Q 21.96875 7.515625 27.59375 7.515625 
L 36.8125 7.515625 
L 36.8125 0 
L 27.59375 0 
Q 17.1875 0 13.234375 3.875 
Q 9.28125 7.765625 9.28125 18.015625 
L 9.28125 47.703125 
L 2.6875 47.703125 
L 2.6875 54.6875 
L 9.28125 54.6875 
L 9.28125 70.21875 
z
" id="DejaVuSans-116"/>
      <path d="M 56.203125 29.59375 
L 56.203125 25.203125 
L 14.890625 25.203125 
Q 15.484375 15.921875 20.484375 11.0625 
Q 25.484375 6.203125 34.421875 6.203125 
Q 39.59375 6.203125 44.453125 7.46875 
Q 49.3125 8.734375 54.109375 11.28125 
L 54.109375 2.78125 
Q 49.265625 0.734375 44.1875 -0.34375 
Q 39.109375 -1.421875 33.890625 -1.421875 
Q 20.796875 -1.421875 13.15625 6.1875 
Q 5.515625 13.8125 5.515625 26.8125 
Q 5.515625 40.234375 12.765625 48.109375 
Q 20.015625 56 32.328125 56 
Q 43.359375 56 49.78125 48.890625 
Q 56.203125 41.796875 56.203125 29.59375 
z
M 47.21875 32.234375 
Q 47.125 39.59375 43.09375 43.984375 
Q 39.0625 48.390625 32.421875 48.390625 
Q 24.90625 48.390625 20.390625 44.140625 
Q 15.875 39.890625 15.1875 32.171875 
z
" id="DejaVuSans-101"/>
      <path d="M 18.109375 8.203125 
L 18.109375 -20.796875 
L 9.078125 -20.796875 
L 9.078125 54.6875 
L 18.109375 54.6875 
L 18.109375 46.390625 
Q 20.953125 51.265625 25.265625 53.625 
Q 29.59375 56 35.59375 56 
Q 45.5625 56 51.78125 48.09375 
Q 58.015625 40.1875 58.015625 27.296875 
Q 58.015625 14.40625 51.78125 6.484375 
Q 45.5625 -1.421875 35.59375 -1.421875 
Q 29.59375 -1.421875 25.265625 0.953125 
Q 20.953125 3.328125 18.109375 8.203125 
z
M 48.6875 27.296875 
Q 48.6875 37.203125 44.609375 42.84375 
Q 40.53125 48.484375 33.40625 48.484375 
Q 26.265625 48.484375 22.1875 42.84375 
Q 18.109375 37.203125 18.109375 27.296875 
Q 18.109375 17.390625 22.1875 11.75 
Q 26.265625 6.109375 33.40625 6.109375 
Q 40.53125 6.109375 44.609375 11.75 
Q 48.6875 17.390625 48.6875 27.296875 
z
" id="DejaVuSans-112"/>
      <path d="M 44.28125 53.078125 
L 44.28125 44.578125 
Q 40.484375 46.53125 36.375 47.5 
Q 32.28125 48.484375 27.875 48.484375 
Q 21.1875 48.484375 17.84375 46.4375 
Q 14.5 44.390625 14.5 40.28125 
Q 14.5 37.15625 16.890625 35.375 
Q 19.28125 33.59375 26.515625 31.984375 
L 29.59375 31.296875 
Q 39.15625 29.25 43.1875 25.515625 
Q 47.21875 21.78125 47.21875 15.09375 
Q 47.21875 7.46875 41.1875 3.015625 
Q 35.15625 -1.421875 24.609375 -1.421875 
Q 20.21875 -1.421875 15.453125 -0.5625 
Q 10.6875 0.296875 5.421875 2 
L 5.421875 11.28125 
Q 10.40625 8.6875 15.234375 7.390625 
Q 20.0625 6.109375 24.8125 6.109375 
Q 31.15625 6.109375 34.5625 8.28125 
Q 37.984375 10.453125 37.984375 14.40625 
Q 37.984375 18.0625 35.515625 20.015625 
Q 33.0625 21.96875 24.703125 23.78125 
L 21.578125 24.515625 
Q 13.234375 26.265625 9.515625 29.90625 
Q 5.8125 33.546875 5.8125 39.890625 
Q 5.8125 47.609375 11.28125 51.796875 
Q 16.75 56 26.8125 56 
Q 31.78125 56 36.171875 55.265625 
Q 40.578125 54.546875 44.28125 53.078125 
z
" id="DejaVuSans-115"/>
     </defs>
     <g transform="translate(222.170156 335.860562)scale(0.1 -0.1)">
      <use xlink:href="#DejaVuSans-83"/>
      <use x="63.476562" xlink:href="#DejaVuSans-116"/>
      <use x="102.685547" xlink:href="#DejaVuSans-101"/>
      <use x="164.208984" xlink:href="#DejaVuSans-112"/>
      <use x="227.685547" xlink:href="#DejaVuSans-115"/>
     </g>
    </g>
   </g>
   <g id="matplotlib.axis_2">
    <g id="ytick_1">
     <g id="line2d_15">
      <path clip-path="url(#peef62ae457)" d="M 57.6 250.384036 
L 414.72 250.384036 
" style="fill:none;stroke:#b0b0b0;stroke-linecap:square;stroke-width:0.8;"/>
     </g>
     <g id="line2d_16">
      <defs>
       <path d="M 0 0 
L -3.5 0 
" id="ma20d72a048" style="stroke:#000000;stroke-width:0.8;"/>
      </defs>
      <g>
       <use style="stroke:#000000;stroke-width:0.8;" x="57.6" xlink:href="#ma20d72a048" y="250.384036"/>
      </g>
     </g>
     <g id="text_9">
      <!-- $\mathdefault{10^{-1}}$ -->
      <defs>
       <path d="M 10.59375 35.5 
L 73.1875 35.5 
L 73.1875 27.203125 
L 10.59375 27.203125 
z
" id="DejaVuSans-8722"/>
      </defs>
      <g transform="translate(27.1 254.183254)scale(0.1 -0.1)">
       <use transform="translate(0 0.684375)" xlink:href="#DejaVuSans-49"/>
       <use transform="translate(63.623047 0.684375)" xlink:href="#DejaVuSans-48"/>
       <use transform="translate(128.203125 38.965625)scale(0.7)" xlink:href="#DejaVuSans-8722"/>
       <use transform="translate(186.855469 38.965625)scale(0.7)" xlink:href="#DejaVuSans-49"/>
      </g>
     </g>
    </g>
    <g id="ytick_2">
     <g id="line2d_17">
      <defs>
       <path d="M 0 0 
L -2 0 
" id="m826e848052" style="stroke:#000000;stroke-width:0.6;"/>
      </defs>
      <g>
       <use style="stroke:#000000;stroke-width:0.6;" x="57.6" xlink:href="#m826e848052" y="300.834345"/>
      </g>
     </g>
    </g>
    <g id="ytick_3">
     <g id="line2d_18">
      <g>
       <use style="stroke:#000000;stroke-width:0.6;" x="57.6" xlink:href="#m826e848052" y="285.610071"/>
      </g>
     </g>
    </g>
    <g id="ytick_4">
     <g id="line2d_19">
      <g>
       <use style="stroke:#000000;stroke-width:0.6;" x="57.6" xlink:href="#m826e848052" y="272.422204"/>
      </g>
     </g>
    </g>
    <g id="ytick_5">
     <g id="line2d_20">
      <g>
       <use style="stroke:#000000;stroke-width:0.6;" x="57.6" xlink:href="#m826e848052" y="260.789682"/>
      </g>
     </g>
    </g>
    <g id="ytick_6">
     <g id="line2d_21">
      <g>
       <use style="stroke:#000000;stroke-width:0.6;" x="57.6" xlink:href="#m826e848052" y="181.927231"/>
      </g>
     </g>
    </g>
    <g id="ytick_7">
     <g id="line2d_22">
      <g>
       <use style="stroke:#000000;stroke-width:0.6;" x="57.6" xlink:href="#m826e848052" y="141.882567"/>
      </g>
     </g>
    </g>
    <g id="ytick_8">
     <g id="line2d_23">
      <g>
       <use style="stroke:#000000;stroke-width:0.6;" x="57.6" xlink:href="#m826e848052" y="113.470426"/>
      </g>
     </g>
    </g>
    <g id="ytick_9">
     <g id="line2d_24">
      <g>
       <use style="stroke:#000000;stroke-width:0.6;" x="57.6" xlink:href="#m826e848052" y="91.432257"/>
      </g>
     </g>
    </g>
    <g id="ytick_10">
     <g id="line2d_25">
      <g>
       <use style="stroke:#000000;stroke-width:0.6;" x="57.6" xlink:href="#m826e848052" y="73.425762"/>
      </g>
     </g>
    </g>
    <g id="ytick_11">
     <g id="line2d_26">
      <g>
       <use style="stroke:#000000;stroke-width:0.6;" x="57.6" xlink:href="#m826e848052" y="58.201488"/>
      </g>
     </g>
    </g>
    <g id="ytick_12">
     <g id="line2d_27">
      <g>
       <use style="stroke:#000000;stroke-width:0.6;" x="57.6" xlink:href="#m826e848052" y="45.013621"/>
      </g>
     </g>
    </g>
    <g id="text_10">
     <!-- Pixel Error -->
     <defs>
      <path d="M 19.671875 64.796875 
L 19.671875 37.40625 
L 32.078125 37.40625 
Q 38.96875 37.40625 42.71875 40.96875 
Q 46.484375 44.53125 46.484375 51.125 
Q 46.484375 57.671875 42.71875 61.234375 
Q 38.96875 64.796875 32.078125 64.796875 
z
M 9.8125 72.90625 
L 32.078125 72.90625 
Q 44.34375 72.90625 50.609375 67.359375 
Q 56.890625 61.8125 56.890625 51.125 
Q 56.890625 40.328125 50.609375 34.8125 
Q 44.34375 29.296875 32.078125 29.296875 
L 19.671875 29.296875 
L 19.671875 0 
L 9.8125 0 
z
" id="DejaVuSans-80"/>
      <path d="M 9.421875 54.6875 
L 18.40625 54.6875 
L 18.40625 0 
L 9.421875 0 
z
M 9.421875 75.984375 
L 18.40625 75.984375 
L 18.40625 64.59375 
L 9.421875 64.59375 
z
" id="DejaVuSans-105"/>
      <path d="M 54.890625 54.6875 
L 35.109375 28.078125 
L 55.90625 0 
L 45.3125 0 
L 29.390625 21.484375 
L 13.484375 0 
L 2.875 0 
L 24.125 28.609375 
L 4.6875 54.6875 
L 15.28125 54.6875 
L 29.78125 35.203125 
L 44.28125 54.6875 
z
" id="DejaVuSans-120"/>
      <path d="M 9.421875 75.984375 
L 18.40625 75.984375 
L 18.40625 0 
L 9.421875 0 
z
" id="DejaVuSans-108"/>
      <path id="DejaVuSans-32"/>
      <path d="M 9.8125 72.90625 
L 55.90625 72.90625 
L 55.90625 64.59375 
L 19.671875 64.59375 
L 19.671875 43.015625 
L 54.390625 43.015625 
L 54.390625 34.71875 
L 19.671875 34.71875 
L 19.671875 8.296875 
L 56.78125 8.296875 
L 56.78125 0 
L 9.8125 0 
z
" id="DejaVuSans-69"/>
      <path d="M 41.109375 46.296875 
Q 39.59375 47.171875 37.8125 47.578125 
Q 36.03125 48 33.890625 48 
Q 26.265625 48 22.1875 43.046875 
Q 18.109375 38.09375 18.109375 28.8125 
L 18.109375 0 
L 9.078125 0 
L 9.078125 54.6875 
L 18.109375 54.6875 
L 18.109375 46.1875 
Q 20.953125 51.171875 25.484375 53.578125 
Q 30.03125 56 36.53125 56 
Q 37.453125 56 38.578125 55.875 
Q 39.703125 55.765625 41.0625 55.515625 
z
" id="DejaVuSans-114"/>
      <path d="M 30.609375 48.390625 
Q 23.390625 48.390625 19.1875 42.75 
Q 14.984375 37.109375 14.984375 27.296875 
Q 14.984375 17.484375 19.15625 11.84375 
Q 23.34375 6.203125 30.609375 6.203125 
Q 37.796875 6.203125 41.984375 11.859375 
Q 46.1875 17.53125 46.1875 27.296875 
Q 46.1875 37.015625 41.984375 42.703125 
Q 37.796875 48.390625 30.609375 48.390625 
z
M 30.609375 56 
Q 42.328125 56 49.015625 48.375 
Q 55.71875 40.765625 55.71875 27.296875 
Q 55.71875 13.875 49.015625 6.21875 
Q 42.328125 -1.421875 30.609375 -1.421875 
Q 18.84375 -1.421875 12.171875 6.21875 
Q 5.515625 13.875 5.515625 27.296875 
Q 5.515625 40.765625 12.171875 48.375 
Q 18.84375 56 30.609375 56 
z
" id="DejaVuSans-111"/>
     </defs>
     <g transform="translate(21.020312 200.324875)rotate(-90)scale(0.1 -0.1)">
      <use xlink:href="#DejaVuSans-80"/>
      <use x="60.271484" xlink:href="#DejaVuSans-105"/>
      <use x="88.054688" xlink:href="#DejaVuSans-120"/>
      <use x="147.1875" xlink:href="#DejaVuSans-101"/>
      <use x="208.710938" xlink:href="#DejaVuSans-108"/>
      <use x="236.494141" xlink:href="#DejaVuSans-32"/>
      <use x="268.28125" xlink:href="#DejaVuSans-69"/>
      <use x="331.464844" xlink:href="#DejaVuSans-114"/>
      <use x="372.5625" xlink:href="#DejaVuSans-114"/>
      <use x="413.644531" xlink:href="#DejaVuSans-111"/>
      <use x="474.826172" xlink:href="#DejaVuSans-114"/>
     </g>
    </g>
   </g>
   <g id="line2d_28">
    <path clip-path="url(#peef62ae457)" d="M 75.806335 137.907472 
L 79.065738 162.280417 
L 82.325141 140.733708 
L 85.584545 155.846677 
L 88.843948 159.015637 
L 92.103352 152.404932 
L 95.362755 157.823861 
L 98.622158 159.988645 
L 101.881562 154.731587 
L 105.140965 152.439668 
L 108.400369 149.489781 
L 111.659772 126.4626 
L 114.919176 146.952404 
L 118.178579 152.349429 
L 121.437982 147.466594 
L 124.697386 159.13316 
L 127.956789 157.814025 
L 131.216193 155.929872 
L 134.475596 161.562297 
L 137.734999 166.926459 
L 140.994403 179.877597 
L 144.253806 192.355044 
L 147.51321 183.776876 
L 150.772613 186.763782 
L 154.032017 186.248936 
L 157.29142 195.034537 
L 160.550823 193.509562 
L 163.810227 203.617161 
L 167.06963 190.780548 
L 170.329034 206.471614 
L 173.588437 201.902487 
L 176.84784 201.331839 
L 180.107244 196.227871 
L 183.366647 206.758656 
L 186.626051 202.660774 
L 189.885454 206.350472 
L 193.144858 217.450408 
L 196.404261 211.74163 
L 199.663664 218.053943 
L 202.923068 216.375455 
L 206.182471 214.110616 
L 209.441875 223.089407 
L 212.701278 224.372791 
L 215.960681 225.821445 
L 219.220085 217.084715 
L 222.479488 233.138015 
L 225.738892 224.745861 
L 228.998295 227.830751 
L 232.257699 220.139643 
L 235.517102 230.816865 
L 238.776505 217.095944 
L 242.035909 219.909476 
L 245.295312 226.396786 
L 248.554716 231.846984 
L 251.814119 219.515801 
L 255.073522 231.195048 
L 258.332926 225.50338 
L 261.592329 219.341427 
L 264.851733 234.661971 
L 268.111136 234.877977 
L 271.37054 225.395506 
L 274.629943 222.025685 
L 277.889346 223.739926 
L 281.14875 222.406846 
L 284.408153 227.052582 
L 287.667557 227.099143 
L 290.92696 227.102698 
L 294.186363 228.023314 
L 297.445767 222.203823 
L 300.70517 230.378494 
L 303.964574 232.738033 
L 307.223977 227.488582 
L 310.48338 232.064624 
L 313.742784 233.934084 
L 317.002187 232.810788 
L 320.261591 223.465195 
L 323.520994 235.950074 
L 326.780398 234.928178 
L 330.039801 231.130511 
L 333.299204 223.619944 
L 336.558608 236.614971 
L 339.818011 224.441133 
L 343.077415 238.417818 
L 346.336818 231.405555 
L 349.596221 241.373773 
L 352.855625 237.411867 
L 356.115028 239.427503 
L 359.374432 237.658796 
L 362.633835 239.959767 
L 365.893239 237.62279 
L 369.152642 234.664667 
L 372.412045 234.307095 
L 375.671449 239.019085 
L 378.930852 231.096551 
L 382.190256 234.442397 
L 385.449659 238.615883 
L 388.709062 239.539226 
L 391.968466 236.492098 
L 395.227869 236.341334 
L 398.487273 236.435488 
" style="fill:none;stroke:#1f77b4;stroke-linecap:square;stroke-width:1.5;"/>
   </g>
   <g id="line2d_29">
    <path clip-path="url(#peef62ae457)" d="M 73.832727 100.557058 
L 76.399187 143.156153 
L 78.965646 166.396973 
L 81.532105 158.055683 
L 84.098565 151.089614 
L 86.665024 161.131499 
L 89.231484 160.848598 
L 91.797943 155.140493 
L 94.364402 159.337403 
L 96.930862 160.972708 
L 99.497321 154.496633 
L 102.06378 153.092119 
L 104.63024 154.164571 
L 107.196699 148.634781 
L 109.763159 144.542887 
L 112.329618 136.100302 
L 114.896077 145.166874 
L 117.462537 154.967819 
L 120.028996 154.517912 
L 122.595456 159.780281 
L 125.161915 166.678384 
L 127.728374 163.587219 
L 130.294834 163.88468 
L 132.861293 167.015501 
L 135.427752 164.076989 
L 137.994212 174.768358 
L 140.560671 181.439712 
L 143.127131 189.84116 
L 145.69359 183.241213 
L 148.260049 184.820392 
L 150.826509 194.518263 
L 153.392968 195.806282 
L 155.959428 199.575116 
L 158.525887 200.671108 
L 161.092346 203.25431 
L 163.658806 206.228565 
L 166.225265 204.763519 
L 168.791724 212.126628 
L 171.358184 216.786756 
L 173.924643 217.303759 
L 176.491103 223.839323 
L 179.057562 215.094751 
L 181.624021 224.396957 
L 184.190481 223.28929 
L 186.75694 224.194997 
L 189.323399 223.297004 
L 191.889859 228.996889 
L 194.456318 227.921806 
L 197.022778 232.538884 
L 199.589237 235.341431 
L 202.155696 235.253751 
L 204.722156 236.643389 
L 207.288615 236.743483 
L 209.855075 239.519657 
L 212.421534 235.207417 
L 214.987993 241.227394 
L 217.554453 239.845475 
L 220.120912 242.577845 
L 222.687371 244.004383 
L 225.253831 242.753686 
L 227.82029 244.263332 
L 230.38675 248.589744 
L 232.953209 246.948166 
L 235.519668 248.767046 
L 240.652587 247.692749 
L 243.219047 247.640566 
L 245.785506 245.197756 
L 248.351965 249.012809 
L 250.918425 252.159849 
L 253.484884 252.319935 
L 256.051343 253.768476 
L 258.617803 252.007683 
L 261.184262 253.137873 
L 263.750722 259.566522 
L 266.317181 252.583551 
L 268.88364 258.071911 
L 271.4501 253.852028 
L 274.016559 256.252655 
L 276.583019 258.119762 
L 279.149478 251.060531 
L 281.715937 248.420203 
L 284.282397 251.229779 
L 286.848856 251.903477 
L 289.415315 250.899195 
L 291.981775 255.647053 
L 294.548234 254.817612 
L 297.114694 254.297776 
L 299.681153 255.013166 
L 302.247612 256.767416 
L 304.814072 259.014513 
L 307.380531 257.981514 
L 309.94699 261.804205 
L 312.51345 259.367628 
L 315.079909 259.500554 
L 317.646369 261.512784 
L 320.212828 257.973566 
L 322.779287 268.806984 
L 325.345747 263.546305 
L 327.912206 263.991144 
L 330.478666 262.152523 
L 333.045125 263.845458 
L 335.611584 264.964517 
L 338.178044 249.426261 
L 340.744503 264.493617 
L 343.310962 266.144138 
L 345.877422 265.102371 
L 348.443881 265.467179 
L 351.010341 263.505639 
L 353.5768 244.888313 
L 356.143259 260.294002 
L 358.709719 268.045593 
L 361.276178 267.373528 
L 363.842638 255.0259 
L 366.409097 259.712108 
L 368.975556 265.987971 
L 371.542016 268.296831 
L 374.108475 261.761235 
L 376.674934 269.994262 
L 379.241394 267.687445 
L 381.807853 268.538378 
L 384.374313 271.082589 
L 386.940772 269.618226 
L 389.507231 266.262845 
L 392.073691 271.54276 
L 394.64015 269.239454 
L 397.206609 269.113984 
L 397.206609 269.113984 
" style="fill:none;stroke:#aec7e8;stroke-linecap:square;stroke-opacity:0.5;stroke-width:1.5;"/>
   </g>
   <g id="line2d_30">
    <path clip-path="url(#peef62ae457)" d="M 75.806335 107.072416 
L 79.065738 124.308474 
L 82.325141 138.467223 
L 85.584545 135.09022 
L 88.843948 126.284709 
L 92.103352 124.292992 
L 95.362755 130.239034 
L 98.622158 105.705379 
L 101.881562 103.988521 
L 105.140965 119.775958 
L 108.400369 135.439395 
L 111.659772 135.714978 
L 114.919176 138.237173 
L 118.178579 143.631744 
L 121.437982 148.943374 
L 124.697386 135.671053 
L 127.956789 130.965338 
L 131.216193 143.812863 
L 134.475596 152.820286 
L 137.734999 130.67968 
L 140.994403 143.486854 
L 144.253806 158.640569 
L 147.51321 162.074753 
L 150.772613 155.790417 
L 154.032017 172.472364 
L 157.29142 152.865261 
L 160.550823 156.896615 
L 163.810227 155.465017 
L 167.06963 168.081361 
L 170.329034 154.799804 
L 173.588437 163.5716 
L 176.84784 161.233425 
L 180.107244 161.167183 
L 183.366647 174.108701 
L 186.626051 166.428731 
L 189.885454 182.903399 
L 193.144858 168.358212 
L 196.404261 167.438389 
L 199.663664 196.80218 
L 202.923068 177.982055 
L 206.182471 165.432938 
L 209.441875 195.972927 
L 212.701278 190.531132 
L 215.960681 202.792385 
L 219.220085 204.52058 
L 222.479488 204.638308 
L 225.738892 202.791005 
L 228.998295 198.135761 
L 232.257699 197.839598 
L 235.517102 200.839937 
L 238.776505 208.381679 
L 242.035909 204.536164 
L 245.295312 198.451698 
L 248.554716 216.577303 
L 251.814119 209.842452 
L 255.073522 209.021376 
L 258.332926 202.816233 
L 261.592329 196.135054 
L 264.851733 208.094624 
L 268.111136 207.78512 
L 271.37054 210.559659 
L 274.629943 212.701052 
L 277.889346 215.73822 
L 281.14875 208.652517 
L 284.408153 204.560467 
L 287.667557 212.216054 
L 290.92696 219.17378 
L 294.186363 215.132672 
L 297.445767 211.851184 
L 300.70517 209.799689 
L 303.964574 218.557792 
L 307.223977 213.878393 
L 310.48338 209.101432 
L 313.742784 212.022061 
L 317.002187 218.764048 
L 320.261591 208.045489 
L 323.520994 213.424905 
L 326.780398 216.075876 
L 330.039801 218.518266 
L 333.299204 221.833185 
L 336.558608 221.092653 
L 339.818011 219.754514 
L 343.077415 210.039848 
L 346.336818 209.53619 
L 349.596221 212.602081 
L 352.855625 211.241412 
L 356.115028 213.416405 
L 359.374432 221.905193 
L 362.633835 215.706602 
L 365.893239 213.405112 
L 369.152642 220.003509 
L 372.412045 214.613265 
L 375.671449 221.611922 
L 378.930852 214.711803 
L 382.190256 212.619783 
L 385.449659 216.184136 
L 388.709062 211.859361 
L 391.968466 221.728689 
L 395.227869 215.272837 
L 398.487273 216.033773 
" style="fill:none;stroke:#ff7f0e;stroke-linecap:square;stroke-width:1.5;"/>
   </g>
   <g id="line2d_31">
    <path clip-path="url(#peef62ae457)" d="M 73.832727 102.605178 
L 76.399187 109.598698 
L 78.965646 130.234658 
L 81.532105 145.70223 
L 84.098565 138.400991 
L 86.665024 124.912413 
L 89.231484 125.191613 
L 91.797943 122.315774 
L 94.364402 121.976618 
L 96.930862 110.663449 
L 99.497321 112.159113 
L 102.06378 117.437233 
L 104.63024 119.279078 
L 107.196699 130.446675 
L 109.763159 131.371347 
L 112.329618 138.285716 
L 114.896077 135.991859 
L 117.462537 138.181495 
L 120.028996 142.206839 
L 125.161915 142.478437 
L 127.728374 147.432752 
L 130.294834 143.867443 
L 132.861293 147.134718 
L 135.427752 149.934432 
L 137.994212 149.773468 
L 140.560671 150.839499 
L 143.127131 158.149348 
L 145.69359 152.860817 
L 148.260049 158.038943 
L 150.826509 159.263866 
L 153.392968 159.308648 
L 155.959428 157.549482 
L 158.525887 158.020572 
L 161.092346 157.87421 
L 163.658806 158.188722 
L 166.225265 161.643164 
L 168.791724 160.501932 
L 171.358184 161.232766 
L 173.924643 164.339163 
L 176.491103 171.166203 
L 179.057562 171.075066 
L 181.624021 171.60424 
L 184.190481 176.920282 
L 186.75694 177.388908 
L 189.323399 180.169765 
L 191.889859 191.217536 
L 194.456318 191.527018 
L 197.022778 181.981765 
L 199.589237 201.386792 
L 202.155696 186.202853 
L 204.722156 189.997784 
L 207.288615 200.479745 
L 209.855075 197.29471 
L 212.421534 197.168424 
L 214.987993 200.649334 
L 217.554453 206.693572 
L 220.120912 207.933195 
L 222.687371 216.122358 
L 225.253831 213.185397 
L 227.82029 206.700836 
L 230.38675 211.514129 
L 232.953209 207.515995 
L 235.519668 211.853413 
L 238.086128 215.243733 
L 240.652587 215.129191 
L 243.219047 217.817792 
L 245.785506 219.799482 
L 248.351965 223.220533 
L 250.918425 221.06017 
L 253.484884 222.361242 
L 256.051343 222.003632 
L 258.617803 221.476875 
L 261.184262 217.233083 
L 263.750722 220.348002 
L 266.317181 219.417396 
L 271.4501 221.491132 
L 274.016559 222.099827 
L 276.583019 223.499159 
L 279.149478 222.485893 
L 281.715937 223.394342 
L 284.282397 224.071898 
L 286.848856 225.133434 
L 289.415315 228.164525 
L 291.981775 226.848673 
L 294.548234 228.357084 
L 297.114694 226.544724 
L 299.681153 227.542051 
L 302.247612 227.315337 
L 304.814072 232.973095 
L 307.380531 231.979632 
L 309.94699 229.009105 
L 312.51345 230.528407 
L 315.079909 230.72127 
L 317.646369 233.5437 
L 320.212828 232.567054 
L 322.779287 232.488286 
L 325.345747 233.944559 
L 327.912206 237.120511 
L 330.478666 237.077411 
L 333.045125 234.433016 
L 335.611584 235.255349 
L 338.178044 237.935313 
L 340.744503 236.86875 
L 343.310962 232.589095 
L 345.877422 232.074105 
L 348.443881 236.041512 
L 351.010341 237.237948 
L 353.5768 233.251403 
L 356.143259 235.70885 
L 358.709719 238.465653 
L 361.276178 236.641759 
L 363.842638 234.111008 
L 366.409097 238.076641 
L 368.975556 240.579064 
L 371.542016 237.761353 
L 379.241394 237.873791 
L 381.807853 238.254532 
L 384.374313 239.413888 
L 386.940772 237.028489 
L 389.507231 238.583285 
L 392.073691 243.033992 
L 394.64015 240.391481 
L 397.206609 239.700673 
L 397.206609 239.700673 
" style="fill:none;stroke:#ffbb78;stroke-linecap:square;stroke-opacity:0.5;stroke-width:1.5;"/>
   </g>
   <g id="line2d_32">
    <path clip-path="url(#peef62ae457)" d="M 75.806335 126.886392 
L 79.065738 160.294408 
L 82.325141 173.412045 
L 85.584545 167.086627 
L 88.843948 169.394798 
L 92.103352 186.107942 
L 95.362755 192.275309 
L 98.622158 194.776811 
L 101.881562 185.543285 
L 105.140965 191.450558 
L 108.400369 195.508652 
L 111.659772 196.652288 
L 114.919176 203.687388 
L 118.178579 201.885214 
L 121.437982 206.478625 
L 124.697386 212.825033 
L 127.956789 212.013219 
L 131.216193 218.365337 
L 134.475596 217.806225 
L 137.734999 220.151203 
L 140.994403 226.087147 
L 144.253806 224.392103 
L 147.51321 208.389004 
L 150.772613 233.029909 
L 154.032017 228.022316 
L 157.29142 232.339795 
L 160.550823 231.811661 
L 163.810227 225.260458 
L 167.06963 229.175705 
L 170.329034 239.275058 
L 173.588437 239.966636 
L 176.84784 225.930635 
L 180.107244 231.473287 
L 183.366647 241.009278 
L 186.626051 235.359041 
L 189.885454 233.916263 
L 193.144858 240.654045 
L 196.404261 243.562699 
L 199.663664 239.756286 
L 202.923068 236.276576 
L 206.182471 238.254955 
L 209.441875 243.925576 
L 212.701278 237.722186 
L 215.960681 241.439656 
L 219.220085 244.082519 
L 222.479488 245.961997 
L 225.738892 241.924268 
L 228.998295 245.345031 
L 232.257699 241.079593 
L 235.517102 237.051397 
L 238.776505 245.029686 
L 242.035909 240.578913 
L 245.295312 244.264576 
L 248.554716 246.98566 
L 251.814119 240.315111 
L 255.073522 241.175518 
L 258.332926 242.497359 
L 261.592329 239.684131 
L 264.851733 241.686621 
L 268.111136 241.19114 
L 271.37054 246.539579 
L 274.629943 245.780997 
L 277.889346 244.412639 
L 281.14875 245.366288 
L 284.408153 243.357161 
L 287.667557 237.79999 
L 290.92696 240.053828 
L 294.186363 240.420204 
L 297.445767 242.630299 
L 300.70517 242.650858 
L 303.964574 244.407848 
L 307.223977 245.869575 
L 310.48338 243.623255 
L 313.742784 243.699954 
L 317.002187 244.045044 
L 320.261591 243.758168 
L 323.520994 244.855854 
L 326.780398 244.645353 
L 330.039801 245.214762 
L 333.299204 243.170115 
L 336.558608 243.116942 
L 339.818011 244.174643 
L 343.077415 242.18316 
L 346.336818 244.86542 
L 349.596221 238.267738 
L 352.855625 239.847273 
L 356.115028 242.73945 
L 359.374432 239.087201 
L 362.633835 241.330547 
L 365.893239 241.323785 
L 369.152642 242.723701 
L 372.412045 242.135145 
L 375.671449 239.640081 
L 378.930852 238.90531 
L 382.190256 241.534685 
L 385.449659 239.566242 
L 388.709062 240.087016 
L 391.968466 240.279112 
L 395.227869 241.64124 
L 398.487273 240.105275 
" style="fill:none;stroke:#2ca02c;stroke-linecap:square;stroke-width:1.5;"/>
   </g>
   <g id="line2d_33">
    <path clip-path="url(#peef62ae457)" d="M 73.832727 102.221194 
L 76.399187 123.300662 
L 78.965646 159.787155 
L 81.532105 174.78112 
L 84.098565 179.425064 
L 86.665024 164.120427 
L 89.231484 182.269323 
L 94.364402 197.621813 
L 96.930862 200.068944 
L 99.497321 204.650503 
L 102.06378 200.803238 
L 104.63024 202.971371 
L 107.196699 205.438356 
L 109.763159 206.999422 
L 112.329618 210.97261 
L 114.896077 211.585118 
L 117.462537 217.063187 
L 122.595456 225.053911 
L 125.161915 227.678215 
L 127.728374 228.628556 
L 130.294834 234.559867 
L 132.861293 236.059926 
L 135.427752 238.780914 
L 137.994212 242.641029 
L 140.560671 244.95339 
L 143.127131 247.446511 
L 145.69359 249.044067 
L 148.260049 248.399697 
L 150.826509 253.324285 
L 153.392968 255.631161 
L 155.959428 255.833199 
L 158.525887 253.897356 
L 161.092346 256.83005 
L 163.658806 263.035185 
L 166.225265 258.018689 
L 168.791724 263.955111 
L 171.358184 263.385372 
L 173.924643 264.4633 
L 176.491103 262.076767 
L 179.057562 268.009891 
L 181.624021 267.699092 
L 184.190481 269.63273 
L 186.75694 268.54727 
L 189.323399 269.366573 
L 191.889859 272.788561 
L 194.456318 270.837235 
L 197.022778 273.46478 
L 199.589237 273.788752 
L 202.155696 275.206923 
L 204.722156 272.644099 
L 207.288615 272.406039 
L 209.855075 278.630432 
L 212.421534 274.697112 
L 217.554453 278.998841 
L 220.120912 276.324153 
L 222.687371 282.235156 
L 225.253831 278.150235 
L 227.82029 281.7037 
L 230.38675 280.297982 
L 232.953209 281.853293 
L 235.519668 280.808301 
L 238.086128 283.044742 
L 240.652587 283.318061 
L 243.219047 283.174453 
L 245.785506 281.529472 
L 248.351965 285.960671 
L 250.918425 284.081087 
L 253.484884 283.796668 
L 256.051343 284.682146 
L 258.617803 284.674015 
L 261.184262 284.966963 
L 263.750722 287.355161 
L 266.317181 287.506792 
L 268.88364 280.813082 
L 271.4501 288.378183 
L 274.016559 289.19216 
L 276.583019 287.488424 
L 279.149478 287.823009 
L 281.715937 292.387123 
L 284.282397 291.050206 
L 286.848856 262.061115 
L 289.415315 278.602589 
L 291.981775 287.745151 
L 294.548234 289.981979 
L 297.114694 289.51193 
L 299.681153 292.032155 
L 302.247612 291.649695 
L 307.380531 293.592203 
L 309.94699 292.59896 
L 312.51345 293.300648 
L 315.079909 293.339802 
L 317.646369 293.817104 
L 320.212828 293.981686 
L 322.779287 294.518793 
L 325.345747 293.681097 
L 327.912206 281.183408 
L 330.478666 295.201326 
L 333.045125 294.180839 
L 335.611584 294.714759 
L 338.178044 294.411207 
L 340.744503 295.386762 
L 343.310962 294.090554 
L 345.877422 294.288679 
L 348.443881 294.28227 
L 351.010341 294.02704 
L 353.5768 295.07652 
L 356.143259 294.056686 
L 358.709719 294.671747 
L 361.276178 294.735434 
L 363.842638 294.404733 
L 366.409097 291.151158 
L 368.975556 295.488 
L 371.542016 294.121552 
L 374.108475 293.923153 
L 376.674934 293.894246 
L 379.241394 295.181628 
L 381.807853 294.39739 
L 384.374313 293.904044 
L 386.940772 294.068672 
L 389.507231 294.512972 
L 394.64015 294.081944 
L 397.206609 294.177107 
L 397.206609 294.177107 
" style="fill:none;stroke:#98df8a;stroke-linecap:square;stroke-opacity:0.5;stroke-width:1.5;"/>
   </g>
   <g id="line2d_34">
    <path clip-path="url(#peef62ae457)" d="M 75.806335 125.185507 
L 79.065738 160.081521 
L 82.325141 156.166306 
L 85.584545 167.981517 
L 88.843948 172.721787 
L 92.103352 175.517292 
L 95.362755 170.298728 
L 98.622158 174.378853 
L 101.881562 178.699665 
L 105.140965 171.724571 
L 108.400369 172.745191 
L 111.659772 178.917615 
L 114.919176 174.933746 
L 118.178579 178.065697 
L 121.437982 171.911814 
L 124.697386 161.934004 
L 127.956789 178.84105 
L 131.216193 185.301846 
L 134.475596 179.409576 
L 137.734999 187.68575 
L 140.994403 194.556859 
L 144.253806 207.803775 
L 147.51321 203.007786 
L 150.772613 203.063266 
L 154.032017 207.500865 
L 157.29142 216.461329 
L 160.550823 213.52478 
L 163.810227 216.124813 
L 167.06963 213.948844 
L 170.329034 182.325734 
L 173.588437 215.861542 
L 176.84784 226.242703 
L 180.107244 218.079508 
L 183.366647 228.387247 
L 186.626051 220.259774 
L 189.885454 222.095983 
L 193.144858 222.522895 
L 196.404261 228.508259 
L 199.663664 231.169969 
L 202.923068 226.589852 
L 206.182471 227.356567 
L 209.441875 229.740434 
L 212.701278 222.767222 
L 215.960681 233.588493 
L 219.220085 227.888683 
L 222.479488 227.093002 
L 225.738892 228.225414 
L 228.998295 228.383413 
L 232.257699 221.01702 
L 235.517102 228.985401 
L 238.776505 229.113885 
L 242.035909 230.655495 
L 245.295312 232.648095 
L 248.554716 233.618845 
L 251.814119 224.849395 
L 255.073522 237.0725 
L 258.332926 231.243352 
L 261.592329 231.036992 
L 264.851733 236.246541 
L 268.111136 232.2883 
L 271.37054 228.799378 
L 274.629943 230.485319 
L 277.889346 236.339337 
L 281.14875 227.431176 
L 284.408153 238.211378 
L 287.667557 236.592562 
L 290.92696 237.866237 
L 294.186363 238.276582 
L 297.445767 220.934678 
L 300.70517 236.578496 
L 303.964574 239.6667 
L 307.223977 241.273195 
L 310.48338 240.401914 
L 313.742784 240.372328 
L 317.002187 239.403098 
L 320.261591 241.910747 
L 323.520994 236.659307 
L 326.780398 232.141422 
L 330.039801 240.936163 
L 333.299204 232.602049 
L 336.558608 239.976567 
L 339.818011 241.038609 
L 343.077415 236.9513 
L 346.336818 242.280194 
L 349.596221 239.692289 
L 352.855625 236.472849 
L 356.115028 236.325952 
L 359.374432 239.278954 
L 362.633835 235.742226 
L 365.893239 238.227961 
L 369.152642 234.325125 
L 372.412045 240.248597 
L 375.671449 237.740329 
L 378.930852 235.481554 
L 382.190256 239.23874 
L 385.449659 234.419468 
L 388.709062 238.954947 
L 391.968466 236.474212 
L 395.227869 136.866936 
L 398.487273 234.324206 
" style="fill:none;stroke:#d62728;stroke-linecap:square;stroke-width:1.5;"/>
   </g>
   <g id="line2d_35">
    <path clip-path="url(#peef62ae457)" d="M 73.832727 92.545039 
L 76.399187 136.524365 
L 78.965646 163.638714 
L 81.532105 162.712243 
L 84.098565 169.205096 
L 86.665024 174.175779 
L 89.231484 178.891892 
L 91.797943 180.628136 
L 94.364402 179.34503 
L 96.930862 179.795813 
L 99.497321 180.72481 
L 102.06378 182.824757 
L 104.63024 179.879098 
L 107.196699 185.80945 
L 109.763159 184.03637 
L 112.329618 187.013208 
L 114.896077 185.454063 
L 117.462537 186.293318 
L 120.028996 185.340218 
L 122.595456 185.524567 
L 125.161915 180.685314 
L 127.728374 186.563341 
L 130.294834 176.530909 
L 132.861293 192.023785 
L 135.427752 194.301555 
L 137.994212 199.440809 
L 140.560671 206.48937 
L 143.127131 210.654704 
L 145.69359 213.398309 
L 148.260049 216.908144 
L 150.826509 216.721162 
L 153.392968 223.347611 
L 155.959428 226.648368 
L 158.525887 230.563524 
L 161.092346 231.484095 
L 163.658806 235.556685 
L 166.225265 236.788256 
L 168.791724 238.273992 
L 171.358184 237.536556 
L 173.924643 240.904868 
L 176.491103 240.987248 
L 179.057562 243.36142 
L 181.624021 243.799066 
L 184.190481 246.48412 
L 186.75694 247.881302 
L 189.323399 246.095361 
L 191.889859 252.280793 
L 194.456318 249.33973 
L 197.022778 254.877247 
L 199.589237 253.457468 
L 202.155696 256.955548 
L 204.722156 255.378125 
L 207.288615 257.845169 
L 209.855075 255.12592 
L 212.421534 260.669099 
L 214.987993 260.952174 
L 217.554453 259.217477 
L 220.120912 260.297269 
L 222.687371 263.280795 
L 225.253831 261.172103 
L 227.82029 263.102196 
L 230.38675 262.905346 
L 232.953209 263.062538 
L 235.519668 265.187752 
L 238.086128 263.48878 
L 240.652587 265.608457 
L 243.219047 266.129885 
L 245.785506 265.019295 
L 248.351965 265.749753 
L 250.918425 259.846346 
L 253.484884 266.285892 
L 256.051343 270.600516 
L 258.617803 267.761857 
L 261.184262 267.854232 
L 263.750722 269.486363 
L 266.317181 269.664332 
L 268.88364 269.178878 
L 271.4501 268.337919 
L 274.016559 271.209403 
L 276.583019 269.369095 
L 279.149478 272.793678 
L 281.715937 272.953682 
L 284.282397 274.052295 
L 286.848856 272.951142 
L 289.415315 266.635633 
L 291.981775 260.866231 
L 294.548234 260.233833 
L 297.114694 267.505568 
L 299.681153 270.297368 
L 302.247612 275.682364 
L 304.814072 271.852708 
L 307.380531 277.389264 
L 309.94699 276.6983 
L 312.51345 277.459915 
L 315.079909 277.107361 
L 317.646369 277.721174 
L 320.212828 277.449517 
L 322.779287 277.587675 
L 325.345747 278.367796 
L 327.912206 277.404379 
L 330.478666 280.805004 
L 333.045125 278.022189 
L 335.611584 280.298557 
L 338.178044 277.659205 
L 340.744503 281.786452 
L 343.310962 277.753431 
L 345.877422 275.59091 
L 348.443881 282.309493 
L 351.010341 280.01495 
L 353.5768 280.377702 
L 356.143259 282.098265 
L 358.709719 283.679122 
L 361.276178 282.8724 
L 366.409097 282.593943 
L 368.975556 284.603725 
L 371.542016 282.201845 
L 374.108475 283.802702 
L 376.674934 283.801719 
L 379.241394 283.42728 
L 381.807853 285.180789 
L 384.374313 282.902477 
L 386.940772 283.593321 
L 389.507231 285.07487 
L 392.073691 285.446583 
L 394.64015 273.055617 
L 397.206609 284.800141 
L 397.206609 284.800141 
" style="fill:none;stroke:#ff9896;stroke-linecap:square;stroke-opacity:0.5;stroke-width:1.5;"/>
   </g>
   <g id="line2d_36">
    <path clip-path="url(#peef62ae457)" d="M 75.806335 105.06919 
L 79.065738 132.191503 
L 82.325141 147.729035 
L 85.584545 136.469634 
L 88.843948 133.130719 
L 92.103352 121.228323 
L 95.362755 111.658534 
L 98.622158 112.920367 
L 101.881562 128.998042 
L 105.140965 82.175136 
L 108.400369 88.818283 
L 111.659772 95.311292 
L 114.919176 53.568 
L 118.178579 91.997947 
L 121.437982 79.572966 
L 124.697386 106.800774 
L 127.956789 81.109254 
L 131.216193 107.063895 
L 134.475596 95.912377 
L 137.734999 107.317311 
L 140.994403 112.016491 
L 144.253806 108.385524 
L 147.51321 119.735795 
L 150.772613 110.335079 
L 154.032017 120.17913 
L 157.29142 118.602647 
L 160.550823 131.847695 
L 163.810227 121.159499 
L 167.06963 106.952352 
L 170.329034 142.199065 
L 173.588437 141.896976 
L 176.84784 126.296359 
L 180.107244 140.548052 
L 183.366647 162.513224 
L 186.626051 160.457499 
L 189.885454 159.536352 
L 193.144858 165.027847 
L 196.404261 164.200341 
L 199.663664 166.350768 
L 202.923068 170.12811 
L 206.182471 170.904044 
L 209.441875 138.337259 
L 212.701278 154.022735 
L 215.960681 157.663784 
L 219.220085 160.252012 
L 222.479488 162.875713 
L 225.738892 170.115316 
L 228.998295 173.745864 
L 232.257699 168.361062 
L 235.517102 175.136033 
L 238.776505 151.803074 
L 242.035909 169.302071 
L 245.295312 180.519536 
L 248.554716 190.564311 
L 251.814119 189.028685 
L 255.073522 189.636765 
L 258.332926 172.716653 
L 261.592329 182.33637 
L 264.851733 196.847626 
L 268.111136 171.125463 
L 271.37054 179.792558 
L 274.629943 155.956775 
L 277.889346 182.309469 
L 281.14875 190.683106 
L 284.408153 191.478458 
L 287.667557 197.230564 
L 290.92696 194.955955 
L 294.186363 195.728669 
L 297.445767 196.443538 
L 300.70517 200.380058 
L 303.964574 193.758925 
L 307.223977 191.921096 
L 310.48338 194.795096 
L 313.742784 197.592133 
L 317.002187 196.10026 
L 320.261591 201.492545 
L 323.520994 200.389949 
L 326.780398 202.275603 
L 330.039801 204.543677 
L 333.299204 196.08818 
L 336.558608 204.633115 
L 339.818011 203.045102 
L 343.077415 197.963259 
L 346.336818 196.86797 
L 349.596221 201.636387 
L 352.855625 203.4229 
L 356.115028 202.152254 
L 359.374432 201.891025 
L 362.633835 203.37645 
L 365.893239 206.011528 
L 369.152642 207.680064 
L 372.412045 201.022141 
L 375.671449 213.738864 
L 378.930852 201.459058 
L 382.190256 206.060813 
L 385.449659 203.177308 
L 388.709062 208.526073 
L 391.968466 201.397388 
L 395.227869 209.168071 
L 398.487273 212.616972 
" style="fill:none;stroke:#9467bd;stroke-linecap:square;stroke-width:1.5;"/>
   </g>
   <g id="line2d_37">
    <path clip-path="url(#peef62ae457)" d="M 73.832727 96.078092 
L 76.399187 123.487609 
L 78.965646 148.212959 
L 81.532105 152.347937 
L 84.098565 141.03448 
L 86.665024 132.343601 
L 89.231484 126.287306 
L 91.797943 119.278178 
L 94.364402 111.603846 
L 96.930862 113.645458 
L 99.497321 96.225862 
L 102.06378 100.662121 
L 104.63024 87.869668 
L 107.196699 82.47969 
L 109.763159 63.291911 
L 112.329618 80.140689 
L 114.896077 53.835391 
L 117.462537 74.383991 
L 120.028996 91.240114 
L 122.595456 92.858178 
L 125.161915 101.41152 
L 127.728374 98.284131 
L 130.294834 103.408365 
L 132.861293 97.424216 
L 135.427752 109.062491 
L 137.994212 113.493902 
L 140.560671 111.662589 
L 143.127131 113.376679 
L 145.69359 109.605692 
L 148.260049 116.578171 
L 150.826509 119.955103 
L 153.392968 127.609424 
L 155.959428 121.908524 
L 158.525887 124.771921 
L 161.092346 128.089157 
L 163.658806 125.467743 
L 166.225265 108.930488 
L 168.791724 136.849123 
L 171.358184 139.501944 
L 173.924643 146.793927 
L 176.491103 144.702727 
L 179.057562 139.282391 
L 181.624021 147.414403 
L 184.190481 156.321819 
L 189.323399 163.979006 
L 191.889859 164.856165 
L 194.456318 168.534918 
L 197.022778 165.970168 
L 199.589237 173.26213 
L 202.155696 169.420921 
L 204.722156 164.171074 
L 207.288615 163.401194 
L 209.855075 158.451315 
L 212.421534 157.873228 
L 214.987993 158.756509 
L 217.554453 162.313135 
L 220.120912 159.709298 
L 222.687371 166.741953 
L 225.253831 173.216813 
L 227.82029 173.527252 
L 230.38675 169.088824 
L 232.953209 170.393143 
L 235.519668 172.200815 
L 238.086128 175.829127 
L 240.652587 176.70261 
L 243.219047 179.536995 
L 245.785506 191.214684 
L 248.351965 196.719815 
L 250.918425 196.950259 
L 253.484884 199.801321 
L 256.051343 195.335622 
L 258.617803 193.682572 
L 261.184262 195.643797 
L 263.750722 199.633876 
L 266.317181 198.923941 
L 268.88364 199.112561 
L 271.4501 198.090842 
L 276.583019 200.423282 
L 279.149478 200.851456 
L 281.715937 201.07386 
L 284.282397 201.766805 
L 286.848856 205.170592 
L 289.415315 207.356431 
L 291.981775 205.535407 
L 294.548234 210.716011 
L 297.114694 210.886914 
L 299.681153 208.734722 
L 302.247612 210.193623 
L 304.814072 209.543125 
L 307.380531 210.278736 
L 309.94699 211.170609 
L 312.51345 213.632448 
L 315.079909 212.425065 
L 317.646369 212.789113 
L 320.212828 213.631778 
L 322.779287 214.774147 
L 327.912206 216.064279 
L 330.478666 217.818124 
L 333.045125 216.482341 
L 335.611584 217.256682 
L 338.178044 217.875485 
L 340.744503 217.722933 
L 343.310962 218.183345 
L 345.877422 214.655512 
L 348.443881 219.480161 
L 351.010341 218.296108 
L 353.5768 223.083295 
L 356.143259 219.517219 
L 358.709719 220.111221 
L 361.276178 221.171899 
L 363.842638 221.421357 
L 366.409097 221.502784 
L 368.975556 224.468283 
L 371.542016 221.961214 
L 374.108475 227.729384 
L 376.674934 226.095365 
L 379.241394 223.771083 
L 381.807853 222.68421 
L 384.374313 223.695558 
L 386.940772 225.308808 
L 389.507231 225.184471 
L 392.073691 225.769608 
L 394.64015 227.479527 
L 397.206609 226.521685 
L 397.206609 226.521685 
" style="fill:none;stroke:#c5b0d5;stroke-linecap:square;stroke-opacity:0.5;stroke-width:1.5;"/>
   </g>
   <g id="patch_3">
    <path d="M 57.6 307.584 
L 57.6 41.472 
" style="fill:none;stroke:#000000;stroke-linecap:square;stroke-linejoin:miter;stroke-width:0.8;"/>
   </g>
   <g id="patch_4">
    <path d="M 414.72 307.584 
L 414.72 41.472 
" style="fill:none;stroke:#000000;stroke-linecap:square;stroke-linejoin:miter;stroke-width:0.8;"/>
   </g>
   <g id="patch_5">
    <path d="M 57.6 307.584 
L 414.72 307.584 
" style="fill:none;stroke:#000000;stroke-linecap:square;stroke-linejoin:miter;stroke-width:0.8;"/>
   </g>
   <g id="patch_6">
    <path d="M 57.6 41.472 
L 414.72 41.472 
" style="fill:none;stroke:#000000;stroke-linecap:square;stroke-linejoin:miter;stroke-width:0.8;"/>
   </g>
   <g id="text_11">
    <!-- Pixel Error -->
    <g transform="translate(205.20375 35.472)scale(0.12 -0.12)">
     <use xlink:href="#DejaVuSans-80"/>
     <use x="60.271484" xlink:href="#DejaVuSans-105"/>
     <use x="88.054688" xlink:href="#DejaVuSans-120"/>
     <use x="147.1875" xlink:href="#DejaVuSans-101"/>
     <use x="208.710938" xlink:href="#DejaVuSans-108"/>
     <use x="236.494141" xlink:href="#DejaVuSans-32"/>
     <use x="268.28125" xlink:href="#DejaVuSans-69"/>
     <use x="331.464844" xlink:href="#DejaVuSans-114"/>
     <use x="372.5625" xlink:href="#DejaVuSans-114"/>
     <use x="413.644531" xlink:href="#DejaVuSans-111"/>
     <use x="474.826172" xlink:href="#DejaVuSans-114"/>
    </g>
   </g>
   <g id="legend_1">
    <g id="patch_7">
     <path d="M 309.65125 196.87825 
L 407.72 196.87825 
Q 409.72 196.87825 409.72 194.87825 
L 409.72 48.472 
Q 409.72 46.472 407.72 46.472 
L 309.65125 46.472 
Q 307.65125 46.472 307.65125 48.472 
L 307.65125 194.87825 
Q 307.65125 196.87825 309.65125 196.87825 
z
" style="fill:#ffffff;opacity:0.8;stroke:#cccccc;stroke-linejoin:miter;"/>
    </g>
    <g id="line2d_38">
     <path d="M 311.65125 54.632937 
L 331.65125 54.632937 
" style="fill:none;stroke:#1f77b4;stroke-linecap:square;stroke-width:1.5;"/>
    </g>
    <g id="line2d_39"/>
    <g id="text_12">
     <!-- =0.1 - Test -->
     <defs>
      <path d="M 18.40625 3.375 
L 18.40625 -20.796875 
L 9.375 -20.796875 
L 9.375 54.34375 
Q 9.375 76.609375 30.171875 76.609375 
Q 51.375 76.609375 51.375 57.8125 
Q 51.375 44.4375 42.96875 39.546875 
Q 56.640625 35.15625 56.640625 22.125 
Q 56.640625 -1.03125 33.109375 -1.03125 
Q 22.75 -1.03125 18.40625 3.375 
z
M 18.40625 15.09375 
Q 23.828125 6.640625 33.453125 6.640625 
Q 47.515625 6.640625 47.515625 21.96875 
Q 47.515625 35.75 24.859375 34.671875 
L 24.859375 42.96875 
Q 42.578125 42.96875 42.578125 58.59375 
Q 42.578125 69.28125 31.15625 69.28125 
Q 18.40625 69.28125 18.40625 54.046875 
z
" id="DejaVuSans-946"/>
      <path d="M 10.59375 45.40625 
L 73.1875 45.40625 
L 73.1875 37.203125 
L 10.59375 37.203125 
z
M 10.59375 25.484375 
L 73.1875 25.484375 
L 73.1875 17.1875 
L 10.59375 17.1875 
z
" id="DejaVuSans-61"/>
      <path d="M 10.6875 12.40625 
L 21 12.40625 
L 21 0 
L 10.6875 0 
z
" id="DejaVuSans-46"/>
      <path d="M 4.890625 31.390625 
L 31.203125 31.390625 
L 31.203125 23.390625 
L 4.890625 23.390625 
z
" id="DejaVuSans-45"/>
      <path d="M -0.296875 72.90625 
L 61.375 72.90625 
L 61.375 64.59375 
L 35.5 64.59375 
L 35.5 0 
L 25.59375 0 
L 25.59375 64.59375 
L -0.296875 64.59375 
z
" id="DejaVuSans-84"/>
     </defs>
     <g transform="translate(339.65125 58.132937)scale(0.1 -0.1)">
      <use xlink:href="#DejaVuSans-946"/>
      <use x="63.818359" xlink:href="#DejaVuSans-61"/>
      <use x="147.607422" xlink:href="#DejaVuSans-48"/>
      <use x="211.230469" xlink:href="#DejaVuSans-46"/>
      <use x="243.017578" xlink:href="#DejaVuSans-49"/>
      <use x="306.640625" xlink:href="#DejaVuSans-32"/>
      <use x="338.427734" xlink:href="#DejaVuSans-45"/>
      <use x="374.511719" xlink:href="#DejaVuSans-32"/>
      <use x="406.298828" xlink:href="#DejaVuSans-84"/>
      <use x="467.117188" xlink:href="#DejaVuSans-101"/>
      <use x="528.640625" xlink:href="#DejaVuSans-115"/>
      <use x="580.740234" xlink:href="#DejaVuSans-116"/>
     </g>
    </g>
    <g id="line2d_40">
     <path d="M 311.65125 69.373562 
L 331.65125 69.373562 
" style="fill:none;stroke:#aec7e8;stroke-linecap:square;stroke-opacity:0.5;stroke-width:1.5;"/>
    </g>
    <g id="line2d_41"/>
    <g id="text_13">
     <!-- =0.1 - Train -->
     <defs>
      <path d="M 34.28125 27.484375 
Q 23.390625 27.484375 19.1875 25 
Q 14.984375 22.515625 14.984375 16.5 
Q 14.984375 11.71875 18.140625 8.90625 
Q 21.296875 6.109375 26.703125 6.109375 
Q 34.1875 6.109375 38.703125 11.40625 
Q 43.21875 16.703125 43.21875 25.484375 
L 43.21875 27.484375 
z
M 52.203125 31.203125 
L 52.203125 0 
L 43.21875 0 
L 43.21875 8.296875 
Q 40.140625 3.328125 35.546875 0.953125 
Q 30.953125 -1.421875 24.3125 -1.421875 
Q 15.921875 -1.421875 10.953125 3.296875 
Q 6 8.015625 6 15.921875 
Q 6 25.140625 12.171875 29.828125 
Q 18.359375 34.515625 30.609375 34.515625 
L 43.21875 34.515625 
L 43.21875 35.40625 
Q 43.21875 41.609375 39.140625 45 
Q 35.0625 48.390625 27.6875 48.390625 
Q 23 48.390625 18.546875 47.265625 
Q 14.109375 46.140625 10.015625 43.890625 
L 10.015625 52.203125 
Q 14.9375 54.109375 19.578125 55.046875 
Q 24.21875 56 28.609375 56 
Q 40.484375 56 46.34375 49.84375 
Q 52.203125 43.703125 52.203125 31.203125 
z
" id="DejaVuSans-97"/>
      <path d="M 54.890625 33.015625 
L 54.890625 0 
L 45.90625 0 
L 45.90625 32.71875 
Q 45.90625 40.484375 42.875 44.328125 
Q 39.84375 48.1875 33.796875 48.1875 
Q 26.515625 48.1875 22.3125 43.546875 
Q 18.109375 38.921875 18.109375 30.90625 
L 18.109375 0 
L 9.078125 0 
L 9.078125 54.6875 
L 18.109375 54.6875 
L 18.109375 46.1875 
Q 21.34375 51.125 25.703125 53.5625 
Q 30.078125 56 35.796875 56 
Q 45.21875 56 50.046875 50.171875 
Q 54.890625 44.34375 54.890625 33.015625 
z
" id="DejaVuSans-110"/>
     </defs>
     <g transform="translate(339.65125 72.873562)scale(0.1 -0.1)">
      <use xlink:href="#DejaVuSans-946"/>
      <use x="63.818359" xlink:href="#DejaVuSans-61"/>
      <use x="147.607422" xlink:href="#DejaVuSans-48"/>
      <use x="211.230469" xlink:href="#DejaVuSans-46"/>
      <use x="243.017578" xlink:href="#DejaVuSans-49"/>
      <use x="306.640625" xlink:href="#DejaVuSans-32"/>
      <use x="338.427734" xlink:href="#DejaVuSans-45"/>
      <use x="374.511719" xlink:href="#DejaVuSans-32"/>
      <use x="406.298828" xlink:href="#DejaVuSans-84"/>
      <use x="467.164062" xlink:href="#DejaVuSans-114"/>
      <use x="508.277344" xlink:href="#DejaVuSans-97"/>
      <use x="569.556641" xlink:href="#DejaVuSans-105"/>
      <use x="597.339844" xlink:href="#DejaVuSans-110"/>
     </g>
    </g>
    <g id="line2d_42">
     <path d="M 311.65125 84.114188 
L 331.65125 84.114188 
" style="fill:none;stroke:#ff7f0e;stroke-linecap:square;stroke-width:1.5;"/>
    </g>
    <g id="line2d_43"/>
    <g id="text_14">
     <!-- =1 - Test -->
     <g transform="translate(339.65125 87.614188)scale(0.1 -0.1)">
      <use xlink:href="#DejaVuSans-946"/>
      <use x="63.818359" xlink:href="#DejaVuSans-61"/>
      <use x="147.607422" xlink:href="#DejaVuSans-49"/>
      <use x="211.230469" xlink:href="#DejaVuSans-32"/>
      <use x="243.017578" xlink:href="#DejaVuSans-45"/>
      <use x="279.101562" xlink:href="#DejaVuSans-32"/>
      <use x="310.888672" xlink:href="#DejaVuSans-84"/>
      <use x="371.707031" xlink:href="#DejaVuSans-101"/>
      <use x="433.230469" xlink:href="#DejaVuSans-115"/>
      <use x="485.330078" xlink:href="#DejaVuSans-116"/>
     </g>
    </g>
    <g id="line2d_44">
     <path d="M 311.65125 98.854812 
L 331.65125 98.854812 
" style="fill:none;stroke:#ffbb78;stroke-linecap:square;stroke-opacity:0.5;stroke-width:1.5;"/>
    </g>
    <g id="line2d_45"/>
    <g id="text_15">
     <!-- =1 - Train -->
     <g transform="translate(339.65125 102.354812)scale(0.1 -0.1)">
      <use xlink:href="#DejaVuSans-946"/>
      <use x="63.818359" xlink:href="#DejaVuSans-61"/>
      <use x="147.607422" xlink:href="#DejaVuSans-49"/>
      <use x="211.230469" xlink:href="#DejaVuSans-32"/>
      <use x="243.017578" xlink:href="#DejaVuSans-45"/>
      <use x="279.101562" xlink:href="#DejaVuSans-32"/>
      <use x="310.888672" xlink:href="#DejaVuSans-84"/>
      <use x="371.753906" xlink:href="#DejaVuSans-114"/>
      <use x="412.867188" xlink:href="#DejaVuSans-97"/>
      <use x="474.146484" xlink:href="#DejaVuSans-105"/>
      <use x="501.929688" xlink:href="#DejaVuSans-110"/>
     </g>
    </g>
    <g id="line2d_46">
     <path d="M 311.65125 113.595438 
L 331.65125 113.595438 
" style="fill:none;stroke:#2ca02c;stroke-linecap:square;stroke-width:1.5;"/>
    </g>
    <g id="line2d_47"/>
    <g id="text_16">
     <!-- =2 - Test -->
     <g transform="translate(339.65125 117.095438)scale(0.1 -0.1)">
      <use xlink:href="#DejaVuSans-946"/>
      <use x="63.818359" xlink:href="#DejaVuSans-61"/>
      <use x="147.607422" xlink:href="#DejaVuSans-50"/>
      <use x="211.230469" xlink:href="#DejaVuSans-32"/>
      <use x="243.017578" xlink:href="#DejaVuSans-45"/>
      <use x="279.101562" xlink:href="#DejaVuSans-32"/>
      <use x="310.888672" xlink:href="#DejaVuSans-84"/>
      <use x="371.707031" xlink:href="#DejaVuSans-101"/>
      <use x="433.230469" xlink:href="#DejaVuSans-115"/>
      <use x="485.330078" xlink:href="#DejaVuSans-116"/>
     </g>
    </g>
    <g id="line2d_48">
     <path d="M 311.65125 128.336062 
L 331.65125 128.336062 
" style="fill:none;stroke:#98df8a;stroke-linecap:square;stroke-opacity:0.5;stroke-width:1.5;"/>
    </g>
    <g id="line2d_49"/>
    <g id="text_17">
     <!-- =2 - Train -->
     <g transform="translate(339.65125 131.836062)scale(0.1 -0.1)">
      <use xlink:href="#DejaVuSans-946"/>
      <use x="63.818359" xlink:href="#DejaVuSans-61"/>
      <use x="147.607422" xlink:href="#DejaVuSans-50"/>
      <use x="211.230469" xlink:href="#DejaVuSans-32"/>
      <use x="243.017578" xlink:href="#DejaVuSans-45"/>
      <use x="279.101562" xlink:href="#DejaVuSans-32"/>
      <use x="310.888672" xlink:href="#DejaVuSans-84"/>
      <use x="371.753906" xlink:href="#DejaVuSans-114"/>
      <use x="412.867188" xlink:href="#DejaVuSans-97"/>
      <use x="474.146484" xlink:href="#DejaVuSans-105"/>
      <use x="501.929688" xlink:href="#DejaVuSans-110"/>
     </g>
    </g>
    <g id="line2d_50">
     <path d="M 311.65125 143.076687 
L 331.65125 143.076687 
" style="fill:none;stroke:#d62728;stroke-linecap:square;stroke-width:1.5;"/>
    </g>
    <g id="line2d_51"/>
    <g id="text_18">
     <!-- =4 - Test -->
     <g transform="translate(339.65125 146.576687)scale(0.1 -0.1)">
      <use xlink:href="#DejaVuSans-946"/>
      <use x="63.818359" xlink:href="#DejaVuSans-61"/>
      <use x="147.607422" xlink:href="#DejaVuSans-52"/>
      <use x="211.230469" xlink:href="#DejaVuSans-32"/>
      <use x="243.017578" xlink:href="#DejaVuSans-45"/>
      <use x="279.101562" xlink:href="#DejaVuSans-32"/>
      <use x="310.888672" xlink:href="#DejaVuSans-84"/>
      <use x="371.707031" xlink:href="#DejaVuSans-101"/>
      <use x="433.230469" xlink:href="#DejaVuSans-115"/>
      <use x="485.330078" xlink:href="#DejaVuSans-116"/>
     </g>
    </g>
    <g id="line2d_52">
     <path d="M 311.65125 157.817312 
L 331.65125 157.817312 
" style="fill:none;stroke:#ff9896;stroke-linecap:square;stroke-opacity:0.5;stroke-width:1.5;"/>
    </g>
    <g id="line2d_53"/>
    <g id="text_19">
     <!-- =4 - Train -->
     <g transform="translate(339.65125 161.317312)scale(0.1 -0.1)">
      <use xlink:href="#DejaVuSans-946"/>
      <use x="63.818359" xlink:href="#DejaVuSans-61"/>
      <use x="147.607422" xlink:href="#DejaVuSans-52"/>
      <use x="211.230469" xlink:href="#DejaVuSans-32"/>
      <use x="243.017578" xlink:href="#DejaVuSans-45"/>
      <use x="279.101562" xlink:href="#DejaVuSans-32"/>
      <use x="310.888672" xlink:href="#DejaVuSans-84"/>
      <use x="371.753906" xlink:href="#DejaVuSans-114"/>
      <use x="412.867188" xlink:href="#DejaVuSans-97"/>
      <use x="474.146484" xlink:href="#DejaVuSans-105"/>
      <use x="501.929688" xlink:href="#DejaVuSans-110"/>
     </g>
    </g>
    <g id="line2d_54">
     <path d="M 311.65125 172.557937 
L 331.65125 172.557937 
" style="fill:none;stroke:#9467bd;stroke-linecap:square;stroke-width:1.5;"/>
    </g>
    <g id="line2d_55"/>
    <g id="text_20">
     <!-- =8 - Test -->
     <defs>
      <path d="M 31.78125 34.625 
Q 24.75 34.625 20.71875 30.859375 
Q 16.703125 27.09375 16.703125 20.515625 
Q 16.703125 13.921875 20.71875 10.15625 
Q 24.75 6.390625 31.78125 6.390625 
Q 38.8125 6.390625 42.859375 10.171875 
Q 46.921875 13.96875 46.921875 20.515625 
Q 46.921875 27.09375 42.890625 30.859375 
Q 38.875 34.625 31.78125 34.625 
z
M 21.921875 38.8125 
Q 15.578125 40.375 12.03125 44.71875 
Q 8.5 49.078125 8.5 55.328125 
Q 8.5 64.0625 14.71875 69.140625 
Q 20.953125 74.21875 31.78125 74.21875 
Q 42.671875 74.21875 48.875 69.140625 
Q 55.078125 64.0625 55.078125 55.328125 
Q 55.078125 49.078125 51.53125 44.71875 
Q 48 40.375 41.703125 38.8125 
Q 48.828125 37.15625 52.796875 32.3125 
Q 56.78125 27.484375 56.78125 20.515625 
Q 56.78125 9.90625 50.3125 4.234375 
Q 43.84375 -1.421875 31.78125 -1.421875 
Q 19.734375 -1.421875 13.25 4.234375 
Q 6.78125 9.90625 6.78125 20.515625 
Q 6.78125 27.484375 10.78125 32.3125 
Q 14.796875 37.15625 21.921875 38.8125 
z
M 18.3125 54.390625 
Q 18.3125 48.734375 21.84375 45.5625 
Q 25.390625 42.390625 31.78125 42.390625 
Q 38.140625 42.390625 41.71875 45.5625 
Q 45.3125 48.734375 45.3125 54.390625 
Q 45.3125 60.0625 41.71875 63.234375 
Q 38.140625 66.40625 31.78125 66.40625 
Q 25.390625 66.40625 21.84375 63.234375 
Q 18.3125 60.0625 18.3125 54.390625 
z
" id="DejaVuSans-56"/>
     </defs>
     <g transform="translate(339.65125 176.057937)scale(0.1 -0.1)">
      <use xlink:href="#DejaVuSans-946"/>
      <use x="63.818359" xlink:href="#DejaVuSans-61"/>
      <use x="147.607422" xlink:href="#DejaVuSans-56"/>
      <use x="211.230469" xlink:href="#DejaVuSans-32"/>
      <use x="243.017578" xlink:href="#DejaVuSans-45"/>
      <use x="279.101562" xlink:href="#DejaVuSans-32"/>
      <use x="310.888672" xlink:href="#DejaVuSans-84"/>
      <use x="371.707031" xlink:href="#DejaVuSans-101"/>
      <use x="433.230469" xlink:href="#DejaVuSans-115"/>
      <use x="485.330078" xlink:href="#DejaVuSans-116"/>
     </g>
    </g>
    <g id="line2d_56">
     <path d="M 311.65125 187.298562 
L 331.65125 187.298562 
" style="fill:none;stroke:#c5b0d5;stroke-linecap:square;stroke-opacity:0.5;stroke-width:1.5;"/>
    </g>
    <g id="line2d_57"/>
    <g id="text_21">
     <!-- =8 - Train -->
     <g transform="translate(339.65125 190.798562)scale(0.1 -0.1)">
      <use xlink:href="#DejaVuSans-946"/>
      <use x="63.818359" xlink:href="#DejaVuSans-61"/>
      <use x="147.607422" xlink:href="#DejaVuSans-56"/>
      <use x="211.230469" xlink:href="#DejaVuSans-32"/>
      <use x="243.017578" xlink:href="#DejaVuSans-45"/>
      <use x="279.101562" xlink:href="#DejaVuSans-32"/>
      <use x="310.888672" xlink:href="#DejaVuSans-84"/>
      <use x="371.753906" xlink:href="#DejaVuSans-114"/>
      <use x="412.867188" xlink:href="#DejaVuSans-97"/>
      <use x="474.146484" xlink:href="#DejaVuSans-105"/>
      <use x="501.929688" xlink:href="#DejaVuSans-110"/>
     </g>
    </g>
   </g>
  </g>
 </g>
 <defs>
  <clipPath id="peef62ae457">
   <rect height="266.112" width="357.12" x="57.6" y="41.472"/>
  </clipPath>
 </defs>
</svg>
