<?xml version="1.0" encoding="utf-8" standalone="no"?>
<!DOCTYPE svg PUBLIC "-//W3C//DTD SVG 1.1//EN"
  "http://www.w3.org/Graphics/SVG/1.1/DTD/svg11.dtd">
<!-- Created with matplotlib (https://matplotlib.org/) -->
<svg height="345.6pt" version="1.1" viewBox="0 0 460.8 345.6" width="460.8pt" xmlns="http://www.w3.org/2000/svg" xmlns:xlink="http://www.w3.org/1999/xlink">
 <defs>
  <style type="text/css">
*{stroke-linecap:butt;stroke-linejoin:round;}
  </style>
 </defs>
 <g id="figure_1">
  <g id="patch_1">
   <path d="M 0 345.6 
L 460.8 345.6 
L 460.8 0 
L 0 0 
z
" style="fill:#ffffff;"/>
  </g>
  <g id="axes_1">
   <g id="patch_2">
    <path d="M 57.6 307.584 
L 414.72 307.584 
L 414.72 41.472 
L 57.6 41.472 
z
" style="fill:#ffffff;"/>
   </g>
   <g id="PolyCollection_1">
    <defs>
     <path d="M 77.08176 -168.878206 
L 77.08176 -50.130679 
L 83.572172 -57.182858 
L 90.062584 -65.254962 
L 96.552996 -74.46805 
L 103.043409 -76.265738 
L 109.533821 -79.902421 
L 116.024233 -81.894404 
L 122.514645 -84.990053 
L 129.005057 -89.852309 
L 135.495469 -96.966599 
L 141.985881 -97.025476 
L 148.476293 -102.213471 
L 154.966705 -110.574339 
L 161.457117 -121.27503 
L 167.947529 -120.790236 
L 174.437941 -124.484861 
L 180.928354 -129.995299 
L 187.418766 -132.316957 
L 193.909178 -135.12926 
L 200.39959 -138.694283 
L 206.890002 -150.045736 
L 213.380414 -154.439385 
L 219.870826 -155.490666 
L 226.361238 -165.326172 
L 232.85165 -171.613214 
L 239.342062 -176.306876 
L 245.832474 -175.907818 
L 252.322886 -184.15567 
L 258.813299 -183.206521 
L 265.303711 -194.578957 
L 271.794123 -197.647709 
L 278.284535 -197.33175 
L 284.774947 -187.550035 
L 291.265359 -188.714111 
L 297.755771 -194.11201 
L 304.246183 -191.591262 
L 310.736595 -183.519454 
L 317.227007 -185.329446 
L 323.717419 -181.134034 
L 330.207831 -184.670463 
L 336.698244 -186.313079 
L 343.188656 -190.577226 
L 349.679068 -192.480738 
L 356.16948 -192.408698 
L 362.659892 -191.461427 
L 369.150304 -199.720243 
L 375.640716 -200.365398 
L 382.131128 -205.325434 
L 388.62154 -211.47835 
L 395.111952 -205.727696 
L 398.487273 -208.545081 
L 398.487273 -262.904698 
L 398.487273 -262.904698 
L 395.111952 -292.032 
L 388.62154 -288.286867 
L 382.131128 -287.865935 
L 375.640716 -279.703463 
L 369.150304 -285.732069 
L 362.659892 -277.059196 
L 356.16948 -278.059776 
L 349.679068 -269.310176 
L 343.188656 -273.117045 
L 336.698244 -276.554895 
L 330.207831 -286.102113 
L 323.717419 -261.487252 
L 317.227007 -275.999131 
L 310.736595 -265.278617 
L 304.246183 -262.514324 
L 297.755771 -272.209798 
L 291.265359 -270.152676 
L 284.774947 -265.436822 
L 278.284535 -270.781613 
L 271.794123 -271.485354 
L 265.303711 -269.727135 
L 258.813299 -259.666427 
L 252.322886 -259.309637 
L 245.832474 -256.197539 
L 239.342062 -245.519781 
L 232.85165 -233.131309 
L 226.361238 -224.512831 
L 219.870826 -226.568464 
L 213.380414 -210.91017 
L 206.890002 -200.610278 
L 200.39959 -194.65196 
L 193.909178 -188.778066 
L 187.418766 -184.260302 
L 180.928354 -176.193468 
L 174.437941 -174.068184 
L 167.947529 -163.654512 
L 161.457117 -158.695376 
L 154.966705 -153.703068 
L 148.476293 -136.102766 
L 141.985881 -121.034503 
L 135.495469 -118.308837 
L 129.005057 -114.712089 
L 122.514645 -103.358812 
L 116.024233 -98.808511 
L 109.533821 -94.068175 
L 103.043409 -93.385669 
L 96.552996 -88.367079 
L 90.062584 -96.008426 
L 83.572172 -79.832221 
L 77.08176 -168.878206 
z
" id="m4a0e075851" style="stroke:#aec7e8;stroke-opacity:0.25;"/>
    </defs>
    <g clip-path="url(#p2f35c62a6a)">
     <use style="fill:#aec7e8;fill-opacity:0.25;stroke:#aec7e8;stroke-opacity:0.25;" x="0" xlink:href="#m4a0e075851" y="345.6"/>
    </g>
   </g>
   <g id="PolyCollection_2">
    <defs>
     <path d="M 77.08176 -184.277233 
L 77.08176 -50.146554 
L 83.572172 -56.755212 
L 90.062584 -59.743943 
L 96.552996 -61.179654 
L 103.043409 -63.563314 
L 109.533821 -71.661745 
L 116.024233 -74.812318 
L 122.514645 -79.344735 
L 129.005057 -89.532218 
L 135.495469 -97.9869 
L 141.985881 -108.43326 
L 148.476293 -120.533794 
L 154.966705 -123.410277 
L 161.457117 -131.884937 
L 167.947529 -135.120499 
L 174.437941 -140.476705 
L 180.928354 -138.58661 
L 187.418766 -141.543615 
L 193.909178 -142.688533 
L 200.39959 -147.400484 
L 206.890002 -142.495201 
L 213.380414 -147.34733 
L 219.870826 -149.154901 
L 226.361238 -144.168987 
L 232.85165 -140.18602 
L 239.342062 -138.803749 
L 245.832474 -141.975333 
L 252.322886 -138.468034 
L 258.813299 -134.875332 
L 265.303711 -135.23355 
L 271.794123 -138.64109 
L 278.284535 -139.87502 
L 284.774947 -139.085837 
L 291.265359 -142.303847 
L 297.755771 -145.89419 
L 304.246183 -140.774561 
L 310.736595 -147.773624 
L 317.227007 -144.224298 
L 323.717419 -144.412556 
L 330.207831 -151.340912 
L 336.698244 -149.466569 
L 343.188656 -150.950337 
L 349.679068 -155.045571 
L 356.16948 -154.275004 
L 362.659892 -161.957423 
L 369.150304 -161.253162 
L 375.640716 -165.248444 
L 382.131128 -160.939911 
L 388.62154 -161.655781 
L 395.111952 -162.855722 
L 398.487273 -166.406724 
L 398.487273 -209.091099 
L 398.487273 -209.091099 
L 395.111952 -234.956076 
L 388.62154 -224.849896 
L 382.131128 -231.28528 
L 375.640716 -223.106792 
L 369.150304 -219.994648 
L 362.659892 -223.691624 
L 356.16948 -216.086747 
L 349.679068 -216.74258 
L 343.188656 -209.552303 
L 336.698244 -205.729434 
L 330.207831 -205.028921 
L 323.717419 -203.744647 
L 317.227007 -205.164374 
L 310.736595 -194.411829 
L 304.246183 -195.870369 
L 297.755771 -192.608913 
L 291.265359 -194.148372 
L 284.774947 -190.150335 
L 278.284535 -190.108728 
L 271.794123 -186.093682 
L 265.303711 -193.376283 
L 258.813299 -193.585593 
L 252.322886 -194.320451 
L 245.832474 -193.268082 
L 239.342062 -192.803541 
L 232.85165 -200.954017 
L 226.361238 -199.080985 
L 219.870826 -203.595925 
L 213.380414 -197.888306 
L 206.890002 -201.364473 
L 200.39959 -200.768622 
L 193.909178 -199.534724 
L 187.418766 -203.159132 
L 180.928354 -190.798082 
L 174.437941 -193.294139 
L 167.947529 -181.389111 
L 161.457117 -175.510282 
L 154.966705 -167.171836 
L 148.476293 -158.224263 
L 141.985881 -151.054953 
L 135.495469 -130.183851 
L 129.005057 -114.726673 
L 122.514645 -106.6434 
L 116.024233 -91.199122 
L 109.533821 -83.712767 
L 103.043409 -90.701207 
L 96.552996 -78.152033 
L 90.062584 -76.325217 
L 83.572172 -80.993 
L 77.08176 -184.277233 
z
" id="m5a6646ee08" style="stroke:#ffbb78;stroke-opacity:0.25;"/>
    </defs>
    <g clip-path="url(#p2f35c62a6a)">
     <use style="fill:#ffbb78;fill-opacity:0.25;stroke:#ffbb78;stroke-opacity:0.25;" x="0" xlink:href="#m5a6646ee08" y="345.6"/>
    </g>
   </g>
   <g id="matplotlib.axis_1">
    <g id="xtick_1">
     <g id="line2d_1">
      <path clip-path="url(#p2f35c62a6a)" d="M 73.832727 307.584 
L 73.832727 41.472 
" style="fill:none;stroke:#b0b0b0;stroke-linecap:square;stroke-width:0.8;"/>
     </g>
     <g id="line2d_2">
      <defs>
       <path d="M 0 0 
L 0 3.5 
" id="me93406b025" style="stroke:#000000;stroke-width:0.8;"/>
      </defs>
      <g>
       <use style="stroke:#000000;stroke-width:0.8;" x="73.832727" xlink:href="#me93406b025" y="307.584"/>
      </g>
     </g>
     <g id="text_1">
      <!-- 0 -->
      <defs>
       <path d="M 31.78125 66.40625 
Q 24.171875 66.40625 20.328125 58.90625 
Q 16.5 51.421875 16.5 36.375 
Q 16.5 21.390625 20.328125 13.890625 
Q 24.171875 6.390625 31.78125 6.390625 
Q 39.453125 6.390625 43.28125 13.890625 
Q 47.125 21.390625 47.125 36.375 
Q 47.125 51.421875 43.28125 58.90625 
Q 39.453125 66.40625 31.78125 66.40625 
z
M 31.78125 74.21875 
Q 44.046875 74.21875 50.515625 64.515625 
Q 56.984375 54.828125 56.984375 36.375 
Q 56.984375 17.96875 50.515625 8.265625 
Q 44.046875 -1.421875 31.78125 -1.421875 
Q 19.53125 -1.421875 13.0625 8.265625 
Q 6.59375 17.96875 6.59375 36.375 
Q 6.59375 54.828125 13.0625 64.515625 
Q 19.53125 74.21875 31.78125 74.21875 
z
" id="DejaVuSans-48"/>
      </defs>
      <g transform="translate(70.651477 322.182437)scale(0.1 -0.1)">
       <use xlink:href="#DejaVuSans-48"/>
      </g>
     </g>
    </g>
    <g id="xtick_2">
     <g id="line2d_3">
      <path clip-path="url(#p2f35c62a6a)" d="M 150.370606 307.584 
L 150.370606 41.472 
" style="fill:none;stroke:#b0b0b0;stroke-linecap:square;stroke-width:0.8;"/>
     </g>
     <g id="line2d_4">
      <g>
       <use style="stroke:#000000;stroke-width:0.8;" x="150.370606" xlink:href="#me93406b025" y="307.584"/>
      </g>
     </g>
     <g id="text_2">
      <!-- 10000 -->
      <defs>
       <path d="M 12.40625 8.296875 
L 28.515625 8.296875 
L 28.515625 63.921875 
L 10.984375 60.40625 
L 10.984375 69.390625 
L 28.421875 72.90625 
L 38.28125 72.90625 
L 38.28125 8.296875 
L 54.390625 8.296875 
L 54.390625 0 
L 12.40625 0 
z
" id="DejaVuSans-49"/>
      </defs>
      <g transform="translate(134.464356 322.182437)scale(0.1 -0.1)">
       <use xlink:href="#DejaVuSans-49"/>
       <use x="63.623047" xlink:href="#DejaVuSans-48"/>
       <use x="127.246094" xlink:href="#DejaVuSans-48"/>
       <use x="190.869141" xlink:href="#DejaVuSans-48"/>
       <use x="254.492188" xlink:href="#DejaVuSans-48"/>
      </g>
     </g>
    </g>
    <g id="xtick_3">
     <g id="line2d_5">
      <path clip-path="url(#p2f35c62a6a)" d="M 226.908484 307.584 
L 226.908484 41.472 
" style="fill:none;stroke:#b0b0b0;stroke-linecap:square;stroke-width:0.8;"/>
     </g>
     <g id="line2d_6">
      <g>
       <use style="stroke:#000000;stroke-width:0.8;" x="226.908484" xlink:href="#me93406b025" y="307.584"/>
      </g>
     </g>
     <g id="text_3">
      <!-- 20000 -->
      <defs>
       <path d="M 19.1875 8.296875 
L 53.609375 8.296875 
L 53.609375 0 
L 7.328125 0 
L 7.328125 8.296875 
Q 12.9375 14.109375 22.625 23.890625 
Q 32.328125 33.6875 34.8125 36.53125 
Q 39.546875 41.84375 41.421875 45.53125 
Q 43.3125 49.21875 43.3125 52.78125 
Q 43.3125 58.59375 39.234375 62.25 
Q 35.15625 65.921875 28.609375 65.921875 
Q 23.96875 65.921875 18.8125 64.3125 
Q 13.671875 62.703125 7.8125 59.421875 
L 7.8125 69.390625 
Q 13.765625 71.78125 18.9375 73 
Q 24.125 74.21875 28.421875 74.21875 
Q 39.75 74.21875 46.484375 68.546875 
Q 53.21875 62.890625 53.21875 53.421875 
Q 53.21875 48.921875 51.53125 44.890625 
Q 49.859375 40.875 45.40625 35.40625 
Q 44.1875 33.984375 37.640625 27.21875 
Q 31.109375 20.453125 19.1875 8.296875 
z
" id="DejaVuSans-50"/>
      </defs>
      <g transform="translate(211.002234 322.182437)scale(0.1 -0.1)">
       <use xlink:href="#DejaVuSans-50"/>
       <use x="63.623047" xlink:href="#DejaVuSans-48"/>
       <use x="127.246094" xlink:href="#DejaVuSans-48"/>
       <use x="190.869141" xlink:href="#DejaVuSans-48"/>
       <use x="254.492188" xlink:href="#DejaVuSans-48"/>
      </g>
     </g>
    </g>
    <g id="xtick_4">
     <g id="line2d_7">
      <path clip-path="url(#p2f35c62a6a)" d="M 303.446362 307.584 
L 303.446362 41.472 
" style="fill:none;stroke:#b0b0b0;stroke-linecap:square;stroke-width:0.8;"/>
     </g>
     <g id="line2d_8">
      <g>
       <use style="stroke:#000000;stroke-width:0.8;" x="303.446362" xlink:href="#me93406b025" y="307.584"/>
      </g>
     </g>
     <g id="text_4">
      <!-- 30000 -->
      <defs>
       <path d="M 40.578125 39.3125 
Q 47.65625 37.796875 51.625 33 
Q 55.609375 28.21875 55.609375 21.1875 
Q 55.609375 10.40625 48.1875 4.484375 
Q 40.765625 -1.421875 27.09375 -1.421875 
Q 22.515625 -1.421875 17.65625 -0.515625 
Q 12.796875 0.390625 7.625 2.203125 
L 7.625 11.71875 
Q 11.71875 9.328125 16.59375 8.109375 
Q 21.484375 6.890625 26.8125 6.890625 
Q 36.078125 6.890625 40.9375 10.546875 
Q 45.796875 14.203125 45.796875 21.1875 
Q 45.796875 27.640625 41.28125 31.265625 
Q 36.765625 34.90625 28.71875 34.90625 
L 20.21875 34.90625 
L 20.21875 43.015625 
L 29.109375 43.015625 
Q 36.375 43.015625 40.234375 45.921875 
Q 44.09375 48.828125 44.09375 54.296875 
Q 44.09375 59.90625 40.109375 62.90625 
Q 36.140625 65.921875 28.71875 65.921875 
Q 24.65625 65.921875 20.015625 65.03125 
Q 15.375 64.15625 9.8125 62.3125 
L 9.8125 71.09375 
Q 15.4375 72.65625 20.34375 73.4375 
Q 25.25 74.21875 29.59375 74.21875 
Q 40.828125 74.21875 47.359375 69.109375 
Q 53.90625 64.015625 53.90625 55.328125 
Q 53.90625 49.265625 50.4375 45.09375 
Q 46.96875 40.921875 40.578125 39.3125 
z
" id="DejaVuSans-51"/>
      </defs>
      <g transform="translate(287.540112 322.182437)scale(0.1 -0.1)">
       <use xlink:href="#DejaVuSans-51"/>
       <use x="63.623047" xlink:href="#DejaVuSans-48"/>
       <use x="127.246094" xlink:href="#DejaVuSans-48"/>
       <use x="190.869141" xlink:href="#DejaVuSans-48"/>
       <use x="254.492188" xlink:href="#DejaVuSans-48"/>
      </g>
     </g>
    </g>
    <g id="xtick_5">
     <g id="line2d_9">
      <path clip-path="url(#p2f35c62a6a)" d="M 379.984241 307.584 
L 379.984241 41.472 
" style="fill:none;stroke:#b0b0b0;stroke-linecap:square;stroke-width:0.8;"/>
     </g>
     <g id="line2d_10">
      <g>
       <use style="stroke:#000000;stroke-width:0.8;" x="379.984241" xlink:href="#me93406b025" y="307.584"/>
      </g>
     </g>
     <g id="text_5">
      <!-- 40000 -->
      <defs>
       <path d="M 37.796875 64.3125 
L 12.890625 25.390625 
L 37.796875 25.390625 
z
M 35.203125 72.90625 
L 47.609375 72.90625 
L 47.609375 25.390625 
L 58.015625 25.390625 
L 58.015625 17.1875 
L 47.609375 17.1875 
L 47.609375 0 
L 37.796875 0 
L 37.796875 17.1875 
L 4.890625 17.1875 
L 4.890625 26.703125 
z
" id="DejaVuSans-52"/>
      </defs>
      <g transform="translate(364.077991 322.182437)scale(0.1 -0.1)">
       <use xlink:href="#DejaVuSans-52"/>
       <use x="63.623047" xlink:href="#DejaVuSans-48"/>
       <use x="127.246094" xlink:href="#DejaVuSans-48"/>
       <use x="190.869141" xlink:href="#DejaVuSans-48"/>
       <use x="254.492188" xlink:href="#DejaVuSans-48"/>
      </g>
     </g>
    </g>
    <g id="text_6">
     <!-- Steps -->
     <defs>
      <path d="M 53.515625 70.515625 
L 53.515625 60.890625 
Q 47.90625 63.578125 42.921875 64.890625 
Q 37.9375 66.21875 33.296875 66.21875 
Q 25.25 66.21875 20.875 63.09375 
Q 16.5 59.96875 16.5 54.203125 
Q 16.5 49.359375 19.40625 46.890625 
Q 22.3125 44.4375 30.421875 42.921875 
L 36.375 41.703125 
Q 47.40625 39.59375 52.65625 34.296875 
Q 57.90625 29 57.90625 20.125 
Q 57.90625 9.515625 50.796875 4.046875 
Q 43.703125 -1.421875 29.984375 -1.421875 
Q 24.8125 -1.421875 18.96875 -0.25 
Q 13.140625 0.921875 6.890625 3.21875 
L 6.890625 13.375 
Q 12.890625 10.015625 18.65625 8.296875 
Q 24.421875 6.59375 29.984375 6.59375 
Q 38.421875 6.59375 43.015625 9.90625 
Q 47.609375 13.234375 47.609375 19.390625 
Q 47.609375 24.75 44.3125 27.78125 
Q 41.015625 30.8125 33.5 32.328125 
L 27.484375 33.5 
Q 16.453125 35.6875 11.515625 40.375 
Q 6.59375 45.0625 6.59375 53.421875 
Q 6.59375 63.09375 13.40625 68.65625 
Q 20.21875 74.21875 32.171875 74.21875 
Q 37.3125 74.21875 42.625 73.28125 
Q 47.953125 72.359375 53.515625 70.515625 
z
" id="DejaVuSans-83"/>
      <path d="M 18.3125 70.21875 
L 18.3125 54.6875 
L 36.8125 54.6875 
L 36.8125 47.703125 
L 18.3125 47.703125 
L 18.3125 18.015625 
Q 18.3125 11.328125 20.140625 9.421875 
Q 21.96875 7.515625 27.59375 7.515625 
L 36.8125 7.515625 
L 36.8125 0 
L 27.59375 0 
Q 17.1875 0 13.234375 3.875 
Q 9.28125 7.765625 9.28125 18.015625 
L 9.28125 47.703125 
L 2.6875 47.703125 
L 2.6875 54.6875 
L 9.28125 54.6875 
L 9.28125 70.21875 
z
" id="DejaVuSans-116"/>
      <path d="M 56.203125 29.59375 
L 56.203125 25.203125 
L 14.890625 25.203125 
Q 15.484375 15.921875 20.484375 11.0625 
Q 25.484375 6.203125 34.421875 6.203125 
Q 39.59375 6.203125 44.453125 7.46875 
Q 49.3125 8.734375 54.109375 11.28125 
L 54.109375 2.78125 
Q 49.265625 0.734375 44.1875 -0.34375 
Q 39.109375 -1.421875 33.890625 -1.421875 
Q 20.796875 -1.421875 13.15625 6.1875 
Q 5.515625 13.8125 5.515625 26.8125 
Q 5.515625 40.234375 12.765625 48.109375 
Q 20.015625 56 32.328125 56 
Q 43.359375 56 49.78125 48.890625 
Q 56.203125 41.796875 56.203125 29.59375 
z
M 47.21875 32.234375 
Q 47.125 39.59375 43.09375 43.984375 
Q 39.0625 48.390625 32.421875 48.390625 
Q 24.90625 48.390625 20.390625 44.140625 
Q 15.875 39.890625 15.1875 32.171875 
z
" id="DejaVuSans-101"/>
      <path d="M 18.109375 8.203125 
L 18.109375 -20.796875 
L 9.078125 -20.796875 
L 9.078125 54.6875 
L 18.109375 54.6875 
L 18.109375 46.390625 
Q 20.953125 51.265625 25.265625 53.625 
Q 29.59375 56 35.59375 56 
Q 45.5625 56 51.78125 48.09375 
Q 58.015625 40.1875 58.015625 27.296875 
Q 58.015625 14.40625 51.78125 6.484375 
Q 45.5625 -1.421875 35.59375 -1.421875 
Q 29.59375 -1.421875 25.265625 0.953125 
Q 20.953125 3.328125 18.109375 8.203125 
z
M 48.6875 27.296875 
Q 48.6875 37.203125 44.609375 42.84375 
Q 40.53125 48.484375 33.40625 48.484375 
Q 26.265625 48.484375 22.1875 42.84375 
Q 18.109375 37.203125 18.109375 27.296875 
Q 18.109375 17.390625 22.1875 11.75 
Q 26.265625 6.109375 33.40625 6.109375 
Q 40.53125 6.109375 44.609375 11.75 
Q 48.6875 17.390625 48.6875 27.296875 
z
" id="DejaVuSans-112"/>
      <path d="M 44.28125 53.078125 
L 44.28125 44.578125 
Q 40.484375 46.53125 36.375 47.5 
Q 32.28125 48.484375 27.875 48.484375 
Q 21.1875 48.484375 17.84375 46.4375 
Q 14.5 44.390625 14.5 40.28125 
Q 14.5 37.15625 16.890625 35.375 
Q 19.28125 33.59375 26.515625 31.984375 
L 29.59375 31.296875 
Q 39.15625 29.25 43.1875 25.515625 
Q 47.21875 21.78125 47.21875 15.09375 
Q 47.21875 7.46875 41.1875 3.015625 
Q 35.15625 -1.421875 24.609375 -1.421875 
Q 20.21875 -1.421875 15.453125 -0.5625 
Q 10.6875 0.296875 5.421875 2 
L 5.421875 11.28125 
Q 10.40625 8.6875 15.234375 7.390625 
Q 20.0625 6.109375 24.8125 6.109375 
Q 31.15625 6.109375 34.5625 8.28125 
Q 37.984375 10.453125 37.984375 14.40625 
Q 37.984375 18.0625 35.515625 20.015625 
Q 33.0625 21.96875 24.703125 23.78125 
L 21.578125 24.515625 
Q 13.234375 26.265625 9.515625 29.90625 
Q 5.8125 33.546875 5.8125 39.890625 
Q 5.8125 47.609375 11.28125 51.796875 
Q 16.75 56 26.8125 56 
Q 31.78125 56 36.171875 55.265625 
Q 40.578125 54.546875 44.28125 53.078125 
z
" id="DejaVuSans-115"/>
     </defs>
     <g transform="translate(222.170156 335.860562)scale(0.1 -0.1)">
      <use xlink:href="#DejaVuSans-83"/>
      <use x="63.476562" xlink:href="#DejaVuSans-116"/>
      <use x="102.685547" xlink:href="#DejaVuSans-101"/>
      <use x="164.208984" xlink:href="#DejaVuSans-112"/>
      <use x="227.685547" xlink:href="#DejaVuSans-115"/>
     </g>
    </g>
   </g>
   <g id="matplotlib.axis_2">
    <g id="ytick_1">
     <g id="line2d_11">
      <path clip-path="url(#p2f35c62a6a)" d="M 57.6 295.517332 
L 414.72 295.517332 
" style="fill:none;stroke:#b0b0b0;stroke-linecap:square;stroke-width:0.8;"/>
     </g>
     <g id="line2d_12">
      <defs>
       <path d="M 0 0 
L -3.5 0 
" id="mad3f9df4ee" style="stroke:#000000;stroke-width:0.8;"/>
      </defs>
      <g>
       <use style="stroke:#000000;stroke-width:0.8;" x="57.6" xlink:href="#mad3f9df4ee" y="295.517332"/>
      </g>
     </g>
     <g id="text_7">
      <!-- 0 -->
      <g transform="translate(44.2375 299.31655)scale(0.1 -0.1)">
       <use xlink:href="#DejaVuSans-48"/>
      </g>
     </g>
    </g>
    <g id="ytick_2">
     <g id="line2d_13">
      <path clip-path="url(#p2f35c62a6a)" d="M 57.6 254.834248 
L 414.72 254.834248 
" style="fill:none;stroke:#b0b0b0;stroke-linecap:square;stroke-width:0.8;"/>
     </g>
     <g id="line2d_14">
      <g>
       <use style="stroke:#000000;stroke-width:0.8;" x="57.6" xlink:href="#mad3f9df4ee" y="254.834248"/>
      </g>
     </g>
     <g id="text_8">
      <!-- 10 -->
      <g transform="translate(37.875 258.633467)scale(0.1 -0.1)">
       <use xlink:href="#DejaVuSans-49"/>
       <use x="63.623047" xlink:href="#DejaVuSans-48"/>
      </g>
     </g>
    </g>
    <g id="ytick_3">
     <g id="line2d_15">
      <path clip-path="url(#p2f35c62a6a)" d="M 57.6 214.151165 
L 414.72 214.151165 
" style="fill:none;stroke:#b0b0b0;stroke-linecap:square;stroke-width:0.8;"/>
     </g>
     <g id="line2d_16">
      <g>
       <use style="stroke:#000000;stroke-width:0.8;" x="57.6" xlink:href="#mad3f9df4ee" y="214.151165"/>
      </g>
     </g>
     <g id="text_9">
      <!-- 20 -->
      <g transform="translate(37.875 217.950384)scale(0.1 -0.1)">
       <use xlink:href="#DejaVuSans-50"/>
       <use x="63.623047" xlink:href="#DejaVuSans-48"/>
      </g>
     </g>
    </g>
    <g id="ytick_4">
     <g id="line2d_17">
      <path clip-path="url(#p2f35c62a6a)" d="M 57.6 173.468082 
L 414.72 173.468082 
" style="fill:none;stroke:#b0b0b0;stroke-linecap:square;stroke-width:0.8;"/>
     </g>
     <g id="line2d_18">
      <g>
       <use style="stroke:#000000;stroke-width:0.8;" x="57.6" xlink:href="#mad3f9df4ee" y="173.468082"/>
      </g>
     </g>
     <g id="text_10">
      <!-- 30 -->
      <g transform="translate(37.875 177.267301)scale(0.1 -0.1)">
       <use xlink:href="#DejaVuSans-51"/>
       <use x="63.623047" xlink:href="#DejaVuSans-48"/>
      </g>
     </g>
    </g>
    <g id="ytick_5">
     <g id="line2d_19">
      <path clip-path="url(#p2f35c62a6a)" d="M 57.6 132.784998 
L 414.72 132.784998 
" style="fill:none;stroke:#b0b0b0;stroke-linecap:square;stroke-width:0.8;"/>
     </g>
     <g id="line2d_20">
      <g>
       <use style="stroke:#000000;stroke-width:0.8;" x="57.6" xlink:href="#mad3f9df4ee" y="132.784998"/>
      </g>
     </g>
     <g id="text_11">
      <!-- 40 -->
      <g transform="translate(37.875 136.584217)scale(0.1 -0.1)">
       <use xlink:href="#DejaVuSans-52"/>
       <use x="63.623047" xlink:href="#DejaVuSans-48"/>
      </g>
     </g>
    </g>
    <g id="ytick_6">
     <g id="line2d_21">
      <path clip-path="url(#p2f35c62a6a)" d="M 57.6 92.101915 
L 414.72 92.101915 
" style="fill:none;stroke:#b0b0b0;stroke-linecap:square;stroke-width:0.8;"/>
     </g>
     <g id="line2d_22">
      <g>
       <use style="stroke:#000000;stroke-width:0.8;" x="57.6" xlink:href="#mad3f9df4ee" y="92.101915"/>
      </g>
     </g>
     <g id="text_12">
      <!-- 50 -->
      <defs>
       <path d="M 10.796875 72.90625 
L 49.515625 72.90625 
L 49.515625 64.59375 
L 19.828125 64.59375 
L 19.828125 46.734375 
Q 21.96875 47.46875 24.109375 47.828125 
Q 26.265625 48.1875 28.421875 48.1875 
Q 40.625 48.1875 47.75 41.5 
Q 54.890625 34.8125 54.890625 23.390625 
Q 54.890625 11.625 47.5625 5.09375 
Q 40.234375 -1.421875 26.90625 -1.421875 
Q 22.3125 -1.421875 17.546875 -0.640625 
Q 12.796875 0.140625 7.71875 1.703125 
L 7.71875 11.625 
Q 12.109375 9.234375 16.796875 8.0625 
Q 21.484375 6.890625 26.703125 6.890625 
Q 35.15625 6.890625 40.078125 11.328125 
Q 45.015625 15.765625 45.015625 23.390625 
Q 45.015625 31 40.078125 35.4375 
Q 35.15625 39.890625 26.703125 39.890625 
Q 22.75 39.890625 18.8125 39.015625 
Q 14.890625 38.140625 10.796875 36.28125 
z
" id="DejaVuSans-53"/>
      </defs>
      <g transform="translate(37.875 95.901134)scale(0.1 -0.1)">
       <use xlink:href="#DejaVuSans-53"/>
       <use x="63.623047" xlink:href="#DejaVuSans-48"/>
      </g>
     </g>
    </g>
    <g id="ytick_7">
     <g id="line2d_23">
      <path clip-path="url(#p2f35c62a6a)" d="M 57.6 51.418832 
L 414.72 51.418832 
" style="fill:none;stroke:#b0b0b0;stroke-linecap:square;stroke-width:0.8;"/>
     </g>
     <g id="line2d_24">
      <g>
       <use style="stroke:#000000;stroke-width:0.8;" x="57.6" xlink:href="#mad3f9df4ee" y="51.418832"/>
      </g>
     </g>
     <g id="text_13">
      <!-- 60 -->
      <defs>
       <path d="M 33.015625 40.375 
Q 26.375 40.375 22.484375 35.828125 
Q 18.609375 31.296875 18.609375 23.390625 
Q 18.609375 15.53125 22.484375 10.953125 
Q 26.375 6.390625 33.015625 6.390625 
Q 39.65625 6.390625 43.53125 10.953125 
Q 47.40625 15.53125 47.40625 23.390625 
Q 47.40625 31.296875 43.53125 35.828125 
Q 39.65625 40.375 33.015625 40.375 
z
M 52.59375 71.296875 
L 52.59375 62.3125 
Q 48.875 64.0625 45.09375 64.984375 
Q 41.3125 65.921875 37.59375 65.921875 
Q 27.828125 65.921875 22.671875 59.328125 
Q 17.53125 52.734375 16.796875 39.40625 
Q 19.671875 43.65625 24.015625 45.921875 
Q 28.375 48.1875 33.59375 48.1875 
Q 44.578125 48.1875 50.953125 41.515625 
Q 57.328125 34.859375 57.328125 23.390625 
Q 57.328125 12.15625 50.6875 5.359375 
Q 44.046875 -1.421875 33.015625 -1.421875 
Q 20.359375 -1.421875 13.671875 8.265625 
Q 6.984375 17.96875 6.984375 36.375 
Q 6.984375 53.65625 15.1875 63.9375 
Q 23.390625 74.21875 37.203125 74.21875 
Q 40.921875 74.21875 44.703125 73.484375 
Q 48.484375 72.75 52.59375 71.296875 
z
" id="DejaVuSans-54"/>
      </defs>
      <g transform="translate(37.875 55.218051)scale(0.1 -0.1)">
       <use xlink:href="#DejaVuSans-54"/>
       <use x="63.623047" xlink:href="#DejaVuSans-48"/>
      </g>
     </g>
    </g>
    <g id="text_14">
     <!-- Feature Mathing Error -->
     <defs>
      <path d="M 9.8125 72.90625 
L 51.703125 72.90625 
L 51.703125 64.59375 
L 19.671875 64.59375 
L 19.671875 43.109375 
L 48.578125 43.109375 
L 48.578125 34.8125 
L 19.671875 34.8125 
L 19.671875 0 
L 9.8125 0 
z
" id="DejaVuSans-70"/>
      <path d="M 34.28125 27.484375 
Q 23.390625 27.484375 19.1875 25 
Q 14.984375 22.515625 14.984375 16.5 
Q 14.984375 11.71875 18.140625 8.90625 
Q 21.296875 6.109375 26.703125 6.109375 
Q 34.1875 6.109375 38.703125 11.40625 
Q 43.21875 16.703125 43.21875 25.484375 
L 43.21875 27.484375 
z
M 52.203125 31.203125 
L 52.203125 0 
L 43.21875 0 
L 43.21875 8.296875 
Q 40.140625 3.328125 35.546875 0.953125 
Q 30.953125 -1.421875 24.3125 -1.421875 
Q 15.921875 -1.421875 10.953125 3.296875 
Q 6 8.015625 6 15.921875 
Q 6 25.140625 12.171875 29.828125 
Q 18.359375 34.515625 30.609375 34.515625 
L 43.21875 34.515625 
L 43.21875 35.40625 
Q 43.21875 41.609375 39.140625 45 
Q 35.0625 48.390625 27.6875 48.390625 
Q 23 48.390625 18.546875 47.265625 
Q 14.109375 46.140625 10.015625 43.890625 
L 10.015625 52.203125 
Q 14.9375 54.109375 19.578125 55.046875 
Q 24.21875 56 28.609375 56 
Q 40.484375 56 46.34375 49.84375 
Q 52.203125 43.703125 52.203125 31.203125 
z
" id="DejaVuSans-97"/>
      <path d="M 8.5 21.578125 
L 8.5 54.6875 
L 17.484375 54.6875 
L 17.484375 21.921875 
Q 17.484375 14.15625 20.5 10.265625 
Q 23.53125 6.390625 29.59375 6.390625 
Q 36.859375 6.390625 41.078125 11.03125 
Q 45.3125 15.671875 45.3125 23.6875 
L 45.3125 54.6875 
L 54.296875 54.6875 
L 54.296875 0 
L 45.3125 0 
L 45.3125 8.40625 
Q 42.046875 3.421875 37.71875 1 
Q 33.40625 -1.421875 27.6875 -1.421875 
Q 18.265625 -1.421875 13.375 4.4375 
Q 8.5 10.296875 8.5 21.578125 
z
M 31.109375 56 
z
" id="DejaVuSans-117"/>
      <path d="M 41.109375 46.296875 
Q 39.59375 47.171875 37.8125 47.578125 
Q 36.03125 48 33.890625 48 
Q 26.265625 48 22.1875 43.046875 
Q 18.109375 38.09375 18.109375 28.8125 
L 18.109375 0 
L 9.078125 0 
L 9.078125 54.6875 
L 18.109375 54.6875 
L 18.109375 46.1875 
Q 20.953125 51.171875 25.484375 53.578125 
Q 30.03125 56 36.53125 56 
Q 37.453125 56 38.578125 55.875 
Q 39.703125 55.765625 41.0625 55.515625 
z
" id="DejaVuSans-114"/>
      <path id="DejaVuSans-32"/>
      <path d="M 9.8125 72.90625 
L 24.515625 72.90625 
L 43.109375 23.296875 
L 61.8125 72.90625 
L 76.515625 72.90625 
L 76.515625 0 
L 66.890625 0 
L 66.890625 64.015625 
L 48.09375 14.015625 
L 38.1875 14.015625 
L 19.390625 64.015625 
L 19.390625 0 
L 9.8125 0 
z
" id="DejaVuSans-77"/>
      <path d="M 54.890625 33.015625 
L 54.890625 0 
L 45.90625 0 
L 45.90625 32.71875 
Q 45.90625 40.484375 42.875 44.328125 
Q 39.84375 48.1875 33.796875 48.1875 
Q 26.515625 48.1875 22.3125 43.546875 
Q 18.109375 38.921875 18.109375 30.90625 
L 18.109375 0 
L 9.078125 0 
L 9.078125 75.984375 
L 18.109375 75.984375 
L 18.109375 46.1875 
Q 21.34375 51.125 25.703125 53.5625 
Q 30.078125 56 35.796875 56 
Q 45.21875 56 50.046875 50.171875 
Q 54.890625 44.34375 54.890625 33.015625 
z
" id="DejaVuSans-104"/>
      <path d="M 9.421875 54.6875 
L 18.40625 54.6875 
L 18.40625 0 
L 9.421875 0 
z
M 9.421875 75.984375 
L 18.40625 75.984375 
L 18.40625 64.59375 
L 9.421875 64.59375 
z
" id="DejaVuSans-105"/>
      <path d="M 54.890625 33.015625 
L 54.890625 0 
L 45.90625 0 
L 45.90625 32.71875 
Q 45.90625 40.484375 42.875 44.328125 
Q 39.84375 48.1875 33.796875 48.1875 
Q 26.515625 48.1875 22.3125 43.546875 
Q 18.109375 38.921875 18.109375 30.90625 
L 18.109375 0 
L 9.078125 0 
L 9.078125 54.6875 
L 18.109375 54.6875 
L 18.109375 46.1875 
Q 21.34375 51.125 25.703125 53.5625 
Q 30.078125 56 35.796875 56 
Q 45.21875 56 50.046875 50.171875 
Q 54.890625 44.34375 54.890625 33.015625 
z
" id="DejaVuSans-110"/>
      <path d="M 45.40625 27.984375 
Q 45.40625 37.75 41.375 43.109375 
Q 37.359375 48.484375 30.078125 48.484375 
Q 22.859375 48.484375 18.828125 43.109375 
Q 14.796875 37.75 14.796875 27.984375 
Q 14.796875 18.265625 18.828125 12.890625 
Q 22.859375 7.515625 30.078125 7.515625 
Q 37.359375 7.515625 41.375 12.890625 
Q 45.40625 18.265625 45.40625 27.984375 
z
M 54.390625 6.78125 
Q 54.390625 -7.171875 48.1875 -13.984375 
Q 42 -20.796875 29.203125 -20.796875 
Q 24.46875 -20.796875 20.265625 -20.09375 
Q 16.0625 -19.390625 12.109375 -17.921875 
L 12.109375 -9.1875 
Q 16.0625 -11.328125 19.921875 -12.34375 
Q 23.78125 -13.375 27.78125 -13.375 
Q 36.625 -13.375 41.015625 -8.765625 
Q 45.40625 -4.15625 45.40625 5.171875 
L 45.40625 9.625 
Q 42.625 4.78125 38.28125 2.390625 
Q 33.9375 0 27.875 0 
Q 17.828125 0 11.671875 7.65625 
Q 5.515625 15.328125 5.515625 27.984375 
Q 5.515625 40.671875 11.671875 48.328125 
Q 17.828125 56 27.875 56 
Q 33.9375 56 38.28125 53.609375 
Q 42.625 51.21875 45.40625 46.390625 
L 45.40625 54.6875 
L 54.390625 54.6875 
z
" id="DejaVuSans-103"/>
      <path d="M 9.8125 72.90625 
L 55.90625 72.90625 
L 55.90625 64.59375 
L 19.671875 64.59375 
L 19.671875 43.015625 
L 54.390625 43.015625 
L 54.390625 34.71875 
L 19.671875 34.71875 
L 19.671875 8.296875 
L 56.78125 8.296875 
L 56.78125 0 
L 9.8125 0 
z
" id="DejaVuSans-69"/>
      <path d="M 30.609375 48.390625 
Q 23.390625 48.390625 19.1875 42.75 
Q 14.984375 37.109375 14.984375 27.296875 
Q 14.984375 17.484375 19.15625 11.84375 
Q 23.34375 6.203125 30.609375 6.203125 
Q 37.796875 6.203125 41.984375 11.859375 
Q 46.1875 17.53125 46.1875 27.296875 
Q 46.1875 37.015625 41.984375 42.703125 
Q 37.796875 48.390625 30.609375 48.390625 
z
M 30.609375 56 
Q 42.328125 56 49.015625 48.375 
Q 55.71875 40.765625 55.71875 27.296875 
Q 55.71875 13.875 49.015625 6.21875 
Q 42.328125 -1.421875 30.609375 -1.421875 
Q 18.84375 -1.421875 12.171875 6.21875 
Q 5.515625 13.875 5.515625 27.296875 
Q 5.515625 40.765625 12.171875 48.375 
Q 18.84375 56 30.609375 56 
z
" id="DejaVuSans-111"/>
     </defs>
     <g transform="translate(31.795312 229.599875)rotate(-90)scale(0.1 -0.1)">
      <use xlink:href="#DejaVuSans-70"/>
      <use x="57.441406" xlink:href="#DejaVuSans-101"/>
      <use x="118.964844" xlink:href="#DejaVuSans-97"/>
      <use x="180.244141" xlink:href="#DejaVuSans-116"/>
      <use x="219.453125" xlink:href="#DejaVuSans-117"/>
      <use x="282.832031" xlink:href="#DejaVuSans-114"/>
      <use x="323.914062" xlink:href="#DejaVuSans-101"/>
      <use x="385.4375" xlink:href="#DejaVuSans-32"/>
      <use x="417.224609" xlink:href="#DejaVuSans-77"/>
      <use x="503.503906" xlink:href="#DejaVuSans-97"/>
      <use x="564.783203" xlink:href="#DejaVuSans-116"/>
      <use x="603.992188" xlink:href="#DejaVuSans-104"/>
      <use x="667.371094" xlink:href="#DejaVuSans-105"/>
      <use x="695.154297" xlink:href="#DejaVuSans-110"/>
      <use x="758.533203" xlink:href="#DejaVuSans-103"/>
      <use x="822.009766" xlink:href="#DejaVuSans-32"/>
      <use x="853.796875" xlink:href="#DejaVuSans-69"/>
      <use x="916.980469" xlink:href="#DejaVuSans-114"/>
      <use x="958.078125" xlink:href="#DejaVuSans-114"/>
      <use x="999.160156" xlink:href="#DejaVuSans-111"/>
      <use x="1060.341797" xlink:href="#DejaVuSans-114"/>
     </g>
    </g>
   </g>
   <g id="line2d_25">
    <path clip-path="url(#p2f35c62a6a)" d="M 77.08176 255.664272 
L 83.572172 283.175015 
L 90.062584 270.527467 
L 96.552996 264.805244 
L 103.043409 262.823408 
L 109.533821 258.605661 
L 116.024233 255.901887 
L 122.514645 252.202811 
L 129.005057 245.172134 
L 135.495469 238.644479 
L 141.985881 236.286282 
L 148.476293 229.428346 
L 154.966705 217.285766 
L 161.457117 208.789635 
L 167.947529 204.303962 
L 174.437941 197.806015 
L 180.928354 193.088844 
L 187.418766 191.195146 
L 193.909178 187.52487 
L 200.39959 180.711894 
L 206.890002 173.045073 
L 213.380414 167.590225 
L 219.870826 160.250176 
L 226.361238 154.490533 
L 232.85165 147.151955 
L 239.342062 140.0644 
L 245.832474 135.420729 
L 252.322886 128.989131 
L 258.813299 124.620985 
L 265.303711 119.843091 
L 271.794123 117.203807 
L 278.284535 117.253616 
L 284.774947 117.642305 
L 291.265359 119.639861 
L 297.755771 122.293607 
L 304.246183 125.270545 
L 310.736595 128.706702 
L 317.227007 128.627656 
L 323.717419 130.085825 
L 330.207831 128.666118 
L 336.698244 127.807133 
L 343.188656 122.58289 
L 349.679068 123.209365 
L 356.16948 119.085702 
L 362.659892 114.946914 
L 369.150304 110.003981 
L 375.640716 107.565358 
L 382.131128 105.185942 
L 388.62154 102.748636 
L 395.111952 100.920061 
L 398.487273 107.226787 
" style="fill:none;stroke:#aec7e8;stroke-linecap:square;stroke-width:1.5;"/>
   </g>
   <g id="line2d_26">
    <path clip-path="url(#p2f35c62a6a)" d="M 73.832727 295.488 
L 78.692883 277.023332 
L 83.553038 286.199805 
L 88.413193 274.439239 
L 93.273348 266.050115 
L 98.133504 262.452086 
L 102.993659 265.234802 
L 107.853814 256.59562 
L 112.713969 258.443496 
L 117.574125 254.880209 
L 122.43428 251.384591 
L 127.294435 246.537302 
L 132.154591 238.101083 
L 137.014746 237.266824 
L 141.874901 233.754457 
L 146.735056 228.165817 
L 151.595212 222.208778 
L 156.455367 212.950889 
L 161.315522 203.946127 
L 166.175677 199.881757 
L 171.035833 195.074716 
L 175.895988 193.483368 
L 180.756143 185.012303 
L 185.616299 185.620985 
L 190.476454 185.031181 
L 195.336609 180.471695 
L 200.196764 174.778066 
L 205.05692 167.296782 
L 209.917075 162.806132 
L 214.77723 159.5704 
L 219.637386 150.773651 
L 224.497541 140.587499 
L 229.357696 140.580886 
L 234.217851 131.450766 
L 239.078007 127.215976 
L 243.938162 121.076776 
L 248.798317 113.770867 
L 253.658472 110.365024 
L 258.518628 105.908187 
L 263.378783 104.623322 
L 268.238938 96.366354 
L 273.099094 93.74206 
L 277.959249 95.225337 
L 282.819404 95.28323 
L 287.679559 93.781193 
L 292.539715 92.384455 
L 297.39987 97.52008 
L 302.260025 92.758779 
L 307.12018 102.685207 
L 311.980336 103.3968 
L 316.840491 100.417743 
L 321.700646 99.208655 
L 326.560802 101.843905 
L 331.420957 98.270053 
L 336.281112 91.915564 
L 341.141267 94.76807 
L 346.001423 69.34506 
L 350.861578 98.576034 
L 355.721733 78.875161 
L 360.581888 87.792388 
L 365.442044 69.636726 
L 370.302199 72.040592 
L 375.162354 65.017535 
L 380.02251 70.719625 
L 384.882665 68.889532 
L 389.74282 61.159723 
L 394.602975 59.447094 
" style="fill:none;stroke:#1f77b4;stroke-linecap:square;stroke-width:1.5;"/>
   </g>
   <g id="line2d_27">
    <path clip-path="url(#p2f35c62a6a)" d="M 77.08176 248.330438 
L 83.572172 284.40093 
L 90.062584 280.51718 
L 96.552996 279.379341 
L 103.043409 272.343621 
L 109.533821 268.608959 
L 116.024233 262.700787 
L 122.514645 254.82676 
L 129.005057 245.321132 
L 135.495469 233.886568 
L 141.985881 217.77371 
L 148.476293 205.38016 
L 154.966705 199.647123 
L 161.457117 193.985412 
L 167.947529 188.489491 
L 174.437941 183.573833 
L 180.928354 177.997757 
L 187.418766 175.148061 
L 193.909178 176.179081 
L 200.39959 172.446342 
L 206.890002 174.037614 
L 213.380414 172.670365 
L 219.870826 170.56434 
L 226.361238 173.806703 
L 232.85165 174.727199 
L 239.342062 176.660307 
L 245.832474 179.680906 
L 252.322886 180.942433 
L 258.813299 183.497555 
L 265.303711 182.766449 
L 271.794123 184.528091 
L 278.284535 182.697752 
L 284.774947 182.877416 
L 291.265359 181.860076 
L 297.755771 178.180679 
L 304.246183 179.558067 
L 310.736595 175.029818 
L 317.227007 174.78434 
L 323.717419 171.0068 
L 330.207831 170.937786 
L 336.698244 167.886816 
L 343.188656 165.764739 
L 349.679068 162.365432 
L 356.16948 161.224222 
L 362.659892 157.134939 
L 369.150304 155.67722 
L 375.640716 154.078016 
L 382.131128 154.226847 
L 388.62154 149.622559 
L 395.111952 149.632468 
L 398.487273 157.425231 
" style="fill:none;stroke:#ffbb78;stroke-linecap:square;stroke-width:1.5;"/>
   </g>
   <g id="line2d_28">
    <path clip-path="url(#p2f35c62a6a)" d="M 73.832727 295.483744 
L 78.692883 264.433802 
L 83.553038 285.075063 
L 88.413193 281.524956 
L 93.273348 281.941117 
L 98.133504 278.914764 
L 102.993659 273.310307 
L 107.853814 267.922088 
L 112.713969 266.953731 
L 117.574125 262.142574 
L 122.43428 253.423551 
L 127.294435 248.533374 
L 132.154591 238.865754 
L 137.014746 228.036732 
L 141.874901 218.581987 
L 146.735056 202.786532 
L 151.595212 198.508696 
L 156.455367 196.005828 
L 161.315522 189.631358 
L 166.175677 181.104336 
L 171.035833 181.08429 
L 175.895988 171.040934 
L 180.756143 162.258745 
L 185.616299 166.443973 
L 190.476454 161.45974 
L 195.336609 159.727937 
L 200.196764 162.384247 
L 205.05692 168.990556 
L 209.917075 162.54347 
L 214.77723 163.336632 
L 219.637386 150.528896 
L 224.497541 169.016642 
L 229.357696 155.405315 
L 234.217851 157.649667 
L 239.078007 160.016144 
L 243.938162 160.504147 
L 248.798317 167.255351 
L 253.658472 173.543589 
L 258.518628 160.037908 
L 263.378783 170.459635 
L 268.238938 167.061908 
L 273.099094 164.758619 
L 277.959249 164.302543 
L 282.819404 160.891185 
L 287.679559 170.303562 
L 292.539715 166.234694 
L 297.39987 152.128802 
L 302.260025 172.894355 
L 307.12018 161.311249 
L 311.980336 158.329639 
L 316.840491 147.049513 
L 321.700646 148.230582 
L 326.560802 149.766962 
L 331.420957 148.658108 
L 336.281112 144.70465 
L 341.141267 141.434699 
L 346.001423 141.261078 
L 350.861578 137.101801 
L 355.721733 133.265756 
L 360.581888 128.743628 
L 365.442044 130.109203 
L 370.302199 128.620709 
L 375.162354 136.649769 
L 380.02251 135.25661 
L 384.882665 123.577964 
L 389.74282 114.404348 
L 394.602975 117.155998 
" style="fill:none;stroke:#ff7f0e;stroke-linecap:square;stroke-width:1.5;"/>
   </g>
   <g id="patch_3">
    <path d="M 57.6 307.584 
L 57.6 41.472 
" style="fill:none;stroke:#000000;stroke-linecap:square;stroke-linejoin:miter;stroke-width:0.8;"/>
   </g>
   <g id="patch_4">
    <path d="M 414.72 307.584 
L 414.72 41.472 
" style="fill:none;stroke:#000000;stroke-linecap:square;stroke-linejoin:miter;stroke-width:0.8;"/>
   </g>
   <g id="patch_5">
    <path d="M 57.6 307.584 
L 414.72 307.584 
" style="fill:none;stroke:#000000;stroke-linecap:square;stroke-linejoin:miter;stroke-width:0.8;"/>
   </g>
   <g id="patch_6">
    <path d="M 57.6 41.472 
L 414.72 41.472 
" style="fill:none;stroke:#000000;stroke-linecap:square;stroke-linejoin:miter;stroke-width:0.8;"/>
   </g>
   <g id="text_15">
    <!-- Feature Matching -->
    <defs>
     <path d="M 48.78125 52.59375 
L 48.78125 44.1875 
Q 44.96875 46.296875 41.140625 47.34375 
Q 37.3125 48.390625 33.40625 48.390625 
Q 24.65625 48.390625 19.8125 42.84375 
Q 14.984375 37.3125 14.984375 27.296875 
Q 14.984375 17.28125 19.8125 11.734375 
Q 24.65625 6.203125 33.40625 6.203125 
Q 37.3125 6.203125 41.140625 7.25 
Q 44.96875 8.296875 48.78125 10.40625 
L 48.78125 2.09375 
Q 45.015625 0.34375 40.984375 -0.53125 
Q 36.96875 -1.421875 32.421875 -1.421875 
Q 20.0625 -1.421875 12.78125 6.34375 
Q 5.515625 14.109375 5.515625 27.296875 
Q 5.515625 40.671875 12.859375 48.328125 
Q 20.21875 56 33.015625 56 
Q 37.15625 56 41.109375 55.140625 
Q 45.0625 54.296875 48.78125 52.59375 
z
" id="DejaVuSans-99"/>
    </defs>
    <g transform="translate(183.540937 35.472)scale(0.12 -0.12)">
     <use xlink:href="#DejaVuSans-70"/>
     <use x="57.441406" xlink:href="#DejaVuSans-101"/>
     <use x="118.964844" xlink:href="#DejaVuSans-97"/>
     <use x="180.244141" xlink:href="#DejaVuSans-116"/>
     <use x="219.453125" xlink:href="#DejaVuSans-117"/>
     <use x="282.832031" xlink:href="#DejaVuSans-114"/>
     <use x="323.914062" xlink:href="#DejaVuSans-101"/>
     <use x="385.4375" xlink:href="#DejaVuSans-32"/>
     <use x="417.224609" xlink:href="#DejaVuSans-77"/>
     <use x="503.503906" xlink:href="#DejaVuSans-97"/>
     <use x="564.783203" xlink:href="#DejaVuSans-116"/>
     <use x="603.992188" xlink:href="#DejaVuSans-99"/>
     <use x="658.972656" xlink:href="#DejaVuSans-104"/>
     <use x="722.351562" xlink:href="#DejaVuSans-105"/>
     <use x="750.134766" xlink:href="#DejaVuSans-110"/>
     <use x="813.513672" xlink:href="#DejaVuSans-103"/>
    </g>
   </g>
   <g id="legend_1">
    <g id="patch_7">
     <path d="M 64.6 108.1845 
L 202.504688 108.1845 
Q 204.504688 108.1845 204.504688 106.1845 
L 204.504688 48.472 
Q 204.504688 46.472 202.504688 46.472 
L 64.6 46.472 
Q 62.6 46.472 62.6 48.472 
L 62.6 106.1845 
Q 62.6 108.1845 64.6 108.1845 
z
" style="fill:#ffffff;opacity:0.8;stroke:#cccccc;stroke-linejoin:miter;"/>
    </g>
    <g id="line2d_29">
     <path d="M 66.6 54.570438 
L 86.6 54.570438 
" style="fill:none;stroke:#aec7e8;stroke-linecap:square;stroke-width:1.5;"/>
    </g>
    <g id="line2d_30"/>
    <g id="text_16">
     <!-- Target KL: 0.1 - Train -->
     <defs>
      <path d="M -0.296875 72.90625 
L 61.375 72.90625 
L 61.375 64.59375 
L 35.5 64.59375 
L 35.5 0 
L 25.59375 0 
L 25.59375 64.59375 
L -0.296875 64.59375 
z
" id="DejaVuSans-84"/>
      <path d="M 9.8125 72.90625 
L 19.671875 72.90625 
L 19.671875 42.09375 
L 52.390625 72.90625 
L 65.09375 72.90625 
L 28.90625 38.921875 
L 67.671875 0 
L 54.6875 0 
L 19.671875 35.109375 
L 19.671875 0 
L 9.8125 0 
z
" id="DejaVuSans-75"/>
      <path d="M 9.8125 72.90625 
L 19.671875 72.90625 
L 19.671875 8.296875 
L 55.171875 8.296875 
L 55.171875 0 
L 9.8125 0 
z
" id="DejaVuSans-76"/>
      <path d="M 11.71875 12.40625 
L 22.015625 12.40625 
L 22.015625 0 
L 11.71875 0 
z
M 11.71875 51.703125 
L 22.015625 51.703125 
L 22.015625 39.3125 
L 11.71875 39.3125 
z
" id="DejaVuSans-58"/>
      <path d="M 10.6875 12.40625 
L 21 12.40625 
L 21 0 
L 10.6875 0 
z
" id="DejaVuSans-46"/>
      <path d="M 4.890625 31.390625 
L 31.203125 31.390625 
L 31.203125 23.390625 
L 4.890625 23.390625 
z
" id="DejaVuSans-45"/>
     </defs>
     <g transform="translate(94.6 58.070438)scale(0.1 -0.1)">
      <use xlink:href="#DejaVuSans-84"/>
      <use x="60.833984" xlink:href="#DejaVuSans-97"/>
      <use x="122.113281" xlink:href="#DejaVuSans-114"/>
      <use x="163.210938" xlink:href="#DejaVuSans-103"/>
      <use x="226.6875" xlink:href="#DejaVuSans-101"/>
      <use x="288.210938" xlink:href="#DejaVuSans-116"/>
      <use x="327.419922" xlink:href="#DejaVuSans-32"/>
      <use x="359.207031" xlink:href="#DejaVuSans-75"/>
      <use x="424.783203" xlink:href="#DejaVuSans-76"/>
      <use x="480.496094" xlink:href="#DejaVuSans-58"/>
      <use x="514.1875" xlink:href="#DejaVuSans-32"/>
      <use x="545.974609" xlink:href="#DejaVuSans-48"/>
      <use x="609.597656" xlink:href="#DejaVuSans-46"/>
      <use x="641.384766" xlink:href="#DejaVuSans-49"/>
      <use x="705.007812" xlink:href="#DejaVuSans-32"/>
      <use x="736.794922" xlink:href="#DejaVuSans-45"/>
      <use x="772.878906" xlink:href="#DejaVuSans-32"/>
      <use x="804.666016" xlink:href="#DejaVuSans-84"/>
      <use x="865.53125" xlink:href="#DejaVuSans-114"/>
      <use x="906.644531" xlink:href="#DejaVuSans-97"/>
      <use x="967.923828" xlink:href="#DejaVuSans-105"/>
      <use x="995.707031" xlink:href="#DejaVuSans-110"/>
     </g>
    </g>
    <g id="line2d_31">
     <path d="M 66.6 69.248563 
L 86.6 69.248563 
" style="fill:none;stroke:#1f77b4;stroke-linecap:square;stroke-width:1.5;"/>
    </g>
    <g id="line2d_32"/>
    <g id="text_17">
     <!-- Target KL: 0.1 - Test -->
     <g transform="translate(94.6 72.748563)scale(0.1 -0.1)">
      <use xlink:href="#DejaVuSans-84"/>
      <use x="60.833984" xlink:href="#DejaVuSans-97"/>
      <use x="122.113281" xlink:href="#DejaVuSans-114"/>
      <use x="163.210938" xlink:href="#DejaVuSans-103"/>
      <use x="226.6875" xlink:href="#DejaVuSans-101"/>
      <use x="288.210938" xlink:href="#DejaVuSans-116"/>
      <use x="327.419922" xlink:href="#DejaVuSans-32"/>
      <use x="359.207031" xlink:href="#DejaVuSans-75"/>
      <use x="424.783203" xlink:href="#DejaVuSans-76"/>
      <use x="480.496094" xlink:href="#DejaVuSans-58"/>
      <use x="514.1875" xlink:href="#DejaVuSans-32"/>
      <use x="545.974609" xlink:href="#DejaVuSans-48"/>
      <use x="609.597656" xlink:href="#DejaVuSans-46"/>
      <use x="641.384766" xlink:href="#DejaVuSans-49"/>
      <use x="705.007812" xlink:href="#DejaVuSans-32"/>
      <use x="736.794922" xlink:href="#DejaVuSans-45"/>
      <use x="772.878906" xlink:href="#DejaVuSans-32"/>
      <use x="804.666016" xlink:href="#DejaVuSans-84"/>
      <use x="865.484375" xlink:href="#DejaVuSans-101"/>
      <use x="927.007812" xlink:href="#DejaVuSans-115"/>
      <use x="979.107422" xlink:href="#DejaVuSans-116"/>
     </g>
    </g>
    <g id="line2d_33">
     <path d="M 66.6 83.926688 
L 86.6 83.926688 
" style="fill:none;stroke:#ffbb78;stroke-linecap:square;stroke-width:1.5;"/>
    </g>
    <g id="line2d_34"/>
    <g id="text_18">
     <!-- Target KL: 0.2 - Train -->
     <g transform="translate(94.6 87.426688)scale(0.1 -0.1)">
      <use xlink:href="#DejaVuSans-84"/>
      <use x="60.833984" xlink:href="#DejaVuSans-97"/>
      <use x="122.113281" xlink:href="#DejaVuSans-114"/>
      <use x="163.210938" xlink:href="#DejaVuSans-103"/>
      <use x="226.6875" xlink:href="#DejaVuSans-101"/>
      <use x="288.210938" xlink:href="#DejaVuSans-116"/>
      <use x="327.419922" xlink:href="#DejaVuSans-32"/>
      <use x="359.207031" xlink:href="#DejaVuSans-75"/>
      <use x="424.783203" xlink:href="#DejaVuSans-76"/>
      <use x="480.496094" xlink:href="#DejaVuSans-58"/>
      <use x="514.1875" xlink:href="#DejaVuSans-32"/>
      <use x="545.974609" xlink:href="#DejaVuSans-48"/>
      <use x="609.597656" xlink:href="#DejaVuSans-46"/>
      <use x="641.384766" xlink:href="#DejaVuSans-50"/>
      <use x="705.007812" xlink:href="#DejaVuSans-32"/>
      <use x="736.794922" xlink:href="#DejaVuSans-45"/>
      <use x="772.878906" xlink:href="#DejaVuSans-32"/>
      <use x="804.666016" xlink:href="#DejaVuSans-84"/>
      <use x="865.53125" xlink:href="#DejaVuSans-114"/>
      <use x="906.644531" xlink:href="#DejaVuSans-97"/>
      <use x="967.923828" xlink:href="#DejaVuSans-105"/>
      <use x="995.707031" xlink:href="#DejaVuSans-110"/>
     </g>
    </g>
    <g id="line2d_35">
     <path d="M 66.6 98.604813 
L 86.6 98.604813 
" style="fill:none;stroke:#ff7f0e;stroke-linecap:square;stroke-width:1.5;"/>
    </g>
    <g id="line2d_36"/>
    <g id="text_19">
     <!-- Target KL: 0.2 - Test -->
     <g transform="translate(94.6 102.104813)scale(0.1 -0.1)">
      <use xlink:href="#DejaVuSans-84"/>
      <use x="60.833984" xlink:href="#DejaVuSans-97"/>
      <use x="122.113281" xlink:href="#DejaVuSans-114"/>
      <use x="163.210938" xlink:href="#DejaVuSans-103"/>
      <use x="226.6875" xlink:href="#DejaVuSans-101"/>
      <use x="288.210938" xlink:href="#DejaVuSans-116"/>
      <use x="327.419922" xlink:href="#DejaVuSans-32"/>
      <use x="359.207031" xlink:href="#DejaVuSans-75"/>
      <use x="424.783203" xlink:href="#DejaVuSans-76"/>
      <use x="480.496094" xlink:href="#DejaVuSans-58"/>
      <use x="514.1875" xlink:href="#DejaVuSans-32"/>
      <use x="545.974609" xlink:href="#DejaVuSans-48"/>
      <use x="609.597656" xlink:href="#DejaVuSans-46"/>
      <use x="641.384766" xlink:href="#DejaVuSans-50"/>
      <use x="705.007812" xlink:href="#DejaVuSans-32"/>
      <use x="736.794922" xlink:href="#DejaVuSans-45"/>
      <use x="772.878906" xlink:href="#DejaVuSans-32"/>
      <use x="804.666016" xlink:href="#DejaVuSans-84"/>
      <use x="865.484375" xlink:href="#DejaVuSans-101"/>
      <use x="927.007812" xlink:href="#DejaVuSans-115"/>
      <use x="979.107422" xlink:href="#DejaVuSans-116"/>
     </g>
    </g>
   </g>
  </g>
 </g>
 <defs>
  <clipPath id="p2f35c62a6a">
   <rect height="266.112" width="357.12" x="57.6" y="41.472"/>
  </clipPath>
 </defs>
</svg>
