<?xml version="1.0" encoding="utf-8" standalone="no"?>
<!DOCTYPE svg PUBLIC "-//W3C//DTD SVG 1.1//EN"
  "http://www.w3.org/Graphics/SVG/1.1/DTD/svg11.dtd">
<!-- Created with matplotlib (https://matplotlib.org/) -->
<svg height="345.6pt" version="1.1" viewBox="0 0 460.8 345.6" width="460.8pt" xmlns="http://www.w3.org/2000/svg" xmlns:xlink="http://www.w3.org/1999/xlink">
 <defs>
  <style type="text/css">
*{stroke-linecap:butt;stroke-linejoin:round;}
  </style>
 </defs>
 <g id="figure_1">
  <g id="patch_1">
   <path d="M 0 345.6 
L 460.8 345.6 
L 460.8 0 
L 0 0 
z
" style="fill:#ffffff;"/>
  </g>
  <g id="axes_1">
   <g id="patch_2">
    <path d="M 57.6 307.584 
L 414.72 307.584 
L 414.72 41.472 
L 57.6 41.472 
z
" style="fill:#ffffff;"/>
   </g>
   <g id="PolyCollection_1">
    <defs>
     <path d="M 77.08176 -212.982497 
L 77.08176 -50.244818 
L 83.572172 -67.645579 
L 90.062584 -100.219028 
L 96.552996 -105.463379 
L 103.043409 -116.496053 
L 109.533821 -114.350453 
L 116.024233 -114.532501 
L 122.514645 -116.924472 
L 129.005057 -106.849766 
L 135.495469 -109.084185 
L 141.985881 -107.544394 
L 148.476293 -109.111447 
L 154.966705 -105.690706 
L 161.457117 -104.484312 
L 167.947529 -105.195412 
L 174.437941 -103.672131 
L 180.928354 -95.095837 
L 187.418766 -98.392737 
L 193.909178 -93.736393 
L 200.39959 -91.38447 
L 206.890002 -88.856725 
L 213.380414 -91.672714 
L 219.870826 -89.372653 
L 226.361238 -92.14798 
L 232.85165 -95.772425 
L 239.342062 -95.36897 
L 245.832474 -97.291417 
L 252.322886 -100.252974 
L 258.813299 -92.917395 
L 265.303711 -94.673917 
L 271.794123 -96.886102 
L 278.284535 -96.580053 
L 284.774947 -89.627889 
L 291.265359 -90.795822 
L 297.755771 -88.997618 
L 304.246183 -88.38459 
L 310.736595 -91.526155 
L 317.227007 -90.111329 
L 323.717419 -94.466758 
L 330.207831 -96.466347 
L 336.698244 -97.042676 
L 343.188656 -100.820324 
L 349.679068 -97.267454 
L 356.16948 -100.553361 
L 362.659892 -95.888313 
L 369.150304 -102.077187 
L 375.640716 -102.78285 
L 382.131128 -99.532651 
L 388.62154 -90.999384 
L 395.111952 -91.674455 
L 398.487273 -105.709465 
L 398.487273 -156.22868 
L 398.487273 -156.22868 
L 395.111952 -204.67115 
L 388.62154 -202.851841 
L 382.131128 -196.437234 
L 375.640716 -195.350799 
L 369.150304 -221.963374 
L 362.659892 -204.815358 
L 356.16948 -221.522716 
L 349.679068 -186.358245 
L 343.188656 -219.46863 
L 336.698244 -238.823666 
L 330.207831 -227.272767 
L 323.717419 -211.934946 
L 317.227007 -217.353561 
L 310.736595 -223.116639 
L 304.246183 -203.516468 
L 297.755771 -229.910473 
L 291.265359 -210.3618 
L 284.774947 -233.990952 
L 278.284535 -218.359516 
L 271.794123 -220.553493 
L 265.303711 -219.651915 
L 258.813299 -210.357838 
L 252.322886 -239.411071 
L 245.832474 -227.548285 
L 239.342062 -219.688871 
L 232.85165 -223.094054 
L 226.361238 -226.484047 
L 219.870826 -226.507768 
L 213.380414 -223.988616 
L 206.890002 -211.655385 
L 200.39959 -210.215831 
L 193.909178 -208.652331 
L 187.418766 -190.019526 
L 180.928354 -209.748246 
L 174.437941 -207.285859 
L 167.947529 -202.434764 
L 161.457117 -191.475124 
L 154.966705 -190.803415 
L 148.476293 -187.517708 
L 141.985881 -177.803044 
L 135.495469 -177.73371 
L 129.005057 -174.861414 
L 122.514645 -164.032363 
L 116.024233 -148.860816 
L 109.533821 -152.24375 
L 103.043409 -148.907705 
L 96.552996 -146.717259 
L 90.062584 -200.988878 
L 83.572172 -161.007566 
L 77.08176 -212.982497 
z
" id="m4d9d380e22" style="stroke:#aec7e8;stroke-opacity:0.25;"/>
    </defs>
    <g clip-path="url(#p4b9bc0069f)">
     <use style="fill:#aec7e8;fill-opacity:0.25;stroke:#aec7e8;stroke-opacity:0.25;" x="0" xlink:href="#m4d9d380e22" y="345.6"/>
    </g>
   </g>
   <g id="PolyCollection_2">
    <defs>
     <path d="M 77.08176 -196.109616 
L 77.08176 -50.112 
L 83.572172 -131.610382 
L 90.062584 -130.273385 
L 96.552996 -131.148345 
L 103.043409 -141.160054 
L 109.533821 -145.606608 
L 116.024233 -126.684928 
L 122.514645 -139.758827 
L 129.005057 -152.699039 
L 135.495469 -146.554559 
L 141.985881 -146.466014 
L 148.476293 -144.78527 
L 154.966705 -136.829472 
L 161.457117 -136.422999 
L 167.947529 -131.988661 
L 174.437941 -126.502952 
L 180.928354 -125.206959 
L 187.418766 -124.470519 
L 193.909178 -124.272162 
L 200.39959 -132.981793 
L 206.890002 -139.799877 
L 213.380414 -140.774139 
L 219.870826 -143.047538 
L 226.361238 -131.956172 
L 232.85165 -135.2355 
L 239.342062 -133.755968 
L 245.832474 -138.948127 
L 252.322886 -137.299496 
L 258.813299 -140.734754 
L 265.303711 -143.546904 
L 271.794123 -149.281583 
L 278.284535 -149.317903 
L 284.774947 -148.846167 
L 291.265359 -147.277148 
L 297.755771 -150.93335 
L 304.246183 -149.787524 
L 310.736595 -147.438278 
L 317.227007 -149.036152 
L 323.717419 -147.783387 
L 330.207831 -147.454348 
L 336.698244 -146.425456 
L 343.188656 -148.231789 
L 349.679068 -147.433934 
L 356.16948 -150.456396 
L 362.659892 -145.427591 
L 369.150304 -148.13149 
L 375.640716 -144.755617 
L 382.131128 -145.277235 
L 388.62154 -147.343573 
L 395.111952 -140.99921 
L 398.487273 -150.68241 
L 398.487273 -179.849314 
L 398.487273 -179.849314 
L 395.111952 -189.016956 
L 388.62154 -192.252734 
L 382.131128 -187.860652 
L 375.640716 -186.103675 
L 369.150304 -210.669829 
L 362.659892 -185.18614 
L 356.16948 -185.204604 
L 349.679068 -182.984619 
L 343.188656 -185.778093 
L 336.698244 -188.698721 
L 330.207831 -185.05518 
L 323.717419 -185.050358 
L 317.227007 -187.030641 
L 310.736595 -181.164509 
L 304.246183 -182.059162 
L 297.755771 -200.702443 
L 291.265359 -182.423295 
L 284.774947 -181.931464 
L 278.284535 -186.21046 
L 271.794123 -180.118769 
L 265.303711 -189.542216 
L 258.813299 -188.10124 
L 252.322886 -195.756032 
L 245.832474 -193.057396 
L 239.342062 -197.538913 
L 232.85165 -201.775425 
L 226.361238 -237.066906 
L 219.870826 -200.791461 
L 213.380414 -205.503946 
L 206.890002 -210.40426 
L 200.39959 -212.015333 
L 193.909178 -216.484167 
L 187.418766 -220.522253 
L 180.928354 -221.295802 
L 174.437941 -212.849579 
L 167.947529 -212.325455 
L 161.457117 -207.936096 
L 154.966705 -199.349093 
L 148.476293 -193.760785 
L 141.985881 -188.825925 
L 135.495469 -189.010812 
L 129.005057 -180.536097 
L 122.514645 -179.351278 
L 116.024233 -178.271902 
L 109.533821 -186.265895 
L 103.043409 -195.441192 
L 96.552996 -194.855634 
L 90.062584 -192.814249 
L 83.572172 -200.38242 
L 77.08176 -196.109616 
z
" id="m56141e5ba4" style="stroke:#ffbb78;stroke-opacity:0.25;"/>
    </defs>
    <g clip-path="url(#p4b9bc0069f)">
     <use style="fill:#ffbb78;fill-opacity:0.25;stroke:#ffbb78;stroke-opacity:0.25;" x="0" xlink:href="#m56141e5ba4" y="345.6"/>
    </g>
   </g>
   <g id="matplotlib.axis_1">
    <g id="xtick_1">
     <g id="line2d_1">
      <path clip-path="url(#p4b9bc0069f)" d="M 73.832727 307.584 
L 73.832727 41.472 
" style="fill:none;stroke:#b0b0b0;stroke-linecap:square;stroke-width:0.8;"/>
     </g>
     <g id="line2d_2">
      <defs>
       <path d="M 0 0 
L 0 3.5 
" id="m51d0ec8d96" style="stroke:#000000;stroke-width:0.8;"/>
      </defs>
      <g>
       <use style="stroke:#000000;stroke-width:0.8;" x="73.832727" xlink:href="#m51d0ec8d96" y="307.584"/>
      </g>
     </g>
     <g id="text_1">
      <!-- 0 -->
      <defs>
       <path d="M 31.78125 66.40625 
Q 24.171875 66.40625 20.328125 58.90625 
Q 16.5 51.421875 16.5 36.375 
Q 16.5 21.390625 20.328125 13.890625 
Q 24.171875 6.390625 31.78125 6.390625 
Q 39.453125 6.390625 43.28125 13.890625 
Q 47.125 21.390625 47.125 36.375 
Q 47.125 51.421875 43.28125 58.90625 
Q 39.453125 66.40625 31.78125 66.40625 
z
M 31.78125 74.21875 
Q 44.046875 74.21875 50.515625 64.515625 
Q 56.984375 54.828125 56.984375 36.375 
Q 56.984375 17.96875 50.515625 8.265625 
Q 44.046875 -1.421875 31.78125 -1.421875 
Q 19.53125 -1.421875 13.0625 8.265625 
Q 6.59375 17.96875 6.59375 36.375 
Q 6.59375 54.828125 13.0625 64.515625 
Q 19.53125 74.21875 31.78125 74.21875 
z
" id="DejaVuSans-48"/>
      </defs>
      <g transform="translate(70.651477 322.182437)scale(0.1 -0.1)">
       <use xlink:href="#DejaVuSans-48"/>
      </g>
     </g>
    </g>
    <g id="xtick_2">
     <g id="line2d_3">
      <path clip-path="url(#p4b9bc0069f)" d="M 150.370606 307.584 
L 150.370606 41.472 
" style="fill:none;stroke:#b0b0b0;stroke-linecap:square;stroke-width:0.8;"/>
     </g>
     <g id="line2d_4">
      <g>
       <use style="stroke:#000000;stroke-width:0.8;" x="150.370606" xlink:href="#m51d0ec8d96" y="307.584"/>
      </g>
     </g>
     <g id="text_2">
      <!-- 10000 -->
      <defs>
       <path d="M 12.40625 8.296875 
L 28.515625 8.296875 
L 28.515625 63.921875 
L 10.984375 60.40625 
L 10.984375 69.390625 
L 28.421875 72.90625 
L 38.28125 72.90625 
L 38.28125 8.296875 
L 54.390625 8.296875 
L 54.390625 0 
L 12.40625 0 
z
" id="DejaVuSans-49"/>
      </defs>
      <g transform="translate(134.464356 322.182437)scale(0.1 -0.1)">
       <use xlink:href="#DejaVuSans-49"/>
       <use x="63.623047" xlink:href="#DejaVuSans-48"/>
       <use x="127.246094" xlink:href="#DejaVuSans-48"/>
       <use x="190.869141" xlink:href="#DejaVuSans-48"/>
       <use x="254.492188" xlink:href="#DejaVuSans-48"/>
      </g>
     </g>
    </g>
    <g id="xtick_3">
     <g id="line2d_5">
      <path clip-path="url(#p4b9bc0069f)" d="M 226.908484 307.584 
L 226.908484 41.472 
" style="fill:none;stroke:#b0b0b0;stroke-linecap:square;stroke-width:0.8;"/>
     </g>
     <g id="line2d_6">
      <g>
       <use style="stroke:#000000;stroke-width:0.8;" x="226.908484" xlink:href="#m51d0ec8d96" y="307.584"/>
      </g>
     </g>
     <g id="text_3">
      <!-- 20000 -->
      <defs>
       <path d="M 19.1875 8.296875 
L 53.609375 8.296875 
L 53.609375 0 
L 7.328125 0 
L 7.328125 8.296875 
Q 12.9375 14.109375 22.625 23.890625 
Q 32.328125 33.6875 34.8125 36.53125 
Q 39.546875 41.84375 41.421875 45.53125 
Q 43.3125 49.21875 43.3125 52.78125 
Q 43.3125 58.59375 39.234375 62.25 
Q 35.15625 65.921875 28.609375 65.921875 
Q 23.96875 65.921875 18.8125 64.3125 
Q 13.671875 62.703125 7.8125 59.421875 
L 7.8125 69.390625 
Q 13.765625 71.78125 18.9375 73 
Q 24.125 74.21875 28.421875 74.21875 
Q 39.75 74.21875 46.484375 68.546875 
Q 53.21875 62.890625 53.21875 53.421875 
Q 53.21875 48.921875 51.53125 44.890625 
Q 49.859375 40.875 45.40625 35.40625 
Q 44.1875 33.984375 37.640625 27.21875 
Q 31.109375 20.453125 19.1875 8.296875 
z
" id="DejaVuSans-50"/>
      </defs>
      <g transform="translate(211.002234 322.182437)scale(0.1 -0.1)">
       <use xlink:href="#DejaVuSans-50"/>
       <use x="63.623047" xlink:href="#DejaVuSans-48"/>
       <use x="127.246094" xlink:href="#DejaVuSans-48"/>
       <use x="190.869141" xlink:href="#DejaVuSans-48"/>
       <use x="254.492188" xlink:href="#DejaVuSans-48"/>
      </g>
     </g>
    </g>
    <g id="xtick_4">
     <g id="line2d_7">
      <path clip-path="url(#p4b9bc0069f)" d="M 303.446362 307.584 
L 303.446362 41.472 
" style="fill:none;stroke:#b0b0b0;stroke-linecap:square;stroke-width:0.8;"/>
     </g>
     <g id="line2d_8">
      <g>
       <use style="stroke:#000000;stroke-width:0.8;" x="303.446362" xlink:href="#m51d0ec8d96" y="307.584"/>
      </g>
     </g>
     <g id="text_4">
      <!-- 30000 -->
      <defs>
       <path d="M 40.578125 39.3125 
Q 47.65625 37.796875 51.625 33 
Q 55.609375 28.21875 55.609375 21.1875 
Q 55.609375 10.40625 48.1875 4.484375 
Q 40.765625 -1.421875 27.09375 -1.421875 
Q 22.515625 -1.421875 17.65625 -0.515625 
Q 12.796875 0.390625 7.625 2.203125 
L 7.625 11.71875 
Q 11.71875 9.328125 16.59375 8.109375 
Q 21.484375 6.890625 26.8125 6.890625 
Q 36.078125 6.890625 40.9375 10.546875 
Q 45.796875 14.203125 45.796875 21.1875 
Q 45.796875 27.640625 41.28125 31.265625 
Q 36.765625 34.90625 28.71875 34.90625 
L 20.21875 34.90625 
L 20.21875 43.015625 
L 29.109375 43.015625 
Q 36.375 43.015625 40.234375 45.921875 
Q 44.09375 48.828125 44.09375 54.296875 
Q 44.09375 59.90625 40.109375 62.90625 
Q 36.140625 65.921875 28.71875 65.921875 
Q 24.65625 65.921875 20.015625 65.03125 
Q 15.375 64.15625 9.8125 62.3125 
L 9.8125 71.09375 
Q 15.4375 72.65625 20.34375 73.4375 
Q 25.25 74.21875 29.59375 74.21875 
Q 40.828125 74.21875 47.359375 69.109375 
Q 53.90625 64.015625 53.90625 55.328125 
Q 53.90625 49.265625 50.4375 45.09375 
Q 46.96875 40.921875 40.578125 39.3125 
z
" id="DejaVuSans-51"/>
      </defs>
      <g transform="translate(287.540112 322.182437)scale(0.1 -0.1)">
       <use xlink:href="#DejaVuSans-51"/>
       <use x="63.623047" xlink:href="#DejaVuSans-48"/>
       <use x="127.246094" xlink:href="#DejaVuSans-48"/>
       <use x="190.869141" xlink:href="#DejaVuSans-48"/>
       <use x="254.492188" xlink:href="#DejaVuSans-48"/>
      </g>
     </g>
    </g>
    <g id="xtick_5">
     <g id="line2d_9">
      <path clip-path="url(#p4b9bc0069f)" d="M 379.984241 307.584 
L 379.984241 41.472 
" style="fill:none;stroke:#b0b0b0;stroke-linecap:square;stroke-width:0.8;"/>
     </g>
     <g id="line2d_10">
      <g>
       <use style="stroke:#000000;stroke-width:0.8;" x="379.984241" xlink:href="#m51d0ec8d96" y="307.584"/>
      </g>
     </g>
     <g id="text_5">
      <!-- 40000 -->
      <defs>
       <path d="M 37.796875 64.3125 
L 12.890625 25.390625 
L 37.796875 25.390625 
z
M 35.203125 72.90625 
L 47.609375 72.90625 
L 47.609375 25.390625 
L 58.015625 25.390625 
L 58.015625 17.1875 
L 47.609375 17.1875 
L 47.609375 0 
L 37.796875 0 
L 37.796875 17.1875 
L 4.890625 17.1875 
L 4.890625 26.703125 
z
" id="DejaVuSans-52"/>
      </defs>
      <g transform="translate(364.077991 322.182437)scale(0.1 -0.1)">
       <use xlink:href="#DejaVuSans-52"/>
       <use x="63.623047" xlink:href="#DejaVuSans-48"/>
       <use x="127.246094" xlink:href="#DejaVuSans-48"/>
       <use x="190.869141" xlink:href="#DejaVuSans-48"/>
       <use x="254.492188" xlink:href="#DejaVuSans-48"/>
      </g>
     </g>
    </g>
    <g id="text_6">
     <!-- Steps -->
     <defs>
      <path d="M 53.515625 70.515625 
L 53.515625 60.890625 
Q 47.90625 63.578125 42.921875 64.890625 
Q 37.9375 66.21875 33.296875 66.21875 
Q 25.25 66.21875 20.875 63.09375 
Q 16.5 59.96875 16.5 54.203125 
Q 16.5 49.359375 19.40625 46.890625 
Q 22.3125 44.4375 30.421875 42.921875 
L 36.375 41.703125 
Q 47.40625 39.59375 52.65625 34.296875 
Q 57.90625 29 57.90625 20.125 
Q 57.90625 9.515625 50.796875 4.046875 
Q 43.703125 -1.421875 29.984375 -1.421875 
Q 24.8125 -1.421875 18.96875 -0.25 
Q 13.140625 0.921875 6.890625 3.21875 
L 6.890625 13.375 
Q 12.890625 10.015625 18.65625 8.296875 
Q 24.421875 6.59375 29.984375 6.59375 
Q 38.421875 6.59375 43.015625 9.90625 
Q 47.609375 13.234375 47.609375 19.390625 
Q 47.609375 24.75 44.3125 27.78125 
Q 41.015625 30.8125 33.5 32.328125 
L 27.484375 33.5 
Q 16.453125 35.6875 11.515625 40.375 
Q 6.59375 45.0625 6.59375 53.421875 
Q 6.59375 63.09375 13.40625 68.65625 
Q 20.21875 74.21875 32.171875 74.21875 
Q 37.3125 74.21875 42.625 73.28125 
Q 47.953125 72.359375 53.515625 70.515625 
z
" id="DejaVuSans-83"/>
      <path d="M 18.3125 70.21875 
L 18.3125 54.6875 
L 36.8125 54.6875 
L 36.8125 47.703125 
L 18.3125 47.703125 
L 18.3125 18.015625 
Q 18.3125 11.328125 20.140625 9.421875 
Q 21.96875 7.515625 27.59375 7.515625 
L 36.8125 7.515625 
L 36.8125 0 
L 27.59375 0 
Q 17.1875 0 13.234375 3.875 
Q 9.28125 7.765625 9.28125 18.015625 
L 9.28125 47.703125 
L 2.6875 47.703125 
L 2.6875 54.6875 
L 9.28125 54.6875 
L 9.28125 70.21875 
z
" id="DejaVuSans-116"/>
      <path d="M 56.203125 29.59375 
L 56.203125 25.203125 
L 14.890625 25.203125 
Q 15.484375 15.921875 20.484375 11.0625 
Q 25.484375 6.203125 34.421875 6.203125 
Q 39.59375 6.203125 44.453125 7.46875 
Q 49.3125 8.734375 54.109375 11.28125 
L 54.109375 2.78125 
Q 49.265625 0.734375 44.1875 -0.34375 
Q 39.109375 -1.421875 33.890625 -1.421875 
Q 20.796875 -1.421875 13.15625 6.1875 
Q 5.515625 13.8125 5.515625 26.8125 
Q 5.515625 40.234375 12.765625 48.109375 
Q 20.015625 56 32.328125 56 
Q 43.359375 56 49.78125 48.890625 
Q 56.203125 41.796875 56.203125 29.59375 
z
M 47.21875 32.234375 
Q 47.125 39.59375 43.09375 43.984375 
Q 39.0625 48.390625 32.421875 48.390625 
Q 24.90625 48.390625 20.390625 44.140625 
Q 15.875 39.890625 15.1875 32.171875 
z
" id="DejaVuSans-101"/>
      <path d="M 18.109375 8.203125 
L 18.109375 -20.796875 
L 9.078125 -20.796875 
L 9.078125 54.6875 
L 18.109375 54.6875 
L 18.109375 46.390625 
Q 20.953125 51.265625 25.265625 53.625 
Q 29.59375 56 35.59375 56 
Q 45.5625 56 51.78125 48.09375 
Q 58.015625 40.1875 58.015625 27.296875 
Q 58.015625 14.40625 51.78125 6.484375 
Q 45.5625 -1.421875 35.59375 -1.421875 
Q 29.59375 -1.421875 25.265625 0.953125 
Q 20.953125 3.328125 18.109375 8.203125 
z
M 48.6875 27.296875 
Q 48.6875 37.203125 44.609375 42.84375 
Q 40.53125 48.484375 33.40625 48.484375 
Q 26.265625 48.484375 22.1875 42.84375 
Q 18.109375 37.203125 18.109375 27.296875 
Q 18.109375 17.390625 22.1875 11.75 
Q 26.265625 6.109375 33.40625 6.109375 
Q 40.53125 6.109375 44.609375 11.75 
Q 48.6875 17.390625 48.6875 27.296875 
z
" id="DejaVuSans-112"/>
      <path d="M 44.28125 53.078125 
L 44.28125 44.578125 
Q 40.484375 46.53125 36.375 47.5 
Q 32.28125 48.484375 27.875 48.484375 
Q 21.1875 48.484375 17.84375 46.4375 
Q 14.5 44.390625 14.5 40.28125 
Q 14.5 37.15625 16.890625 35.375 
Q 19.28125 33.59375 26.515625 31.984375 
L 29.59375 31.296875 
Q 39.15625 29.25 43.1875 25.515625 
Q 47.21875 21.78125 47.21875 15.09375 
Q 47.21875 7.46875 41.1875 3.015625 
Q 35.15625 -1.421875 24.609375 -1.421875 
Q 20.21875 -1.421875 15.453125 -0.5625 
Q 10.6875 0.296875 5.421875 2 
L 5.421875 11.28125 
Q 10.40625 8.6875 15.234375 7.390625 
Q 20.0625 6.109375 24.8125 6.109375 
Q 31.15625 6.109375 34.5625 8.28125 
Q 37.984375 10.453125 37.984375 14.40625 
Q 37.984375 18.0625 35.515625 20.015625 
Q 33.0625 21.96875 24.703125 23.78125 
L 21.578125 24.515625 
Q 13.234375 26.265625 9.515625 29.90625 
Q 5.8125 33.546875 5.8125 39.890625 
Q 5.8125 47.609375 11.28125 51.796875 
Q 16.75 56 26.8125 56 
Q 31.78125 56 36.171875 55.265625 
Q 40.578125 54.546875 44.28125 53.078125 
z
" id="DejaVuSans-115"/>
     </defs>
     <g transform="translate(222.170156 335.860562)scale(0.1 -0.1)">
      <use xlink:href="#DejaVuSans-83"/>
      <use x="63.476562" xlink:href="#DejaVuSans-116"/>
      <use x="102.685547" xlink:href="#DejaVuSans-101"/>
      <use x="164.208984" xlink:href="#DejaVuSans-112"/>
      <use x="227.685547" xlink:href="#DejaVuSans-115"/>
     </g>
    </g>
   </g>
   <g id="matplotlib.axis_2">
    <g id="ytick_1">
     <g id="line2d_11">
      <path clip-path="url(#p4b9bc0069f)" d="M 57.6 215.715401 
L 414.72 215.715401 
" style="fill:none;stroke:#b0b0b0;stroke-linecap:square;stroke-width:0.8;"/>
     </g>
     <g id="line2d_12">
      <defs>
       <path d="M 0 0 
L -3.5 0 
" id="m5275d3f033" style="stroke:#000000;stroke-width:0.8;"/>
      </defs>
      <g>
       <use style="stroke:#000000;stroke-width:0.8;" x="57.6" xlink:href="#m5275d3f033" y="215.715401"/>
      </g>
     </g>
     <g id="text_7">
      <!-- $\mathdefault{10^{-1}}$ -->
      <defs>
       <path d="M 10.59375 35.5 
L 73.1875 35.5 
L 73.1875 27.203125 
L 10.59375 27.203125 
z
" id="DejaVuSans-8722"/>
      </defs>
      <g transform="translate(27.1 219.51462)scale(0.1 -0.1)">
       <use transform="translate(0 0.684375)" xlink:href="#DejaVuSans-49"/>
       <use transform="translate(63.623047 0.684375)" xlink:href="#DejaVuSans-48"/>
       <use transform="translate(128.203125 38.965625)scale(0.7)" xlink:href="#DejaVuSans-8722"/>
       <use transform="translate(186.855469 38.965625)scale(0.7)" xlink:href="#DejaVuSans-49"/>
      </g>
     </g>
    </g>
    <g id="ytick_2">
     <g id="line2d_13">
      <path clip-path="url(#p4b9bc0069f)" d="M 57.6 106.148416 
L 414.72 106.148416 
" style="fill:none;stroke:#b0b0b0;stroke-linecap:square;stroke-width:0.8;"/>
     </g>
     <g id="line2d_14">
      <g>
       <use style="stroke:#000000;stroke-width:0.8;" x="57.6" xlink:href="#m5275d3f033" y="106.148416"/>
      </g>
     </g>
     <g id="text_8">
      <!-- $\mathdefault{10^{0}}$ -->
      <g transform="translate(33 109.947635)scale(0.1 -0.1)">
       <use transform="translate(0 0.765625)" xlink:href="#DejaVuSans-49"/>
       <use transform="translate(63.623047 0.765625)" xlink:href="#DejaVuSans-48"/>
       <use transform="translate(128.203125 39.046875)scale(0.7)" xlink:href="#DejaVuSans-48"/>
      </g>
     </g>
    </g>
    <g id="ytick_3">
     <g id="line2d_15">
      <defs>
       <path d="M 0 0 
L -2 0 
" id="m8bbfc06f29" style="stroke:#000000;stroke-width:0.6;"/>
      </defs>
      <g>
       <use style="stroke:#000000;stroke-width:0.6;" x="57.6" xlink:href="#m8bbfc06f29" y="292.299437"/>
      </g>
     </g>
    </g>
    <g id="ytick_4">
     <g id="line2d_16">
      <g>
       <use style="stroke:#000000;stroke-width:0.6;" x="57.6" xlink:href="#m8bbfc06f29" y="273.005649"/>
      </g>
     </g>
    </g>
    <g id="ytick_5">
     <g id="line2d_17">
      <g>
       <use style="stroke:#000000;stroke-width:0.6;" x="57.6" xlink:href="#m8bbfc06f29" y="259.316488"/>
      </g>
     </g>
    </g>
    <g id="ytick_6">
     <g id="line2d_18">
      <g>
       <use style="stroke:#000000;stroke-width:0.6;" x="57.6" xlink:href="#m8bbfc06f29" y="248.69835"/>
      </g>
     </g>
    </g>
    <g id="ytick_7">
     <g id="line2d_19">
      <g>
       <use style="stroke:#000000;stroke-width:0.6;" x="57.6" xlink:href="#m8bbfc06f29" y="240.0227"/>
      </g>
     </g>
    </g>
    <g id="ytick_8">
     <g id="line2d_20">
      <g>
       <use style="stroke:#000000;stroke-width:0.6;" x="57.6" xlink:href="#m8bbfc06f29" y="232.687542"/>
      </g>
     </g>
    </g>
    <g id="ytick_9">
     <g id="line2d_21">
      <g>
       <use style="stroke:#000000;stroke-width:0.6;" x="57.6" xlink:href="#m8bbfc06f29" y="226.333539"/>
      </g>
     </g>
    </g>
    <g id="ytick_10">
     <g id="line2d_22">
      <g>
       <use style="stroke:#000000;stroke-width:0.6;" x="57.6" xlink:href="#m8bbfc06f29" y="220.728911"/>
      </g>
     </g>
    </g>
    <g id="ytick_11">
     <g id="line2d_23">
      <g>
       <use style="stroke:#000000;stroke-width:0.6;" x="57.6" xlink:href="#m8bbfc06f29" y="182.732452"/>
      </g>
     </g>
    </g>
    <g id="ytick_12">
     <g id="line2d_24">
      <g>
       <use style="stroke:#000000;stroke-width:0.6;" x="57.6" xlink:href="#m8bbfc06f29" y="163.438664"/>
      </g>
     </g>
    </g>
    <g id="ytick_13">
     <g id="line2d_25">
      <g>
       <use style="stroke:#000000;stroke-width:0.6;" x="57.6" xlink:href="#m8bbfc06f29" y="149.749503"/>
      </g>
     </g>
    </g>
    <g id="ytick_14">
     <g id="line2d_26">
      <g>
       <use style="stroke:#000000;stroke-width:0.6;" x="57.6" xlink:href="#m8bbfc06f29" y="139.131365"/>
      </g>
     </g>
    </g>
    <g id="ytick_15">
     <g id="line2d_27">
      <g>
       <use style="stroke:#000000;stroke-width:0.6;" x="57.6" xlink:href="#m8bbfc06f29" y="130.455714"/>
      </g>
     </g>
    </g>
    <g id="ytick_16">
     <g id="line2d_28">
      <g>
       <use style="stroke:#000000;stroke-width:0.6;" x="57.6" xlink:href="#m8bbfc06f29" y="123.120557"/>
      </g>
     </g>
    </g>
    <g id="ytick_17">
     <g id="line2d_29">
      <g>
       <use style="stroke:#000000;stroke-width:0.6;" x="57.6" xlink:href="#m8bbfc06f29" y="116.766554"/>
      </g>
     </g>
    </g>
    <g id="ytick_18">
     <g id="line2d_30">
      <g>
       <use style="stroke:#000000;stroke-width:0.6;" x="57.6" xlink:href="#m8bbfc06f29" y="111.161926"/>
      </g>
     </g>
    </g>
    <g id="ytick_19">
     <g id="line2d_31">
      <g>
       <use style="stroke:#000000;stroke-width:0.6;" x="57.6" xlink:href="#m8bbfc06f29" y="73.165467"/>
      </g>
     </g>
    </g>
    <g id="ytick_20">
     <g id="line2d_32">
      <g>
       <use style="stroke:#000000;stroke-width:0.6;" x="57.6" xlink:href="#m8bbfc06f29" y="53.871678"/>
      </g>
     </g>
    </g>
    <g id="text_9">
     <!-- KLD -->
     <defs>
      <path d="M 9.8125 72.90625 
L 19.671875 72.90625 
L 19.671875 42.09375 
L 52.390625 72.90625 
L 65.09375 72.90625 
L 28.90625 38.921875 
L 67.671875 0 
L 54.6875 0 
L 19.671875 35.109375 
L 19.671875 0 
L 9.8125 0 
z
" id="DejaVuSans-75"/>
      <path d="M 9.8125 72.90625 
L 19.671875 72.90625 
L 19.671875 8.296875 
L 55.171875 8.296875 
L 55.171875 0 
L 9.8125 0 
z
" id="DejaVuSans-76"/>
      <path d="M 19.671875 64.796875 
L 19.671875 8.109375 
L 31.59375 8.109375 
Q 46.6875 8.109375 53.6875 14.9375 
Q 60.6875 21.78125 60.6875 36.53125 
Q 60.6875 51.171875 53.6875 57.984375 
Q 46.6875 64.796875 31.59375 64.796875 
z
M 9.8125 72.90625 
L 30.078125 72.90625 
Q 51.265625 72.90625 61.171875 64.09375 
Q 71.09375 55.28125 71.09375 36.53125 
Q 71.09375 17.671875 61.125 8.828125 
Q 51.171875 0 30.078125 0 
L 9.8125 0 
z
" id="DejaVuSans-68"/>
     </defs>
     <g transform="translate(21.020313 184.442844)rotate(-90)scale(0.1 -0.1)">
      <use xlink:href="#DejaVuSans-75"/>
      <use x="65.576172" xlink:href="#DejaVuSans-76"/>
      <use x="121.289062" xlink:href="#DejaVuSans-68"/>
     </g>
    </g>
   </g>
   <g id="line2d_33">
    <path clip-path="url(#p4b9bc0069f)" d="M 77.08176 244.914594 
L 83.572172 235.32726 
L 90.062584 215.919444 
L 96.552996 219.916755 
L 103.043409 213.730844 
L 109.533821 213.56399 
L 116.024233 213.580693 
L 122.514645 209.482508 
L 129.005057 213.017617 
L 135.495469 207.815954 
L 141.985881 212.730056 
L 148.476293 212.55558 
L 154.966705 211.77559 
L 161.457117 212.136988 
L 167.947529 212.502285 
L 174.437941 213.204918 
L 180.928354 217.752105 
L 187.418766 219.590543 
L 193.909178 218.765633 
L 200.39959 217.391581 
L 206.890002 221.900428 
L 213.380414 218.168338 
L 219.870826 217.096948 
L 226.361238 215.100637 
L 232.85165 216.47913 
L 239.342062 213.293896 
L 245.832474 213.674164 
L 252.322886 211.613775 
L 258.813299 212.956837 
L 265.303711 213.658457 
L 271.794123 210.618455 
L 278.284535 211.972117 
L 284.774947 213.533642 
L 291.265359 216.065256 
L 297.755771 216.315254 
L 304.246183 217.327537 
L 310.736595 216.114888 
L 317.227007 215.962202 
L 323.717419 216.589722 
L 330.207831 214.045463 
L 336.698244 211.314023 
L 343.188656 209.726107 
L 349.679068 212.342596 
L 356.16948 211.521351 
L 362.659892 215.512471 
L 369.150304 215.089733 
L 375.640716 216.188343 
L 382.131128 215.62977 
L 388.62154 222.37629 
L 395.111952 222.469001 
L 398.487273 221.860395 
" style="fill:none;stroke:#aec7e8;stroke-linecap:square;stroke-width:1.5;"/>
   </g>
   <g id="line2d_34">
    <path clip-path="url(#p4b9bc0069f)" d="M 73.832727 235.813101 
L 78.692883 128.724126 
L 83.553038 130.391926 
L 88.413193 130.510432 
L 93.273348 134.310846 
L 98.133504 133.511311 
L 102.993659 133.111255 
L 107.853814 130.997812 
L 112.713969 129.139558 
L 117.574125 126.687039 
L 122.43428 119.180429 
L 127.294435 109.973942 
L 132.154591 104.240322 
L 137.014746 102.047824 
L 141.874901 83.4958 
L 146.735056 91.347189 
L 151.595212 87.714157 
L 156.455367 89.027061 
L 161.315522 87.452726 
L 166.175677 77.218195 
L 171.035833 84.193133 
L 175.895988 85.022446 
L 180.756143 60.182444 
L 185.616299 80.227175 
L 190.476454 75.84562 
L 195.336609 74.843777 
L 200.196764 68.530312 
L 205.05692 73.004851 
L 209.917075 69.377335 
L 214.77723 72.77678 
L 219.637386 69.505217 
L 224.497541 53.568 
L 229.357696 70.298274 
L 234.217851 65.468912 
L 239.078007 69.141676 
L 243.938162 68.980662 
L 248.798317 69.258219 
L 253.658472 69.488768 
L 258.518628 69.102266 
L 263.378783 69.408279 
L 268.238938 70.541532 
L 273.099094 68.458804 
L 277.959249 71.440716 
L 282.819404 73.230466 
L 287.679559 71.58332 
L 292.539715 69.032965 
L 297.39987 73.840454 
L 302.260025 66.649297 
L 307.12018 73.256395 
L 311.980336 74.982772 
L 316.840491 71.917626 
L 321.700646 72.979617 
L 326.560802 74.596508 
L 331.420957 70.632551 
L 336.281112 67.20775 
L 341.141267 70.354094 
L 346.001423 71.751064 
L 350.861578 72.195155 
L 355.721733 74.352201 
L 360.581888 78.589504 
L 365.442044 79.242118 
L 370.302199 85.67858 
L 375.162354 86.470756 
L 380.02251 82.746957 
L 384.882665 72.155021 
L 389.74282 88.963236 
L 394.602975 85.002191 
" style="fill:none;stroke:#1f77b4;stroke-linecap:square;stroke-width:1.5;"/>
   </g>
   <g id="line2d_35">
    <path clip-path="url(#p4b9bc0069f)" d="M 77.08176 222.372459 
L 83.572172 181.076899 
L 90.062584 183.194359 
L 96.552996 182.960333 
L 103.043409 181.104603 
L 109.533821 182.038303 
L 116.024233 184.362996 
L 122.514645 183.882697 
L 129.005057 181.082657 
L 135.495469 182.313586 
L 141.985881 182.353385 
L 148.476293 181.089605 
L 154.966705 184.604886 
L 161.457117 182.635637 
L 167.947529 182.431962 
L 174.437941 184.257001 
L 180.928354 181.907594 
L 187.418766 182.251997 
L 193.909178 181.83705 
L 200.39959 181.942866 
L 206.890002 179.83145 
L 213.380414 181.695212 
L 219.870826 182.328209 
L 226.361238 180.147161 
L 232.85165 183.116115 
L 239.342062 181.09356 
L 245.832474 182.526646 
L 252.322886 182.38787 
L 258.813299 183.672288 
L 265.303711 183.355252 
L 271.794123 183.49264 
L 278.284535 183.348908 
L 284.774947 181.531718 
L 291.265359 182.731574 
L 297.755771 181.636145 
L 304.246183 182.058478 
L 310.736595 182.211065 
L 317.227007 181.887776 
L 323.717419 181.884175 
L 330.207831 183.734213 
L 336.698244 180.809564 
L 343.188656 182.421444 
L 349.679068 184.330086 
L 356.16948 181.805554 
L 362.659892 182.278844 
L 369.150304 181.558522 
L 375.640716 183.494895 
L 382.131128 182.974943 
L 388.62154 181.846889 
L 395.111952 183.743982 
L 398.487273 185.627437 
" style="fill:none;stroke:#ffbb78;stroke-linecap:square;stroke-width:1.5;"/>
   </g>
   <g id="line2d_36">
    <path clip-path="url(#p4b9bc0069f)" d="M 73.832727 235.815582 
L 78.692883 127.455164 
L 83.553038 121.408945 
L 88.413193 126.23007 
L 93.273348 130.558141 
L 98.133504 133.938179 
L 102.993659 125.715194 
L 107.853814 126.938231 
L 112.713969 124.739601 
L 117.574125 123.320917 
L 122.43428 122.10788 
L 127.294435 120.799032 
L 132.154591 121.39495 
L 137.014746 116.129842 
L 141.874901 116.070049 
L 146.735056 116.03914 
L 151.595212 109.049509 
L 156.455367 107.5165 
L 161.315522 108.725365 
L 166.175677 104.594508 
L 171.035833 111.197194 
L 175.895988 102.688299 
L 180.756143 94.397473 
L 185.616299 101.70586 
L 190.476454 97.52392 
L 195.336609 98.586817 
L 200.196764 103.496435 
L 205.05692 97.092028 
L 209.917075 107.086335 
L 214.77723 106.879867 
L 219.637386 105.450171 
L 224.497541 108.677897 
L 229.357696 108.488634 
L 234.217851 104.713492 
L 239.078007 109.802793 
L 243.938162 110.156044 
L 248.798317 114.493805 
L 253.658472 107.037635 
L 258.518628 110.122299 
L 263.378783 110.474209 
L 268.238938 118.473647 
L 273.099094 117.529875 
L 277.959249 117.7091 
L 282.819404 112.42202 
L 287.679559 114.277382 
L 292.539715 116.666978 
L 297.39987 114.66901 
L 302.260025 115.219376 
L 307.12018 115.923092 
L 311.980336 111.959957 
L 316.840491 114.57978 
L 321.700646 110.700104 
L 326.560802 111.285874 
L 331.420957 113.110737 
L 336.281112 109.238944 
L 341.141267 106.005215 
L 346.001423 108.779286 
L 350.861578 109.99778 
L 355.721733 107.701686 
L 360.581888 105.974134 
L 365.442044 110.230091 
L 370.302199 108.300509 
L 375.162354 106.376308 
L 380.02251 107.000428 
L 384.882665 108.372 
L 389.74282 104.244684 
L 394.602975 107.802586 
" style="fill:none;stroke:#ff7f0e;stroke-linecap:square;stroke-width:1.5;"/>
   </g>
   <g id="patch_3">
    <path d="M 57.6 307.584 
L 57.6 41.472 
" style="fill:none;stroke:#000000;stroke-linecap:square;stroke-linejoin:miter;stroke-width:0.8;"/>
   </g>
   <g id="patch_4">
    <path d="M 414.72 307.584 
L 414.72 41.472 
" style="fill:none;stroke:#000000;stroke-linecap:square;stroke-linejoin:miter;stroke-width:0.8;"/>
   </g>
   <g id="patch_5">
    <path d="M 57.6 307.584 
L 414.72 307.584 
" style="fill:none;stroke:#000000;stroke-linecap:square;stroke-linejoin:miter;stroke-width:0.8;"/>
   </g>
   <g id="patch_6">
    <path d="M 57.6 41.472 
L 414.72 41.472 
" style="fill:none;stroke:#000000;stroke-linecap:square;stroke-linejoin:miter;stroke-width:0.8;"/>
   </g>
   <g id="text_10">
    <!-- KL Divergence -->
    <defs>
     <path id="DejaVuSans-32"/>
     <path d="M 9.421875 54.6875 
L 18.40625 54.6875 
L 18.40625 0 
L 9.421875 0 
z
M 9.421875 75.984375 
L 18.40625 75.984375 
L 18.40625 64.59375 
L 9.421875 64.59375 
z
" id="DejaVuSans-105"/>
     <path d="M 2.984375 54.6875 
L 12.5 54.6875 
L 29.59375 8.796875 
L 46.6875 54.6875 
L 56.203125 54.6875 
L 35.6875 0 
L 23.484375 0 
z
" id="DejaVuSans-118"/>
     <path d="M 41.109375 46.296875 
Q 39.59375 47.171875 37.8125 47.578125 
Q 36.03125 48 33.890625 48 
Q 26.265625 48 22.1875 43.046875 
Q 18.109375 38.09375 18.109375 28.8125 
L 18.109375 0 
L 9.078125 0 
L 9.078125 54.6875 
L 18.109375 54.6875 
L 18.109375 46.1875 
Q 20.953125 51.171875 25.484375 53.578125 
Q 30.03125 56 36.53125 56 
Q 37.453125 56 38.578125 55.875 
Q 39.703125 55.765625 41.0625 55.515625 
z
" id="DejaVuSans-114"/>
     <path d="M 45.40625 27.984375 
Q 45.40625 37.75 41.375 43.109375 
Q 37.359375 48.484375 30.078125 48.484375 
Q 22.859375 48.484375 18.828125 43.109375 
Q 14.796875 37.75 14.796875 27.984375 
Q 14.796875 18.265625 18.828125 12.890625 
Q 22.859375 7.515625 30.078125 7.515625 
Q 37.359375 7.515625 41.375 12.890625 
Q 45.40625 18.265625 45.40625 27.984375 
z
M 54.390625 6.78125 
Q 54.390625 -7.171875 48.1875 -13.984375 
Q 42 -20.796875 29.203125 -20.796875 
Q 24.46875 -20.796875 20.265625 -20.09375 
Q 16.0625 -19.390625 12.109375 -17.921875 
L 12.109375 -9.1875 
Q 16.0625 -11.328125 19.921875 -12.34375 
Q 23.78125 -13.375 27.78125 -13.375 
Q 36.625 -13.375 41.015625 -8.765625 
Q 45.40625 -4.15625 45.40625 5.171875 
L 45.40625 9.625 
Q 42.625 4.78125 38.28125 2.390625 
Q 33.9375 0 27.875 0 
Q 17.828125 0 11.671875 7.65625 
Q 5.515625 15.328125 5.515625 27.984375 
Q 5.515625 40.671875 11.671875 48.328125 
Q 17.828125 56 27.875 56 
Q 33.9375 56 38.28125 53.609375 
Q 42.625 51.21875 45.40625 46.390625 
L 45.40625 54.6875 
L 54.390625 54.6875 
z
" id="DejaVuSans-103"/>
     <path d="M 54.890625 33.015625 
L 54.890625 0 
L 45.90625 0 
L 45.90625 32.71875 
Q 45.90625 40.484375 42.875 44.328125 
Q 39.84375 48.1875 33.796875 48.1875 
Q 26.515625 48.1875 22.3125 43.546875 
Q 18.109375 38.921875 18.109375 30.90625 
L 18.109375 0 
L 9.078125 0 
L 9.078125 54.6875 
L 18.109375 54.6875 
L 18.109375 46.1875 
Q 21.34375 51.125 25.703125 53.5625 
Q 30.078125 56 35.796875 56 
Q 45.21875 56 50.046875 50.171875 
Q 54.890625 44.34375 54.890625 33.015625 
z
" id="DejaVuSans-110"/>
     <path d="M 48.78125 52.59375 
L 48.78125 44.1875 
Q 44.96875 46.296875 41.140625 47.34375 
Q 37.3125 48.390625 33.40625 48.390625 
Q 24.65625 48.390625 19.8125 42.84375 
Q 14.984375 37.3125 14.984375 27.296875 
Q 14.984375 17.28125 19.8125 11.734375 
Q 24.65625 6.203125 33.40625 6.203125 
Q 37.3125 6.203125 41.140625 7.25 
Q 44.96875 8.296875 48.78125 10.40625 
L 48.78125 2.09375 
Q 45.015625 0.34375 40.984375 -0.53125 
Q 36.96875 -1.421875 32.421875 -1.421875 
Q 20.0625 -1.421875 12.78125 6.34375 
Q 5.515625 14.109375 5.515625 27.296875 
Q 5.515625 40.671875 12.859375 48.328125 
Q 20.21875 56 33.015625 56 
Q 37.15625 56 41.109375 55.140625 
Q 45.0625 54.296875 48.78125 52.59375 
z
" id="DejaVuSans-99"/>
    </defs>
    <g transform="translate(192.685313 35.472)scale(0.12 -0.12)">
     <use xlink:href="#DejaVuSans-75"/>
     <use x="65.576172" xlink:href="#DejaVuSans-76"/>
     <use x="121.289062" xlink:href="#DejaVuSans-32"/>
     <use x="153.076172" xlink:href="#DejaVuSans-68"/>
     <use x="230.078125" xlink:href="#DejaVuSans-105"/>
     <use x="257.861328" xlink:href="#DejaVuSans-118"/>
     <use x="317.041016" xlink:href="#DejaVuSans-101"/>
     <use x="378.564453" xlink:href="#DejaVuSans-114"/>
     <use x="419.662109" xlink:href="#DejaVuSans-103"/>
     <use x="483.138672" xlink:href="#DejaVuSans-101"/>
     <use x="544.662109" xlink:href="#DejaVuSans-110"/>
     <use x="608.041016" xlink:href="#DejaVuSans-99"/>
     <use x="663.021484" xlink:href="#DejaVuSans-101"/>
    </g>
   </g>
   <g id="legend_1">
    <g id="patch_7">
     <path d="M 269.815313 302.584 
L 407.72 302.584 
Q 409.72 302.584 409.72 300.584 
L 409.72 242.8715 
Q 409.72 240.8715 407.72 240.8715 
L 269.815313 240.8715 
Q 267.815313 240.8715 267.815313 242.8715 
L 267.815313 300.584 
Q 267.815313 302.584 269.815313 302.584 
z
" style="fill:#ffffff;opacity:0.8;stroke:#cccccc;stroke-linejoin:miter;"/>
    </g>
    <g id="line2d_37">
     <path d="M 271.815313 248.969937 
L 291.815313 248.969937 
" style="fill:none;stroke:#aec7e8;stroke-linecap:square;stroke-width:1.5;"/>
    </g>
    <g id="line2d_38"/>
    <g id="text_11">
     <!-- Target KL: 0.1 - Train -->
     <defs>
      <path d="M -0.296875 72.90625 
L 61.375 72.90625 
L 61.375 64.59375 
L 35.5 64.59375 
L 35.5 0 
L 25.59375 0 
L 25.59375 64.59375 
L -0.296875 64.59375 
z
" id="DejaVuSans-84"/>
      <path d="M 34.28125 27.484375 
Q 23.390625 27.484375 19.1875 25 
Q 14.984375 22.515625 14.984375 16.5 
Q 14.984375 11.71875 18.140625 8.90625 
Q 21.296875 6.109375 26.703125 6.109375 
Q 34.1875 6.109375 38.703125 11.40625 
Q 43.21875 16.703125 43.21875 25.484375 
L 43.21875 27.484375 
z
M 52.203125 31.203125 
L 52.203125 0 
L 43.21875 0 
L 43.21875 8.296875 
Q 40.140625 3.328125 35.546875 0.953125 
Q 30.953125 -1.421875 24.3125 -1.421875 
Q 15.921875 -1.421875 10.953125 3.296875 
Q 6 8.015625 6 15.921875 
Q 6 25.140625 12.171875 29.828125 
Q 18.359375 34.515625 30.609375 34.515625 
L 43.21875 34.515625 
L 43.21875 35.40625 
Q 43.21875 41.609375 39.140625 45 
Q 35.0625 48.390625 27.6875 48.390625 
Q 23 48.390625 18.546875 47.265625 
Q 14.109375 46.140625 10.015625 43.890625 
L 10.015625 52.203125 
Q 14.9375 54.109375 19.578125 55.046875 
Q 24.21875 56 28.609375 56 
Q 40.484375 56 46.34375 49.84375 
Q 52.203125 43.703125 52.203125 31.203125 
z
" id="DejaVuSans-97"/>
      <path d="M 11.71875 12.40625 
L 22.015625 12.40625 
L 22.015625 0 
L 11.71875 0 
z
M 11.71875 51.703125 
L 22.015625 51.703125 
L 22.015625 39.3125 
L 11.71875 39.3125 
z
" id="DejaVuSans-58"/>
      <path d="M 10.6875 12.40625 
L 21 12.40625 
L 21 0 
L 10.6875 0 
z
" id="DejaVuSans-46"/>
      <path d="M 4.890625 31.390625 
L 31.203125 31.390625 
L 31.203125 23.390625 
L 4.890625 23.390625 
z
" id="DejaVuSans-45"/>
     </defs>
     <g transform="translate(299.815313 252.469937)scale(0.1 -0.1)">
      <use xlink:href="#DejaVuSans-84"/>
      <use x="60.833984" xlink:href="#DejaVuSans-97"/>
      <use x="122.113281" xlink:href="#DejaVuSans-114"/>
      <use x="163.210938" xlink:href="#DejaVuSans-103"/>
      <use x="226.6875" xlink:href="#DejaVuSans-101"/>
      <use x="288.210938" xlink:href="#DejaVuSans-116"/>
      <use x="327.419922" xlink:href="#DejaVuSans-32"/>
      <use x="359.207031" xlink:href="#DejaVuSans-75"/>
      <use x="424.783203" xlink:href="#DejaVuSans-76"/>
      <use x="480.496094" xlink:href="#DejaVuSans-58"/>
      <use x="514.1875" xlink:href="#DejaVuSans-32"/>
      <use x="545.974609" xlink:href="#DejaVuSans-48"/>
      <use x="609.597656" xlink:href="#DejaVuSans-46"/>
      <use x="641.384766" xlink:href="#DejaVuSans-49"/>
      <use x="705.007812" xlink:href="#DejaVuSans-32"/>
      <use x="736.794922" xlink:href="#DejaVuSans-45"/>
      <use x="772.878906" xlink:href="#DejaVuSans-32"/>
      <use x="804.666016" xlink:href="#DejaVuSans-84"/>
      <use x="865.53125" xlink:href="#DejaVuSans-114"/>
      <use x="906.644531" xlink:href="#DejaVuSans-97"/>
      <use x="967.923828" xlink:href="#DejaVuSans-105"/>
      <use x="995.707031" xlink:href="#DejaVuSans-110"/>
     </g>
    </g>
    <g id="line2d_39">
     <path d="M 271.815313 263.648062 
L 291.815313 263.648062 
" style="fill:none;stroke:#1f77b4;stroke-linecap:square;stroke-width:1.5;"/>
    </g>
    <g id="line2d_40"/>
    <g id="text_12">
     <!-- Target KL: 0.1 - Test -->
     <g transform="translate(299.815313 267.148062)scale(0.1 -0.1)">
      <use xlink:href="#DejaVuSans-84"/>
      <use x="60.833984" xlink:href="#DejaVuSans-97"/>
      <use x="122.113281" xlink:href="#DejaVuSans-114"/>
      <use x="163.210938" xlink:href="#DejaVuSans-103"/>
      <use x="226.6875" xlink:href="#DejaVuSans-101"/>
      <use x="288.210938" xlink:href="#DejaVuSans-116"/>
      <use x="327.419922" xlink:href="#DejaVuSans-32"/>
      <use x="359.207031" xlink:href="#DejaVuSans-75"/>
      <use x="424.783203" xlink:href="#DejaVuSans-76"/>
      <use x="480.496094" xlink:href="#DejaVuSans-58"/>
      <use x="514.1875" xlink:href="#DejaVuSans-32"/>
      <use x="545.974609" xlink:href="#DejaVuSans-48"/>
      <use x="609.597656" xlink:href="#DejaVuSans-46"/>
      <use x="641.384766" xlink:href="#DejaVuSans-49"/>
      <use x="705.007812" xlink:href="#DejaVuSans-32"/>
      <use x="736.794922" xlink:href="#DejaVuSans-45"/>
      <use x="772.878906" xlink:href="#DejaVuSans-32"/>
      <use x="804.666016" xlink:href="#DejaVuSans-84"/>
      <use x="865.484375" xlink:href="#DejaVuSans-101"/>
      <use x="927.007812" xlink:href="#DejaVuSans-115"/>
      <use x="979.107422" xlink:href="#DejaVuSans-116"/>
     </g>
    </g>
    <g id="line2d_41">
     <path d="M 271.815313 278.326187 
L 291.815313 278.326187 
" style="fill:none;stroke:#ffbb78;stroke-linecap:square;stroke-width:1.5;"/>
    </g>
    <g id="line2d_42"/>
    <g id="text_13">
     <!-- Target KL: 0.2 - Train -->
     <g transform="translate(299.815313 281.826187)scale(0.1 -0.1)">
      <use xlink:href="#DejaVuSans-84"/>
      <use x="60.833984" xlink:href="#DejaVuSans-97"/>
      <use x="122.113281" xlink:href="#DejaVuSans-114"/>
      <use x="163.210938" xlink:href="#DejaVuSans-103"/>
      <use x="226.6875" xlink:href="#DejaVuSans-101"/>
      <use x="288.210938" xlink:href="#DejaVuSans-116"/>
      <use x="327.419922" xlink:href="#DejaVuSans-32"/>
      <use x="359.207031" xlink:href="#DejaVuSans-75"/>
      <use x="424.783203" xlink:href="#DejaVuSans-76"/>
      <use x="480.496094" xlink:href="#DejaVuSans-58"/>
      <use x="514.1875" xlink:href="#DejaVuSans-32"/>
      <use x="545.974609" xlink:href="#DejaVuSans-48"/>
      <use x="609.597656" xlink:href="#DejaVuSans-46"/>
      <use x="641.384766" xlink:href="#DejaVuSans-50"/>
      <use x="705.007812" xlink:href="#DejaVuSans-32"/>
      <use x="736.794922" xlink:href="#DejaVuSans-45"/>
      <use x="772.878906" xlink:href="#DejaVuSans-32"/>
      <use x="804.666016" xlink:href="#DejaVuSans-84"/>
      <use x="865.53125" xlink:href="#DejaVuSans-114"/>
      <use x="906.644531" xlink:href="#DejaVuSans-97"/>
      <use x="967.923828" xlink:href="#DejaVuSans-105"/>
      <use x="995.707031" xlink:href="#DejaVuSans-110"/>
     </g>
    </g>
    <g id="line2d_43">
     <path d="M 271.815313 293.004312 
L 291.815313 293.004312 
" style="fill:none;stroke:#ff7f0e;stroke-linecap:square;stroke-width:1.5;"/>
    </g>
    <g id="line2d_44"/>
    <g id="text_14">
     <!-- Target KL: 0.2 - Test -->
     <g transform="translate(299.815313 296.504312)scale(0.1 -0.1)">
      <use xlink:href="#DejaVuSans-84"/>
      <use x="60.833984" xlink:href="#DejaVuSans-97"/>
      <use x="122.113281" xlink:href="#DejaVuSans-114"/>
      <use x="163.210938" xlink:href="#DejaVuSans-103"/>
      <use x="226.6875" xlink:href="#DejaVuSans-101"/>
      <use x="288.210938" xlink:href="#DejaVuSans-116"/>
      <use x="327.419922" xlink:href="#DejaVuSans-32"/>
      <use x="359.207031" xlink:href="#DejaVuSans-75"/>
      <use x="424.783203" xlink:href="#DejaVuSans-76"/>
      <use x="480.496094" xlink:href="#DejaVuSans-58"/>
      <use x="514.1875" xlink:href="#DejaVuSans-32"/>
      <use x="545.974609" xlink:href="#DejaVuSans-48"/>
      <use x="609.597656" xlink:href="#DejaVuSans-46"/>
      <use x="641.384766" xlink:href="#DejaVuSans-50"/>
      <use x="705.007812" xlink:href="#DejaVuSans-32"/>
      <use x="736.794922" xlink:href="#DejaVuSans-45"/>
      <use x="772.878906" xlink:href="#DejaVuSans-32"/>
      <use x="804.666016" xlink:href="#DejaVuSans-84"/>
      <use x="865.484375" xlink:href="#DejaVuSans-101"/>
      <use x="927.007812" xlink:href="#DejaVuSans-115"/>
      <use x="979.107422" xlink:href="#DejaVuSans-116"/>
     </g>
    </g>
   </g>
  </g>
 </g>
 <defs>
  <clipPath id="p4b9bc0069f">
   <rect height="266.112" width="357.12" x="57.6" y="41.472"/>
  </clipPath>
 </defs>
</svg>
