<?xml version="1.0" encoding="utf-8" standalone="no"?>
<!DOCTYPE svg PUBLIC "-//W3C//DTD SVG 1.1//EN"
  "http://www.w3.org/Graphics/SVG/1.1/DTD/svg11.dtd">
<!-- Created with matplotlib (https://matplotlib.org/) -->
<svg height="345.6pt" version="1.1" viewBox="0 0 460.8 345.6" width="460.8pt" xmlns="http://www.w3.org/2000/svg" xmlns:xlink="http://www.w3.org/1999/xlink">
 <defs>
  <style type="text/css">
*{stroke-linecap:butt;stroke-linejoin:round;}
  </style>
 </defs>
 <g id="figure_1">
  <g id="patch_1">
   <path d="M 0 345.6 
L 460.8 345.6 
L 460.8 0 
L 0 0 
z
" style="fill:#ffffff;"/>
  </g>
  <g id="axes_1">
   <g id="patch_2">
    <path d="M 57.6 307.584 
L 414.72 307.584 
L 414.72 41.472 
L 57.6 41.472 
z
" style="fill:#ffffff;"/>
   </g>
   <g id="PolyCollection_1">
    <defs>
     <path d="M 77.08176 -292.032 
L 77.08176 -176.969325 
L 83.572172 -150.236405 
L 90.062584 -141.195501 
L 96.552996 -132.637331 
L 103.043409 -127.939015 
L 109.533821 -126.458088 
L 116.024233 -117.742335 
L 122.514645 -111.610908 
L 129.005057 -104.359881 
L 135.495469 -98.724621 
L 141.985881 -88.680118 
L 148.476293 -91.289239 
L 154.966705 -85.836566 
L 161.457117 -84.269852 
L 167.947529 -79.7842 
L 174.437941 -74.328275 
L 180.928354 -78.427613 
L 187.418766 -77.550537 
L 193.909178 -75.67162 
L 200.39959 -72.244707 
L 206.890002 -71.634338 
L 213.380414 -71.348322 
L 219.870826 -70.010195 
L 226.361238 -68.605287 
L 232.85165 -69.8652 
L 239.342062 -66.158963 
L 245.832474 -66.891015 
L 252.322886 -65.413858 
L 258.813299 -60.996677 
L 265.303711 -63.694185 
L 271.794123 -64.927229 
L 278.284535 -63.256998 
L 284.774947 -60.757501 
L 291.265359 -57.050447 
L 297.755771 -57.293078 
L 304.246183 -61.268028 
L 310.736595 -51.761999 
L 317.227007 -56.775906 
L 323.717419 -55.311974 
L 330.207831 -55.624354 
L 336.698244 -56.493501 
L 343.188656 -55.636804 
L 349.679068 -57.380115 
L 356.16948 -56.397063 
L 362.659892 -55.846848 
L 369.150304 -62.521017 
L 375.640716 -58.683822 
L 382.131128 -61.48926 
L 388.62154 -61.663861 
L 395.111952 -61.329452 
L 398.487273 -61.113145 
L 398.487273 -85.874257 
L 398.487273 -85.874257 
L 395.111952 -93.586305 
L 388.62154 -94.07679 
L 382.131128 -96.523482 
L 375.640716 -94.55461 
L 369.150304 -94.545049 
L 362.659892 -94.671233 
L 356.16948 -96.708413 
L 349.679068 -93.73908 
L 343.188656 -93.937306 
L 336.698244 -93.530963 
L 330.207831 -96.345732 
L 323.717419 -91.34318 
L 317.227007 -96.00172 
L 310.736595 -92.507019 
L 304.246183 -92.836627 
L 297.755771 -96.844723 
L 291.265359 -93.786081 
L 284.774947 -94.745878 
L 278.284535 -92.425212 
L 271.794123 -95.047304 
L 265.303711 -95.145493 
L 258.813299 -99.826167 
L 252.322886 -99.399049 
L 245.832474 -103.161915 
L 239.342062 -98.974342 
L 232.85165 -97.829338 
L 226.361238 -100.902323 
L 219.870826 -102.709029 
L 213.380414 -108.389569 
L 206.890002 -103.871974 
L 200.39959 -107.777062 
L 193.909178 -111.838306 
L 187.418766 -107.634204 
L 180.928354 -112.62382 
L 174.437941 -111.976143 
L 167.947529 -114.512938 
L 161.457117 -118.584837 
L 154.966705 -120.169033 
L 148.476293 -125.783244 
L 141.985881 -122.525104 
L 135.495469 -128.759288 
L 129.005057 -137.113482 
L 122.514645 -147.681014 
L 116.024233 -150.790624 
L 109.533821 -165.597872 
L 103.043409 -157.413912 
L 96.552996 -162.674404 
L 90.062584 -187.890537 
L 83.572172 -197.887767 
L 77.08176 -292.032 
z
" id="m2206144548" style="stroke:#aec7e8;stroke-opacity:0.25;"/>
    </defs>
    <g clip-path="url(#p72e4e75da2)">
     <use style="fill:#aec7e8;fill-opacity:0.25;stroke:#aec7e8;stroke-opacity:0.25;" x="0" xlink:href="#m2206144548" y="345.6"/>
    </g>
   </g>
   <g id="PolyCollection_2">
    <defs>
     <path d="M 77.08176 -278.118344 
L 77.08176 -154.547915 
L 83.572172 -134.804931 
L 90.062584 -127.187308 
L 96.552996 -115.77154 
L 103.043409 -116.209732 
L 109.533821 -112.784236 
L 116.024233 -108.049249 
L 122.514645 -101.69547 
L 129.005057 -90.058039 
L 135.495469 -85.87282 
L 141.985881 -84.747461 
L 148.476293 -77.863634 
L 154.966705 -72.712819 
L 161.457117 -74.047608 
L 167.947529 -72.718642 
L 174.437941 -71.545708 
L 180.928354 -67.28311 
L 187.418766 -64.587605 
L 193.909178 -64.38598 
L 200.39959 -68.851313 
L 206.890002 -63.001248 
L 213.380414 -63.702779 
L 219.870826 -65.839641 
L 226.361238 -60.231089 
L 232.85165 -57.643761 
L 239.342062 -56.561229 
L 245.832474 -58.692872 
L 252.322886 -55.32398 
L 258.813299 -54.984936 
L 265.303711 -51.012139 
L 271.794123 -60.092995 
L 278.284535 -60.138341 
L 284.774947 -60.637642 
L 291.265359 -58.613491 
L 297.755771 -62.844032 
L 304.246183 -55.114791 
L 310.736595 -57.160039 
L 317.227007 -56.288876 
L 323.717419 -53.215681 
L 330.207831 -57.600609 
L 336.698244 -55.077761 
L 343.188656 -52.770552 
L 349.679068 -56.145647 
L 356.16948 -55.92512 
L 362.659892 -52.936711 
L 369.150304 -53.961975 
L 375.640716 -55.493009 
L 382.131128 -51.818783 
L 388.62154 -50.112 
L 395.111952 -51.434817 
L 398.487273 -53.612814 
L 398.487273 -77.818019 
L 398.487273 -77.818019 
L 395.111952 -89.409401 
L 388.62154 -85.705691 
L 382.131128 -89.960404 
L 375.640716 -88.909839 
L 369.150304 -92.266764 
L 362.659892 -89.680521 
L 356.16948 -87.421823 
L 349.679068 -89.984519 
L 343.188656 -91.203203 
L 336.698244 -90.184274 
L 330.207831 -89.067983 
L 323.717419 -93.153433 
L 317.227007 -93.67074 
L 310.736595 -90.236059 
L 304.246183 -90.661968 
L 297.755771 -92.015323 
L 291.265359 -94.310738 
L 284.774947 -94.7087 
L 278.284535 -92.869532 
L 271.794123 -93.030877 
L 265.303711 -93.980151 
L 258.813299 -97.10731 
L 252.322886 -96.614745 
L 245.832474 -95.830554 
L 239.342062 -96.233564 
L 232.85165 -101.150246 
L 226.361238 -117.359301 
L 219.870826 -99.075735 
L 213.380414 -101.61451 
L 206.890002 -101.39072 
L 200.39959 -104.599136 
L 193.909178 -108.195994 
L 187.418766 -106.314355 
L 180.928354 -104.724815 
L 174.437941 -115.198734 
L 167.947529 -106.190197 
L 161.457117 -110.633072 
L 154.966705 -109.938628 
L 148.476293 -108.645552 
L 141.985881 -115.541497 
L 135.495469 -123.793103 
L 129.005057 -123.071144 
L 122.514645 -130.753513 
L 116.024233 -140.58962 
L 109.533821 -147.268496 
L 103.043409 -157.615205 
L 96.552996 -162.066642 
L 90.062584 -177.227405 
L 83.572172 -170.650352 
L 77.08176 -278.118344 
z
" id="m32b8cf39ae" style="stroke:#ffbb78;stroke-opacity:0.25;"/>
    </defs>
    <g clip-path="url(#p72e4e75da2)">
     <use style="fill:#ffbb78;fill-opacity:0.25;stroke:#ffbb78;stroke-opacity:0.25;" x="0" xlink:href="#m32b8cf39ae" y="345.6"/>
    </g>
   </g>
   <g id="matplotlib.axis_1">
    <g id="xtick_1">
     <g id="line2d_1">
      <path clip-path="url(#p72e4e75da2)" d="M 73.832727 307.584 
L 73.832727 41.472 
" style="fill:none;stroke:#b0b0b0;stroke-linecap:square;stroke-width:0.8;"/>
     </g>
     <g id="line2d_2">
      <defs>
       <path d="M 0 0 
L 0 3.5 
" id="m8c356eb401" style="stroke:#000000;stroke-width:0.8;"/>
      </defs>
      <g>
       <use style="stroke:#000000;stroke-width:0.8;" x="73.832727" xlink:href="#m8c356eb401" y="307.584"/>
      </g>
     </g>
     <g id="text_1">
      <!-- 0 -->
      <defs>
       <path d="M 31.78125 66.40625 
Q 24.171875 66.40625 20.328125 58.90625 
Q 16.5 51.421875 16.5 36.375 
Q 16.5 21.390625 20.328125 13.890625 
Q 24.171875 6.390625 31.78125 6.390625 
Q 39.453125 6.390625 43.28125 13.890625 
Q 47.125 21.390625 47.125 36.375 
Q 47.125 51.421875 43.28125 58.90625 
Q 39.453125 66.40625 31.78125 66.40625 
z
M 31.78125 74.21875 
Q 44.046875 74.21875 50.515625 64.515625 
Q 56.984375 54.828125 56.984375 36.375 
Q 56.984375 17.96875 50.515625 8.265625 
Q 44.046875 -1.421875 31.78125 -1.421875 
Q 19.53125 -1.421875 13.0625 8.265625 
Q 6.59375 17.96875 6.59375 36.375 
Q 6.59375 54.828125 13.0625 64.515625 
Q 19.53125 74.21875 31.78125 74.21875 
z
" id="DejaVuSans-48"/>
      </defs>
      <g transform="translate(70.651477 322.182437)scale(0.1 -0.1)">
       <use xlink:href="#DejaVuSans-48"/>
      </g>
     </g>
    </g>
    <g id="xtick_2">
     <g id="line2d_3">
      <path clip-path="url(#p72e4e75da2)" d="M 150.370606 307.584 
L 150.370606 41.472 
" style="fill:none;stroke:#b0b0b0;stroke-linecap:square;stroke-width:0.8;"/>
     </g>
     <g id="line2d_4">
      <g>
       <use style="stroke:#000000;stroke-width:0.8;" x="150.370606" xlink:href="#m8c356eb401" y="307.584"/>
      </g>
     </g>
     <g id="text_2">
      <!-- 10000 -->
      <defs>
       <path d="M 12.40625 8.296875 
L 28.515625 8.296875 
L 28.515625 63.921875 
L 10.984375 60.40625 
L 10.984375 69.390625 
L 28.421875 72.90625 
L 38.28125 72.90625 
L 38.28125 8.296875 
L 54.390625 8.296875 
L 54.390625 0 
L 12.40625 0 
z
" id="DejaVuSans-49"/>
      </defs>
      <g transform="translate(134.464356 322.182437)scale(0.1 -0.1)">
       <use xlink:href="#DejaVuSans-49"/>
       <use x="63.623047" xlink:href="#DejaVuSans-48"/>
       <use x="127.246094" xlink:href="#DejaVuSans-48"/>
       <use x="190.869141" xlink:href="#DejaVuSans-48"/>
       <use x="254.492188" xlink:href="#DejaVuSans-48"/>
      </g>
     </g>
    </g>
    <g id="xtick_3">
     <g id="line2d_5">
      <path clip-path="url(#p72e4e75da2)" d="M 226.908484 307.584 
L 226.908484 41.472 
" style="fill:none;stroke:#b0b0b0;stroke-linecap:square;stroke-width:0.8;"/>
     </g>
     <g id="line2d_6">
      <g>
       <use style="stroke:#000000;stroke-width:0.8;" x="226.908484" xlink:href="#m8c356eb401" y="307.584"/>
      </g>
     </g>
     <g id="text_3">
      <!-- 20000 -->
      <defs>
       <path d="M 19.1875 8.296875 
L 53.609375 8.296875 
L 53.609375 0 
L 7.328125 0 
L 7.328125 8.296875 
Q 12.9375 14.109375 22.625 23.890625 
Q 32.328125 33.6875 34.8125 36.53125 
Q 39.546875 41.84375 41.421875 45.53125 
Q 43.3125 49.21875 43.3125 52.78125 
Q 43.3125 58.59375 39.234375 62.25 
Q 35.15625 65.921875 28.609375 65.921875 
Q 23.96875 65.921875 18.8125 64.3125 
Q 13.671875 62.703125 7.8125 59.421875 
L 7.8125 69.390625 
Q 13.765625 71.78125 18.9375 73 
Q 24.125 74.21875 28.421875 74.21875 
Q 39.75 74.21875 46.484375 68.546875 
Q 53.21875 62.890625 53.21875 53.421875 
Q 53.21875 48.921875 51.53125 44.890625 
Q 49.859375 40.875 45.40625 35.40625 
Q 44.1875 33.984375 37.640625 27.21875 
Q 31.109375 20.453125 19.1875 8.296875 
z
" id="DejaVuSans-50"/>
      </defs>
      <g transform="translate(211.002234 322.182437)scale(0.1 -0.1)">
       <use xlink:href="#DejaVuSans-50"/>
       <use x="63.623047" xlink:href="#DejaVuSans-48"/>
       <use x="127.246094" xlink:href="#DejaVuSans-48"/>
       <use x="190.869141" xlink:href="#DejaVuSans-48"/>
       <use x="254.492188" xlink:href="#DejaVuSans-48"/>
      </g>
     </g>
    </g>
    <g id="xtick_4">
     <g id="line2d_7">
      <path clip-path="url(#p72e4e75da2)" d="M 303.446362 307.584 
L 303.446362 41.472 
" style="fill:none;stroke:#b0b0b0;stroke-linecap:square;stroke-width:0.8;"/>
     </g>
     <g id="line2d_8">
      <g>
       <use style="stroke:#000000;stroke-width:0.8;" x="303.446362" xlink:href="#m8c356eb401" y="307.584"/>
      </g>
     </g>
     <g id="text_4">
      <!-- 30000 -->
      <defs>
       <path d="M 40.578125 39.3125 
Q 47.65625 37.796875 51.625 33 
Q 55.609375 28.21875 55.609375 21.1875 
Q 55.609375 10.40625 48.1875 4.484375 
Q 40.765625 -1.421875 27.09375 -1.421875 
Q 22.515625 -1.421875 17.65625 -0.515625 
Q 12.796875 0.390625 7.625 2.203125 
L 7.625 11.71875 
Q 11.71875 9.328125 16.59375 8.109375 
Q 21.484375 6.890625 26.8125 6.890625 
Q 36.078125 6.890625 40.9375 10.546875 
Q 45.796875 14.203125 45.796875 21.1875 
Q 45.796875 27.640625 41.28125 31.265625 
Q 36.765625 34.90625 28.71875 34.90625 
L 20.21875 34.90625 
L 20.21875 43.015625 
L 29.109375 43.015625 
Q 36.375 43.015625 40.234375 45.921875 
Q 44.09375 48.828125 44.09375 54.296875 
Q 44.09375 59.90625 40.109375 62.90625 
Q 36.140625 65.921875 28.71875 65.921875 
Q 24.65625 65.921875 20.015625 65.03125 
Q 15.375 64.15625 9.8125 62.3125 
L 9.8125 71.09375 
Q 15.4375 72.65625 20.34375 73.4375 
Q 25.25 74.21875 29.59375 74.21875 
Q 40.828125 74.21875 47.359375 69.109375 
Q 53.90625 64.015625 53.90625 55.328125 
Q 53.90625 49.265625 50.4375 45.09375 
Q 46.96875 40.921875 40.578125 39.3125 
z
" id="DejaVuSans-51"/>
      </defs>
      <g transform="translate(287.540112 322.182437)scale(0.1 -0.1)">
       <use xlink:href="#DejaVuSans-51"/>
       <use x="63.623047" xlink:href="#DejaVuSans-48"/>
       <use x="127.246094" xlink:href="#DejaVuSans-48"/>
       <use x="190.869141" xlink:href="#DejaVuSans-48"/>
       <use x="254.492188" xlink:href="#DejaVuSans-48"/>
      </g>
     </g>
    </g>
    <g id="xtick_5">
     <g id="line2d_9">
      <path clip-path="url(#p72e4e75da2)" d="M 379.984241 307.584 
L 379.984241 41.472 
" style="fill:none;stroke:#b0b0b0;stroke-linecap:square;stroke-width:0.8;"/>
     </g>
     <g id="line2d_10">
      <g>
       <use style="stroke:#000000;stroke-width:0.8;" x="379.984241" xlink:href="#m8c356eb401" y="307.584"/>
      </g>
     </g>
     <g id="text_5">
      <!-- 40000 -->
      <defs>
       <path d="M 37.796875 64.3125 
L 12.890625 25.390625 
L 37.796875 25.390625 
z
M 35.203125 72.90625 
L 47.609375 72.90625 
L 47.609375 25.390625 
L 58.015625 25.390625 
L 58.015625 17.1875 
L 47.609375 17.1875 
L 47.609375 0 
L 37.796875 0 
L 37.796875 17.1875 
L 4.890625 17.1875 
L 4.890625 26.703125 
z
" id="DejaVuSans-52"/>
      </defs>
      <g transform="translate(364.077991 322.182437)scale(0.1 -0.1)">
       <use xlink:href="#DejaVuSans-52"/>
       <use x="63.623047" xlink:href="#DejaVuSans-48"/>
       <use x="127.246094" xlink:href="#DejaVuSans-48"/>
       <use x="190.869141" xlink:href="#DejaVuSans-48"/>
       <use x="254.492188" xlink:href="#DejaVuSans-48"/>
      </g>
     </g>
    </g>
    <g id="text_6">
     <!-- Steps -->
     <defs>
      <path d="M 53.515625 70.515625 
L 53.515625 60.890625 
Q 47.90625 63.578125 42.921875 64.890625 
Q 37.9375 66.21875 33.296875 66.21875 
Q 25.25 66.21875 20.875 63.09375 
Q 16.5 59.96875 16.5 54.203125 
Q 16.5 49.359375 19.40625 46.890625 
Q 22.3125 44.4375 30.421875 42.921875 
L 36.375 41.703125 
Q 47.40625 39.59375 52.65625 34.296875 
Q 57.90625 29 57.90625 20.125 
Q 57.90625 9.515625 50.796875 4.046875 
Q 43.703125 -1.421875 29.984375 -1.421875 
Q 24.8125 -1.421875 18.96875 -0.25 
Q 13.140625 0.921875 6.890625 3.21875 
L 6.890625 13.375 
Q 12.890625 10.015625 18.65625 8.296875 
Q 24.421875 6.59375 29.984375 6.59375 
Q 38.421875 6.59375 43.015625 9.90625 
Q 47.609375 13.234375 47.609375 19.390625 
Q 47.609375 24.75 44.3125 27.78125 
Q 41.015625 30.8125 33.5 32.328125 
L 27.484375 33.5 
Q 16.453125 35.6875 11.515625 40.375 
Q 6.59375 45.0625 6.59375 53.421875 
Q 6.59375 63.09375 13.40625 68.65625 
Q 20.21875 74.21875 32.171875 74.21875 
Q 37.3125 74.21875 42.625 73.28125 
Q 47.953125 72.359375 53.515625 70.515625 
z
" id="DejaVuSans-83"/>
      <path d="M 18.3125 70.21875 
L 18.3125 54.6875 
L 36.8125 54.6875 
L 36.8125 47.703125 
L 18.3125 47.703125 
L 18.3125 18.015625 
Q 18.3125 11.328125 20.140625 9.421875 
Q 21.96875 7.515625 27.59375 7.515625 
L 36.8125 7.515625 
L 36.8125 0 
L 27.59375 0 
Q 17.1875 0 13.234375 3.875 
Q 9.28125 7.765625 9.28125 18.015625 
L 9.28125 47.703125 
L 2.6875 47.703125 
L 2.6875 54.6875 
L 9.28125 54.6875 
L 9.28125 70.21875 
z
" id="DejaVuSans-116"/>
      <path d="M 56.203125 29.59375 
L 56.203125 25.203125 
L 14.890625 25.203125 
Q 15.484375 15.921875 20.484375 11.0625 
Q 25.484375 6.203125 34.421875 6.203125 
Q 39.59375 6.203125 44.453125 7.46875 
Q 49.3125 8.734375 54.109375 11.28125 
L 54.109375 2.78125 
Q 49.265625 0.734375 44.1875 -0.34375 
Q 39.109375 -1.421875 33.890625 -1.421875 
Q 20.796875 -1.421875 13.15625 6.1875 
Q 5.515625 13.8125 5.515625 26.8125 
Q 5.515625 40.234375 12.765625 48.109375 
Q 20.015625 56 32.328125 56 
Q 43.359375 56 49.78125 48.890625 
Q 56.203125 41.796875 56.203125 29.59375 
z
M 47.21875 32.234375 
Q 47.125 39.59375 43.09375 43.984375 
Q 39.0625 48.390625 32.421875 48.390625 
Q 24.90625 48.390625 20.390625 44.140625 
Q 15.875 39.890625 15.1875 32.171875 
z
" id="DejaVuSans-101"/>
      <path d="M 18.109375 8.203125 
L 18.109375 -20.796875 
L 9.078125 -20.796875 
L 9.078125 54.6875 
L 18.109375 54.6875 
L 18.109375 46.390625 
Q 20.953125 51.265625 25.265625 53.625 
Q 29.59375 56 35.59375 56 
Q 45.5625 56 51.78125 48.09375 
Q 58.015625 40.1875 58.015625 27.296875 
Q 58.015625 14.40625 51.78125 6.484375 
Q 45.5625 -1.421875 35.59375 -1.421875 
Q 29.59375 -1.421875 25.265625 0.953125 
Q 20.953125 3.328125 18.109375 8.203125 
z
M 48.6875 27.296875 
Q 48.6875 37.203125 44.609375 42.84375 
Q 40.53125 48.484375 33.40625 48.484375 
Q 26.265625 48.484375 22.1875 42.84375 
Q 18.109375 37.203125 18.109375 27.296875 
Q 18.109375 17.390625 22.1875 11.75 
Q 26.265625 6.109375 33.40625 6.109375 
Q 40.53125 6.109375 44.609375 11.75 
Q 48.6875 17.390625 48.6875 27.296875 
z
" id="DejaVuSans-112"/>
      <path d="M 44.28125 53.078125 
L 44.28125 44.578125 
Q 40.484375 46.53125 36.375 47.5 
Q 32.28125 48.484375 27.875 48.484375 
Q 21.1875 48.484375 17.84375 46.4375 
Q 14.5 44.390625 14.5 40.28125 
Q 14.5 37.15625 16.890625 35.375 
Q 19.28125 33.59375 26.515625 31.984375 
L 29.59375 31.296875 
Q 39.15625 29.25 43.1875 25.515625 
Q 47.21875 21.78125 47.21875 15.09375 
Q 47.21875 7.46875 41.1875 3.015625 
Q 35.15625 -1.421875 24.609375 -1.421875 
Q 20.21875 -1.421875 15.453125 -0.5625 
Q 10.6875 0.296875 5.421875 2 
L 5.421875 11.28125 
Q 10.40625 8.6875 15.234375 7.390625 
Q 20.0625 6.109375 24.8125 6.109375 
Q 31.15625 6.109375 34.5625 8.28125 
Q 37.984375 10.453125 37.984375 14.40625 
Q 37.984375 18.0625 35.515625 20.015625 
Q 33.0625 21.96875 24.703125 23.78125 
L 21.578125 24.515625 
Q 13.234375 26.265625 9.515625 29.90625 
Q 5.8125 33.546875 5.8125 39.890625 
Q 5.8125 47.609375 11.28125 51.796875 
Q 16.75 56 26.8125 56 
Q 31.78125 56 36.171875 55.265625 
Q 40.578125 54.546875 44.28125 53.078125 
z
" id="DejaVuSans-115"/>
     </defs>
     <g transform="translate(222.170156 335.860562)scale(0.1 -0.1)">
      <use xlink:href="#DejaVuSans-83"/>
      <use x="63.476562" xlink:href="#DejaVuSans-116"/>
      <use x="102.685547" xlink:href="#DejaVuSans-101"/>
      <use x="164.208984" xlink:href="#DejaVuSans-112"/>
      <use x="227.685547" xlink:href="#DejaVuSans-115"/>
     </g>
    </g>
   </g>
   <g id="matplotlib.axis_2">
    <g id="ytick_1">
     <g id="line2d_11">
      <path clip-path="url(#p72e4e75da2)" d="M 57.6 248.646726 
L 414.72 248.646726 
" style="fill:none;stroke:#b0b0b0;stroke-linecap:square;stroke-width:0.8;"/>
     </g>
     <g id="line2d_12">
      <defs>
       <path d="M 0 0 
L -3.5 0 
" id="meea121462b" style="stroke:#000000;stroke-width:0.8;"/>
      </defs>
      <g>
       <use style="stroke:#000000;stroke-width:0.8;" x="57.6" xlink:href="#meea121462b" y="248.646726"/>
      </g>
     </g>
     <g id="text_7">
      <!-- $\mathdefault{10^{-1}}$ -->
      <defs>
       <path d="M 10.59375 35.5 
L 73.1875 35.5 
L 73.1875 27.203125 
L 10.59375 27.203125 
z
" id="DejaVuSans-8722"/>
      </defs>
      <g transform="translate(27.1 252.445945)scale(0.1 -0.1)">
       <use transform="translate(0 0.684375)" xlink:href="#DejaVuSans-49"/>
       <use transform="translate(63.623047 0.684375)" xlink:href="#DejaVuSans-48"/>
       <use transform="translate(128.203125 38.965625)scale(0.7)" xlink:href="#DejaVuSans-8722"/>
       <use transform="translate(186.855469 38.965625)scale(0.7)" xlink:href="#DejaVuSans-49"/>
      </g>
     </g>
    </g>
    <g id="ytick_2">
     <g id="line2d_13">
      <path clip-path="url(#p72e4e75da2)" d="M 57.6 43.359229 
L 414.72 43.359229 
" style="fill:none;stroke:#b0b0b0;stroke-linecap:square;stroke-width:0.8;"/>
     </g>
     <g id="line2d_14">
      <g>
       <use style="stroke:#000000;stroke-width:0.8;" x="57.6" xlink:href="#meea121462b" y="43.359229"/>
      </g>
     </g>
     <g id="text_8">
      <!-- $\mathdefault{10^{0}}$ -->
      <g transform="translate(33 47.158448)scale(0.1 -0.1)">
       <use transform="translate(0 0.765625)" xlink:href="#DejaVuSans-49"/>
       <use transform="translate(63.623047 0.765625)" xlink:href="#DejaVuSans-48"/>
       <use transform="translate(128.203125 39.046875)scale(0.7)" xlink:href="#DejaVuSans-48"/>
      </g>
     </g>
    </g>
    <g id="ytick_3">
     <g id="line2d_15">
      <defs>
       <path d="M 0 0 
L -2 0 
" id="m1465d60990" style="stroke:#000000;stroke-width:0.6;"/>
      </defs>
      <g>
       <use style="stroke:#000000;stroke-width:0.6;" x="57.6" xlink:href="#m1465d60990" y="294.189501"/>
      </g>
     </g>
    </g>
    <g id="ytick_4">
     <g id="line2d_16">
      <g>
       <use style="stroke:#000000;stroke-width:0.6;" x="57.6" xlink:href="#m1465d60990" y="280.446162"/>
      </g>
     </g>
    </g>
    <g id="ytick_5">
     <g id="line2d_17">
      <g>
       <use style="stroke:#000000;stroke-width:0.6;" x="57.6" xlink:href="#m1465d60990" y="268.54114"/>
      </g>
     </g>
    </g>
    <g id="ytick_6">
     <g id="line2d_18">
      <g>
       <use style="stroke:#000000;stroke-width:0.6;" x="57.6" xlink:href="#m1465d60990" y="258.040167"/>
      </g>
     </g>
    </g>
    <g id="ytick_7">
     <g id="line2d_19">
      <g>
       <use style="stroke:#000000;stroke-width:0.6;" x="57.6" xlink:href="#m1465d60990" y="186.849032"/>
      </g>
     </g>
    </g>
    <g id="ytick_8">
     <g id="line2d_20">
      <g>
       <use style="stroke:#000000;stroke-width:0.6;" x="57.6" xlink:href="#m1465d60990" y="150.699698"/>
      </g>
     </g>
    </g>
    <g id="ytick_9">
     <g id="line2d_21">
      <g>
       <use style="stroke:#000000;stroke-width:0.6;" x="57.6" xlink:href="#m1465d60990" y="125.051337"/>
      </g>
     </g>
    </g>
    <g id="ytick_10">
     <g id="line2d_22">
      <g>
       <use style="stroke:#000000;stroke-width:0.6;" x="57.6" xlink:href="#m1465d60990" y="105.156923"/>
      </g>
     </g>
    </g>
    <g id="ytick_11">
     <g id="line2d_23">
      <g>
       <use style="stroke:#000000;stroke-width:0.6;" x="57.6" xlink:href="#m1465d60990" y="88.902003"/>
      </g>
     </g>
    </g>
    <g id="ytick_12">
     <g id="line2d_24">
      <g>
       <use style="stroke:#000000;stroke-width:0.6;" x="57.6" xlink:href="#m1465d60990" y="75.158664"/>
      </g>
     </g>
    </g>
    <g id="ytick_13">
     <g id="line2d_25">
      <g>
       <use style="stroke:#000000;stroke-width:0.6;" x="57.6" xlink:href="#m1465d60990" y="63.253643"/>
      </g>
     </g>
    </g>
    <g id="ytick_14">
     <g id="line2d_26">
      <g>
       <use style="stroke:#000000;stroke-width:0.6;" x="57.6" xlink:href="#m1465d60990" y="52.75267"/>
      </g>
     </g>
    </g>
    <g id="text_9">
     <!-- Pixel Error -->
     <defs>
      <path d="M 19.671875 64.796875 
L 19.671875 37.40625 
L 32.078125 37.40625 
Q 38.96875 37.40625 42.71875 40.96875 
Q 46.484375 44.53125 46.484375 51.125 
Q 46.484375 57.671875 42.71875 61.234375 
Q 38.96875 64.796875 32.078125 64.796875 
z
M 9.8125 72.90625 
L 32.078125 72.90625 
Q 44.34375 72.90625 50.609375 67.359375 
Q 56.890625 61.8125 56.890625 51.125 
Q 56.890625 40.328125 50.609375 34.8125 
Q 44.34375 29.296875 32.078125 29.296875 
L 19.671875 29.296875 
L 19.671875 0 
L 9.8125 0 
z
" id="DejaVuSans-80"/>
      <path d="M 9.421875 54.6875 
L 18.40625 54.6875 
L 18.40625 0 
L 9.421875 0 
z
M 9.421875 75.984375 
L 18.40625 75.984375 
L 18.40625 64.59375 
L 9.421875 64.59375 
z
" id="DejaVuSans-105"/>
      <path d="M 54.890625 54.6875 
L 35.109375 28.078125 
L 55.90625 0 
L 45.3125 0 
L 29.390625 21.484375 
L 13.484375 0 
L 2.875 0 
L 24.125 28.609375 
L 4.6875 54.6875 
L 15.28125 54.6875 
L 29.78125 35.203125 
L 44.28125 54.6875 
z
" id="DejaVuSans-120"/>
      <path d="M 9.421875 75.984375 
L 18.40625 75.984375 
L 18.40625 0 
L 9.421875 0 
z
" id="DejaVuSans-108"/>
      <path id="DejaVuSans-32"/>
      <path d="M 9.8125 72.90625 
L 55.90625 72.90625 
L 55.90625 64.59375 
L 19.671875 64.59375 
L 19.671875 43.015625 
L 54.390625 43.015625 
L 54.390625 34.71875 
L 19.671875 34.71875 
L 19.671875 8.296875 
L 56.78125 8.296875 
L 56.78125 0 
L 9.8125 0 
z
" id="DejaVuSans-69"/>
      <path d="M 41.109375 46.296875 
Q 39.59375 47.171875 37.8125 47.578125 
Q 36.03125 48 33.890625 48 
Q 26.265625 48 22.1875 43.046875 
Q 18.109375 38.09375 18.109375 28.8125 
L 18.109375 0 
L 9.078125 0 
L 9.078125 54.6875 
L 18.109375 54.6875 
L 18.109375 46.1875 
Q 20.953125 51.171875 25.484375 53.578125 
Q 30.03125 56 36.53125 56 
Q 37.453125 56 38.578125 55.875 
Q 39.703125 55.765625 41.0625 55.515625 
z
" id="DejaVuSans-114"/>
      <path d="M 30.609375 48.390625 
Q 23.390625 48.390625 19.1875 42.75 
Q 14.984375 37.109375 14.984375 27.296875 
Q 14.984375 17.484375 19.15625 11.84375 
Q 23.34375 6.203125 30.609375 6.203125 
Q 37.796875 6.203125 41.984375 11.859375 
Q 46.1875 17.53125 46.1875 27.296875 
Q 46.1875 37.015625 41.984375 42.703125 
Q 37.796875 48.390625 30.609375 48.390625 
z
M 30.609375 56 
Q 42.328125 56 49.015625 48.375 
Q 55.71875 40.765625 55.71875 27.296875 
Q 55.71875 13.875 49.015625 6.21875 
Q 42.328125 -1.421875 30.609375 -1.421875 
Q 18.84375 -1.421875 12.171875 6.21875 
Q 5.515625 13.875 5.515625 27.296875 
Q 5.515625 40.765625 12.171875 48.375 
Q 18.84375 56 30.609375 56 
z
" id="DejaVuSans-111"/>
     </defs>
     <g transform="translate(21.020312 200.324875)rotate(-90)scale(0.1 -0.1)">
      <use xlink:href="#DejaVuSans-80"/>
      <use x="60.271484" xlink:href="#DejaVuSans-105"/>
      <use x="88.054688" xlink:href="#DejaVuSans-120"/>
      <use x="147.1875" xlink:href="#DejaVuSans-101"/>
      <use x="208.710938" xlink:href="#DejaVuSans-108"/>
      <use x="236.494141" xlink:href="#DejaVuSans-32"/>
      <use x="268.28125" xlink:href="#DejaVuSans-69"/>
      <use x="331.464844" xlink:href="#DejaVuSans-114"/>
      <use x="372.5625" xlink:href="#DejaVuSans-114"/>
      <use x="413.644531" xlink:href="#DejaVuSans-111"/>
      <use x="474.826172" xlink:href="#DejaVuSans-114"/>
     </g>
    </g>
   </g>
   <g id="line2d_27">
    <path clip-path="url(#p72e4e75da2)" d="M 77.08176 124.118474 
L 83.572172 171.673485 
L 90.062584 187.384248 
L 96.552996 199.088389 
L 103.043409 202.761354 
L 109.533821 204.029296 
L 116.024233 212.395649 
L 122.514645 217.808988 
L 129.005057 226.008963 
L 135.495469 231.669476 
L 141.985881 235.425505 
L 148.476293 239.677465 
L 154.966705 242.575307 
L 161.457117 244.656739 
L 167.947529 247.785267 
L 174.437941 249.808214 
L 180.928354 251.052731 
L 187.418766 253.242466 
L 193.909178 255.058449 
L 200.39959 256.277527 
L 206.890002 257.492369 
L 213.380414 258.799255 
L 219.870826 259.512209 
L 226.361238 260.451255 
L 232.85165 261.508338 
L 239.342062 262.35417 
L 245.832474 263.533612 
L 252.322886 264.214337 
L 258.813299 265.22647 
L 265.303711 265.710665 
L 271.794123 266.681806 
L 278.284535 268.301267 
L 284.774947 268.790987 
L 291.265359 269.186573 
L 297.755771 270.342948 
L 304.246183 271.213858 
L 310.736595 272.317493 
L 317.227007 273.330156 
L 323.717419 274.097776 
L 330.207831 272.896704 
L 336.698244 273.293681 
L 343.188656 271.713605 
L 349.679068 272.072288 
L 356.16948 270.264914 
L 362.659892 269.534934 
L 369.150304 267.456826 
L 375.640716 268.139864 
L 382.131128 268.48772 
L 388.62154 268.118871 
L 395.111952 267.770595 
L 398.487273 270.609419 
" style="fill:none;stroke:#aec7e8;stroke-linecap:square;stroke-width:1.5;"/>
   </g>
   <g id="line2d_28">
    <path clip-path="url(#p72e4e75da2)" d="M 73.832727 89.69843 
L 78.692883 136.228125 
L 83.553038 173.722866 
L 88.413193 187.221928 
L 93.273348 195.106139 
L 98.133504 196.415787 
L 102.993659 205.32003 
L 107.853814 203.616021 
L 112.713969 208.442439 
L 117.574125 212.618918 
L 122.43428 213.749898 
L 127.294435 221.912759 
L 132.154591 223.844035 
L 137.014746 229.773762 
L 141.874901 227.631654 
L 146.735056 231.654698 
L 151.595212 237.338348 
L 156.455367 240.105155 
L 161.315522 238.353006 
L 166.175677 238.805484 
L 171.035833 240.357731 
L 175.895988 246.816053 
L 180.756143 240.324243 
L 185.616299 243.785091 
L 190.476454 246.819498 
L 195.336609 246.700276 
L 200.196764 246.209788 
L 205.05692 248.96877 
L 209.917075 250.960576 
L 214.77723 252.930305 
L 219.637386 250.012222 
L 224.497541 247.566063 
L 229.357696 251.309838 
L 234.217851 249.926534 
L 239.078007 253.186751 
L 243.938162 252.388824 
L 248.798317 252.181367 
L 253.658472 253.498363 
L 258.518628 254.201483 
L 263.378783 256.185711 
L 268.238938 252.806444 
L 273.099094 254.658365 
L 277.959249 256.758342 
L 282.819404 258.564384 
L 287.679559 256.07255 
L 292.539715 255.741155 
L 297.39987 257.356814 
L 302.260025 255.818086 
L 307.12018 260.018944 
L 311.980336 260.038284 
L 316.840491 259.339318 
L 321.700646 259.405846 
L 326.560802 259.035451 
L 331.420957 255.781279 
L 336.281112 254.790335 
L 341.141267 256.992798 
L 346.001423 247.88803 
L 350.861578 259.000249 
L 355.721733 249.338206 
L 360.581888 256.975287 
L 365.442044 250.169421 
L 370.302199 251.797345 
L 375.162354 250.421659 
L 380.02251 252.989974 
L 384.882665 254.033434 
L 389.74282 252.175111 
L 394.602975 251.671425 
" style="fill:none;stroke:#1f77b4;stroke-linecap:square;stroke-width:1.5;"/>
   </g>
   <g id="line2d_29">
    <path clip-path="url(#p72e4e75da2)" d="M 77.08176 132.774501 
L 83.572172 193.051042 
L 90.062584 199.144717 
L 96.552996 208.304469 
L 103.043409 211.454671 
L 109.533821 214.676424 
L 116.024233 220.809637 
L 122.514645 228.719994 
L 129.005057 235.71846 
L 135.495469 240.44134 
L 141.985881 244.74226 
L 148.476293 249.691726 
L 154.966705 251.804451 
L 161.457117 253.032095 
L 167.947529 255.38413 
L 174.437941 256.485336 
L 180.928354 257.013274 
L 187.418766 258.268684 
L 193.909178 259.149222 
L 200.39959 258.74686 
L 206.890002 260.670398 
L 213.380414 260.91724 
L 219.870826 261.114802 
L 226.361238 263.916634 
L 232.85165 265.170437 
L 239.342062 265.260973 
L 245.832474 266.778336 
L 252.322886 267.136027 
L 258.813299 268.854189 
L 265.303711 267.475378 
L 271.794123 267.736345 
L 278.284535 267.823769 
L 284.774947 267.689016 
L 291.265359 268.169126 
L 297.755771 268.389479 
L 304.246183 270.776297 
L 310.736595 269.951951 
L 317.227007 271.37962 
L 323.717419 270.613296 
L 330.207831 272.684326 
L 336.698244 272.043071 
L 343.188656 272.444789 
L 349.679068 271.482933 
L 356.16948 273.574591 
L 362.659892 272.87961 
L 369.150304 273.798665 
L 375.640716 273.528998 
L 382.131128 275.66281 
L 388.62154 274.342619 
L 395.111952 275.247302 
L 398.487273 280.059053 
" style="fill:none;stroke:#ffbb78;stroke-linecap:square;stroke-width:1.5;"/>
   </g>
   <g id="line2d_30">
    <path clip-path="url(#p72e4e75da2)" d="M 73.832727 101.8137 
L 78.692883 152.300672 
L 83.553038 185.136895 
L 88.413193 196.176201 
L 93.273348 205.810126 
L 98.133504 215.297945 
L 102.993659 216.75884 
L 107.853814 211.967623 
L 112.713969 219.025385 
L 117.574125 223.009632 
L 122.43428 223.547455 
L 127.294435 236.211755 
L 132.154591 231.72156 
L 137.014746 237.187747 
L 141.874901 244.0626 
L 146.735056 241.415543 
L 151.595212 245.808485 
L 156.455367 249.305434 
L 161.315522 248.280513 
L 166.175677 246.84176 
L 171.035833 253.318687 
L 175.895988 248.473439 
L 180.756143 243.81786 
L 185.616299 251.904547 
L 190.476454 246.727484 
L 195.336609 248.869535 
L 200.196764 251.986885 
L 205.05692 258.769688 
L 209.917075 251.531589 
L 214.77723 256.825895 
L 219.637386 249.159487 
L 224.497541 260.210416 
L 229.357696 253.006168 
L 234.217851 253.225804 
L 239.078007 253.940487 
L 243.938162 252.961675 
L 248.798317 257.023222 
L 253.658472 262.707991 
L 258.518628 250.557884 
L 263.378783 257.716195 
L 268.238938 254.520455 
L 273.099094 251.470737 
L 277.959249 253.191712 
L 282.819404 249.763705 
L 287.679559 257.970446 
L 292.539715 254.466114 
L 297.39987 248.627763 
L 302.260025 264.562473 
L 307.12018 258.386441 
L 311.980336 258.038466 
L 316.840491 251.632041 
L 321.700646 254.875553 
L 326.560802 257.161128 
L 331.420957 258.142351 
L 336.281112 256.021096 
L 341.141267 256.416964 
L 346.001423 257.13745 
L 350.861578 252.917854 
L 355.721733 255.902111 
L 360.581888 254.499765 
L 365.442044 257.081573 
L 370.302199 256.700469 
L 375.162354 263.097012 
L 380.02251 262.480006 
L 384.882665 258.551013 
L 389.74282 255.002469 
L 394.602975 256.649249 
" style="fill:none;stroke:#ff7f0e;stroke-linecap:square;stroke-width:1.5;"/>
   </g>
   <g id="patch_3">
    <path d="M 57.6 307.584 
L 57.6 41.472 
" style="fill:none;stroke:#000000;stroke-linecap:square;stroke-linejoin:miter;stroke-width:0.8;"/>
   </g>
   <g id="patch_4">
    <path d="M 414.72 307.584 
L 414.72 41.472 
" style="fill:none;stroke:#000000;stroke-linecap:square;stroke-linejoin:miter;stroke-width:0.8;"/>
   </g>
   <g id="patch_5">
    <path d="M 57.6 307.584 
L 414.72 307.584 
" style="fill:none;stroke:#000000;stroke-linecap:square;stroke-linejoin:miter;stroke-width:0.8;"/>
   </g>
   <g id="patch_6">
    <path d="M 57.6 41.472 
L 414.72 41.472 
" style="fill:none;stroke:#000000;stroke-linecap:square;stroke-linejoin:miter;stroke-width:0.8;"/>
   </g>
   <g id="text_10">
    <!-- Pixel Error -->
    <g transform="translate(205.20375 35.472)scale(0.12 -0.12)">
     <use xlink:href="#DejaVuSans-80"/>
     <use x="60.271484" xlink:href="#DejaVuSans-105"/>
     <use x="88.054688" xlink:href="#DejaVuSans-120"/>
     <use x="147.1875" xlink:href="#DejaVuSans-101"/>
     <use x="208.710938" xlink:href="#DejaVuSans-108"/>
     <use x="236.494141" xlink:href="#DejaVuSans-32"/>
     <use x="268.28125" xlink:href="#DejaVuSans-69"/>
     <use x="331.464844" xlink:href="#DejaVuSans-114"/>
     <use x="372.5625" xlink:href="#DejaVuSans-114"/>
     <use x="413.644531" xlink:href="#DejaVuSans-111"/>
     <use x="474.826172" xlink:href="#DejaVuSans-114"/>
    </g>
   </g>
   <g id="legend_1">
    <g id="patch_7">
     <path d="M 269.815313 108.1845 
L 407.72 108.1845 
Q 409.72 108.1845 409.72 106.1845 
L 409.72 48.472 
Q 409.72 46.472 407.72 46.472 
L 269.815313 46.472 
Q 267.815313 46.472 267.815313 48.472 
L 267.815313 106.1845 
Q 267.815313 108.1845 269.815313 108.1845 
z
" style="fill:#ffffff;opacity:0.8;stroke:#cccccc;stroke-linejoin:miter;"/>
    </g>
    <g id="line2d_31">
     <path d="M 271.815313 54.570438 
L 291.815313 54.570438 
" style="fill:none;stroke:#aec7e8;stroke-linecap:square;stroke-width:1.5;"/>
    </g>
    <g id="line2d_32"/>
    <g id="text_11">
     <!-- Target KL: 0.1 - Train -->
     <defs>
      <path d="M -0.296875 72.90625 
L 61.375 72.90625 
L 61.375 64.59375 
L 35.5 64.59375 
L 35.5 0 
L 25.59375 0 
L 25.59375 64.59375 
L -0.296875 64.59375 
z
" id="DejaVuSans-84"/>
      <path d="M 34.28125 27.484375 
Q 23.390625 27.484375 19.1875 25 
Q 14.984375 22.515625 14.984375 16.5 
Q 14.984375 11.71875 18.140625 8.90625 
Q 21.296875 6.109375 26.703125 6.109375 
Q 34.1875 6.109375 38.703125 11.40625 
Q 43.21875 16.703125 43.21875 25.484375 
L 43.21875 27.484375 
z
M 52.203125 31.203125 
L 52.203125 0 
L 43.21875 0 
L 43.21875 8.296875 
Q 40.140625 3.328125 35.546875 0.953125 
Q 30.953125 -1.421875 24.3125 -1.421875 
Q 15.921875 -1.421875 10.953125 3.296875 
Q 6 8.015625 6 15.921875 
Q 6 25.140625 12.171875 29.828125 
Q 18.359375 34.515625 30.609375 34.515625 
L 43.21875 34.515625 
L 43.21875 35.40625 
Q 43.21875 41.609375 39.140625 45 
Q 35.0625 48.390625 27.6875 48.390625 
Q 23 48.390625 18.546875 47.265625 
Q 14.109375 46.140625 10.015625 43.890625 
L 10.015625 52.203125 
Q 14.9375 54.109375 19.578125 55.046875 
Q 24.21875 56 28.609375 56 
Q 40.484375 56 46.34375 49.84375 
Q 52.203125 43.703125 52.203125 31.203125 
z
" id="DejaVuSans-97"/>
      <path d="M 45.40625 27.984375 
Q 45.40625 37.75 41.375 43.109375 
Q 37.359375 48.484375 30.078125 48.484375 
Q 22.859375 48.484375 18.828125 43.109375 
Q 14.796875 37.75 14.796875 27.984375 
Q 14.796875 18.265625 18.828125 12.890625 
Q 22.859375 7.515625 30.078125 7.515625 
Q 37.359375 7.515625 41.375 12.890625 
Q 45.40625 18.265625 45.40625 27.984375 
z
M 54.390625 6.78125 
Q 54.390625 -7.171875 48.1875 -13.984375 
Q 42 -20.796875 29.203125 -20.796875 
Q 24.46875 -20.796875 20.265625 -20.09375 
Q 16.0625 -19.390625 12.109375 -17.921875 
L 12.109375 -9.1875 
Q 16.0625 -11.328125 19.921875 -12.34375 
Q 23.78125 -13.375 27.78125 -13.375 
Q 36.625 -13.375 41.015625 -8.765625 
Q 45.40625 -4.15625 45.40625 5.171875 
L 45.40625 9.625 
Q 42.625 4.78125 38.28125 2.390625 
Q 33.9375 0 27.875 0 
Q 17.828125 0 11.671875 7.65625 
Q 5.515625 15.328125 5.515625 27.984375 
Q 5.515625 40.671875 11.671875 48.328125 
Q 17.828125 56 27.875 56 
Q 33.9375 56 38.28125 53.609375 
Q 42.625 51.21875 45.40625 46.390625 
L 45.40625 54.6875 
L 54.390625 54.6875 
z
" id="DejaVuSans-103"/>
      <path d="M 9.8125 72.90625 
L 19.671875 72.90625 
L 19.671875 42.09375 
L 52.390625 72.90625 
L 65.09375 72.90625 
L 28.90625 38.921875 
L 67.671875 0 
L 54.6875 0 
L 19.671875 35.109375 
L 19.671875 0 
L 9.8125 0 
z
" id="DejaVuSans-75"/>
      <path d="M 9.8125 72.90625 
L 19.671875 72.90625 
L 19.671875 8.296875 
L 55.171875 8.296875 
L 55.171875 0 
L 9.8125 0 
z
" id="DejaVuSans-76"/>
      <path d="M 11.71875 12.40625 
L 22.015625 12.40625 
L 22.015625 0 
L 11.71875 0 
z
M 11.71875 51.703125 
L 22.015625 51.703125 
L 22.015625 39.3125 
L 11.71875 39.3125 
z
" id="DejaVuSans-58"/>
      <path d="M 10.6875 12.40625 
L 21 12.40625 
L 21 0 
L 10.6875 0 
z
" id="DejaVuSans-46"/>
      <path d="M 4.890625 31.390625 
L 31.203125 31.390625 
L 31.203125 23.390625 
L 4.890625 23.390625 
z
" id="DejaVuSans-45"/>
      <path d="M 54.890625 33.015625 
L 54.890625 0 
L 45.90625 0 
L 45.90625 32.71875 
Q 45.90625 40.484375 42.875 44.328125 
Q 39.84375 48.1875 33.796875 48.1875 
Q 26.515625 48.1875 22.3125 43.546875 
Q 18.109375 38.921875 18.109375 30.90625 
L 18.109375 0 
L 9.078125 0 
L 9.078125 54.6875 
L 18.109375 54.6875 
L 18.109375 46.1875 
Q 21.34375 51.125 25.703125 53.5625 
Q 30.078125 56 35.796875 56 
Q 45.21875 56 50.046875 50.171875 
Q 54.890625 44.34375 54.890625 33.015625 
z
" id="DejaVuSans-110"/>
     </defs>
     <g transform="translate(299.815313 58.070438)scale(0.1 -0.1)">
      <use xlink:href="#DejaVuSans-84"/>
      <use x="60.833984" xlink:href="#DejaVuSans-97"/>
      <use x="122.113281" xlink:href="#DejaVuSans-114"/>
      <use x="163.210938" xlink:href="#DejaVuSans-103"/>
      <use x="226.6875" xlink:href="#DejaVuSans-101"/>
      <use x="288.210938" xlink:href="#DejaVuSans-116"/>
      <use x="327.419922" xlink:href="#DejaVuSans-32"/>
      <use x="359.207031" xlink:href="#DejaVuSans-75"/>
      <use x="424.783203" xlink:href="#DejaVuSans-76"/>
      <use x="480.496094" xlink:href="#DejaVuSans-58"/>
      <use x="514.1875" xlink:href="#DejaVuSans-32"/>
      <use x="545.974609" xlink:href="#DejaVuSans-48"/>
      <use x="609.597656" xlink:href="#DejaVuSans-46"/>
      <use x="641.384766" xlink:href="#DejaVuSans-49"/>
      <use x="705.007812" xlink:href="#DejaVuSans-32"/>
      <use x="736.794922" xlink:href="#DejaVuSans-45"/>
      <use x="772.878906" xlink:href="#DejaVuSans-32"/>
      <use x="804.666016" xlink:href="#DejaVuSans-84"/>
      <use x="865.53125" xlink:href="#DejaVuSans-114"/>
      <use x="906.644531" xlink:href="#DejaVuSans-97"/>
      <use x="967.923828" xlink:href="#DejaVuSans-105"/>
      <use x="995.707031" xlink:href="#DejaVuSans-110"/>
     </g>
    </g>
    <g id="line2d_33">
     <path d="M 271.815313 69.248563 
L 291.815313 69.248563 
" style="fill:none;stroke:#1f77b4;stroke-linecap:square;stroke-width:1.5;"/>
    </g>
    <g id="line2d_34"/>
    <g id="text_12">
     <!-- Target KL: 0.1 - Test -->
     <g transform="translate(299.815313 72.748563)scale(0.1 -0.1)">
      <use xlink:href="#DejaVuSans-84"/>
      <use x="60.833984" xlink:href="#DejaVuSans-97"/>
      <use x="122.113281" xlink:href="#DejaVuSans-114"/>
      <use x="163.210938" xlink:href="#DejaVuSans-103"/>
      <use x="226.6875" xlink:href="#DejaVuSans-101"/>
      <use x="288.210938" xlink:href="#DejaVuSans-116"/>
      <use x="327.419922" xlink:href="#DejaVuSans-32"/>
      <use x="359.207031" xlink:href="#DejaVuSans-75"/>
      <use x="424.783203" xlink:href="#DejaVuSans-76"/>
      <use x="480.496094" xlink:href="#DejaVuSans-58"/>
      <use x="514.1875" xlink:href="#DejaVuSans-32"/>
      <use x="545.974609" xlink:href="#DejaVuSans-48"/>
      <use x="609.597656" xlink:href="#DejaVuSans-46"/>
      <use x="641.384766" xlink:href="#DejaVuSans-49"/>
      <use x="705.007812" xlink:href="#DejaVuSans-32"/>
      <use x="736.794922" xlink:href="#DejaVuSans-45"/>
      <use x="772.878906" xlink:href="#DejaVuSans-32"/>
      <use x="804.666016" xlink:href="#DejaVuSans-84"/>
      <use x="865.484375" xlink:href="#DejaVuSans-101"/>
      <use x="927.007812" xlink:href="#DejaVuSans-115"/>
      <use x="979.107422" xlink:href="#DejaVuSans-116"/>
     </g>
    </g>
    <g id="line2d_35">
     <path d="M 271.815313 83.926688 
L 291.815313 83.926688 
" style="fill:none;stroke:#ffbb78;stroke-linecap:square;stroke-width:1.5;"/>
    </g>
    <g id="line2d_36"/>
    <g id="text_13">
     <!-- Target KL: 0.2 - Train -->
     <g transform="translate(299.815313 87.426688)scale(0.1 -0.1)">
      <use xlink:href="#DejaVuSans-84"/>
      <use x="60.833984" xlink:href="#DejaVuSans-97"/>
      <use x="122.113281" xlink:href="#DejaVuSans-114"/>
      <use x="163.210938" xlink:href="#DejaVuSans-103"/>
      <use x="226.6875" xlink:href="#DejaVuSans-101"/>
      <use x="288.210938" xlink:href="#DejaVuSans-116"/>
      <use x="327.419922" xlink:href="#DejaVuSans-32"/>
      <use x="359.207031" xlink:href="#DejaVuSans-75"/>
      <use x="424.783203" xlink:href="#DejaVuSans-76"/>
      <use x="480.496094" xlink:href="#DejaVuSans-58"/>
      <use x="514.1875" xlink:href="#DejaVuSans-32"/>
      <use x="545.974609" xlink:href="#DejaVuSans-48"/>
      <use x="609.597656" xlink:href="#DejaVuSans-46"/>
      <use x="641.384766" xlink:href="#DejaVuSans-50"/>
      <use x="705.007812" xlink:href="#DejaVuSans-32"/>
      <use x="736.794922" xlink:href="#DejaVuSans-45"/>
      <use x="772.878906" xlink:href="#DejaVuSans-32"/>
      <use x="804.666016" xlink:href="#DejaVuSans-84"/>
      <use x="865.53125" xlink:href="#DejaVuSans-114"/>
      <use x="906.644531" xlink:href="#DejaVuSans-97"/>
      <use x="967.923828" xlink:href="#DejaVuSans-105"/>
      <use x="995.707031" xlink:href="#DejaVuSans-110"/>
     </g>
    </g>
    <g id="line2d_37">
     <path d="M 271.815313 98.604813 
L 291.815313 98.604813 
" style="fill:none;stroke:#ff7f0e;stroke-linecap:square;stroke-width:1.5;"/>
    </g>
    <g id="line2d_38"/>
    <g id="text_14">
     <!-- Target KL: 0.2 - Test -->
     <g transform="translate(299.815313 102.104813)scale(0.1 -0.1)">
      <use xlink:href="#DejaVuSans-84"/>
      <use x="60.833984" xlink:href="#DejaVuSans-97"/>
      <use x="122.113281" xlink:href="#DejaVuSans-114"/>
      <use x="163.210938" xlink:href="#DejaVuSans-103"/>
      <use x="226.6875" xlink:href="#DejaVuSans-101"/>
      <use x="288.210938" xlink:href="#DejaVuSans-116"/>
      <use x="327.419922" xlink:href="#DejaVuSans-32"/>
      <use x="359.207031" xlink:href="#DejaVuSans-75"/>
      <use x="424.783203" xlink:href="#DejaVuSans-76"/>
      <use x="480.496094" xlink:href="#DejaVuSans-58"/>
      <use x="514.1875" xlink:href="#DejaVuSans-32"/>
      <use x="545.974609" xlink:href="#DejaVuSans-48"/>
      <use x="609.597656" xlink:href="#DejaVuSans-46"/>
      <use x="641.384766" xlink:href="#DejaVuSans-50"/>
      <use x="705.007812" xlink:href="#DejaVuSans-32"/>
      <use x="736.794922" xlink:href="#DejaVuSans-45"/>
      <use x="772.878906" xlink:href="#DejaVuSans-32"/>
      <use x="804.666016" xlink:href="#DejaVuSans-84"/>
      <use x="865.484375" xlink:href="#DejaVuSans-101"/>
      <use x="927.007812" xlink:href="#DejaVuSans-115"/>
      <use x="979.107422" xlink:href="#DejaVuSans-116"/>
     </g>
    </g>
   </g>
  </g>
 </g>
 <defs>
  <clipPath id="p72e4e75da2">
   <rect height="266.112" width="357.12" x="57.6" y="41.472"/>
  </clipPath>
 </defs>
</svg>
