<?xml version="1.0" encoding="utf-8" standalone="no"?>
<!DOCTYPE svg PUBLIC "-//W3C//DTD SVG 1.1//EN"
  "http://www.w3.org/Graphics/SVG/1.1/DTD/svg11.dtd">
<!-- Created with matplotlib (https://matplotlib.org/) -->
<svg height="345.6pt" version="1.1" viewBox="0 0 460.8 345.6" width="460.8pt" xmlns="http://www.w3.org/2000/svg" xmlns:xlink="http://www.w3.org/1999/xlink">
 <defs>
  <style type="text/css">
*{stroke-linecap:butt;stroke-linejoin:round;}
  </style>
 </defs>
 <g id="figure_1">
  <g id="patch_1">
   <path d="M 0 345.6 
L 460.8 345.6 
L 460.8 0 
L 0 0 
z
" style="fill:#ffffff;"/>
  </g>
  <g id="axes_1">
   <g id="patch_2">
    <path d="M 57.6 307.584 
L 414.72 307.584 
L 414.72 41.472 
L 57.6 41.472 
z
" style="fill:#ffffff;"/>
   </g>
   <g id="matplotlib.axis_1">
    <g id="xtick_1">
     <g id="line2d_1">
      <path clip-path="url(#p2a9c087e7d)" d="M 73.827615 307.584 
L 73.827615 41.472 
" style="fill:none;stroke:#b0b0b0;stroke-linecap:square;stroke-width:0.8;"/>
     </g>
     <g id="line2d_2">
      <defs>
       <path d="M 0 0 
L 0 3.5 
" id="md145804088" style="stroke:#000000;stroke-width:0.8;"/>
      </defs>
      <g>
       <use style="stroke:#000000;stroke-width:0.8;" x="73.827615" xlink:href="#md145804088" y="307.584"/>
      </g>
     </g>
     <g id="text_1">
      <!-- 0 -->
      <defs>
       <path d="M 31.78125 66.40625 
Q 24.171875 66.40625 20.328125 58.90625 
Q 16.5 51.421875 16.5 36.375 
Q 16.5 21.390625 20.328125 13.890625 
Q 24.171875 6.390625 31.78125 6.390625 
Q 39.453125 6.390625 43.28125 13.890625 
Q 47.125 21.390625 47.125 36.375 
Q 47.125 51.421875 43.28125 58.90625 
Q 39.453125 66.40625 31.78125 66.40625 
z
M 31.78125 74.21875 
Q 44.046875 74.21875 50.515625 64.515625 
Q 56.984375 54.828125 56.984375 36.375 
Q 56.984375 17.96875 50.515625 8.265625 
Q 44.046875 -1.421875 31.78125 -1.421875 
Q 19.53125 -1.421875 13.0625 8.265625 
Q 6.59375 17.96875 6.59375 36.375 
Q 6.59375 54.828125 13.0625 64.515625 
Q 19.53125 74.21875 31.78125 74.21875 
z
" id="DejaVuSans-48"/>
      </defs>
      <g transform="translate(70.646365 322.182437)scale(0.1 -0.1)">
       <use xlink:href="#DejaVuSans-48"/>
      </g>
     </g>
    </g>
    <g id="xtick_2">
     <g id="line2d_3">
      <path clip-path="url(#p2a9c087e7d)" d="M 124.95512 307.584 
L 124.95512 41.472 
" style="fill:none;stroke:#b0b0b0;stroke-linecap:square;stroke-width:0.8;"/>
     </g>
     <g id="line2d_4">
      <g>
       <use style="stroke:#000000;stroke-width:0.8;" x="124.95512" xlink:href="#md145804088" y="307.584"/>
      </g>
     </g>
     <g id="text_2">
      <!-- 10000 -->
      <defs>
       <path d="M 12.40625 8.296875 
L 28.515625 8.296875 
L 28.515625 63.921875 
L 10.984375 60.40625 
L 10.984375 69.390625 
L 28.421875 72.90625 
L 38.28125 72.90625 
L 38.28125 8.296875 
L 54.390625 8.296875 
L 54.390625 0 
L 12.40625 0 
z
" id="DejaVuSans-49"/>
      </defs>
      <g transform="translate(109.04887 322.182437)scale(0.1 -0.1)">
       <use xlink:href="#DejaVuSans-49"/>
       <use x="63.623047" xlink:href="#DejaVuSans-48"/>
       <use x="127.246094" xlink:href="#DejaVuSans-48"/>
       <use x="190.869141" xlink:href="#DejaVuSans-48"/>
       <use x="254.492188" xlink:href="#DejaVuSans-48"/>
      </g>
     </g>
    </g>
    <g id="xtick_3">
     <g id="line2d_5">
      <path clip-path="url(#p2a9c087e7d)" d="M 176.082625 307.584 
L 176.082625 41.472 
" style="fill:none;stroke:#b0b0b0;stroke-linecap:square;stroke-width:0.8;"/>
     </g>
     <g id="line2d_6">
      <g>
       <use style="stroke:#000000;stroke-width:0.8;" x="176.082625" xlink:href="#md145804088" y="307.584"/>
      </g>
     </g>
     <g id="text_3">
      <!-- 20000 -->
      <defs>
       <path d="M 19.1875 8.296875 
L 53.609375 8.296875 
L 53.609375 0 
L 7.328125 0 
L 7.328125 8.296875 
Q 12.9375 14.109375 22.625 23.890625 
Q 32.328125 33.6875 34.8125 36.53125 
Q 39.546875 41.84375 41.421875 45.53125 
Q 43.3125 49.21875 43.3125 52.78125 
Q 43.3125 58.59375 39.234375 62.25 
Q 35.15625 65.921875 28.609375 65.921875 
Q 23.96875 65.921875 18.8125 64.3125 
Q 13.671875 62.703125 7.8125 59.421875 
L 7.8125 69.390625 
Q 13.765625 71.78125 18.9375 73 
Q 24.125 74.21875 28.421875 74.21875 
Q 39.75 74.21875 46.484375 68.546875 
Q 53.21875 62.890625 53.21875 53.421875 
Q 53.21875 48.921875 51.53125 44.890625 
Q 49.859375 40.875 45.40625 35.40625 
Q 44.1875 33.984375 37.640625 27.21875 
Q 31.109375 20.453125 19.1875 8.296875 
z
" id="DejaVuSans-50"/>
      </defs>
      <g transform="translate(160.176375 322.182437)scale(0.1 -0.1)">
       <use xlink:href="#DejaVuSans-50"/>
       <use x="63.623047" xlink:href="#DejaVuSans-48"/>
       <use x="127.246094" xlink:href="#DejaVuSans-48"/>
       <use x="190.869141" xlink:href="#DejaVuSans-48"/>
       <use x="254.492188" xlink:href="#DejaVuSans-48"/>
      </g>
     </g>
    </g>
    <g id="xtick_4">
     <g id="line2d_7">
      <path clip-path="url(#p2a9c087e7d)" d="M 227.21013 307.584 
L 227.21013 41.472 
" style="fill:none;stroke:#b0b0b0;stroke-linecap:square;stroke-width:0.8;"/>
     </g>
     <g id="line2d_8">
      <g>
       <use style="stroke:#000000;stroke-width:0.8;" x="227.21013" xlink:href="#md145804088" y="307.584"/>
      </g>
     </g>
     <g id="text_4">
      <!-- 30000 -->
      <defs>
       <path d="M 40.578125 39.3125 
Q 47.65625 37.796875 51.625 33 
Q 55.609375 28.21875 55.609375 21.1875 
Q 55.609375 10.40625 48.1875 4.484375 
Q 40.765625 -1.421875 27.09375 -1.421875 
Q 22.515625 -1.421875 17.65625 -0.515625 
Q 12.796875 0.390625 7.625 2.203125 
L 7.625 11.71875 
Q 11.71875 9.328125 16.59375 8.109375 
Q 21.484375 6.890625 26.8125 6.890625 
Q 36.078125 6.890625 40.9375 10.546875 
Q 45.796875 14.203125 45.796875 21.1875 
Q 45.796875 27.640625 41.28125 31.265625 
Q 36.765625 34.90625 28.71875 34.90625 
L 20.21875 34.90625 
L 20.21875 43.015625 
L 29.109375 43.015625 
Q 36.375 43.015625 40.234375 45.921875 
Q 44.09375 48.828125 44.09375 54.296875 
Q 44.09375 59.90625 40.109375 62.90625 
Q 36.140625 65.921875 28.71875 65.921875 
Q 24.65625 65.921875 20.015625 65.03125 
Q 15.375 64.15625 9.8125 62.3125 
L 9.8125 71.09375 
Q 15.4375 72.65625 20.34375 73.4375 
Q 25.25 74.21875 29.59375 74.21875 
Q 40.828125 74.21875 47.359375 69.109375 
Q 53.90625 64.015625 53.90625 55.328125 
Q 53.90625 49.265625 50.4375 45.09375 
Q 46.96875 40.921875 40.578125 39.3125 
z
" id="DejaVuSans-51"/>
      </defs>
      <g transform="translate(211.30388 322.182437)scale(0.1 -0.1)">
       <use xlink:href="#DejaVuSans-51"/>
       <use x="63.623047" xlink:href="#DejaVuSans-48"/>
       <use x="127.246094" xlink:href="#DejaVuSans-48"/>
       <use x="190.869141" xlink:href="#DejaVuSans-48"/>
       <use x="254.492188" xlink:href="#DejaVuSans-48"/>
      </g>
     </g>
    </g>
    <g id="xtick_5">
     <g id="line2d_9">
      <path clip-path="url(#p2a9c087e7d)" d="M 278.337635 307.584 
L 278.337635 41.472 
" style="fill:none;stroke:#b0b0b0;stroke-linecap:square;stroke-width:0.8;"/>
     </g>
     <g id="line2d_10">
      <g>
       <use style="stroke:#000000;stroke-width:0.8;" x="278.337635" xlink:href="#md145804088" y="307.584"/>
      </g>
     </g>
     <g id="text_5">
      <!-- 40000 -->
      <defs>
       <path d="M 37.796875 64.3125 
L 12.890625 25.390625 
L 37.796875 25.390625 
z
M 35.203125 72.90625 
L 47.609375 72.90625 
L 47.609375 25.390625 
L 58.015625 25.390625 
L 58.015625 17.1875 
L 47.609375 17.1875 
L 47.609375 0 
L 37.796875 0 
L 37.796875 17.1875 
L 4.890625 17.1875 
L 4.890625 26.703125 
z
" id="DejaVuSans-52"/>
      </defs>
      <g transform="translate(262.431385 322.182437)scale(0.1 -0.1)">
       <use xlink:href="#DejaVuSans-52"/>
       <use x="63.623047" xlink:href="#DejaVuSans-48"/>
       <use x="127.246094" xlink:href="#DejaVuSans-48"/>
       <use x="190.869141" xlink:href="#DejaVuSans-48"/>
       <use x="254.492188" xlink:href="#DejaVuSans-48"/>
      </g>
     </g>
    </g>
    <g id="xtick_6">
     <g id="line2d_11">
      <path clip-path="url(#p2a9c087e7d)" d="M 329.465141 307.584 
L 329.465141 41.472 
" style="fill:none;stroke:#b0b0b0;stroke-linecap:square;stroke-width:0.8;"/>
     </g>
     <g id="line2d_12">
      <g>
       <use style="stroke:#000000;stroke-width:0.8;" x="329.465141" xlink:href="#md145804088" y="307.584"/>
      </g>
     </g>
     <g id="text_6">
      <!-- 50000 -->
      <defs>
       <path d="M 10.796875 72.90625 
L 49.515625 72.90625 
L 49.515625 64.59375 
L 19.828125 64.59375 
L 19.828125 46.734375 
Q 21.96875 47.46875 24.109375 47.828125 
Q 26.265625 48.1875 28.421875 48.1875 
Q 40.625 48.1875 47.75 41.5 
Q 54.890625 34.8125 54.890625 23.390625 
Q 54.890625 11.625 47.5625 5.09375 
Q 40.234375 -1.421875 26.90625 -1.421875 
Q 22.3125 -1.421875 17.546875 -0.640625 
Q 12.796875 0.140625 7.71875 1.703125 
L 7.71875 11.625 
Q 12.109375 9.234375 16.796875 8.0625 
Q 21.484375 6.890625 26.703125 6.890625 
Q 35.15625 6.890625 40.078125 11.328125 
Q 45.015625 15.765625 45.015625 23.390625 
Q 45.015625 31 40.078125 35.4375 
Q 35.15625 39.890625 26.703125 39.890625 
Q 22.75 39.890625 18.8125 39.015625 
Q 14.890625 38.140625 10.796875 36.28125 
z
" id="DejaVuSans-53"/>
      </defs>
      <g transform="translate(313.558891 322.182437)scale(0.1 -0.1)">
       <use xlink:href="#DejaVuSans-53"/>
       <use x="63.623047" xlink:href="#DejaVuSans-48"/>
       <use x="127.246094" xlink:href="#DejaVuSans-48"/>
       <use x="190.869141" xlink:href="#DejaVuSans-48"/>
       <use x="254.492188" xlink:href="#DejaVuSans-48"/>
      </g>
     </g>
    </g>
    <g id="xtick_7">
     <g id="line2d_13">
      <path clip-path="url(#p2a9c087e7d)" d="M 380.592646 307.584 
L 380.592646 41.472 
" style="fill:none;stroke:#b0b0b0;stroke-linecap:square;stroke-width:0.8;"/>
     </g>
     <g id="line2d_14">
      <g>
       <use style="stroke:#000000;stroke-width:0.8;" x="380.592646" xlink:href="#md145804088" y="307.584"/>
      </g>
     </g>
     <g id="text_7">
      <!-- 60000 -->
      <defs>
       <path d="M 33.015625 40.375 
Q 26.375 40.375 22.484375 35.828125 
Q 18.609375 31.296875 18.609375 23.390625 
Q 18.609375 15.53125 22.484375 10.953125 
Q 26.375 6.390625 33.015625 6.390625 
Q 39.65625 6.390625 43.53125 10.953125 
Q 47.40625 15.53125 47.40625 23.390625 
Q 47.40625 31.296875 43.53125 35.828125 
Q 39.65625 40.375 33.015625 40.375 
z
M 52.59375 71.296875 
L 52.59375 62.3125 
Q 48.875 64.0625 45.09375 64.984375 
Q 41.3125 65.921875 37.59375 65.921875 
Q 27.828125 65.921875 22.671875 59.328125 
Q 17.53125 52.734375 16.796875 39.40625 
Q 19.671875 43.65625 24.015625 45.921875 
Q 28.375 48.1875 33.59375 48.1875 
Q 44.578125 48.1875 50.953125 41.515625 
Q 57.328125 34.859375 57.328125 23.390625 
Q 57.328125 12.15625 50.6875 5.359375 
Q 44.046875 -1.421875 33.015625 -1.421875 
Q 20.359375 -1.421875 13.671875 8.265625 
Q 6.984375 17.96875 6.984375 36.375 
Q 6.984375 53.65625 15.1875 63.9375 
Q 23.390625 74.21875 37.203125 74.21875 
Q 40.921875 74.21875 44.703125 73.484375 
Q 48.484375 72.75 52.59375 71.296875 
z
" id="DejaVuSans-54"/>
      </defs>
      <g transform="translate(364.686396 322.182437)scale(0.1 -0.1)">
       <use xlink:href="#DejaVuSans-54"/>
       <use x="63.623047" xlink:href="#DejaVuSans-48"/>
       <use x="127.246094" xlink:href="#DejaVuSans-48"/>
       <use x="190.869141" xlink:href="#DejaVuSans-48"/>
       <use x="254.492188" xlink:href="#DejaVuSans-48"/>
      </g>
     </g>
    </g>
    <g id="text_8">
     <!-- Steps -->
     <defs>
      <path d="M 53.515625 70.515625 
L 53.515625 60.890625 
Q 47.90625 63.578125 42.921875 64.890625 
Q 37.9375 66.21875 33.296875 66.21875 
Q 25.25 66.21875 20.875 63.09375 
Q 16.5 59.96875 16.5 54.203125 
Q 16.5 49.359375 19.40625 46.890625 
Q 22.3125 44.4375 30.421875 42.921875 
L 36.375 41.703125 
Q 47.40625 39.59375 52.65625 34.296875 
Q 57.90625 29 57.90625 20.125 
Q 57.90625 9.515625 50.796875 4.046875 
Q 43.703125 -1.421875 29.984375 -1.421875 
Q 24.8125 -1.421875 18.96875 -0.25 
Q 13.140625 0.921875 6.890625 3.21875 
L 6.890625 13.375 
Q 12.890625 10.015625 18.65625 8.296875 
Q 24.421875 6.59375 29.984375 6.59375 
Q 38.421875 6.59375 43.015625 9.90625 
Q 47.609375 13.234375 47.609375 19.390625 
Q 47.609375 24.75 44.3125 27.78125 
Q 41.015625 30.8125 33.5 32.328125 
L 27.484375 33.5 
Q 16.453125 35.6875 11.515625 40.375 
Q 6.59375 45.0625 6.59375 53.421875 
Q 6.59375 63.09375 13.40625 68.65625 
Q 20.21875 74.21875 32.171875 74.21875 
Q 37.3125 74.21875 42.625 73.28125 
Q 47.953125 72.359375 53.515625 70.515625 
z
" id="DejaVuSans-83"/>
      <path d="M 18.3125 70.21875 
L 18.3125 54.6875 
L 36.8125 54.6875 
L 36.8125 47.703125 
L 18.3125 47.703125 
L 18.3125 18.015625 
Q 18.3125 11.328125 20.140625 9.421875 
Q 21.96875 7.515625 27.59375 7.515625 
L 36.8125 7.515625 
L 36.8125 0 
L 27.59375 0 
Q 17.1875 0 13.234375 3.875 
Q 9.28125 7.765625 9.28125 18.015625 
L 9.28125 47.703125 
L 2.6875 47.703125 
L 2.6875 54.6875 
L 9.28125 54.6875 
L 9.28125 70.21875 
z
" id="DejaVuSans-116"/>
      <path d="M 56.203125 29.59375 
L 56.203125 25.203125 
L 14.890625 25.203125 
Q 15.484375 15.921875 20.484375 11.0625 
Q 25.484375 6.203125 34.421875 6.203125 
Q 39.59375 6.203125 44.453125 7.46875 
Q 49.3125 8.734375 54.109375 11.28125 
L 54.109375 2.78125 
Q 49.265625 0.734375 44.1875 -0.34375 
Q 39.109375 -1.421875 33.890625 -1.421875 
Q 20.796875 -1.421875 13.15625 6.1875 
Q 5.515625 13.8125 5.515625 26.8125 
Q 5.515625 40.234375 12.765625 48.109375 
Q 20.015625 56 32.328125 56 
Q 43.359375 56 49.78125 48.890625 
Q 56.203125 41.796875 56.203125 29.59375 
z
M 47.21875 32.234375 
Q 47.125 39.59375 43.09375 43.984375 
Q 39.0625 48.390625 32.421875 48.390625 
Q 24.90625 48.390625 20.390625 44.140625 
Q 15.875 39.890625 15.1875 32.171875 
z
" id="DejaVuSans-101"/>
      <path d="M 18.109375 8.203125 
L 18.109375 -20.796875 
L 9.078125 -20.796875 
L 9.078125 54.6875 
L 18.109375 54.6875 
L 18.109375 46.390625 
Q 20.953125 51.265625 25.265625 53.625 
Q 29.59375 56 35.59375 56 
Q 45.5625 56 51.78125 48.09375 
Q 58.015625 40.1875 58.015625 27.296875 
Q 58.015625 14.40625 51.78125 6.484375 
Q 45.5625 -1.421875 35.59375 -1.421875 
Q 29.59375 -1.421875 25.265625 0.953125 
Q 20.953125 3.328125 18.109375 8.203125 
z
M 48.6875 27.296875 
Q 48.6875 37.203125 44.609375 42.84375 
Q 40.53125 48.484375 33.40625 48.484375 
Q 26.265625 48.484375 22.1875 42.84375 
Q 18.109375 37.203125 18.109375 27.296875 
Q 18.109375 17.390625 22.1875 11.75 
Q 26.265625 6.109375 33.40625 6.109375 
Q 40.53125 6.109375 44.609375 11.75 
Q 48.6875 17.390625 48.6875 27.296875 
z
" id="DejaVuSans-112"/>
      <path d="M 44.28125 53.078125 
L 44.28125 44.578125 
Q 40.484375 46.53125 36.375 47.5 
Q 32.28125 48.484375 27.875 48.484375 
Q 21.1875 48.484375 17.84375 46.4375 
Q 14.5 44.390625 14.5 40.28125 
Q 14.5 37.15625 16.890625 35.375 
Q 19.28125 33.59375 26.515625 31.984375 
L 29.59375 31.296875 
Q 39.15625 29.25 43.1875 25.515625 
Q 47.21875 21.78125 47.21875 15.09375 
Q 47.21875 7.46875 41.1875 3.015625 
Q 35.15625 -1.421875 24.609375 -1.421875 
Q 20.21875 -1.421875 15.453125 -0.5625 
Q 10.6875 0.296875 5.421875 2 
L 5.421875 11.28125 
Q 10.40625 8.6875 15.234375 7.390625 
Q 20.0625 6.109375 24.8125 6.109375 
Q 31.15625 6.109375 34.5625 8.28125 
Q 37.984375 10.453125 37.984375 14.40625 
Q 37.984375 18.0625 35.515625 20.015625 
Q 33.0625 21.96875 24.703125 23.78125 
L 21.578125 24.515625 
Q 13.234375 26.265625 9.515625 29.90625 
Q 5.8125 33.546875 5.8125 39.890625 
Q 5.8125 47.609375 11.28125 51.796875 
Q 16.75 56 26.8125 56 
Q 31.78125 56 36.171875 55.265625 
Q 40.578125 54.546875 44.28125 53.078125 
z
" id="DejaVuSans-115"/>
     </defs>
     <g transform="translate(222.170156 335.860562)scale(0.1 -0.1)">
      <use xlink:href="#DejaVuSans-83"/>
      <use x="63.476562" xlink:href="#DejaVuSans-116"/>
      <use x="102.685547" xlink:href="#DejaVuSans-101"/>
      <use x="164.208984" xlink:href="#DejaVuSans-112"/>
      <use x="227.685547" xlink:href="#DejaVuSans-115"/>
     </g>
    </g>
   </g>
   <g id="matplotlib.axis_2">
    <g id="ytick_1">
     <g id="line2d_15">
      <path clip-path="url(#p2a9c087e7d)" d="M 57.6 293.362649 
L 414.72 293.362649 
" style="fill:none;stroke:#b0b0b0;stroke-linecap:square;stroke-width:0.8;"/>
     </g>
     <g id="line2d_16">
      <defs>
       <path d="M 0 0 
L -3.5 0 
" id="me4e74bb303" style="stroke:#000000;stroke-width:0.8;"/>
      </defs>
      <g>
       <use style="stroke:#000000;stroke-width:0.8;" x="57.6" xlink:href="#me4e74bb303" y="293.362649"/>
      </g>
     </g>
     <g id="text_9">
      <!-- $\mathdefault{10^{0}}$ -->
      <g transform="translate(33 297.161867)scale(0.1 -0.1)">
       <use transform="translate(0 0.765625)" xlink:href="#DejaVuSans-49"/>
       <use transform="translate(63.623047 0.765625)" xlink:href="#DejaVuSans-48"/>
       <use transform="translate(128.203125 39.046875)scale(0.7)" xlink:href="#DejaVuSans-48"/>
      </g>
     </g>
    </g>
    <g id="ytick_2">
     <g id="line2d_17">
      <path clip-path="url(#p2a9c087e7d)" d="M 57.6 206.754491 
L 414.72 206.754491 
" style="fill:none;stroke:#b0b0b0;stroke-linecap:square;stroke-width:0.8;"/>
     </g>
     <g id="line2d_18">
      <g>
       <use style="stroke:#000000;stroke-width:0.8;" x="57.6" xlink:href="#me4e74bb303" y="206.754491"/>
      </g>
     </g>
     <g id="text_10">
      <!-- $\mathdefault{10^{1}}$ -->
      <g transform="translate(33 210.55371)scale(0.1 -0.1)">
       <use transform="translate(0 0.684375)" xlink:href="#DejaVuSans-49"/>
       <use transform="translate(63.623047 0.684375)" xlink:href="#DejaVuSans-48"/>
       <use transform="translate(128.203125 38.965625)scale(0.7)" xlink:href="#DejaVuSans-49"/>
      </g>
     </g>
    </g>
    <g id="ytick_3">
     <g id="line2d_19">
      <path clip-path="url(#p2a9c087e7d)" d="M 57.6 120.146334 
L 414.72 120.146334 
" style="fill:none;stroke:#b0b0b0;stroke-linecap:square;stroke-width:0.8;"/>
     </g>
     <g id="line2d_20">
      <g>
       <use style="stroke:#000000;stroke-width:0.8;" x="57.6" xlink:href="#me4e74bb303" y="120.146334"/>
      </g>
     </g>
     <g id="text_11">
      <!-- $\mathdefault{10^{2}}$ -->
      <g transform="translate(33 123.945552)scale(0.1 -0.1)">
       <use transform="translate(0 0.765625)" xlink:href="#DejaVuSans-49"/>
       <use transform="translate(63.623047 0.765625)" xlink:href="#DejaVuSans-48"/>
       <use transform="translate(128.203125 39.046875)scale(0.7)" xlink:href="#DejaVuSans-50"/>
      </g>
     </g>
    </g>
    <g id="ytick_4">
     <g id="line2d_21">
      <defs>
       <path d="M 0 0 
L -2 0 
" id="mf762078bc4" style="stroke:#000000;stroke-width:0.6;"/>
      </defs>
      <g>
       <use style="stroke:#000000;stroke-width:0.6;" x="57.6" xlink:href="#mf762078bc4" y="306.778422"/>
      </g>
     </g>
    </g>
    <g id="ytick_5">
     <g id="line2d_22">
      <g>
       <use style="stroke:#000000;stroke-width:0.6;" x="57.6" xlink:href="#mf762078bc4" y="301.755846"/>
      </g>
     </g>
    </g>
    <g id="ytick_6">
     <g id="line2d_23">
      <g>
       <use style="stroke:#000000;stroke-width:0.6;" x="57.6" xlink:href="#mf762078bc4" y="297.325621"/>
      </g>
     </g>
    </g>
    <g id="ytick_7">
     <g id="line2d_24">
      <g>
       <use style="stroke:#000000;stroke-width:0.6;" x="57.6" xlink:href="#mf762078bc4" y="267.290995"/>
      </g>
     </g>
    </g>
    <g id="ytick_8">
     <g id="line2d_25">
      <g>
       <use style="stroke:#000000;stroke-width:0.6;" x="57.6" xlink:href="#mf762078bc4" y="252.040056"/>
      </g>
     </g>
    </g>
    <g id="ytick_9">
     <g id="line2d_26">
      <g>
       <use style="stroke:#000000;stroke-width:0.6;" x="57.6" xlink:href="#mf762078bc4" y="241.219342"/>
      </g>
     </g>
    </g>
    <g id="ytick_10">
     <g id="line2d_27">
      <g>
       <use style="stroke:#000000;stroke-width:0.6;" x="57.6" xlink:href="#mf762078bc4" y="232.826144"/>
      </g>
     </g>
    </g>
    <g id="ytick_11">
     <g id="line2d_28">
      <g>
       <use style="stroke:#000000;stroke-width:0.6;" x="57.6" xlink:href="#mf762078bc4" y="225.968403"/>
      </g>
     </g>
    </g>
    <g id="ytick_12">
     <g id="line2d_29">
      <g>
       <use style="stroke:#000000;stroke-width:0.6;" x="57.6" xlink:href="#mf762078bc4" y="220.170265"/>
      </g>
     </g>
    </g>
    <g id="ytick_13">
     <g id="line2d_30">
      <g>
       <use style="stroke:#000000;stroke-width:0.6;" x="57.6" xlink:href="#mf762078bc4" y="215.147689"/>
      </g>
     </g>
    </g>
    <g id="ytick_14">
     <g id="line2d_31">
      <g>
       <use style="stroke:#000000;stroke-width:0.6;" x="57.6" xlink:href="#mf762078bc4" y="210.717463"/>
      </g>
     </g>
    </g>
    <g id="ytick_15">
     <g id="line2d_32">
      <g>
       <use style="stroke:#000000;stroke-width:0.6;" x="57.6" xlink:href="#mf762078bc4" y="180.682838"/>
      </g>
     </g>
    </g>
    <g id="ytick_16">
     <g id="line2d_33">
      <g>
       <use style="stroke:#000000;stroke-width:0.6;" x="57.6" xlink:href="#mf762078bc4" y="165.431898"/>
      </g>
     </g>
    </g>
    <g id="ytick_17">
     <g id="line2d_34">
      <g>
       <use style="stroke:#000000;stroke-width:0.6;" x="57.6" xlink:href="#mf762078bc4" y="154.611185"/>
      </g>
     </g>
    </g>
    <g id="ytick_18">
     <g id="line2d_35">
      <g>
       <use style="stroke:#000000;stroke-width:0.6;" x="57.6" xlink:href="#mf762078bc4" y="146.217987"/>
      </g>
     </g>
    </g>
    <g id="ytick_19">
     <g id="line2d_36">
      <g>
       <use style="stroke:#000000;stroke-width:0.6;" x="57.6" xlink:href="#mf762078bc4" y="139.360245"/>
      </g>
     </g>
    </g>
    <g id="ytick_20">
     <g id="line2d_37">
      <g>
       <use style="stroke:#000000;stroke-width:0.6;" x="57.6" xlink:href="#mf762078bc4" y="133.562107"/>
      </g>
     </g>
    </g>
    <g id="ytick_21">
     <g id="line2d_38">
      <g>
       <use style="stroke:#000000;stroke-width:0.6;" x="57.6" xlink:href="#mf762078bc4" y="128.539531"/>
      </g>
     </g>
    </g>
    <g id="ytick_22">
     <g id="line2d_39">
      <g>
       <use style="stroke:#000000;stroke-width:0.6;" x="57.6" xlink:href="#mf762078bc4" y="124.109306"/>
      </g>
     </g>
    </g>
    <g id="ytick_23">
     <g id="line2d_40">
      <g>
       <use style="stroke:#000000;stroke-width:0.6;" x="57.6" xlink:href="#mf762078bc4" y="94.07468"/>
      </g>
     </g>
    </g>
    <g id="ytick_24">
     <g id="line2d_41">
      <g>
       <use style="stroke:#000000;stroke-width:0.6;" x="57.6" xlink:href="#mf762078bc4" y="78.823741"/>
      </g>
     </g>
    </g>
    <g id="ytick_25">
     <g id="line2d_42">
      <g>
       <use style="stroke:#000000;stroke-width:0.6;" x="57.6" xlink:href="#mf762078bc4" y="68.003027"/>
      </g>
     </g>
    </g>
    <g id="ytick_26">
     <g id="line2d_43">
      <g>
       <use style="stroke:#000000;stroke-width:0.6;" x="57.6" xlink:href="#mf762078bc4" y="59.609829"/>
      </g>
     </g>
    </g>
    <g id="ytick_27">
     <g id="line2d_44">
      <g>
       <use style="stroke:#000000;stroke-width:0.6;" x="57.6" xlink:href="#mf762078bc4" y="52.752088"/>
      </g>
     </g>
    </g>
    <g id="ytick_28">
     <g id="line2d_45">
      <g>
       <use style="stroke:#000000;stroke-width:0.6;" x="57.6" xlink:href="#mf762078bc4" y="46.953949"/>
      </g>
     </g>
    </g>
    <g id="ytick_29">
     <g id="line2d_46">
      <g>
       <use style="stroke:#000000;stroke-width:0.6;" x="57.6" xlink:href="#mf762078bc4" y="41.931374"/>
      </g>
     </g>
    </g>
    <g id="text_12">
     <!-- $\beta$ -->
     <defs>
      <path d="M 13.625 3.375 
L 8.9375 -20.796875 
L -0.09375 -20.796875 
L 14.5 54.34375 
Q 18.84375 76.609375 39.65625 76.609375 
Q 60.75 76.609375 57.171875 57.8125 
Q 54.734375 44.4375 45.21875 39.546875 
Q 58.015625 35.15625 55.515625 22.125 
Q 51.125 -1.078125 27.484375 -1.03125 
Q 17.140625 -0.984375 13.625 3.375 
z
M 15.921875 15.09375 
Q 19.671875 6.59375 29.296875 6.640625 
Q 43.359375 6.640625 46.34375 21.96875 
Q 49.03125 35.75 26.171875 34.671875 
L 27.78125 42.96875 
Q 45.453125 42.671875 48.53125 58.59375 
Q 50.640625 69.34375 39.203125 69.28125 
Q 26.421875 69.28125 23.484375 54.046875 
z
" id="DejaVuSans-Oblique-946"/>
     </defs>
     <g transform="translate(26.9 177.728)rotate(-90)scale(0.1 -0.1)">
      <use transform="translate(0 0.390625)" xlink:href="#DejaVuSans-Oblique-946"/>
     </g>
    </g>
   </g>
   <g id="line2d_47">
    <path clip-path="url(#p2a9c087e7d)" d="M 73.832727 206.751437 
L 73.858291 206.577313 
L 73.940095 206.754928 
L 74.180394 207.180073 
L 74.241747 207.039218 
L 74.410468 206.55128 
L 74.589414 205.853729 
L 74.635429 205.949689 
L 74.983096 206.645386 
L 75.018885 206.616551 
L 75.126253 206.484882 
L 75.652866 204.518298 
L 75.877827 202.962461 
L 76.721431 197.884905 
L 77.007745 196.432144 
L 77.283834 195.345039 
L 78.326835 189.912279 
L 79.380062 187.28374 
L 79.86066 186.668822 
L 80.12141 186.321867 
L 80.796293 185.820079 
L 81.184863 185.722333 
L 82.355682 184.932929 
L 82.616433 184.732556 
L 83.005002 184.513077 
L 83.347556 184.284295 
L 83.736125 183.836872 
L 84.523489 183.061827 
L 85.034764 182.419222 
L 85.929495 181.537931 
L 87.105428 180.455691 
L 87.320163 180.35774 
L 88.301811 179.58192 
L 88.547223 179.36589 
L 88.900003 179.211808 
L 89.406165 178.989271 
L 89.702705 178.652237 
L 90.505407 178.145969 
L 90.929765 177.962844 
L 92.121036 177.264703 
L 92.606747 177.049502 
L 94.268391 176.305718 
L 94.559818 176.194837 
L 96.221462 175.56745 
L 98.655131 174.908551 
L 99.268661 174.784954 
L 100.649104 174.602087 
L 100.981433 174.514397 
L 101.860826 174.331479 
L 102.254507 174.233627 
L 103.062322 174.136267 
L 103.379313 174.01717 
L 103.686078 173.887884 
L 104.534794 173.765871 
L 105.01028 173.688975 
L 105.501104 173.607312 
L 106.048168 173.534415 
L 106.349821 173.523145 
L 106.753728 173.464626 
L 107.454175 173.371233 
L 108.272215 173.162077 
L 108.660784 173.046267 
L 112.311288 172.068005 
L 112.945269 171.928041 
L 114.274584 171.82619 
L 118.850496 172.312381 
L 119.607183 172.314493 
L 119.913948 172.306516 
L 122.894681 171.889463 
L 123.891668 171.702408 
L 124.60234 171.545852 
L 126.473607 170.949261 
L 126.872401 170.80392 
L 127.388789 170.632742 
L 127.848937 170.336691 
L 128.211942 170.09168 
L 129.479904 169.389019 
L 129.853135 169.12994 
L 130.374635 168.5938 
L 138.007972 162.192036 
L 138.31985 161.94069 
L 138.826012 161.502257 
L 138.826012 161.502257 
" style="fill:none;stroke:#1f77b4;stroke-linecap:square;stroke-width:1.5;"/>
   </g>
   <g id="line2d_48">
    <path clip-path="url(#p2a9c087e7d)" d="M 73.832727 206.771153 
L 73.853178 206.65212 
L 73.92987 207.040142 
L 74.528061 210.61761 
L 74.548512 210.539964 
L 74.558738 210.534467 
L 74.609865 210.633933 
L 74.880841 211.583539 
L 75.468807 214.496043 
L 75.47392 214.488567 
L 75.509709 214.604334 
L 75.617077 214.912795 
L 75.652866 214.761085 
L 75.755121 214.215885 
L 75.811362 214.387443 
L 75.964744 214.873807 
L 76.015872 214.793026 
L 76.097676 214.575403 
L 76.143691 214.674029 
L 76.419779 216.220552 
L 76.844137 218.811217 
L 76.879927 218.73192 
L 77.017971 218.529647 
L 77.033309 218.542216 
L 77.120226 218.727332 
L 77.20203 218.828903 
L 77.232706 218.73133 
L 77.273608 218.717187 
L 77.319623 218.800612 
L 77.40654 219.044334 
L 77.467893 218.974951 
L 77.559922 218.92303 
L 77.595712 218.957339 
L 77.81556 219.367785 
L 77.830898 219.326935 
L 77.902477 218.423272 
L 78.066085 217.452714 
L 78.22458 217.237034 
L 78.52112 216.705254 
L 78.705179 216.383214 
L 79.006831 215.551872 
L 79.206228 215.246737 
L 79.410738 214.683941 
L 79.753292 213.602609 
L 79.973141 213.341289 
L 80.116298 212.944036 
L 80.336146 212.396982 
L 80.77073 211.490563 
L 81.215539 211.78659 
L 81.23599 211.732227 
L 81.343358 211.413752 
L 81.471177 211.336692 
L 81.506966 211.338656 
L 81.537642 211.259871 
L 82.048917 210.361698 
L 82.05403 210.365149 
L 82.243202 210.374155 
L 82.483501 209.966337 
L 82.641996 209.752329 
L 82.841394 209.741394 
L 83.030565 210.085651 
L 83.22485 210.773195 
L 84.293415 214.573606 
L 84.988749 215.91032 
L 85.101229 215.908856 
L 85.106342 215.913818 
L 85.315965 215.958073 
L 85.321078 215.944673 
L 85.469347 215.843009 
L 85.479573 215.850735 
L 85.586941 215.698359 
L 86.036863 215.050863 
L 86.865128 213.507635 
L 87.079864 213.066307 
L 87.228134 212.999341 
L 87.274148 212.982497 
L 87.330389 213.030696 
L 87.514448 213.277048 
L 87.693394 213.3588 
L 87.72407 213.346892 
L 87.785423 213.413402 
L 88.035948 213.576599 
L 88.301811 213.657841 
L 88.465419 213.634359 
L 88.470532 213.641247 
L 88.588125 213.548598 
L 88.751733 213.201641 
L 88.981807 212.974279 
L 89.104513 212.866256 
L 89.257896 212.636794 
L 90.040146 211.912869 
L 90.173078 211.85034 
L 90.551421 211.672573 
L 90.643451 211.597326 
L 90.893976 211.322521 
L 91.113824 211.248236 
L 91.844947 211.151137 
L 91.972766 211.085879 
L 92.131261 211.092151 
L 92.264193 211.083315 
L 92.386899 211.008103 
L 92.657875 210.840385 
L 92.918625 210.73624 
L 93.481028 209.663837 
L 94.171249 207.764491 
L 94.897259 206.231913 
L 95.480113 204.266036 
L 96.978149 199.792659 
L 97.090629 199.726055 
L 97.617243 199.40557 
L 97.7604 199.338084 
L 98.624455 197.611604 
L 104.754642 174.248674 
L 105.368172 172.252498 
L 110.710997 156.936768 
L 111.08934 155.920408 
L 114.264358 148.330248 
L 116.585547 143.440347 
L 121.529577 134.601155 
L 123.088966 132.220603 
L 124.893767 129.581625 
L 125.747596 128.406447 
L 127.946079 125.517365 
L 129.382762 123.757253 
L 129.909375 123.120167 
L 135.369793 117.192146 
L 136.18272 116.387995 
L 137.292187 115.318968 
L 138.69308 114.01423 
L 140.97848 111.931832 
L 148.923694 105.746894 
L 155.933275 101.128788 
L 157.784091 100.011652 
L 159.778064 98.87952 
L 173.050764 92.298239 
L 178.664564 89.916785 
L 192.571245 84.73559 
L 195.674685 83.730931 
L 209.69896 79.518437 
L 220.987913 76.577385 
L 234.296402 73.498251 
L 243.12101 71.665407 
L 258.88362 68.852131 
L 298.251799 63.143518 
L 320.625195 60.53232 
L 372.120818 55.497166 
L 385.817877 54.466495 
L 398.487273 53.568 
L 398.487273 53.568 
" style="fill:none;stroke:#ff7f0e;stroke-linecap:square;stroke-width:1.5;"/>
   </g>
   <g id="line2d_49">
    <path clip-path="url(#p2a9c087e7d)" d="M 73.832727 206.805527 
L 73.83784 206.729862 
L 73.899193 207.3315 
L 74.850165 218.729983 
L 75.146704 220.646087 
L 75.167155 220.522381 
L 75.218283 220.310999 
L 75.279636 220.47088 
L 75.300087 220.511965 
L 75.346101 220.320212 
L 75.673317 218.03374 
L 75.744896 217.524548 
L 75.857376 216.542521 
L 75.898278 216.59666 
L 75.985195 216.687831 
L 76.17948 217.00891 
L 76.184593 217.001448 
L 76.230607 217.121602 
L 76.32775 217.443802 
L 76.358426 217.273647 
L 76.598725 216.187878 
L 77.227594 214.664398 
L 77.248045 214.703004 
L 77.253157 214.719207 
L 77.309398 214.560917 
L 77.31451 214.569942 
L 77.426991 214.417916 
L 77.442329 214.429065 
L 77.457667 214.434662 
L 77.488344 214.307836 
L 77.66729 213.846671 
L 77.687741 213.887747 
L 77.764432 213.89347 
L 77.749094 213.851473 
L 77.784883 213.872037 
L 77.92804 213.580402 
L 77.933153 213.594957 
L 78.02007 213.576469 
L 77.979168 213.540729 
L 78.030295 213.547882 
L 78.163227 213.421064 
L 78.16834 213.436928 
L 78.296158 213.525875 
L 78.306384 213.513512 
L 78.868787 214.779486 
L 79.083522 216.047983 
L 80.182763 223.769231 
L 81.08772 231.638008 
L 81.092833 231.596102 
L 81.12351 231.671788 
L 81.149073 231.503147 
L 81.17975 231.275372 
L 81.251328 231.569125 
L 81.798393 234.487241 
L 81.829069 234.44542 
L 81.895535 234.255908 
L 81.951775 234.451643 
L 82.094932 235.197249 
L 82.161398 235.006543 
L 82.340344 235.261683 
L 82.355682 235.246217 
L 82.565305 234.020305 
L 82.595982 234.041815 
L 82.958987 234.325465 
L 83.086806 234.792769 
L 82.969212 234.313687 
L 83.122595 234.673529 
L 83.189061 234.563904 
L 83.265752 234.316211 
L 83.327105 234.346051 
L 83.403796 234.468173 
L 83.449811 234.365114 
L 83.4856 234.077997 
L 83.603194 233.616539 
L 83.638983 233.687142 
L 83.695223 233.919805 
L 83.771914 234.086209 
L 83.812816 233.957104 
L 83.817929 233.965345 
L 83.848606 233.853113 
L 83.899733 233.900164 
L 84.329204 232.554205 
L 84.359881 232.564645 
L 84.370106 232.596335 
L 84.421234 232.370508 
L 84.446797 232.442395 
L 84.702435 231.764681 
L 84.71266 231.787952 
L 84.738224 231.871032 
L 84.809803 231.728856 
L 84.927396 231.711585 
L 84.932509 231.652975 
L 85.111455 230.970513 
L 85.203484 230.753139 
L 85.898819 226.11891 
L 85.924382 226.152511 
L 85.929495 226.163671 
L 85.970397 226.080161 
L 86.001074 226.073441 
L 86.139118 225.927232 
L 86.149343 225.953114 
L 86.364079 225.610361 
L 86.164682 225.968087 
L 86.420319 225.767462 
L 86.502123 225.94448 
L 86.543025 225.783773 
L 86.675957 225.27483 
L 86.706633 225.293293 
L 86.783324 224.826784 
L 86.967383 224.075772 
L 86.972496 224.080086 
L 86.99806 223.993972 
L 87.003173 224.001685 
L 87.171893 223.393473 
L 87.269036 222.908345 
L 87.55535 221.583766 
L 87.642266 221.252798 
L 87.8161 220.599113 
L 87.882566 220.542786 
L 87.887678 220.521443 
L 88.112639 219.513928 
L 88.117752 219.517205 
L 88.163767 219.51058 
L 88.184218 219.417066 
L 88.731282 217.529738 
L 88.976694 216.916067 
L 89.130077 216.507394 
L 89.579999 216.109836 
L 89.65669 215.97211 
L 89.71293 216.028555 
L 89.774283 216.038597 
L 89.799847 215.964686 
L 89.876538 215.87065 
L 89.91744 215.933582 
L 90.096387 216.108656 
L 90.280446 216.13205 
L 90.295784 216.070343 
L 90.428715 215.873979 
L 90.444054 215.8951 
L 90.638338 215.984275 
L 90.643451 215.970914 
L 90.761044 215.909561 
L 90.689466 216.00565 
L 90.77127 215.925542 
L 91.057584 216.276198 
L 91.093373 216.242888 
L 91.29277 215.737864 
L 91.359236 215.864984 
L 91.425702 215.874714 
L 91.451266 215.810779 
L 91.609761 215.674431 
L 91.635325 215.724875 
L 91.691565 215.746614 
L 91.73758 215.689671 
L 91.829609 215.647049 
L 91.834722 215.639675 
L 91.9063 215.642853 
L 91.860286 215.657053 
L 91.926751 215.68587 
L 91.982992 215.775744 
L 92.049457 215.734354 
L 92.131261 215.773878 
L 92.167051 215.728122 
L 92.264193 215.640039 
L 92.289757 215.679184 
L 92.371561 215.802734 
L 92.427801 215.778865 
L 92.586296 215.577441 
L 92.591409 215.579472 
L 92.61186 215.596076 
L 92.657875 215.52028 
L 92.683438 215.518686 
L 92.979978 215.233173 
L 93.046444 215.178923 
L 93.092458 215.228943 
L 93.102684 215.224849 
L 93.138473 215.305681 
L 93.179375 215.296124 
L 93.235616 215.297404 
L 93.266292 215.364629 
L 93.501479 215.610615 
L 93.511704 215.603741 
L 93.547493 215.55757 
L 93.593508 215.653353 
L 93.613959 215.652174 
L 93.624185 215.662396 
L 93.670199 215.541168 
L 93.818469 215.460929 
L 94.002528 215.65065 
L 94.017866 215.631364 
L 94.130347 215.551869 
L 94.155911 215.518788 
L 94.196813 215.605297 
L 94.227489 215.591533 
L 94.345082 215.634717 
L 94.355308 215.616499 
L 94.360421 215.60278 
L 94.426886 215.731653 
L 94.478014 215.742234 
L 94.529141 215.691562 
L 94.585382 215.716588 
L 94.60072 215.766273 
L 94.779666 216.095824 
L 94.897259 216.327538 
L 94.933049 216.375715 
L 94.989289 216.258239 
L 94.994402 216.261822 
L 95.06598 216.189661 
L 95.071093 216.173539 
L 95.096657 216.090227 
L 95.147784 216.197345 
L 95.183573 216.157655 
L 95.234701 216.131508 
L 95.260265 216.080488 
L 95.393196 215.980365 
L 95.413647 216.02083 
L 95.428985 216.056663 
L 95.500564 215.949444 
L 95.659059 215.726247 
L 96.098756 215.438409 
L 96.134545 215.491838 
L 96.369732 215.746272 
L 96.425972 215.846279 
L 96.558903 215.911023 
L 96.584467 215.842326 
L 96.778752 215.316266 
L 96.962811 215.130587 
L 97.019051 215.102181 
L 97.070178 215.114833 
L 97.233786 214.879802 
L 97.090629 215.123333 
L 97.264463 214.90089 
L 97.274688 214.909293 
L 97.341154 214.820171 
L 97.540551 214.658234 
L 97.545664 214.679226 
L 97.566115 214.665471 
L 97.755287 214.894855 
L 97.883106 214.940126 
L 97.944459 214.979164 
L 98.000699 214.924333 
L 98.179645 214.670159 
L 98.189871 214.682028 
L 98.194984 214.69518 
L 98.261449 214.584353 
L 98.266562 214.587506 
L 98.31769 214.526287 
L 98.379043 214.5878 
L 99.013024 215.396201 
L 99.018136 215.389026 
L 99.161293 215.18125 
L 99.186857 215.221307 
L 99.34024 215.015023 
L 99.534524 214.639085 
L 99.560088 214.649823 
L 99.595877 214.662575 
L 99.641892 214.581304 
L 99.774823 214.454398 
L 99.785049 214.469673 
L 99.912868 214.424721 
L 100.107152 214.438475 
L 100.51106 214.439693 
L 100.858727 214.816095 
L 101.006996 214.845761 
L 101.037673 214.882931 
L 101.109251 214.829136 
L 101.196168 214.80032 
L 101.155266 214.842598 
L 101.221732 214.826266 
L 101.313761 214.920968 
L 101.482482 215.157837 
L 101.49782 215.150139 
L 101.53361 215.224164 
L 101.554061 215.229885 
L 101.584737 215.264667 
L 101.625639 215.179024 
L 101.656316 215.185485 
L 101.763683 215.191238 
L 101.932404 215.350311 
L 102.101125 215.352101 
L 101.94263 215.366418 
L 102.106238 215.361436 
L 102.274958 215.506972 
L 102.346537 215.56735 
L 102.356762 215.589511 
L 102.489694 215.673147 
L 102.494807 215.667317 
L 102.561272 215.64758 
L 102.52037 215.689714 
L 102.591949 215.715621 
L 102.653302 215.830689 
L 102.919165 216.130419 
L 102.934503 216.095472 
L 102.985631 216.161697 
L 103.02142 216.150525 
L 103.190141 216.264483 
L 103.195254 216.250293 
L 103.323072 216.187941 
L 103.333298 216.204744 
L 103.343523 216.215975 
L 103.404876 216.128749 
L 103.409989 216.12738 
L 103.466229 216.178309 
L 103.542921 216.073876 
L 103.645176 216.098274 
L 103.660514 216.121294 
L 103.670739 216.115642 
L 103.813896 216.179569 
L 103.936602 216.203694 
L 103.941715 216.209063 
L 103.972392 216.19724 
L 103.997955 216.116532 
L 104.003068 216.11539 
L 104.141112 215.972658 
L 104.171789 216.034164 
L 104.34051 216.251781 
L 104.386524 216.186524 
L 104.565471 215.968806 
L 104.652387 215.9686 
L 104.621711 215.93629 
L 104.667726 215.926287 
L 104.964265 215.575118 
L 104.969378 215.578035 
L 105.051182 215.645605 
L 105.097197 215.60245 
L 105.51133 215.002627 
L 105.516442 215.010562 
L 105.603359 214.941149 
L 105.705614 214.897421 
L 105.639148 214.953356 
L 105.720952 214.922001 
L 105.879448 215.044296 
L 105.956139 215.000023 
L 106.007266 215.040213 
L 106.44185 215.285393 
L 106.513429 215.324362 
L 106.477639 215.326972 
L 106.53388 215.345748 
L 106.963351 215.686213 
L 106.968463 215.673237 
L 107.05538 215.741425 
L 107.167861 215.742245 
L 107.183199 215.717349 
L 107.218988 215.718624 
L 107.198537 215.732485 
L 107.270116 215.779328 
L 107.382596 215.781799 
L 107.387709 215.770936 
L 107.541091 215.676396 
L 107.551317 215.68861 
L 107.622895 215.636499 
L 107.633121 215.617857 
L 107.776278 215.477559 
L 107.806954 215.50626 
L 107.975675 215.369916 
L 108.16996 215.197593 
L 108.267102 215.156149 
L 108.277328 215.125338 
L 108.543191 214.798021 
L 108.548303 214.800836 
L 108.624995 214.758904 
L 108.563642 214.78155 
L 108.640333 214.739495 
L 108.977774 214.33241 
L 109.202735 214.095809 
L 109.223186 214.11602 
L 109.264088 214.057522 
L 109.30499 214.06026 
L 109.519726 213.907354 
L 109.708898 213.758607 
L 109.775363 213.749199 
L 109.800927 213.692648 
L 109.841829 213.71918 
L 109.949197 213.652056 
L 110.046339 213.599093 
L 110.051452 213.590417 
L 110.12303 213.568408 
L 110.163932 213.595158 
L 110.179271 213.597564 
L 110.235511 213.521673 
L 110.440021 213.393449 
L 110.552502 213.296581 
L 110.634306 213.268482 
L 110.670095 213.288417 
L 110.838816 213.372138 
L 110.915507 213.251027 
L 111.058664 213.19331 
L 111.150693 213.183957 
L 111.08934 213.170457 
L 111.160919 213.160823 
L 111.99941 212.183666 
L 112.132341 212.040603 
L 112.326626 211.882265 
L 112.331739 211.890249 
L 112.336851 211.896221 
L 112.398204 211.822884 
L 112.551587 211.571846 
L 113.011735 210.675432 
L 113.042411 210.594283 
L 113.185568 210.381312 
L 114.264358 207.830151 
L 114.284809 207.813928 
L 114.310373 207.748733 
L 114.637589 206.876356 
L 114.811423 206.495983 
L 115.051722 206.214581 
L 115.118188 206.166245 
L 115.072173 206.179896 
L 115.133526 206.144094 
L 115.47608 205.581471 
L 115.532321 205.565674 
L 115.56811 205.524242 
L 116.222542 204.911901 
L 116.23788 204.923785 
L 116.289008 204.840008 
L 116.437277 204.695192 
L 116.467954 204.679954 
L 116.508856 204.611719 
L 116.59066 204.500306 
L 116.779832 204.254302 
L 116.856523 204.170989 
L 117.101935 203.802093 
L 117.26043 203.604358 
L 117.342234 203.526254 
L 117.526293 203.247186 
L 118.364784 201.955365 
L 118.426137 201.918571 
L 118.441476 201.886809 
L 118.651098 201.621623 
L 118.855608 201.44612 
L 119.003878 201.296513 
L 119.147035 201.155211 
L 119.157261 201.160194 
L 119.382222 200.993463 
L 119.515153 200.886687 
L 120.190036 200.152226 
L 120.251389 200.072841 
L 120.384321 200.026846 
L 120.706424 199.68312 
L 120.808679 199.602163 
L 121.054091 199.230079 
L 121.069429 199.236159 
L 121.110331 199.180014 
L 121.146121 199.175256 
L 121.401758 198.84555 
L 121.601155 198.537677 
L 121.902808 198.069726 
L 123.651368 195.230217 
L 124.009261 194.548366 
L 125.149404 192.876671 
L 125.154517 192.881632 
L 126.662778 191.043502 
L 127.255857 190.155625 
L 127.337661 190.031397 
L 127.946079 189.272889 
L 128.242618 188.992946 
L 128.48803 188.763853 
L 128.564722 188.706773 
L 128.574947 188.687211 
L 128.789683 188.427573 
L 129.081109 188.266782 
L 129.352085 187.969365 
L 129.433889 187.877207 
L 129.679301 187.577576 
L 129.832684 187.389789 
L 130.144562 187.06231 
L 130.257042 186.957387 
L 131.857333 185.393838 
L 132.020941 185.25676 
L 132.286804 185.031341 
L 133.52409 183.872767 
L 133.646796 183.756771 
L 134.071154 183.375088 
L 134.147845 183.331997 
L 134.163183 183.308391 
L 134.613105 182.878485 
L 134.766488 182.757849 
L 135.236861 182.412241 
L 135.415807 182.325954 
L 136.162269 181.716588 
L 136.806475 181.061874 
L 137.118353 180.756254 
L 137.747222 180.060158 
L 137.87504 179.934387 
L 138.186918 179.633108 
L 138.984507 178.851639 
L 139.291272 178.526869 
L 142.35381 174.621216 
L 142.640124 174.244504 
L 142.757717 174.118081 
L 143.493953 173.450688 
L 143.89786 173.207129 
L 144.332444 173.003837 
L 144.542067 172.911422 
L 144.75169 172.811908 
L 149.153768 171.131571 
L 149.353165 171.070245 
L 149.787749 170.943415 
L 150.319475 170.794333 
L 150.529098 170.70203 
L 150.810299 170.660265 
L 151.025035 170.632087 
L 152.840061 170.086621 
L 152.988331 170.010072 
L 153.249081 169.920933 
L 153.458704 169.803004 
L 154.624411 169.243327 
L 154.788019 169.148389 
L 155.156137 168.982167 
L 155.329971 168.88822 
L 155.733878 168.689994 
L 158.530552 167.381234 
L 159.128744 167.018692 
L 160.207535 166.44062 
L 160.452947 166.292857 
L 160.856854 166.096497 
L 161.541962 165.746946 
L 161.695345 165.656784 
L 162.063463 165.473374 
L 162.452032 165.226189 
L 162.809925 165.027482 
L 165.739531 163.299592 
L 165.974717 163.131289 
L 166.547345 162.693484 
L 166.981929 162.415852 
L 167.61591 162.023798 
L 167.938013 161.824038 
L 168.653798 161.304878 
L 168.950338 161.123104 
L 169.461613 160.794376 
L 171.496488 159.642192 
L 171.700998 159.549809 
L 172.605955 159.140429 
L 172.830916 159.064113 
L 173.720534 158.6722 
L 174.45677 158.442087 
L 174.80955 158.331995 
L 175.351502 158.159686 
L 178.132838 157.392818 
L 178.475392 157.309817 
L 179.186065 157.126021 
L 179.528619 156.998939 
L 179.789369 156.933689 
L 180.213727 156.809392 
L 180.42335 156.7516 
L 180.740341 156.684085 
L 181.220939 156.565222 
L 182.775215 156.361812 
L 183.005289 156.343362 
L 183.352956 156.312782 
L 183.577917 156.267309 
L 186.880754 156.098142 
L 188.542398 156.245856 
L 190.510807 156.532703 
L 191.001631 156.515602 
L 191.466891 156.507329 
L 191.656063 156.519795 
L 191.911701 156.532693 
L 192.203127 156.503917 
L 192.525231 156.494961 
L 192.780868 156.492538 
L 194.263566 156.464111 
L 194.580556 156.407972 
L 196.032578 156.149404 
L 196.646108 155.993574 
L 196.906858 155.916446 
L 197.683996 155.740714 
L 197.990761 155.697587 
L 199.100228 155.53023 
L 199.856915 155.401266 
L 204.795832 154.400684 
L 205.10771 154.382824 
L 205.92575 154.268617 
L 206.641535 154.196444 
L 206.907398 154.1676 
L 207.275516 154.127124 
L 207.664085 154.056838 
L 208.344081 153.93566 
L 208.773552 153.855653 
L 209.995499 153.747409 
L 210.281813 153.74101 
L 210.670382 153.737725 
L 211.299251 153.679896 
L 211.677594 153.623663 
L 212.776835 153.432229 
L 213.594876 153.272478 
L 213.886302 153.18071 
L 214.162391 153.100951 
L 214.765695 152.924215 
L 215.455917 152.653042 
L 220.277241 150.95082 
L 220.957236 150.767369 
L 221.795727 150.546948 
L 222.240537 150.393404 
L 227.685616 148.8703 
L 232.788141 147.795734 
L 233.851593 147.464962 
L 234.833241 147.206805 
L 235.196247 147.09256 
L 236.934582 146.717817 
L 238.396828 146.075009 
L 239.260883 145.67827 
L 239.721031 145.437519 
L 241.259969 144.642739 
L 243.17725 143.900955 
L 247.477073 142.58803 
L 247.978123 142.471174 
L 249.077364 142.202897 
L 251.122464 141.668962 
L 251.557048 141.556048 
L 253.740193 141.200147 
L 254.379286 141.152793 
L 255.130861 141.040938 
L 255.78018 140.826147 
L 257.615658 140.270657 
L 258.689335 140.029773 
L 263.704943 139.369974 
L 264.344037 139.344718 
L 264.640577 139.32266 
L 265.877862 139.203732 
L 266.915751 139.047748 
L 268.47514 138.757432 
L 268.863709 138.712291 
L 270.867907 138.41215 
L 275.116603 138.048552 
L 275.116603 138.048552 
" style="fill:none;stroke:#2ca02c;stroke-linecap:square;stroke-width:1.5;"/>
   </g>
   <g id="line2d_50">
    <path clip-path="url(#p2a9c087e7d)" d="M 73.832727 206.923822 
L 73.899193 209.060286 
L 74.931969 252.665534 
L 75.090464 261.107253 
L 75.12114 259.471449 
L 75.305199 248.19322 
L 75.320538 248.363111 
L 75.356327 248.776221 
L 75.8267 263.15655 
L 75.872715 262.157268 
L 75.949406 259.067149 
L 76.036323 260.33912 
L 76.148803 262.865454 
L 76.189705 261.622185 
L 76.435117 249.775844 
L 76.619176 240.079391 
L 76.685642 241.02139 
L 76.828799 241.886427 
L 76.839025 241.854288 
L 76.864588 241.751041 
L 76.890152 241.651164 
L 76.936167 241.859545 
L 77.079324 243.189838 
L 77.11 242.960097 
L 77.176466 243.119122 
L 77.386089 242.069515 
L 77.452555 242.240434 
L 77.641726 243.694757 
L 78.193903 252.56031 
L 78.500669 254.970392 
L 78.551796 254.745365 
L 78.57736 254.631153 
L 78.6336 255.094815 
L 78.638713 255.054295 
L 78.827885 257.012957 
L 78.93014 257.936326 
L 78.971042 257.378646 
L 79.037507 256.498791 
L 79.088635 257.109955 
L 79.896449 276.238137 
L 79.937351 275.533175 
L 80.116298 267.126973 
L 80.315695 262.681299 
L 80.397499 262.303936 
L 80.448626 262.33874 
L 80.469077 262.285469 
L 80.555994 263.088062 
L 80.724715 266.357266 
L 81.097946 274.056106 
L 81.143961 273.973332 
L 81.189975 274.96494 
L 81.363809 280.046001 
L 81.389373 280.003738 
L 81.399598 280.069223 
L 81.445613 279.499108 
L 81.450726 279.525856 
L 81.455838 279.518854 
L 81.471177 279.657954 
L 81.49674 279.64444 
L 81.650123 282.867271 
L 81.680799 282.800277 
L 81.757491 280.454729 
L 81.829069 281.879315 
L 82.105158 286.821742 
L 82.181849 287.075599 
L 82.227864 286.452031 
L 82.232976 286.444141 
L 82.238089 286.559161 
L 82.248315 286.557129 
L 82.371021 287.44582 
L 82.284104 286.543172 
L 82.386359 287.167239 
L 82.391472 287.118299 
L 82.411923 287.739235 
L 82.616433 295.488 
L 82.672673 294.190737 
L 82.688011 294.06379 
L 82.739139 292.243379 
L 82.785153 288.720406 
L 82.994776 275.967685 
L 82.999889 276.021424 
L 83.010114 276.165302 
L 83.045904 275.697615 
L 83.102144 275.908439 
L 83.107257 275.928991 
L 83.122595 275.709121 
L 83.209512 274.86053 
L 83.235075 275.463163 
L 83.332218 276.882364 
L 83.245301 275.292849 
L 83.378232 276.187384 
L 83.454924 275.672603 
L 83.4856 276.127874 
L 83.684998 280.354916 
L 83.695223 280.139235 
L 83.761689 278.47751 
L 83.823042 279.518447 
L 83.935522 281.672709 
L 83.961086 281.004359 
L 84.104243 275.148995 
L 84.180934 277.490077 
L 84.416121 282.890425 
L 84.262738 276.915878 
L 84.426346 282.402539 
L 84.625744 276.49143 
L 84.707548 278.760379 
L 84.733111 279.058434 
L 84.789352 278.492988 
L 84.80469 278.769589 
L 84.830254 278.157175 
L 84.912058 278.895228 
L 84.958072 279.89542 
L 85.029651 279.548571 
L 85.101229 278.465861 
L 85.147244 279.171119 
L 85.15747 279.337328 
L 85.193259 277.82417 
L 85.315965 272.320968 
L 85.367092 270.223313 
L 85.443784 270.447897 
L 85.500024 271.136158 
L 85.571602 270.976557 
L 85.576715 271.051356 
L 85.638068 270.403422 
L 85.668745 269.494899 
L 85.694308 268.625121 
L 85.786338 268.800252 
L 85.842578 266.445759 
L 86.001074 264.551356 
L 86.011299 264.400671 
L 86.098216 264.841198 
L 86.103329 264.720943 
L 86.12378 264.883089 
L 86.149343 264.314018 
L 86.307839 262.7312 
L 86.32829 262.934438 
L 86.502123 264.330459 
L 86.338515 262.932538 
L 86.522574 264.130966 
L 86.568589 263.853175 
L 86.609491 264.251016 
L 86.635055 264.111254 
L 86.834452 267.489949 
L 86.860016 267.310385 
L 86.967383 266.291413 
L 87.013398 266.663633 
L 87.141217 269.261412 
L 87.171893 268.953916 
L 87.182119 268.855092 
L 87.207683 268.100901 
L 87.279261 269.413656 
L 87.31505 269.87905 
L 87.391742 270.890132 
L 87.427531 269.969578 
L 87.432644 269.974998 
L 87.437756 269.819888 
L 87.524673 268.671799 
L 87.560462 269.163836 
L 87.596252 269.511557 
L 87.657605 268.937559 
L 87.800762 265.778166 
L 87.810987 265.687342 
L 87.933693 265.18946 
L 87.887678 265.830441 
L 87.938806 265.189966 
L 87.949031 265.032593 
L 87.989933 265.541087 
L 88.051286 265.101978 
L 88.056399 265.109956 
L 88.066625 265.004867 
L 88.07685 265.030631 
L 88.117752 264.159747 
L 88.163767 265.259156 
L 88.271135 266.405364 
L 88.286473 266.068593 
L 88.444968 264.814182 
L 88.460307 264.9863 
L 88.516547 265.496761 
L 88.567674 264.955346 
L 88.680155 262.719295 
L 88.715944 263.515747 
L 88.721057 263.494692 
L 88.736395 263.7864 
L 88.925567 265.43212 
L 88.940905 265.630123 
L 89.089175 268.127938 
L 89.0994 267.886948 
L 89.170979 266.698344 
L 89.222106 267.194733 
L 89.334587 268.514229 
L 89.365263 268.285312 
L 89.569773 266.253547 
L 89.835636 263.520487 
L 89.60045 266.349101 
L 89.891877 264.030252 
L 89.902102 263.833738 
L 89.907215 263.854737 
L 90.183303 258.968538 
L 90.208867 258.98737 
L 90.357137 260.034922 
L 90.367362 260.008806 
L 90.382701 259.908484 
L 90.392926 260.083893 
L 90.490068 260.200812 
L 90.433828 259.57768 
L 90.505407 260.178388 
L 90.730368 257.916672 
L 90.776383 258.835372 
L 91.047358 263.904173 
L 91.057584 263.770292 
L 91.195628 264.694865 
L 91.29277 266.554196 
L 91.333672 265.558716 
L 91.343898 265.581397 
L 91.349011 265.522874 
L 91.379687 265.159284 
L 91.451266 265.655752 
L 91.512619 266.344748 
L 91.558633 265.69047 
L 91.650663 264.986868 
L 91.584197 265.703332 
L 91.691565 265.516252 
L 91.993217 270.040011 
L 92.013668 269.782658 
L 92.029006 269.895635 
L 92.039232 269.780221 
L 92.177276 268.016924 
L 92.35111 269.949549 
L 92.218178 267.789766 
L 92.386899 269.40071 
L 92.427801 268.904665 
L 92.509605 269.30449 
L 92.657875 270.64007 
L 92.6681 270.398619 
L 92.806144 268.634149 
L 92.821483 268.90333 
L 92.898174 269.401385 
L 92.903287 269.565838 
L 92.979978 268.610761 
L 93.092458 266.921519 
L 93.184488 267.668632 
L 93.245841 268.379539 
L 93.296969 267.843913 
L 93.680425 262.515452 
L 93.363434 268.018624 
L 93.777567 263.272846 
L 93.874709 265.471575 
L 93.941175 265.307539 
L 94.028092 265.861029 
L 94.058768 265.453323 
L 94.176362 264.519 
L 94.196813 264.558708 
L 94.278617 264.95313 
L 94.416661 265.745665 
L 94.431999 265.695215 
L 94.575156 264.402265 
L 94.621171 264.601587 
L 94.626284 264.688866 
L 94.682524 263.895078 
L 94.687637 263.925918 
L 94.759215 262.463825 
L 94.841019 263.371575 
L 95.060867 266.076453 
L 95.076206 266.013435 
L 95.106882 265.664897 
L 95.163122 266.382229 
L 95.183573 266.67587 
L 95.219363 266.181694 
L 95.316505 264.542902 
L 95.388083 264.766719 
L 95.393196 264.748895 
L 95.403422 265.015374 
L 95.428985 264.993114 
L 95.434098 265.045567 
L 95.485226 264.426967 
L 95.495451 264.531994 
L 95.551691 264.462942 
L 95.510789 264.68264 
L 95.56703 264.652632 
L 95.705074 265.880859 
L 95.720412 265.788819 
L 95.761314 265.453563 
L 95.740863 265.808734 
L 95.77154 265.487812 
L 95.791991 265.490248 
L 95.914697 264.882505 
L 95.960712 263.978652 
L 96.027177 264.660408 
L 96.18056 266.094131 
L 96.231687 267.264375 
L 96.303266 266.507522 
L 96.323717 266.608302 
L 96.364619 266.27839 
L 96.374844 266.167926 
L 96.53334 264.035502 
L 96.543565 264.096904 
L 96.594693 264.075758 
L 96.666271 264.820364 
L 96.79409 266.550201 
L 96.819654 266.359751 
L 96.85033 266.038841 
L 96.927021 266.254332 
L 97.013938 267.698388 
L 97.05484 267.1802 
L 97.264463 264.772875 
L 97.320703 264.950483 
L 97.274688 264.722758 
L 97.341154 264.824116 
L 97.402507 264.457457 
L 97.376943 264.878137 
L 97.458747 264.52633 
L 97.535439 265.154795 
L 97.576341 264.6813 
L 97.601904 264.386182 
L 97.642806 264.773397 
L 97.658145 264.747021 
L 97.770625 265.861029 
L 97.806414 265.73215 
L 97.867767 265.327574 
L 97.913782 265.776658 
L 97.934233 265.636524 
L 98.097841 267.008051 
L 98.333028 265.181831 
L 98.16942 267.235212 
L 98.440396 265.645986 
L 98.496636 266.082942 
L 98.542651 265.515532 
L 98.711371 266.196213 
L 98.716484 265.983662 
L 98.808514 266.69157 
L 98.936332 268.930185 
L 98.98746 268.626424 
L 99.079489 269.189411 
L 99.105053 268.913091 
L 99.115279 268.672221 
L 99.197083 269.386882 
L 99.299338 270.503732 
L 99.330014 270.438568 
L 99.422044 269.694284 
L 99.447607 270.184788 
L 99.468058 269.974197 
L 99.493622 270.531108 
L 99.580539 270.76425 
L 99.514073 270.466692 
L 99.60099 270.590207 
L 99.733921 269.465268 
L 99.74926 269.665717 
L 99.887304 270.295599 
L 99.764598 269.641715 
L 99.902642 270.012548 
L 99.907755 269.920733 
L 99.974221 270.60467 
L 100.132716 272.632266 
L 100.163392 272.658251 
L 100.183843 272.127309 
L 100.234971 272.80334 
L 100.27076 272.567384 
L 100.280986 272.803266 
L 100.337226 271.985143 
L 100.454819 270.577786 
L 100.459932 270.622716 
L 100.490608 271.542616 
L 100.603089 271.295352 
L 100.741133 270.00005 
L 100.746246 270.015289 
L 100.766697 269.823612 
L 100.909854 268.673113 
L 100.925192 268.736656 
L 100.960982 269.092669 
L 101.001884 268.131675 
L 101.006996 268.240015 
L 101.145041 267.206045 
L 101.231957 266.831632 
L 101.482482 265.050526 
L 101.508046 265.375548 
L 101.651203 266.518089 
L 101.656316 266.498549 
L 101.814811 265.631958 
L 101.819924 265.733135 
L 101.865938 265.094591 
L 101.90684 265.321969 
L 101.968193 265.015536 
L 102.009095 265.343398 
L 102.039772 265.707911 
L 102.121576 265.46965 
L 102.290297 265.158623 
L 102.136914 265.531789 
L 102.300522 265.276465 
L 102.326086 265.688591 
L 102.392552 265.051857 
L 102.397664 265.073756 
L 102.510145 264.200664 
L 102.540821 264.443512 
L 102.566385 264.486632 
L 102.602174 264.109671 
L 102.719768 262.319806 
L 102.729993 262.3212 
L 102.735106 262.334182 
L 102.76067 262.10269 
L 102.770895 262.128549 
L 102.857812 261.862422 
L 102.842474 262.25438 
L 102.893601 262.008719 
L 103.236156 260.060076 
L 102.908939 262.044901 
L 103.251494 260.251159 
L 103.338411 260.69899 
L 103.369087 260.632859 
L 104.038857 255.811683 
L 104.095098 255.971401 
L 104.110436 256.137591 
L 104.166676 255.614435 
L 104.176902 255.688757 
L 104.238255 255.793319 
L 104.289382 255.516532 
L 104.294495 255.588591 
L 104.371186 255.186547 
L 104.54502 253.554343 
L 104.616598 254.338389 
L 104.887574 256.467168 
L 104.892687 256.456742 
L 104.897799 256.596675 
L 104.913138 256.783205 
L 104.959152 256.299751 
L 104.994942 256.443133 
L 105.086971 255.901329 
L 105.112535 256.096008 
L 105.184113 255.429183 
L 105.235241 255.810841 
L 105.398849 256.244298 
L 105.281256 255.689656 
L 105.429526 256.028657 
L 105.542006 255.751908 
L 105.506217 256.117935 
L 105.562457 255.858535 
L 105.639148 256.414425 
L 105.685163 256.124041 
L 105.761854 256.289731 
L 105.710727 256.062964 
L 105.782305 256.075398 
L 105.858997 255.620013 
L 105.864109 255.631037 
L 105.997041 254.766425 
L 106.002154 254.79526 
L 106.12486 255.076355 
L 106.129972 255.037885 
L 106.191325 255.397861 
L 106.196438 255.347446 
L 106.201551 255.361174 
L 106.222002 255.224103 
L 106.273129 255.250329 
L 106.365159 254.917458 
L 106.411174 254.953437 
L 106.431625 254.969927 
L 106.44185 254.802293 
L 106.446963 254.808631 
L 106.59012 254.097592 
L 106.595233 254.1288 
L 106.891772 251.610313 
L 106.610571 254.158983 
L 106.896885 251.676076 
L 106.937787 251.792019 
L 106.968463 251.49898 
L 107.157635 250.839658 
L 107.167861 250.94779 
L 107.244552 251.401862 
L 107.270116 250.881176 
L 107.418385 250.505659 
L 107.428611 250.633891 
L 107.443949 250.752849 
L 107.500189 250.358897 
L 107.535979 249.959367 
L 107.617783 250.240028 
L 107.648459 250.169023 
L 107.663797 250.310366 
L 107.766052 250.597015 
L 107.786503 250.438998 
L 107.842744 250.187119 
L 107.90921 250.298786 
L 107.929661 250.294197 
L 108.031916 249.541249 
L 108.057479 249.694544 
L 108.195524 249.191206 
L 108.108607 249.767499 
L 108.200636 249.278867 
L 108.205749 249.29491 
L 108.2262 249.116241 
L 108.246651 249.127653 
L 108.359132 248.781523 
L 108.277328 249.140217 
L 108.379583 248.821173 
L 108.471612 248.93962 
L 108.405146 248.748269 
L 108.497176 248.859897 
L 108.507401 248.769755 
L 108.553416 249.073705 
L 108.57898 249.074539 
L 108.737475 249.820776 
L 108.742588 249.777854 
L 108.747701 249.772235 
L 108.768152 249.901229 
L 108.773264 249.967767 
L 108.844843 249.786216 
L 108.865294 249.876894 
L 108.988 249.165763 
L 108.998225 249.260655 
L 109.049353 249.360406 
L 109.013564 249.194493 
L 109.085142 249.204359 
L 109.151608 249.370295 
L 109.197623 249.153586 
L 109.202735 249.205265 
L 109.258976 248.718616 
L 109.269201 248.768235 
L 109.407245 248.403714 
L 109.279427 248.773052 
L 109.427696 248.487133 
L 109.432809 248.501733 
L 109.463486 248.262399 
L 109.606643 247.141579 
L 109.621981 247.161356 
L 109.632206 247.244642 
L 109.703785 247.047196 
L 109.729349 247.133417 
L 109.811153 246.795057 
L 109.867393 246.916706 
L 109.91852 246.871581 
L 109.949197 247.073584 
L 109.959422 247.159287 
L 109.995212 246.935874 
L 110.051452 246.964368 
L 110.092354 247.139018 
L 110.15882 246.928177 
L 110.163932 246.943417 
L 110.204834 246.773274 
L 110.220173 246.782759 
L 110.317315 246.645361 
L 110.342879 246.741443 
L 110.383781 246.826549 
L 110.409345 246.6427 
L 110.450247 246.714912 
L 110.491149 246.551144 
L 110.97686 244.068294 
L 111.135355 243.207377 
L 111.196708 242.943102 
L 111.283625 242.51451 
L 111.319414 242.676804 
L 111.350091 242.750523 
L 111.411444 242.494323 
L 111.416556 242.502762 
L 111.431895 242.345074 
L 111.437007 242.354755 
L 111.600615 241.94012 
L 111.447233 242.357317 
L 111.605728 241.94533 
L 111.651743 241.833969 
L 111.692645 241.990486 
L 111.713096 242.076101 
L 111.759111 241.779451 
L 111.764223 241.791701 
L 111.789787 241.81414 
L 111.897155 241.436501 
L 111.932944 241.593859 
L 111.968733 241.415429 
L 112.009635 241.439777 
L 112.106778 241.265156 
L 112.132341 241.317354 
L 112.142567 241.393861 
L 112.224371 241.149829 
L 112.229484 241.168119 
L 112.255047 241.211214 
L 112.336851 240.972504 
L 112.439106 240.741031 
L 112.459557 240.810195 
L 112.546474 240.283011 
L 112.633391 240.327299 
L 112.679406 240.518716 
L 112.756097 240.334429 
L 112.812337 240.142796 
L 113.165117 238.351082 
L 113.206019 238.438263 
L 113.221357 238.379381 
L 113.384965 238.805228 
L 113.400304 238.726243 
L 113.48722 238.909126 
L 113.620152 238.690031 
L 113.512784 238.960485 
L 113.650828 238.727109 
L 113.768422 238.797091 
L 113.686618 238.578832 
L 113.788873 238.784026 
L 114.274584 237.376937 
L 113.799098 238.822493 
L 114.30526 237.456486 
L 114.325711 237.457766 
L 114.351275 237.340143 
L 114.366613 237.371994 
L 114.54556 237.015055 
L 114.555785 237.049819 
L 114.627364 236.880633 
L 114.816535 236.566717 
L 114.821648 236.602752 
L 114.893227 236.347303 
L 114.929016 236.223433 
L 115.102849 235.238108 
L 115.107962 235.252111 
L 115.1233 235.295268 
L 115.153977 235.155496 
L 115.194879 235.18069 
L 115.445404 234.164858 
L 115.460742 234.206901 
L 115.793071 233.477843 
L 116.007806 232.738982 
L 115.803296 233.482412 
L 116.023145 232.800425 
L 116.028257 232.831745 
L 116.084498 232.665182 
L 116.120287 232.708575 
L 116.140738 232.721713 
L 116.365699 231.71316 
L 116.524194 231.020105 
L 116.565096 231.033693 
L 116.575322 231.068078 
L 116.595773 230.946503 
L 116.723591 230.848021 
L 116.744042 230.826968 
L 116.856523 231.025583 
L 116.94344 230.937785 
L 116.90765 231.050828 
L 116.974116 231.00529 
L 117.071258 231.320073 
L 117.132611 231.266797 
L 117.224641 230.986202 
L 117.26043 231.116282 
L 117.321783 231.007852 
L 117.413813 231.229549 
L 117.424038 231.176617 
L 117.500729 231.294404 
L 117.505842 231.285436 
L 117.541631 231.261659 
L 117.654112 231.518713 
L 118.334108 230.557986 
L 118.385235 230.690016 
L 118.400574 230.75028 
L 118.467039 230.573711 
L 118.472152 230.585283 
L 118.640873 230.227019 
L 118.671549 230.086701 
L 119.392447 228.359075 
L 119.745227 227.112041 
L 119.75034 227.121216 
L 119.775903 226.977486 
L 119.949737 226.561265 
L 119.95485 226.563906 
L 119.970188 226.630711 
L 120.021315 226.469862 
L 120.026428 226.469454 
L 120.154247 226.238242 
L 120.164473 226.233215 
L 120.179811 226.135749 
L 120.190036 226.148465 
L 120.30763 225.831945 
L 120.491689 225.163952 
L 120.71665 224.506427 
L 120.737101 224.527357 
L 120.762664 224.559871 
L 120.803566 224.405886 
L 121.4989 222.858765 
L 121.698298 222.291539 
L 121.70341 222.308109 
L 121.744312 222.113207 
L 121.754538 222.110441 
L 121.938597 221.561529 
L 122.235136 220.42409 
L 122.240249 220.432459 
L 122.276038 220.278855 
L 122.475436 219.459379 
L 122.659495 218.985 
L 122.664608 219.001348 
L 122.690171 218.909585 
L 122.884456 218.515789 
L 123.027613 218.291781 
L 123.104304 218.346164 
L 123.175883 218.205025 
L 123.436633 217.580997 
L 123.630917 217.279479 
L 123.656481 217.341679 
L 123.671819 217.364578 
L 123.697383 217.242557 
L 123.702496 217.252566 
L 123.886555 216.853354 
L 123.891668 216.869826 
L 123.93257 216.774855 
L 124.213771 215.998322 
L 124.290462 215.885004 
L 124.479634 215.384764 
L 124.484747 215.398863 
L 124.551212 215.256336 
L 124.689257 215.085348 
L 124.699482 215.099153 
L 124.745497 215.055107 
L 124.755722 215.015222 
L 125.001135 214.503551 
L 125.619777 213.72156 
L 125.747596 213.565529 
L 125.762934 213.582288 
L 125.793611 213.627887 
L 125.849851 213.531076 
L 125.972557 213.363221 
L 125.97767 213.369675 
L 125.982783 213.376796 
L 126.03391 213.282337 
L 126.304886 212.720484 
L 126.402028 212.681416 
L 126.407141 212.669896 
L 126.616764 212.30023 
L 126.621876 212.308016 
L 126.673004 212.145636 
L 126.969543 211.600547 
L 127.087137 211.452907 
L 127.107588 211.494724 
L 127.240519 211.383663 
L 127.250745 211.421494 
L 127.327436 211.473307 
L 127.363225 211.396996 
L 127.521721 211.067957 
L 127.685329 210.734439 
L 127.695554 210.740095 
L 127.741569 210.638113 
L 128.068785 210.103407 
L 128.073898 210.114431 
L 128.150589 210.030277 
L 128.155702 210.044132 
L 128.293746 209.891299 
L 128.518707 209.538909 
L 128.534045 209.551414 
L 128.595398 209.471176 
L 128.610736 209.485391 
L 128.723217 209.418585 
L 128.733442 209.437158 
L 128.78457 209.422704 
L 128.805021 209.37236 
L 128.93284 209.24975 
L 128.983967 209.272854 
L 129.019756 209.163761 
L 129.13735 209.073824 
L 129.280507 208.888604 
L 129.418551 208.769857 
L 129.449227 208.786041 
L 129.536144 208.708595 
L 129.735541 208.331397 
L 129.740654 208.335145 
L 130.36441 207.334189 
L 130.369523 207.350008 
L 130.374635 207.351953 
L 130.395086 207.250607 
L 130.400199 207.248021 
L 130.630273 206.911023 
L 130.671175 206.882832 
L 130.696739 206.831441 
L 130.839896 206.620119 
L 130.845008 206.629297 
L 132.920785 204.405036 
L 132.925898 204.416256 
L 132.931011 204.422121 
L 132.997476 204.329672 
L 133.217325 204.131533 
L 133.472962 204.032961 
L 133.529202 203.962634 
L 133.559879 203.964986 
L 133.922884 203.768352 
L 134.117169 203.912223 
L 134.168296 203.883572 
L 134.132507 203.892198 
L 134.198973 203.848215 
L 134.996562 202.845912 
L 135.236861 202.571336 
L 135.247087 202.576799 
L 135.293101 202.488868 
L 135.303327 202.483246 
L 135.778813 201.523297 
L 136.116254 201.042974 
L 136.141818 201.023581 
L 136.177607 200.958884 
L 136.320764 200.77191 
L 136.366779 200.725894 
L 136.351441 200.722567 
L 136.38723 200.68952 
L 136.970083 199.84885 
L 137.154142 199.633999 
L 137.2973 199.4095 
L 137.471133 199.15894 
L 137.481359 199.166252 
L 137.542712 199.096063 
L 137.55805 199.089466 
L 137.67053 198.891751 
L 137.783011 198.805213 
L 137.793236 198.813817 
L 138.89759 198.037387 
L 139.081649 197.793683 
L 139.086762 197.797683 
L 139.117439 197.724599 
L 139.148115 197.707752 
L 139.618488 196.968435 
L 139.833224 196.624756 
L 139.945704 196.508976 
L 139.961043 196.535195 
L 140.099087 196.546726 
L 140.1042 196.539782 
L 140.252469 196.552864 
L 140.385401 196.609422 
L 140.487656 196.528681 
L 140.56946 196.482105 
L 140.605249 196.504953 
L 140.620587 196.505179 
L 140.666602 196.428805 
L 140.687053 196.431603 
L 140.912014 196.222454 
L 141.617574 195.575057 
L 141.627799 195.585485 
L 141.709603 195.579565 
L 141.730054 195.526563 
L 142.251555 195.117763 
L 142.936663 194.283354 
L 143.028693 194.279166 
L 143.054257 194.259494 
L 143.248541 194.164702 
L 143.253654 194.171552 
L 145.4777 191.713717 
L 145.656647 191.596708 
L 145.661759 191.603773 
L 145.723112 191.528718 
L 145.738451 191.527885 
L 145.861157 191.389831 
L 146.019652 191.294048 
L 146.12702 191.227121 
L 148.335728 188.783573 
L 148.519787 188.704585 
L 148.688508 188.654777 
L 148.770312 188.577873 
L 148.949258 188.392104 
L 148.979934 188.352633 
L 149.020836 188.323072 
L 149.215121 188.0864 
L 149.322489 187.954346 
L 149.608803 187.612678 
L 149.874666 187.269173 
L 150.017823 187.114997 
L 150.028048 187.120043 
L 150.155867 187.062897 
L 150.16098 187.0706 
L 150.299024 187.070817 
L 150.529098 187.072599 
L 151.290898 187.029112 
L 152.129389 186.572788 
L 152.415703 186.215011 
L 153.197954 185.445409 
L 153.32066 185.387781 
L 153.535395 185.304815 
L 153.995543 185.091273 
L 154.384112 184.79099 
L 154.389225 184.79717 
L 154.465916 184.718713 
L 154.573284 184.60898 
L 154.849372 184.448073 
L 156.163349 183.496332 
L 156.567256 183.190011 
L 156.664398 183.149543 
L 156.669511 183.141898 
L 158.019277 182.074621 
L 158.141983 181.993148 
L 158.366944 181.822219 
L 158.453861 181.737695 
L 158.893558 181.395779 
L 159.10318 181.186505 
L 159.266789 181.00073 
L 159.517313 180.715273 
L 159.645132 180.651332 
L 159.818966 180.533554 
L 160.335353 180.294396 
L 160.47851 180.22133 
L 160.780163 180.016876 
L 160.948883 180.036445 
L 161.097153 180.041896 
L 161.168732 180.034121 
L 161.204521 179.999936 
L 161.398805 179.911862 
L 161.50106 179.823656 
L 163.541048 178.20893 
L 163.955181 178.285874 
L 164.149465 178.275859 
L 164.451118 178.219021 
L 164.681191 178.083078 
L 164.814123 177.994922 
L 165.054422 177.869841 
L 165.228256 177.857863 
L 165.938928 177.663023 
L 166.082085 177.647437 
L 166.307046 177.461422 
L 166.465541 177.407192 
L 166.746743 177.409591 
L 166.869449 177.387722 
L 166.879674 177.395475 
L 167.063733 177.472988 
L 167.406287 177.661484 
L 168.393048 176.992679 
L 169.354245 176.029286 
L 170.003565 175.634049 
L 170.223413 175.583001 
L 171.573179 174.696697 
L 172.20716 174.478902 
L 172.754224 173.95574 
L 172.897381 173.857027 
L 173.209259 173.631249 
L 173.58249 173.384167 
L 173.965946 173.276129 
L 174.226697 173.145035 
L 174.466996 173.015231 
L 175.085639 172.626837 
L 175.208345 172.585932 
L 175.765634 172.301326 
L 176.113301 172.239293 
L 177.335249 171.926023 
L 177.483519 171.88003 
L 177.739156 171.832583 
L 178.045921 171.85745 
L 178.37825 171.936829 
L 178.777045 171.840689 
L 178.93554 171.800288 
L 179.80982 171.66929 
L 180.055232 171.662964 
L 181.788455 172.105074 
L 182.008303 172.24506 
L 183.148446 172.899876 
L 183.782427 173.068567 
L 184.08408 173.17938 
L 184.738512 173.361049 
L 184.922571 173.409398 
L 185.193546 173.560695 
L 185.346929 173.630782 
L 186.313239 174.295597 
L 186.5382 174.461322 
L 187.96977 175.443442 
L 188.097589 175.522068 
L 188.307211 175.687932 
L 188.634428 175.986324 
L 188.900291 176.153226 
L 190.705091 177.531623 
L 191.07321 177.868607 
L 191.190803 177.94212 
L 191.374862 178.083861 
L 192.177564 178.717753 
L 192.366735 178.87024 
L 195.362807 181.605651 
L 195.393484 181.608016 
L 195.454837 181.666284 
L 195.77694 181.852584 
L 195.843406 181.861134 
L 195.879195 181.894774 
L 196.007014 181.902745 
L 196.206411 181.922955 
L 196.518289 182.008507 
L 196.712573 182.043586 
L 196.835279 182.089071 
L 197.004 182.09675 
L 197.46926 182.007087 
L 197.627756 182.012663 
L 197.632868 182.004121 
L 197.806702 181.975848 
L 198.067452 182.008771 
L 198.333315 182.031965 
L 198.461134 182.05161 
L 198.665644 182.135418 
L 199.100228 181.993801 
L 199.350753 182.031419 
L 199.514361 182.015163 
L 199.621728 182.018492 
L 199.631954 182.025565 
L 200.046087 181.899866 
L 200.317062 181.708984 
L 200.496009 181.599392 
L 200.976607 181.067094 
L 201.114652 180.960694 
L 201.293598 180.835787 
L 201.487882 180.748134 
L 201.840662 180.37062 
L 202.00427 180.292342 
L 202.167878 180.254466 
L 202.336599 180.175169 
L 202.888776 179.779477 
L 203.08306 179.573082 
L 203.164865 179.490191 
L 203.752831 178.846792 
L 203.962454 178.616716 
L 204.156738 178.4844 
L 204.714028 178.100113 
L 205.046357 177.764074 
L 205.225303 177.653561 
L 205.434926 177.533069 
L 208.364532 175.681296 
L 208.615057 175.51008 
L 208.870694 175.336224 
L 209.013851 175.267039 
L 209.412646 175.183061 
L 210.031288 175.285983 
L 210.153994 175.282204 
L 210.159107 175.277211 
L 211.560001 174.890178 
L 211.698045 174.916596 
L 212.168418 174.737985 
L 213.318787 174.254646 
L 213.533523 174.248288 
L 213.656229 174.288563 
L 214.009008 174.507665 
L 214.264646 174.726339 
L 214.842387 175.211029 
L 215.190054 175.280662 
L 215.409902 175.222665 
L 215.767795 175.176217 
L 215.936515 175.109503 
L 216.376212 174.918842 
L 216.555158 174.78007 
L 216.560271 174.783428 
L 216.872149 174.983862 
L 217.286281 175.132967 
L 217.444777 175.139776 
L 217.633948 175.132449 
L 217.853797 175.104592 
L 218.513342 174.550067 
L 218.73319 174.350109 
L 218.973489 174.261566 
L 219.126872 174.177136 
L 219.305818 173.94696 
L 219.55123 173.626218 
L 220.287466 172.74581 
L 220.57378 172.422096 
L 221.07483 172.017926 
L 222.00535 171.330974 
L 222.255875 171.137335 
L 222.76715 170.803803 
L 223.447146 170.322071 
L 223.564739 170.230791 
L 223.871504 169.981913 
L 225.083226 169.402136 
L 225.267285 169.353526 
L 225.814349 169.084423 
L 226.371639 169.21073 
L 226.586375 169.259253 
L 226.872689 169.226625 
L 227.3584 169.072586 
L 227.557797 169.053786 
L 227.879901 169.097994 
L 228.421852 169.252267 
L 228.621249 169.232176 
L 228.769519 169.208785 
L 229.55177 169.12277 
L 229.786956 169.150407 
L 230.103947 169.21186 
L 230.46184 169.390399 
L 230.98334 169.563286 
L 231.586645 169.863282 
L 232.731901 169.815304 
L 233.013102 169.737592 
L 233.376107 169.572027 
L 233.64197 169.419418 
L 233.969186 169.316545 
L 234.516251 169.391137 
L 235.543914 169.962499 
L 236.208571 170.07501 
L 236.571576 169.967355 
L 236.868116 169.902634 
L 237.629916 169.571731 
L 237.854877 169.412347 
L 238.913216 169.144205 
L 239.915315 169.901134 
L 240.288546 170.244836 
L 241.418464 171.276537 
L 241.786582 171.5058 
L 242.272293 171.703363 
L 242.425676 171.72747 
L 242.71199 171.789876 
L 242.942064 171.833142 
L 243.141461 171.808101 
L 243.284618 171.807637 
L 243.540255 171.853485 
L 244.803105 172.354456 
L 245.007615 172.297612 
L 245.299042 172.209833 
L 247.200985 171.830605 
L 247.200985 171.830605 
" style="fill:none;stroke:#d62728;stroke-linecap:square;stroke-width:1.5;"/>
   </g>
   <g id="patch_3">
    <path d="M 57.6 307.584 
L 57.6 41.472 
" style="fill:none;stroke:#000000;stroke-linecap:square;stroke-linejoin:miter;stroke-width:0.8;"/>
   </g>
   <g id="patch_4">
    <path d="M 414.72 307.584 
L 414.72 41.472 
" style="fill:none;stroke:#000000;stroke-linecap:square;stroke-linejoin:miter;stroke-width:0.8;"/>
   </g>
   <g id="patch_5">
    <path d="M 57.6 307.584 
L 414.72 307.584 
" style="fill:none;stroke:#000000;stroke-linecap:square;stroke-linejoin:miter;stroke-width:0.8;"/>
   </g>
   <g id="patch_6">
    <path d="M 57.6 41.472 
L 414.72 41.472 
" style="fill:none;stroke:#000000;stroke-linecap:square;stroke-linejoin:miter;stroke-width:0.8;"/>
   </g>
   <g id="text_13">
    <!-- Trend of $\beta$ -->
    <defs>
     <path d="M -0.296875 72.90625 
L 61.375 72.90625 
L 61.375 64.59375 
L 35.5 64.59375 
L 35.5 0 
L 25.59375 0 
L 25.59375 64.59375 
L -0.296875 64.59375 
z
" id="DejaVuSans-84"/>
     <path d="M 41.109375 46.296875 
Q 39.59375 47.171875 37.8125 47.578125 
Q 36.03125 48 33.890625 48 
Q 26.265625 48 22.1875 43.046875 
Q 18.109375 38.09375 18.109375 28.8125 
L 18.109375 0 
L 9.078125 0 
L 9.078125 54.6875 
L 18.109375 54.6875 
L 18.109375 46.1875 
Q 20.953125 51.171875 25.484375 53.578125 
Q 30.03125 56 36.53125 56 
Q 37.453125 56 38.578125 55.875 
Q 39.703125 55.765625 41.0625 55.515625 
z
" id="DejaVuSans-114"/>
     <path d="M 54.890625 33.015625 
L 54.890625 0 
L 45.90625 0 
L 45.90625 32.71875 
Q 45.90625 40.484375 42.875 44.328125 
Q 39.84375 48.1875 33.796875 48.1875 
Q 26.515625 48.1875 22.3125 43.546875 
Q 18.109375 38.921875 18.109375 30.90625 
L 18.109375 0 
L 9.078125 0 
L 9.078125 54.6875 
L 18.109375 54.6875 
L 18.109375 46.1875 
Q 21.34375 51.125 25.703125 53.5625 
Q 30.078125 56 35.796875 56 
Q 45.21875 56 50.046875 50.171875 
Q 54.890625 44.34375 54.890625 33.015625 
z
" id="DejaVuSans-110"/>
     <path d="M 45.40625 46.390625 
L 45.40625 75.984375 
L 54.390625 75.984375 
L 54.390625 0 
L 45.40625 0 
L 45.40625 8.203125 
Q 42.578125 3.328125 38.25 0.953125 
Q 33.9375 -1.421875 27.875 -1.421875 
Q 17.96875 -1.421875 11.734375 6.484375 
Q 5.515625 14.40625 5.515625 27.296875 
Q 5.515625 40.1875 11.734375 48.09375 
Q 17.96875 56 27.875 56 
Q 33.9375 56 38.25 53.625 
Q 42.578125 51.265625 45.40625 46.390625 
z
M 14.796875 27.296875 
Q 14.796875 17.390625 18.875 11.75 
Q 22.953125 6.109375 30.078125 6.109375 
Q 37.203125 6.109375 41.296875 11.75 
Q 45.40625 17.390625 45.40625 27.296875 
Q 45.40625 37.203125 41.296875 42.84375 
Q 37.203125 48.484375 30.078125 48.484375 
Q 22.953125 48.484375 18.875 42.84375 
Q 14.796875 37.203125 14.796875 27.296875 
z
" id="DejaVuSans-100"/>
     <path id="DejaVuSans-32"/>
     <path d="M 30.609375 48.390625 
Q 23.390625 48.390625 19.1875 42.75 
Q 14.984375 37.109375 14.984375 27.296875 
Q 14.984375 17.484375 19.15625 11.84375 
Q 23.34375 6.203125 30.609375 6.203125 
Q 37.796875 6.203125 41.984375 11.859375 
Q 46.1875 17.53125 46.1875 27.296875 
Q 46.1875 37.015625 41.984375 42.703125 
Q 37.796875 48.390625 30.609375 48.390625 
z
M 30.609375 56 
Q 42.328125 56 49.015625 48.375 
Q 55.71875 40.765625 55.71875 27.296875 
Q 55.71875 13.875 49.015625 6.21875 
Q 42.328125 -1.421875 30.609375 -1.421875 
Q 18.84375 -1.421875 12.171875 6.21875 
Q 5.515625 13.875 5.515625 27.296875 
Q 5.515625 40.765625 12.171875 48.375 
Q 18.84375 56 30.609375 56 
z
" id="DejaVuSans-111"/>
     <path d="M 37.109375 75.984375 
L 37.109375 68.5 
L 28.515625 68.5 
Q 23.6875 68.5 21.796875 66.546875 
Q 19.921875 64.59375 19.921875 59.515625 
L 19.921875 54.6875 
L 34.71875 54.6875 
L 34.71875 47.703125 
L 19.921875 47.703125 
L 19.921875 0 
L 10.890625 0 
L 10.890625 47.703125 
L 2.296875 47.703125 
L 2.296875 54.6875 
L 10.890625 54.6875 
L 10.890625 58.5 
Q 10.890625 67.625 15.140625 71.796875 
Q 19.390625 75.984375 28.609375 75.984375 
z
" id="DejaVuSans-102"/>
    </defs>
    <g transform="translate(205.26 35.472)scale(0.12 -0.12)">
     <use transform="translate(0 0.390625)" xlink:href="#DejaVuSans-84"/>
     <use transform="translate(61.083984 0.390625)" xlink:href="#DejaVuSans-114"/>
     <use transform="translate(102.197266 0.390625)" xlink:href="#DejaVuSans-101"/>
     <use transform="translate(163.720703 0.390625)" xlink:href="#DejaVuSans-110"/>
     <use transform="translate(227.099609 0.390625)" xlink:href="#DejaVuSans-100"/>
     <use transform="translate(290.576172 0.390625)" xlink:href="#DejaVuSans-32"/>
     <use transform="translate(322.363281 0.390625)" xlink:href="#DejaVuSans-111"/>
     <use transform="translate(383.544922 0.390625)" xlink:href="#DejaVuSans-102"/>
     <use transform="translate(418.75 0.390625)" xlink:href="#DejaVuSans-32"/>
     <use transform="translate(450.537109 0.390625)" xlink:href="#DejaVuSans-Oblique-946"/>
    </g>
   </g>
   <g id="legend_1">
    <g id="patch_7">
     <path d="M 298.8575 302.584 
L 407.72 302.584 
Q 409.72 302.584 409.72 300.584 
L 409.72 242.8715 
Q 409.72 240.8715 407.72 240.8715 
L 298.8575 240.8715 
Q 296.8575 240.8715 296.8575 242.8715 
L 296.8575 300.584 
Q 296.8575 302.584 298.8575 302.584 
z
" style="fill:#ffffff;opacity:0.8;stroke:#cccccc;stroke-linejoin:miter;"/>
    </g>
    <g id="line2d_51">
     <path d="M 300.8575 248.969937 
L 320.8575 248.969937 
" style="fill:none;stroke:#1f77b4;stroke-linecap:square;stroke-width:1.5;"/>
    </g>
    <g id="line2d_52"/>
    <g id="text_14">
     <!-- Target KL: 0.05 -->
     <defs>
      <path d="M 34.28125 27.484375 
Q 23.390625 27.484375 19.1875 25 
Q 14.984375 22.515625 14.984375 16.5 
Q 14.984375 11.71875 18.140625 8.90625 
Q 21.296875 6.109375 26.703125 6.109375 
Q 34.1875 6.109375 38.703125 11.40625 
Q 43.21875 16.703125 43.21875 25.484375 
L 43.21875 27.484375 
z
M 52.203125 31.203125 
L 52.203125 0 
L 43.21875 0 
L 43.21875 8.296875 
Q 40.140625 3.328125 35.546875 0.953125 
Q 30.953125 -1.421875 24.3125 -1.421875 
Q 15.921875 -1.421875 10.953125 3.296875 
Q 6 8.015625 6 15.921875 
Q 6 25.140625 12.171875 29.828125 
Q 18.359375 34.515625 30.609375 34.515625 
L 43.21875 34.515625 
L 43.21875 35.40625 
Q 43.21875 41.609375 39.140625 45 
Q 35.0625 48.390625 27.6875 48.390625 
Q 23 48.390625 18.546875 47.265625 
Q 14.109375 46.140625 10.015625 43.890625 
L 10.015625 52.203125 
Q 14.9375 54.109375 19.578125 55.046875 
Q 24.21875 56 28.609375 56 
Q 40.484375 56 46.34375 49.84375 
Q 52.203125 43.703125 52.203125 31.203125 
z
" id="DejaVuSans-97"/>
      <path d="M 45.40625 27.984375 
Q 45.40625 37.75 41.375 43.109375 
Q 37.359375 48.484375 30.078125 48.484375 
Q 22.859375 48.484375 18.828125 43.109375 
Q 14.796875 37.75 14.796875 27.984375 
Q 14.796875 18.265625 18.828125 12.890625 
Q 22.859375 7.515625 30.078125 7.515625 
Q 37.359375 7.515625 41.375 12.890625 
Q 45.40625 18.265625 45.40625 27.984375 
z
M 54.390625 6.78125 
Q 54.390625 -7.171875 48.1875 -13.984375 
Q 42 -20.796875 29.203125 -20.796875 
Q 24.46875 -20.796875 20.265625 -20.09375 
Q 16.0625 -19.390625 12.109375 -17.921875 
L 12.109375 -9.1875 
Q 16.0625 -11.328125 19.921875 -12.34375 
Q 23.78125 -13.375 27.78125 -13.375 
Q 36.625 -13.375 41.015625 -8.765625 
Q 45.40625 -4.15625 45.40625 5.171875 
L 45.40625 9.625 
Q 42.625 4.78125 38.28125 2.390625 
Q 33.9375 0 27.875 0 
Q 17.828125 0 11.671875 7.65625 
Q 5.515625 15.328125 5.515625 27.984375 
Q 5.515625 40.671875 11.671875 48.328125 
Q 17.828125 56 27.875 56 
Q 33.9375 56 38.28125 53.609375 
Q 42.625 51.21875 45.40625 46.390625 
L 45.40625 54.6875 
L 54.390625 54.6875 
z
" id="DejaVuSans-103"/>
      <path d="M 9.8125 72.90625 
L 19.671875 72.90625 
L 19.671875 42.09375 
L 52.390625 72.90625 
L 65.09375 72.90625 
L 28.90625 38.921875 
L 67.671875 0 
L 54.6875 0 
L 19.671875 35.109375 
L 19.671875 0 
L 9.8125 0 
z
" id="DejaVuSans-75"/>
      <path d="M 9.8125 72.90625 
L 19.671875 72.90625 
L 19.671875 8.296875 
L 55.171875 8.296875 
L 55.171875 0 
L 9.8125 0 
z
" id="DejaVuSans-76"/>
      <path d="M 11.71875 12.40625 
L 22.015625 12.40625 
L 22.015625 0 
L 11.71875 0 
z
M 11.71875 51.703125 
L 22.015625 51.703125 
L 22.015625 39.3125 
L 11.71875 39.3125 
z
" id="DejaVuSans-58"/>
      <path d="M 10.6875 12.40625 
L 21 12.40625 
L 21 0 
L 10.6875 0 
z
" id="DejaVuSans-46"/>
     </defs>
     <g transform="translate(328.8575 252.469937)scale(0.1 -0.1)">
      <use xlink:href="#DejaVuSans-84"/>
      <use x="60.833984" xlink:href="#DejaVuSans-97"/>
      <use x="122.113281" xlink:href="#DejaVuSans-114"/>
      <use x="163.210938" xlink:href="#DejaVuSans-103"/>
      <use x="226.6875" xlink:href="#DejaVuSans-101"/>
      <use x="288.210938" xlink:href="#DejaVuSans-116"/>
      <use x="327.419922" xlink:href="#DejaVuSans-32"/>
      <use x="359.207031" xlink:href="#DejaVuSans-75"/>
      <use x="424.783203" xlink:href="#DejaVuSans-76"/>
      <use x="480.496094" xlink:href="#DejaVuSans-58"/>
      <use x="514.1875" xlink:href="#DejaVuSans-32"/>
      <use x="545.974609" xlink:href="#DejaVuSans-48"/>
      <use x="609.597656" xlink:href="#DejaVuSans-46"/>
      <use x="641.384766" xlink:href="#DejaVuSans-48"/>
      <use x="705.007812" xlink:href="#DejaVuSans-53"/>
     </g>
    </g>
    <g id="line2d_53">
     <path d="M 300.8575 263.648062 
L 320.8575 263.648062 
" style="fill:none;stroke:#ff7f0e;stroke-linecap:square;stroke-width:1.5;"/>
    </g>
    <g id="line2d_54"/>
    <g id="text_15">
     <!-- Target KL: 0.1 -->
     <g transform="translate(328.8575 267.148062)scale(0.1 -0.1)">
      <use xlink:href="#DejaVuSans-84"/>
      <use x="60.833984" xlink:href="#DejaVuSans-97"/>
      <use x="122.113281" xlink:href="#DejaVuSans-114"/>
      <use x="163.210938" xlink:href="#DejaVuSans-103"/>
      <use x="226.6875" xlink:href="#DejaVuSans-101"/>
      <use x="288.210938" xlink:href="#DejaVuSans-116"/>
      <use x="327.419922" xlink:href="#DejaVuSans-32"/>
      <use x="359.207031" xlink:href="#DejaVuSans-75"/>
      <use x="424.783203" xlink:href="#DejaVuSans-76"/>
      <use x="480.496094" xlink:href="#DejaVuSans-58"/>
      <use x="514.1875" xlink:href="#DejaVuSans-32"/>
      <use x="545.974609" xlink:href="#DejaVuSans-48"/>
      <use x="609.597656" xlink:href="#DejaVuSans-46"/>
      <use x="641.384766" xlink:href="#DejaVuSans-49"/>
     </g>
    </g>
    <g id="line2d_55">
     <path d="M 300.8575 278.326187 
L 320.8575 278.326187 
" style="fill:none;stroke:#2ca02c;stroke-linecap:square;stroke-width:1.5;"/>
    </g>
    <g id="line2d_56"/>
    <g id="text_16">
     <!-- Target KL: 0.2 -->
     <g transform="translate(328.8575 281.826187)scale(0.1 -0.1)">
      <use xlink:href="#DejaVuSans-84"/>
      <use x="60.833984" xlink:href="#DejaVuSans-97"/>
      <use x="122.113281" xlink:href="#DejaVuSans-114"/>
      <use x="163.210938" xlink:href="#DejaVuSans-103"/>
      <use x="226.6875" xlink:href="#DejaVuSans-101"/>
      <use x="288.210938" xlink:href="#DejaVuSans-116"/>
      <use x="327.419922" xlink:href="#DejaVuSans-32"/>
      <use x="359.207031" xlink:href="#DejaVuSans-75"/>
      <use x="424.783203" xlink:href="#DejaVuSans-76"/>
      <use x="480.496094" xlink:href="#DejaVuSans-58"/>
      <use x="514.1875" xlink:href="#DejaVuSans-32"/>
      <use x="545.974609" xlink:href="#DejaVuSans-48"/>
      <use x="609.597656" xlink:href="#DejaVuSans-46"/>
      <use x="641.384766" xlink:href="#DejaVuSans-50"/>
     </g>
    </g>
    <g id="line2d_57">
     <path d="M 300.8575 293.004312 
L 320.8575 293.004312 
" style="fill:none;stroke:#d62728;stroke-linecap:square;stroke-width:1.5;"/>
    </g>
    <g id="line2d_58"/>
    <g id="text_17">
     <!-- Target KL: 0.5 -->
     <g transform="translate(328.8575 296.504312)scale(0.1 -0.1)">
      <use xlink:href="#DejaVuSans-84"/>
      <use x="60.833984" xlink:href="#DejaVuSans-97"/>
      <use x="122.113281" xlink:href="#DejaVuSans-114"/>
      <use x="163.210938" xlink:href="#DejaVuSans-103"/>
      <use x="226.6875" xlink:href="#DejaVuSans-101"/>
      <use x="288.210938" xlink:href="#DejaVuSans-116"/>
      <use x="327.419922" xlink:href="#DejaVuSans-32"/>
      <use x="359.207031" xlink:href="#DejaVuSans-75"/>
      <use x="424.783203" xlink:href="#DejaVuSans-76"/>
      <use x="480.496094" xlink:href="#DejaVuSans-58"/>
      <use x="514.1875" xlink:href="#DejaVuSans-32"/>
      <use x="545.974609" xlink:href="#DejaVuSans-48"/>
      <use x="609.597656" xlink:href="#DejaVuSans-46"/>
      <use x="641.384766" xlink:href="#DejaVuSans-53"/>
     </g>
    </g>
   </g>
  </g>
 </g>
 <defs>
  <clipPath id="p2a9c087e7d">
   <rect height="266.112" width="357.12" x="57.6" y="41.472"/>
  </clipPath>
 </defs>
</svg>
