<?xml version="1.0" encoding="utf-8" standalone="no"?>
<!DOCTYPE svg PUBLIC "-//W3C//DTD SVG 1.1//EN"
  "http://www.w3.org/Graphics/SVG/1.1/DTD/svg11.dtd">
<!-- Created with matplotlib (https://matplotlib.org/) -->
<svg height="345.6pt" version="1.1" viewBox="0 0 460.8 345.6" width="460.8pt" xmlns="http://www.w3.org/2000/svg" xmlns:xlink="http://www.w3.org/1999/xlink">
 <defs>
  <style type="text/css">
*{stroke-linecap:butt;stroke-linejoin:round;}
  </style>
 </defs>
 <g id="figure_1">
  <g id="patch_1">
   <path d="M 0 345.6 
L 460.8 345.6 
L 460.8 0 
L 0 0 
z
" style="fill:#ffffff;"/>
  </g>
  <g id="axes_1">
   <g id="patch_2">
    <path d="M 57.6 307.584 
L 414.72 307.584 
L 414.72 41.472 
L 57.6 41.472 
z
" style="fill:#ffffff;"/>
   </g>
   <g id="PolyCollection_1">
    <defs>
     <path d="M 74.484593 -228.154633 
L 74.484593 -74.456518 
L 75.783211 -200.801781 
L 77.081829 -210.179895 
L 78.380447 -202.465133 
L 79.679065 -196.235335 
L 80.977684 -189.029595 
L 82.276302 -197.412217 
L 83.57492 -201.441686 
L 84.873538 -206.941281 
L 86.172156 -205.869435 
L 87.470775 -206.946974 
L 88.769393 -208.614672 
L 90.068011 -211.277013 
L 91.366629 -212.798098 
L 92.665247 -213.655136 
L 93.963865 -214.564923 
L 95.262484 -216.26387 
L 96.561102 -215.587365 
L 97.85972 -216.523231 
L 99.158338 -216.941977 
L 100.456956 -217.046164 
L 101.755575 -217.494753 
L 103.054193 -218.651571 
L 104.352811 -218.20404 
L 105.651429 -218.539241 
L 106.950047 -219.467955 
L 108.248665 -220.021055 
L 109.547284 -222.809158 
L 110.845902 -221.788094 
L 112.14452 -222.472384 
L 113.443138 -220.820891 
L 114.741756 -220.380987 
L 116.040375 -219.299233 
L 117.338993 -222.074393 
L 118.637611 -223.162946 
L 119.936229 -224.853569 
L 121.234847 -226.070851 
L 122.533465 -226.684019 
L 123.832084 -226.652665 
L 125.130702 -228.420816 
L 126.42932 -229.398018 
L 127.727938 -229.656773 
L 129.026556 -229.429109 
L 130.325175 -231.151054 
L 131.623793 -230.603148 
L 132.922411 -232.684262 
L 134.221029 -232.120378 
L 135.519647 -232.382216 
L 136.818265 -232.77298 
L 138.116884 -231.971924 
L 138.799425 -232.844377 
L 138.799425 -237.659387 
L 138.799425 -237.659387 
L 138.116884 -239.547951 
L 136.818265 -239.157342 
L 135.519647 -239.282401 
L 134.221029 -239.360241 
L 132.922411 -239.161365 
L 131.623793 -236.951784 
L 130.325175 -238.583689 
L 129.026556 -236.560535 
L 127.727938 -237.648132 
L 126.42932 -235.703065 
L 125.130702 -234.836215 
L 123.832084 -234.58471 
L 122.533465 -233.326986 
L 121.234847 -232.943362 
L 119.936229 -230.803208 
L 118.637611 -230.187781 
L 117.338993 -228.455138 
L 116.040375 -227.049432 
L 114.741756 -226.701591 
L 113.443138 -227.716695 
L 112.14452 -230.02303 
L 110.845902 -229.377263 
L 109.547284 -228.906496 
L 108.248665 -230.288009 
L 106.950047 -226.013554 
L 105.651429 -225.616047 
L 104.352811 -224.621659 
L 103.054193 -226.343396 
L 101.755575 -225.901443 
L 100.456956 -223.959162 
L 99.158338 -223.904018 
L 97.85972 -223.830495 
L 96.561102 -222.586839 
L 95.262484 -222.658735 
L 93.963865 -221.946397 
L 92.665247 -223.79942 
L 91.366629 -220.668744 
L 90.068011 -221.980943 
L 88.769393 -221.021667 
L 87.470775 -222.297555 
L 86.172156 -218.485955 
L 84.873538 -218.959968 
L 83.57492 -222.05374 
L 82.276302 -212.576203 
L 80.977684 -207.404076 
L 79.679065 -216.747491 
L 78.380447 -229.844553 
L 77.081829 -241.674627 
L 75.783211 -232.868529 
L 74.484593 -228.154633 
z
" id="m9f4c3d6ba7" style="stroke:#aec7e8;stroke-opacity:0.25;"/>
    </defs>
    <g clip-path="url(#p567b3551eb)">
     <use style="fill:#aec7e8;fill-opacity:0.25;stroke:#aec7e8;stroke-opacity:0.25;" x="0" xlink:href="#m9f4c3d6ba7" y="345.6"/>
    </g>
   </g>
   <g id="PolyCollection_2">
    <defs>
     <path d="M 77.081829 -217.66397 
L 77.081829 -58.721131 
L 83.57492 -166.946116 
L 90.068011 -191.134371 
L 96.561102 -197.479101 
L 103.054193 -211.402285 
L 109.547284 -228.430057 
L 116.040375 -240.455896 
L 122.533465 -246.114595 
L 129.026556 -250.687106 
L 135.519647 -254.634747 
L 142.012738 -257.98735 
L 148.505829 -259.881097 
L 154.99892 -261.11751 
L 161.492011 -262.826928 
L 167.985102 -265.13461 
L 174.478193 -266.161624 
L 180.971284 -267.525681 
L 187.464375 -268.81684 
L 193.957465 -269.372807 
L 200.450556 -270.32579 
L 206.943647 -270.529145 
L 213.436738 -270.981582 
L 219.929829 -271.119103 
L 226.42292 -273.061435 
L 232.916011 -273.275714 
L 239.409102 -274.377467 
L 245.902193 -273.973468 
L 252.395284 -274.227763 
L 258.888375 -274.575733 
L 265.381465 -275.120895 
L 271.874556 -275.684504 
L 278.367647 -276.72253 
L 284.860738 -276.860602 
L 291.353829 -275.923262 
L 297.84692 -279.062615 
L 304.340011 -279.28402 
L 310.833102 -278.027744 
L 317.326193 -278.720833 
L 323.819284 -278.664951 
L 330.312375 -280.289245 
L 336.805465 -279.802922 
L 343.298556 -279.541941 
L 349.791647 -279.722217 
L 356.284738 -281.106533 
L 362.777829 -281.174228 
L 369.27092 -280.572487 
L 375.764011 -280.322683 
L 382.257102 -281.264154 
L 388.750193 -282.386116 
L 395.243284 -283.679549 
L 395.243284 -291.977744 
L 395.243284 -291.977744 
L 388.750193 -291.478275 
L 382.257102 -292.032 
L 375.764011 -290.456404 
L 369.27092 -290.191672 
L 362.777829 -289.937745 
L 356.284738 -289.90209 
L 349.791647 -288.987754 
L 343.298556 -289.229132 
L 336.805465 -289.182682 
L 330.312375 -288.948611 
L 323.819284 -287.736931 
L 317.326193 -287.569172 
L 310.833102 -287.206384 
L 304.340011 -287.579893 
L 297.84692 -287.052869 
L 291.353829 -286.856744 
L 284.860738 -285.562002 
L 278.367647 -285.460063 
L 271.874556 -284.775744 
L 265.381465 -284.40959 
L 258.888375 -284.22714 
L 252.395284 -283.475378 
L 245.902193 -283.449046 
L 239.409102 -282.69301 
L 232.916011 -283.052537 
L 226.42292 -282.567784 
L 219.929829 -281.694843 
L 213.436738 -280.814697 
L 206.943647 -279.709037 
L 200.450556 -278.457731 
L 193.957465 -277.606796 
L 187.464375 -276.828429 
L 180.971284 -275.916401 
L 174.478193 -275.405123 
L 167.985102 -274.171071 
L 161.492011 -272.354648 
L 154.99892 -270.411879 
L 148.505829 -268.65024 
L 142.012738 -266.54558 
L 135.519647 -264.732283 
L 129.026556 -261.959496 
L 122.533465 -257.744011 
L 116.040375 -252.568951 
L 109.547284 -245.776343 
L 103.054193 -235.813253 
L 96.561102 -222.680958 
L 90.068011 -205.927319 
L 83.57492 -207.11484 
L 77.081829 -217.66397 
z
" id="m751d20fb3a" style="stroke:#ffbb78;stroke-opacity:0.25;"/>
    </defs>
    <g clip-path="url(#p567b3551eb)">
     <use style="fill:#ffbb78;fill-opacity:0.25;stroke:#ffbb78;stroke-opacity:0.25;" x="0" xlink:href="#m751d20fb3a" y="345.6"/>
    </g>
   </g>
   <g id="PolyCollection_3">
    <defs>
     <path d="M 75.847119 -228.427367 
L 75.847119 -65.017344 
L 79.870791 -178.8611 
L 83.894462 -191.967285 
L 87.918133 -203.293728 
L 91.941804 -210.96778 
L 95.965476 -213.489002 
L 99.989147 -214.88139 
L 104.012818 -214.291019 
L 108.03649 -216.046972 
L 112.060161 -218.103526 
L 116.083832 -221.056795 
L 120.107504 -226.318093 
L 124.131175 -227.8827 
L 128.154846 -231.031132 
L 132.178517 -233.357997 
L 136.202189 -233.583692 
L 140.22586 -235.323378 
L 144.249531 -235.337506 
L 148.273203 -235.609331 
L 152.296874 -235.456108 
L 156.320545 -236.407427 
L 160.344216 -238.2983 
L 164.367888 -240.203606 
L 168.391559 -241.66667 
L 172.41523 -242.255431 
L 176.438902 -243.388271 
L 180.462573 -242.231785 
L 184.486244 -241.969547 
L 188.509916 -241.116075 
L 192.533587 -241.748867 
L 196.557258 -242.983535 
L 200.580929 -242.709909 
L 204.604601 -242.756226 
L 208.628272 -241.475176 
L 212.651943 -242.278511 
L 216.675615 -243.32231 
L 220.699286 -243.957373 
L 224.722957 -243.546589 
L 228.746628 -243.03875 
L 232.7703 -243.292039 
L 236.793971 -244.170553 
L 240.817642 -244.402631 
L 244.841314 -244.982417 
L 248.864985 -245.303931 
L 252.888656 -244.952622 
L 256.912328 -243.915602 
L 260.935999 -246.333938 
L 264.95967 -245.956888 
L 268.983341 -246.987514 
L 273.007013 -246.547525 
L 275.069975 -247.924329 
L 275.069975 -253.547987 
L 275.069975 -253.547987 
L 273.007013 -254.112878 
L 268.983341 -254.375011 
L 264.95967 -254.706344 
L 260.935999 -254.050321 
L 256.912328 -254.407864 
L 252.888656 -253.156906 
L 248.864985 -252.831415 
L 244.841314 -253.173625 
L 240.817642 -253.022388 
L 236.793971 -253.31622 
L 232.7703 -251.84052 
L 228.746628 -251.771161 
L 224.722957 -251.700655 
L 220.699286 -251.533285 
L 216.675615 -251.682863 
L 212.651943 -251.304252 
L 208.628272 -249.967806 
L 204.604601 -250.553052 
L 200.580929 -250.887614 
L 196.557258 -251.039329 
L 192.533587 -251.184355 
L 188.509916 -250.231226 
L 184.486244 -252.032268 
L 180.462573 -251.694606 
L 176.438902 -251.500879 
L 172.41523 -251.86363 
L 168.391559 -249.515059 
L 164.367888 -248.697693 
L 160.344216 -246.960424 
L 156.320545 -244.436738 
L 152.296874 -243.746122 
L 148.273203 -243.904265 
L 144.249531 -243.065229 
L 140.22586 -243.283775 
L 136.202189 -242.955269 
L 132.178517 -241.162636 
L 128.154846 -239.091515 
L 124.131175 -236.379377 
L 120.107504 -234.56329 
L 116.083832 -232.343004 
L 112.060161 -227.856969 
L 108.03649 -224.180449 
L 104.012818 -223.159646 
L 99.989147 -223.016344 
L 95.965476 -222.697832 
L 91.941804 -221.790048 
L 87.918133 -220.706515 
L 83.894462 -216.413175 
L 79.870791 -210.585009 
L 75.847119 -228.427367 
z
" id="m96ce0b0cd5" style="stroke:#98df8a;stroke-opacity:0.25;"/>
    </defs>
    <g clip-path="url(#p567b3551eb)">
     <use style="fill:#98df8a;fill-opacity:0.25;stroke:#98df8a;stroke-opacity:0.25;" x="0" xlink:href="#m96ce0b0cd5" y="345.6"/>
    </g>
   </g>
   <g id="PolyCollection_4">
    <defs>
     <path d="M 75.568479 -247.559124 
L 75.568479 -59.359581 
L 79.034869 -190.089182 
L 82.501259 -191.67579 
L 85.96765 -197.817571 
L 89.43404 -203.814946 
L 92.90043 -205.710058 
L 96.36682 -209.606101 
L 99.833211 -210.036192 
L 103.299601 -213.447767 
L 106.765991 -215.91318 
L 110.232381 -217.213283 
L 113.698772 -219.954431 
L 117.165162 -221.912781 
L 120.631552 -223.131169 
L 124.097942 -225.289828 
L 127.564333 -227.119676 
L 131.030723 -229.53302 
L 134.497113 -229.147896 
L 137.963504 -232.338759 
L 141.429894 -232.972519 
L 144.896284 -234.109686 
L 148.362674 -236.183247 
L 151.829065 -237.230965 
L 155.295455 -237.518488 
L 158.761845 -239.466332 
L 162.228235 -239.663515 
L 165.694626 -240.230387 
L 169.161016 -241.699429 
L 172.627406 -242.008787 
L 176.093796 -243.376989 
L 179.560187 -241.662907 
L 183.026577 -242.193709 
L 186.492967 -241.456545 
L 189.959357 -239.978605 
L 193.425748 -239.447046 
L 196.892138 -240.041712 
L 200.358528 -239.210906 
L 203.824919 -239.586892 
L 207.291309 -240.46266 
L 210.757699 -239.215586 
L 214.224089 -239.40456 
L 217.69048 -239.510897 
L 221.15687 -240.543275 
L 224.62326 -241.228914 
L 228.08965 -240.026456 
L 231.556041 -240.724781 
L 235.022431 -240.892963 
L 238.488821 -241.010451 
L 241.955211 -240.789553 
L 245.421602 -240.430993 
L 247.18036 -242.184026 
L 247.18036 -246.414271 
L 247.18036 -246.414271 
L 245.421602 -248.158951 
L 241.955211 -248.462681 
L 238.488821 -249.016643 
L 235.022431 -249.484387 
L 231.556041 -248.023919 
L 228.08965 -248.892655 
L 224.62326 -248.834064 
L 221.15687 -248.540273 
L 217.69048 -248.172087 
L 214.224089 -247.301152 
L 210.757699 -247.305493 
L 207.291309 -246.923518 
L 203.824919 -247.468249 
L 200.358528 -246.932407 
L 196.892138 -248.385845 
L 193.425748 -247.420138 
L 189.959357 -248.738395 
L 186.492967 -249.518943 
L 183.026577 -249.812726 
L 179.560187 -251.225608 
L 176.093796 -250.197646 
L 172.627406 -250.914555 
L 169.161016 -249.261428 
L 165.694626 -248.101355 
L 162.228235 -247.716149 
L 158.761845 -246.429064 
L 155.295455 -245.916349 
L 151.829065 -244.934467 
L 148.362674 -244.714705 
L 144.896284 -242.238206 
L 141.429894 -240.74271 
L 137.963504 -239.885518 
L 134.497113 -238.806324 
L 131.030723 -237.882747 
L 127.564333 -235.758477 
L 124.097942 -233.935832 
L 120.631552 -232.957304 
L 117.165162 -229.084969 
L 113.698772 -227.940467 
L 110.232381 -225.460481 
L 106.765991 -223.933398 
L 103.299601 -222.005765 
L 99.833211 -217.747731 
L 96.36682 -217.042217 
L 92.90043 -215.619695 
L 89.43404 -216.350035 
L 85.96765 -214.916474 
L 82.501259 -214.914802 
L 79.034869 -221.18706 
L 75.568479 -247.559124 
z
" id="md172012ecd" style="stroke:#ff9896;stroke-opacity:0.25;"/>
    </defs>
    <g clip-path="url(#p567b3551eb)">
     <use style="fill:#ff9896;fill-opacity:0.25;stroke:#ff9896;stroke-opacity:0.25;" x="0" xlink:href="#md172012ecd" y="345.6"/>
    </g>
   </g>
   <g id="matplotlib.axis_1">
    <g id="xtick_1">
     <g id="line2d_1">
      <path clip-path="url(#p567b3551eb)" d="M 73.832727 307.584 
L 73.832727 41.472 
" style="fill:none;stroke:#b0b0b0;stroke-linecap:square;stroke-width:0.8;"/>
     </g>
     <g id="line2d_2">
      <defs>
       <path d="M 0 0 
L 0 3.5 
" id="mceb7160569" style="stroke:#000000;stroke-width:0.8;"/>
      </defs>
      <g>
       <use style="stroke:#000000;stroke-width:0.8;" x="73.832727" xlink:href="#mceb7160569" y="307.584"/>
      </g>
     </g>
     <g id="text_1">
      <!-- 0 -->
      <defs>
       <path d="M 31.78125 66.40625 
Q 24.171875 66.40625 20.328125 58.90625 
Q 16.5 51.421875 16.5 36.375 
Q 16.5 21.390625 20.328125 13.890625 
Q 24.171875 6.390625 31.78125 6.390625 
Q 39.453125 6.390625 43.28125 13.890625 
Q 47.125 21.390625 47.125 36.375 
Q 47.125 51.421875 43.28125 58.90625 
Q 39.453125 66.40625 31.78125 66.40625 
z
M 31.78125 74.21875 
Q 44.046875 74.21875 50.515625 64.515625 
Q 56.984375 54.828125 56.984375 36.375 
Q 56.984375 17.96875 50.515625 8.265625 
Q 44.046875 -1.421875 31.78125 -1.421875 
Q 19.53125 -1.421875 13.0625 8.265625 
Q 6.59375 17.96875 6.59375 36.375 
Q 6.59375 54.828125 13.0625 64.515625 
Q 19.53125 74.21875 31.78125 74.21875 
z
" id="DejaVuSans-48"/>
      </defs>
      <g transform="translate(70.651477 322.182437)scale(0.1 -0.1)">
       <use xlink:href="#DejaVuSans-48"/>
      </g>
     </g>
    </g>
    <g id="xtick_2">
     <g id="line2d_3">
      <path clip-path="url(#p567b3551eb)" d="M 124.959427 307.584 
L 124.959427 41.472 
" style="fill:none;stroke:#b0b0b0;stroke-linecap:square;stroke-width:0.8;"/>
     </g>
     <g id="line2d_4">
      <g>
       <use style="stroke:#000000;stroke-width:0.8;" x="124.959427" xlink:href="#mceb7160569" y="307.584"/>
      </g>
     </g>
     <g id="text_2">
      <!-- 10000 -->
      <defs>
       <path d="M 12.40625 8.296875 
L 28.515625 8.296875 
L 28.515625 63.921875 
L 10.984375 60.40625 
L 10.984375 69.390625 
L 28.421875 72.90625 
L 38.28125 72.90625 
L 38.28125 8.296875 
L 54.390625 8.296875 
L 54.390625 0 
L 12.40625 0 
z
" id="DejaVuSans-49"/>
      </defs>
      <g transform="translate(109.053177 322.182437)scale(0.1 -0.1)">
       <use xlink:href="#DejaVuSans-49"/>
       <use x="63.623047" xlink:href="#DejaVuSans-48"/>
       <use x="127.246094" xlink:href="#DejaVuSans-48"/>
       <use x="190.869141" xlink:href="#DejaVuSans-48"/>
       <use x="254.492188" xlink:href="#DejaVuSans-48"/>
      </g>
     </g>
    </g>
    <g id="xtick_3">
     <g id="line2d_5">
      <path clip-path="url(#p567b3551eb)" d="M 176.086127 307.584 
L 176.086127 41.472 
" style="fill:none;stroke:#b0b0b0;stroke-linecap:square;stroke-width:0.8;"/>
     </g>
     <g id="line2d_6">
      <g>
       <use style="stroke:#000000;stroke-width:0.8;" x="176.086127" xlink:href="#mceb7160569" y="307.584"/>
      </g>
     </g>
     <g id="text_3">
      <!-- 20000 -->
      <defs>
       <path d="M 19.1875 8.296875 
L 53.609375 8.296875 
L 53.609375 0 
L 7.328125 0 
L 7.328125 8.296875 
Q 12.9375 14.109375 22.625 23.890625 
Q 32.328125 33.6875 34.8125 36.53125 
Q 39.546875 41.84375 41.421875 45.53125 
Q 43.3125 49.21875 43.3125 52.78125 
Q 43.3125 58.59375 39.234375 62.25 
Q 35.15625 65.921875 28.609375 65.921875 
Q 23.96875 65.921875 18.8125 64.3125 
Q 13.671875 62.703125 7.8125 59.421875 
L 7.8125 69.390625 
Q 13.765625 71.78125 18.9375 73 
Q 24.125 74.21875 28.421875 74.21875 
Q 39.75 74.21875 46.484375 68.546875 
Q 53.21875 62.890625 53.21875 53.421875 
Q 53.21875 48.921875 51.53125 44.890625 
Q 49.859375 40.875 45.40625 35.40625 
Q 44.1875 33.984375 37.640625 27.21875 
Q 31.109375 20.453125 19.1875 8.296875 
z
" id="DejaVuSans-50"/>
      </defs>
      <g transform="translate(160.179877 322.182437)scale(0.1 -0.1)">
       <use xlink:href="#DejaVuSans-50"/>
       <use x="63.623047" xlink:href="#DejaVuSans-48"/>
       <use x="127.246094" xlink:href="#DejaVuSans-48"/>
       <use x="190.869141" xlink:href="#DejaVuSans-48"/>
       <use x="254.492188" xlink:href="#DejaVuSans-48"/>
      </g>
     </g>
    </g>
    <g id="xtick_4">
     <g id="line2d_7">
      <path clip-path="url(#p567b3551eb)" d="M 227.212827 307.584 
L 227.212827 41.472 
" style="fill:none;stroke:#b0b0b0;stroke-linecap:square;stroke-width:0.8;"/>
     </g>
     <g id="line2d_8">
      <g>
       <use style="stroke:#000000;stroke-width:0.8;" x="227.212827" xlink:href="#mceb7160569" y="307.584"/>
      </g>
     </g>
     <g id="text_4">
      <!-- 30000 -->
      <defs>
       <path d="M 40.578125 39.3125 
Q 47.65625 37.796875 51.625 33 
Q 55.609375 28.21875 55.609375 21.1875 
Q 55.609375 10.40625 48.1875 4.484375 
Q 40.765625 -1.421875 27.09375 -1.421875 
Q 22.515625 -1.421875 17.65625 -0.515625 
Q 12.796875 0.390625 7.625 2.203125 
L 7.625 11.71875 
Q 11.71875 9.328125 16.59375 8.109375 
Q 21.484375 6.890625 26.8125 6.890625 
Q 36.078125 6.890625 40.9375 10.546875 
Q 45.796875 14.203125 45.796875 21.1875 
Q 45.796875 27.640625 41.28125 31.265625 
Q 36.765625 34.90625 28.71875 34.90625 
L 20.21875 34.90625 
L 20.21875 43.015625 
L 29.109375 43.015625 
Q 36.375 43.015625 40.234375 45.921875 
Q 44.09375 48.828125 44.09375 54.296875 
Q 44.09375 59.90625 40.109375 62.90625 
Q 36.140625 65.921875 28.71875 65.921875 
Q 24.65625 65.921875 20.015625 65.03125 
Q 15.375 64.15625 9.8125 62.3125 
L 9.8125 71.09375 
Q 15.4375 72.65625 20.34375 73.4375 
Q 25.25 74.21875 29.59375 74.21875 
Q 40.828125 74.21875 47.359375 69.109375 
Q 53.90625 64.015625 53.90625 55.328125 
Q 53.90625 49.265625 50.4375 45.09375 
Q 46.96875 40.921875 40.578125 39.3125 
z
" id="DejaVuSans-51"/>
      </defs>
      <g transform="translate(211.306577 322.182437)scale(0.1 -0.1)">
       <use xlink:href="#DejaVuSans-51"/>
       <use x="63.623047" xlink:href="#DejaVuSans-48"/>
       <use x="127.246094" xlink:href="#DejaVuSans-48"/>
       <use x="190.869141" xlink:href="#DejaVuSans-48"/>
       <use x="254.492188" xlink:href="#DejaVuSans-48"/>
      </g>
     </g>
    </g>
    <g id="xtick_5">
     <g id="line2d_9">
      <path clip-path="url(#p567b3551eb)" d="M 278.339528 307.584 
L 278.339528 41.472 
" style="fill:none;stroke:#b0b0b0;stroke-linecap:square;stroke-width:0.8;"/>
     </g>
     <g id="line2d_10">
      <g>
       <use style="stroke:#000000;stroke-width:0.8;" x="278.339528" xlink:href="#mceb7160569" y="307.584"/>
      </g>
     </g>
     <g id="text_5">
      <!-- 40000 -->
      <defs>
       <path d="M 37.796875 64.3125 
L 12.890625 25.390625 
L 37.796875 25.390625 
z
M 35.203125 72.90625 
L 47.609375 72.90625 
L 47.609375 25.390625 
L 58.015625 25.390625 
L 58.015625 17.1875 
L 47.609375 17.1875 
L 47.609375 0 
L 37.796875 0 
L 37.796875 17.1875 
L 4.890625 17.1875 
L 4.890625 26.703125 
z
" id="DejaVuSans-52"/>
      </defs>
      <g transform="translate(262.433278 322.182437)scale(0.1 -0.1)">
       <use xlink:href="#DejaVuSans-52"/>
       <use x="63.623047" xlink:href="#DejaVuSans-48"/>
       <use x="127.246094" xlink:href="#DejaVuSans-48"/>
       <use x="190.869141" xlink:href="#DejaVuSans-48"/>
       <use x="254.492188" xlink:href="#DejaVuSans-48"/>
      </g>
     </g>
    </g>
    <g id="xtick_6">
     <g id="line2d_11">
      <path clip-path="url(#p567b3551eb)" d="M 329.466228 307.584 
L 329.466228 41.472 
" style="fill:none;stroke:#b0b0b0;stroke-linecap:square;stroke-width:0.8;"/>
     </g>
     <g id="line2d_12">
      <g>
       <use style="stroke:#000000;stroke-width:0.8;" x="329.466228" xlink:href="#mceb7160569" y="307.584"/>
      </g>
     </g>
     <g id="text_6">
      <!-- 50000 -->
      <defs>
       <path d="M 10.796875 72.90625 
L 49.515625 72.90625 
L 49.515625 64.59375 
L 19.828125 64.59375 
L 19.828125 46.734375 
Q 21.96875 47.46875 24.109375 47.828125 
Q 26.265625 48.1875 28.421875 48.1875 
Q 40.625 48.1875 47.75 41.5 
Q 54.890625 34.8125 54.890625 23.390625 
Q 54.890625 11.625 47.5625 5.09375 
Q 40.234375 -1.421875 26.90625 -1.421875 
Q 22.3125 -1.421875 17.546875 -0.640625 
Q 12.796875 0.140625 7.71875 1.703125 
L 7.71875 11.625 
Q 12.109375 9.234375 16.796875 8.0625 
Q 21.484375 6.890625 26.703125 6.890625 
Q 35.15625 6.890625 40.078125 11.328125 
Q 45.015625 15.765625 45.015625 23.390625 
Q 45.015625 31 40.078125 35.4375 
Q 35.15625 39.890625 26.703125 39.890625 
Q 22.75 39.890625 18.8125 39.015625 
Q 14.890625 38.140625 10.796875 36.28125 
z
" id="DejaVuSans-53"/>
      </defs>
      <g transform="translate(313.559978 322.182437)scale(0.1 -0.1)">
       <use xlink:href="#DejaVuSans-53"/>
       <use x="63.623047" xlink:href="#DejaVuSans-48"/>
       <use x="127.246094" xlink:href="#DejaVuSans-48"/>
       <use x="190.869141" xlink:href="#DejaVuSans-48"/>
       <use x="254.492188" xlink:href="#DejaVuSans-48"/>
      </g>
     </g>
    </g>
    <g id="xtick_7">
     <g id="line2d_13">
      <path clip-path="url(#p567b3551eb)" d="M 380.592928 307.584 
L 380.592928 41.472 
" style="fill:none;stroke:#b0b0b0;stroke-linecap:square;stroke-width:0.8;"/>
     </g>
     <g id="line2d_14">
      <g>
       <use style="stroke:#000000;stroke-width:0.8;" x="380.592928" xlink:href="#mceb7160569" y="307.584"/>
      </g>
     </g>
     <g id="text_7">
      <!-- 60000 -->
      <defs>
       <path d="M 33.015625 40.375 
Q 26.375 40.375 22.484375 35.828125 
Q 18.609375 31.296875 18.609375 23.390625 
Q 18.609375 15.53125 22.484375 10.953125 
Q 26.375 6.390625 33.015625 6.390625 
Q 39.65625 6.390625 43.53125 10.953125 
Q 47.40625 15.53125 47.40625 23.390625 
Q 47.40625 31.296875 43.53125 35.828125 
Q 39.65625 40.375 33.015625 40.375 
z
M 52.59375 71.296875 
L 52.59375 62.3125 
Q 48.875 64.0625 45.09375 64.984375 
Q 41.3125 65.921875 37.59375 65.921875 
Q 27.828125 65.921875 22.671875 59.328125 
Q 17.53125 52.734375 16.796875 39.40625 
Q 19.671875 43.65625 24.015625 45.921875 
Q 28.375 48.1875 33.59375 48.1875 
Q 44.578125 48.1875 50.953125 41.515625 
Q 57.328125 34.859375 57.328125 23.390625 
Q 57.328125 12.15625 50.6875 5.359375 
Q 44.046875 -1.421875 33.015625 -1.421875 
Q 20.359375 -1.421875 13.671875 8.265625 
Q 6.984375 17.96875 6.984375 36.375 
Q 6.984375 53.65625 15.1875 63.9375 
Q 23.390625 74.21875 37.203125 74.21875 
Q 40.921875 74.21875 44.703125 73.484375 
Q 48.484375 72.75 52.59375 71.296875 
z
" id="DejaVuSans-54"/>
      </defs>
      <g transform="translate(364.686678 322.182437)scale(0.1 -0.1)">
       <use xlink:href="#DejaVuSans-54"/>
       <use x="63.623047" xlink:href="#DejaVuSans-48"/>
       <use x="127.246094" xlink:href="#DejaVuSans-48"/>
       <use x="190.869141" xlink:href="#DejaVuSans-48"/>
       <use x="254.492188" xlink:href="#DejaVuSans-48"/>
      </g>
     </g>
    </g>
    <g id="text_8">
     <!-- Steps -->
     <defs>
      <path d="M 53.515625 70.515625 
L 53.515625 60.890625 
Q 47.90625 63.578125 42.921875 64.890625 
Q 37.9375 66.21875 33.296875 66.21875 
Q 25.25 66.21875 20.875 63.09375 
Q 16.5 59.96875 16.5 54.203125 
Q 16.5 49.359375 19.40625 46.890625 
Q 22.3125 44.4375 30.421875 42.921875 
L 36.375 41.703125 
Q 47.40625 39.59375 52.65625 34.296875 
Q 57.90625 29 57.90625 20.125 
Q 57.90625 9.515625 50.796875 4.046875 
Q 43.703125 -1.421875 29.984375 -1.421875 
Q 24.8125 -1.421875 18.96875 -0.25 
Q 13.140625 0.921875 6.890625 3.21875 
L 6.890625 13.375 
Q 12.890625 10.015625 18.65625 8.296875 
Q 24.421875 6.59375 29.984375 6.59375 
Q 38.421875 6.59375 43.015625 9.90625 
Q 47.609375 13.234375 47.609375 19.390625 
Q 47.609375 24.75 44.3125 27.78125 
Q 41.015625 30.8125 33.5 32.328125 
L 27.484375 33.5 
Q 16.453125 35.6875 11.515625 40.375 
Q 6.59375 45.0625 6.59375 53.421875 
Q 6.59375 63.09375 13.40625 68.65625 
Q 20.21875 74.21875 32.171875 74.21875 
Q 37.3125 74.21875 42.625 73.28125 
Q 47.953125 72.359375 53.515625 70.515625 
z
" id="DejaVuSans-83"/>
      <path d="M 18.3125 70.21875 
L 18.3125 54.6875 
L 36.8125 54.6875 
L 36.8125 47.703125 
L 18.3125 47.703125 
L 18.3125 18.015625 
Q 18.3125 11.328125 20.140625 9.421875 
Q 21.96875 7.515625 27.59375 7.515625 
L 36.8125 7.515625 
L 36.8125 0 
L 27.59375 0 
Q 17.1875 0 13.234375 3.875 
Q 9.28125 7.765625 9.28125 18.015625 
L 9.28125 47.703125 
L 2.6875 47.703125 
L 2.6875 54.6875 
L 9.28125 54.6875 
L 9.28125 70.21875 
z
" id="DejaVuSans-116"/>
      <path d="M 56.203125 29.59375 
L 56.203125 25.203125 
L 14.890625 25.203125 
Q 15.484375 15.921875 20.484375 11.0625 
Q 25.484375 6.203125 34.421875 6.203125 
Q 39.59375 6.203125 44.453125 7.46875 
Q 49.3125 8.734375 54.109375 11.28125 
L 54.109375 2.78125 
Q 49.265625 0.734375 44.1875 -0.34375 
Q 39.109375 -1.421875 33.890625 -1.421875 
Q 20.796875 -1.421875 13.15625 6.1875 
Q 5.515625 13.8125 5.515625 26.8125 
Q 5.515625 40.234375 12.765625 48.109375 
Q 20.015625 56 32.328125 56 
Q 43.359375 56 49.78125 48.890625 
Q 56.203125 41.796875 56.203125 29.59375 
z
M 47.21875 32.234375 
Q 47.125 39.59375 43.09375 43.984375 
Q 39.0625 48.390625 32.421875 48.390625 
Q 24.90625 48.390625 20.390625 44.140625 
Q 15.875 39.890625 15.1875 32.171875 
z
" id="DejaVuSans-101"/>
      <path d="M 18.109375 8.203125 
L 18.109375 -20.796875 
L 9.078125 -20.796875 
L 9.078125 54.6875 
L 18.109375 54.6875 
L 18.109375 46.390625 
Q 20.953125 51.265625 25.265625 53.625 
Q 29.59375 56 35.59375 56 
Q 45.5625 56 51.78125 48.09375 
Q 58.015625 40.1875 58.015625 27.296875 
Q 58.015625 14.40625 51.78125 6.484375 
Q 45.5625 -1.421875 35.59375 -1.421875 
Q 29.59375 -1.421875 25.265625 0.953125 
Q 20.953125 3.328125 18.109375 8.203125 
z
M 48.6875 27.296875 
Q 48.6875 37.203125 44.609375 42.84375 
Q 40.53125 48.484375 33.40625 48.484375 
Q 26.265625 48.484375 22.1875 42.84375 
Q 18.109375 37.203125 18.109375 27.296875 
Q 18.109375 17.390625 22.1875 11.75 
Q 26.265625 6.109375 33.40625 6.109375 
Q 40.53125 6.109375 44.609375 11.75 
Q 48.6875 17.390625 48.6875 27.296875 
z
" id="DejaVuSans-112"/>
      <path d="M 44.28125 53.078125 
L 44.28125 44.578125 
Q 40.484375 46.53125 36.375 47.5 
Q 32.28125 48.484375 27.875 48.484375 
Q 21.1875 48.484375 17.84375 46.4375 
Q 14.5 44.390625 14.5 40.28125 
Q 14.5 37.15625 16.890625 35.375 
Q 19.28125 33.59375 26.515625 31.984375 
L 29.59375 31.296875 
Q 39.15625 29.25 43.1875 25.515625 
Q 47.21875 21.78125 47.21875 15.09375 
Q 47.21875 7.46875 41.1875 3.015625 
Q 35.15625 -1.421875 24.609375 -1.421875 
Q 20.21875 -1.421875 15.453125 -0.5625 
Q 10.6875 0.296875 5.421875 2 
L 5.421875 11.28125 
Q 10.40625 8.6875 15.234375 7.390625 
Q 20.0625 6.109375 24.8125 6.109375 
Q 31.15625 6.109375 34.5625 8.28125 
Q 37.984375 10.453125 37.984375 14.40625 
Q 37.984375 18.0625 35.515625 20.015625 
Q 33.0625 21.96875 24.703125 23.78125 
L 21.578125 24.515625 
Q 13.234375 26.265625 9.515625 29.90625 
Q 5.8125 33.546875 5.8125 39.890625 
Q 5.8125 47.609375 11.28125 51.796875 
Q 16.75 56 26.8125 56 
Q 31.78125 56 36.171875 55.265625 
Q 40.578125 54.546875 44.28125 53.078125 
z
" id="DejaVuSans-115"/>
     </defs>
     <g transform="translate(222.170156 335.860562)scale(0.1 -0.1)">
      <use xlink:href="#DejaVuSans-83"/>
      <use x="63.476562" xlink:href="#DejaVuSans-116"/>
      <use x="102.685547" xlink:href="#DejaVuSans-101"/>
      <use x="164.208984" xlink:href="#DejaVuSans-112"/>
      <use x="227.685547" xlink:href="#DejaVuSans-115"/>
     </g>
    </g>
   </g>
   <g id="matplotlib.axis_2">
    <g id="ytick_1">
     <g id="line2d_15">
      <path clip-path="url(#p567b3551eb)" d="M 57.6 281.024701 
L 414.72 281.024701 
" style="fill:none;stroke:#b0b0b0;stroke-linecap:square;stroke-width:0.8;"/>
     </g>
     <g id="line2d_16">
      <defs>
       <path d="M 0 0 
L -3.5 0 
" id="ma9ef9df54c" style="stroke:#000000;stroke-width:0.8;"/>
      </defs>
      <g>
       <use style="stroke:#000000;stroke-width:0.8;" x="57.6" xlink:href="#ma9ef9df54c" y="281.024701"/>
      </g>
     </g>
     <g id="text_9">
      <!-- $\mathdefault{10^{-2}}$ -->
      <defs>
       <path d="M 10.59375 35.5 
L 73.1875 35.5 
L 73.1875 27.203125 
L 10.59375 27.203125 
z
" id="DejaVuSans-8722"/>
      </defs>
      <g transform="translate(27.1 284.82392)scale(0.1 -0.1)">
       <use transform="translate(0 0.765625)" xlink:href="#DejaVuSans-49"/>
       <use transform="translate(63.623047 0.765625)" xlink:href="#DejaVuSans-48"/>
       <use transform="translate(128.203125 39.046875)scale(0.7)" xlink:href="#DejaVuSans-8722"/>
       <use transform="translate(186.855469 39.046875)scale(0.7)" xlink:href="#DejaVuSans-50"/>
      </g>
     </g>
    </g>
    <g id="ytick_2">
     <g id="line2d_17">
      <path clip-path="url(#p567b3551eb)" d="M 57.6 232.4613 
L 414.72 232.4613 
" style="fill:none;stroke:#b0b0b0;stroke-linecap:square;stroke-width:0.8;"/>
     </g>
     <g id="line2d_18">
      <g>
       <use style="stroke:#000000;stroke-width:0.8;" x="57.6" xlink:href="#ma9ef9df54c" y="232.4613"/>
      </g>
     </g>
     <g id="text_10">
      <!-- $\mathdefault{10^{-1}}$ -->
      <g transform="translate(27.1 236.260519)scale(0.1 -0.1)">
       <use transform="translate(0 0.684375)" xlink:href="#DejaVuSans-49"/>
       <use transform="translate(63.623047 0.684375)" xlink:href="#DejaVuSans-48"/>
       <use transform="translate(128.203125 38.965625)scale(0.7)" xlink:href="#DejaVuSans-8722"/>
       <use transform="translate(186.855469 38.965625)scale(0.7)" xlink:href="#DejaVuSans-49"/>
      </g>
     </g>
    </g>
    <g id="ytick_3">
     <g id="line2d_19">
      <path clip-path="url(#p567b3551eb)" d="M 57.6 183.897899 
L 414.72 183.897899 
" style="fill:none;stroke:#b0b0b0;stroke-linecap:square;stroke-width:0.8;"/>
     </g>
     <g id="line2d_20">
      <g>
       <use style="stroke:#000000;stroke-width:0.8;" x="57.6" xlink:href="#ma9ef9df54c" y="183.897899"/>
      </g>
     </g>
     <g id="text_11">
      <!-- $\mathdefault{10^{0}}$ -->
      <g transform="translate(33 187.697118)scale(0.1 -0.1)">
       <use transform="translate(0 0.765625)" xlink:href="#DejaVuSans-49"/>
       <use transform="translate(63.623047 0.765625)" xlink:href="#DejaVuSans-48"/>
       <use transform="translate(128.203125 39.046875)scale(0.7)" xlink:href="#DejaVuSans-48"/>
      </g>
     </g>
    </g>
    <g id="ytick_4">
     <g id="line2d_21">
      <path clip-path="url(#p567b3551eb)" d="M 57.6 135.334498 
L 414.72 135.334498 
" style="fill:none;stroke:#b0b0b0;stroke-linecap:square;stroke-width:0.8;"/>
     </g>
     <g id="line2d_22">
      <g>
       <use style="stroke:#000000;stroke-width:0.8;" x="57.6" xlink:href="#ma9ef9df54c" y="135.334498"/>
      </g>
     </g>
     <g id="text_12">
      <!-- $\mathdefault{10^{1}}$ -->
      <g transform="translate(33 139.133717)scale(0.1 -0.1)">
       <use transform="translate(0 0.684375)" xlink:href="#DejaVuSans-49"/>
       <use transform="translate(63.623047 0.684375)" xlink:href="#DejaVuSans-48"/>
       <use transform="translate(128.203125 38.965625)scale(0.7)" xlink:href="#DejaVuSans-49"/>
      </g>
     </g>
    </g>
    <g id="ytick_5">
     <g id="line2d_23">
      <path clip-path="url(#p567b3551eb)" d="M 57.6 86.771097 
L 414.72 86.771097 
" style="fill:none;stroke:#b0b0b0;stroke-linecap:square;stroke-width:0.8;"/>
     </g>
     <g id="line2d_24">
      <g>
       <use style="stroke:#000000;stroke-width:0.8;" x="57.6" xlink:href="#ma9ef9df54c" y="86.771097"/>
      </g>
     </g>
     <g id="text_13">
      <!-- $\mathdefault{10^{2}}$ -->
      <g transform="translate(33 90.570316)scale(0.1 -0.1)">
       <use transform="translate(0 0.765625)" xlink:href="#DejaVuSans-49"/>
       <use transform="translate(63.623047 0.765625)" xlink:href="#DejaVuSans-48"/>
       <use transform="translate(128.203125 39.046875)scale(0.7)" xlink:href="#DejaVuSans-50"/>
      </g>
     </g>
    </g>
    <g id="ytick_6">
     <g id="line2d_25">
      <defs>
       <path d="M 0 0 
L -2 0 
" id="m51998a2bdc" style="stroke:#000000;stroke-width:0.6;"/>
      </defs>
      <g>
       <use style="stroke:#000000;stroke-width:0.6;" x="57.6" xlink:href="#m51998a2bdc" y="306.417471"/>
      </g>
     </g>
    </g>
    <g id="ytick_7">
     <g id="line2d_26">
      <g>
       <use style="stroke:#000000;stroke-width:0.6;" x="57.6" xlink:href="#m51998a2bdc" y="300.350021"/>
      </g>
     </g>
    </g>
    <g id="ytick_8">
     <g id="line2d_27">
      <g>
       <use style="stroke:#000000;stroke-width:0.6;" x="57.6" xlink:href="#m51998a2bdc" y="295.643742"/>
      </g>
     </g>
    </g>
    <g id="ytick_9">
     <g id="line2d_28">
      <g>
       <use style="stroke:#000000;stroke-width:0.6;" x="57.6" xlink:href="#m51998a2bdc" y="291.798431"/>
      </g>
     </g>
    </g>
    <g id="ytick_10">
     <g id="line2d_29">
      <g>
       <use style="stroke:#000000;stroke-width:0.6;" x="57.6" xlink:href="#m51998a2bdc" y="288.547267"/>
      </g>
     </g>
    </g>
    <g id="ytick_11">
     <g id="line2d_30">
      <g>
       <use style="stroke:#000000;stroke-width:0.6;" x="57.6" xlink:href="#m51998a2bdc" y="285.730981"/>
      </g>
     </g>
    </g>
    <g id="ytick_12">
     <g id="line2d_31">
      <g>
       <use style="stroke:#000000;stroke-width:0.6;" x="57.6" xlink:href="#m51998a2bdc" y="283.246841"/>
      </g>
     </g>
    </g>
    <g id="ytick_13">
     <g id="line2d_32">
      <g>
       <use style="stroke:#000000;stroke-width:0.6;" x="57.6" xlink:href="#m51998a2bdc" y="266.405661"/>
      </g>
     </g>
    </g>
    <g id="ytick_14">
     <g id="line2d_33">
      <g>
       <use style="stroke:#000000;stroke-width:0.6;" x="57.6" xlink:href="#m51998a2bdc" y="257.85407"/>
      </g>
     </g>
    </g>
    <g id="ytick_15">
     <g id="line2d_34">
      <g>
       <use style="stroke:#000000;stroke-width:0.6;" x="57.6" xlink:href="#m51998a2bdc" y="251.78662"/>
      </g>
     </g>
    </g>
    <g id="ytick_16">
     <g id="line2d_35">
      <g>
       <use style="stroke:#000000;stroke-width:0.6;" x="57.6" xlink:href="#m51998a2bdc" y="247.080341"/>
      </g>
     </g>
    </g>
    <g id="ytick_17">
     <g id="line2d_36">
      <g>
       <use style="stroke:#000000;stroke-width:0.6;" x="57.6" xlink:href="#m51998a2bdc" y="243.23503"/>
      </g>
     </g>
    </g>
    <g id="ytick_18">
     <g id="line2d_37">
      <g>
       <use style="stroke:#000000;stroke-width:0.6;" x="57.6" xlink:href="#m51998a2bdc" y="239.983866"/>
      </g>
     </g>
    </g>
    <g id="ytick_19">
     <g id="line2d_38">
      <g>
       <use style="stroke:#000000;stroke-width:0.6;" x="57.6" xlink:href="#m51998a2bdc" y="237.16758"/>
      </g>
     </g>
    </g>
    <g id="ytick_20">
     <g id="line2d_39">
      <g>
       <use style="stroke:#000000;stroke-width:0.6;" x="57.6" xlink:href="#m51998a2bdc" y="234.683439"/>
      </g>
     </g>
    </g>
    <g id="ytick_21">
     <g id="line2d_40">
      <g>
       <use style="stroke:#000000;stroke-width:0.6;" x="57.6" xlink:href="#m51998a2bdc" y="217.84226"/>
      </g>
     </g>
    </g>
    <g id="ytick_22">
     <g id="line2d_41">
      <g>
       <use style="stroke:#000000;stroke-width:0.6;" x="57.6" xlink:href="#m51998a2bdc" y="209.290669"/>
      </g>
     </g>
    </g>
    <g id="ytick_23">
     <g id="line2d_42">
      <g>
       <use style="stroke:#000000;stroke-width:0.6;" x="57.6" xlink:href="#m51998a2bdc" y="203.223219"/>
      </g>
     </g>
    </g>
    <g id="ytick_24">
     <g id="line2d_43">
      <g>
       <use style="stroke:#000000;stroke-width:0.6;" x="57.6" xlink:href="#m51998a2bdc" y="198.516939"/>
      </g>
     </g>
    </g>
    <g id="ytick_25">
     <g id="line2d_44">
      <g>
       <use style="stroke:#000000;stroke-width:0.6;" x="57.6" xlink:href="#m51998a2bdc" y="194.671629"/>
      </g>
     </g>
    </g>
    <g id="ytick_26">
     <g id="line2d_45">
      <g>
       <use style="stroke:#000000;stroke-width:0.6;" x="57.6" xlink:href="#m51998a2bdc" y="191.420465"/>
      </g>
     </g>
    </g>
    <g id="ytick_27">
     <g id="line2d_46">
      <g>
       <use style="stroke:#000000;stroke-width:0.6;" x="57.6" xlink:href="#m51998a2bdc" y="188.604179"/>
      </g>
     </g>
    </g>
    <g id="ytick_28">
     <g id="line2d_47">
      <g>
       <use style="stroke:#000000;stroke-width:0.6;" x="57.6" xlink:href="#m51998a2bdc" y="186.120038"/>
      </g>
     </g>
    </g>
    <g id="ytick_29">
     <g id="line2d_48">
      <g>
       <use style="stroke:#000000;stroke-width:0.6;" x="57.6" xlink:href="#m51998a2bdc" y="169.278859"/>
      </g>
     </g>
    </g>
    <g id="ytick_30">
     <g id="line2d_49">
      <g>
       <use style="stroke:#000000;stroke-width:0.6;" x="57.6" xlink:href="#m51998a2bdc" y="160.727268"/>
      </g>
     </g>
    </g>
    <g id="ytick_31">
     <g id="line2d_50">
      <g>
       <use style="stroke:#000000;stroke-width:0.6;" x="57.6" xlink:href="#m51998a2bdc" y="154.659818"/>
      </g>
     </g>
    </g>
    <g id="ytick_32">
     <g id="line2d_51">
      <g>
       <use style="stroke:#000000;stroke-width:0.6;" x="57.6" xlink:href="#m51998a2bdc" y="149.953538"/>
      </g>
     </g>
    </g>
    <g id="ytick_33">
     <g id="line2d_52">
      <g>
       <use style="stroke:#000000;stroke-width:0.6;" x="57.6" xlink:href="#m51998a2bdc" y="146.108228"/>
      </g>
     </g>
    </g>
    <g id="ytick_34">
     <g id="line2d_53">
      <g>
       <use style="stroke:#000000;stroke-width:0.6;" x="57.6" xlink:href="#m51998a2bdc" y="142.857064"/>
      </g>
     </g>
    </g>
    <g id="ytick_35">
     <g id="line2d_54">
      <g>
       <use style="stroke:#000000;stroke-width:0.6;" x="57.6" xlink:href="#m51998a2bdc" y="140.040778"/>
      </g>
     </g>
    </g>
    <g id="ytick_36">
     <g id="line2d_55">
      <g>
       <use style="stroke:#000000;stroke-width:0.6;" x="57.6" xlink:href="#m51998a2bdc" y="137.556637"/>
      </g>
     </g>
    </g>
    <g id="ytick_37">
     <g id="line2d_56">
      <g>
       <use style="stroke:#000000;stroke-width:0.6;" x="57.6" xlink:href="#m51998a2bdc" y="120.715457"/>
      </g>
     </g>
    </g>
    <g id="ytick_38">
     <g id="line2d_57">
      <g>
       <use style="stroke:#000000;stroke-width:0.6;" x="57.6" xlink:href="#m51998a2bdc" y="112.163867"/>
      </g>
     </g>
    </g>
    <g id="ytick_39">
     <g id="line2d_58">
      <g>
       <use style="stroke:#000000;stroke-width:0.6;" x="57.6" xlink:href="#m51998a2bdc" y="106.096417"/>
      </g>
     </g>
    </g>
    <g id="ytick_40">
     <g id="line2d_59">
      <g>
       <use style="stroke:#000000;stroke-width:0.6;" x="57.6" xlink:href="#m51998a2bdc" y="101.390137"/>
      </g>
     </g>
    </g>
    <g id="ytick_41">
     <g id="line2d_60">
      <g>
       <use style="stroke:#000000;stroke-width:0.6;" x="57.6" xlink:href="#m51998a2bdc" y="97.544827"/>
      </g>
     </g>
    </g>
    <g id="ytick_42">
     <g id="line2d_61">
      <g>
       <use style="stroke:#000000;stroke-width:0.6;" x="57.6" xlink:href="#m51998a2bdc" y="94.293663"/>
      </g>
     </g>
    </g>
    <g id="ytick_43">
     <g id="line2d_62">
      <g>
       <use style="stroke:#000000;stroke-width:0.6;" x="57.6" xlink:href="#m51998a2bdc" y="91.477377"/>
      </g>
     </g>
    </g>
    <g id="ytick_44">
     <g id="line2d_63">
      <g>
       <use style="stroke:#000000;stroke-width:0.6;" x="57.6" xlink:href="#m51998a2bdc" y="88.993236"/>
      </g>
     </g>
    </g>
    <g id="ytick_45">
     <g id="line2d_64">
      <g>
       <use style="stroke:#000000;stroke-width:0.6;" x="57.6" xlink:href="#m51998a2bdc" y="72.152056"/>
      </g>
     </g>
    </g>
    <g id="ytick_46">
     <g id="line2d_65">
      <g>
       <use style="stroke:#000000;stroke-width:0.6;" x="57.6" xlink:href="#m51998a2bdc" y="63.600466"/>
      </g>
     </g>
    </g>
    <g id="ytick_47">
     <g id="line2d_66">
      <g>
       <use style="stroke:#000000;stroke-width:0.6;" x="57.6" xlink:href="#m51998a2bdc" y="57.533016"/>
      </g>
     </g>
    </g>
    <g id="ytick_48">
     <g id="line2d_67">
      <g>
       <use style="stroke:#000000;stroke-width:0.6;" x="57.6" xlink:href="#m51998a2bdc" y="52.826736"/>
      </g>
     </g>
    </g>
    <g id="ytick_49">
     <g id="line2d_68">
      <g>
       <use style="stroke:#000000;stroke-width:0.6;" x="57.6" xlink:href="#m51998a2bdc" y="48.981426"/>
      </g>
     </g>
    </g>
    <g id="ytick_50">
     <g id="line2d_69">
      <g>
       <use style="stroke:#000000;stroke-width:0.6;" x="57.6" xlink:href="#m51998a2bdc" y="45.730262"/>
      </g>
     </g>
    </g>
    <g id="ytick_51">
     <g id="line2d_70">
      <g>
       <use style="stroke:#000000;stroke-width:0.6;" x="57.6" xlink:href="#m51998a2bdc" y="42.913976"/>
      </g>
     </g>
    </g>
    <g id="text_14">
     <!-- Feature Mathing Error -->
     <defs>
      <path d="M 9.8125 72.90625 
L 51.703125 72.90625 
L 51.703125 64.59375 
L 19.671875 64.59375 
L 19.671875 43.109375 
L 48.578125 43.109375 
L 48.578125 34.8125 
L 19.671875 34.8125 
L 19.671875 0 
L 9.8125 0 
z
" id="DejaVuSans-70"/>
      <path d="M 34.28125 27.484375 
Q 23.390625 27.484375 19.1875 25 
Q 14.984375 22.515625 14.984375 16.5 
Q 14.984375 11.71875 18.140625 8.90625 
Q 21.296875 6.109375 26.703125 6.109375 
Q 34.1875 6.109375 38.703125 11.40625 
Q 43.21875 16.703125 43.21875 25.484375 
L 43.21875 27.484375 
z
M 52.203125 31.203125 
L 52.203125 0 
L 43.21875 0 
L 43.21875 8.296875 
Q 40.140625 3.328125 35.546875 0.953125 
Q 30.953125 -1.421875 24.3125 -1.421875 
Q 15.921875 -1.421875 10.953125 3.296875 
Q 6 8.015625 6 15.921875 
Q 6 25.140625 12.171875 29.828125 
Q 18.359375 34.515625 30.609375 34.515625 
L 43.21875 34.515625 
L 43.21875 35.40625 
Q 43.21875 41.609375 39.140625 45 
Q 35.0625 48.390625 27.6875 48.390625 
Q 23 48.390625 18.546875 47.265625 
Q 14.109375 46.140625 10.015625 43.890625 
L 10.015625 52.203125 
Q 14.9375 54.109375 19.578125 55.046875 
Q 24.21875 56 28.609375 56 
Q 40.484375 56 46.34375 49.84375 
Q 52.203125 43.703125 52.203125 31.203125 
z
" id="DejaVuSans-97"/>
      <path d="M 8.5 21.578125 
L 8.5 54.6875 
L 17.484375 54.6875 
L 17.484375 21.921875 
Q 17.484375 14.15625 20.5 10.265625 
Q 23.53125 6.390625 29.59375 6.390625 
Q 36.859375 6.390625 41.078125 11.03125 
Q 45.3125 15.671875 45.3125 23.6875 
L 45.3125 54.6875 
L 54.296875 54.6875 
L 54.296875 0 
L 45.3125 0 
L 45.3125 8.40625 
Q 42.046875 3.421875 37.71875 1 
Q 33.40625 -1.421875 27.6875 -1.421875 
Q 18.265625 -1.421875 13.375 4.4375 
Q 8.5 10.296875 8.5 21.578125 
z
M 31.109375 56 
z
" id="DejaVuSans-117"/>
      <path d="M 41.109375 46.296875 
Q 39.59375 47.171875 37.8125 47.578125 
Q 36.03125 48 33.890625 48 
Q 26.265625 48 22.1875 43.046875 
Q 18.109375 38.09375 18.109375 28.8125 
L 18.109375 0 
L 9.078125 0 
L 9.078125 54.6875 
L 18.109375 54.6875 
L 18.109375 46.1875 
Q 20.953125 51.171875 25.484375 53.578125 
Q 30.03125 56 36.53125 56 
Q 37.453125 56 38.578125 55.875 
Q 39.703125 55.765625 41.0625 55.515625 
z
" id="DejaVuSans-114"/>
      <path id="DejaVuSans-32"/>
      <path d="M 9.8125 72.90625 
L 24.515625 72.90625 
L 43.109375 23.296875 
L 61.8125 72.90625 
L 76.515625 72.90625 
L 76.515625 0 
L 66.890625 0 
L 66.890625 64.015625 
L 48.09375 14.015625 
L 38.1875 14.015625 
L 19.390625 64.015625 
L 19.390625 0 
L 9.8125 0 
z
" id="DejaVuSans-77"/>
      <path d="M 54.890625 33.015625 
L 54.890625 0 
L 45.90625 0 
L 45.90625 32.71875 
Q 45.90625 40.484375 42.875 44.328125 
Q 39.84375 48.1875 33.796875 48.1875 
Q 26.515625 48.1875 22.3125 43.546875 
Q 18.109375 38.921875 18.109375 30.90625 
L 18.109375 0 
L 9.078125 0 
L 9.078125 75.984375 
L 18.109375 75.984375 
L 18.109375 46.1875 
Q 21.34375 51.125 25.703125 53.5625 
Q 30.078125 56 35.796875 56 
Q 45.21875 56 50.046875 50.171875 
Q 54.890625 44.34375 54.890625 33.015625 
z
" id="DejaVuSans-104"/>
      <path d="M 9.421875 54.6875 
L 18.40625 54.6875 
L 18.40625 0 
L 9.421875 0 
z
M 9.421875 75.984375 
L 18.40625 75.984375 
L 18.40625 64.59375 
L 9.421875 64.59375 
z
" id="DejaVuSans-105"/>
      <path d="M 54.890625 33.015625 
L 54.890625 0 
L 45.90625 0 
L 45.90625 32.71875 
Q 45.90625 40.484375 42.875 44.328125 
Q 39.84375 48.1875 33.796875 48.1875 
Q 26.515625 48.1875 22.3125 43.546875 
Q 18.109375 38.921875 18.109375 30.90625 
L 18.109375 0 
L 9.078125 0 
L 9.078125 54.6875 
L 18.109375 54.6875 
L 18.109375 46.1875 
Q 21.34375 51.125 25.703125 53.5625 
Q 30.078125 56 35.796875 56 
Q 45.21875 56 50.046875 50.171875 
Q 54.890625 44.34375 54.890625 33.015625 
z
" id="DejaVuSans-110"/>
      <path d="M 45.40625 27.984375 
Q 45.40625 37.75 41.375 43.109375 
Q 37.359375 48.484375 30.078125 48.484375 
Q 22.859375 48.484375 18.828125 43.109375 
Q 14.796875 37.75 14.796875 27.984375 
Q 14.796875 18.265625 18.828125 12.890625 
Q 22.859375 7.515625 30.078125 7.515625 
Q 37.359375 7.515625 41.375 12.890625 
Q 45.40625 18.265625 45.40625 27.984375 
z
M 54.390625 6.78125 
Q 54.390625 -7.171875 48.1875 -13.984375 
Q 42 -20.796875 29.203125 -20.796875 
Q 24.46875 -20.796875 20.265625 -20.09375 
Q 16.0625 -19.390625 12.109375 -17.921875 
L 12.109375 -9.1875 
Q 16.0625 -11.328125 19.921875 -12.34375 
Q 23.78125 -13.375 27.78125 -13.375 
Q 36.625 -13.375 41.015625 -8.765625 
Q 45.40625 -4.15625 45.40625 5.171875 
L 45.40625 9.625 
Q 42.625 4.78125 38.28125 2.390625 
Q 33.9375 0 27.875 0 
Q 17.828125 0 11.671875 7.65625 
Q 5.515625 15.328125 5.515625 27.984375 
Q 5.515625 40.671875 11.671875 48.328125 
Q 17.828125 56 27.875 56 
Q 33.9375 56 38.28125 53.609375 
Q 42.625 51.21875 45.40625 46.390625 
L 45.40625 54.6875 
L 54.390625 54.6875 
z
" id="DejaVuSans-103"/>
      <path d="M 9.8125 72.90625 
L 55.90625 72.90625 
L 55.90625 64.59375 
L 19.671875 64.59375 
L 19.671875 43.015625 
L 54.390625 43.015625 
L 54.390625 34.71875 
L 19.671875 34.71875 
L 19.671875 8.296875 
L 56.78125 8.296875 
L 56.78125 0 
L 9.8125 0 
z
" id="DejaVuSans-69"/>
      <path d="M 30.609375 48.390625 
Q 23.390625 48.390625 19.1875 42.75 
Q 14.984375 37.109375 14.984375 27.296875 
Q 14.984375 17.484375 19.15625 11.84375 
Q 23.34375 6.203125 30.609375 6.203125 
Q 37.796875 6.203125 41.984375 11.859375 
Q 46.1875 17.53125 46.1875 27.296875 
Q 46.1875 37.015625 41.984375 42.703125 
Q 37.796875 48.390625 30.609375 48.390625 
z
M 30.609375 56 
Q 42.328125 56 49.015625 48.375 
Q 55.71875 40.765625 55.71875 27.296875 
Q 55.71875 13.875 49.015625 6.21875 
Q 42.328125 -1.421875 30.609375 -1.421875 
Q 18.84375 -1.421875 12.171875 6.21875 
Q 5.515625 13.875 5.515625 27.296875 
Q 5.515625 40.765625 12.171875 48.375 
Q 18.84375 56 30.609375 56 
z
" id="DejaVuSans-111"/>
     </defs>
     <g transform="translate(21.020312 229.599875)rotate(-90)scale(0.1 -0.1)">
      <use xlink:href="#DejaVuSans-70"/>
      <use x="57.441406" xlink:href="#DejaVuSans-101"/>
      <use x="118.964844" xlink:href="#DejaVuSans-97"/>
      <use x="180.244141" xlink:href="#DejaVuSans-116"/>
      <use x="219.453125" xlink:href="#DejaVuSans-117"/>
      <use x="282.832031" xlink:href="#DejaVuSans-114"/>
      <use x="323.914062" xlink:href="#DejaVuSans-101"/>
      <use x="385.4375" xlink:href="#DejaVuSans-32"/>
      <use x="417.224609" xlink:href="#DejaVuSans-77"/>
      <use x="503.503906" xlink:href="#DejaVuSans-97"/>
      <use x="564.783203" xlink:href="#DejaVuSans-116"/>
      <use x="603.992188" xlink:href="#DejaVuSans-104"/>
      <use x="667.371094" xlink:href="#DejaVuSans-105"/>
      <use x="695.154297" xlink:href="#DejaVuSans-110"/>
      <use x="758.533203" xlink:href="#DejaVuSans-103"/>
      <use x="822.009766" xlink:href="#DejaVuSans-32"/>
      <use x="853.796875" xlink:href="#DejaVuSans-69"/>
      <use x="916.980469" xlink:href="#DejaVuSans-114"/>
      <use x="958.078125" xlink:href="#DejaVuSans-114"/>
      <use x="999.160156" xlink:href="#DejaVuSans-111"/>
      <use x="1060.341797" xlink:href="#DejaVuSans-114"/>
     </g>
    </g>
   </g>
   <g id="line2d_71">
    <path clip-path="url(#p567b3551eb)" d="M 74.484593 140.697222 
L 75.783211 129.111949 
L 77.081829 120.386831 
L 78.380447 129.580797 
L 79.679065 139.79521 
L 80.977684 145.701517 
L 82.276302 140.794603 
L 83.57492 134.745068 
L 84.873538 132.533914 
L 86.172156 133.753645 
L 87.470775 132.041497 
L 88.769393 131.405983 
L 90.068011 129.84162 
L 91.366629 129.075914 
L 92.665247 127.025668 
L 93.963865 127.119724 
L 95.262484 125.921967 
L 96.561102 126.182832 
L 97.85972 125.384914 
L 99.158338 124.848325 
L 100.456956 124.580197 
L 101.755575 123.405253 
L 103.054193 123.215508 
L 104.352811 124.03275 
L 105.651429 123.418171 
L 106.950047 122.98554 
L 108.248665 120.14508 
L 109.547284 119.33462 
L 110.845902 119.401294 
L 112.14452 120.572512 
L 113.443138 121.058329 
L 114.741756 122.056959 
L 116.040375 121.901821 
L 117.338993 120.391344 
L 118.637611 118.962484 
L 119.936229 117.993026 
L 121.234847 115.997648 
L 122.533465 115.335293 
L 123.832084 114.28579 
L 125.130702 113.828572 
L 126.42932 112.864662 
L 127.727938 111.996183 
L 129.026556 112.45205 
L 130.325175 110.86248 
L 131.623793 111.434519 
L 132.922411 110.238627 
L 134.221029 109.761781 
L 135.519647 109.965233 
L 136.818265 109.680833 
L 138.116884 109.264576 
L 138.799425 110.211004 
" style="fill:none;stroke:#aec7e8;stroke-linecap:square;stroke-width:1.5;"/>
   </g>
   <g id="line2d_72">
    <path clip-path="url(#p567b3551eb)" d="M 73.832727 288.05194 
L 77.079273 131.514806 
L 80.325818 139.115025 
L 83.572364 135.57908 
L 86.818909 133.13374 
L 90.065455 130.52445 
L 93.312 127.172868 
L 96.558545 126.111424 
L 99.805091 124.403847 
L 103.051636 124.810957 
L 106.298182 122.808962 
L 109.544727 119.277877 
L 112.791273 120.012356 
L 116.037818 122.597268 
L 119.284364 118.869185 
L 122.530909 115.154771 
L 125.777455 113.849349 
L 129.024 112.647226 
L 132.270545 111.252441 
L 135.517091 109.533143 
L 138.763636 109.550621 
" style="fill:none;stroke:#1f77b4;stroke-linecap:square;stroke-width:1.5;"/>
   </g>
   <g id="line2d_73">
    <path clip-path="url(#p567b3551eb)" d="M 77.081829 162.271711 
L 83.57492 152.826305 
L 90.068011 147.312115 
L 96.561102 138.507023 
L 103.054193 121.143444 
L 109.547284 107.358716 
L 116.040375 99.281646 
L 122.533465 93.781756 
L 129.026556 89.234441 
L 135.519647 85.734954 
L 142.012738 82.918598 
L 148.505829 81.150421 
L 154.99892 79.208745 
L 161.492011 77.751571 
L 167.985102 76.195306 
L 174.478193 74.79223 
L 180.971284 73.444284 
L 187.464375 72.706263 
L 193.957465 71.851059 
L 200.450556 70.820757 
L 206.943647 70.073189 
L 213.436738 69.23702 
L 219.929829 68.626765 
L 226.42292 67.699697 
L 232.916011 67.177681 
L 239.409102 66.698289 
L 245.902193 66.369665 
L 252.395284 65.87642 
L 258.888375 65.622542 
L 265.381465 65.260136 
L 271.874556 64.79448 
L 278.367647 64.097751 
L 284.860738 63.698565 
L 291.353829 63.153977 
L 297.84692 62.769056 
L 304.340011 62.60773 
L 310.833102 62.393114 
L 317.326193 61.940117 
L 323.819284 61.515116 
L 330.312375 61.066772 
L 336.805465 60.82512 
L 343.298556 60.477345 
L 349.791647 60.470066 
L 356.284738 59.946825 
L 362.777829 59.808845 
L 369.27092 59.187448 
L 375.764011 59.296291 
L 382.257102 59.055096 
L 388.750193 58.209159 
L 395.243284 57.687401 
" style="fill:none;stroke:#ffbb78;stroke-linecap:square;stroke-width:1.5;"/>
   </g>
   <g id="line2d_74">
    <path clip-path="url(#p567b3551eb)" d="M 73.832727 294.373931 
L 77.079273 166.674316 
L 80.325818 164.966523 
L 83.572364 145.129287 
L 86.818909 144.82701 
L 90.065455 149.017289 
L 93.312 145.147142 
L 96.558545 130.331139 
L 99.805091 131.007001 
L 103.051636 121.020422 
L 106.298182 114.096754 
L 109.544727 106.939097 
L 112.791273 102.04974 
L 116.037818 98.644295 
L 119.284364 95.48026 
L 122.530909 92.591393 
L 125.777455 90.327896 
L 129.024 88.014346 
L 132.270545 85.832839 
L 135.517091 84.281797 
L 138.763636 82.710559 
L 142.010182 81.603218 
L 145.256727 80.616682 
L 148.503273 79.239056 
L 151.749818 78.051505 
L 154.996364 76.976658 
L 158.242909 76.461146 
L 161.489455 75.259151 
L 164.736 74.492124 
L 167.982545 73.916545 
L 171.229091 72.917398 
L 174.475636 72.579805 
L 177.722182 71.632954 
L 180.968727 70.650305 
L 184.215273 70.502392 
L 187.461818 69.782129 
L 190.708364 69.889511 
L 193.954909 68.966447 
L 197.201455 68.225682 
L 200.448 67.608626 
L 203.694545 67.757397 
L 206.941091 66.992103 
L 210.187636 66.612039 
L 213.434182 66.269555 
L 216.680727 65.992904 
L 219.927273 65.292841 
L 223.173818 64.90163 
L 226.420364 64.564064 
L 229.666909 64.235768 
L 232.913455 63.861253 
L 236.16 63.534296 
L 239.406545 63.540954 
L 242.653091 63.177164 
L 245.899636 63.24605 
L 249.146182 62.915067 
L 252.392727 62.46444 
L 255.639273 62.252151 
L 258.885818 62.407631 
L 262.132364 62.096729 
L 265.378909 62.330408 
L 268.625455 61.756104 
L 271.872 61.45107 
L 275.118545 61.018235 
L 278.365091 60.576915 
L 281.611636 60.345383 
L 284.858182 60.241747 
L 288.104727 59.839274 
L 291.351273 59.36412 
L 294.597818 59.093081 
L 297.844364 59.327368 
L 301.090909 59.174426 
L 304.337455 58.818242 
L 307.584 58.851725 
L 310.830545 58.755747 
L 314.077091 58.616872 
L 317.323636 58.20501 
L 320.570182 58.305632 
L 323.816727 57.948037 
L 327.063273 57.246759 
L 330.309818 57.262727 
L 333.556364 57.412999 
L 336.802909 56.946266 
L 340.049455 57.167505 
L 343.296 56.693294 
L 346.542545 56.304922 
L 349.789091 56.726351 
L 353.035636 56.289322 
L 356.282182 55.74988 
L 359.528727 56.033822 
L 362.775273 56.047877 
L 366.021818 55.880798 
L 369.268364 55.272868 
L 372.514909 55.662413 
L 375.761455 55.832705 
L 379.008 55.550138 
L 382.254545 55.340337 
L 385.501091 55.033986 
L 388.747636 54.25899 
L 391.994182 54.093261 
L 395.240727 53.999427 
L 398.487273 53.909594 
" style="fill:none;stroke:#ff7f0e;stroke-linecap:square;stroke-width:1.5;"/>
   </g>
   <g id="line2d_75">
    <path clip-path="url(#p567b3551eb)" d="M 75.847119 132.705007 
L 79.870791 151.789847 
L 83.894462 142.785386 
L 87.918133 131.99968 
L 91.941804 129.191284 
L 95.965476 127.864118 
L 99.989147 126.931149 
L 104.012818 126.332736 
L 108.03649 125.445649 
L 112.060161 122.103721 
L 116.083832 118.619664 
L 120.107504 115.640344 
L 124.131175 112.903833 
L 128.154846 110.230294 
L 132.178517 108.429275 
L 136.202189 107.116987 
L 140.22586 105.912139 
L 144.249531 106.109952 
L 148.273203 105.703733 
L 152.296874 105.67765 
L 156.320545 104.651944 
L 160.344216 103.156487 
L 164.367888 101.311976 
L 168.391559 99.889087 
L 172.41523 98.724272 
L 176.438902 98.169459 
L 180.462573 97.946088 
L 184.486244 98.389667 
L 188.509916 99.334729 
L 192.533587 98.882727 
L 196.557258 98.687906 
L 200.580929 98.580595 
L 204.604601 98.718909 
L 208.628272 99.130383 
L 212.651943 98.46482 
L 216.675615 97.966477 
L 220.699286 97.808696 
L 224.722957 97.812857 
L 228.746628 98.070706 
L 232.7703 97.787182 
L 236.793971 96.731768 
L 240.817642 96.226956 
L 244.841314 96.340433 
L 248.864985 96.134443 
L 252.888656 96.069488 
L 256.912328 95.422574 
L 260.935999 95.362427 
L 264.95967 95.132523 
L 268.983341 94.960095 
L 273.007013 94.892566 
L 275.069975 94.75054 
" style="fill:none;stroke:#98df8a;stroke-linecap:square;stroke-width:1.5;"/>
   </g>
   <g id="line2d_76">
    <path clip-path="url(#p567b3551eb)" d="M 73.832727 291.062828 
L 77.079273 133.891989 
L 80.325818 159.810793 
L 83.572364 146.412502 
L 86.818909 135.106688 
L 90.065455 130.69741 
L 93.312 130.07043 
L 96.558545 126.242035 
L 99.805091 126.750565 
L 103.051636 127.764626 
L 106.298182 126.444805 
L 109.544727 125.182357 
L 112.791273 122.003378 
L 116.037818 119.508721 
L 119.284364 115.940802 
L 122.530909 113.592363 
L 125.777455 111.424699 
L 129.024 109.635362 
L 132.270545 107.839538 
L 135.517091 106.982331 
L 138.763636 106.268611 
L 142.010182 105.162638 
L 145.256727 105.818664 
L 148.503273 105.441021 
L 151.749818 105.365046 
L 154.996364 104.907031 
L 158.242909 103.5096 
L 161.489455 102.322227 
L 164.736 100.755772 
L 167.982545 99.374546 
L 171.229091 98.32586 
L 174.475636 97.920211 
L 177.722182 97.304521 
L 180.968727 97.143179 
L 184.215273 98.120092 
L 187.461818 98.079143 
L 190.708364 98.077518 
L 193.954909 98.185185 
L 197.201455 97.796366 
L 200.448 97.852674 
L 203.694545 98.096661 
L 206.941091 97.77899 
L 210.187636 98.191531 
L 213.434182 97.261438 
L 216.680727 96.814463 
L 219.927273 96.928491 
L 223.173818 96.253047 
L 226.420364 96.141401 
L 229.666909 96.256097 
L 232.913455 96.486737 
L 236.16 96.193819 
L 239.406545 94.562194 
L 242.653091 94.622394 
L 245.899636 95.214165 
L 249.146182 94.657439 
L 252.392727 94.431178 
L 255.639273 93.752563 
L 258.885818 93.787133 
L 262.132364 93.522154 
L 265.378909 93.177943 
L 268.625455 93.388341 
L 271.872 93.182784 
" style="fill:none;stroke:#2ca02c;stroke-linecap:square;stroke-width:1.5;"/>
   </g>
   <g id="line2d_77">
    <path clip-path="url(#p567b3551eb)" d="M 75.568479 117.2546 
L 79.034869 141.021047 
L 82.501259 145.996342 
L 85.96765 138.060882 
L 89.43404 134.928097 
L 92.90043 134.624043 
L 96.36682 132.065033 
L 99.833211 131.518352 
L 103.299601 127.732662 
L 106.765991 125.8214 
L 110.232381 124.041113 
L 113.698772 121.557876 
L 117.165162 120.13343 
L 120.631552 117.636256 
L 124.097942 115.488731 
L 127.564333 113.483947 
L 131.030723 112.144053 
L 134.497113 110.978305 
L 137.963504 109.515779 
L 141.429894 108.395159 
L 144.896284 106.965723 
L 148.362674 105.440998 
L 151.829065 104.564052 
L 155.295455 103.481637 
L 158.761845 102.468352 
L 162.228235 101.586706 
L 165.694626 101.169542 
L 169.161016 100.084137 
L 172.627406 99.377702 
L 176.093796 98.67824 
L 179.560187 99.012646 
L 183.026577 99.457079 
L 186.492967 100.006356 
L 189.959357 100.701952 
L 193.425748 101.507137 
L 196.892138 102.268986 
L 200.358528 102.268818 
L 203.824919 101.720789 
L 207.291309 101.614904 
L 210.757699 101.825767 
L 214.224089 101.984663 
L 217.69048 101.369864 
L 221.15687 100.480251 
L 224.62326 100.556067 
L 228.08965 100.586302 
L 231.556041 100.602028 
L 235.022431 100.762033 
L 238.488821 100.316423 
L 241.955211 100.615448 
L 245.421602 100.744152 
L 247.18036 100.861027 
" style="fill:none;stroke:#ff9896;stroke-linecap:square;stroke-width:1.5;"/>
   </g>
   <g id="line2d_78">
    <path clip-path="url(#p567b3551eb)" d="M 73.832727 295.488 
L 77.079273 125.490809 
L 80.325818 142.899691 
L 83.572364 146.131847 
L 86.818909 137.184298 
L 90.065455 134.174844 
L 93.312 135.338607 
L 96.558545 132.137048 
L 99.805091 133.263198 
L 103.051636 127.576524 
L 106.298182 126.22987 
L 109.544727 123.939829 
L 112.791273 121.787255 
L 116.037818 120.101769 
L 119.284364 118.034109 
L 122.530909 115.329612 
L 125.777455 113.995842 
L 129.024 112.803735 
L 132.270545 110.969204 
L 135.517091 109.961634 
L 138.763636 108.954213 
L 142.010182 107.933124 
L 145.256727 105.835162 
L 148.503273 104.862877 
L 151.749818 103.669286 
L 154.996364 102.722442 
L 158.242909 101.718628 
L 161.489455 100.547112 
L 164.736 100.120437 
L 167.982545 98.83651 
L 171.229091 98.076739 
L 174.475636 97.199791 
L 177.722182 97.11518 
L 180.968727 98.003733 
L 184.215273 98.120303 
L 187.461818 98.59643 
L 190.708364 99.070633 
L 193.954909 99.811001 
L 197.201455 100.391042 
L 200.448 100.590228 
L 203.694545 99.463837 
L 206.941091 99.546297 
L 210.187636 99.637723 
L 213.434182 99.957264 
L 216.680727 99.60524 
L 219.927273 97.921867 
L 223.173818 98.276472 
L 226.420364 98.271842 
L 229.666909 98.327975 
L 232.913455 98.340536 
L 236.16 98.320681 
L 239.406545 98.218839 
L 242.653091 98.308379 
L 245.899636 97.954069 
" style="fill:none;stroke:#d62728;stroke-linecap:square;stroke-width:1.5;"/>
   </g>
   <g id="patch_3">
    <path d="M 57.6 307.584 
L 57.6 41.472 
" style="fill:none;stroke:#000000;stroke-linecap:square;stroke-linejoin:miter;stroke-width:0.8;"/>
   </g>
   <g id="patch_4">
    <path d="M 414.72 307.584 
L 414.72 41.472 
" style="fill:none;stroke:#000000;stroke-linecap:square;stroke-linejoin:miter;stroke-width:0.8;"/>
   </g>
   <g id="patch_5">
    <path d="M 57.6 307.584 
L 414.72 307.584 
" style="fill:none;stroke:#000000;stroke-linecap:square;stroke-linejoin:miter;stroke-width:0.8;"/>
   </g>
   <g id="patch_6">
    <path d="M 57.6 41.472 
L 414.72 41.472 
" style="fill:none;stroke:#000000;stroke-linecap:square;stroke-linejoin:miter;stroke-width:0.8;"/>
   </g>
   <g id="text_15">
    <!-- Feature Matching -->
    <defs>
     <path d="M 48.78125 52.59375 
L 48.78125 44.1875 
Q 44.96875 46.296875 41.140625 47.34375 
Q 37.3125 48.390625 33.40625 48.390625 
Q 24.65625 48.390625 19.8125 42.84375 
Q 14.984375 37.3125 14.984375 27.296875 
Q 14.984375 17.28125 19.8125 11.734375 
Q 24.65625 6.203125 33.40625 6.203125 
Q 37.3125 6.203125 41.140625 7.25 
Q 44.96875 8.296875 48.78125 10.40625 
L 48.78125 2.09375 
Q 45.015625 0.34375 40.984375 -0.53125 
Q 36.96875 -1.421875 32.421875 -1.421875 
Q 20.0625 -1.421875 12.78125 6.34375 
Q 5.515625 14.109375 5.515625 27.296875 
Q 5.515625 40.671875 12.859375 48.328125 
Q 20.21875 56 33.015625 56 
Q 37.15625 56 41.109375 55.140625 
Q 45.0625 54.296875 48.78125 52.59375 
z
" id="DejaVuSans-99"/>
    </defs>
    <g transform="translate(183.540937 35.472)scale(0.12 -0.12)">
     <use xlink:href="#DejaVuSans-70"/>
     <use x="57.441406" xlink:href="#DejaVuSans-101"/>
     <use x="118.964844" xlink:href="#DejaVuSans-97"/>
     <use x="180.244141" xlink:href="#DejaVuSans-116"/>
     <use x="219.453125" xlink:href="#DejaVuSans-117"/>
     <use x="282.832031" xlink:href="#DejaVuSans-114"/>
     <use x="323.914062" xlink:href="#DejaVuSans-101"/>
     <use x="385.4375" xlink:href="#DejaVuSans-32"/>
     <use x="417.224609" xlink:href="#DejaVuSans-77"/>
     <use x="503.503906" xlink:href="#DejaVuSans-97"/>
     <use x="564.783203" xlink:href="#DejaVuSans-116"/>
     <use x="603.992188" xlink:href="#DejaVuSans-99"/>
     <use x="658.972656" xlink:href="#DejaVuSans-104"/>
     <use x="722.351562" xlink:href="#DejaVuSans-105"/>
     <use x="750.134766" xlink:href="#DejaVuSans-110"/>
     <use x="813.513672" xlink:href="#DejaVuSans-103"/>
    </g>
   </g>
   <g id="legend_1">
    <g id="patch_7">
     <path d="M 263.452812 302.584 
L 407.72 302.584 
Q 409.72 302.584 409.72 300.584 
L 409.72 184.159 
Q 409.72 182.159 407.72 182.159 
L 263.452812 182.159 
Q 261.452812 182.159 261.452812 184.159 
L 261.452812 300.584 
Q 261.452812 302.584 263.452812 302.584 
z
" style="fill:#ffffff;opacity:0.8;stroke:#cccccc;stroke-linejoin:miter;"/>
    </g>
    <g id="line2d_79">
     <path d="M 265.452812 190.257437 
L 285.452812 190.257437 
" style="fill:none;stroke:#aec7e8;stroke-linecap:square;stroke-width:1.5;"/>
    </g>
    <g id="line2d_80"/>
    <g id="text_16">
     <!-- Target KL: 0.05 - Train -->
     <defs>
      <path d="M -0.296875 72.90625 
L 61.375 72.90625 
L 61.375 64.59375 
L 35.5 64.59375 
L 35.5 0 
L 25.59375 0 
L 25.59375 64.59375 
L -0.296875 64.59375 
z
" id="DejaVuSans-84"/>
      <path d="M 9.8125 72.90625 
L 19.671875 72.90625 
L 19.671875 42.09375 
L 52.390625 72.90625 
L 65.09375 72.90625 
L 28.90625 38.921875 
L 67.671875 0 
L 54.6875 0 
L 19.671875 35.109375 
L 19.671875 0 
L 9.8125 0 
z
" id="DejaVuSans-75"/>
      <path d="M 9.8125 72.90625 
L 19.671875 72.90625 
L 19.671875 8.296875 
L 55.171875 8.296875 
L 55.171875 0 
L 9.8125 0 
z
" id="DejaVuSans-76"/>
      <path d="M 11.71875 12.40625 
L 22.015625 12.40625 
L 22.015625 0 
L 11.71875 0 
z
M 11.71875 51.703125 
L 22.015625 51.703125 
L 22.015625 39.3125 
L 11.71875 39.3125 
z
" id="DejaVuSans-58"/>
      <path d="M 10.6875 12.40625 
L 21 12.40625 
L 21 0 
L 10.6875 0 
z
" id="DejaVuSans-46"/>
      <path d="M 4.890625 31.390625 
L 31.203125 31.390625 
L 31.203125 23.390625 
L 4.890625 23.390625 
z
" id="DejaVuSans-45"/>
     </defs>
     <g transform="translate(293.452812 193.757437)scale(0.1 -0.1)">
      <use xlink:href="#DejaVuSans-84"/>
      <use x="60.833984" xlink:href="#DejaVuSans-97"/>
      <use x="122.113281" xlink:href="#DejaVuSans-114"/>
      <use x="163.210938" xlink:href="#DejaVuSans-103"/>
      <use x="226.6875" xlink:href="#DejaVuSans-101"/>
      <use x="288.210938" xlink:href="#DejaVuSans-116"/>
      <use x="327.419922" xlink:href="#DejaVuSans-32"/>
      <use x="359.207031" xlink:href="#DejaVuSans-75"/>
      <use x="424.783203" xlink:href="#DejaVuSans-76"/>
      <use x="480.496094" xlink:href="#DejaVuSans-58"/>
      <use x="514.1875" xlink:href="#DejaVuSans-32"/>
      <use x="545.974609" xlink:href="#DejaVuSans-48"/>
      <use x="609.597656" xlink:href="#DejaVuSans-46"/>
      <use x="641.384766" xlink:href="#DejaVuSans-48"/>
      <use x="705.007812" xlink:href="#DejaVuSans-53"/>
      <use x="768.630859" xlink:href="#DejaVuSans-32"/>
      <use x="800.417969" xlink:href="#DejaVuSans-45"/>
      <use x="836.501953" xlink:href="#DejaVuSans-32"/>
      <use x="868.289062" xlink:href="#DejaVuSans-84"/>
      <use x="929.154297" xlink:href="#DejaVuSans-114"/>
      <use x="970.267578" xlink:href="#DejaVuSans-97"/>
      <use x="1031.546875" xlink:href="#DejaVuSans-105"/>
      <use x="1059.330078" xlink:href="#DejaVuSans-110"/>
     </g>
    </g>
    <g id="line2d_81">
     <path d="M 265.452812 204.935563 
L 285.452812 204.935563 
" style="fill:none;stroke:#1f77b4;stroke-linecap:square;stroke-width:1.5;"/>
    </g>
    <g id="line2d_82"/>
    <g id="text_17">
     <!-- Target KL: 0.05 - Test -->
     <g transform="translate(293.452812 208.435563)scale(0.1 -0.1)">
      <use xlink:href="#DejaVuSans-84"/>
      <use x="60.833984" xlink:href="#DejaVuSans-97"/>
      <use x="122.113281" xlink:href="#DejaVuSans-114"/>
      <use x="163.210938" xlink:href="#DejaVuSans-103"/>
      <use x="226.6875" xlink:href="#DejaVuSans-101"/>
      <use x="288.210938" xlink:href="#DejaVuSans-116"/>
      <use x="327.419922" xlink:href="#DejaVuSans-32"/>
      <use x="359.207031" xlink:href="#DejaVuSans-75"/>
      <use x="424.783203" xlink:href="#DejaVuSans-76"/>
      <use x="480.496094" xlink:href="#DejaVuSans-58"/>
      <use x="514.1875" xlink:href="#DejaVuSans-32"/>
      <use x="545.974609" xlink:href="#DejaVuSans-48"/>
      <use x="609.597656" xlink:href="#DejaVuSans-46"/>
      <use x="641.384766" xlink:href="#DejaVuSans-48"/>
      <use x="705.007812" xlink:href="#DejaVuSans-53"/>
      <use x="768.630859" xlink:href="#DejaVuSans-32"/>
      <use x="800.417969" xlink:href="#DejaVuSans-45"/>
      <use x="836.501953" xlink:href="#DejaVuSans-32"/>
      <use x="868.289062" xlink:href="#DejaVuSans-84"/>
      <use x="929.107422" xlink:href="#DejaVuSans-101"/>
      <use x="990.630859" xlink:href="#DejaVuSans-115"/>
      <use x="1042.730469" xlink:href="#DejaVuSans-116"/>
     </g>
    </g>
    <g id="line2d_83">
     <path d="M 265.452812 219.613687 
L 285.452812 219.613687 
" style="fill:none;stroke:#ffbb78;stroke-linecap:square;stroke-width:1.5;"/>
    </g>
    <g id="line2d_84"/>
    <g id="text_18">
     <!-- Target KL: 0.1 - Train -->
     <g transform="translate(293.452812 223.113687)scale(0.1 -0.1)">
      <use xlink:href="#DejaVuSans-84"/>
      <use x="60.833984" xlink:href="#DejaVuSans-97"/>
      <use x="122.113281" xlink:href="#DejaVuSans-114"/>
      <use x="163.210938" xlink:href="#DejaVuSans-103"/>
      <use x="226.6875" xlink:href="#DejaVuSans-101"/>
      <use x="288.210938" xlink:href="#DejaVuSans-116"/>
      <use x="327.419922" xlink:href="#DejaVuSans-32"/>
      <use x="359.207031" xlink:href="#DejaVuSans-75"/>
      <use x="424.783203" xlink:href="#DejaVuSans-76"/>
      <use x="480.496094" xlink:href="#DejaVuSans-58"/>
      <use x="514.1875" xlink:href="#DejaVuSans-32"/>
      <use x="545.974609" xlink:href="#DejaVuSans-48"/>
      <use x="609.597656" xlink:href="#DejaVuSans-46"/>
      <use x="641.384766" xlink:href="#DejaVuSans-49"/>
      <use x="705.007812" xlink:href="#DejaVuSans-32"/>
      <use x="736.794922" xlink:href="#DejaVuSans-45"/>
      <use x="772.878906" xlink:href="#DejaVuSans-32"/>
      <use x="804.666016" xlink:href="#DejaVuSans-84"/>
      <use x="865.53125" xlink:href="#DejaVuSans-114"/>
      <use x="906.644531" xlink:href="#DejaVuSans-97"/>
      <use x="967.923828" xlink:href="#DejaVuSans-105"/>
      <use x="995.707031" xlink:href="#DejaVuSans-110"/>
     </g>
    </g>
    <g id="line2d_85">
     <path d="M 265.452812 234.291812 
L 285.452812 234.291812 
" style="fill:none;stroke:#ff7f0e;stroke-linecap:square;stroke-width:1.5;"/>
    </g>
    <g id="line2d_86"/>
    <g id="text_19">
     <!-- Target KL: 0.1 - Test -->
     <g transform="translate(293.452812 237.791812)scale(0.1 -0.1)">
      <use xlink:href="#DejaVuSans-84"/>
      <use x="60.833984" xlink:href="#DejaVuSans-97"/>
      <use x="122.113281" xlink:href="#DejaVuSans-114"/>
      <use x="163.210938" xlink:href="#DejaVuSans-103"/>
      <use x="226.6875" xlink:href="#DejaVuSans-101"/>
      <use x="288.210938" xlink:href="#DejaVuSans-116"/>
      <use x="327.419922" xlink:href="#DejaVuSans-32"/>
      <use x="359.207031" xlink:href="#DejaVuSans-75"/>
      <use x="424.783203" xlink:href="#DejaVuSans-76"/>
      <use x="480.496094" xlink:href="#DejaVuSans-58"/>
      <use x="514.1875" xlink:href="#DejaVuSans-32"/>
      <use x="545.974609" xlink:href="#DejaVuSans-48"/>
      <use x="609.597656" xlink:href="#DejaVuSans-46"/>
      <use x="641.384766" xlink:href="#DejaVuSans-49"/>
      <use x="705.007812" xlink:href="#DejaVuSans-32"/>
      <use x="736.794922" xlink:href="#DejaVuSans-45"/>
      <use x="772.878906" xlink:href="#DejaVuSans-32"/>
      <use x="804.666016" xlink:href="#DejaVuSans-84"/>
      <use x="865.484375" xlink:href="#DejaVuSans-101"/>
      <use x="927.007812" xlink:href="#DejaVuSans-115"/>
      <use x="979.107422" xlink:href="#DejaVuSans-116"/>
     </g>
    </g>
    <g id="line2d_87">
     <path d="M 265.452812 248.969937 
L 285.452812 248.969937 
" style="fill:none;stroke:#98df8a;stroke-linecap:square;stroke-width:1.5;"/>
    </g>
    <g id="line2d_88"/>
    <g id="text_20">
     <!-- Target KL: 0.2 - Train -->
     <g transform="translate(293.452812 252.469937)scale(0.1 -0.1)">
      <use xlink:href="#DejaVuSans-84"/>
      <use x="60.833984" xlink:href="#DejaVuSans-97"/>
      <use x="122.113281" xlink:href="#DejaVuSans-114"/>
      <use x="163.210938" xlink:href="#DejaVuSans-103"/>
      <use x="226.6875" xlink:href="#DejaVuSans-101"/>
      <use x="288.210938" xlink:href="#DejaVuSans-116"/>
      <use x="327.419922" xlink:href="#DejaVuSans-32"/>
      <use x="359.207031" xlink:href="#DejaVuSans-75"/>
      <use x="424.783203" xlink:href="#DejaVuSans-76"/>
      <use x="480.496094" xlink:href="#DejaVuSans-58"/>
      <use x="514.1875" xlink:href="#DejaVuSans-32"/>
      <use x="545.974609" xlink:href="#DejaVuSans-48"/>
      <use x="609.597656" xlink:href="#DejaVuSans-46"/>
      <use x="641.384766" xlink:href="#DejaVuSans-50"/>
      <use x="705.007812" xlink:href="#DejaVuSans-32"/>
      <use x="736.794922" xlink:href="#DejaVuSans-45"/>
      <use x="772.878906" xlink:href="#DejaVuSans-32"/>
      <use x="804.666016" xlink:href="#DejaVuSans-84"/>
      <use x="865.53125" xlink:href="#DejaVuSans-114"/>
      <use x="906.644531" xlink:href="#DejaVuSans-97"/>
      <use x="967.923828" xlink:href="#DejaVuSans-105"/>
      <use x="995.707031" xlink:href="#DejaVuSans-110"/>
     </g>
    </g>
    <g id="line2d_89">
     <path d="M 265.452812 263.648062 
L 285.452812 263.648062 
" style="fill:none;stroke:#2ca02c;stroke-linecap:square;stroke-width:1.5;"/>
    </g>
    <g id="line2d_90"/>
    <g id="text_21">
     <!-- Target KL: 0.2 - Test -->
     <g transform="translate(293.452812 267.148062)scale(0.1 -0.1)">
      <use xlink:href="#DejaVuSans-84"/>
      <use x="60.833984" xlink:href="#DejaVuSans-97"/>
      <use x="122.113281" xlink:href="#DejaVuSans-114"/>
      <use x="163.210938" xlink:href="#DejaVuSans-103"/>
      <use x="226.6875" xlink:href="#DejaVuSans-101"/>
      <use x="288.210938" xlink:href="#DejaVuSans-116"/>
      <use x="327.419922" xlink:href="#DejaVuSans-32"/>
      <use x="359.207031" xlink:href="#DejaVuSans-75"/>
      <use x="424.783203" xlink:href="#DejaVuSans-76"/>
      <use x="480.496094" xlink:href="#DejaVuSans-58"/>
      <use x="514.1875" xlink:href="#DejaVuSans-32"/>
      <use x="545.974609" xlink:href="#DejaVuSans-48"/>
      <use x="609.597656" xlink:href="#DejaVuSans-46"/>
      <use x="641.384766" xlink:href="#DejaVuSans-50"/>
      <use x="705.007812" xlink:href="#DejaVuSans-32"/>
      <use x="736.794922" xlink:href="#DejaVuSans-45"/>
      <use x="772.878906" xlink:href="#DejaVuSans-32"/>
      <use x="804.666016" xlink:href="#DejaVuSans-84"/>
      <use x="865.484375" xlink:href="#DejaVuSans-101"/>
      <use x="927.007812" xlink:href="#DejaVuSans-115"/>
      <use x="979.107422" xlink:href="#DejaVuSans-116"/>
     </g>
    </g>
    <g id="line2d_91">
     <path d="M 265.452812 278.326187 
L 285.452812 278.326187 
" style="fill:none;stroke:#ff9896;stroke-linecap:square;stroke-width:1.5;"/>
    </g>
    <g id="line2d_92"/>
    <g id="text_22">
     <!-- Target KL: 0.5 - Train -->
     <g transform="translate(293.452812 281.826187)scale(0.1 -0.1)">
      <use xlink:href="#DejaVuSans-84"/>
      <use x="60.833984" xlink:href="#DejaVuSans-97"/>
      <use x="122.113281" xlink:href="#DejaVuSans-114"/>
      <use x="163.210938" xlink:href="#DejaVuSans-103"/>
      <use x="226.6875" xlink:href="#DejaVuSans-101"/>
      <use x="288.210938" xlink:href="#DejaVuSans-116"/>
      <use x="327.419922" xlink:href="#DejaVuSans-32"/>
      <use x="359.207031" xlink:href="#DejaVuSans-75"/>
      <use x="424.783203" xlink:href="#DejaVuSans-76"/>
      <use x="480.496094" xlink:href="#DejaVuSans-58"/>
      <use x="514.1875" xlink:href="#DejaVuSans-32"/>
      <use x="545.974609" xlink:href="#DejaVuSans-48"/>
      <use x="609.597656" xlink:href="#DejaVuSans-46"/>
      <use x="641.384766" xlink:href="#DejaVuSans-53"/>
      <use x="705.007812" xlink:href="#DejaVuSans-32"/>
      <use x="736.794922" xlink:href="#DejaVuSans-45"/>
      <use x="772.878906" xlink:href="#DejaVuSans-32"/>
      <use x="804.666016" xlink:href="#DejaVuSans-84"/>
      <use x="865.53125" xlink:href="#DejaVuSans-114"/>
      <use x="906.644531" xlink:href="#DejaVuSans-97"/>
      <use x="967.923828" xlink:href="#DejaVuSans-105"/>
      <use x="995.707031" xlink:href="#DejaVuSans-110"/>
     </g>
    </g>
    <g id="line2d_93">
     <path d="M 265.452812 293.004312 
L 285.452812 293.004312 
" style="fill:none;stroke:#d62728;stroke-linecap:square;stroke-width:1.5;"/>
    </g>
    <g id="line2d_94"/>
    <g id="text_23">
     <!-- Target KL: 0.5 - Test -->
     <g transform="translate(293.452812 296.504312)scale(0.1 -0.1)">
      <use xlink:href="#DejaVuSans-84"/>
      <use x="60.833984" xlink:href="#DejaVuSans-97"/>
      <use x="122.113281" xlink:href="#DejaVuSans-114"/>
      <use x="163.210938" xlink:href="#DejaVuSans-103"/>
      <use x="226.6875" xlink:href="#DejaVuSans-101"/>
      <use x="288.210938" xlink:href="#DejaVuSans-116"/>
      <use x="327.419922" xlink:href="#DejaVuSans-32"/>
      <use x="359.207031" xlink:href="#DejaVuSans-75"/>
      <use x="424.783203" xlink:href="#DejaVuSans-76"/>
      <use x="480.496094" xlink:href="#DejaVuSans-58"/>
      <use x="514.1875" xlink:href="#DejaVuSans-32"/>
      <use x="545.974609" xlink:href="#DejaVuSans-48"/>
      <use x="609.597656" xlink:href="#DejaVuSans-46"/>
      <use x="641.384766" xlink:href="#DejaVuSans-53"/>
      <use x="705.007812" xlink:href="#DejaVuSans-32"/>
      <use x="736.794922" xlink:href="#DejaVuSans-45"/>
      <use x="772.878906" xlink:href="#DejaVuSans-32"/>
      <use x="804.666016" xlink:href="#DejaVuSans-84"/>
      <use x="865.484375" xlink:href="#DejaVuSans-101"/>
      <use x="927.007812" xlink:href="#DejaVuSans-115"/>
      <use x="979.107422" xlink:href="#DejaVuSans-116"/>
     </g>
    </g>
   </g>
  </g>
 </g>
 <defs>
  <clipPath id="p567b3551eb">
   <rect height="266.112" width="357.12" x="57.6" y="41.472"/>
  </clipPath>
 </defs>
</svg>
