<?xml version="1.0" encoding="utf-8" standalone="no"?>
<!DOCTYPE svg PUBLIC "-//W3C//DTD SVG 1.1//EN"
  "http://www.w3.org/Graphics/SVG/1.1/DTD/svg11.dtd">
<!-- Created with matplotlib (https://matplotlib.org/) -->
<svg height="345.6pt" version="1.1" viewBox="0 0 460.8 345.6" width="460.8pt" xmlns="http://www.w3.org/2000/svg" xmlns:xlink="http://www.w3.org/1999/xlink">
 <defs>
  <style type="text/css">
*{stroke-linecap:butt;stroke-linejoin:round;}
  </style>
 </defs>
 <g id="figure_1">
  <g id="patch_1">
   <path d="M 0 345.6 
L 460.8 345.6 
L 460.8 0 
L 0 0 
z
" style="fill:#ffffff;"/>
  </g>
  <g id="axes_1">
   <g id="patch_2">
    <path d="M 57.6 307.584 
L 414.72 307.584 
L 414.72 41.472 
L 57.6 41.472 
z
" style="fill:#ffffff;"/>
   </g>
   <g id="PolyCollection_1">
    <defs>
     <path d="M 74.484593 -263.583527 
L 74.484593 -162.472303 
L 75.783211 -217.264323 
L 77.081829 -234.264745 
L 78.380447 -231.584934 
L 79.679065 -223.285889 
L 80.977684 -216.282186 
L 82.276302 -221.868233 
L 83.57492 -222.950524 
L 84.873538 -225.758748 
L 86.172156 -222.561919 
L 87.470775 -221.555536 
L 88.769393 -219.186043 
L 90.068011 -221.212216 
L 91.366629 -220.65505 
L 92.665247 -220.793881 
L 93.963865 -219.457361 
L 95.262484 -220.756335 
L 96.561102 -218.644202 
L 97.85972 -218.572883 
L 99.158338 -217.719409 
L 100.456956 -217.738611 
L 101.755575 -218.630154 
L 103.054193 -217.806651 
L 104.352811 -218.522109 
L 105.651429 -216.537456 
L 106.950047 -217.083314 
L 108.248665 -216.435031 
L 109.547284 -215.840367 
L 110.845902 -218.031545 
L 112.14452 -218.117612 
L 113.443138 -217.446096 
L 114.741756 -215.431713 
L 116.040375 -212.646532 
L 117.338993 -215.26788 
L 118.637611 -215.326955 
L 119.936229 -216.347327 
L 121.234847 -217.983241 
L 122.533465 -217.595357 
L 123.832084 -218.49951 
L 125.130702 -219.77219 
L 126.42932 -220.511565 
L 127.727938 -221.479349 
L 129.026556 -224.806858 
L 130.325175 -225.873338 
L 131.623793 -226.031134 
L 132.922411 -226.317017 
L 134.221029 -224.907501 
L 135.519647 -226.077099 
L 136.818265 -227.440315 
L 138.116884 -228.492669 
L 138.799425 -229.880303 
L 138.799425 -236.96661 
L 138.799425 -236.96661 
L 138.116884 -242.817037 
L 136.818265 -239.416683 
L 135.519647 -239.272598 
L 134.221029 -240.640466 
L 132.922411 -240.28018 
L 131.623793 -241.485593 
L 130.325175 -243.409586 
L 129.026556 -235.415217 
L 127.727938 -237.282196 
L 126.42932 -233.228906 
L 125.130702 -234.569443 
L 123.832084 -232.223872 
L 122.533465 -232.10714 
L 121.234847 -230.492249 
L 119.936229 -230.504718 
L 118.637611 -230.593564 
L 117.338993 -229.443176 
L 116.040375 -226.635552 
L 114.741756 -228.570338 
L 113.443138 -230.876986 
L 112.14452 -232.770502 
L 110.845902 -233.329631 
L 109.547284 -232.291157 
L 108.248665 -233.414054 
L 106.950047 -230.227962 
L 105.651429 -229.423253 
L 104.352811 -230.26482 
L 103.054193 -236.116954 
L 101.755575 -232.830179 
L 100.456956 -231.237693 
L 99.158338 -234.185577 
L 97.85972 -233.301704 
L 96.561102 -233.022106 
L 95.262484 -234.65002 
L 93.963865 -234.762957 
L 92.665247 -240.656965 
L 91.366629 -238.323192 
L 90.068011 -238.058197 
L 88.769393 -242.585065 
L 87.470775 -240.154773 
L 86.172156 -241.694498 
L 84.873538 -242.40562 
L 83.57492 -239.24268 
L 82.276302 -236.892435 
L 80.977684 -237.34368 
L 79.679065 -245.003186 
L 78.380447 -255.046519 
L 77.081829 -259.623257 
L 75.783211 -259.463891 
L 74.484593 -263.583527 
z
" id="ma51d057d20" style="stroke:#aec7e8;stroke-opacity:0.25;"/>
    </defs>
    <g clip-path="url(#p6b1be18482)">
     <use style="fill:#aec7e8;fill-opacity:0.25;stroke:#aec7e8;stroke-opacity:0.25;" x="0" xlink:href="#ma51d057d20" y="345.6"/>
    </g>
   </g>
   <g id="PolyCollection_2">
    <defs>
     <path d="M 77.081829 -265.625839 
L 77.081829 -128.982491 
L 83.57492 -218.505513 
L 90.068011 -230.448643 
L 96.561102 -235.07433 
L 103.054193 -245.960392 
L 109.547284 -250.42165 
L 116.040375 -253.097132 
L 122.533465 -253.552581 
L 129.026556 -253.587112 
L 135.519647 -252.882032 
L 142.012738 -253.62847 
L 148.505829 -251.62116 
L 154.99892 -253.017568 
L 161.492011 -252.237639 
L 167.985102 -251.660951 
L 174.478193 -251.369112 
L 180.971284 -251.575917 
L 187.464375 -251.22692 
L 193.957465 -250.830844 
L 200.450556 -250.659853 
L 206.943647 -250.806182 
L 213.436738 -250.404376 
L 219.929829 -250.511193 
L 226.42292 -249.738303 
L 232.916011 -250.037967 
L 239.409102 -248.953469 
L 245.902193 -247.789181 
L 252.395284 -247.571499 
L 258.888375 -248.208591 
L 265.381465 -247.71902 
L 271.874556 -247.800619 
L 278.367647 -247.695197 
L 284.860738 -246.996377 
L 291.353829 -247.673008 
L 297.84692 -247.437866 
L 304.340011 -246.449323 
L 310.833102 -245.802728 
L 317.326193 -246.392201 
L 323.819284 -245.016789 
L 330.312375 -246.065359 
L 336.805465 -246.076313 
L 343.298556 -245.248186 
L 349.791647 -246.201291 
L 356.284738 -246.258774 
L 362.777829 -245.077846 
L 369.27092 -245.076023 
L 375.764011 -244.579373 
L 382.257102 -244.252226 
L 388.750193 -244.314278 
L 395.243284 -244.302539 
L 395.243284 -250.583533 
L 395.243284 -250.583533 
L 388.750193 -250.739658 
L 382.257102 -250.700534 
L 375.764011 -251.32198 
L 369.27092 -251.843902 
L 362.777829 -251.635339 
L 356.284738 -252.710598 
L 349.791647 -252.290759 
L 343.298556 -252.079689 
L 336.805465 -252.532862 
L 330.312375 -253.619151 
L 323.819284 -252.585435 
L 317.326193 -252.758891 
L 310.833102 -252.459229 
L 304.340011 -253.262962 
L 297.84692 -253.612825 
L 291.353829 -253.972911 
L 284.860738 -253.321571 
L 278.367647 -254.027028 
L 271.874556 -254.580052 
L 265.381465 -257.920408 
L 258.888375 -254.555174 
L 252.395284 -255.205074 
L 245.902193 -255.427199 
L 239.409102 -256.270867 
L 232.916011 -256.285477 
L 226.42292 -256.709368 
L 219.929829 -256.785935 
L 213.436738 -257.267989 
L 206.943647 -258.238403 
L 200.450556 -257.987405 
L 193.957465 -257.992736 
L 187.464375 -258.782123 
L 180.971284 -258.641241 
L 174.478193 -259.052366 
L 167.985102 -259.057567 
L 161.492011 -260.081762 
L 154.99892 -260.95492 
L 148.505829 -259.943109 
L 142.012738 -261.293462 
L 135.519647 -261.295101 
L 129.026556 -261.667498 
L 122.533465 -261.001465 
L 116.040375 -262.81386 
L 109.547284 -259.907224 
L 103.054193 -258.338154 
L 96.561102 -254.997307 
L 90.068011 -249.885791 
L 83.57492 -250.919238 
L 77.081829 -265.625839 
z
" id="m5cf9988fe1" style="stroke:#ffbb78;stroke-opacity:0.25;"/>
    </defs>
    <g clip-path="url(#p6b1be18482)">
     <use style="fill:#ffbb78;fill-opacity:0.25;stroke:#ffbb78;stroke-opacity:0.25;" x="0" xlink:href="#m5cf9988fe1" y="345.6"/>
    </g>
   </g>
   <g id="PolyCollection_3">
    <defs>
     <path d="M 75.847119 -272.177995 
L 75.847119 -147.316926 
L 79.870791 -235.339237 
L 83.894462 -240.565286 
L 87.918133 -245.783309 
L 91.941804 -245.410158 
L 95.965476 -245.720942 
L 99.989147 -244.792383 
L 104.012818 -246.430951 
L 108.03649 -246.856275 
L 112.060161 -247.74304 
L 116.083832 -249.397568 
L 120.107504 -249.162704 
L 124.131175 -248.443756 
L 128.154846 -249.609258 
L 132.178517 -248.824024 
L 136.202189 -249.873685 
L 140.22586 -249.692413 
L 144.249531 -249.682473 
L 148.273203 -249.191745 
L 152.296874 -248.561662 
L 156.320545 -249.512257 
L 160.344216 -250.333933 
L 164.367888 -250.766754 
L 168.391559 -250.898652 
L 172.41523 -249.609162 
L 176.438902 -250.181286 
L 180.462573 -249.276724 
L 184.486244 -247.832346 
L 188.509916 -247.101224 
L 192.533587 -249.046998 
L 196.557258 -249.082317 
L 200.580929 -249.859072 
L 204.604601 -248.738228 
L 208.628272 -248.929203 
L 212.651943 -250.082578 
L 216.675615 -251.102778 
L 220.699286 -250.637815 
L 224.722957 -249.027463 
L 228.746628 -249.686361 
L 232.7703 -250.479679 
L 236.793971 -250.384526 
L 240.817642 -252.492645 
L 244.841314 -251.272854 
L 248.864985 -251.368585 
L 252.888656 -250.639779 
L 256.912328 -250.855658 
L 260.935999 -249.942815 
L 264.95967 -249.546578 
L 268.983341 -250.328864 
L 273.007013 -249.278288 
L 275.069975 -250.622847 
L 275.069975 -253.825486 
L 275.069975 -253.825486 
L 273.007013 -256.721576 
L 268.983341 -258.375868 
L 264.95967 -261.488456 
L 260.935999 -258.112654 
L 256.912328 -259.354026 
L 252.888656 -258.449154 
L 248.864985 -258.346237 
L 244.841314 -258.866162 
L 240.817642 -259.336443 
L 236.793971 -258.746029 
L 232.7703 -257.953081 
L 228.746628 -257.56376 
L 224.722957 -258.384877 
L 220.699286 -258.295878 
L 216.675615 -258.790786 
L 212.651943 -257.883033 
L 208.628272 -257.463531 
L 204.604601 -258.262953 
L 200.580929 -258.42976 
L 196.557258 -258.885561 
L 192.533587 -258.779471 
L 188.509916 -256.568629 
L 184.486244 -257.878815 
L 180.462573 -259.119913 
L 176.438902 -258.99508 
L 172.41523 -260.429264 
L 168.391559 -262.431097 
L 164.367888 -260.874084 
L 160.344216 -261.347311 
L 156.320545 -260.10114 
L 152.296874 -260.26582 
L 148.273203 -261.129879 
L 144.249531 -261.796639 
L 140.22586 -261.78078 
L 136.202189 -260.641296 
L 132.178517 -260.801552 
L 128.154846 -262.42394 
L 124.131175 -260.496399 
L 120.107504 -262.773365 
L 116.083832 -261.652235 
L 112.060161 -262.169596 
L 108.03649 -258.966652 
L 104.012818 -259.074485 
L 99.989147 -260.55269 
L 95.965476 -261.562773 
L 91.941804 -267.538083 
L 87.918133 -265.328647 
L 83.894462 -266.507558 
L 79.870791 -263.186006 
L 75.847119 -272.177995 
z
" id="ma93b47f976" style="stroke:#98df8a;stroke-opacity:0.25;"/>
    </defs>
    <g clip-path="url(#p6b1be18482)">
     <use style="fill:#98df8a;fill-opacity:0.25;stroke:#98df8a;stroke-opacity:0.25;" x="0" xlink:href="#ma93b47f976" y="345.6"/>
    </g>
   </g>
   <g id="PolyCollection_4">
    <defs>
     <path d="M 75.568479 -292.032 
L 75.568479 -170.199238 
L 79.034869 -265.228779 
L 82.501259 -266.093727 
L 85.96765 -264.280492 
L 89.43404 -262.424701 
L 92.90043 -263.997489 
L 96.36682 -265.657472 
L 99.833211 -266.788525 
L 103.299601 -265.049211 
L 106.765991 -266.906545 
L 110.232381 -268.197771 
L 113.698772 -268.638906 
L 117.165162 -268.41952 
L 120.631552 -269.768174 
L 124.097942 -269.485922 
L 127.564333 -269.442406 
L 131.030723 -270.15992 
L 134.497113 -269.609911 
L 137.963504 -269.850871 
L 141.429894 -268.513932 
L 144.896284 -270.258485 
L 148.362674 -270.678487 
L 151.829065 -269.317319 
L 155.295455 -270.534293 
L 158.761845 -270.655863 
L 162.228235 -270.03535 
L 165.694626 -269.834976 
L 169.161016 -270.484699 
L 172.627406 -270.334326 
L 176.093796 -269.916204 
L 179.560187 -269.512024 
L 183.026577 -269.004128 
L 186.492967 -268.21674 
L 189.959357 -268.966838 
L 193.425748 -268.942222 
L 196.892138 -269.362822 
L 200.358528 -269.707747 
L 203.824919 -270.003457 
L 207.291309 -270.137502 
L 210.757699 -269.696689 
L 214.224089 -269.21575 
L 217.69048 -269.268423 
L 221.15687 -270.804549 
L 224.62326 -270.406109 
L 228.08965 -269.954055 
L 231.556041 -269.466135 
L 235.022431 -269.192392 
L 238.488821 -269.209831 
L 241.955211 -268.93517 
L 245.421602 -269.777074 
L 247.18036 -271.308808 
L 247.18036 -274.520529 
L 247.18036 -274.520529 
L 245.421602 -275.064785 
L 241.955211 -274.417 
L 238.488821 -275.961175 
L 235.022431 -275.08306 
L 231.556041 -275.335829 
L 228.08965 -275.652589 
L 224.62326 -276.271226 
L 221.15687 -277.193957 
L 217.69048 -276.242553 
L 214.224089 -275.267392 
L 210.757699 -275.281277 
L 207.291309 -276.323905 
L 203.824919 -276.376804 
L 200.358528 -276.793101 
L 196.892138 -276.424253 
L 193.425748 -274.337001 
L 189.959357 -274.875973 
L 186.492967 -273.916352 
L 183.026577 -275.226774 
L 179.560187 -276.01526 
L 176.093796 -275.487256 
L 172.627406 -276.15499 
L 169.161016 -277.196089 
L 165.694626 -275.956907 
L 162.228235 -276.58846 
L 158.761845 -276.080718 
L 155.295455 -276.091777 
L 151.829065 -275.975492 
L 148.362674 -276.627267 
L 144.896284 -277.473426 
L 141.429894 -276.31082 
L 137.963504 -276.955301 
L 134.497113 -276.397409 
L 131.030723 -278.516719 
L 127.564333 -276.945743 
L 124.097942 -276.838717 
L 120.631552 -278.01835 
L 117.165162 -276.732151 
L 113.698772 -278.743214 
L 110.232381 -278.005778 
L 106.765991 -280.165235 
L 103.299601 -281.990316 
L 99.833211 -280.873919 
L 96.36682 -280.423434 
L 92.90043 -280.80993 
L 89.43404 -282.145233 
L 85.96765 -282.233889 
L 82.501259 -281.915016 
L 79.034869 -280.858149 
L 75.568479 -292.032 
z
" id="m4bd1df8d9a" style="stroke:#ff9896;stroke-opacity:0.25;"/>
    </defs>
    <g clip-path="url(#p6b1be18482)">
     <use style="fill:#ff9896;fill-opacity:0.25;stroke:#ff9896;stroke-opacity:0.25;" x="0" xlink:href="#m4bd1df8d9a" y="345.6"/>
    </g>
   </g>
   <g id="matplotlib.axis_1">
    <g id="xtick_1">
     <g id="line2d_1">
      <path clip-path="url(#p6b1be18482)" d="M 73.832727 307.584 
L 73.832727 41.472 
" style="fill:none;stroke:#b0b0b0;stroke-linecap:square;stroke-width:0.8;"/>
     </g>
     <g id="line2d_2">
      <defs>
       <path d="M 0 0 
L 0 3.5 
" id="ma17146dbda" style="stroke:#000000;stroke-width:0.8;"/>
      </defs>
      <g>
       <use style="stroke:#000000;stroke-width:0.8;" x="73.832727" xlink:href="#ma17146dbda" y="307.584"/>
      </g>
     </g>
     <g id="text_1">
      <!-- 0 -->
      <defs>
       <path d="M 31.78125 66.40625 
Q 24.171875 66.40625 20.328125 58.90625 
Q 16.5 51.421875 16.5 36.375 
Q 16.5 21.390625 20.328125 13.890625 
Q 24.171875 6.390625 31.78125 6.390625 
Q 39.453125 6.390625 43.28125 13.890625 
Q 47.125 21.390625 47.125 36.375 
Q 47.125 51.421875 43.28125 58.90625 
Q 39.453125 66.40625 31.78125 66.40625 
z
M 31.78125 74.21875 
Q 44.046875 74.21875 50.515625 64.515625 
Q 56.984375 54.828125 56.984375 36.375 
Q 56.984375 17.96875 50.515625 8.265625 
Q 44.046875 -1.421875 31.78125 -1.421875 
Q 19.53125 -1.421875 13.0625 8.265625 
Q 6.59375 17.96875 6.59375 36.375 
Q 6.59375 54.828125 13.0625 64.515625 
Q 19.53125 74.21875 31.78125 74.21875 
z
" id="DejaVuSans-48"/>
      </defs>
      <g transform="translate(70.651477 322.182437)scale(0.1 -0.1)">
       <use xlink:href="#DejaVuSans-48"/>
      </g>
     </g>
    </g>
    <g id="xtick_2">
     <g id="line2d_3">
      <path clip-path="url(#p6b1be18482)" d="M 124.959427 307.584 
L 124.959427 41.472 
" style="fill:none;stroke:#b0b0b0;stroke-linecap:square;stroke-width:0.8;"/>
     </g>
     <g id="line2d_4">
      <g>
       <use style="stroke:#000000;stroke-width:0.8;" x="124.959427" xlink:href="#ma17146dbda" y="307.584"/>
      </g>
     </g>
     <g id="text_2">
      <!-- 10000 -->
      <defs>
       <path d="M 12.40625 8.296875 
L 28.515625 8.296875 
L 28.515625 63.921875 
L 10.984375 60.40625 
L 10.984375 69.390625 
L 28.421875 72.90625 
L 38.28125 72.90625 
L 38.28125 8.296875 
L 54.390625 8.296875 
L 54.390625 0 
L 12.40625 0 
z
" id="DejaVuSans-49"/>
      </defs>
      <g transform="translate(109.053177 322.182437)scale(0.1 -0.1)">
       <use xlink:href="#DejaVuSans-49"/>
       <use x="63.623047" xlink:href="#DejaVuSans-48"/>
       <use x="127.246094" xlink:href="#DejaVuSans-48"/>
       <use x="190.869141" xlink:href="#DejaVuSans-48"/>
       <use x="254.492188" xlink:href="#DejaVuSans-48"/>
      </g>
     </g>
    </g>
    <g id="xtick_3">
     <g id="line2d_5">
      <path clip-path="url(#p6b1be18482)" d="M 176.086127 307.584 
L 176.086127 41.472 
" style="fill:none;stroke:#b0b0b0;stroke-linecap:square;stroke-width:0.8;"/>
     </g>
     <g id="line2d_6">
      <g>
       <use style="stroke:#000000;stroke-width:0.8;" x="176.086127" xlink:href="#ma17146dbda" y="307.584"/>
      </g>
     </g>
     <g id="text_3">
      <!-- 20000 -->
      <defs>
       <path d="M 19.1875 8.296875 
L 53.609375 8.296875 
L 53.609375 0 
L 7.328125 0 
L 7.328125 8.296875 
Q 12.9375 14.109375 22.625 23.890625 
Q 32.328125 33.6875 34.8125 36.53125 
Q 39.546875 41.84375 41.421875 45.53125 
Q 43.3125 49.21875 43.3125 52.78125 
Q 43.3125 58.59375 39.234375 62.25 
Q 35.15625 65.921875 28.609375 65.921875 
Q 23.96875 65.921875 18.8125 64.3125 
Q 13.671875 62.703125 7.8125 59.421875 
L 7.8125 69.390625 
Q 13.765625 71.78125 18.9375 73 
Q 24.125 74.21875 28.421875 74.21875 
Q 39.75 74.21875 46.484375 68.546875 
Q 53.21875 62.890625 53.21875 53.421875 
Q 53.21875 48.921875 51.53125 44.890625 
Q 49.859375 40.875 45.40625 35.40625 
Q 44.1875 33.984375 37.640625 27.21875 
Q 31.109375 20.453125 19.1875 8.296875 
z
" id="DejaVuSans-50"/>
      </defs>
      <g transform="translate(160.179877 322.182437)scale(0.1 -0.1)">
       <use xlink:href="#DejaVuSans-50"/>
       <use x="63.623047" xlink:href="#DejaVuSans-48"/>
       <use x="127.246094" xlink:href="#DejaVuSans-48"/>
       <use x="190.869141" xlink:href="#DejaVuSans-48"/>
       <use x="254.492188" xlink:href="#DejaVuSans-48"/>
      </g>
     </g>
    </g>
    <g id="xtick_4">
     <g id="line2d_7">
      <path clip-path="url(#p6b1be18482)" d="M 227.212827 307.584 
L 227.212827 41.472 
" style="fill:none;stroke:#b0b0b0;stroke-linecap:square;stroke-width:0.8;"/>
     </g>
     <g id="line2d_8">
      <g>
       <use style="stroke:#000000;stroke-width:0.8;" x="227.212827" xlink:href="#ma17146dbda" y="307.584"/>
      </g>
     </g>
     <g id="text_4">
      <!-- 30000 -->
      <defs>
       <path d="M 40.578125 39.3125 
Q 47.65625 37.796875 51.625 33 
Q 55.609375 28.21875 55.609375 21.1875 
Q 55.609375 10.40625 48.1875 4.484375 
Q 40.765625 -1.421875 27.09375 -1.421875 
Q 22.515625 -1.421875 17.65625 -0.515625 
Q 12.796875 0.390625 7.625 2.203125 
L 7.625 11.71875 
Q 11.71875 9.328125 16.59375 8.109375 
Q 21.484375 6.890625 26.8125 6.890625 
Q 36.078125 6.890625 40.9375 10.546875 
Q 45.796875 14.203125 45.796875 21.1875 
Q 45.796875 27.640625 41.28125 31.265625 
Q 36.765625 34.90625 28.71875 34.90625 
L 20.21875 34.90625 
L 20.21875 43.015625 
L 29.109375 43.015625 
Q 36.375 43.015625 40.234375 45.921875 
Q 44.09375 48.828125 44.09375 54.296875 
Q 44.09375 59.90625 40.109375 62.90625 
Q 36.140625 65.921875 28.71875 65.921875 
Q 24.65625 65.921875 20.015625 65.03125 
Q 15.375 64.15625 9.8125 62.3125 
L 9.8125 71.09375 
Q 15.4375 72.65625 20.34375 73.4375 
Q 25.25 74.21875 29.59375 74.21875 
Q 40.828125 74.21875 47.359375 69.109375 
Q 53.90625 64.015625 53.90625 55.328125 
Q 53.90625 49.265625 50.4375 45.09375 
Q 46.96875 40.921875 40.578125 39.3125 
z
" id="DejaVuSans-51"/>
      </defs>
      <g transform="translate(211.306577 322.182437)scale(0.1 -0.1)">
       <use xlink:href="#DejaVuSans-51"/>
       <use x="63.623047" xlink:href="#DejaVuSans-48"/>
       <use x="127.246094" xlink:href="#DejaVuSans-48"/>
       <use x="190.869141" xlink:href="#DejaVuSans-48"/>
       <use x="254.492188" xlink:href="#DejaVuSans-48"/>
      </g>
     </g>
    </g>
    <g id="xtick_5">
     <g id="line2d_9">
      <path clip-path="url(#p6b1be18482)" d="M 278.339528 307.584 
L 278.339528 41.472 
" style="fill:none;stroke:#b0b0b0;stroke-linecap:square;stroke-width:0.8;"/>
     </g>
     <g id="line2d_10">
      <g>
       <use style="stroke:#000000;stroke-width:0.8;" x="278.339528" xlink:href="#ma17146dbda" y="307.584"/>
      </g>
     </g>
     <g id="text_5">
      <!-- 40000 -->
      <defs>
       <path d="M 37.796875 64.3125 
L 12.890625 25.390625 
L 37.796875 25.390625 
z
M 35.203125 72.90625 
L 47.609375 72.90625 
L 47.609375 25.390625 
L 58.015625 25.390625 
L 58.015625 17.1875 
L 47.609375 17.1875 
L 47.609375 0 
L 37.796875 0 
L 37.796875 17.1875 
L 4.890625 17.1875 
L 4.890625 26.703125 
z
" id="DejaVuSans-52"/>
      </defs>
      <g transform="translate(262.433278 322.182437)scale(0.1 -0.1)">
       <use xlink:href="#DejaVuSans-52"/>
       <use x="63.623047" xlink:href="#DejaVuSans-48"/>
       <use x="127.246094" xlink:href="#DejaVuSans-48"/>
       <use x="190.869141" xlink:href="#DejaVuSans-48"/>
       <use x="254.492188" xlink:href="#DejaVuSans-48"/>
      </g>
     </g>
    </g>
    <g id="xtick_6">
     <g id="line2d_11">
      <path clip-path="url(#p6b1be18482)" d="M 329.466228 307.584 
L 329.466228 41.472 
" style="fill:none;stroke:#b0b0b0;stroke-linecap:square;stroke-width:0.8;"/>
     </g>
     <g id="line2d_12">
      <g>
       <use style="stroke:#000000;stroke-width:0.8;" x="329.466228" xlink:href="#ma17146dbda" y="307.584"/>
      </g>
     </g>
     <g id="text_6">
      <!-- 50000 -->
      <defs>
       <path d="M 10.796875 72.90625 
L 49.515625 72.90625 
L 49.515625 64.59375 
L 19.828125 64.59375 
L 19.828125 46.734375 
Q 21.96875 47.46875 24.109375 47.828125 
Q 26.265625 48.1875 28.421875 48.1875 
Q 40.625 48.1875 47.75 41.5 
Q 54.890625 34.8125 54.890625 23.390625 
Q 54.890625 11.625 47.5625 5.09375 
Q 40.234375 -1.421875 26.90625 -1.421875 
Q 22.3125 -1.421875 17.546875 -0.640625 
Q 12.796875 0.140625 7.71875 1.703125 
L 7.71875 11.625 
Q 12.109375 9.234375 16.796875 8.0625 
Q 21.484375 6.890625 26.703125 6.890625 
Q 35.15625 6.890625 40.078125 11.328125 
Q 45.015625 15.765625 45.015625 23.390625 
Q 45.015625 31 40.078125 35.4375 
Q 35.15625 39.890625 26.703125 39.890625 
Q 22.75 39.890625 18.8125 39.015625 
Q 14.890625 38.140625 10.796875 36.28125 
z
" id="DejaVuSans-53"/>
      </defs>
      <g transform="translate(313.559978 322.182437)scale(0.1 -0.1)">
       <use xlink:href="#DejaVuSans-53"/>
       <use x="63.623047" xlink:href="#DejaVuSans-48"/>
       <use x="127.246094" xlink:href="#DejaVuSans-48"/>
       <use x="190.869141" xlink:href="#DejaVuSans-48"/>
       <use x="254.492188" xlink:href="#DejaVuSans-48"/>
      </g>
     </g>
    </g>
    <g id="xtick_7">
     <g id="line2d_13">
      <path clip-path="url(#p6b1be18482)" d="M 380.592928 307.584 
L 380.592928 41.472 
" style="fill:none;stroke:#b0b0b0;stroke-linecap:square;stroke-width:0.8;"/>
     </g>
     <g id="line2d_14">
      <g>
       <use style="stroke:#000000;stroke-width:0.8;" x="380.592928" xlink:href="#ma17146dbda" y="307.584"/>
      </g>
     </g>
     <g id="text_7">
      <!-- 60000 -->
      <defs>
       <path d="M 33.015625 40.375 
Q 26.375 40.375 22.484375 35.828125 
Q 18.609375 31.296875 18.609375 23.390625 
Q 18.609375 15.53125 22.484375 10.953125 
Q 26.375 6.390625 33.015625 6.390625 
Q 39.65625 6.390625 43.53125 10.953125 
Q 47.40625 15.53125 47.40625 23.390625 
Q 47.40625 31.296875 43.53125 35.828125 
Q 39.65625 40.375 33.015625 40.375 
z
M 52.59375 71.296875 
L 52.59375 62.3125 
Q 48.875 64.0625 45.09375 64.984375 
Q 41.3125 65.921875 37.59375 65.921875 
Q 27.828125 65.921875 22.671875 59.328125 
Q 17.53125 52.734375 16.796875 39.40625 
Q 19.671875 43.65625 24.015625 45.921875 
Q 28.375 48.1875 33.59375 48.1875 
Q 44.578125 48.1875 50.953125 41.515625 
Q 57.328125 34.859375 57.328125 23.390625 
Q 57.328125 12.15625 50.6875 5.359375 
Q 44.046875 -1.421875 33.015625 -1.421875 
Q 20.359375 -1.421875 13.671875 8.265625 
Q 6.984375 17.96875 6.984375 36.375 
Q 6.984375 53.65625 15.1875 63.9375 
Q 23.390625 74.21875 37.203125 74.21875 
Q 40.921875 74.21875 44.703125 73.484375 
Q 48.484375 72.75 52.59375 71.296875 
z
" id="DejaVuSans-54"/>
      </defs>
      <g transform="translate(364.686678 322.182437)scale(0.1 -0.1)">
       <use xlink:href="#DejaVuSans-54"/>
       <use x="63.623047" xlink:href="#DejaVuSans-48"/>
       <use x="127.246094" xlink:href="#DejaVuSans-48"/>
       <use x="190.869141" xlink:href="#DejaVuSans-48"/>
       <use x="254.492188" xlink:href="#DejaVuSans-48"/>
      </g>
     </g>
    </g>
    <g id="text_8">
     <!-- Steps -->
     <defs>
      <path d="M 53.515625 70.515625 
L 53.515625 60.890625 
Q 47.90625 63.578125 42.921875 64.890625 
Q 37.9375 66.21875 33.296875 66.21875 
Q 25.25 66.21875 20.875 63.09375 
Q 16.5 59.96875 16.5 54.203125 
Q 16.5 49.359375 19.40625 46.890625 
Q 22.3125 44.4375 30.421875 42.921875 
L 36.375 41.703125 
Q 47.40625 39.59375 52.65625 34.296875 
Q 57.90625 29 57.90625 20.125 
Q 57.90625 9.515625 50.796875 4.046875 
Q 43.703125 -1.421875 29.984375 -1.421875 
Q 24.8125 -1.421875 18.96875 -0.25 
Q 13.140625 0.921875 6.890625 3.21875 
L 6.890625 13.375 
Q 12.890625 10.015625 18.65625 8.296875 
Q 24.421875 6.59375 29.984375 6.59375 
Q 38.421875 6.59375 43.015625 9.90625 
Q 47.609375 13.234375 47.609375 19.390625 
Q 47.609375 24.75 44.3125 27.78125 
Q 41.015625 30.8125 33.5 32.328125 
L 27.484375 33.5 
Q 16.453125 35.6875 11.515625 40.375 
Q 6.59375 45.0625 6.59375 53.421875 
Q 6.59375 63.09375 13.40625 68.65625 
Q 20.21875 74.21875 32.171875 74.21875 
Q 37.3125 74.21875 42.625 73.28125 
Q 47.953125 72.359375 53.515625 70.515625 
z
" id="DejaVuSans-83"/>
      <path d="M 18.3125 70.21875 
L 18.3125 54.6875 
L 36.8125 54.6875 
L 36.8125 47.703125 
L 18.3125 47.703125 
L 18.3125 18.015625 
Q 18.3125 11.328125 20.140625 9.421875 
Q 21.96875 7.515625 27.59375 7.515625 
L 36.8125 7.515625 
L 36.8125 0 
L 27.59375 0 
Q 17.1875 0 13.234375 3.875 
Q 9.28125 7.765625 9.28125 18.015625 
L 9.28125 47.703125 
L 2.6875 47.703125 
L 2.6875 54.6875 
L 9.28125 54.6875 
L 9.28125 70.21875 
z
" id="DejaVuSans-116"/>
      <path d="M 56.203125 29.59375 
L 56.203125 25.203125 
L 14.890625 25.203125 
Q 15.484375 15.921875 20.484375 11.0625 
Q 25.484375 6.203125 34.421875 6.203125 
Q 39.59375 6.203125 44.453125 7.46875 
Q 49.3125 8.734375 54.109375 11.28125 
L 54.109375 2.78125 
Q 49.265625 0.734375 44.1875 -0.34375 
Q 39.109375 -1.421875 33.890625 -1.421875 
Q 20.796875 -1.421875 13.15625 6.1875 
Q 5.515625 13.8125 5.515625 26.8125 
Q 5.515625 40.234375 12.765625 48.109375 
Q 20.015625 56 32.328125 56 
Q 43.359375 56 49.78125 48.890625 
Q 56.203125 41.796875 56.203125 29.59375 
z
M 47.21875 32.234375 
Q 47.125 39.59375 43.09375 43.984375 
Q 39.0625 48.390625 32.421875 48.390625 
Q 24.90625 48.390625 20.390625 44.140625 
Q 15.875 39.890625 15.1875 32.171875 
z
" id="DejaVuSans-101"/>
      <path d="M 18.109375 8.203125 
L 18.109375 -20.796875 
L 9.078125 -20.796875 
L 9.078125 54.6875 
L 18.109375 54.6875 
L 18.109375 46.390625 
Q 20.953125 51.265625 25.265625 53.625 
Q 29.59375 56 35.59375 56 
Q 45.5625 56 51.78125 48.09375 
Q 58.015625 40.1875 58.015625 27.296875 
Q 58.015625 14.40625 51.78125 6.484375 
Q 45.5625 -1.421875 35.59375 -1.421875 
Q 29.59375 -1.421875 25.265625 0.953125 
Q 20.953125 3.328125 18.109375 8.203125 
z
M 48.6875 27.296875 
Q 48.6875 37.203125 44.609375 42.84375 
Q 40.53125 48.484375 33.40625 48.484375 
Q 26.265625 48.484375 22.1875 42.84375 
Q 18.109375 37.203125 18.109375 27.296875 
Q 18.109375 17.390625 22.1875 11.75 
Q 26.265625 6.109375 33.40625 6.109375 
Q 40.53125 6.109375 44.609375 11.75 
Q 48.6875 17.390625 48.6875 27.296875 
z
" id="DejaVuSans-112"/>
      <path d="M 44.28125 53.078125 
L 44.28125 44.578125 
Q 40.484375 46.53125 36.375 47.5 
Q 32.28125 48.484375 27.875 48.484375 
Q 21.1875 48.484375 17.84375 46.4375 
Q 14.5 44.390625 14.5 40.28125 
Q 14.5 37.15625 16.890625 35.375 
Q 19.28125 33.59375 26.515625 31.984375 
L 29.59375 31.296875 
Q 39.15625 29.25 43.1875 25.515625 
Q 47.21875 21.78125 47.21875 15.09375 
Q 47.21875 7.46875 41.1875 3.015625 
Q 35.15625 -1.421875 24.609375 -1.421875 
Q 20.21875 -1.421875 15.453125 -0.5625 
Q 10.6875 0.296875 5.421875 2 
L 5.421875 11.28125 
Q 10.40625 8.6875 15.234375 7.390625 
Q 20.0625 6.109375 24.8125 6.109375 
Q 31.15625 6.109375 34.5625 8.28125 
Q 37.984375 10.453125 37.984375 14.40625 
Q 37.984375 18.0625 35.515625 20.015625 
Q 33.0625 21.96875 24.703125 23.78125 
L 21.578125 24.515625 
Q 13.234375 26.265625 9.515625 29.90625 
Q 5.8125 33.546875 5.8125 39.890625 
Q 5.8125 47.609375 11.28125 51.796875 
Q 16.75 56 26.8125 56 
Q 31.78125 56 36.171875 55.265625 
Q 40.578125 54.546875 44.28125 53.078125 
z
" id="DejaVuSans-115"/>
     </defs>
     <g transform="translate(222.170156 335.860562)scale(0.1 -0.1)">
      <use xlink:href="#DejaVuSans-83"/>
      <use x="63.476562" xlink:href="#DejaVuSans-116"/>
      <use x="102.685547" xlink:href="#DejaVuSans-101"/>
      <use x="164.208984" xlink:href="#DejaVuSans-112"/>
      <use x="227.685547" xlink:href="#DejaVuSans-115"/>
     </g>
    </g>
   </g>
   <g id="matplotlib.axis_2">
    <g id="ytick_1">
     <g id="line2d_15">
      <path clip-path="url(#p6b1be18482)" d="M 57.6 258.225874 
L 414.72 258.225874 
" style="fill:none;stroke:#b0b0b0;stroke-linecap:square;stroke-width:0.8;"/>
     </g>
     <g id="line2d_16">
      <defs>
       <path d="M 0 0 
L -3.5 0 
" id="ma5a5ba4450" style="stroke:#000000;stroke-width:0.8;"/>
      </defs>
      <g>
       <use style="stroke:#000000;stroke-width:0.8;" x="57.6" xlink:href="#ma5a5ba4450" y="258.225874"/>
      </g>
     </g>
     <g id="text_9">
      <!-- $\mathdefault{10^{-4}}$ -->
      <defs>
       <path d="M 10.59375 35.5 
L 73.1875 35.5 
L 73.1875 27.203125 
L 10.59375 27.203125 
z
" id="DejaVuSans-8722"/>
      </defs>
      <g transform="translate(27.1 262.025093)scale(0.1 -0.1)">
       <use transform="translate(0 0.684375)" xlink:href="#DejaVuSans-49"/>
       <use transform="translate(63.623047 0.684375)" xlink:href="#DejaVuSans-48"/>
       <use transform="translate(128.203125 38.965625)scale(0.7)" xlink:href="#DejaVuSans-8722"/>
       <use transform="translate(186.855469 38.965625)scale(0.7)" xlink:href="#DejaVuSans-52"/>
      </g>
     </g>
    </g>
    <g id="ytick_2">
     <g id="line2d_17">
      <path clip-path="url(#p6b1be18482)" d="M 57.6 208.202966 
L 414.72 208.202966 
" style="fill:none;stroke:#b0b0b0;stroke-linecap:square;stroke-width:0.8;"/>
     </g>
     <g id="line2d_18">
      <g>
       <use style="stroke:#000000;stroke-width:0.8;" x="57.6" xlink:href="#ma5a5ba4450" y="208.202966"/>
      </g>
     </g>
     <g id="text_10">
      <!-- $\mathdefault{10^{-3}}$ -->
      <g transform="translate(27.1 212.002185)scale(0.1 -0.1)">
       <use transform="translate(0 0.765625)" xlink:href="#DejaVuSans-49"/>
       <use transform="translate(63.623047 0.765625)" xlink:href="#DejaVuSans-48"/>
       <use transform="translate(128.203125 39.046875)scale(0.7)" xlink:href="#DejaVuSans-8722"/>
       <use transform="translate(186.855469 39.046875)scale(0.7)" xlink:href="#DejaVuSans-51"/>
      </g>
     </g>
    </g>
    <g id="ytick_3">
     <g id="line2d_19">
      <path clip-path="url(#p6b1be18482)" d="M 57.6 158.180058 
L 414.72 158.180058 
" style="fill:none;stroke:#b0b0b0;stroke-linecap:square;stroke-width:0.8;"/>
     </g>
     <g id="line2d_20">
      <g>
       <use style="stroke:#000000;stroke-width:0.8;" x="57.6" xlink:href="#ma5a5ba4450" y="158.180058"/>
      </g>
     </g>
     <g id="text_11">
      <!-- $\mathdefault{10^{-2}}$ -->
      <g transform="translate(27.1 161.979277)scale(0.1 -0.1)">
       <use transform="translate(0 0.765625)" xlink:href="#DejaVuSans-49"/>
       <use transform="translate(63.623047 0.765625)" xlink:href="#DejaVuSans-48"/>
       <use transform="translate(128.203125 39.046875)scale(0.7)" xlink:href="#DejaVuSans-8722"/>
       <use transform="translate(186.855469 39.046875)scale(0.7)" xlink:href="#DejaVuSans-50"/>
      </g>
     </g>
    </g>
    <g id="ytick_4">
     <g id="line2d_21">
      <path clip-path="url(#p6b1be18482)" d="M 57.6 108.15715 
L 414.72 108.15715 
" style="fill:none;stroke:#b0b0b0;stroke-linecap:square;stroke-width:0.8;"/>
     </g>
     <g id="line2d_22">
      <g>
       <use style="stroke:#000000;stroke-width:0.8;" x="57.6" xlink:href="#ma5a5ba4450" y="108.15715"/>
      </g>
     </g>
     <g id="text_12">
      <!-- $\mathdefault{10^{-1}}$ -->
      <g transform="translate(27.1 111.956369)scale(0.1 -0.1)">
       <use transform="translate(0 0.684375)" xlink:href="#DejaVuSans-49"/>
       <use transform="translate(63.623047 0.684375)" xlink:href="#DejaVuSans-48"/>
       <use transform="translate(128.203125 38.965625)scale(0.7)" xlink:href="#DejaVuSans-8722"/>
       <use transform="translate(186.855469 38.965625)scale(0.7)" xlink:href="#DejaVuSans-49"/>
      </g>
     </g>
    </g>
    <g id="ytick_5">
     <g id="line2d_23">
      <path clip-path="url(#p6b1be18482)" d="M 57.6 58.134242 
L 414.72 58.134242 
" style="fill:none;stroke:#b0b0b0;stroke-linecap:square;stroke-width:0.8;"/>
     </g>
     <g id="line2d_24">
      <g>
       <use style="stroke:#000000;stroke-width:0.8;" x="57.6" xlink:href="#ma5a5ba4450" y="58.134242"/>
      </g>
     </g>
     <g id="text_13">
      <!-- $\mathdefault{10^{0}}$ -->
      <g transform="translate(33 61.93346)scale(0.1 -0.1)">
       <use transform="translate(0 0.765625)" xlink:href="#DejaVuSans-49"/>
       <use transform="translate(63.623047 0.765625)" xlink:href="#DejaVuSans-48"/>
       <use transform="translate(128.203125 39.046875)scale(0.7)" xlink:href="#DejaVuSans-48"/>
      </g>
     </g>
    </g>
    <g id="ytick_6">
     <g id="line2d_25">
      <defs>
       <path d="M 0 0 
L -2 0 
" id="m3f5fc46325" style="stroke:#000000;stroke-width:0.6;"/>
      </defs>
      <g>
       <use style="stroke:#000000;stroke-width:0.6;" x="57.6" xlink:href="#m3f5fc46325" y="293.190387"/>
      </g>
     </g>
    </g>
    <g id="ytick_7">
     <g id="line2d_26">
      <g>
       <use style="stroke:#000000;stroke-width:0.6;" x="57.6" xlink:href="#m3f5fc46325" y="284.38179"/>
      </g>
     </g>
    </g>
    <g id="ytick_8">
     <g id="line2d_27">
      <g>
       <use style="stroke:#000000;stroke-width:0.6;" x="57.6" xlink:href="#m3f5fc46325" y="278.131991"/>
      </g>
     </g>
    </g>
    <g id="ytick_9">
     <g id="line2d_28">
      <g>
       <use style="stroke:#000000;stroke-width:0.6;" x="57.6" xlink:href="#m3f5fc46325" y="273.28427"/>
      </g>
     </g>
    </g>
    <g id="ytick_10">
     <g id="line2d_29">
      <g>
       <use style="stroke:#000000;stroke-width:0.6;" x="57.6" xlink:href="#m3f5fc46325" y="269.323394"/>
      </g>
     </g>
    </g>
    <g id="ytick_11">
     <g id="line2d_30">
      <g>
       <use style="stroke:#000000;stroke-width:0.6;" x="57.6" xlink:href="#m3f5fc46325" y="265.974521"/>
      </g>
     </g>
    </g>
    <g id="ytick_12">
     <g id="line2d_31">
      <g>
       <use style="stroke:#000000;stroke-width:0.6;" x="57.6" xlink:href="#m3f5fc46325" y="263.073595"/>
      </g>
     </g>
    </g>
    <g id="ytick_13">
     <g id="line2d_32">
      <g>
       <use style="stroke:#000000;stroke-width:0.6;" x="57.6" xlink:href="#m3f5fc46325" y="260.514797"/>
      </g>
     </g>
    </g>
    <g id="ytick_14">
     <g id="line2d_33">
      <g>
       <use style="stroke:#000000;stroke-width:0.6;" x="57.6" xlink:href="#m3f5fc46325" y="243.167479"/>
      </g>
     </g>
    </g>
    <g id="ytick_15">
     <g id="line2d_34">
      <g>
       <use style="stroke:#000000;stroke-width:0.6;" x="57.6" xlink:href="#m3f5fc46325" y="234.358882"/>
      </g>
     </g>
    </g>
    <g id="ytick_16">
     <g id="line2d_35">
      <g>
       <use style="stroke:#000000;stroke-width:0.6;" x="57.6" xlink:href="#m3f5fc46325" y="228.109083"/>
      </g>
     </g>
    </g>
    <g id="ytick_17">
     <g id="line2d_36">
      <g>
       <use style="stroke:#000000;stroke-width:0.6;" x="57.6" xlink:href="#m3f5fc46325" y="223.261362"/>
      </g>
     </g>
    </g>
    <g id="ytick_18">
     <g id="line2d_37">
      <g>
       <use style="stroke:#000000;stroke-width:0.6;" x="57.6" xlink:href="#m3f5fc46325" y="219.300486"/>
      </g>
     </g>
    </g>
    <g id="ytick_19">
     <g id="line2d_38">
      <g>
       <use style="stroke:#000000;stroke-width:0.6;" x="57.6" xlink:href="#m3f5fc46325" y="215.951613"/>
      </g>
     </g>
    </g>
    <g id="ytick_20">
     <g id="line2d_39">
      <g>
       <use style="stroke:#000000;stroke-width:0.6;" x="57.6" xlink:href="#m3f5fc46325" y="213.050687"/>
      </g>
     </g>
    </g>
    <g id="ytick_21">
     <g id="line2d_40">
      <g>
       <use style="stroke:#000000;stroke-width:0.6;" x="57.6" xlink:href="#m3f5fc46325" y="210.491889"/>
      </g>
     </g>
    </g>
    <g id="ytick_22">
     <g id="line2d_41">
      <g>
       <use style="stroke:#000000;stroke-width:0.6;" x="57.6" xlink:href="#m3f5fc46325" y="193.14457"/>
      </g>
     </g>
    </g>
    <g id="ytick_23">
     <g id="line2d_42">
      <g>
       <use style="stroke:#000000;stroke-width:0.6;" x="57.6" xlink:href="#m3f5fc46325" y="184.335974"/>
      </g>
     </g>
    </g>
    <g id="ytick_24">
     <g id="line2d_43">
      <g>
       <use style="stroke:#000000;stroke-width:0.6;" x="57.6" xlink:href="#m3f5fc46325" y="178.086175"/>
      </g>
     </g>
    </g>
    <g id="ytick_25">
     <g id="line2d_44">
      <g>
       <use style="stroke:#000000;stroke-width:0.6;" x="57.6" xlink:href="#m3f5fc46325" y="173.238454"/>
      </g>
     </g>
    </g>
    <g id="ytick_26">
     <g id="line2d_45">
      <g>
       <use style="stroke:#000000;stroke-width:0.6;" x="57.6" xlink:href="#m3f5fc46325" y="169.277578"/>
      </g>
     </g>
    </g>
    <g id="ytick_27">
     <g id="line2d_46">
      <g>
       <use style="stroke:#000000;stroke-width:0.6;" x="57.6" xlink:href="#m3f5fc46325" y="165.928705"/>
      </g>
     </g>
    </g>
    <g id="ytick_28">
     <g id="line2d_47">
      <g>
       <use style="stroke:#000000;stroke-width:0.6;" x="57.6" xlink:href="#m3f5fc46325" y="163.027779"/>
      </g>
     </g>
    </g>
    <g id="ytick_29">
     <g id="line2d_48">
      <g>
       <use style="stroke:#000000;stroke-width:0.6;" x="57.6" xlink:href="#m3f5fc46325" y="160.468981"/>
      </g>
     </g>
    </g>
    <g id="ytick_30">
     <g id="line2d_49">
      <g>
       <use style="stroke:#000000;stroke-width:0.6;" x="57.6" xlink:href="#m3f5fc46325" y="143.121662"/>
      </g>
     </g>
    </g>
    <g id="ytick_31">
     <g id="line2d_50">
      <g>
       <use style="stroke:#000000;stroke-width:0.6;" x="57.6" xlink:href="#m3f5fc46325" y="134.313065"/>
      </g>
     </g>
    </g>
    <g id="ytick_32">
     <g id="line2d_51">
      <g>
       <use style="stroke:#000000;stroke-width:0.6;" x="57.6" xlink:href="#m3f5fc46325" y="128.063266"/>
      </g>
     </g>
    </g>
    <g id="ytick_33">
     <g id="line2d_52">
      <g>
       <use style="stroke:#000000;stroke-width:0.6;" x="57.6" xlink:href="#m3f5fc46325" y="123.215546"/>
      </g>
     </g>
    </g>
    <g id="ytick_34">
     <g id="line2d_53">
      <g>
       <use style="stroke:#000000;stroke-width:0.6;" x="57.6" xlink:href="#m3f5fc46325" y="119.254669"/>
      </g>
     </g>
    </g>
    <g id="ytick_35">
     <g id="line2d_54">
      <g>
       <use style="stroke:#000000;stroke-width:0.6;" x="57.6" xlink:href="#m3f5fc46325" y="115.905796"/>
      </g>
     </g>
    </g>
    <g id="ytick_36">
     <g id="line2d_55">
      <g>
       <use style="stroke:#000000;stroke-width:0.6;" x="57.6" xlink:href="#m3f5fc46325" y="113.004871"/>
      </g>
     </g>
    </g>
    <g id="ytick_37">
     <g id="line2d_56">
      <g>
       <use style="stroke:#000000;stroke-width:0.6;" x="57.6" xlink:href="#m3f5fc46325" y="110.446073"/>
      </g>
     </g>
    </g>
    <g id="ytick_38">
     <g id="line2d_57">
      <g>
       <use style="stroke:#000000;stroke-width:0.6;" x="57.6" xlink:href="#m3f5fc46325" y="93.098754"/>
      </g>
     </g>
    </g>
    <g id="ytick_39">
     <g id="line2d_58">
      <g>
       <use style="stroke:#000000;stroke-width:0.6;" x="57.6" xlink:href="#m3f5fc46325" y="84.290157"/>
      </g>
     </g>
    </g>
    <g id="ytick_40">
     <g id="line2d_59">
      <g>
       <use style="stroke:#000000;stroke-width:0.6;" x="57.6" xlink:href="#m3f5fc46325" y="78.040358"/>
      </g>
     </g>
    </g>
    <g id="ytick_41">
     <g id="line2d_60">
      <g>
       <use style="stroke:#000000;stroke-width:0.6;" x="57.6" xlink:href="#m3f5fc46325" y="73.192637"/>
      </g>
     </g>
    </g>
    <g id="ytick_42">
     <g id="line2d_61">
      <g>
       <use style="stroke:#000000;stroke-width:0.6;" x="57.6" xlink:href="#m3f5fc46325" y="69.231761"/>
      </g>
     </g>
    </g>
    <g id="ytick_43">
     <g id="line2d_62">
      <g>
       <use style="stroke:#000000;stroke-width:0.6;" x="57.6" xlink:href="#m3f5fc46325" y="65.882888"/>
      </g>
     </g>
    </g>
    <g id="ytick_44">
     <g id="line2d_63">
      <g>
       <use style="stroke:#000000;stroke-width:0.6;" x="57.6" xlink:href="#m3f5fc46325" y="62.981962"/>
      </g>
     </g>
    </g>
    <g id="ytick_45">
     <g id="line2d_64">
      <g>
       <use style="stroke:#000000;stroke-width:0.6;" x="57.6" xlink:href="#m3f5fc46325" y="60.423164"/>
      </g>
     </g>
    </g>
    <g id="ytick_46">
     <g id="line2d_65">
      <g>
       <use style="stroke:#000000;stroke-width:0.6;" x="57.6" xlink:href="#m3f5fc46325" y="43.075846"/>
      </g>
     </g>
    </g>
    <g id="text_14">
     <!-- KLD -->
     <defs>
      <path d="M 9.8125 72.90625 
L 19.671875 72.90625 
L 19.671875 42.09375 
L 52.390625 72.90625 
L 65.09375 72.90625 
L 28.90625 38.921875 
L 67.671875 0 
L 54.6875 0 
L 19.671875 35.109375 
L 19.671875 0 
L 9.8125 0 
z
" id="DejaVuSans-75"/>
      <path d="M 9.8125 72.90625 
L 19.671875 72.90625 
L 19.671875 8.296875 
L 55.171875 8.296875 
L 55.171875 0 
L 9.8125 0 
z
" id="DejaVuSans-76"/>
      <path d="M 19.671875 64.796875 
L 19.671875 8.109375 
L 31.59375 8.109375 
Q 46.6875 8.109375 53.6875 14.9375 
Q 60.6875 21.78125 60.6875 36.53125 
Q 60.6875 51.171875 53.6875 57.984375 
Q 46.6875 64.796875 31.59375 64.796875 
z
M 9.8125 72.90625 
L 30.078125 72.90625 
Q 51.265625 72.90625 61.171875 64.09375 
Q 71.09375 55.28125 71.09375 36.53125 
Q 71.09375 17.671875 61.125 8.828125 
Q 51.171875 0 30.078125 0 
L 9.8125 0 
z
" id="DejaVuSans-68"/>
     </defs>
     <g transform="translate(21.020313 184.442844)rotate(-90)scale(0.1 -0.1)">
      <use xlink:href="#DejaVuSans-75"/>
      <use x="65.576172" xlink:href="#DejaVuSans-76"/>
      <use x="121.289062" xlink:href="#DejaVuSans-68"/>
     </g>
    </g>
   </g>
   <g id="line2d_66">
    <path clip-path="url(#p6b1be18482)" d="M 57.6 123.215546 
L 414.72 123.215546 
" style="fill:none;stroke:#aec7e8;stroke-dasharray:5.55,2.4;stroke-dashoffset:0;stroke-width:1.5;"/>
   </g>
   <g id="line2d_67">
    <path clip-path="url(#p6b1be18482)" d="M 74.484593 122.018586 
L 75.783211 103.652538 
L 77.081829 98.556 
L 78.380447 102.989512 
L 79.679065 113.187965 
L 80.977684 118.634951 
L 82.276302 116.730168 
L 83.57492 115.619731 
L 84.873538 112.972741 
L 86.172156 114.124489 
L 87.470775 116.680304 
L 88.769393 116.266722 
L 90.068011 115.82396 
L 91.366629 116.657937 
L 92.665247 117.30173 
L 93.963865 119.171854 
L 95.262484 118.417281 
L 96.561102 119.409985 
L 97.85972 120.47359 
L 99.158338 120.627772 
L 100.456956 120.943297 
L 101.755575 120.259262 
L 103.054193 120.029228 
L 104.352811 121.158588 
L 105.651429 121.54797 
L 106.950047 121.178972 
L 108.248665 119.64188 
L 109.547284 119.962674 
L 110.845902 118.256356 
L 112.14452 120.992115 
L 113.443138 121.609629 
L 114.741756 124.472969 
L 116.040375 126.684313 
L 117.338993 124.116293 
L 118.637611 123.284187 
L 119.936229 122.650485 
L 121.234847 121.006432 
L 122.533465 120.904415 
L 123.832084 120.458946 
L 125.130702 118.97069 
L 126.42932 118.468492 
L 127.727938 115.946652 
L 129.026556 115.748255 
L 130.325175 112.064479 
L 131.623793 111.840246 
L 132.922411 111.371912 
L 134.221029 111.501671 
L 135.519647 112.061594 
L 136.818265 112.225839 
L 138.116884 111.283182 
L 138.799425 111.214117 
" style="fill:none;stroke:#aec7e8;stroke-linecap:square;stroke-width:1.5;"/>
   </g>
   <g id="line2d_68">
    <path clip-path="url(#p6b1be18482)" d="M 73.832727 290.012167 
L 77.079273 105.201445 
L 80.325818 110.280404 
L 83.572364 112.626736 
L 86.818909 118.873815 
L 90.065455 117.126575 
L 93.312 118.023299 
L 96.558545 118.952731 
L 99.805091 122.390922 
L 103.051636 121.205485 
L 106.298182 122.143187 
L 109.544727 120.2792 
L 112.791273 118.013056 
L 116.037818 128.716287 
L 119.284364 122.529109 
L 122.530909 122.933306 
L 125.777455 121.198485 
L 129.024 118.773531 
L 132.270545 115.847686 
L 135.517091 114.603956 
L 138.763636 111.595116 
" style="fill:none;stroke:#1f77b4;stroke-linecap:square;stroke-width:1.5;"/>
   </g>
   <g id="line2d_69">
    <path clip-path="url(#p6b1be18482)" d="M 57.6 108.15715 
L 414.72 108.15715 
" style="fill:none;stroke:#ffbb78;stroke-dasharray:5.55,2.4;stroke-dashoffset:0;stroke-width:1.5;"/>
   </g>
   <g id="line2d_70">
    <path clip-path="url(#p6b1be18482)" d="M 77.081829 110.694498 
L 83.57492 108.635495 
L 90.068011 106.785002 
L 96.561102 100.598593 
L 103.054193 93.308148 
L 109.547284 90.214731 
L 116.040375 88.67597 
L 122.533465 88.477318 
L 129.026556 88.411301 
L 135.519647 88.471608 
L 142.012738 88.54086 
L 148.505829 89.11596 
L 154.99892 89.226444 
L 161.492011 89.922763 
L 167.985102 90.141659 
L 174.478193 90.480657 
L 180.971284 90.500536 
L 187.464375 91.105438 
L 193.957465 91.508879 
L 200.450556 91.551479 
L 206.943647 91.820419 
L 213.436738 92.09171 
L 219.929829 92.382619 
L 226.42292 92.588591 
L 232.916011 92.881523 
L 239.409102 93.089426 
L 245.902193 93.823477 
L 252.395284 94.093997 
L 258.888375 94.463091 
L 265.381465 94.751099 
L 271.874556 94.949407 
L 278.367647 94.94348 
L 284.860738 95.240074 
L 291.353829 95.19485 
L 297.84692 95.295031 
L 304.340011 95.816422 
L 310.833102 96.280751 
L 317.326193 96.271881 
L 323.819284 96.411084 
L 330.312375 96.484158 
L 336.805465 96.690468 
L 343.298556 96.697573 
L 349.791647 96.480173 
L 356.284738 96.402172 
L 362.777829 97.392281 
L 369.27092 97.168987 
L 375.764011 97.972836 
L 382.257102 98.541901 
L 388.750193 98.552067 
L 395.243284 98.472703 
" style="fill:none;stroke:#ffbb78;stroke-linecap:square;stroke-width:1.5;"/>
   </g>
   <g id="line2d_71">
    <path clip-path="url(#p6b1be18482)" d="M 73.832727 286.767268 
L 77.079273 113.561448 
L 80.325818 103.254051 
L 83.572364 119.533328 
L 86.818909 103.159844 
L 90.065455 108.723856 
L 93.312 105.636324 
L 96.558545 96.16949 
L 99.805091 95.053966 
L 103.051636 93.486753 
L 106.298182 94.24439 
L 109.544727 91.913153 
L 112.791273 90.622632 
L 116.037818 90.261504 
L 119.284364 90.434051 
L 122.530909 90.144989 
L 125.777455 89.960381 
L 129.024 90.291352 
L 132.270545 90.059934 
L 135.517091 90.798638 
L 138.763636 90.177222 
L 142.010182 89.2794 
L 145.256727 90.249084 
L 148.503273 90.941374 
L 151.749818 91.144462 
L 154.996364 91.384916 
L 158.242909 90.556869 
L 161.489455 92.192667 
L 164.736 91.412332 
L 167.982545 92.38463 
L 171.229091 91.988634 
L 174.475636 92.009542 
L 177.722182 92.364356 
L 180.968727 91.77705 
L 184.215273 92.027552 
L 187.461818 93.614586 
L 190.708364 92.887772 
L 193.954909 95.201574 
L 197.201455 93.695784 
L 200.448 94.110562 
L 203.694545 93.513413 
L 206.941091 94.442681 
L 210.187636 93.615992 
L 213.434182 94.470052 
L 216.680727 95.013001 
L 219.927273 93.896654 
L 223.173818 94.878216 
L 226.420364 94.911708 
L 229.666909 94.562352 
L 232.913455 94.780496 
L 236.16 94.273226 
L 239.406545 94.4375 
L 242.653091 96.260324 
L 245.899636 96.500199 
L 249.146182 95.847277 
L 252.392727 96.036522 
L 255.639273 96.207206 
L 258.885818 96.712078 
L 262.132364 96.683187 
L 265.378909 97.567636 
L 268.625455 96.529481 
L 271.872 96.952895 
L 275.118545 97.910569 
L 278.365091 96.715041 
L 281.611636 97.913236 
L 284.858182 97.525314 
L 288.104727 97.497431 
L 291.351273 98.108882 
L 294.597818 97.43291 
L 297.844364 97.794144 
L 301.090909 97.653912 
L 304.337455 98.498143 
L 307.584 97.593127 
L 310.830545 98.25476 
L 314.077091 99.957615 
L 317.323636 98.324393 
L 320.570182 98.739033 
L 323.816727 99.307734 
L 327.063273 99.024336 
L 330.309818 100.152591 
L 333.556364 99.119708 
L 336.802909 99.008717 
L 340.049455 99.374464 
L 343.296 99.518858 
L 346.542545 98.874001 
L 349.789091 99.345757 
L 353.035636 99.388388 
L 356.282182 99.408446 
L 359.528727 99.533173 
L 362.775273 100.80925 
L 366.021818 100.266459 
L 369.268364 100.009268 
L 372.514909 100.348704 
L 375.761455 100.737908 
L 379.008 101.283675 
L 382.254545 102.088895 
L 385.501091 102.350719 
L 388.747636 101.0457 
L 391.994182 101.32926 
L 395.240727 101.205412 
L 398.487273 101.369124 
" style="fill:none;stroke:#ff7f0e;stroke-linecap:square;stroke-width:1.5;"/>
   </g>
   <g id="line2d_72">
    <path clip-path="url(#p6b1be18482)" d="M 57.6 93.098754 
L 414.72 93.098754 
" style="fill:none;stroke:#98df8a;stroke-dasharray:5.55,2.4;stroke-dashoffset:0;stroke-width:1.5;"/>
   </g>
   <g id="line2d_73">
    <path clip-path="url(#p6b1be18482)" d="M 75.847119 95.574044 
L 79.870791 98.559527 
L 83.894462 91.541851 
L 87.918133 90.677735 
L 91.941804 92.996514 
L 95.965476 92.900573 
L 99.989147 93.227679 
L 104.012818 93.006249 
L 108.03649 92.671151 
L 112.060161 91.417375 
L 116.083832 90.930358 
L 120.107504 91.173326 
L 124.131175 90.306531 
L 128.154846 90.491623 
L 132.178517 90.768055 
L 136.202189 90.609989 
L 140.22586 89.517631 
L 144.249531 90.945651 
L 148.273203 91.80166 
L 152.296874 91.777056 
L 156.320545 91.252243 
L 160.344216 90.83322 
L 164.367888 90.461621 
L 168.391559 90.160044 
L 172.41523 90.882425 
L 176.438902 91.631307 
L 180.462573 91.857474 
L 184.486244 92.659059 
L 188.509916 93.737176 
L 192.533587 92.932947 
L 196.557258 92.006066 
L 200.580929 91.953059 
L 204.604601 92.224062 
L 208.628272 92.420855 
L 212.651943 91.941893 
L 216.675615 90.89241 
L 220.699286 91.190457 
L 224.722957 91.165989 
L 228.746628 91.878109 
L 232.7703 91.274054 
L 236.793971 90.813485 
L 240.817642 89.783716 
L 244.841314 90.750784 
L 248.864985 91.123087 
L 252.888656 91.77638 
L 256.912328 90.878225 
L 260.935999 91.923334 
L 264.95967 92.22408 
L 268.983341 91.71235 
L 273.007013 92.319706 
L 275.069975 93.286233 
" style="fill:none;stroke:#98df8a;stroke-linecap:square;stroke-width:1.5;"/>
   </g>
   <g id="line2d_74">
    <path clip-path="url(#p6b1be18482)" d="M 73.832727 279.182706 
L 77.079273 91.97052 
L 80.325818 103.091518 
L 83.572364 94.573543 
L 86.818909 89.74187 
L 90.065455 93.802191 
L 93.312 93.138107 
L 96.558545 92.409342 
L 99.805091 94.618424 
L 103.051636 94.76756 
L 106.298182 94.797134 
L 109.544727 94.289939 
L 112.791273 91.165651 
L 116.037818 93.499848 
L 119.284364 93.338875 
L 122.530909 93.999646 
L 125.777455 92.430089 
L 129.024 91.303258 
L 132.270545 92.631009 
L 135.517091 93.723624 
L 138.763636 91.03864 
L 142.010182 89.594571 
L 145.256727 93.177426 
L 148.503273 94.92461 
L 151.749818 93.378383 
L 154.996364 92.196588 
L 158.242909 93.075097 
L 161.489455 93.000567 
L 164.736 90.424843 
L 167.982545 92.182207 
L 171.229091 91.821131 
L 174.475636 93.72921 
L 177.722182 93.320223 
L 180.968727 94.657819 
L 184.215273 94.804519 
L 187.461818 95.861982 
L 190.708364 95.455389 
L 193.954909 95.441634 
L 197.201455 93.194075 
L 200.448 92.809009 
L 203.694545 93.458339 
L 206.941091 94.641315 
L 210.187636 95.553233 
L 213.434182 92.998525 
L 216.680727 92.876136 
L 219.927273 92.695538 
L 223.173818 92.252552 
L 226.420364 93.624213 
L 229.666909 93.663283 
L 232.913455 92.39672 
L 236.16 94.883656 
L 239.406545 91.808088 
L 242.653091 92.766721 
L 245.899636 93.181232 
L 249.146182 94.311989 
L 252.392727 93.669834 
L 255.639273 91.026566 
L 258.885818 93.289701 
L 262.132364 94.792017 
L 265.378909 95.162226 
L 268.625455 93.000845 
L 271.872 94.612961 
" style="fill:none;stroke:#2ca02c;stroke-linecap:square;stroke-width:1.5;"/>
   </g>
   <g id="line2d_75">
    <path clip-path="url(#p6b1be18482)" d="M 57.6 73.192637 
L 414.72 73.192637 
" style="fill:none;stroke:#ff9896;stroke-dasharray:5.55,2.4;stroke-dashoffset:0;stroke-width:1.5;"/>
   </g>
   <g id="line2d_76">
    <path clip-path="url(#p6b1be18482)" d="M 75.568479 77.524916 
L 79.034869 74.427901 
L 82.501259 73.494122 
L 85.96765 72.909873 
L 89.43404 73.068329 
L 92.90043 73.209028 
L 96.36682 73.27131 
L 99.833211 73.150033 
L 103.299601 72.81136 
L 106.765991 72.8293 
L 110.232381 72.73878 
L 113.698772 72.658099 
L 117.165162 72.795697 
L 120.631552 72.186061 
L 124.097942 72.380852 
L 127.564333 72.491808 
L 131.030723 72.462138 
L 134.497113 72.515473 
L 137.963504 72.355985 
L 141.429894 72.598496 
L 144.896284 72.282662 
L 148.362674 72.275341 
L 151.829065 72.674536 
L 155.295455 72.452832 
L 158.761845 72.316599 
L 162.228235 72.524555 
L 165.694626 72.963972 
L 169.161016 72.216811 
L 172.627406 72.406889 
L 176.093796 72.666419 
L 179.560187 73.258588 
L 183.026577 73.78391 
L 186.492967 74.116646 
L 189.959357 74.264576 
L 193.425748 74.27524 
L 196.892138 73.413753 
L 200.358528 72.584552 
L 203.824919 72.208276 
L 207.291309 72.374269 
L 210.757699 72.89096 
L 214.224089 73.433054 
L 217.69048 72.685958 
L 221.15687 71.905993 
L 224.62326 72.51798 
L 228.08965 73.170193 
L 231.556041 73.40076 
L 235.022431 73.341069 
L 238.488821 73.30992 
L 241.955211 73.972584 
L 245.421602 73.156492 
L 247.18036 72.762582 
" style="fill:none;stroke:#ff9896;stroke-linecap:square;stroke-width:1.5;"/>
   </g>
   <g id="line2d_77">
    <path clip-path="url(#p6b1be18482)" d="M 73.832727 295.488 
L 77.079273 72.650847 
L 80.325818 72.439211 
L 83.572364 77.154302 
L 86.818909 74.515558 
L 90.065455 71.945575 
L 93.312 73.074247 
L 96.558545 75.104746 
L 99.805091 75.094725 
L 103.051636 72.648095 
L 106.298182 74.133381 
L 109.544727 71.542912 
L 112.791273 72.618478 
L 116.037818 73.993174 
L 119.284364 73.081484 
L 122.530909 74.605779 
L 125.777455 74.613366 
L 129.024 71.908789 
L 132.270545 74.024377 
L 135.517091 72.881132 
L 138.763636 73.859397 
L 142.010182 73.863727 
L 145.256727 71.732349 
L 148.503273 73.260194 
L 151.749818 74.629536 
L 154.996364 74.112097 
L 158.242909 73.611228 
L 161.489455 74.261139 
L 164.736 72.289278 
L 167.982545 72.625666 
L 171.229091 73.829901 
L 174.475636 73.427064 
L 177.722182 74.467513 
L 180.968727 74.375758 
L 184.215273 74.324675 
L 187.461818 76.341946 
L 190.708364 76.147921 
L 193.954909 75.177384 
L 197.201455 74.146628 
L 200.448 73.417462 
L 203.694545 73.087506 
L 206.941091 73.981189 
L 210.187636 73.924919 
L 213.434182 74.167572 
L 216.680727 74.639628 
L 219.927273 71.952326 
L 223.173818 72.621352 
L 226.420364 74.800889 
L 229.666909 74.639838 
L 232.913455 73.146678 
L 236.16 74.566126 
L 239.406545 77.143968 
L 242.653091 74.952627 
L 245.899636 74.360154 
" style="fill:none;stroke:#d62728;stroke-linecap:square;stroke-width:1.5;"/>
   </g>
   <g id="patch_3">
    <path d="M 57.6 307.584 
L 57.6 41.472 
" style="fill:none;stroke:#000000;stroke-linecap:square;stroke-linejoin:miter;stroke-width:0.8;"/>
   </g>
   <g id="patch_4">
    <path d="M 414.72 307.584 
L 414.72 41.472 
" style="fill:none;stroke:#000000;stroke-linecap:square;stroke-linejoin:miter;stroke-width:0.8;"/>
   </g>
   <g id="patch_5">
    <path d="M 57.6 307.584 
L 414.72 307.584 
" style="fill:none;stroke:#000000;stroke-linecap:square;stroke-linejoin:miter;stroke-width:0.8;"/>
   </g>
   <g id="patch_6">
    <path d="M 57.6 41.472 
L 414.72 41.472 
" style="fill:none;stroke:#000000;stroke-linecap:square;stroke-linejoin:miter;stroke-width:0.8;"/>
   </g>
   <g id="text_15">
    <!-- KL Divergence -->
    <defs>
     <path id="DejaVuSans-32"/>
     <path d="M 9.421875 54.6875 
L 18.40625 54.6875 
L 18.40625 0 
L 9.421875 0 
z
M 9.421875 75.984375 
L 18.40625 75.984375 
L 18.40625 64.59375 
L 9.421875 64.59375 
z
" id="DejaVuSans-105"/>
     <path d="M 2.984375 54.6875 
L 12.5 54.6875 
L 29.59375 8.796875 
L 46.6875 54.6875 
L 56.203125 54.6875 
L 35.6875 0 
L 23.484375 0 
z
" id="DejaVuSans-118"/>
     <path d="M 41.109375 46.296875 
Q 39.59375 47.171875 37.8125 47.578125 
Q 36.03125 48 33.890625 48 
Q 26.265625 48 22.1875 43.046875 
Q 18.109375 38.09375 18.109375 28.8125 
L 18.109375 0 
L 9.078125 0 
L 9.078125 54.6875 
L 18.109375 54.6875 
L 18.109375 46.1875 
Q 20.953125 51.171875 25.484375 53.578125 
Q 30.03125 56 36.53125 56 
Q 37.453125 56 38.578125 55.875 
Q 39.703125 55.765625 41.0625 55.515625 
z
" id="DejaVuSans-114"/>
     <path d="M 45.40625 27.984375 
Q 45.40625 37.75 41.375 43.109375 
Q 37.359375 48.484375 30.078125 48.484375 
Q 22.859375 48.484375 18.828125 43.109375 
Q 14.796875 37.75 14.796875 27.984375 
Q 14.796875 18.265625 18.828125 12.890625 
Q 22.859375 7.515625 30.078125 7.515625 
Q 37.359375 7.515625 41.375 12.890625 
Q 45.40625 18.265625 45.40625 27.984375 
z
M 54.390625 6.78125 
Q 54.390625 -7.171875 48.1875 -13.984375 
Q 42 -20.796875 29.203125 -20.796875 
Q 24.46875 -20.796875 20.265625 -20.09375 
Q 16.0625 -19.390625 12.109375 -17.921875 
L 12.109375 -9.1875 
Q 16.0625 -11.328125 19.921875 -12.34375 
Q 23.78125 -13.375 27.78125 -13.375 
Q 36.625 -13.375 41.015625 -8.765625 
Q 45.40625 -4.15625 45.40625 5.171875 
L 45.40625 9.625 
Q 42.625 4.78125 38.28125 2.390625 
Q 33.9375 0 27.875 0 
Q 17.828125 0 11.671875 7.65625 
Q 5.515625 15.328125 5.515625 27.984375 
Q 5.515625 40.671875 11.671875 48.328125 
Q 17.828125 56 27.875 56 
Q 33.9375 56 38.28125 53.609375 
Q 42.625 51.21875 45.40625 46.390625 
L 45.40625 54.6875 
L 54.390625 54.6875 
z
" id="DejaVuSans-103"/>
     <path d="M 54.890625 33.015625 
L 54.890625 0 
L 45.90625 0 
L 45.90625 32.71875 
Q 45.90625 40.484375 42.875 44.328125 
Q 39.84375 48.1875 33.796875 48.1875 
Q 26.515625 48.1875 22.3125 43.546875 
Q 18.109375 38.921875 18.109375 30.90625 
L 18.109375 0 
L 9.078125 0 
L 9.078125 54.6875 
L 18.109375 54.6875 
L 18.109375 46.1875 
Q 21.34375 51.125 25.703125 53.5625 
Q 30.078125 56 35.796875 56 
Q 45.21875 56 50.046875 50.171875 
Q 54.890625 44.34375 54.890625 33.015625 
z
" id="DejaVuSans-110"/>
     <path d="M 48.78125 52.59375 
L 48.78125 44.1875 
Q 44.96875 46.296875 41.140625 47.34375 
Q 37.3125 48.390625 33.40625 48.390625 
Q 24.65625 48.390625 19.8125 42.84375 
Q 14.984375 37.3125 14.984375 27.296875 
Q 14.984375 17.28125 19.8125 11.734375 
Q 24.65625 6.203125 33.40625 6.203125 
Q 37.3125 6.203125 41.140625 7.25 
Q 44.96875 8.296875 48.78125 10.40625 
L 48.78125 2.09375 
Q 45.015625 0.34375 40.984375 -0.53125 
Q 36.96875 -1.421875 32.421875 -1.421875 
Q 20.0625 -1.421875 12.78125 6.34375 
Q 5.515625 14.109375 5.515625 27.296875 
Q 5.515625 40.671875 12.859375 48.328125 
Q 20.21875 56 33.015625 56 
Q 37.15625 56 41.109375 55.140625 
Q 45.0625 54.296875 48.78125 52.59375 
z
" id="DejaVuSans-99"/>
    </defs>
    <g transform="translate(192.685313 35.472)scale(0.12 -0.12)">
     <use xlink:href="#DejaVuSans-75"/>
     <use x="65.576172" xlink:href="#DejaVuSans-76"/>
     <use x="121.289062" xlink:href="#DejaVuSans-32"/>
     <use x="153.076172" xlink:href="#DejaVuSans-68"/>
     <use x="230.078125" xlink:href="#DejaVuSans-105"/>
     <use x="257.861328" xlink:href="#DejaVuSans-118"/>
     <use x="317.041016" xlink:href="#DejaVuSans-101"/>
     <use x="378.564453" xlink:href="#DejaVuSans-114"/>
     <use x="419.662109" xlink:href="#DejaVuSans-103"/>
     <use x="483.138672" xlink:href="#DejaVuSans-101"/>
     <use x="544.662109" xlink:href="#DejaVuSans-110"/>
     <use x="608.041016" xlink:href="#DejaVuSans-99"/>
     <use x="663.021484" xlink:href="#DejaVuSans-101"/>
    </g>
   </g>
   <g id="legend_1">
    <g id="patch_7">
     <path d="M 263.452812 302.584 
L 407.72 302.584 
Q 409.72 302.584 409.72 300.584 
L 409.72 184.159 
Q 409.72 182.159 407.72 182.159 
L 263.452812 182.159 
Q 261.452812 182.159 261.452812 184.159 
L 261.452812 300.584 
Q 261.452812 302.584 263.452812 302.584 
z
" style="fill:#ffffff;opacity:0.8;stroke:#cccccc;stroke-linejoin:miter;"/>
    </g>
    <g id="line2d_78">
     <path d="M 265.452812 190.257437 
L 285.452812 190.257437 
" style="fill:none;stroke:#aec7e8;stroke-linecap:square;stroke-width:1.5;"/>
    </g>
    <g id="line2d_79"/>
    <g id="text_16">
     <!-- Target KL: 0.05 - Train -->
     <defs>
      <path d="M -0.296875 72.90625 
L 61.375 72.90625 
L 61.375 64.59375 
L 35.5 64.59375 
L 35.5 0 
L 25.59375 0 
L 25.59375 64.59375 
L -0.296875 64.59375 
z
" id="DejaVuSans-84"/>
      <path d="M 34.28125 27.484375 
Q 23.390625 27.484375 19.1875 25 
Q 14.984375 22.515625 14.984375 16.5 
Q 14.984375 11.71875 18.140625 8.90625 
Q 21.296875 6.109375 26.703125 6.109375 
Q 34.1875 6.109375 38.703125 11.40625 
Q 43.21875 16.703125 43.21875 25.484375 
L 43.21875 27.484375 
z
M 52.203125 31.203125 
L 52.203125 0 
L 43.21875 0 
L 43.21875 8.296875 
Q 40.140625 3.328125 35.546875 0.953125 
Q 30.953125 -1.421875 24.3125 -1.421875 
Q 15.921875 -1.421875 10.953125 3.296875 
Q 6 8.015625 6 15.921875 
Q 6 25.140625 12.171875 29.828125 
Q 18.359375 34.515625 30.609375 34.515625 
L 43.21875 34.515625 
L 43.21875 35.40625 
Q 43.21875 41.609375 39.140625 45 
Q 35.0625 48.390625 27.6875 48.390625 
Q 23 48.390625 18.546875 47.265625 
Q 14.109375 46.140625 10.015625 43.890625 
L 10.015625 52.203125 
Q 14.9375 54.109375 19.578125 55.046875 
Q 24.21875 56 28.609375 56 
Q 40.484375 56 46.34375 49.84375 
Q 52.203125 43.703125 52.203125 31.203125 
z
" id="DejaVuSans-97"/>
      <path d="M 11.71875 12.40625 
L 22.015625 12.40625 
L 22.015625 0 
L 11.71875 0 
z
M 11.71875 51.703125 
L 22.015625 51.703125 
L 22.015625 39.3125 
L 11.71875 39.3125 
z
" id="DejaVuSans-58"/>
      <path d="M 10.6875 12.40625 
L 21 12.40625 
L 21 0 
L 10.6875 0 
z
" id="DejaVuSans-46"/>
      <path d="M 4.890625 31.390625 
L 31.203125 31.390625 
L 31.203125 23.390625 
L 4.890625 23.390625 
z
" id="DejaVuSans-45"/>
     </defs>
     <g transform="translate(293.452812 193.757437)scale(0.1 -0.1)">
      <use xlink:href="#DejaVuSans-84"/>
      <use x="60.833984" xlink:href="#DejaVuSans-97"/>
      <use x="122.113281" xlink:href="#DejaVuSans-114"/>
      <use x="163.210938" xlink:href="#DejaVuSans-103"/>
      <use x="226.6875" xlink:href="#DejaVuSans-101"/>
      <use x="288.210938" xlink:href="#DejaVuSans-116"/>
      <use x="327.419922" xlink:href="#DejaVuSans-32"/>
      <use x="359.207031" xlink:href="#DejaVuSans-75"/>
      <use x="424.783203" xlink:href="#DejaVuSans-76"/>
      <use x="480.496094" xlink:href="#DejaVuSans-58"/>
      <use x="514.1875" xlink:href="#DejaVuSans-32"/>
      <use x="545.974609" xlink:href="#DejaVuSans-48"/>
      <use x="609.597656" xlink:href="#DejaVuSans-46"/>
      <use x="641.384766" xlink:href="#DejaVuSans-48"/>
      <use x="705.007812" xlink:href="#DejaVuSans-53"/>
      <use x="768.630859" xlink:href="#DejaVuSans-32"/>
      <use x="800.417969" xlink:href="#DejaVuSans-45"/>
      <use x="836.501953" xlink:href="#DejaVuSans-32"/>
      <use x="868.289062" xlink:href="#DejaVuSans-84"/>
      <use x="929.154297" xlink:href="#DejaVuSans-114"/>
      <use x="970.267578" xlink:href="#DejaVuSans-97"/>
      <use x="1031.546875" xlink:href="#DejaVuSans-105"/>
      <use x="1059.330078" xlink:href="#DejaVuSans-110"/>
     </g>
    </g>
    <g id="line2d_80">
     <path d="M 265.452812 204.935563 
L 285.452812 204.935563 
" style="fill:none;stroke:#1f77b4;stroke-linecap:square;stroke-width:1.5;"/>
    </g>
    <g id="line2d_81"/>
    <g id="text_17">
     <!-- Target KL: 0.05 - Test -->
     <g transform="translate(293.452812 208.435563)scale(0.1 -0.1)">
      <use xlink:href="#DejaVuSans-84"/>
      <use x="60.833984" xlink:href="#DejaVuSans-97"/>
      <use x="122.113281" xlink:href="#DejaVuSans-114"/>
      <use x="163.210938" xlink:href="#DejaVuSans-103"/>
      <use x="226.6875" xlink:href="#DejaVuSans-101"/>
      <use x="288.210938" xlink:href="#DejaVuSans-116"/>
      <use x="327.419922" xlink:href="#DejaVuSans-32"/>
      <use x="359.207031" xlink:href="#DejaVuSans-75"/>
      <use x="424.783203" xlink:href="#DejaVuSans-76"/>
      <use x="480.496094" xlink:href="#DejaVuSans-58"/>
      <use x="514.1875" xlink:href="#DejaVuSans-32"/>
      <use x="545.974609" xlink:href="#DejaVuSans-48"/>
      <use x="609.597656" xlink:href="#DejaVuSans-46"/>
      <use x="641.384766" xlink:href="#DejaVuSans-48"/>
      <use x="705.007812" xlink:href="#DejaVuSans-53"/>
      <use x="768.630859" xlink:href="#DejaVuSans-32"/>
      <use x="800.417969" xlink:href="#DejaVuSans-45"/>
      <use x="836.501953" xlink:href="#DejaVuSans-32"/>
      <use x="868.289062" xlink:href="#DejaVuSans-84"/>
      <use x="929.107422" xlink:href="#DejaVuSans-101"/>
      <use x="990.630859" xlink:href="#DejaVuSans-115"/>
      <use x="1042.730469" xlink:href="#DejaVuSans-116"/>
     </g>
    </g>
    <g id="line2d_82">
     <path d="M 265.452812 219.613687 
L 285.452812 219.613687 
" style="fill:none;stroke:#ffbb78;stroke-linecap:square;stroke-width:1.5;"/>
    </g>
    <g id="line2d_83"/>
    <g id="text_18">
     <!-- Target KL: 0.1 - Train -->
     <g transform="translate(293.452812 223.113687)scale(0.1 -0.1)">
      <use xlink:href="#DejaVuSans-84"/>
      <use x="60.833984" xlink:href="#DejaVuSans-97"/>
      <use x="122.113281" xlink:href="#DejaVuSans-114"/>
      <use x="163.210938" xlink:href="#DejaVuSans-103"/>
      <use x="226.6875" xlink:href="#DejaVuSans-101"/>
      <use x="288.210938" xlink:href="#DejaVuSans-116"/>
      <use x="327.419922" xlink:href="#DejaVuSans-32"/>
      <use x="359.207031" xlink:href="#DejaVuSans-75"/>
      <use x="424.783203" xlink:href="#DejaVuSans-76"/>
      <use x="480.496094" xlink:href="#DejaVuSans-58"/>
      <use x="514.1875" xlink:href="#DejaVuSans-32"/>
      <use x="545.974609" xlink:href="#DejaVuSans-48"/>
      <use x="609.597656" xlink:href="#DejaVuSans-46"/>
      <use x="641.384766" xlink:href="#DejaVuSans-49"/>
      <use x="705.007812" xlink:href="#DejaVuSans-32"/>
      <use x="736.794922" xlink:href="#DejaVuSans-45"/>
      <use x="772.878906" xlink:href="#DejaVuSans-32"/>
      <use x="804.666016" xlink:href="#DejaVuSans-84"/>
      <use x="865.53125" xlink:href="#DejaVuSans-114"/>
      <use x="906.644531" xlink:href="#DejaVuSans-97"/>
      <use x="967.923828" xlink:href="#DejaVuSans-105"/>
      <use x="995.707031" xlink:href="#DejaVuSans-110"/>
     </g>
    </g>
    <g id="line2d_84">
     <path d="M 265.452812 234.291812 
L 285.452812 234.291812 
" style="fill:none;stroke:#ff7f0e;stroke-linecap:square;stroke-width:1.5;"/>
    </g>
    <g id="line2d_85"/>
    <g id="text_19">
     <!-- Target KL: 0.1 - Test -->
     <g transform="translate(293.452812 237.791812)scale(0.1 -0.1)">
      <use xlink:href="#DejaVuSans-84"/>
      <use x="60.833984" xlink:href="#DejaVuSans-97"/>
      <use x="122.113281" xlink:href="#DejaVuSans-114"/>
      <use x="163.210938" xlink:href="#DejaVuSans-103"/>
      <use x="226.6875" xlink:href="#DejaVuSans-101"/>
      <use x="288.210938" xlink:href="#DejaVuSans-116"/>
      <use x="327.419922" xlink:href="#DejaVuSans-32"/>
      <use x="359.207031" xlink:href="#DejaVuSans-75"/>
      <use x="424.783203" xlink:href="#DejaVuSans-76"/>
      <use x="480.496094" xlink:href="#DejaVuSans-58"/>
      <use x="514.1875" xlink:href="#DejaVuSans-32"/>
      <use x="545.974609" xlink:href="#DejaVuSans-48"/>
      <use x="609.597656" xlink:href="#DejaVuSans-46"/>
      <use x="641.384766" xlink:href="#DejaVuSans-49"/>
      <use x="705.007812" xlink:href="#DejaVuSans-32"/>
      <use x="736.794922" xlink:href="#DejaVuSans-45"/>
      <use x="772.878906" xlink:href="#DejaVuSans-32"/>
      <use x="804.666016" xlink:href="#DejaVuSans-84"/>
      <use x="865.484375" xlink:href="#DejaVuSans-101"/>
      <use x="927.007812" xlink:href="#DejaVuSans-115"/>
      <use x="979.107422" xlink:href="#DejaVuSans-116"/>
     </g>
    </g>
    <g id="line2d_86">
     <path d="M 265.452812 248.969937 
L 285.452812 248.969937 
" style="fill:none;stroke:#98df8a;stroke-linecap:square;stroke-width:1.5;"/>
    </g>
    <g id="line2d_87"/>
    <g id="text_20">
     <!-- Target KL: 0.2 - Train -->
     <g transform="translate(293.452812 252.469937)scale(0.1 -0.1)">
      <use xlink:href="#DejaVuSans-84"/>
      <use x="60.833984" xlink:href="#DejaVuSans-97"/>
      <use x="122.113281" xlink:href="#DejaVuSans-114"/>
      <use x="163.210938" xlink:href="#DejaVuSans-103"/>
      <use x="226.6875" xlink:href="#DejaVuSans-101"/>
      <use x="288.210938" xlink:href="#DejaVuSans-116"/>
      <use x="327.419922" xlink:href="#DejaVuSans-32"/>
      <use x="359.207031" xlink:href="#DejaVuSans-75"/>
      <use x="424.783203" xlink:href="#DejaVuSans-76"/>
      <use x="480.496094" xlink:href="#DejaVuSans-58"/>
      <use x="514.1875" xlink:href="#DejaVuSans-32"/>
      <use x="545.974609" xlink:href="#DejaVuSans-48"/>
      <use x="609.597656" xlink:href="#DejaVuSans-46"/>
      <use x="641.384766" xlink:href="#DejaVuSans-50"/>
      <use x="705.007812" xlink:href="#DejaVuSans-32"/>
      <use x="736.794922" xlink:href="#DejaVuSans-45"/>
      <use x="772.878906" xlink:href="#DejaVuSans-32"/>
      <use x="804.666016" xlink:href="#DejaVuSans-84"/>
      <use x="865.53125" xlink:href="#DejaVuSans-114"/>
      <use x="906.644531" xlink:href="#DejaVuSans-97"/>
      <use x="967.923828" xlink:href="#DejaVuSans-105"/>
      <use x="995.707031" xlink:href="#DejaVuSans-110"/>
     </g>
    </g>
    <g id="line2d_88">
     <path d="M 265.452812 263.648062 
L 285.452812 263.648062 
" style="fill:none;stroke:#2ca02c;stroke-linecap:square;stroke-width:1.5;"/>
    </g>
    <g id="line2d_89"/>
    <g id="text_21">
     <!-- Target KL: 0.2 - Test -->
     <g transform="translate(293.452812 267.148062)scale(0.1 -0.1)">
      <use xlink:href="#DejaVuSans-84"/>
      <use x="60.833984" xlink:href="#DejaVuSans-97"/>
      <use x="122.113281" xlink:href="#DejaVuSans-114"/>
      <use x="163.210938" xlink:href="#DejaVuSans-103"/>
      <use x="226.6875" xlink:href="#DejaVuSans-101"/>
      <use x="288.210938" xlink:href="#DejaVuSans-116"/>
      <use x="327.419922" xlink:href="#DejaVuSans-32"/>
      <use x="359.207031" xlink:href="#DejaVuSans-75"/>
      <use x="424.783203" xlink:href="#DejaVuSans-76"/>
      <use x="480.496094" xlink:href="#DejaVuSans-58"/>
      <use x="514.1875" xlink:href="#DejaVuSans-32"/>
      <use x="545.974609" xlink:href="#DejaVuSans-48"/>
      <use x="609.597656" xlink:href="#DejaVuSans-46"/>
      <use x="641.384766" xlink:href="#DejaVuSans-50"/>
      <use x="705.007812" xlink:href="#DejaVuSans-32"/>
      <use x="736.794922" xlink:href="#DejaVuSans-45"/>
      <use x="772.878906" xlink:href="#DejaVuSans-32"/>
      <use x="804.666016" xlink:href="#DejaVuSans-84"/>
      <use x="865.484375" xlink:href="#DejaVuSans-101"/>
      <use x="927.007812" xlink:href="#DejaVuSans-115"/>
      <use x="979.107422" xlink:href="#DejaVuSans-116"/>
     </g>
    </g>
    <g id="line2d_90">
     <path d="M 265.452812 278.326187 
L 285.452812 278.326187 
" style="fill:none;stroke:#ff9896;stroke-linecap:square;stroke-width:1.5;"/>
    </g>
    <g id="line2d_91"/>
    <g id="text_22">
     <!-- Target KL: 0.5 - Train -->
     <g transform="translate(293.452812 281.826187)scale(0.1 -0.1)">
      <use xlink:href="#DejaVuSans-84"/>
      <use x="60.833984" xlink:href="#DejaVuSans-97"/>
      <use x="122.113281" xlink:href="#DejaVuSans-114"/>
      <use x="163.210938" xlink:href="#DejaVuSans-103"/>
      <use x="226.6875" xlink:href="#DejaVuSans-101"/>
      <use x="288.210938" xlink:href="#DejaVuSans-116"/>
      <use x="327.419922" xlink:href="#DejaVuSans-32"/>
      <use x="359.207031" xlink:href="#DejaVuSans-75"/>
      <use x="424.783203" xlink:href="#DejaVuSans-76"/>
      <use x="480.496094" xlink:href="#DejaVuSans-58"/>
      <use x="514.1875" xlink:href="#DejaVuSans-32"/>
      <use x="545.974609" xlink:href="#DejaVuSans-48"/>
      <use x="609.597656" xlink:href="#DejaVuSans-46"/>
      <use x="641.384766" xlink:href="#DejaVuSans-53"/>
      <use x="705.007812" xlink:href="#DejaVuSans-32"/>
      <use x="736.794922" xlink:href="#DejaVuSans-45"/>
      <use x="772.878906" xlink:href="#DejaVuSans-32"/>
      <use x="804.666016" xlink:href="#DejaVuSans-84"/>
      <use x="865.53125" xlink:href="#DejaVuSans-114"/>
      <use x="906.644531" xlink:href="#DejaVuSans-97"/>
      <use x="967.923828" xlink:href="#DejaVuSans-105"/>
      <use x="995.707031" xlink:href="#DejaVuSans-110"/>
     </g>
    </g>
    <g id="line2d_92">
     <path d="M 265.452812 293.004312 
L 285.452812 293.004312 
" style="fill:none;stroke:#d62728;stroke-linecap:square;stroke-width:1.5;"/>
    </g>
    <g id="line2d_93"/>
    <g id="text_23">
     <!-- Target KL: 0.5 - Test -->
     <g transform="translate(293.452812 296.504312)scale(0.1 -0.1)">
      <use xlink:href="#DejaVuSans-84"/>
      <use x="60.833984" xlink:href="#DejaVuSans-97"/>
      <use x="122.113281" xlink:href="#DejaVuSans-114"/>
      <use x="163.210938" xlink:href="#DejaVuSans-103"/>
      <use x="226.6875" xlink:href="#DejaVuSans-101"/>
      <use x="288.210938" xlink:href="#DejaVuSans-116"/>
      <use x="327.419922" xlink:href="#DejaVuSans-32"/>
      <use x="359.207031" xlink:href="#DejaVuSans-75"/>
      <use x="424.783203" xlink:href="#DejaVuSans-76"/>
      <use x="480.496094" xlink:href="#DejaVuSans-58"/>
      <use x="514.1875" xlink:href="#DejaVuSans-32"/>
      <use x="545.974609" xlink:href="#DejaVuSans-48"/>
      <use x="609.597656" xlink:href="#DejaVuSans-46"/>
      <use x="641.384766" xlink:href="#DejaVuSans-53"/>
      <use x="705.007812" xlink:href="#DejaVuSans-32"/>
      <use x="736.794922" xlink:href="#DejaVuSans-45"/>
      <use x="772.878906" xlink:href="#DejaVuSans-32"/>
      <use x="804.666016" xlink:href="#DejaVuSans-84"/>
      <use x="865.484375" xlink:href="#DejaVuSans-101"/>
      <use x="927.007812" xlink:href="#DejaVuSans-115"/>
      <use x="979.107422" xlink:href="#DejaVuSans-116"/>
     </g>
    </g>
   </g>
  </g>
 </g>
 <defs>
  <clipPath id="p6b1be18482">
   <rect height="266.112" width="357.12" x="57.6" y="41.472"/>
  </clipPath>
 </defs>
</svg>
