<?xml version="1.0" encoding="utf-8" standalone="no"?>
<!DOCTYPE svg PUBLIC "-//W3C//DTD SVG 1.1//EN"
  "http://www.w3.org/Graphics/SVG/1.1/DTD/svg11.dtd">
<!-- Created with matplotlib (https://matplotlib.org/) -->
<svg height="345.6pt" version="1.1" viewBox="0 0 460.8 345.6" width="460.8pt" xmlns="http://www.w3.org/2000/svg" xmlns:xlink="http://www.w3.org/1999/xlink">
 <defs>
  <style type="text/css">
*{stroke-linecap:butt;stroke-linejoin:round;}
  </style>
 </defs>
 <g id="figure_1">
  <g id="patch_1">
   <path d="M 0 345.6 
L 460.8 345.6 
L 460.8 0 
L 0 0 
z
" style="fill:#ffffff;"/>
  </g>
  <g id="axes_1">
   <g id="patch_2">
    <path d="M 57.6 307.584 
L 414.72 307.584 
L 414.72 41.472 
L 57.6 41.472 
z
" style="fill:#ffffff;"/>
   </g>
   <g id="PolyCollection_1">
    <defs>
     <path d="M 74.484593 -292.032 
L 74.484593 -200.704049 
L 75.783211 -185.664575 
L 77.081829 -194.029427 
L 78.380447 -176.073537 
L 79.679065 -174.314178 
L 80.977684 -171.918086 
L 82.276302 -166.491517 
L 83.57492 -158.132445 
L 84.873538 -160.857645 
L 86.172156 -156.945467 
L 87.470775 -157.208653 
L 88.769393 -155.95565 
L 90.068011 -152.228821 
L 91.366629 -152.297547 
L 92.665247 -153.478846 
L 93.963865 -155.44652 
L 95.262484 -151.762022 
L 96.561102 -151.648602 
L 97.85972 -155.870872 
L 99.158338 -152.724148 
L 100.456956 -151.083971 
L 101.755575 -156.122373 
L 103.054193 -158.877172 
L 104.352811 -153.731274 
L 105.651429 -158.961137 
L 106.950047 -157.808615 
L 108.248665 -164.010244 
L 109.547284 -170.944355 
L 110.845902 -158.375582 
L 112.14452 -155.955203 
L 113.443138 -155.295138 
L 114.741756 -149.573128 
L 116.040375 -149.427178 
L 117.338993 -150.524412 
L 118.637611 -146.168438 
L 119.936229 -145.771495 
L 121.234847 -149.18366 
L 122.533465 -150.041112 
L 123.832084 -149.095397 
L 125.130702 -147.328677 
L 126.42932 -148.0124 
L 127.727938 -151.071967 
L 129.026556 -145.152123 
L 130.325175 -143.548414 
L 131.623793 -145.782678 
L 132.922411 -146.807805 
L 134.221029 -156.519591 
L 135.519647 -158.777182 
L 136.818265 -162.023441 
L 138.116884 -164.699962 
L 138.799425 -175.10077 
L 138.799425 -200.36479 
L 138.799425 -200.36479 
L 138.116884 -211.245703 
L 136.818265 -219.649829 
L 135.519647 -213.9108 
L 134.221029 -205.675121 
L 132.922411 -214.645827 
L 131.623793 -198.980382 
L 130.325175 -206.529174 
L 129.026556 -190.305815 
L 127.727938 -208.165043 
L 126.42932 -189.645795 
L 125.130702 -186.548948 
L 123.832084 -194.475282 
L 122.533465 -184.339156 
L 121.234847 -191.637003 
L 119.936229 -185.295964 
L 118.637611 -207.184401 
L 117.338993 -218.442964 
L 116.040375 -202.253279 
L 114.741756 -193.988326 
L 113.443138 -199.879507 
L 112.14452 -197.516576 
L 110.845902 -223.152208 
L 109.547284 -230.713606 
L 108.248665 -236.045606 
L 106.950047 -208.493606 
L 105.651429 -201.23372 
L 104.352811 -194.878867 
L 103.054193 -207.363153 
L 101.755575 -186.355187 
L 100.456956 -186.612414 
L 99.158338 -187.87885 
L 97.85972 -187.553519 
L 96.561102 -188.486 
L 95.262484 -193.122476 
L 93.963865 -184.334437 
L 92.665247 -201.589273 
L 91.366629 -190.940995 
L 90.068011 -197.597601 
L 88.769393 -194.720859 
L 87.470775 -203.759693 
L 86.172156 -194.504851 
L 84.873538 -197.985453 
L 83.57492 -197.229551 
L 82.276302 -195.337281 
L 80.977684 -210.59592 
L 79.679065 -217.146324 
L 78.380447 -221.758379 
L 77.081829 -230.448921 
L 75.783211 -233.941456 
L 74.484593 -292.032 
z
" id="m7b67b9188d" style="stroke:#aec7e8;stroke-opacity:0.25;"/>
    </defs>
    <g clip-path="url(#p5b41138285)">
     <use style="fill:#aec7e8;fill-opacity:0.25;stroke:#aec7e8;stroke-opacity:0.25;" x="0" xlink:href="#m7b67b9188d" y="345.6"/>
    </g>
   </g>
   <g id="PolyCollection_2">
    <defs>
     <path d="M 77.081829 -272.578989 
L 77.081829 -150.613132 
L 83.57492 -130.871117 
L 90.068011 -122.538949 
L 96.561102 -104.787137 
L 103.054193 -94.019026 
L 109.547284 -86.538569 
L 116.040375 -76.215883 
L 122.533465 -74.420098 
L 129.026556 -72.804638 
L 135.519647 -70.307409 
L 142.012738 -64.847142 
L 148.505829 -64.436955 
L 154.99892 -60.899089 
L 161.492011 -56.833446 
L 167.985102 -62.013378 
L 174.478193 -61.638164 
L 180.971284 -59.213779 
L 187.464375 -62.517316 
L 193.957465 -60.615319 
L 200.450556 -59.822186 
L 206.943647 -55.484326 
L 213.436738 -52.359364 
L 219.929829 -52.193304 
L 226.42292 -58.220639 
L 232.916011 -53.975413 
L 239.409102 -55.074194 
L 245.902193 -56.269446 
L 252.395284 -53.311256 
L 258.888375 -55.744954 
L 265.381465 -54.58794 
L 271.874556 -50.47476 
L 278.367647 -56.213201 
L 284.860738 -54.116866 
L 291.353829 -50.112 
L 297.84692 -58.107154 
L 304.340011 -55.905482 
L 310.833102 -56.973918 
L 317.326193 -54.060331 
L 323.819284 -51.612285 
L 330.312375 -56.594585 
L 336.805465 -54.709526 
L 343.298556 -55.819312 
L 349.791647 -53.495649 
L 356.284738 -53.941451 
L 362.777829 -54.340917 
L 369.27092 -54.032073 
L 375.764011 -58.893444 
L 382.257102 -61.060129 
L 388.750193 -60.574127 
L 395.243284 -57.586787 
L 395.243284 -93.602635 
L 395.243284 -93.602635 
L 388.750193 -91.724169 
L 382.257102 -95.16776 
L 375.764011 -93.334623 
L 369.27092 -91.755207 
L 362.777829 -89.575798 
L 356.284738 -89.615063 
L 349.791647 -89.93683 
L 343.298556 -88.226715 
L 336.805465 -92.198184 
L 330.312375 -90.271227 
L 323.819284 -89.452498 
L 317.326193 -89.823072 
L 310.833102 -90.612326 
L 304.340011 -89.449132 
L 297.84692 -86.7143 
L 291.353829 -91.175546 
L 284.860738 -88.014981 
L 278.367647 -88.602276 
L 271.874556 -88.097517 
L 265.381465 -90.53802 
L 258.888375 -90.681115 
L 252.395284 -89.593833 
L 245.902193 -91.312964 
L 239.409102 -89.009864 
L 232.916011 -89.077551 
L 226.42292 -90.949927 
L 219.929829 -94.066854 
L 213.436738 -91.068359 
L 206.943647 -90.71276 
L 200.450556 -88.754561 
L 193.957465 -92.557869 
L 187.464375 -94.972488 
L 180.971284 -91.309138 
L 174.478193 -94.307485 
L 167.985102 -95.68596 
L 161.492011 -94.031047 
L 154.99892 -99.701592 
L 148.505829 -97.564496 
L 142.012738 -99.716615 
L 135.519647 -103.552058 
L 129.026556 -105.549798 
L 122.533465 -106.562491 
L 116.040375 -113.194008 
L 109.547284 -120.700941 
L 103.054193 -129.333142 
L 96.561102 -147.944993 
L 90.068011 -160.810473 
L 83.57492 -168.11305 
L 77.081829 -272.578989 
z
" id="m7e434ef8d3" style="stroke:#ffbb78;stroke-opacity:0.25;"/>
    </defs>
    <g clip-path="url(#p5b41138285)">
     <use style="fill:#ffbb78;fill-opacity:0.25;stroke:#ffbb78;stroke-opacity:0.25;" x="0" xlink:href="#m7e434ef8d3" y="345.6"/>
    </g>
   </g>
   <g id="PolyCollection_3">
    <defs>
     <path d="M 75.847119 -282.064285 
L 75.847119 -177.048037 
L 79.870791 -152.462494 
L 83.894462 -143.11216 
L 87.918133 -135.074638 
L 91.941804 -130.947598 
L 95.965476 -125.177487 
L 99.989147 -127.714981 
L 104.012818 -122.151105 
L 108.03649 -120.241112 
L 112.060161 -113.516164 
L 116.083832 -103.140817 
L 120.107504 -105.163553 
L 124.131175 -98.786566 
L 128.154846 -100.187706 
L 132.178517 -99.8981 
L 136.202189 -98.157785 
L 140.22586 -100.08122 
L 144.249531 -97.477546 
L 148.273203 -99.502454 
L 152.296874 -97.282812 
L 156.320545 -90.731936 
L 160.344216 -93.297608 
L 164.367888 -89.082189 
L 168.391559 -87.680968 
L 172.41523 -86.643602 
L 176.438902 -90.03868 
L 180.462573 -87.200029 
L 184.486244 -93.133498 
L 188.509916 -88.464089 
L 192.533587 -91.630029 
L 196.557258 -89.014788 
L 200.580929 -89.37533 
L 204.604601 -85.607331 
L 208.628272 -88.56483 
L 212.651943 -84.280924 
L 216.675615 -86.676379 
L 220.699286 -84.925294 
L 224.722957 -83.886994 
L 228.746628 -82.787755 
L 232.7703 -82.266275 
L 236.793971 -81.362345 
L 240.817642 -82.47556 
L 244.841314 -79.760267 
L 248.864985 -87.285412 
L 252.888656 -85.232632 
L 256.912328 -77.728673 
L 260.935999 -86.057833 
L 264.95967 -83.634285 
L 268.983341 -84.789687 
L 273.007013 -85.450024 
L 275.069975 -94.315321 
L 275.069975 -113.883389 
L 275.069975 -113.883389 
L 273.007013 -113.381645 
L 268.983341 -117.936804 
L 264.95967 -117.851819 
L 260.935999 -120.336671 
L 256.912328 -119.618531 
L 252.888656 -122.661645 
L 248.864985 -116.94142 
L 244.841314 -121.521856 
L 240.817642 -113.664869 
L 236.793971 -115.7553 
L 232.7703 -116.712287 
L 228.746628 -113.668343 
L 224.722957 -115.015992 
L 220.699286 -117.480239 
L 216.675615 -117.667822 
L 212.651943 -124.469108 
L 208.628272 -118.360357 
L 204.604601 -121.797427 
L 200.580929 -118.802899 
L 196.557258 -120.984919 
L 192.533587 -122.297015 
L 188.509916 -129.469062 
L 184.486244 -124.992337 
L 180.462573 -121.726609 
L 176.438902 -121.956353 
L 172.41523 -123.741489 
L 168.391559 -121.806717 
L 164.367888 -120.522525 
L 160.344216 -124.168209 
L 156.320545 -124.596697 
L 152.296874 -130.093747 
L 148.273203 -133.129252 
L 144.249531 -131.175459 
L 140.22586 -140.929352 
L 136.202189 -128.192464 
L 132.178517 -129.49583 
L 128.154846 -130.424739 
L 124.131175 -133.801002 
L 120.107504 -134.258501 
L 116.083832 -141.416751 
L 112.060161 -144.784386 
L 108.03649 -150.932377 
L 104.012818 -157.10131 
L 99.989147 -162.005392 
L 95.965476 -162.140448 
L 91.941804 -158.653804 
L 87.918133 -165.781449 
L 83.894462 -179.747978 
L 79.870791 -197.304774 
L 75.847119 -282.064285 
z
" id="mf8353830ce" style="stroke:#98df8a;stroke-opacity:0.25;"/>
    </defs>
    <g clip-path="url(#p5b41138285)">
     <use style="fill:#98df8a;fill-opacity:0.25;stroke:#98df8a;stroke-opacity:0.25;" x="0" xlink:href="#mf8353830ce" y="345.6"/>
    </g>
   </g>
   <g id="PolyCollection_4">
    <defs>
     <path d="M 75.568479 -269.107674 
L 75.568479 -190.134383 
L 79.034869 -151.142786 
L 82.501259 -136.704522 
L 85.96765 -136.587098 
L 89.43404 -128.9287 
L 92.90043 -125.394817 
L 96.36682 -130.790095 
L 99.833211 -128.22152 
L 103.299601 -118.404609 
L 106.765991 -116.662137 
L 110.232381 -109.054597 
L 113.698772 -108.834536 
L 117.165162 -100.826123 
L 120.631552 -102.446375 
L 124.097942 -102.654729 
L 127.564333 -100.480868 
L 131.030723 -98.0461 
L 134.497113 -87.432211 
L 137.963504 -92.820055 
L 141.429894 -90.040731 
L 144.896284 -89.735719 
L 148.362674 -87.80045 
L 151.829065 -87.795558 
L 155.295455 -82.924536 
L 158.761845 -85.245557 
L 162.228235 -84.867465 
L 165.694626 -81.549024 
L 169.161016 -73.94143 
L 172.627406 -80.661265 
L 176.093796 -81.518016 
L 179.560187 -75.201056 
L 183.026577 -76.761741 
L 186.492967 -71.376289 
L 189.959357 -68.572831 
L 193.425748 -70.357423 
L 196.892138 -72.563068 
L 200.358528 -72.572485 
L 203.824919 -73.205666 
L 207.291309 -71.160756 
L 210.757699 -72.600693 
L 214.224089 -71.565084 
L 217.69048 -68.711894 
L 221.15687 -73.002283 
L 224.62326 -72.214906 
L 228.08965 -65.66632 
L 231.556041 -70.186321 
L 235.022431 -68.676564 
L 238.488821 -65.292337 
L 241.955211 -65.008364 
L 245.421602 -64.404299 
L 247.18036 -72.533518 
L 247.18036 -88.498238 
L 247.18036 -88.498238 
L 245.421602 -91.842166 
L 241.955211 -94.373746 
L 238.488821 -100.945031 
L 235.022431 -102.350926 
L 231.556041 -101.87921 
L 228.08965 -100.707329 
L 224.62326 -102.063763 
L 221.15687 -102.989767 
L 217.69048 -100.949144 
L 214.224089 -107.392762 
L 210.757699 -101.237217 
L 207.291309 -106.278078 
L 203.824919 -106.550351 
L 200.358528 -104.896212 
L 196.892138 -100.011038 
L 193.425748 -98.430965 
L 189.959357 -102.147924 
L 186.492967 -102.892797 
L 183.026577 -105.192998 
L 179.560187 -108.198117 
L 176.093796 -108.516416 
L 172.627406 -111.043252 
L 169.161016 -108.196913 
L 165.694626 -112.972899 
L 162.228235 -112.164855 
L 158.761845 -111.682193 
L 155.295455 -110.423652 
L 151.829065 -115.518662 
L 148.362674 -117.250469 
L 144.896284 -116.929673 
L 141.429894 -120.341976 
L 137.963504 -119.964634 
L 134.497113 -123.532438 
L 131.030723 -124.346514 
L 127.564333 -129.829354 
L 124.097942 -130.893437 
L 120.631552 -130.373817 
L 117.165162 -133.187906 
L 113.698772 -136.371136 
L 110.232381 -139.455027 
L 106.765991 -147.974991 
L 103.299601 -154.197791 
L 99.833211 -155.876835 
L 96.36682 -164.553795 
L 92.90043 -157.913429 
L 89.43404 -162.76875 
L 85.96765 -175.964421 
L 82.501259 -180.778675 
L 79.034869 -207.327974 
L 75.568479 -269.107674 
z
" id="m5bcb5d75a3" style="stroke:#ff9896;stroke-opacity:0.25;"/>
    </defs>
    <g clip-path="url(#p5b41138285)">
     <use style="fill:#ff9896;fill-opacity:0.25;stroke:#ff9896;stroke-opacity:0.25;" x="0" xlink:href="#m5bcb5d75a3" y="345.6"/>
    </g>
   </g>
   <g id="matplotlib.axis_1">
    <g id="xtick_1">
     <g id="line2d_1">
      <path clip-path="url(#p5b41138285)" d="M 73.832727 307.584 
L 73.832727 41.472 
" style="fill:none;stroke:#b0b0b0;stroke-linecap:square;stroke-width:0.8;"/>
     </g>
     <g id="line2d_2">
      <defs>
       <path d="M 0 0 
L 0 3.5 
" id="m7a08b55a79" style="stroke:#000000;stroke-width:0.8;"/>
      </defs>
      <g>
       <use style="stroke:#000000;stroke-width:0.8;" x="73.832727" xlink:href="#m7a08b55a79" y="307.584"/>
      </g>
     </g>
     <g id="text_1">
      <!-- 0 -->
      <defs>
       <path d="M 31.78125 66.40625 
Q 24.171875 66.40625 20.328125 58.90625 
Q 16.5 51.421875 16.5 36.375 
Q 16.5 21.390625 20.328125 13.890625 
Q 24.171875 6.390625 31.78125 6.390625 
Q 39.453125 6.390625 43.28125 13.890625 
Q 47.125 21.390625 47.125 36.375 
Q 47.125 51.421875 43.28125 58.90625 
Q 39.453125 66.40625 31.78125 66.40625 
z
M 31.78125 74.21875 
Q 44.046875 74.21875 50.515625 64.515625 
Q 56.984375 54.828125 56.984375 36.375 
Q 56.984375 17.96875 50.515625 8.265625 
Q 44.046875 -1.421875 31.78125 -1.421875 
Q 19.53125 -1.421875 13.0625 8.265625 
Q 6.59375 17.96875 6.59375 36.375 
Q 6.59375 54.828125 13.0625 64.515625 
Q 19.53125 74.21875 31.78125 74.21875 
z
" id="DejaVuSans-48"/>
      </defs>
      <g transform="translate(70.651477 322.182437)scale(0.1 -0.1)">
       <use xlink:href="#DejaVuSans-48"/>
      </g>
     </g>
    </g>
    <g id="xtick_2">
     <g id="line2d_3">
      <path clip-path="url(#p5b41138285)" d="M 124.959427 307.584 
L 124.959427 41.472 
" style="fill:none;stroke:#b0b0b0;stroke-linecap:square;stroke-width:0.8;"/>
     </g>
     <g id="line2d_4">
      <g>
       <use style="stroke:#000000;stroke-width:0.8;" x="124.959427" xlink:href="#m7a08b55a79" y="307.584"/>
      </g>
     </g>
     <g id="text_2">
      <!-- 10000 -->
      <defs>
       <path d="M 12.40625 8.296875 
L 28.515625 8.296875 
L 28.515625 63.921875 
L 10.984375 60.40625 
L 10.984375 69.390625 
L 28.421875 72.90625 
L 38.28125 72.90625 
L 38.28125 8.296875 
L 54.390625 8.296875 
L 54.390625 0 
L 12.40625 0 
z
" id="DejaVuSans-49"/>
      </defs>
      <g transform="translate(109.053177 322.182437)scale(0.1 -0.1)">
       <use xlink:href="#DejaVuSans-49"/>
       <use x="63.623047" xlink:href="#DejaVuSans-48"/>
       <use x="127.246094" xlink:href="#DejaVuSans-48"/>
       <use x="190.869141" xlink:href="#DejaVuSans-48"/>
       <use x="254.492188" xlink:href="#DejaVuSans-48"/>
      </g>
     </g>
    </g>
    <g id="xtick_3">
     <g id="line2d_5">
      <path clip-path="url(#p5b41138285)" d="M 176.086127 307.584 
L 176.086127 41.472 
" style="fill:none;stroke:#b0b0b0;stroke-linecap:square;stroke-width:0.8;"/>
     </g>
     <g id="line2d_6">
      <g>
       <use style="stroke:#000000;stroke-width:0.8;" x="176.086127" xlink:href="#m7a08b55a79" y="307.584"/>
      </g>
     </g>
     <g id="text_3">
      <!-- 20000 -->
      <defs>
       <path d="M 19.1875 8.296875 
L 53.609375 8.296875 
L 53.609375 0 
L 7.328125 0 
L 7.328125 8.296875 
Q 12.9375 14.109375 22.625 23.890625 
Q 32.328125 33.6875 34.8125 36.53125 
Q 39.546875 41.84375 41.421875 45.53125 
Q 43.3125 49.21875 43.3125 52.78125 
Q 43.3125 58.59375 39.234375 62.25 
Q 35.15625 65.921875 28.609375 65.921875 
Q 23.96875 65.921875 18.8125 64.3125 
Q 13.671875 62.703125 7.8125 59.421875 
L 7.8125 69.390625 
Q 13.765625 71.78125 18.9375 73 
Q 24.125 74.21875 28.421875 74.21875 
Q 39.75 74.21875 46.484375 68.546875 
Q 53.21875 62.890625 53.21875 53.421875 
Q 53.21875 48.921875 51.53125 44.890625 
Q 49.859375 40.875 45.40625 35.40625 
Q 44.1875 33.984375 37.640625 27.21875 
Q 31.109375 20.453125 19.1875 8.296875 
z
" id="DejaVuSans-50"/>
      </defs>
      <g transform="translate(160.179877 322.182437)scale(0.1 -0.1)">
       <use xlink:href="#DejaVuSans-50"/>
       <use x="63.623047" xlink:href="#DejaVuSans-48"/>
       <use x="127.246094" xlink:href="#DejaVuSans-48"/>
       <use x="190.869141" xlink:href="#DejaVuSans-48"/>
       <use x="254.492188" xlink:href="#DejaVuSans-48"/>
      </g>
     </g>
    </g>
    <g id="xtick_4">
     <g id="line2d_7">
      <path clip-path="url(#p5b41138285)" d="M 227.212827 307.584 
L 227.212827 41.472 
" style="fill:none;stroke:#b0b0b0;stroke-linecap:square;stroke-width:0.8;"/>
     </g>
     <g id="line2d_8">
      <g>
       <use style="stroke:#000000;stroke-width:0.8;" x="227.212827" xlink:href="#m7a08b55a79" y="307.584"/>
      </g>
     </g>
     <g id="text_4">
      <!-- 30000 -->
      <defs>
       <path d="M 40.578125 39.3125 
Q 47.65625 37.796875 51.625 33 
Q 55.609375 28.21875 55.609375 21.1875 
Q 55.609375 10.40625 48.1875 4.484375 
Q 40.765625 -1.421875 27.09375 -1.421875 
Q 22.515625 -1.421875 17.65625 -0.515625 
Q 12.796875 0.390625 7.625 2.203125 
L 7.625 11.71875 
Q 11.71875 9.328125 16.59375 8.109375 
Q 21.484375 6.890625 26.8125 6.890625 
Q 36.078125 6.890625 40.9375 10.546875 
Q 45.796875 14.203125 45.796875 21.1875 
Q 45.796875 27.640625 41.28125 31.265625 
Q 36.765625 34.90625 28.71875 34.90625 
L 20.21875 34.90625 
L 20.21875 43.015625 
L 29.109375 43.015625 
Q 36.375 43.015625 40.234375 45.921875 
Q 44.09375 48.828125 44.09375 54.296875 
Q 44.09375 59.90625 40.109375 62.90625 
Q 36.140625 65.921875 28.71875 65.921875 
Q 24.65625 65.921875 20.015625 65.03125 
Q 15.375 64.15625 9.8125 62.3125 
L 9.8125 71.09375 
Q 15.4375 72.65625 20.34375 73.4375 
Q 25.25 74.21875 29.59375 74.21875 
Q 40.828125 74.21875 47.359375 69.109375 
Q 53.90625 64.015625 53.90625 55.328125 
Q 53.90625 49.265625 50.4375 45.09375 
Q 46.96875 40.921875 40.578125 39.3125 
z
" id="DejaVuSans-51"/>
      </defs>
      <g transform="translate(211.306577 322.182437)scale(0.1 -0.1)">
       <use xlink:href="#DejaVuSans-51"/>
       <use x="63.623047" xlink:href="#DejaVuSans-48"/>
       <use x="127.246094" xlink:href="#DejaVuSans-48"/>
       <use x="190.869141" xlink:href="#DejaVuSans-48"/>
       <use x="254.492188" xlink:href="#DejaVuSans-48"/>
      </g>
     </g>
    </g>
    <g id="xtick_5">
     <g id="line2d_9">
      <path clip-path="url(#p5b41138285)" d="M 278.339528 307.584 
L 278.339528 41.472 
" style="fill:none;stroke:#b0b0b0;stroke-linecap:square;stroke-width:0.8;"/>
     </g>
     <g id="line2d_10">
      <g>
       <use style="stroke:#000000;stroke-width:0.8;" x="278.339528" xlink:href="#m7a08b55a79" y="307.584"/>
      </g>
     </g>
     <g id="text_5">
      <!-- 40000 -->
      <defs>
       <path d="M 37.796875 64.3125 
L 12.890625 25.390625 
L 37.796875 25.390625 
z
M 35.203125 72.90625 
L 47.609375 72.90625 
L 47.609375 25.390625 
L 58.015625 25.390625 
L 58.015625 17.1875 
L 47.609375 17.1875 
L 47.609375 0 
L 37.796875 0 
L 37.796875 17.1875 
L 4.890625 17.1875 
L 4.890625 26.703125 
z
" id="DejaVuSans-52"/>
      </defs>
      <g transform="translate(262.433278 322.182437)scale(0.1 -0.1)">
       <use xlink:href="#DejaVuSans-52"/>
       <use x="63.623047" xlink:href="#DejaVuSans-48"/>
       <use x="127.246094" xlink:href="#DejaVuSans-48"/>
       <use x="190.869141" xlink:href="#DejaVuSans-48"/>
       <use x="254.492188" xlink:href="#DejaVuSans-48"/>
      </g>
     </g>
    </g>
    <g id="xtick_6">
     <g id="line2d_11">
      <path clip-path="url(#p5b41138285)" d="M 329.466228 307.584 
L 329.466228 41.472 
" style="fill:none;stroke:#b0b0b0;stroke-linecap:square;stroke-width:0.8;"/>
     </g>
     <g id="line2d_12">
      <g>
       <use style="stroke:#000000;stroke-width:0.8;" x="329.466228" xlink:href="#m7a08b55a79" y="307.584"/>
      </g>
     </g>
     <g id="text_6">
      <!-- 50000 -->
      <defs>
       <path d="M 10.796875 72.90625 
L 49.515625 72.90625 
L 49.515625 64.59375 
L 19.828125 64.59375 
L 19.828125 46.734375 
Q 21.96875 47.46875 24.109375 47.828125 
Q 26.265625 48.1875 28.421875 48.1875 
Q 40.625 48.1875 47.75 41.5 
Q 54.890625 34.8125 54.890625 23.390625 
Q 54.890625 11.625 47.5625 5.09375 
Q 40.234375 -1.421875 26.90625 -1.421875 
Q 22.3125 -1.421875 17.546875 -0.640625 
Q 12.796875 0.140625 7.71875 1.703125 
L 7.71875 11.625 
Q 12.109375 9.234375 16.796875 8.0625 
Q 21.484375 6.890625 26.703125 6.890625 
Q 35.15625 6.890625 40.078125 11.328125 
Q 45.015625 15.765625 45.015625 23.390625 
Q 45.015625 31 40.078125 35.4375 
Q 35.15625 39.890625 26.703125 39.890625 
Q 22.75 39.890625 18.8125 39.015625 
Q 14.890625 38.140625 10.796875 36.28125 
z
" id="DejaVuSans-53"/>
      </defs>
      <g transform="translate(313.559978 322.182437)scale(0.1 -0.1)">
       <use xlink:href="#DejaVuSans-53"/>
       <use x="63.623047" xlink:href="#DejaVuSans-48"/>
       <use x="127.246094" xlink:href="#DejaVuSans-48"/>
       <use x="190.869141" xlink:href="#DejaVuSans-48"/>
       <use x="254.492188" xlink:href="#DejaVuSans-48"/>
      </g>
     </g>
    </g>
    <g id="xtick_7">
     <g id="line2d_13">
      <path clip-path="url(#p5b41138285)" d="M 380.592928 307.584 
L 380.592928 41.472 
" style="fill:none;stroke:#b0b0b0;stroke-linecap:square;stroke-width:0.8;"/>
     </g>
     <g id="line2d_14">
      <g>
       <use style="stroke:#000000;stroke-width:0.8;" x="380.592928" xlink:href="#m7a08b55a79" y="307.584"/>
      </g>
     </g>
     <g id="text_7">
      <!-- 60000 -->
      <defs>
       <path d="M 33.015625 40.375 
Q 26.375 40.375 22.484375 35.828125 
Q 18.609375 31.296875 18.609375 23.390625 
Q 18.609375 15.53125 22.484375 10.953125 
Q 26.375 6.390625 33.015625 6.390625 
Q 39.65625 6.390625 43.53125 10.953125 
Q 47.40625 15.53125 47.40625 23.390625 
Q 47.40625 31.296875 43.53125 35.828125 
Q 39.65625 40.375 33.015625 40.375 
z
M 52.59375 71.296875 
L 52.59375 62.3125 
Q 48.875 64.0625 45.09375 64.984375 
Q 41.3125 65.921875 37.59375 65.921875 
Q 27.828125 65.921875 22.671875 59.328125 
Q 17.53125 52.734375 16.796875 39.40625 
Q 19.671875 43.65625 24.015625 45.921875 
Q 28.375 48.1875 33.59375 48.1875 
Q 44.578125 48.1875 50.953125 41.515625 
Q 57.328125 34.859375 57.328125 23.390625 
Q 57.328125 12.15625 50.6875 5.359375 
Q 44.046875 -1.421875 33.015625 -1.421875 
Q 20.359375 -1.421875 13.671875 8.265625 
Q 6.984375 17.96875 6.984375 36.375 
Q 6.984375 53.65625 15.1875 63.9375 
Q 23.390625 74.21875 37.203125 74.21875 
Q 40.921875 74.21875 44.703125 73.484375 
Q 48.484375 72.75 52.59375 71.296875 
z
" id="DejaVuSans-54"/>
      </defs>
      <g transform="translate(364.686678 322.182437)scale(0.1 -0.1)">
       <use xlink:href="#DejaVuSans-54"/>
       <use x="63.623047" xlink:href="#DejaVuSans-48"/>
       <use x="127.246094" xlink:href="#DejaVuSans-48"/>
       <use x="190.869141" xlink:href="#DejaVuSans-48"/>
       <use x="254.492188" xlink:href="#DejaVuSans-48"/>
      </g>
     </g>
    </g>
    <g id="text_8">
     <!-- Steps -->
     <defs>
      <path d="M 53.515625 70.515625 
L 53.515625 60.890625 
Q 47.90625 63.578125 42.921875 64.890625 
Q 37.9375 66.21875 33.296875 66.21875 
Q 25.25 66.21875 20.875 63.09375 
Q 16.5 59.96875 16.5 54.203125 
Q 16.5 49.359375 19.40625 46.890625 
Q 22.3125 44.4375 30.421875 42.921875 
L 36.375 41.703125 
Q 47.40625 39.59375 52.65625 34.296875 
Q 57.90625 29 57.90625 20.125 
Q 57.90625 9.515625 50.796875 4.046875 
Q 43.703125 -1.421875 29.984375 -1.421875 
Q 24.8125 -1.421875 18.96875 -0.25 
Q 13.140625 0.921875 6.890625 3.21875 
L 6.890625 13.375 
Q 12.890625 10.015625 18.65625 8.296875 
Q 24.421875 6.59375 29.984375 6.59375 
Q 38.421875 6.59375 43.015625 9.90625 
Q 47.609375 13.234375 47.609375 19.390625 
Q 47.609375 24.75 44.3125 27.78125 
Q 41.015625 30.8125 33.5 32.328125 
L 27.484375 33.5 
Q 16.453125 35.6875 11.515625 40.375 
Q 6.59375 45.0625 6.59375 53.421875 
Q 6.59375 63.09375 13.40625 68.65625 
Q 20.21875 74.21875 32.171875 74.21875 
Q 37.3125 74.21875 42.625 73.28125 
Q 47.953125 72.359375 53.515625 70.515625 
z
" id="DejaVuSans-83"/>
      <path d="M 18.3125 70.21875 
L 18.3125 54.6875 
L 36.8125 54.6875 
L 36.8125 47.703125 
L 18.3125 47.703125 
L 18.3125 18.015625 
Q 18.3125 11.328125 20.140625 9.421875 
Q 21.96875 7.515625 27.59375 7.515625 
L 36.8125 7.515625 
L 36.8125 0 
L 27.59375 0 
Q 17.1875 0 13.234375 3.875 
Q 9.28125 7.765625 9.28125 18.015625 
L 9.28125 47.703125 
L 2.6875 47.703125 
L 2.6875 54.6875 
L 9.28125 54.6875 
L 9.28125 70.21875 
z
" id="DejaVuSans-116"/>
      <path d="M 56.203125 29.59375 
L 56.203125 25.203125 
L 14.890625 25.203125 
Q 15.484375 15.921875 20.484375 11.0625 
Q 25.484375 6.203125 34.421875 6.203125 
Q 39.59375 6.203125 44.453125 7.46875 
Q 49.3125 8.734375 54.109375 11.28125 
L 54.109375 2.78125 
Q 49.265625 0.734375 44.1875 -0.34375 
Q 39.109375 -1.421875 33.890625 -1.421875 
Q 20.796875 -1.421875 13.15625 6.1875 
Q 5.515625 13.8125 5.515625 26.8125 
Q 5.515625 40.234375 12.765625 48.109375 
Q 20.015625 56 32.328125 56 
Q 43.359375 56 49.78125 48.890625 
Q 56.203125 41.796875 56.203125 29.59375 
z
M 47.21875 32.234375 
Q 47.125 39.59375 43.09375 43.984375 
Q 39.0625 48.390625 32.421875 48.390625 
Q 24.90625 48.390625 20.390625 44.140625 
Q 15.875 39.890625 15.1875 32.171875 
z
" id="DejaVuSans-101"/>
      <path d="M 18.109375 8.203125 
L 18.109375 -20.796875 
L 9.078125 -20.796875 
L 9.078125 54.6875 
L 18.109375 54.6875 
L 18.109375 46.390625 
Q 20.953125 51.265625 25.265625 53.625 
Q 29.59375 56 35.59375 56 
Q 45.5625 56 51.78125 48.09375 
Q 58.015625 40.1875 58.015625 27.296875 
Q 58.015625 14.40625 51.78125 6.484375 
Q 45.5625 -1.421875 35.59375 -1.421875 
Q 29.59375 -1.421875 25.265625 0.953125 
Q 20.953125 3.328125 18.109375 8.203125 
z
M 48.6875 27.296875 
Q 48.6875 37.203125 44.609375 42.84375 
Q 40.53125 48.484375 33.40625 48.484375 
Q 26.265625 48.484375 22.1875 42.84375 
Q 18.109375 37.203125 18.109375 27.296875 
Q 18.109375 17.390625 22.1875 11.75 
Q 26.265625 6.109375 33.40625 6.109375 
Q 40.53125 6.109375 44.609375 11.75 
Q 48.6875 17.390625 48.6875 27.296875 
z
" id="DejaVuSans-112"/>
      <path d="M 44.28125 53.078125 
L 44.28125 44.578125 
Q 40.484375 46.53125 36.375 47.5 
Q 32.28125 48.484375 27.875 48.484375 
Q 21.1875 48.484375 17.84375 46.4375 
Q 14.5 44.390625 14.5 40.28125 
Q 14.5 37.15625 16.890625 35.375 
Q 19.28125 33.59375 26.515625 31.984375 
L 29.59375 31.296875 
Q 39.15625 29.25 43.1875 25.515625 
Q 47.21875 21.78125 47.21875 15.09375 
Q 47.21875 7.46875 41.1875 3.015625 
Q 35.15625 -1.421875 24.609375 -1.421875 
Q 20.21875 -1.421875 15.453125 -0.5625 
Q 10.6875 0.296875 5.421875 2 
L 5.421875 11.28125 
Q 10.40625 8.6875 15.234375 7.390625 
Q 20.0625 6.109375 24.8125 6.109375 
Q 31.15625 6.109375 34.5625 8.28125 
Q 37.984375 10.453125 37.984375 14.40625 
Q 37.984375 18.0625 35.515625 20.015625 
Q 33.0625 21.96875 24.703125 23.78125 
L 21.578125 24.515625 
Q 13.234375 26.265625 9.515625 29.90625 
Q 5.8125 33.546875 5.8125 39.890625 
Q 5.8125 47.609375 11.28125 51.796875 
Q 16.75 56 26.8125 56 
Q 31.78125 56 36.171875 55.265625 
Q 40.578125 54.546875 44.28125 53.078125 
z
" id="DejaVuSans-115"/>
     </defs>
     <g transform="translate(222.170156 335.860562)scale(0.1 -0.1)">
      <use xlink:href="#DejaVuSans-83"/>
      <use x="63.476562" xlink:href="#DejaVuSans-116"/>
      <use x="102.685547" xlink:href="#DejaVuSans-101"/>
      <use x="164.208984" xlink:href="#DejaVuSans-112"/>
      <use x="227.685547" xlink:href="#DejaVuSans-115"/>
     </g>
    </g>
   </g>
   <g id="matplotlib.axis_2">
    <g id="ytick_1">
     <g id="line2d_15">
      <path clip-path="url(#p5b41138285)" d="M 57.6 266.54166 
L 414.72 266.54166 
" style="fill:none;stroke:#b0b0b0;stroke-linecap:square;stroke-width:0.8;"/>
     </g>
     <g id="line2d_16">
      <defs>
       <path d="M 0 0 
L -3.5 0 
" id="m040124b2f0" style="stroke:#000000;stroke-width:0.8;"/>
      </defs>
      <g>
       <use style="stroke:#000000;stroke-width:0.8;" x="57.6" xlink:href="#m040124b2f0" y="266.54166"/>
      </g>
     </g>
     <g id="text_9">
      <!-- $\mathdefault{10^{-1}}$ -->
      <defs>
       <path d="M 10.59375 35.5 
L 73.1875 35.5 
L 73.1875 27.203125 
L 10.59375 27.203125 
z
" id="DejaVuSans-8722"/>
      </defs>
      <g transform="translate(27.1 270.340878)scale(0.1 -0.1)">
       <use transform="translate(0 0.684375)" xlink:href="#DejaVuSans-49"/>
       <use transform="translate(63.623047 0.684375)" xlink:href="#DejaVuSans-48"/>
       <use transform="translate(128.203125 38.965625)scale(0.7)" xlink:href="#DejaVuSans-8722"/>
       <use transform="translate(186.855469 38.965625)scale(0.7)" xlink:href="#DejaVuSans-49"/>
      </g>
     </g>
    </g>
    <g id="ytick_2">
     <g id="line2d_17">
      <path clip-path="url(#p5b41138285)" d="M 57.6 51.223578 
L 414.72 51.223578 
" style="fill:none;stroke:#b0b0b0;stroke-linecap:square;stroke-width:0.8;"/>
     </g>
     <g id="line2d_18">
      <g>
       <use style="stroke:#000000;stroke-width:0.8;" x="57.6" xlink:href="#m040124b2f0" y="51.223578"/>
      </g>
     </g>
     <g id="text_10">
      <!-- $\mathdefault{10^{0}}$ -->
      <g transform="translate(33 55.022797)scale(0.1 -0.1)">
       <use transform="translate(0 0.765625)" xlink:href="#DejaVuSans-49"/>
       <use transform="translate(63.623047 0.765625)" xlink:href="#DejaVuSans-48"/>
       <use transform="translate(128.203125 39.046875)scale(0.7)" xlink:href="#DejaVuSans-48"/>
      </g>
     </g>
    </g>
    <g id="ytick_3">
     <g id="line2d_19">
      <defs>
       <path d="M 0 0 
L -2 0 
" id="mbb287164c1" style="stroke:#000000;stroke-width:0.6;"/>
      </defs>
      <g>
       <use style="stroke:#000000;stroke-width:0.6;" x="57.6" xlink:href="#mbb287164c1" y="299.894852"/>
      </g>
     </g>
    </g>
    <g id="ytick_4">
     <g id="line2d_20">
      <g>
       <use style="stroke:#000000;stroke-width:0.6;" x="57.6" xlink:href="#mbb287164c1" y="287.408138"/>
      </g>
     </g>
    </g>
    <g id="ytick_5">
     <g id="line2d_21">
      <g>
       <use style="stroke:#000000;stroke-width:0.6;" x="57.6" xlink:href="#mbb287164c1" y="276.394075"/>
      </g>
     </g>
    </g>
    <g id="ytick_6">
     <g id="line2d_22">
      <g>
       <use style="stroke:#000000;stroke-width:0.6;" x="57.6" xlink:href="#mbb287164c1" y="201.724458"/>
      </g>
     </g>
    </g>
    <g id="ytick_7">
     <g id="line2d_23">
      <g>
       <use style="stroke:#000000;stroke-width:0.6;" x="57.6" xlink:href="#mbb287164c1" y="163.808826"/>
      </g>
     </g>
    </g>
    <g id="ytick_8">
     <g id="line2d_24">
      <g>
       <use style="stroke:#000000;stroke-width:0.6;" x="57.6" xlink:href="#mbb287164c1" y="136.907257"/>
      </g>
     </g>
    </g>
    <g id="ytick_9">
     <g id="line2d_25">
      <g>
       <use style="stroke:#000000;stroke-width:0.6;" x="57.6" xlink:href="#mbb287164c1" y="116.040779"/>
      </g>
     </g>
    </g>
    <g id="ytick_10">
     <g id="line2d_26">
      <g>
       <use style="stroke:#000000;stroke-width:0.6;" x="57.6" xlink:href="#mbb287164c1" y="98.991625"/>
      </g>
     </g>
    </g>
    <g id="ytick_11">
     <g id="line2d_27">
      <g>
       <use style="stroke:#000000;stroke-width:0.6;" x="57.6" xlink:href="#mbb287164c1" y="84.576771"/>
      </g>
     </g>
    </g>
    <g id="ytick_12">
     <g id="line2d_28">
      <g>
       <use style="stroke:#000000;stroke-width:0.6;" x="57.6" xlink:href="#mbb287164c1" y="72.090056"/>
      </g>
     </g>
    </g>
    <g id="ytick_13">
     <g id="line2d_29">
      <g>
       <use style="stroke:#000000;stroke-width:0.6;" x="57.6" xlink:href="#mbb287164c1" y="61.075993"/>
      </g>
     </g>
    </g>
    <g id="text_11">
     <!-- Pixel Error -->
     <defs>
      <path d="M 19.671875 64.796875 
L 19.671875 37.40625 
L 32.078125 37.40625 
Q 38.96875 37.40625 42.71875 40.96875 
Q 46.484375 44.53125 46.484375 51.125 
Q 46.484375 57.671875 42.71875 61.234375 
Q 38.96875 64.796875 32.078125 64.796875 
z
M 9.8125 72.90625 
L 32.078125 72.90625 
Q 44.34375 72.90625 50.609375 67.359375 
Q 56.890625 61.8125 56.890625 51.125 
Q 56.890625 40.328125 50.609375 34.8125 
Q 44.34375 29.296875 32.078125 29.296875 
L 19.671875 29.296875 
L 19.671875 0 
L 9.8125 0 
z
" id="DejaVuSans-80"/>
      <path d="M 9.421875 54.6875 
L 18.40625 54.6875 
L 18.40625 0 
L 9.421875 0 
z
M 9.421875 75.984375 
L 18.40625 75.984375 
L 18.40625 64.59375 
L 9.421875 64.59375 
z
" id="DejaVuSans-105"/>
      <path d="M 54.890625 54.6875 
L 35.109375 28.078125 
L 55.90625 0 
L 45.3125 0 
L 29.390625 21.484375 
L 13.484375 0 
L 2.875 0 
L 24.125 28.609375 
L 4.6875 54.6875 
L 15.28125 54.6875 
L 29.78125 35.203125 
L 44.28125 54.6875 
z
" id="DejaVuSans-120"/>
      <path d="M 9.421875 75.984375 
L 18.40625 75.984375 
L 18.40625 0 
L 9.421875 0 
z
" id="DejaVuSans-108"/>
      <path id="DejaVuSans-32"/>
      <path d="M 9.8125 72.90625 
L 55.90625 72.90625 
L 55.90625 64.59375 
L 19.671875 64.59375 
L 19.671875 43.015625 
L 54.390625 43.015625 
L 54.390625 34.71875 
L 19.671875 34.71875 
L 19.671875 8.296875 
L 56.78125 8.296875 
L 56.78125 0 
L 9.8125 0 
z
" id="DejaVuSans-69"/>
      <path d="M 41.109375 46.296875 
Q 39.59375 47.171875 37.8125 47.578125 
Q 36.03125 48 33.890625 48 
Q 26.265625 48 22.1875 43.046875 
Q 18.109375 38.09375 18.109375 28.8125 
L 18.109375 0 
L 9.078125 0 
L 9.078125 54.6875 
L 18.109375 54.6875 
L 18.109375 46.1875 
Q 20.953125 51.171875 25.484375 53.578125 
Q 30.03125 56 36.53125 56 
Q 37.453125 56 38.578125 55.875 
Q 39.703125 55.765625 41.0625 55.515625 
z
" id="DejaVuSans-114"/>
      <path d="M 30.609375 48.390625 
Q 23.390625 48.390625 19.1875 42.75 
Q 14.984375 37.109375 14.984375 27.296875 
Q 14.984375 17.484375 19.15625 11.84375 
Q 23.34375 6.203125 30.609375 6.203125 
Q 37.796875 6.203125 41.984375 11.859375 
Q 46.1875 17.53125 46.1875 27.296875 
Q 46.1875 37.015625 41.984375 42.703125 
Q 37.796875 48.390625 30.609375 48.390625 
z
M 30.609375 56 
Q 42.328125 56 49.015625 48.375 
Q 55.71875 40.765625 55.71875 27.296875 
Q 55.71875 13.875 49.015625 6.21875 
Q 42.328125 -1.421875 30.609375 -1.421875 
Q 18.84375 -1.421875 12.171875 6.21875 
Q 5.515625 13.875 5.515625 27.296875 
Q 5.515625 40.765625 12.171875 48.375 
Q 18.84375 56 30.609375 56 
z
" id="DejaVuSans-111"/>
     </defs>
     <g transform="translate(21.020312 200.324875)rotate(-90)scale(0.1 -0.1)">
      <use xlink:href="#DejaVuSans-80"/>
      <use x="60.271484" xlink:href="#DejaVuSans-105"/>
      <use x="88.054688" xlink:href="#DejaVuSans-120"/>
      <use x="147.1875" xlink:href="#DejaVuSans-101"/>
      <use x="208.710938" xlink:href="#DejaVuSans-108"/>
      <use x="236.494141" xlink:href="#DejaVuSans-32"/>
      <use x="268.28125" xlink:href="#DejaVuSans-69"/>
      <use x="331.464844" xlink:href="#DejaVuSans-114"/>
      <use x="372.5625" xlink:href="#DejaVuSans-114"/>
      <use x="413.644531" xlink:href="#DejaVuSans-111"/>
      <use x="474.826172" xlink:href="#DejaVuSans-114"/>
     </g>
    </g>
   </g>
   <g id="line2d_30">
    <path clip-path="url(#p5b41138285)" d="M 74.484593 113.30738 
L 75.783211 137.455901 
L 77.081829 132.180148 
L 78.380447 144.579644 
L 79.679065 150.416962 
L 80.977684 158.578235 
L 82.276302 165.269093 
L 83.57492 167.860856 
L 84.873538 170.133931 
L 86.172156 171.753487 
L 87.470775 170.020606 
L 88.769393 171.702621 
L 90.068011 174.109673 
L 91.366629 174.650034 
L 92.665247 169.018416 
L 93.963865 177.449886 
L 95.262484 174.608115 
L 96.561102 175.067835 
L 97.85972 175.019294 
L 99.158338 176.658645 
L 100.456956 175.527908 
L 101.755575 176.773055 
L 103.054193 164.525719 
L 104.352811 173.239792 
L 105.651429 169.84165 
L 106.950047 167.025018 
L 108.248665 157.70183 
L 109.547284 152.892974 
L 110.845902 160.338785 
L 112.14452 170.349835 
L 113.443138 171.465576 
L 114.741756 180.444896 
L 116.040375 174.132225 
L 117.338993 172.014794 
L 118.637611 173.697721 
L 119.936229 181.579066 
L 121.234847 176.054324 
L 122.533465 182.011441 
L 123.832084 178.458019 
L 125.130702 180.422064 
L 126.42932 179.390022 
L 127.727938 166.248568 
L 129.026556 178.633673 
L 130.325175 169.637839 
L 131.623793 176.42137 
L 132.922411 167.457742 
L 134.221029 165.431407 
L 135.519647 158.465815 
L 136.818265 154.300082 
L 138.116884 160.71139 
L 138.799425 153.554468 
" style="fill:none;stroke:#aec7e8;stroke-linecap:square;stroke-width:1.5;"/>
   </g>
   <g id="line2d_31">
    <path clip-path="url(#p5b41138285)" d="M 73.832727 100.818436 
L 77.079273 134.818928 
L 80.325818 162.817746 
L 83.572364 171.581576 
L 86.818909 170.678638 
L 90.065455 179.42225 
L 93.312 176.558418 
L 96.558545 174.042434 
L 99.805091 177.791034 
L 103.051636 165.512663 
L 106.298182 172.123439 
L 109.544727 152.134383 
L 112.791273 179.115241 
L 116.037818 182.727706 
L 119.284364 191.665797 
L 122.530909 172.235465 
L 125.777455 187.935244 
L 129.024 185.302858 
L 132.270545 191.897863 
L 135.517091 154.855295 
L 138.763636 149.446603 
" style="fill:none;stroke:#1f77b4;stroke-linecap:square;stroke-width:1.5;"/>
   </g>
   <g id="line2d_32">
    <path clip-path="url(#p5b41138285)" d="M 77.081829 146.321767 
L 83.57492 192.897336 
L 90.068011 206.244891 
L 96.561102 220.398853 
L 103.054193 233.541589 
L 109.547284 240.451699 
L 116.040375 247.765879 
L 122.533465 253.283638 
L 129.026556 256.947289 
L 135.519647 259.686004 
L 142.012738 261.765486 
L 148.505829 263.414381 
L 154.99892 264.963745 
L 161.492011 265.578313 
L 167.985102 266.333404 
L 174.478193 267.096189 
L 180.971284 268.116888 
L 187.464375 268.363182 
L 193.957465 268.676491 
L 200.450556 269.372056 
L 206.943647 270.029816 
L 213.436738 270.09042 
L 219.929829 270.537442 
L 226.42292 270.608229 
L 232.916011 270.803921 
L 239.409102 270.97275 
L 245.902193 270.571658 
L 252.395284 270.585921 
L 258.888375 270.517681 
L 265.381465 270.804896 
L 271.874556 271.108007 
L 278.367647 271.345096 
L 284.860738 271.025863 
L 291.353829 271.680345 
L 297.84692 271.897844 
L 304.340011 271.457467 
L 310.833102 271.180943 
L 317.326193 271.321956 
L 323.819284 271.25152 
L 330.312375 271.369559 
L 336.805465 271.387303 
L 343.298556 271.370263 
L 349.791647 272.068271 
L 356.284738 272.122358 
L 362.777829 270.738496 
L 369.27092 270.127134 
L 375.764011 268.562781 
L 382.257102 267.798151 
L 388.750193 266.589108 
L 395.243284 266.878843 
" style="fill:none;stroke:#ffbb78;stroke-linecap:square;stroke-width:1.5;"/>
   </g>
   <g id="line2d_33">
    <path clip-path="url(#p5b41138285)" d="M 73.832727 108.033843 
L 77.079273 156.223615 
L 80.325818 186.169093 
L 83.572364 191.54562 
L 86.818909 201.986777 
L 90.065455 207.562485 
L 93.312 213.611217 
L 96.558545 206.183321 
L 99.805091 225.94768 
L 103.051636 233.55499 
L 106.298182 237.512003 
L 109.544727 237.052819 
L 112.791273 241.351722 
L 116.037818 244.10942 
L 119.284364 246.256347 
L 122.530909 248.884026 
L 125.777455 251.036643 
L 129.024 251.895802 
L 132.270545 253.235372 
L 135.517091 251.976573 
L 138.763636 254.455384 
L 142.010182 256.484921 
L 145.256727 255.929065 
L 148.503273 255.823005 
L 151.749818 257.045609 
L 154.996364 257.04734 
L 158.242909 258.275453 
L 161.489455 256.924474 
L 164.736 258.288901 
L 167.982545 257.871022 
L 171.229091 258.482925 
L 174.475636 259.243859 
L 177.722182 259.030667 
L 180.968727 259.354191 
L 184.215273 259.553082 
L 187.461818 258.251496 
L 190.708364 259.07425 
L 193.954909 256.952715 
L 197.201455 258.74825 
L 200.448 258.117458 
L 203.694545 259.105048 
L 206.941091 258.901413 
L 210.187636 259.916796 
L 213.434182 258.861086 
L 216.680727 258.290131 
L 219.927273 259.538778 
L 223.173818 258.645686 
L 226.420364 258.539923 
L 229.666909 259.065518 
L 232.913455 258.939049 
L 236.16 259.275445 
L 239.406545 259.766811 
L 242.653091 257.634158 
L 245.899636 257.741144 
L 249.146182 258.674778 
L 252.392727 257.652237 
L 255.639273 257.869711 
L 258.885818 257.682822 
L 262.132364 258.170821 
L 265.378909 256.764681 
L 268.625455 257.819311 
L 271.872 258.68796 
L 275.118545 257.18769 
L 278.365091 257.658065 
L 281.611636 257.416746 
L 284.858182 257.737816 
L 288.104727 257.819907 
L 291.351273 257.27747 
L 294.597818 258.138817 
L 297.844364 257.30203 
L 301.090909 257.067014 
L 304.337455 257.113218 
L 307.584 257.29356 
L 310.830545 257.366402 
L 314.077091 255.149298 
L 317.323636 256.601433 
L 320.570182 256.564148 
L 323.816727 255.927969 
L 327.063273 256.291306 
L 330.309818 255.186697 
L 333.556364 256.767645 
L 336.802909 256.543169 
L 340.049455 256.298514 
L 343.296 255.711356 
L 346.542545 256.830971 
L 349.789091 256.1496 
L 353.035636 255.360577 
L 356.282182 256.224856 
L 359.528727 255.754704 
L 362.775273 254.040927 
L 366.021818 254.50884 
L 369.268364 254.5828 
L 372.514909 252.504023 
L 375.761455 253.750995 
L 379.008 252.773066 
L 382.254545 250.540804 
L 385.501091 250.532325 
L 388.747636 252.201281 
L 391.994182 251.153984 
L 395.240727 251.404361 
L 398.487273 252.22476 
" style="fill:none;stroke:#ff7f0e;stroke-linecap:square;stroke-width:1.5;"/>
   </g>
   <g id="line2d_34">
    <path clip-path="url(#p5b41138285)" d="M 75.847119 134.701159 
L 79.870791 173.765647 
L 83.894462 186.734359 
L 87.918133 195.22149 
L 91.941804 198.972074 
L 95.965476 200.847317 
L 99.989147 202.324038 
L 104.012818 205.834623 
L 108.03649 210.20278 
L 112.060161 214.071097 
L 116.083832 218.550448 
L 120.107504 224.246954 
L 124.131175 227.783058 
L 128.154846 229.949868 
L 132.178517 230.955847 
L 136.202189 231.341034 
L 140.22586 229.805478 
L 144.249531 230.948496 
L 148.273203 231.236923 
L 152.296874 233.447623 
L 156.320545 235.866936 
L 160.344216 236.897144 
L 164.367888 238.003074 
L 168.391559 239.01544 
L 172.41523 239.477489 
L 176.438902 239.514567 
L 180.462573 239.355914 
L 184.486244 238.159604 
L 188.509916 236.728105 
L 192.533587 238.316213 
L 196.557258 240.962736 
L 200.580929 241.425687 
L 204.604601 241.72271 
L 208.628272 241.877027 
L 212.651943 242.315931 
L 216.675615 243.914648 
L 220.699286 244.724153 
L 224.722957 245.075713 
L 228.746628 244.721164 
L 232.7703 244.53287 
L 236.793971 244.360609 
L 240.817642 246.73207 
L 244.841314 244.252098 
L 248.864985 244.408179 
L 252.888656 244.022721 
L 256.912328 243.913542 
L 260.935999 243.975019 
L 264.95967 244.71237 
L 268.983341 245.256774 
L 273.007013 245.58355 
L 275.069975 244.832484 
" style="fill:none;stroke:#98df8a;stroke-linecap:square;stroke-width:1.5;"/>
   </g>
   <g id="line2d_35">
    <path clip-path="url(#p5b41138285)" d="M 73.832727 120.711932 
L 77.079273 155.040788 
L 80.325818 178.402012 
L 83.572364 178.814709 
L 86.818909 196.946852 
L 90.065455 202.612328 
L 93.312 200.137399 
L 96.558545 195.64872 
L 99.805091 203.659004 
L 103.051636 208.522092 
L 106.298182 210.121462 
L 109.544727 212.286654 
L 112.791273 217.371135 
L 116.037818 220.981774 
L 119.284364 223.960464 
L 122.530909 223.710081 
L 125.777455 229.178831 
L 129.024 230.565064 
L 132.270545 230.628466 
L 135.517091 229.209675 
L 138.763636 232.179953 
L 142.010182 228.735718 
L 145.256727 229.626077 
L 148.503273 228.998026 
L 151.749818 232.577945 
L 154.996364 232.649952 
L 158.242909 234.338222 
L 161.489455 234.77248 
L 164.736 236.313273 
L 167.982545 235.090679 
L 171.229091 237.488399 
L 174.475636 236.732402 
L 177.722182 237.00405 
L 180.968727 237.184821 
L 184.215273 236.840451 
L 187.461818 233.945902 
L 190.708364 234.554505 
L 193.954909 236.018959 
L 197.201455 238.933465 
L 200.448 238.584584 
L 203.694545 238.444914 
L 206.941091 236.77545 
L 210.187636 236.661278 
L 213.434182 238.960885 
L 216.680727 238.994334 
L 219.927273 240.554641 
L 223.173818 239.830846 
L 226.420364 239.207833 
L 229.666909 239.950531 
L 232.913455 239.88106 
L 236.16 236.914676 
L 239.406545 240.714761 
L 242.653091 238.568464 
L 245.899636 238.960159 
L 249.146182 236.967329 
L 252.392727 238.125686 
L 255.639273 234.880378 
L 258.885818 237.327437 
L 262.132364 237.437454 
L 265.378909 237.392717 
L 268.625455 238.999934 
L 271.872 236.638072 
" style="fill:none;stroke:#2ca02c;stroke-linecap:square;stroke-width:1.5;"/>
   </g>
   <g id="line2d_36">
    <path clip-path="url(#p5b41138285)" d="M 75.568479 130.459938 
L 79.034869 167.077831 
L 82.501259 190.711873 
L 85.96765 193.13169 
L 89.43404 200.474027 
L 92.90043 202.774343 
L 96.36682 198.663295 
L 99.833211 203.668129 
L 103.299601 207.775778 
L 106.765991 214.142118 
L 110.232381 219.06904 
L 113.698772 223.06548 
L 117.165162 227.273505 
L 120.631552 228.85133 
L 124.097942 229.692619 
L 127.564333 230.630554 
L 131.030723 233.292877 
L 134.497113 235.962852 
L 137.963504 237.598655 
L 141.429894 239.959578 
L 144.896284 241.49403 
L 148.362674 241.900483 
L 151.829065 244.522651 
L 155.295455 246.01008 
L 158.761845 245.604494 
L 162.228235 246.12491 
L 165.694626 249.619863 
L 169.161016 249.90558 
L 172.627406 250.50738 
L 176.093796 251.377901 
L 179.560187 252.971517 
L 183.026577 253.559874 
L 186.492967 255.595657 
L 189.959357 257.375491 
L 193.425748 258.81745 
L 196.892138 259.59192 
L 200.358528 256.551504 
L 203.824919 255.996968 
L 207.291309 255.142891 
L 210.757699 256.461843 
L 214.224089 257.624431 
L 217.69048 259.794988 
L 221.15687 257.820537 
L 224.62326 257.811168 
L 228.08965 258.078248 
L 231.556041 259.471319 
L 235.022431 260.803952 
L 238.488821 260.488509 
L 241.955211 265.449022 
L 245.421602 265.173043 
L 247.18036 264.935476 
" style="fill:none;stroke:#ff9896;stroke-linecap:square;stroke-width:1.5;"/>
   </g>
   <g id="line2d_37">
    <path clip-path="url(#p5b41138285)" d="M 73.832727 127.534853 
L 77.079273 138.537749 
L 80.325818 185.989031 
L 83.572364 197.22275 
L 86.818909 199.20161 
L 90.065455 202.88689 
L 93.312 198.858133 
L 96.558545 197.400022 
L 99.805091 208.878654 
L 103.051636 201.14562 
L 106.298182 214.775437 
L 109.544727 214.44679 
L 112.791273 220.317959 
L 116.037818 224.478224 
L 119.284364 223.770403 
L 122.530909 225.019544 
L 125.777455 227.892983 
L 129.024 229.878366 
L 132.270545 229.108024 
L 135.517091 234.495865 
L 138.763636 236.497029 
L 142.010182 239.273873 
L 145.256727 235.07992 
L 148.503273 240.650174 
L 151.749818 240.710561 
L 154.996364 242.793925 
L 158.242909 242.266641 
L 161.489455 240.007111 
L 164.736 245.248871 
L 167.982545 245.727213 
L 171.229091 241.650389 
L 174.475636 245.058735 
L 177.722182 247.321109 
L 180.968727 245.98703 
L 184.215273 250.091492 
L 187.461818 250.611231 
L 190.708364 251.454858 
L 193.954909 253.036016 
L 197.201455 252.192212 
L 200.448 250.285751 
L 203.694545 247.776412 
L 206.941091 247.387478 
L 210.187636 249.732436 
L 213.434182 250.487607 
L 216.680727 250.963784 
L 219.927273 249.2513 
L 223.173818 249.718274 
L 226.420364 247.96328 
L 229.666909 250.642905 
L 232.913455 250.017862 
L 236.16 251.852771 
L 239.406545 253.56722 
L 242.653091 256.117584 
L 245.899636 254.919987 
" style="fill:none;stroke:#d62728;stroke-linecap:square;stroke-width:1.5;"/>
   </g>
   <g id="patch_3">
    <path d="M 57.6 307.584 
L 57.6 41.472 
" style="fill:none;stroke:#000000;stroke-linecap:square;stroke-linejoin:miter;stroke-width:0.8;"/>
   </g>
   <g id="patch_4">
    <path d="M 414.72 307.584 
L 414.72 41.472 
" style="fill:none;stroke:#000000;stroke-linecap:square;stroke-linejoin:miter;stroke-width:0.8;"/>
   </g>
   <g id="patch_5">
    <path d="M 57.6 307.584 
L 414.72 307.584 
" style="fill:none;stroke:#000000;stroke-linecap:square;stroke-linejoin:miter;stroke-width:0.8;"/>
   </g>
   <g id="patch_6">
    <path d="M 57.6 41.472 
L 414.72 41.472 
" style="fill:none;stroke:#000000;stroke-linecap:square;stroke-linejoin:miter;stroke-width:0.8;"/>
   </g>
   <g id="text_12">
    <!-- Pixel Error -->
    <g transform="translate(205.20375 35.472)scale(0.12 -0.12)">
     <use xlink:href="#DejaVuSans-80"/>
     <use x="60.271484" xlink:href="#DejaVuSans-105"/>
     <use x="88.054688" xlink:href="#DejaVuSans-120"/>
     <use x="147.1875" xlink:href="#DejaVuSans-101"/>
     <use x="208.710938" xlink:href="#DejaVuSans-108"/>
     <use x="236.494141" xlink:href="#DejaVuSans-32"/>
     <use x="268.28125" xlink:href="#DejaVuSans-69"/>
     <use x="331.464844" xlink:href="#DejaVuSans-114"/>
     <use x="372.5625" xlink:href="#DejaVuSans-114"/>
     <use x="413.644531" xlink:href="#DejaVuSans-111"/>
     <use x="474.826172" xlink:href="#DejaVuSans-114"/>
    </g>
   </g>
   <g id="legend_1">
    <g id="patch_7">
     <path d="M 263.452812 166.897 
L 407.72 166.897 
Q 409.72 166.897 409.72 164.897 
L 409.72 48.472 
Q 409.72 46.472 407.72 46.472 
L 263.452812 46.472 
Q 261.452812 46.472 261.452812 48.472 
L 261.452812 164.897 
Q 261.452812 166.897 263.452812 166.897 
z
" style="fill:#ffffff;opacity:0.8;stroke:#cccccc;stroke-linejoin:miter;"/>
    </g>
    <g id="line2d_38">
     <path d="M 265.452812 54.570438 
L 285.452812 54.570438 
" style="fill:none;stroke:#aec7e8;stroke-linecap:square;stroke-width:1.5;"/>
    </g>
    <g id="line2d_39"/>
    <g id="text_13">
     <!-- Target KL: 0.05 - Train -->
     <defs>
      <path d="M -0.296875 72.90625 
L 61.375 72.90625 
L 61.375 64.59375 
L 35.5 64.59375 
L 35.5 0 
L 25.59375 0 
L 25.59375 64.59375 
L -0.296875 64.59375 
z
" id="DejaVuSans-84"/>
      <path d="M 34.28125 27.484375 
Q 23.390625 27.484375 19.1875 25 
Q 14.984375 22.515625 14.984375 16.5 
Q 14.984375 11.71875 18.140625 8.90625 
Q 21.296875 6.109375 26.703125 6.109375 
Q 34.1875 6.109375 38.703125 11.40625 
Q 43.21875 16.703125 43.21875 25.484375 
L 43.21875 27.484375 
z
M 52.203125 31.203125 
L 52.203125 0 
L 43.21875 0 
L 43.21875 8.296875 
Q 40.140625 3.328125 35.546875 0.953125 
Q 30.953125 -1.421875 24.3125 -1.421875 
Q 15.921875 -1.421875 10.953125 3.296875 
Q 6 8.015625 6 15.921875 
Q 6 25.140625 12.171875 29.828125 
Q 18.359375 34.515625 30.609375 34.515625 
L 43.21875 34.515625 
L 43.21875 35.40625 
Q 43.21875 41.609375 39.140625 45 
Q 35.0625 48.390625 27.6875 48.390625 
Q 23 48.390625 18.546875 47.265625 
Q 14.109375 46.140625 10.015625 43.890625 
L 10.015625 52.203125 
Q 14.9375 54.109375 19.578125 55.046875 
Q 24.21875 56 28.609375 56 
Q 40.484375 56 46.34375 49.84375 
Q 52.203125 43.703125 52.203125 31.203125 
z
" id="DejaVuSans-97"/>
      <path d="M 45.40625 27.984375 
Q 45.40625 37.75 41.375 43.109375 
Q 37.359375 48.484375 30.078125 48.484375 
Q 22.859375 48.484375 18.828125 43.109375 
Q 14.796875 37.75 14.796875 27.984375 
Q 14.796875 18.265625 18.828125 12.890625 
Q 22.859375 7.515625 30.078125 7.515625 
Q 37.359375 7.515625 41.375 12.890625 
Q 45.40625 18.265625 45.40625 27.984375 
z
M 54.390625 6.78125 
Q 54.390625 -7.171875 48.1875 -13.984375 
Q 42 -20.796875 29.203125 -20.796875 
Q 24.46875 -20.796875 20.265625 -20.09375 
Q 16.0625 -19.390625 12.109375 -17.921875 
L 12.109375 -9.1875 
Q 16.0625 -11.328125 19.921875 -12.34375 
Q 23.78125 -13.375 27.78125 -13.375 
Q 36.625 -13.375 41.015625 -8.765625 
Q 45.40625 -4.15625 45.40625 5.171875 
L 45.40625 9.625 
Q 42.625 4.78125 38.28125 2.390625 
Q 33.9375 0 27.875 0 
Q 17.828125 0 11.671875 7.65625 
Q 5.515625 15.328125 5.515625 27.984375 
Q 5.515625 40.671875 11.671875 48.328125 
Q 17.828125 56 27.875 56 
Q 33.9375 56 38.28125 53.609375 
Q 42.625 51.21875 45.40625 46.390625 
L 45.40625 54.6875 
L 54.390625 54.6875 
z
" id="DejaVuSans-103"/>
      <path d="M 9.8125 72.90625 
L 19.671875 72.90625 
L 19.671875 42.09375 
L 52.390625 72.90625 
L 65.09375 72.90625 
L 28.90625 38.921875 
L 67.671875 0 
L 54.6875 0 
L 19.671875 35.109375 
L 19.671875 0 
L 9.8125 0 
z
" id="DejaVuSans-75"/>
      <path d="M 9.8125 72.90625 
L 19.671875 72.90625 
L 19.671875 8.296875 
L 55.171875 8.296875 
L 55.171875 0 
L 9.8125 0 
z
" id="DejaVuSans-76"/>
      <path d="M 11.71875 12.40625 
L 22.015625 12.40625 
L 22.015625 0 
L 11.71875 0 
z
M 11.71875 51.703125 
L 22.015625 51.703125 
L 22.015625 39.3125 
L 11.71875 39.3125 
z
" id="DejaVuSans-58"/>
      <path d="M 10.6875 12.40625 
L 21 12.40625 
L 21 0 
L 10.6875 0 
z
" id="DejaVuSans-46"/>
      <path d="M 4.890625 31.390625 
L 31.203125 31.390625 
L 31.203125 23.390625 
L 4.890625 23.390625 
z
" id="DejaVuSans-45"/>
      <path d="M 54.890625 33.015625 
L 54.890625 0 
L 45.90625 0 
L 45.90625 32.71875 
Q 45.90625 40.484375 42.875 44.328125 
Q 39.84375 48.1875 33.796875 48.1875 
Q 26.515625 48.1875 22.3125 43.546875 
Q 18.109375 38.921875 18.109375 30.90625 
L 18.109375 0 
L 9.078125 0 
L 9.078125 54.6875 
L 18.109375 54.6875 
L 18.109375 46.1875 
Q 21.34375 51.125 25.703125 53.5625 
Q 30.078125 56 35.796875 56 
Q 45.21875 56 50.046875 50.171875 
Q 54.890625 44.34375 54.890625 33.015625 
z
" id="DejaVuSans-110"/>
     </defs>
     <g transform="translate(293.452812 58.070438)scale(0.1 -0.1)">
      <use xlink:href="#DejaVuSans-84"/>
      <use x="60.833984" xlink:href="#DejaVuSans-97"/>
      <use x="122.113281" xlink:href="#DejaVuSans-114"/>
      <use x="163.210938" xlink:href="#DejaVuSans-103"/>
      <use x="226.6875" xlink:href="#DejaVuSans-101"/>
      <use x="288.210938" xlink:href="#DejaVuSans-116"/>
      <use x="327.419922" xlink:href="#DejaVuSans-32"/>
      <use x="359.207031" xlink:href="#DejaVuSans-75"/>
      <use x="424.783203" xlink:href="#DejaVuSans-76"/>
      <use x="480.496094" xlink:href="#DejaVuSans-58"/>
      <use x="514.1875" xlink:href="#DejaVuSans-32"/>
      <use x="545.974609" xlink:href="#DejaVuSans-48"/>
      <use x="609.597656" xlink:href="#DejaVuSans-46"/>
      <use x="641.384766" xlink:href="#DejaVuSans-48"/>
      <use x="705.007812" xlink:href="#DejaVuSans-53"/>
      <use x="768.630859" xlink:href="#DejaVuSans-32"/>
      <use x="800.417969" xlink:href="#DejaVuSans-45"/>
      <use x="836.501953" xlink:href="#DejaVuSans-32"/>
      <use x="868.289062" xlink:href="#DejaVuSans-84"/>
      <use x="929.154297" xlink:href="#DejaVuSans-114"/>
      <use x="970.267578" xlink:href="#DejaVuSans-97"/>
      <use x="1031.546875" xlink:href="#DejaVuSans-105"/>
      <use x="1059.330078" xlink:href="#DejaVuSans-110"/>
     </g>
    </g>
    <g id="line2d_40">
     <path d="M 265.452812 69.248563 
L 285.452812 69.248563 
" style="fill:none;stroke:#1f77b4;stroke-linecap:square;stroke-width:1.5;"/>
    </g>
    <g id="line2d_41"/>
    <g id="text_14">
     <!-- Target KL: 0.05 - Test -->
     <g transform="translate(293.452812 72.748563)scale(0.1 -0.1)">
      <use xlink:href="#DejaVuSans-84"/>
      <use x="60.833984" xlink:href="#DejaVuSans-97"/>
      <use x="122.113281" xlink:href="#DejaVuSans-114"/>
      <use x="163.210938" xlink:href="#DejaVuSans-103"/>
      <use x="226.6875" xlink:href="#DejaVuSans-101"/>
      <use x="288.210938" xlink:href="#DejaVuSans-116"/>
      <use x="327.419922" xlink:href="#DejaVuSans-32"/>
      <use x="359.207031" xlink:href="#DejaVuSans-75"/>
      <use x="424.783203" xlink:href="#DejaVuSans-76"/>
      <use x="480.496094" xlink:href="#DejaVuSans-58"/>
      <use x="514.1875" xlink:href="#DejaVuSans-32"/>
      <use x="545.974609" xlink:href="#DejaVuSans-48"/>
      <use x="609.597656" xlink:href="#DejaVuSans-46"/>
      <use x="641.384766" xlink:href="#DejaVuSans-48"/>
      <use x="705.007812" xlink:href="#DejaVuSans-53"/>
      <use x="768.630859" xlink:href="#DejaVuSans-32"/>
      <use x="800.417969" xlink:href="#DejaVuSans-45"/>
      <use x="836.501953" xlink:href="#DejaVuSans-32"/>
      <use x="868.289062" xlink:href="#DejaVuSans-84"/>
      <use x="929.107422" xlink:href="#DejaVuSans-101"/>
      <use x="990.630859" xlink:href="#DejaVuSans-115"/>
      <use x="1042.730469" xlink:href="#DejaVuSans-116"/>
     </g>
    </g>
    <g id="line2d_42">
     <path d="M 265.452812 83.926688 
L 285.452812 83.926688 
" style="fill:none;stroke:#ffbb78;stroke-linecap:square;stroke-width:1.5;"/>
    </g>
    <g id="line2d_43"/>
    <g id="text_15">
     <!-- Target KL: 0.1 - Train -->
     <g transform="translate(293.452812 87.426688)scale(0.1 -0.1)">
      <use xlink:href="#DejaVuSans-84"/>
      <use x="60.833984" xlink:href="#DejaVuSans-97"/>
      <use x="122.113281" xlink:href="#DejaVuSans-114"/>
      <use x="163.210938" xlink:href="#DejaVuSans-103"/>
      <use x="226.6875" xlink:href="#DejaVuSans-101"/>
      <use x="288.210938" xlink:href="#DejaVuSans-116"/>
      <use x="327.419922" xlink:href="#DejaVuSans-32"/>
      <use x="359.207031" xlink:href="#DejaVuSans-75"/>
      <use x="424.783203" xlink:href="#DejaVuSans-76"/>
      <use x="480.496094" xlink:href="#DejaVuSans-58"/>
      <use x="514.1875" xlink:href="#DejaVuSans-32"/>
      <use x="545.974609" xlink:href="#DejaVuSans-48"/>
      <use x="609.597656" xlink:href="#DejaVuSans-46"/>
      <use x="641.384766" xlink:href="#DejaVuSans-49"/>
      <use x="705.007812" xlink:href="#DejaVuSans-32"/>
      <use x="736.794922" xlink:href="#DejaVuSans-45"/>
      <use x="772.878906" xlink:href="#DejaVuSans-32"/>
      <use x="804.666016" xlink:href="#DejaVuSans-84"/>
      <use x="865.53125" xlink:href="#DejaVuSans-114"/>
      <use x="906.644531" xlink:href="#DejaVuSans-97"/>
      <use x="967.923828" xlink:href="#DejaVuSans-105"/>
      <use x="995.707031" xlink:href="#DejaVuSans-110"/>
     </g>
    </g>
    <g id="line2d_44">
     <path d="M 265.452812 98.604813 
L 285.452812 98.604813 
" style="fill:none;stroke:#ff7f0e;stroke-linecap:square;stroke-width:1.5;"/>
    </g>
    <g id="line2d_45"/>
    <g id="text_16">
     <!-- Target KL: 0.1 - Test -->
     <g transform="translate(293.452812 102.104813)scale(0.1 -0.1)">
      <use xlink:href="#DejaVuSans-84"/>
      <use x="60.833984" xlink:href="#DejaVuSans-97"/>
      <use x="122.113281" xlink:href="#DejaVuSans-114"/>
      <use x="163.210938" xlink:href="#DejaVuSans-103"/>
      <use x="226.6875" xlink:href="#DejaVuSans-101"/>
      <use x="288.210938" xlink:href="#DejaVuSans-116"/>
      <use x="327.419922" xlink:href="#DejaVuSans-32"/>
      <use x="359.207031" xlink:href="#DejaVuSans-75"/>
      <use x="424.783203" xlink:href="#DejaVuSans-76"/>
      <use x="480.496094" xlink:href="#DejaVuSans-58"/>
      <use x="514.1875" xlink:href="#DejaVuSans-32"/>
      <use x="545.974609" xlink:href="#DejaVuSans-48"/>
      <use x="609.597656" xlink:href="#DejaVuSans-46"/>
      <use x="641.384766" xlink:href="#DejaVuSans-49"/>
      <use x="705.007812" xlink:href="#DejaVuSans-32"/>
      <use x="736.794922" xlink:href="#DejaVuSans-45"/>
      <use x="772.878906" xlink:href="#DejaVuSans-32"/>
      <use x="804.666016" xlink:href="#DejaVuSans-84"/>
      <use x="865.484375" xlink:href="#DejaVuSans-101"/>
      <use x="927.007812" xlink:href="#DejaVuSans-115"/>
      <use x="979.107422" xlink:href="#DejaVuSans-116"/>
     </g>
    </g>
    <g id="line2d_46">
     <path d="M 265.452812 113.282938 
L 285.452812 113.282938 
" style="fill:none;stroke:#98df8a;stroke-linecap:square;stroke-width:1.5;"/>
    </g>
    <g id="line2d_47"/>
    <g id="text_17">
     <!-- Target KL: 0.2 - Train -->
     <g transform="translate(293.452812 116.782938)scale(0.1 -0.1)">
      <use xlink:href="#DejaVuSans-84"/>
      <use x="60.833984" xlink:href="#DejaVuSans-97"/>
      <use x="122.113281" xlink:href="#DejaVuSans-114"/>
      <use x="163.210938" xlink:href="#DejaVuSans-103"/>
      <use x="226.6875" xlink:href="#DejaVuSans-101"/>
      <use x="288.210938" xlink:href="#DejaVuSans-116"/>
      <use x="327.419922" xlink:href="#DejaVuSans-32"/>
      <use x="359.207031" xlink:href="#DejaVuSans-75"/>
      <use x="424.783203" xlink:href="#DejaVuSans-76"/>
      <use x="480.496094" xlink:href="#DejaVuSans-58"/>
      <use x="514.1875" xlink:href="#DejaVuSans-32"/>
      <use x="545.974609" xlink:href="#DejaVuSans-48"/>
      <use x="609.597656" xlink:href="#DejaVuSans-46"/>
      <use x="641.384766" xlink:href="#DejaVuSans-50"/>
      <use x="705.007812" xlink:href="#DejaVuSans-32"/>
      <use x="736.794922" xlink:href="#DejaVuSans-45"/>
      <use x="772.878906" xlink:href="#DejaVuSans-32"/>
      <use x="804.666016" xlink:href="#DejaVuSans-84"/>
      <use x="865.53125" xlink:href="#DejaVuSans-114"/>
      <use x="906.644531" xlink:href="#DejaVuSans-97"/>
      <use x="967.923828" xlink:href="#DejaVuSans-105"/>
      <use x="995.707031" xlink:href="#DejaVuSans-110"/>
     </g>
    </g>
    <g id="line2d_48">
     <path d="M 265.452812 127.961063 
L 285.452812 127.961063 
" style="fill:none;stroke:#2ca02c;stroke-linecap:square;stroke-width:1.5;"/>
    </g>
    <g id="line2d_49"/>
    <g id="text_18">
     <!-- Target KL: 0.2 - Test -->
     <g transform="translate(293.452812 131.461063)scale(0.1 -0.1)">
      <use xlink:href="#DejaVuSans-84"/>
      <use x="60.833984" xlink:href="#DejaVuSans-97"/>
      <use x="122.113281" xlink:href="#DejaVuSans-114"/>
      <use x="163.210938" xlink:href="#DejaVuSans-103"/>
      <use x="226.6875" xlink:href="#DejaVuSans-101"/>
      <use x="288.210938" xlink:href="#DejaVuSans-116"/>
      <use x="327.419922" xlink:href="#DejaVuSans-32"/>
      <use x="359.207031" xlink:href="#DejaVuSans-75"/>
      <use x="424.783203" xlink:href="#DejaVuSans-76"/>
      <use x="480.496094" xlink:href="#DejaVuSans-58"/>
      <use x="514.1875" xlink:href="#DejaVuSans-32"/>
      <use x="545.974609" xlink:href="#DejaVuSans-48"/>
      <use x="609.597656" xlink:href="#DejaVuSans-46"/>
      <use x="641.384766" xlink:href="#DejaVuSans-50"/>
      <use x="705.007812" xlink:href="#DejaVuSans-32"/>
      <use x="736.794922" xlink:href="#DejaVuSans-45"/>
      <use x="772.878906" xlink:href="#DejaVuSans-32"/>
      <use x="804.666016" xlink:href="#DejaVuSans-84"/>
      <use x="865.484375" xlink:href="#DejaVuSans-101"/>
      <use x="927.007812" xlink:href="#DejaVuSans-115"/>
      <use x="979.107422" xlink:href="#DejaVuSans-116"/>
     </g>
    </g>
    <g id="line2d_50">
     <path d="M 265.452812 142.639188 
L 285.452812 142.639188 
" style="fill:none;stroke:#ff9896;stroke-linecap:square;stroke-width:1.5;"/>
    </g>
    <g id="line2d_51"/>
    <g id="text_19">
     <!-- Target KL: 0.5 - Train -->
     <g transform="translate(293.452812 146.139188)scale(0.1 -0.1)">
      <use xlink:href="#DejaVuSans-84"/>
      <use x="60.833984" xlink:href="#DejaVuSans-97"/>
      <use x="122.113281" xlink:href="#DejaVuSans-114"/>
      <use x="163.210938" xlink:href="#DejaVuSans-103"/>
      <use x="226.6875" xlink:href="#DejaVuSans-101"/>
      <use x="288.210938" xlink:href="#DejaVuSans-116"/>
      <use x="327.419922" xlink:href="#DejaVuSans-32"/>
      <use x="359.207031" xlink:href="#DejaVuSans-75"/>
      <use x="424.783203" xlink:href="#DejaVuSans-76"/>
      <use x="480.496094" xlink:href="#DejaVuSans-58"/>
      <use x="514.1875" xlink:href="#DejaVuSans-32"/>
      <use x="545.974609" xlink:href="#DejaVuSans-48"/>
      <use x="609.597656" xlink:href="#DejaVuSans-46"/>
      <use x="641.384766" xlink:href="#DejaVuSans-53"/>
      <use x="705.007812" xlink:href="#DejaVuSans-32"/>
      <use x="736.794922" xlink:href="#DejaVuSans-45"/>
      <use x="772.878906" xlink:href="#DejaVuSans-32"/>
      <use x="804.666016" xlink:href="#DejaVuSans-84"/>
      <use x="865.53125" xlink:href="#DejaVuSans-114"/>
      <use x="906.644531" xlink:href="#DejaVuSans-97"/>
      <use x="967.923828" xlink:href="#DejaVuSans-105"/>
      <use x="995.707031" xlink:href="#DejaVuSans-110"/>
     </g>
    </g>
    <g id="line2d_52">
     <path d="M 265.452812 157.317313 
L 285.452812 157.317313 
" style="fill:none;stroke:#d62728;stroke-linecap:square;stroke-width:1.5;"/>
    </g>
    <g id="line2d_53"/>
    <g id="text_20">
     <!-- Target KL: 0.5 - Test -->
     <g transform="translate(293.452812 160.817313)scale(0.1 -0.1)">
      <use xlink:href="#DejaVuSans-84"/>
      <use x="60.833984" xlink:href="#DejaVuSans-97"/>
      <use x="122.113281" xlink:href="#DejaVuSans-114"/>
      <use x="163.210938" xlink:href="#DejaVuSans-103"/>
      <use x="226.6875" xlink:href="#DejaVuSans-101"/>
      <use x="288.210938" xlink:href="#DejaVuSans-116"/>
      <use x="327.419922" xlink:href="#DejaVuSans-32"/>
      <use x="359.207031" xlink:href="#DejaVuSans-75"/>
      <use x="424.783203" xlink:href="#DejaVuSans-76"/>
      <use x="480.496094" xlink:href="#DejaVuSans-58"/>
      <use x="514.1875" xlink:href="#DejaVuSans-32"/>
      <use x="545.974609" xlink:href="#DejaVuSans-48"/>
      <use x="609.597656" xlink:href="#DejaVuSans-46"/>
      <use x="641.384766" xlink:href="#DejaVuSans-53"/>
      <use x="705.007812" xlink:href="#DejaVuSans-32"/>
      <use x="736.794922" xlink:href="#DejaVuSans-45"/>
      <use x="772.878906" xlink:href="#DejaVuSans-32"/>
      <use x="804.666016" xlink:href="#DejaVuSans-84"/>
      <use x="865.484375" xlink:href="#DejaVuSans-101"/>
      <use x="927.007812" xlink:href="#DejaVuSans-115"/>
      <use x="979.107422" xlink:href="#DejaVuSans-116"/>
     </g>
    </g>
   </g>
  </g>
 </g>
 <defs>
  <clipPath id="p5b41138285">
   <rect height="266.112" width="357.12" x="57.6" y="41.472"/>
  </clipPath>
 </defs>
</svg>
