<?xml version="1.0" encoding="utf-8" standalone="no"?>
<!DOCTYPE svg PUBLIC "-//W3C//DTD SVG 1.1//EN"
  "http://www.w3.org/Graphics/SVG/1.1/DTD/svg11.dtd">
<!-- Created with matplotlib (https://matplotlib.org/) -->
<svg height="345.6pt" version="1.1" viewBox="0 0 460.8 345.6" width="460.8pt" xmlns="http://www.w3.org/2000/svg" xmlns:xlink="http://www.w3.org/1999/xlink">
 <defs>
  <style type="text/css">
*{stroke-linecap:butt;stroke-linejoin:round;}
  </style>
 </defs>
 <g id="figure_1">
  <g id="patch_1">
   <path d="M 0 345.6 
L 460.8 345.6 
L 460.8 0 
L 0 0 
z
" style="fill:#ffffff;"/>
  </g>
  <g id="axes_1">
   <g id="patch_2">
    <path d="M 57.6 307.584 
L 414.72 307.584 
L 414.72 41.472 
L 57.6 41.472 
z
" style="fill:#ffffff;"/>
   </g>
   <g id="matplotlib.axis_1">
    <g id="xtick_1">
     <g id="line2d_1">
      <path clip-path="url(#p2a1ce8c63e)" d="M 73.832727 307.584 
L 73.832727 41.472 
" style="fill:none;stroke:#b0b0b0;stroke-linecap:square;stroke-width:0.8;"/>
     </g>
     <g id="line2d_2">
      <defs>
       <path d="M 0 0 
L 0 3.5 
" id="m30490e2f40" style="stroke:#000000;stroke-width:0.8;"/>
      </defs>
      <g>
       <use style="stroke:#000000;stroke-width:0.8;" x="73.832727" xlink:href="#m30490e2f40" y="307.584"/>
      </g>
     </g>
     <g id="text_1">
      <!-- 0 -->
      <defs>
       <path d="M 31.78125 66.40625 
Q 24.171875 66.40625 20.328125 58.90625 
Q 16.5 51.421875 16.5 36.375 
Q 16.5 21.390625 20.328125 13.890625 
Q 24.171875 6.390625 31.78125 6.390625 
Q 39.453125 6.390625 43.28125 13.890625 
Q 47.125 21.390625 47.125 36.375 
Q 47.125 51.421875 43.28125 58.90625 
Q 39.453125 66.40625 31.78125 66.40625 
z
M 31.78125 74.21875 
Q 44.046875 74.21875 50.515625 64.515625 
Q 56.984375 54.828125 56.984375 36.375 
Q 56.984375 17.96875 50.515625 8.265625 
Q 44.046875 -1.421875 31.78125 -1.421875 
Q 19.53125 -1.421875 13.0625 8.265625 
Q 6.59375 17.96875 6.59375 36.375 
Q 6.59375 54.828125 13.0625 64.515625 
Q 19.53125 74.21875 31.78125 74.21875 
z
" id="DejaVuSans-48"/>
      </defs>
      <g transform="translate(70.651477 322.182437)scale(0.1 -0.1)">
       <use xlink:href="#DejaVuSans-48"/>
      </g>
     </g>
    </g>
    <g id="xtick_2">
     <g id="line2d_3">
      <path clip-path="url(#p2a1ce8c63e)" d="M 124.959427 307.584 
L 124.959427 41.472 
" style="fill:none;stroke:#b0b0b0;stroke-linecap:square;stroke-width:0.8;"/>
     </g>
     <g id="line2d_4">
      <g>
       <use style="stroke:#000000;stroke-width:0.8;" x="124.959427" xlink:href="#m30490e2f40" y="307.584"/>
      </g>
     </g>
     <g id="text_2">
      <!-- 10000 -->
      <defs>
       <path d="M 12.40625 8.296875 
L 28.515625 8.296875 
L 28.515625 63.921875 
L 10.984375 60.40625 
L 10.984375 69.390625 
L 28.421875 72.90625 
L 38.28125 72.90625 
L 38.28125 8.296875 
L 54.390625 8.296875 
L 54.390625 0 
L 12.40625 0 
z
" id="DejaVuSans-49"/>
      </defs>
      <g transform="translate(109.053177 322.182437)scale(0.1 -0.1)">
       <use xlink:href="#DejaVuSans-49"/>
       <use x="63.623047" xlink:href="#DejaVuSans-48"/>
       <use x="127.246094" xlink:href="#DejaVuSans-48"/>
       <use x="190.869141" xlink:href="#DejaVuSans-48"/>
       <use x="254.492188" xlink:href="#DejaVuSans-48"/>
      </g>
     </g>
    </g>
    <g id="xtick_3">
     <g id="line2d_5">
      <path clip-path="url(#p2a1ce8c63e)" d="M 176.086127 307.584 
L 176.086127 41.472 
" style="fill:none;stroke:#b0b0b0;stroke-linecap:square;stroke-width:0.8;"/>
     </g>
     <g id="line2d_6">
      <g>
       <use style="stroke:#000000;stroke-width:0.8;" x="176.086127" xlink:href="#m30490e2f40" y="307.584"/>
      </g>
     </g>
     <g id="text_3">
      <!-- 20000 -->
      <defs>
       <path d="M 19.1875 8.296875 
L 53.609375 8.296875 
L 53.609375 0 
L 7.328125 0 
L 7.328125 8.296875 
Q 12.9375 14.109375 22.625 23.890625 
Q 32.328125 33.6875 34.8125 36.53125 
Q 39.546875 41.84375 41.421875 45.53125 
Q 43.3125 49.21875 43.3125 52.78125 
Q 43.3125 58.59375 39.234375 62.25 
Q 35.15625 65.921875 28.609375 65.921875 
Q 23.96875 65.921875 18.8125 64.3125 
Q 13.671875 62.703125 7.8125 59.421875 
L 7.8125 69.390625 
Q 13.765625 71.78125 18.9375 73 
Q 24.125 74.21875 28.421875 74.21875 
Q 39.75 74.21875 46.484375 68.546875 
Q 53.21875 62.890625 53.21875 53.421875 
Q 53.21875 48.921875 51.53125 44.890625 
Q 49.859375 40.875 45.40625 35.40625 
Q 44.1875 33.984375 37.640625 27.21875 
Q 31.109375 20.453125 19.1875 8.296875 
z
" id="DejaVuSans-50"/>
      </defs>
      <g transform="translate(160.179877 322.182437)scale(0.1 -0.1)">
       <use xlink:href="#DejaVuSans-50"/>
       <use x="63.623047" xlink:href="#DejaVuSans-48"/>
       <use x="127.246094" xlink:href="#DejaVuSans-48"/>
       <use x="190.869141" xlink:href="#DejaVuSans-48"/>
       <use x="254.492188" xlink:href="#DejaVuSans-48"/>
      </g>
     </g>
    </g>
    <g id="xtick_4">
     <g id="line2d_7">
      <path clip-path="url(#p2a1ce8c63e)" d="M 227.212827 307.584 
L 227.212827 41.472 
" style="fill:none;stroke:#b0b0b0;stroke-linecap:square;stroke-width:0.8;"/>
     </g>
     <g id="line2d_8">
      <g>
       <use style="stroke:#000000;stroke-width:0.8;" x="227.212827" xlink:href="#m30490e2f40" y="307.584"/>
      </g>
     </g>
     <g id="text_4">
      <!-- 30000 -->
      <defs>
       <path d="M 40.578125 39.3125 
Q 47.65625 37.796875 51.625 33 
Q 55.609375 28.21875 55.609375 21.1875 
Q 55.609375 10.40625 48.1875 4.484375 
Q 40.765625 -1.421875 27.09375 -1.421875 
Q 22.515625 -1.421875 17.65625 -0.515625 
Q 12.796875 0.390625 7.625 2.203125 
L 7.625 11.71875 
Q 11.71875 9.328125 16.59375 8.109375 
Q 21.484375 6.890625 26.8125 6.890625 
Q 36.078125 6.890625 40.9375 10.546875 
Q 45.796875 14.203125 45.796875 21.1875 
Q 45.796875 27.640625 41.28125 31.265625 
Q 36.765625 34.90625 28.71875 34.90625 
L 20.21875 34.90625 
L 20.21875 43.015625 
L 29.109375 43.015625 
Q 36.375 43.015625 40.234375 45.921875 
Q 44.09375 48.828125 44.09375 54.296875 
Q 44.09375 59.90625 40.109375 62.90625 
Q 36.140625 65.921875 28.71875 65.921875 
Q 24.65625 65.921875 20.015625 65.03125 
Q 15.375 64.15625 9.8125 62.3125 
L 9.8125 71.09375 
Q 15.4375 72.65625 20.34375 73.4375 
Q 25.25 74.21875 29.59375 74.21875 
Q 40.828125 74.21875 47.359375 69.109375 
Q 53.90625 64.015625 53.90625 55.328125 
Q 53.90625 49.265625 50.4375 45.09375 
Q 46.96875 40.921875 40.578125 39.3125 
z
" id="DejaVuSans-51"/>
      </defs>
      <g transform="translate(211.306577 322.182437)scale(0.1 -0.1)">
       <use xlink:href="#DejaVuSans-51"/>
       <use x="63.623047" xlink:href="#DejaVuSans-48"/>
       <use x="127.246094" xlink:href="#DejaVuSans-48"/>
       <use x="190.869141" xlink:href="#DejaVuSans-48"/>
       <use x="254.492188" xlink:href="#DejaVuSans-48"/>
      </g>
     </g>
    </g>
    <g id="xtick_5">
     <g id="line2d_9">
      <path clip-path="url(#p2a1ce8c63e)" d="M 278.339528 307.584 
L 278.339528 41.472 
" style="fill:none;stroke:#b0b0b0;stroke-linecap:square;stroke-width:0.8;"/>
     </g>
     <g id="line2d_10">
      <g>
       <use style="stroke:#000000;stroke-width:0.8;" x="278.339528" xlink:href="#m30490e2f40" y="307.584"/>
      </g>
     </g>
     <g id="text_5">
      <!-- 40000 -->
      <defs>
       <path d="M 37.796875 64.3125 
L 12.890625 25.390625 
L 37.796875 25.390625 
z
M 35.203125 72.90625 
L 47.609375 72.90625 
L 47.609375 25.390625 
L 58.015625 25.390625 
L 58.015625 17.1875 
L 47.609375 17.1875 
L 47.609375 0 
L 37.796875 0 
L 37.796875 17.1875 
L 4.890625 17.1875 
L 4.890625 26.703125 
z
" id="DejaVuSans-52"/>
      </defs>
      <g transform="translate(262.433278 322.182437)scale(0.1 -0.1)">
       <use xlink:href="#DejaVuSans-52"/>
       <use x="63.623047" xlink:href="#DejaVuSans-48"/>
       <use x="127.246094" xlink:href="#DejaVuSans-48"/>
       <use x="190.869141" xlink:href="#DejaVuSans-48"/>
       <use x="254.492188" xlink:href="#DejaVuSans-48"/>
      </g>
     </g>
    </g>
    <g id="xtick_6">
     <g id="line2d_11">
      <path clip-path="url(#p2a1ce8c63e)" d="M 329.466228 307.584 
L 329.466228 41.472 
" style="fill:none;stroke:#b0b0b0;stroke-linecap:square;stroke-width:0.8;"/>
     </g>
     <g id="line2d_12">
      <g>
       <use style="stroke:#000000;stroke-width:0.8;" x="329.466228" xlink:href="#m30490e2f40" y="307.584"/>
      </g>
     </g>
     <g id="text_6">
      <!-- 50000 -->
      <defs>
       <path d="M 10.796875 72.90625 
L 49.515625 72.90625 
L 49.515625 64.59375 
L 19.828125 64.59375 
L 19.828125 46.734375 
Q 21.96875 47.46875 24.109375 47.828125 
Q 26.265625 48.1875 28.421875 48.1875 
Q 40.625 48.1875 47.75 41.5 
Q 54.890625 34.8125 54.890625 23.390625 
Q 54.890625 11.625 47.5625 5.09375 
Q 40.234375 -1.421875 26.90625 -1.421875 
Q 22.3125 -1.421875 17.546875 -0.640625 
Q 12.796875 0.140625 7.71875 1.703125 
L 7.71875 11.625 
Q 12.109375 9.234375 16.796875 8.0625 
Q 21.484375 6.890625 26.703125 6.890625 
Q 35.15625 6.890625 40.078125 11.328125 
Q 45.015625 15.765625 45.015625 23.390625 
Q 45.015625 31 40.078125 35.4375 
Q 35.15625 39.890625 26.703125 39.890625 
Q 22.75 39.890625 18.8125 39.015625 
Q 14.890625 38.140625 10.796875 36.28125 
z
" id="DejaVuSans-53"/>
      </defs>
      <g transform="translate(313.559978 322.182437)scale(0.1 -0.1)">
       <use xlink:href="#DejaVuSans-53"/>
       <use x="63.623047" xlink:href="#DejaVuSans-48"/>
       <use x="127.246094" xlink:href="#DejaVuSans-48"/>
       <use x="190.869141" xlink:href="#DejaVuSans-48"/>
       <use x="254.492188" xlink:href="#DejaVuSans-48"/>
      </g>
     </g>
    </g>
    <g id="xtick_7">
     <g id="line2d_13">
      <path clip-path="url(#p2a1ce8c63e)" d="M 380.592928 307.584 
L 380.592928 41.472 
" style="fill:none;stroke:#b0b0b0;stroke-linecap:square;stroke-width:0.8;"/>
     </g>
     <g id="line2d_14">
      <g>
       <use style="stroke:#000000;stroke-width:0.8;" x="380.592928" xlink:href="#m30490e2f40" y="307.584"/>
      </g>
     </g>
     <g id="text_7">
      <!-- 60000 -->
      <defs>
       <path d="M 33.015625 40.375 
Q 26.375 40.375 22.484375 35.828125 
Q 18.609375 31.296875 18.609375 23.390625 
Q 18.609375 15.53125 22.484375 10.953125 
Q 26.375 6.390625 33.015625 6.390625 
Q 39.65625 6.390625 43.53125 10.953125 
Q 47.40625 15.53125 47.40625 23.390625 
Q 47.40625 31.296875 43.53125 35.828125 
Q 39.65625 40.375 33.015625 40.375 
z
M 52.59375 71.296875 
L 52.59375 62.3125 
Q 48.875 64.0625 45.09375 64.984375 
Q 41.3125 65.921875 37.59375 65.921875 
Q 27.828125 65.921875 22.671875 59.328125 
Q 17.53125 52.734375 16.796875 39.40625 
Q 19.671875 43.65625 24.015625 45.921875 
Q 28.375 48.1875 33.59375 48.1875 
Q 44.578125 48.1875 50.953125 41.515625 
Q 57.328125 34.859375 57.328125 23.390625 
Q 57.328125 12.15625 50.6875 5.359375 
Q 44.046875 -1.421875 33.015625 -1.421875 
Q 20.359375 -1.421875 13.671875 8.265625 
Q 6.984375 17.96875 6.984375 36.375 
Q 6.984375 53.65625 15.1875 63.9375 
Q 23.390625 74.21875 37.203125 74.21875 
Q 40.921875 74.21875 44.703125 73.484375 
Q 48.484375 72.75 52.59375 71.296875 
z
" id="DejaVuSans-54"/>
      </defs>
      <g transform="translate(364.686678 322.182437)scale(0.1 -0.1)">
       <use xlink:href="#DejaVuSans-54"/>
       <use x="63.623047" xlink:href="#DejaVuSans-48"/>
       <use x="127.246094" xlink:href="#DejaVuSans-48"/>
       <use x="190.869141" xlink:href="#DejaVuSans-48"/>
       <use x="254.492188" xlink:href="#DejaVuSans-48"/>
      </g>
     </g>
    </g>
    <g id="text_8">
     <!-- Steps -->
     <defs>
      <path d="M 53.515625 70.515625 
L 53.515625 60.890625 
Q 47.90625 63.578125 42.921875 64.890625 
Q 37.9375 66.21875 33.296875 66.21875 
Q 25.25 66.21875 20.875 63.09375 
Q 16.5 59.96875 16.5 54.203125 
Q 16.5 49.359375 19.40625 46.890625 
Q 22.3125 44.4375 30.421875 42.921875 
L 36.375 41.703125 
Q 47.40625 39.59375 52.65625 34.296875 
Q 57.90625 29 57.90625 20.125 
Q 57.90625 9.515625 50.796875 4.046875 
Q 43.703125 -1.421875 29.984375 -1.421875 
Q 24.8125 -1.421875 18.96875 -0.25 
Q 13.140625 0.921875 6.890625 3.21875 
L 6.890625 13.375 
Q 12.890625 10.015625 18.65625 8.296875 
Q 24.421875 6.59375 29.984375 6.59375 
Q 38.421875 6.59375 43.015625 9.90625 
Q 47.609375 13.234375 47.609375 19.390625 
Q 47.609375 24.75 44.3125 27.78125 
Q 41.015625 30.8125 33.5 32.328125 
L 27.484375 33.5 
Q 16.453125 35.6875 11.515625 40.375 
Q 6.59375 45.0625 6.59375 53.421875 
Q 6.59375 63.09375 13.40625 68.65625 
Q 20.21875 74.21875 32.171875 74.21875 
Q 37.3125 74.21875 42.625 73.28125 
Q 47.953125 72.359375 53.515625 70.515625 
z
" id="DejaVuSans-83"/>
      <path d="M 18.3125 70.21875 
L 18.3125 54.6875 
L 36.8125 54.6875 
L 36.8125 47.703125 
L 18.3125 47.703125 
L 18.3125 18.015625 
Q 18.3125 11.328125 20.140625 9.421875 
Q 21.96875 7.515625 27.59375 7.515625 
L 36.8125 7.515625 
L 36.8125 0 
L 27.59375 0 
Q 17.1875 0 13.234375 3.875 
Q 9.28125 7.765625 9.28125 18.015625 
L 9.28125 47.703125 
L 2.6875 47.703125 
L 2.6875 54.6875 
L 9.28125 54.6875 
L 9.28125 70.21875 
z
" id="DejaVuSans-116"/>
      <path d="M 56.203125 29.59375 
L 56.203125 25.203125 
L 14.890625 25.203125 
Q 15.484375 15.921875 20.484375 11.0625 
Q 25.484375 6.203125 34.421875 6.203125 
Q 39.59375 6.203125 44.453125 7.46875 
Q 49.3125 8.734375 54.109375 11.28125 
L 54.109375 2.78125 
Q 49.265625 0.734375 44.1875 -0.34375 
Q 39.109375 -1.421875 33.890625 -1.421875 
Q 20.796875 -1.421875 13.15625 6.1875 
Q 5.515625 13.8125 5.515625 26.8125 
Q 5.515625 40.234375 12.765625 48.109375 
Q 20.015625 56 32.328125 56 
Q 43.359375 56 49.78125 48.890625 
Q 56.203125 41.796875 56.203125 29.59375 
z
M 47.21875 32.234375 
Q 47.125 39.59375 43.09375 43.984375 
Q 39.0625 48.390625 32.421875 48.390625 
Q 24.90625 48.390625 20.390625 44.140625 
Q 15.875 39.890625 15.1875 32.171875 
z
" id="DejaVuSans-101"/>
      <path d="M 18.109375 8.203125 
L 18.109375 -20.796875 
L 9.078125 -20.796875 
L 9.078125 54.6875 
L 18.109375 54.6875 
L 18.109375 46.390625 
Q 20.953125 51.265625 25.265625 53.625 
Q 29.59375 56 35.59375 56 
Q 45.5625 56 51.78125 48.09375 
Q 58.015625 40.1875 58.015625 27.296875 
Q 58.015625 14.40625 51.78125 6.484375 
Q 45.5625 -1.421875 35.59375 -1.421875 
Q 29.59375 -1.421875 25.265625 0.953125 
Q 20.953125 3.328125 18.109375 8.203125 
z
M 48.6875 27.296875 
Q 48.6875 37.203125 44.609375 42.84375 
Q 40.53125 48.484375 33.40625 48.484375 
Q 26.265625 48.484375 22.1875 42.84375 
Q 18.109375 37.203125 18.109375 27.296875 
Q 18.109375 17.390625 22.1875 11.75 
Q 26.265625 6.109375 33.40625 6.109375 
Q 40.53125 6.109375 44.609375 11.75 
Q 48.6875 17.390625 48.6875 27.296875 
z
" id="DejaVuSans-112"/>
      <path d="M 44.28125 53.078125 
L 44.28125 44.578125 
Q 40.484375 46.53125 36.375 47.5 
Q 32.28125 48.484375 27.875 48.484375 
Q 21.1875 48.484375 17.84375 46.4375 
Q 14.5 44.390625 14.5 40.28125 
Q 14.5 37.15625 16.890625 35.375 
Q 19.28125 33.59375 26.515625 31.984375 
L 29.59375 31.296875 
Q 39.15625 29.25 43.1875 25.515625 
Q 47.21875 21.78125 47.21875 15.09375 
Q 47.21875 7.46875 41.1875 3.015625 
Q 35.15625 -1.421875 24.609375 -1.421875 
Q 20.21875 -1.421875 15.453125 -0.5625 
Q 10.6875 0.296875 5.421875 2 
L 5.421875 11.28125 
Q 10.40625 8.6875 15.234375 7.390625 
Q 20.0625 6.109375 24.8125 6.109375 
Q 31.15625 6.109375 34.5625 8.28125 
Q 37.984375 10.453125 37.984375 14.40625 
Q 37.984375 18.0625 35.515625 20.015625 
Q 33.0625 21.96875 24.703125 23.78125 
L 21.578125 24.515625 
Q 13.234375 26.265625 9.515625 29.90625 
Q 5.8125 33.546875 5.8125 39.890625 
Q 5.8125 47.609375 11.28125 51.796875 
Q 16.75 56 26.8125 56 
Q 31.78125 56 36.171875 55.265625 
Q 40.578125 54.546875 44.28125 53.078125 
z
" id="DejaVuSans-115"/>
     </defs>
     <g transform="translate(222.170156 335.860562)scale(0.1 -0.1)">
      <use xlink:href="#DejaVuSans-83"/>
      <use x="63.476562" xlink:href="#DejaVuSans-116"/>
      <use x="102.685547" xlink:href="#DejaVuSans-101"/>
      <use x="164.208984" xlink:href="#DejaVuSans-112"/>
      <use x="227.685547" xlink:href="#DejaVuSans-115"/>
     </g>
    </g>
   </g>
   <g id="matplotlib.axis_2">
    <g id="ytick_1">
     <g id="line2d_15">
      <path clip-path="url(#p2a1ce8c63e)" d="M 57.6 172.064901 
L 414.72 172.064901 
" style="fill:none;stroke:#b0b0b0;stroke-linecap:square;stroke-width:0.8;"/>
     </g>
     <g id="line2d_16">
      <defs>
       <path d="M 0 0 
L -3.5 0 
" id="maab53322aa" style="stroke:#000000;stroke-width:0.8;"/>
      </defs>
      <g>
       <use style="stroke:#000000;stroke-width:0.8;" x="57.6" xlink:href="#maab53322aa" y="172.064901"/>
      </g>
     </g>
     <g id="text_9">
      <!-- $\mathdefault{10^{0}}$ -->
      <g transform="translate(33 175.86412)scale(0.1 -0.1)">
       <use transform="translate(0 0.765625)" xlink:href="#DejaVuSans-49"/>
       <use transform="translate(63.623047 0.765625)" xlink:href="#DejaVuSans-48"/>
       <use transform="translate(128.203125 39.046875)scale(0.7)" xlink:href="#DejaVuSans-48"/>
      </g>
     </g>
    </g>
    <g id="ytick_2">
     <g id="line2d_17">
      <defs>
       <path d="M 0 0 
L -2 0 
" id="m70196a336a" style="stroke:#000000;stroke-width:0.6;"/>
      </defs>
      <g>
       <use style="stroke:#000000;stroke-width:0.6;" x="57.6" xlink:href="#m70196a336a" y="272.784678"/>
      </g>
     </g>
    </g>
    <g id="ytick_3">
     <g id="line2d_18">
      <g>
       <use style="stroke:#000000;stroke-width:0.6;" x="57.6" xlink:href="#m70196a336a" y="247.410381"/>
      </g>
     </g>
    </g>
    <g id="ytick_4">
     <g id="line2d_19">
      <g>
       <use style="stroke:#000000;stroke-width:0.6;" x="57.6" xlink:href="#m70196a336a" y="229.407031"/>
      </g>
     </g>
    </g>
    <g id="ytick_5">
     <g id="line2d_20">
      <g>
       <use style="stroke:#000000;stroke-width:0.6;" x="57.6" xlink:href="#m70196a336a" y="215.442548"/>
      </g>
     </g>
    </g>
    <g id="ytick_6">
     <g id="line2d_21">
      <g>
       <use style="stroke:#000000;stroke-width:0.6;" x="57.6" xlink:href="#m70196a336a" y="204.032734"/>
      </g>
     </g>
    </g>
    <g id="ytick_7">
     <g id="line2d_22">
      <g>
       <use style="stroke:#000000;stroke-width:0.6;" x="57.6" xlink:href="#m70196a336a" y="194.385874"/>
      </g>
     </g>
    </g>
    <g id="ytick_8">
     <g id="line2d_23">
      <g>
       <use style="stroke:#000000;stroke-width:0.6;" x="57.6" xlink:href="#m70196a336a" y="186.029384"/>
      </g>
     </g>
    </g>
    <g id="ytick_9">
     <g id="line2d_24">
      <g>
       <use style="stroke:#000000;stroke-width:0.6;" x="57.6" xlink:href="#m70196a336a" y="178.658438"/>
      </g>
     </g>
    </g>
    <g id="ytick_10">
     <g id="line2d_25">
      <g>
       <use style="stroke:#000000;stroke-width:0.6;" x="57.6" xlink:href="#m70196a336a" y="128.687254"/>
      </g>
     </g>
    </g>
    <g id="ytick_11">
     <g id="line2d_26">
      <g>
       <use style="stroke:#000000;stroke-width:0.6;" x="57.6" xlink:href="#m70196a336a" y="103.312957"/>
      </g>
     </g>
    </g>
    <g id="ytick_12">
     <g id="line2d_27">
      <g>
       <use style="stroke:#000000;stroke-width:0.6;" x="57.6" xlink:href="#m70196a336a" y="85.309607"/>
      </g>
     </g>
    </g>
    <g id="ytick_13">
     <g id="line2d_28">
      <g>
       <use style="stroke:#000000;stroke-width:0.6;" x="57.6" xlink:href="#m70196a336a" y="71.345124"/>
      </g>
     </g>
    </g>
    <g id="ytick_14">
     <g id="line2d_29">
      <g>
       <use style="stroke:#000000;stroke-width:0.6;" x="57.6" xlink:href="#m70196a336a" y="59.93531"/>
      </g>
     </g>
    </g>
    <g id="ytick_15">
     <g id="line2d_30">
      <g>
       <use style="stroke:#000000;stroke-width:0.6;" x="57.6" xlink:href="#m70196a336a" y="50.28845"/>
      </g>
     </g>
    </g>
    <g id="ytick_16">
     <g id="line2d_31">
      <g>
       <use style="stroke:#000000;stroke-width:0.6;" x="57.6" xlink:href="#m70196a336a" y="41.93196"/>
      </g>
     </g>
    </g>
    <g id="text_10">
     <!-- KLD -->
     <defs>
      <path d="M 9.8125 72.90625 
L 19.671875 72.90625 
L 19.671875 42.09375 
L 52.390625 72.90625 
L 65.09375 72.90625 
L 28.90625 38.921875 
L 67.671875 0 
L 54.6875 0 
L 19.671875 35.109375 
L 19.671875 0 
L 9.8125 0 
z
" id="DejaVuSans-75"/>
      <path d="M 9.8125 72.90625 
L 19.671875 72.90625 
L 19.671875 8.296875 
L 55.171875 8.296875 
L 55.171875 0 
L 9.8125 0 
z
" id="DejaVuSans-76"/>
      <path d="M 19.671875 64.796875 
L 19.671875 8.109375 
L 31.59375 8.109375 
Q 46.6875 8.109375 53.6875 14.9375 
Q 60.6875 21.78125 60.6875 36.53125 
Q 60.6875 51.171875 53.6875 57.984375 
Q 46.6875 64.796875 31.59375 64.796875 
z
M 9.8125 72.90625 
L 30.078125 72.90625 
Q 51.265625 72.90625 61.171875 64.09375 
Q 71.09375 55.28125 71.09375 36.53125 
Q 71.09375 17.671875 61.125 8.828125 
Q 51.171875 0 30.078125 0 
L 9.8125 0 
z
" id="DejaVuSans-68"/>
     </defs>
     <g transform="translate(26.920313 184.442844)rotate(-90)scale(0.1 -0.1)">
      <use xlink:href="#DejaVuSans-75"/>
      <use x="65.576172" xlink:href="#DejaVuSans-76"/>
      <use x="121.289062" xlink:href="#DejaVuSans-68"/>
     </g>
    </g>
   </g>
   <g id="line2d_32">
    <path clip-path="url(#p2a1ce8c63e)" d="M 73.83784 198.157043 
L 73.848065 198.143931 
L 73.894079 198.282282 
L 73.960544 198.46655 
L 74.032121 198.43731 
L 74.52805 199.082478 
L 74.742783 199.425565 
L 74.834811 199.606649 
L 75.228486 200.639252 
L 75.576148 201.337648 
L 76.368612 203.5938 
L 77.294005 205.036944 
L 78.040455 205.310339 
L 79.190805 205.439696 
L 79.62027 205.61465 
L 80.08041 205.802833 
L 80.325818 206.247571 
L 80.397396 206.024486 
L 80.591677 206.119684 
L 81.220535 206.756305 
L 81.711352 207.198111 
L 81.859619 207.28954 
L 82.309534 207.916628 
L 83.122449 208.863734 
L 83.567251 209.439546 
L 83.572364 209.721664 
L 83.67973 209.596405 
L 84.124532 210.101316 
L 84.594898 210.836169 
L 84.922109 211.348639 
L 85.249319 211.718461 
L 85.88329 212.498882 
L 86.813796 213.569081 
L 86.818909 213.870235 
L 86.926275 213.708936 
L 88.373161 215.262836 
L 92.013382 220.177732 
L 92.570663 220.761791 
L 93.306887 221.740425 
L 93.312 222.081154 
L 93.419366 221.933613 
L 94.119802 223.14569 
L 94.67197 224.144446 
L 95.479772 225.596599 
L 96.553433 227.271786 
L 96.558545 227.639373 
L 96.665912 227.460371 
L 97.846938 229.495814 
L 98.393994 230.528055 
L 99.569908 232.823348 
L 100.162978 233.9692 
L 103.046524 240.192749 
L 103.051636 240.621938 
L 103.159002 240.426208 
L 103.90034 242.207817 
L 104.66724 243.876682 
L 105.20407 244.93717 
L 106.293069 247.435935 
L 106.298182 247.903885 
L 106.405548 247.666738 
L 107.075308 249.158139 
L 108.087616 251.526424 
L 109.258418 253.97346 
L 109.539615 254.461611 
L 109.544727 254.968272 
L 109.652093 254.671428 
L 109.98953 255.468525 
L 110.720641 257.059929 
L 112.78616 261.152377 
L 112.791273 261.703916 
L 112.898639 261.37424 
L 114.611383 264.662476 
L 115.613467 266.229436 
L 116.032706 266.937534 
L 116.037818 267.531987 
L 116.145184 267.120703 
L 117.172831 268.485974 
L 118.016421 269.431293 
L 119.279251 270.916382 
L 119.284364 271.543213 
L 119.386617 271.062908 
L 120.286447 272.113661 
L 121.099361 272.854866 
L 122.433768 273.996428 
L 122.525796 274.058263 
L 122.530909 274.710619 
L 122.633162 274.142392 
L 124.489062 275.6662 
L 125.772342 276.840119 
L 125.777455 277.519433 
L 125.879708 276.938179 
L 127.786734 278.458396 
L 129.018887 279.203267 
L 129.024 279.903798 
L 129.126253 279.263296 
L 129.755112 279.785713 
L 131.478082 281.169818 
L 132.265433 281.641468 
L 132.270545 282.366397 
L 132.372799 281.710272 
L 135.210331 283.641571 
L 135.511978 283.790845 
L 135.517091 284.53688 
L 135.619344 283.851058 
L 138.226806 285.216082 
L 138.758524 285.463967 
L 138.763636 286.227913 
L 138.86589 285.519805 
L 139.699255 285.968562 
L 141.365985 286.579952 
L 142.005069 286.766907 
L 142.010182 287.543743 
L 142.112435 286.803028 
L 145.251615 287.848197 
L 145.256727 288.636539 
L 145.358981 287.883791 
L 147.112626 288.570541 
L 148.324329 288.985238 
L 148.49816 289.010975 
L 148.503273 289.811399 
L 148.605526 289.039395 
L 151.744706 289.799606 
L 151.749818 290.609367 
L 151.852072 289.825515 
L 154.249914 290.502288 
L 154.991251 290.701286 
L 154.996364 291.520178 
L 155.098617 290.714872 
L 158.237796 291.234366 
L 158.242909 292.058996 
L 158.345162 291.237666 
L 159.03026 291.337638 
L 160.093696 291.551699 
L 160.952624 291.745949 
L 161.484342 291.836381 
L 161.489455 292.667683 
L 161.591708 291.851334 
L 162.491538 291.893253 
L 163.611213 291.950031 
L 164.730887 292.035101 
L 164.736 292.868474 
L 164.838253 292.051871 
L 167.113392 292.222501 
L 167.977433 292.214652 
L 167.982545 293.048895 
L 168.04901 292.210365 
L 168.084799 292.210175 
L 168.769897 292.290677 
L 169.700403 292.466621 
L 170.083853 292.478596 
L 171.223978 292.448775 
L 171.229091 293.284723 
L 171.331344 292.452695 
L 172.26185 292.508143 
L 173.672947 292.62498 
L 174.470524 292.692833 
L 174.475636 293.53129 
L 174.57789 292.696506 
L 177.717069 292.881631 
L 177.722182 293.720645 
L 177.824435 292.889873 
L 179.542292 293.062973 
L 180.963615 293.161277 
L 180.968727 294.003164 
L 181.070981 293.168277 
L 184.21016 293.291562 
L 184.215273 294.134153 
L 184.317526 293.304776 
L 185.999595 293.385294 
L 187.456706 293.33651 
L 187.461818 294.178726 
L 187.564072 293.346029 
L 188.893366 293.402936 
L 189.660266 293.423423 
L 190.703251 293.412608 
L 190.708364 294.255034 
L 190.810617 293.409697 
L 191.741123 293.411512 
L 193.38229 293.381477 
L 193.949796 293.357532 
L 193.954909 294.1987 
L 193.960022 293.357435 
L 194.057162 293.36013 
L 195.386457 293.30831 
L 196.368089 293.312958 
L 197.196342 293.305903 
L 197.201455 294.14653 
L 197.303708 293.304356 
L 199.287424 293.200859 
L 200.427549 293.189514 
L 200.442887 293.189708 
L 200.448 294.028175 
L 200.550253 293.181491 
L 201.608576 293.068221 
L 202.78449 292.914771 
L 203.689433 292.834645 
L 203.694545 293.668969 
L 203.76101 292.829371 
L 203.796799 292.829853 
L 206.935978 292.663404 
L 206.941091 293.495043 
L 207.043344 292.64839 
L 208.239709 292.567951 
L 208.981046 292.530762 
L 210.182524 292.49799 
L 210.187636 293.328371 
L 210.28989 292.491416 
L 210.985213 292.480959 
L 213.429069 292.458722 
L 213.434182 293.289453 
L 213.536435 292.460102 
L 216.675615 292.539481 
L 216.680727 293.370281 
L 216.68584 292.53906 
L 216.782981 292.546067 
L 217.866867 292.545549 
L 219.681865 292.545607 
L 219.92216 292.551355 
L 219.927273 293.382553 
L 220.029526 292.556285 
L 222.054143 292.576164 
L 223.168706 292.61242 
L 223.173818 293.44439 
L 223.276072 292.617592 
L 226.067589 292.775134 
L 226.415251 292.80651 
L 226.420364 293.640859 
L 226.522617 292.820624 
L 229.661796 293.327322 
L 229.666909 294.168351 
L 229.769162 293.349203 
L 232.908342 293.862861 
L 232.913455 294.710247 
L 233.015708 293.86898 
L 236.154887 293.962646 
L 236.16 294.811824 
L 236.262253 293.956557 
L 237.744928 293.998949 
L 238.920842 294.064241 
L 239.401433 294.06092 
L 239.406545 294.913002 
L 239.508799 294.077476 
L 240.694938 294.168593 
L 242.647978 294.15101 
L 242.653091 295.003962 
L 242.755344 294.141813 
L 244.35561 294.178883 
L 245.894524 294.245415 
L 245.899636 295.101482 
L 246.00189 294.252208 
L 247.862902 294.29657 
L 249.141069 294.323199 
L 249.146182 295.181892 
L 249.248435 294.333054 
L 250.255631 294.369618 
L 251.400869 294.396285 
L 252.387615 294.439457 
L 252.392727 295.299924 
L 252.469417 294.438369 
L 252.494981 294.439279 
L 255.63416 294.497274 
L 255.639273 295.360021 
L 255.741526 294.489946 
L 256.927666 294.488304 
L 258.880706 294.556591 
L 258.885818 295.422324 
L 258.988072 294.565024 
L 260.163986 294.656279 
L 262.127251 294.620922 
L 262.132364 295.488 
L 262.147702 294.620618 
L 262.234617 294.621543 
L 265.205078 294.541222 
L 265.373796 294.523276 
L 265.378909 295.391008 
L 265.481162 294.525408 
L 267.689836 294.428801 
L 268.620342 294.358889 
L 268.625455 295.225963 
L 268.697032 294.35182 
L 268.727708 294.351912 
L 269.980312 294.345601 
L 271.135776 294.212915 
L 271.866887 294.093288 
L 271.872 294.957774 
L 271.974253 294.068735 
L 272.633788 293.98988 
L 273.830153 293.864409 
L 274.59194 293.799749 
L 275.113433 293.759069 
L 275.118545 294.62223 
L 275.220799 293.746815 
L 277.224965 293.61835 
L 278.359978 293.545815 
L 278.365091 294.408931 
L 278.467344 293.537162 
L 281.606524 293.163679 
L 281.611636 294.023409 
L 281.71389 293.142799 
L 283.886775 292.860344 
L 284.853069 292.785223 
L 284.858182 293.643592 
L 284.960435 292.778297 
L 285.998307 292.657472 
L 286.422659 292.591845 
L 288.099615 292.457267 
L 288.104727 293.314142 
L 288.206981 292.449427 
L 289.454472 292.313472 
L 290.671288 292.137119 
L 291.34616 292.077645 
L 291.351273 292.93131 
L 291.453526 292.065271 
L 293.365665 291.861629 
L 294.592706 291.762383 
L 294.597818 292.614981 
L 294.700072 291.760021 
L 297.552941 291.627911 
L 297.839251 291.603834 
L 297.844364 292.455511 
L 297.931279 291.597876 
L 297.946617 291.597901 
L 299.419066 291.436294 
L 301.085796 291.190414 
L 301.090909 292.039008 
L 301.193162 291.178865 
L 304.332342 290.888334 
L 304.337455 291.734505 
L 304.439708 290.869071 
L 306.489889 290.800573 
L 307.578887 290.791998 
L 307.584 291.64064 
L 307.686253 290.794168 
L 309.005322 290.829892 
L 310.825433 290.90219 
L 310.830545 291.753859 
L 310.932799 290.920921 
L 311.745713 290.990001 
L 314.071978 291.039766 
L 314.077091 291.89274 
L 314.128218 291.038705 
L 314.179344 291.039379 
L 315.283681 291.055098 
L 317.318524 291.230822 
L 317.323636 292.085819 
L 317.42589 291.226678 
L 318.714283 291.31524 
L 320.565069 291.435603 
L 320.570182 292.292804 
L 320.672435 291.444687 
L 321.526251 291.559396 
L 322.988475 291.648732 
L 323.325911 291.691538 
L 323.811615 291.763134 
L 323.816727 292.624672 
L 323.918981 291.784734 
L 324.890388 291.879998 
L 325.846457 291.928887 
L 327.05816 291.940335 
L 327.063273 292.803107 
L 327.165526 291.943856 
L 330.304706 291.961565 
L 330.309818 292.824169 
L 330.314931 291.961007 
L 330.412072 291.967868 
L 332.303759 292.118884 
L 333.157575 292.15478 
L 333.551251 292.188174 
L 333.556364 293.053258 
L 333.658617 292.183641 
L 335.943981 292.306077 
L 336.797796 292.320811 
L 336.802909 293.187421 
L 336.848923 292.32004 
L 336.905162 292.323334 
L 339.308117 292.439519 
L 339.977877 292.46332 
L 340.044342 292.463186 
L 340.049455 293.331706 
L 340.075018 292.461915 
L 340.151708 292.462036 
L 341.215143 292.526377 
L 343.290887 292.60241 
L 343.296 293.47245 
L 343.37269 292.597201 
L 343.398253 292.598679 
L 346.476081 292.599607 
L 346.537433 292.595755 
L 346.542545 293.466603 
L 346.634574 292.591749 
L 346.644799 292.592172 
L 348.004769 292.552615 
L 349.783978 292.52079 
L 349.789091 293.39112 
L 349.82488 292.518553 
L 349.891344 292.520752 
L 351.558075 292.526159 
L 353.030524 292.478066 
L 353.035636 293.348341 
L 353.091876 292.475185 
L 353.13789 292.475198 
L 356.277069 292.447907 
L 356.282182 293.31833 
L 356.358872 292.444511 
L 356.384435 292.445117 
L 357.928462 292.412933 
L 359.523615 292.347428 
L 359.528727 293.21775 
L 359.61053 292.343222 
L 359.630981 292.343413 
L 361.481767 292.237057 
L 362.77016 292.15872 
L 362.775273 293.027692 
L 362.780385 292.15851 
L 362.877526 292.158943 
L 366.016706 292.057625 
L 366.021818 292.926337 
L 366.047382 292.055824 
L 366.124072 292.057232 
L 367.448253 291.956263 
L 369.263251 291.752811 
L 369.268364 292.61877 
L 369.370617 291.734524 
L 371.645755 291.50109 
L 372.509796 291.410287 
L 372.514909 292.273219 
L 372.61205 291.398817 
L 372.617162 291.398923 
L 373.946457 291.274852 
L 375.756342 291.146994 
L 375.761455 292.008337 
L 375.863708 291.135321 
L 378.251325 290.923338 
L 379.002887 290.864011 
L 379.008 291.723631 
L 379.094915 290.859336 
L 379.110253 290.859286 
L 381.278025 290.631942 
L 382.249433 290.516672 
L 382.254545 291.37255 
L 382.356799 290.496143 
L 385.495978 290.099471 
L 385.501091 290.952821 
L 385.603344 290.086572 
L 388.742524 289.726974 
L 388.747636 290.577072 
L 388.84989 289.710699 
L 389.82641 289.614029 
L 391.989069 289.373059 
L 391.994182 290.220467 
L 392.096435 289.357289 
L 395.235615 288.873677 
L 395.240727 289.717152 
L 395.342981 288.857044 
L 396.590472 288.675168 
L 398.287879 288.400356 
L 398.48216 288.369677 
L 398.487273 289.208717 
L 398.487273 289.208717 
" style="fill:none;stroke:#1f77b4;stroke-linecap:square;stroke-width:1.5;"/>
   </g>
   <g id="line2d_33">
    <path clip-path="url(#p2a1ce8c63e)" d="M 73.832727 53.568 
L 77.079273 144.191372 
L 80.325818 155.227323 
L 83.572364 159.434935 
L 86.818909 164.901585 
L 90.065455 167.164027 
L 93.312 167.260537 
L 96.558545 168.103698 
L 99.805091 178.367594 
L 103.051636 179.721913 
L 106.298182 183.830449 
L 109.544727 186.101276 
L 112.791273 191.182482 
L 116.037818 194.06504 
L 119.284364 192.93379 
L 122.530909 191.045265 
L 125.777455 193.196739 
L 129.024 191.932209 
L 132.270545 194.525815 
L 135.517091 195.516295 
L 138.763636 194.784921 
L 142.010182 197.180867 
L 145.256727 196.349957 
L 148.503273 194.767023 
L 151.749818 192.249662 
L 154.996364 194.789203 
L 158.242909 195.674139 
L 161.489455 195.575974 
L 164.736 194.730946 
L 167.982545 191.189869 
L 171.229091 192.676042 
L 174.475636 193.983333 
L 177.722182 193.080031 
L 180.968727 192.710795 
L 184.215273 194.182071 
L 187.461818 191.345399 
L 190.708364 191.635846 
L 193.954909 192.398864 
L 197.201455 195.176128 
L 200.448 190.575432 
L 203.694545 189.444175 
L 206.941091 189.845747 
L 210.187636 191.444808 
L 213.434182 191.643348 
L 216.680727 190.717118 
L 219.927273 189.528571 
L 223.173818 189.217962 
L 226.420364 193.190603 
L 229.666909 189.802701 
L 232.913455 190.225767 
L 236.16 192.116723 
L 239.406545 191.135706 
L 242.653091 190.36052 
L 245.899636 188.855549 
L 249.146182 189.675913 
L 252.392727 190.255008 
L 255.639273 189.932333 
L 258.885818 189.932598 
L 262.132364 189.523351 
L 265.378909 190.90338 
L 268.625455 191.878054 
L 271.872 188.844343 
L 275.118545 189.103643 
L 278.365091 188.325433 
L 281.611636 187.452086 
L 284.858182 189.181867 
L 288.104727 189.686276 
L 291.351273 189.000531 
L 294.597818 189.017179 
L 297.844364 186.77464 
L 301.090909 187.542549 
L 304.337455 188.386586 
L 307.584 188.293537 
L 310.830545 188.985864 
L 314.077091 194.303884 
L 317.323636 189.996257 
L 320.570182 190.460737 
L 323.816727 193.422979 
L 327.063273 191.883442 
L 330.309818 194.995334 
L 333.556364 194.6283 
L 336.802909 192.742919 
L 340.049455 192.441036 
L 343.296 193.909742 
L 346.542545 193.988936 
L 349.789091 194.000161 
L 353.035636 195.194543 
L 356.282182 191.701462 
L 359.528727 192.139666 
L 362.775273 191.734251 
L 366.021818 195.34279 
L 369.268364 190.117397 
L 372.514909 192.937093 
L 375.761455 193.419305 
L 379.008 192.086094 
L 382.254545 190.810709 
L 385.501091 191.429312 
L 388.747636 190.05645 
L 391.994182 189.357792 
L 395.240727 190.629143 
L 398.487273 189.184683 
" style="fill:none;stroke:#ff7f0e;stroke-linecap:square;stroke-width:1.5;"/>
   </g>
   <g id="patch_3">
    <path d="M 57.6 307.584 
L 57.6 41.472 
" style="fill:none;stroke:#000000;stroke-linecap:square;stroke-linejoin:miter;stroke-width:0.8;"/>
   </g>
   <g id="patch_4">
    <path d="M 414.72 307.584 
L 414.72 41.472 
" style="fill:none;stroke:#000000;stroke-linecap:square;stroke-linejoin:miter;stroke-width:0.8;"/>
   </g>
   <g id="patch_5">
    <path d="M 57.6 307.584 
L 414.72 307.584 
" style="fill:none;stroke:#000000;stroke-linecap:square;stroke-linejoin:miter;stroke-width:0.8;"/>
   </g>
   <g id="patch_6">
    <path d="M 57.6 41.472 
L 414.72 41.472 
" style="fill:none;stroke:#000000;stroke-linecap:square;stroke-linejoin:miter;stroke-width:0.8;"/>
   </g>
   <g id="text_11">
    <!-- KL Divergence -->
    <defs>
     <path id="DejaVuSans-32"/>
     <path d="M 9.421875 54.6875 
L 18.40625 54.6875 
L 18.40625 0 
L 9.421875 0 
z
M 9.421875 75.984375 
L 18.40625 75.984375 
L 18.40625 64.59375 
L 9.421875 64.59375 
z
" id="DejaVuSans-105"/>
     <path d="M 2.984375 54.6875 
L 12.5 54.6875 
L 29.59375 8.796875 
L 46.6875 54.6875 
L 56.203125 54.6875 
L 35.6875 0 
L 23.484375 0 
z
" id="DejaVuSans-118"/>
     <path d="M 41.109375 46.296875 
Q 39.59375 47.171875 37.8125 47.578125 
Q 36.03125 48 33.890625 48 
Q 26.265625 48 22.1875 43.046875 
Q 18.109375 38.09375 18.109375 28.8125 
L 18.109375 0 
L 9.078125 0 
L 9.078125 54.6875 
L 18.109375 54.6875 
L 18.109375 46.1875 
Q 20.953125 51.171875 25.484375 53.578125 
Q 30.03125 56 36.53125 56 
Q 37.453125 56 38.578125 55.875 
Q 39.703125 55.765625 41.0625 55.515625 
z
" id="DejaVuSans-114"/>
     <path d="M 45.40625 27.984375 
Q 45.40625 37.75 41.375 43.109375 
Q 37.359375 48.484375 30.078125 48.484375 
Q 22.859375 48.484375 18.828125 43.109375 
Q 14.796875 37.75 14.796875 27.984375 
Q 14.796875 18.265625 18.828125 12.890625 
Q 22.859375 7.515625 30.078125 7.515625 
Q 37.359375 7.515625 41.375 12.890625 
Q 45.40625 18.265625 45.40625 27.984375 
z
M 54.390625 6.78125 
Q 54.390625 -7.171875 48.1875 -13.984375 
Q 42 -20.796875 29.203125 -20.796875 
Q 24.46875 -20.796875 20.265625 -20.09375 
Q 16.0625 -19.390625 12.109375 -17.921875 
L 12.109375 -9.1875 
Q 16.0625 -11.328125 19.921875 -12.34375 
Q 23.78125 -13.375 27.78125 -13.375 
Q 36.625 -13.375 41.015625 -8.765625 
Q 45.40625 -4.15625 45.40625 5.171875 
L 45.40625 9.625 
Q 42.625 4.78125 38.28125 2.390625 
Q 33.9375 0 27.875 0 
Q 17.828125 0 11.671875 7.65625 
Q 5.515625 15.328125 5.515625 27.984375 
Q 5.515625 40.671875 11.671875 48.328125 
Q 17.828125 56 27.875 56 
Q 33.9375 56 38.28125 53.609375 
Q 42.625 51.21875 45.40625 46.390625 
L 45.40625 54.6875 
L 54.390625 54.6875 
z
" id="DejaVuSans-103"/>
     <path d="M 54.890625 33.015625 
L 54.890625 0 
L 45.90625 0 
L 45.90625 32.71875 
Q 45.90625 40.484375 42.875 44.328125 
Q 39.84375 48.1875 33.796875 48.1875 
Q 26.515625 48.1875 22.3125 43.546875 
Q 18.109375 38.921875 18.109375 30.90625 
L 18.109375 0 
L 9.078125 0 
L 9.078125 54.6875 
L 18.109375 54.6875 
L 18.109375 46.1875 
Q 21.34375 51.125 25.703125 53.5625 
Q 30.078125 56 35.796875 56 
Q 45.21875 56 50.046875 50.171875 
Q 54.890625 44.34375 54.890625 33.015625 
z
" id="DejaVuSans-110"/>
     <path d="M 48.78125 52.59375 
L 48.78125 44.1875 
Q 44.96875 46.296875 41.140625 47.34375 
Q 37.3125 48.390625 33.40625 48.390625 
Q 24.65625 48.390625 19.8125 42.84375 
Q 14.984375 37.3125 14.984375 27.296875 
Q 14.984375 17.28125 19.8125 11.734375 
Q 24.65625 6.203125 33.40625 6.203125 
Q 37.3125 6.203125 41.140625 7.25 
Q 44.96875 8.296875 48.78125 10.40625 
L 48.78125 2.09375 
Q 45.015625 0.34375 40.984375 -0.53125 
Q 36.96875 -1.421875 32.421875 -1.421875 
Q 20.0625 -1.421875 12.78125 6.34375 
Q 5.515625 14.109375 5.515625 27.296875 
Q 5.515625 40.671875 12.859375 48.328125 
Q 20.21875 56 33.015625 56 
Q 37.15625 56 41.109375 55.140625 
Q 45.0625 54.296875 48.78125 52.59375 
z
" id="DejaVuSans-99"/>
    </defs>
    <g transform="translate(192.685313 35.472)scale(0.12 -0.12)">
     <use xlink:href="#DejaVuSans-75"/>
     <use x="65.576172" xlink:href="#DejaVuSans-76"/>
     <use x="121.289062" xlink:href="#DejaVuSans-32"/>
     <use x="153.076172" xlink:href="#DejaVuSans-68"/>
     <use x="230.078125" xlink:href="#DejaVuSans-105"/>
     <use x="257.861328" xlink:href="#DejaVuSans-118"/>
     <use x="317.041016" xlink:href="#DejaVuSans-101"/>
     <use x="378.564453" xlink:href="#DejaVuSans-114"/>
     <use x="419.662109" xlink:href="#DejaVuSans-103"/>
     <use x="483.138672" xlink:href="#DejaVuSans-101"/>
     <use x="544.662109" xlink:href="#DejaVuSans-110"/>
     <use x="608.041016" xlink:href="#DejaVuSans-99"/>
     <use x="663.021484" xlink:href="#DejaVuSans-101"/>
    </g>
   </g>
   <g id="legend_1">
    <g id="patch_7">
     <path d="M 350.279375 78.82825 
L 407.72 78.82825 
Q 409.72 78.82825 409.72 76.82825 
L 409.72 48.472 
Q 409.72 46.472 407.72 46.472 
L 350.279375 46.472 
Q 348.279375 46.472 348.279375 48.472 
L 348.279375 76.82825 
Q 348.279375 78.82825 350.279375 78.82825 
z
" style="fill:#ffffff;opacity:0.8;stroke:#cccccc;stroke-linejoin:miter;"/>
    </g>
    <g id="line2d_34">
     <path d="M 352.279375 54.570437 
L 372.279375 54.570437 
" style="fill:none;stroke:#1f77b4;stroke-linecap:square;stroke-width:1.5;"/>
    </g>
    <g id="line2d_35"/>
    <g id="text_12">
     <!-- Train -->
     <defs>
      <path d="M -0.296875 72.90625 
L 61.375 72.90625 
L 61.375 64.59375 
L 35.5 64.59375 
L 35.5 0 
L 25.59375 0 
L 25.59375 64.59375 
L -0.296875 64.59375 
z
" id="DejaVuSans-84"/>
      <path d="M 34.28125 27.484375 
Q 23.390625 27.484375 19.1875 25 
Q 14.984375 22.515625 14.984375 16.5 
Q 14.984375 11.71875 18.140625 8.90625 
Q 21.296875 6.109375 26.703125 6.109375 
Q 34.1875 6.109375 38.703125 11.40625 
Q 43.21875 16.703125 43.21875 25.484375 
L 43.21875 27.484375 
z
M 52.203125 31.203125 
L 52.203125 0 
L 43.21875 0 
L 43.21875 8.296875 
Q 40.140625 3.328125 35.546875 0.953125 
Q 30.953125 -1.421875 24.3125 -1.421875 
Q 15.921875 -1.421875 10.953125 3.296875 
Q 6 8.015625 6 15.921875 
Q 6 25.140625 12.171875 29.828125 
Q 18.359375 34.515625 30.609375 34.515625 
L 43.21875 34.515625 
L 43.21875 35.40625 
Q 43.21875 41.609375 39.140625 45 
Q 35.0625 48.390625 27.6875 48.390625 
Q 23 48.390625 18.546875 47.265625 
Q 14.109375 46.140625 10.015625 43.890625 
L 10.015625 52.203125 
Q 14.9375 54.109375 19.578125 55.046875 
Q 24.21875 56 28.609375 56 
Q 40.484375 56 46.34375 49.84375 
Q 52.203125 43.703125 52.203125 31.203125 
z
" id="DejaVuSans-97"/>
     </defs>
     <g transform="translate(380.279375 58.070437)scale(0.1 -0.1)">
      <use xlink:href="#DejaVuSans-84"/>
      <use x="60.865234" xlink:href="#DejaVuSans-114"/>
      <use x="101.978516" xlink:href="#DejaVuSans-97"/>
      <use x="163.257812" xlink:href="#DejaVuSans-105"/>
      <use x="191.041016" xlink:href="#DejaVuSans-110"/>
     </g>
    </g>
    <g id="line2d_36">
     <path d="M 352.279375 69.248562 
L 372.279375 69.248562 
" style="fill:none;stroke:#ff7f0e;stroke-linecap:square;stroke-width:1.5;"/>
    </g>
    <g id="line2d_37"/>
    <g id="text_13">
     <!-- Test -->
     <g transform="translate(380.279375 72.748562)scale(0.1 -0.1)">
      <use xlink:href="#DejaVuSans-84"/>
      <use x="60.818359" xlink:href="#DejaVuSans-101"/>
      <use x="122.341797" xlink:href="#DejaVuSans-115"/>
      <use x="174.441406" xlink:href="#DejaVuSans-116"/>
     </g>
    </g>
   </g>
  </g>
 </g>
 <defs>
  <clipPath id="p2a1ce8c63e">
   <rect height="266.112" width="357.12" x="57.6" y="41.472"/>
  </clipPath>
 </defs>
</svg>
